<svg xmlns="http://www.w3.org/2000/svg" xmlns:xlink="http://www.w3.org/1999/xlink" viewBox="2761.713 2355.553 376.898 355.694">
  <defs>
    <style>
      .cls-1, .cls-20 {
        opacity: 0.2;
      }

      .cls-2 {
        fill: url(#linear-gradient);
      }

      .cls-3 {
        opacity: 0.4;
      }

      .cls-4 {
        fill: #333854;
      }

      .cls-5 {
        fill: #3a6daa;
      }

      .cls-6 {
        fill: #274f88;
      }

      .cls-7 {
        fill: #c9d7e4;
      }

      .cls-8 {
        fill: #fff;
      }

      .cls-9 {
        fill: #10203b;
      }

      .cls-10 {
        fill: #0275bb;
      }

      .cls-11 {
        fill: url(#linear-gradient-2);
      }

      .cls-12 {
        fill: url(#linear-gradient-3);
      }

      .cls-13 {
        fill: url(#linear-gradient-4);
      }

      .cls-14 {
        fill: url(#linear-gradient-5);
      }

      .cls-15 {
        fill: url(#linear-gradient-6);
      }

      .cls-16 {
        fill: url(#radial-gradient);
      }

      .cls-17 {
        fill: url(#linear-gradient-7);
      }

      .cls-18 {
        fill: url(#linear-gradient-8);
      }

      .cls-19 {
        fill: url(#linear-gradient-9);
      }

      .cls-21 {
        clip-path: url(#clip-path);
      }

      .cls-22 {
        fill: url(#linear-gradient-10);
      }

      .cls-23 {
        fill: #9296ca;
      }

      .cls-24, .cls-25 {
        fill: #f58a1f;
      }

      .cls-24 {
        opacity: 0.5;
      }

      .cls-26 {
        fill: url(#linear-gradient-11);
      }
    </style>
    <linearGradient id="linear-gradient" x1="-24.657" y1="0.5" x2="-23.658" y2="0.5" gradientUnits="objectBoundingBox">
      <stop offset="0" stop-color="#333854"/>
      <stop offset="0.125" stop-color="#383953"/>
      <stop offset="0.272" stop-color="#463b4f"/>
      <stop offset="0.43" stop-color="#5e3e49"/>
      <stop offset="0.597" stop-color="#7f4341"/>
      <stop offset="0.77" stop-color="#aa4936"/>
      <stop offset="0.945" stop-color="#dd5029"/>
      <stop offset="1" stop-color="#ef5325"/>
    </linearGradient>
    <linearGradient id="linear-gradient-2" x1="-67.799" y1="116.537" x2="-67.213" y2="116.537" xlink:href="#linear-gradient"/>
    <linearGradient id="linear-gradient-3" x1="-219.963" y1="0.498" x2="-218.962" y2="0.498" xlink:href="#linear-gradient"/>
    <linearGradient id="linear-gradient-4" x1="-162.545" y1="-0.023" x2="-162.82" y2="1.024" xlink:href="#linear-gradient"/>
    <linearGradient id="linear-gradient-5" x1="-53.543" y1="0.5" x2="-52.542" y2="0.5" xlink:href="#linear-gradient"/>
    <linearGradient id="linear-gradient-6" x1="-75.284" y1="-31.853" x2="-74.129" y2="-31.853" gradientUnits="objectBoundingBox">
      <stop offset="0" stop-color="#f16b32"/>
      <stop offset="0.306" stop-color="#f27030"/>
      <stop offset="0.667" stop-color="#f37e2c"/>
      <stop offset="1" stop-color="#f69226"/>
    </linearGradient>
    <radialGradient id="radial-gradient" cx="162.108" cy="305.354" fx="125.81222572946717" fy="292.5506259736385" r="41.069" gradientTransform="matrix(-0.937, 0, 0, 0.937, 231.116, 1.617)" gradientUnits="userSpaceOnUse">
      <stop offset="0" stop-color="#2f2e7a"/>
      <stop offset="1" stop-color="#211c58"/>
    </radialGradient>
    <linearGradient id="linear-gradient-7" x1="-57.857" y1="0.5" x2="-56.857" y2="0.5" xlink:href="#linear-gradient-6"/>
    <linearGradient id="linear-gradient-8" x1="-74.867" y1="-31.754" x2="-73.712" y2="-31.754" gradientUnits="objectBoundingBox">
      <stop offset="0" stop-color="#f69226"/>
      <stop offset="0.124" stop-color="#f5942b"/>
      <stop offset="0.27" stop-color="#f19939"/>
      <stop offset="0.428" stop-color="#eca251"/>
      <stop offset="0.593" stop-color="#e4ae72"/>
      <stop offset="0.765" stop-color="#dabd9d"/>
      <stop offset="0.939" stop-color="#ced0d0"/>
      <stop offset="1" stop-color="#c9d7e4"/>
    </linearGradient>
    <linearGradient id="linear-gradient-9" x1="-75.999" y1="0.501" x2="-75" y2="0.501" gradientUnits="objectBoundingBox">
      <stop offset="0" stop-color="#c9d7e4"/>
      <stop offset="0.254" stop-color="#cedbe6"/>
      <stop offset="0.554" stop-color="#dce5ee"/>
      <stop offset="0.876" stop-color="#f4f7f9"/>
      <stop offset="1" stop-color="#fff"/>
    </linearGradient>
    <clipPath id="clip-path">
      <path id="Path_636" data-name="Path 636" class="cls-1" d="M451.313,301.265,323.78,227.61c-3.5-2.018-5.516-7.4-4.507-12.04l20.247-92.018c1.009-4.574,4.709-6.726,8.206-4.641l127.6,73.654c3.5,2.018,5.516,7.4,4.507,12.04l-20.247,92.018C458.511,301.2,454.811,303.283,451.313,301.265Z" transform="translate(-319.014 -118.112)"/>
    </clipPath>
    <linearGradient id="linear-gradient-10" x1="-108.073" y1="0.499" x2="-107.073" y2="0.499" xlink:href="#linear-gradient-9"/>
    <linearGradient id="linear-gradient-11" x1="-573.5" y1="0.178" x2="-572.483" y2="0.63" xlink:href="#linear-gradient"/>
  </defs>
  <g id="Group_151" data-name="Group 151" transform="translate(2747.913 2355.553)">
    <g id="Group_136" data-name="Group 136" transform="translate(115.773 221.367)">
      <path id="Path_528" data-name="Path 528" class="cls-2" d="M309.682,463.427a12.249,12.249,0,0,1-6.121-1.614l-136.883-79.1a2.452,2.452,0,0,1,0-4.3l85.359-49.3.336.2,142.668,82.4a2.452,2.452,0,0,1,0,4.3L315.8,461.745A11.661,11.661,0,0,1,309.682,463.427ZM252.037,330.58l-84.753,48.9a1.141,1.141,0,0,0-.605,1.076,1.212,1.212,0,0,0,.605,1.076l136.883,79.036a11,11,0,0,0,10.964,0l79.237-45.74a1.141,1.141,0,0,0,.605-1.076,1.293,1.293,0,0,0-.605-1.076Z" transform="translate(-165.4 -329.1)"/>
    </g>
    <g id="Group_141" data-name="Group 141" transform="translate(106.957 70.178)">
      <g id="Group_140" data-name="Group 140">
        <g id="Group_139" data-name="Group 139">
          <path id="Path_529" data-name="Path 529" class="cls-4" d="M486.716,183.481l-135.672-78.3a5.125,5.125,0,0,0-4.574-.538h0l-.269.067h-.067l-4.91,1.883,4.372,2.152c0,.067-.067.135-.067.269l-22.063,100.56c-1.076,5.045,1.076,10.9,4.978,13.117l132.376,76.412-.471,5.583,5.381-2.085a7.6,7.6,0,0,0,3.834-5.448L491.626,196.6C492.77,191.62,490.55,185.7,486.716,183.481Z" transform="translate(-208.238 -104.332)"/>
          <path id="Path_530" data-name="Path 530" class="cls-5" d="M490.517,183.481l-135.672-78.3a5.125,5.125,0,0,0-4.574-.538h0l-.269.067h-.067l-4.91,1.883,4.372,2.152c0,.067-.067.135-.067.269L334.8,175.274,401.19,227l93.565-38.072A10.59,10.59,0,0,0,490.517,183.481Z" transform="translate(-212.039 -104.332)"/>
          <path id="Path_531" data-name="Path 531" class="cls-6" d="M553.757,237.831l10.359-4.372a13.069,13.069,0,0,0-4.17-10.359L543.6,229.961Z" transform="translate(-280.391 -143.212)"/>
          <path id="Path_532" data-name="Path 532" class="cls-7" d="M451.518,305.139,315.845,226.776c-3.834-2.22-6.054-8.072-4.978-13.117L333,113.1c1.076-5.045,5.112-7.332,8.946-5.112l135.672,78.3c3.834,2.22,6.054,8.072,4.978,13.117L460.531,299.96C459.388,305.072,455.352,307.359,451.518,305.139Z" transform="translate(-204.116 -105.251)"/>
          <path id="Path_533" data-name="Path 533" class="cls-8" d="M492.219,185.59l-135.6-78.3a5.217,5.217,0,0,0-5.314-.2,5.547,5.547,0,0,1,4.036.74l135.672,78.3c3.834,2.22,6.054,8.072,4.978,13.117L473.923,299.8a7.458,7.458,0,0,1-3.632,5.314c2.287-.471,4.17-2.556,4.91-5.785l22.063-100.56C498.273,193.729,496.053,187.809,492.219,185.59Z" transform="translate(-217.44 -105.029)"/>
          <path id="Path_534" data-name="Path 534" class="cls-8" d="M451.313,301.265,323.78,227.61c-3.5-2.018-5.516-7.4-4.507-12.04l20.247-92.018c1.009-4.574,4.709-6.726,8.206-4.641l127.6,73.654c3.5,2.018,5.516,7.4,4.507,12.04l-20.247,92.018C458.511,301.2,454.811,303.283,451.313,301.265Z" transform="translate(-206.871 -108.843)"/>
          <path id="Path_535" data-name="Path 535" class="cls-9" d="M451.313,301.265,323.78,227.61c-3.5-2.018-5.516-7.4-4.507-12.04l20.247-92.018c1.009-4.574,4.709-6.726,8.206-4.641l127.6,73.654c3.5,2.018,5.516,7.4,4.507,12.04l-20.247,92.018C458.511,301.2,454.811,303.283,451.313,301.265Z" transform="translate(-206.871 -108.843)"/>
          <path id="Path_536" data-name="Path 536" class="cls-10" d="M452.424,300.855,324.824,227.2c-3.5-2.018-5.516-7.4-4.507-12.04L340.5,123.143a6.917,6.917,0,0,1,3.229-4.843c-2.018.538-3.7,2.422-4.3,5.314l-20.247,92.018c-1.009,4.574,1.009,9.955,4.507,12.04l127.6,73.655a4.914,4.914,0,0,0,4.978.2A5.316,5.316,0,0,1,452.424,300.855Z" transform="translate(-206.838 -108.905)"/>
          <path id="Path_537" data-name="Path 537" class="cls-4" d="M401.58,371.07l-18.565-2.422L263.284,299.568c-3.834-2.22-10.561-1.951-15,.605l-84.753,48.9L152.3,347.6v6.39h0a4.264,4.264,0,0,0,2.556,3.9l135.672,78.3c3.834,2.22,10.561,1.951,15-.605l92.354-53.341c2.489-1.413,3.767-3.3,3.632-5.045h0V371.07Z" transform="translate(-152.294 -167.752)"/>
          <path id="Path_538" data-name="Path 538" class="cls-5" d="M311.647,339.21l-8.475-4.91h-93.5l-46.143,26.637-11.233-1.48v6.39h0a4.264,4.264,0,0,0,2.556,3.9l135.672,78.3a14.782,14.782,0,0,0,7.735,1.48Z" transform="translate(-152.294 -179.614)"/>
          <path id="Path_539" data-name="Path 539" class="cls-10" d="M157.276,372.273,152.3,371.6v6.39h0a4.264,4.264,0,0,0,2.556,3.9l2.422,1.413Z" transform="translate(-152.294 -191.824)"/>
          <path id="Path_540" data-name="Path 540" class="cls-6" d="M359.9,497.1a17.131,17.131,0,0,0,12.713-.807V482.1H359.9Z" transform="translate(-220.255 -227.997)"/>
          <path id="Path_541" data-name="Path 541" class="cls-7" d="M290.611,424.655,154.939,346.292c-3.834-2.22-3.363-6.054,1.076-8.677l92.354-53.341c4.439-2.556,11.166-2.825,15-.605l135.6,78.363c3.834,2.22,3.363,6.054-1.076,8.677l-92.354,53.273C301.1,426.538,294.445,426.874,290.611,424.655Z" transform="translate(-152.312 -162.547)"/>
          <path id="Path_542" data-name="Path 542" class="cls-8" d="M397.914,397.173,305.56,450.514c-4.439,2.556-11.166,2.825-15,.605l-135.605-78.3A4.832,4.832,0,0,1,152.6,370.2c-.605,1.816.135,3.632,2.354,4.91l135.672,78.363c3.834,2.22,10.56,1.951,15-.605l92.354-53.341c2.96-1.749,4.17-4.036,3.43-6.054A7.273,7.273,0,0,1,397.914,397.173Z" transform="translate(-152.328 -191.366)"/>
          <g id="Group_138" data-name="Group 138" transform="translate(53.904 124.492)">
            <path id="Path_543" data-name="Path 543" class="cls-10" d="M238.868,334.552l-6.121-3.565c-.471-.269-.4-.807.135-1.144l7.265-4.17a2.212,2.212,0,0,1,1.951-.067l6.121,3.565c.471.269.4.807-.135,1.143l-7.265,4.17A2.474,2.474,0,0,1,238.868,334.552Z" transform="translate(-232.432 -301.196)"/>
            <path id="Path_544" data-name="Path 544" class="cls-10" d="M252.868,342.652l-6.121-3.565c-.471-.269-.4-.807.135-1.144l7.265-4.17a2.212,2.212,0,0,1,1.951-.067l6.121,3.565c.471.269.4.807-.135,1.144l-7.265,4.17A2.212,2.212,0,0,1,252.868,342.652Z" transform="translate(-237.015 -303.848)"/>
            <path id="Path_545" data-name="Path 545" class="cls-10" d="M266.968,350.852l-6.121-3.565c-.471-.269-.4-.807.135-1.143l7.265-4.17a2.212,2.212,0,0,1,1.951-.067l6.121,3.565c.471.269.4.807-.135,1.143l-7.265,4.17A2.469,2.469,0,0,1,266.968,350.852Z" transform="translate(-241.631 -306.532)"/>
            <path id="Path_546" data-name="Path 546" class="cls-10" d="M286.468,344.379l-6.121-3.565c-.471-.269-.4-.807.134-1.143l6.054-3.5a2.212,2.212,0,0,1,1.951-.067l6.121,3.565c.471.269.4.807-.134,1.144l-6.054,3.5A2.019,2.019,0,0,1,286.468,344.379Z" transform="translate(-248.014 -304.634)"/>
            <path id="Path_547" data-name="Path 547" class="cls-10" d="M300.568,352.579l-6.121-3.565c-.471-.269-.4-.807.135-1.143l6.054-3.5a2.212,2.212,0,0,1,1.951-.067l6.121,3.565c.471.269.4.807-.135,1.144l-6.054,3.5A2.474,2.474,0,0,1,300.568,352.579Z" transform="translate(-252.63 -307.318)"/>
            <path id="Path_548" data-name="Path 548" class="cls-10" d="M314.668,360.679l-6.121-3.565c-.471-.269-.4-.807.135-1.143l6.054-3.5a2.212,2.212,0,0,1,1.951-.067l6.121,3.565c.471.269.4.807-.135,1.143l-6.054,3.5A2.221,2.221,0,0,1,314.668,360.679Z" transform="translate(-257.245 -309.969)"/>
            <path id="Path_549" data-name="Path 549" class="cls-10" d="M328.768,368.779l-6.121-3.565c-.471-.269-.4-.807.135-1.143l6.054-3.5a2.212,2.212,0,0,1,1.951-.067l6.121,3.565c.471.269.4.807-.135,1.144l-6.054,3.5A2.021,2.021,0,0,1,328.768,368.779Z" transform="translate(-261.861 -312.621)"/>
            <path id="Path_550" data-name="Path 550" class="cls-10" d="M342.868,376.979l-6.121-3.565c-.471-.269-.4-.807.135-1.143l6.054-3.5a2.212,2.212,0,0,1,1.951-.067l6.121,3.565c.471.269.4.807-.135,1.144l-6.054,3.5A2.474,2.474,0,0,1,342.868,376.979Z" transform="translate(-266.477 -315.305)"/>
            <path id="Path_551" data-name="Path 551" class="cls-10" d="M356.968,385.079l-6.121-3.565c-.471-.269-.4-.807.135-1.143l6.054-3.5a2.212,2.212,0,0,1,1.951-.067l6.121,3.565c.471.269.4.807-.135,1.143l-6.054,3.5A2.221,2.221,0,0,1,356.968,385.079Z" transform="translate(-271.093 -317.957)"/>
            <path id="Path_552" data-name="Path 552" class="cls-10" d="M371.068,393.179l-6.121-3.565c-.471-.269-.4-.807.135-1.144l6.054-3.5a2.212,2.212,0,0,1,1.951-.067l6.121,3.565c.471.269.4.807-.135,1.143l-6.054,3.5A2.021,2.021,0,0,1,371.068,393.179Z" transform="translate(-275.708 -320.609)"/>
            <path id="Path_553" data-name="Path 553" class="cls-10" d="M385.168,401.379l-6.121-3.565c-.471-.269-.4-.807.135-1.143l6.054-3.5a2.212,2.212,0,0,1,1.951-.067l6.121,3.565c.471.269.4.807-.134,1.144l-6.054,3.5A2.221,2.221,0,0,1,385.168,401.379Z" transform="translate(-280.324 -323.293)"/>
            <path id="Path_554" data-name="Path 554" class="cls-10" d="M399.268,409.479l-6.121-3.565c-.471-.269-.4-.807.135-1.144l6.054-3.5a2.212,2.212,0,0,1,1.951-.067l6.121,3.565c.471.269.4.807-.134,1.144l-6.054,3.5A2.221,2.221,0,0,1,399.268,409.479Z" transform="translate(-284.94 -325.944)"/>
            <path id="Path_555" data-name="Path 555" class="cls-10" d="M413.368,417.679l-6.121-3.565c-.471-.269-.4-.807.135-1.144l6.054-3.5a2.212,2.212,0,0,1,1.951-.067l6.121,3.565c.471.269.4.807-.135,1.144l-6.054,3.5A2.474,2.474,0,0,1,413.368,417.679Z" transform="translate(-289.556 -328.629)"/>
            <path id="Path_556" data-name="Path 556" class="cls-10" d="M307.268,340.579l-6.121-3.565c-.471-.269-.4-.807.135-1.143l6.054-3.5a2.212,2.212,0,0,1,1.951-.067l6.121,3.565c.471.269.4.807-.135,1.144l-6.054,3.5A2.221,2.221,0,0,1,307.268,340.579Z" transform="translate(-254.823 -303.39)"/>
            <path id="Path_557" data-name="Path 557" class="cls-10" d="M292.968,332.279l-6.121-3.565c-.471-.269-.4-.807.134-1.144l6.054-3.5a2.212,2.212,0,0,1,1.951-.067l6.121,3.565c.471.269.4.807-.135,1.143l-6.054,3.5A2.221,2.221,0,0,1,292.968,332.279Z" transform="translate(-250.142 -300.673)"/>
            <path id="Path_558" data-name="Path 558" class="cls-10" d="M275.2,322.115l-13.251-7.6c-.471-.269-.4-.807.135-1.143l6.054-3.5a2.212,2.212,0,0,1,1.951-.067l13.251,7.6c.471.269.4.807-.134,1.144l-6.054,3.5A2.474,2.474,0,0,1,275.2,322.115Z" transform="translate(-241.991 -296.024)"/>
            <path id="Path_559" data-name="Path 559" class="cls-10" d="M286.442,312.7l-10.7-6.188c-.471-.269-.4-.807.135-1.143l6.054-3.5a2.212,2.212,0,0,1,1.951-.067l10.7,6.188c.471.269.4.807-.135,1.144l-6.054,3.5A2.221,2.221,0,0,1,286.442,312.7Z" transform="translate(-246.508 -293.405)"/>
            <path id="Path_560" data-name="Path 560" class="cls-10" d="M321.368,348.679l-6.121-3.565c-.471-.269-.4-.807.135-1.143l6.054-3.5a2.212,2.212,0,0,1,1.951-.067l6.121,3.565c.471.269.4.807-.135,1.144l-6.054,3.5A2.221,2.221,0,0,1,321.368,348.679Z" transform="translate(-259.439 -306.041)"/>
            <path id="Path_561" data-name="Path 561" class="cls-10" d="M335.468,356.879l-6.121-3.565c-.471-.269-.4-.807.135-1.143l6.054-3.5a2.212,2.212,0,0,1,1.951-.067l6.121,3.565c.471.269.4.807-.135,1.144l-6.054,3.5A2.474,2.474,0,0,1,335.468,356.879Z" transform="translate(-264.055 -308.725)"/>
            <path id="Path_562" data-name="Path 562" class="cls-10" d="M349.568,364.979l-6.121-3.565c-.471-.269-.4-.807.135-1.143l6.054-3.5a2.212,2.212,0,0,1,1.951-.067l6.121,3.565c.471.269.4.807-.135,1.144l-6.054,3.5A2.221,2.221,0,0,1,349.568,364.979Z" transform="translate(-268.67 -311.377)"/>
            <path id="Path_563" data-name="Path 563" class="cls-10" d="M363.668,373.079l-6.121-3.565c-.471-.269-.4-.807.135-1.144l6.054-3.5a2.212,2.212,0,0,1,1.951-.067l6.121,3.565c.471.269.4.807-.135,1.143l-6.054,3.5A2.221,2.221,0,0,1,363.668,373.079Z" transform="translate(-273.286 -314.029)"/>
            <path id="Path_564" data-name="Path 564" class="cls-10" d="M377.668,381.279l-6.121-3.565c-.471-.269-.4-.807.135-1.143l6.054-3.5a2.212,2.212,0,0,1,1.951-.067l6.121,3.565c.471.269.4.807-.135,1.143l-6.054,3.5A2.462,2.462,0,0,1,377.668,381.279Z" transform="translate(-277.869 -316.713)"/>
            <path id="Path_565" data-name="Path 565" class="cls-10" d="M391.768,389.379l-6.121-3.565c-.471-.269-.4-.807.135-1.144l6.054-3.5a2.212,2.212,0,0,1,1.951-.067l6.121,3.565c.471.269.4.807-.135,1.143l-6.054,3.5A2.212,2.212,0,0,1,391.768,389.379Z" transform="translate(-282.485 -319.365)"/>
            <path id="Path_566" data-name="Path 566" class="cls-10" d="M405.868,397.479l-6.121-3.565c-.471-.269-.4-.807.135-1.143l6.054-3.5a2.212,2.212,0,0,1,1.951-.067l6.121,3.565c.471.269.4.807-.135,1.143l-6.054,3.5A2.019,2.019,0,0,1,405.868,397.479Z" transform="translate(-287.1 -322.016)"/>
            <path id="Path_567" data-name="Path 567" class="cls-10" d="M419.968,405.679l-6.121-3.565c-.471-.269-.4-.807.134-1.144l6.054-3.5a2.212,2.212,0,0,1,1.951-.067l6.121,3.565c.471.269.4.807-.135,1.143l-6.054,3.5A2.469,2.469,0,0,1,419.968,405.679Z" transform="translate(-291.716 -324.7)"/>
            <path id="Path_568" data-name="Path 568" class="cls-10" d="M434.068,413.779l-6.121-3.565c-.471-.269-.4-.807.134-1.144l6.054-3.5a2.212,2.212,0,0,1,1.951-.067l6.121,3.565c.471.269.4.807-.135,1.144l-6.054,3.5A2.221,2.221,0,0,1,434.068,413.779Z" transform="translate(-296.332 -327.352)"/>
            <path id="Path_569" data-name="Path 569" class="cls-10" d="M455.632,426.249l-13.386-7.735c-.471-.269-.4-.807.135-1.144l6.054-3.5a2.212,2.212,0,0,1,1.951-.067l13.386,7.735c.471.269.4.807-.135,1.143l-6.054,3.5A2.474,2.474,0,0,1,455.632,426.249Z" transform="translate(-301.013 -330.069)"/>
            <path id="Path_570" data-name="Path 570" class="cls-10" d="M484.047,410.939l-11.3-6.525c-.471-.269-.4-.807.135-1.143l6.054-3.5a2.212,2.212,0,0,1,1.951-.067l11.3,6.525c.471.269.4.807-.135,1.143l-6.054,3.5A2.021,2.021,0,0,1,484.047,410.939Z" transform="translate(-310.997 -325.453)"/>
            <path id="Path_571" data-name="Path 571" class="cls-10" d="M346.035,347.112l-6.188-3.5c-.471-.269-.4-.807.135-1.144l6.054-3.5a2.212,2.212,0,0,1,1.951-.067l6.121,3.565c.471.269.4.807-.135,1.143l-6.054,3.5A2.3,2.3,0,0,1,346.035,347.112Z" transform="translate(-267.492 -305.55)"/>
            <path id="Path_572" data-name="Path 572" class="cls-10" d="M331.568,338.779l-6.121-3.565c-.471-.269-.4-.807.135-1.143l6.054-3.5a2.212,2.212,0,0,1,1.951-.067l6.121,3.565c.471.269.4.807-.135,1.144l-6.054,3.5A2.221,2.221,0,0,1,331.568,338.779Z" transform="translate(-262.778 -302.8)"/>
            <path id="Path_573" data-name="Path 573" class="cls-10" d="M317.168,330.379l-6.121-3.565c-.471-.269-.4-.807.135-1.144l6.054-3.5a2.212,2.212,0,0,1,1.951-.067l6.121,3.565c.471.269.4.807-.135,1.143l-6.054,3.5A2.021,2.021,0,0,1,317.168,330.379Z" transform="translate(-258.064 -300.051)"/>
            <path id="Path_574" data-name="Path 574" class="cls-10" d="M302.668,322.079l-6.121-3.565c-.471-.269-.4-.807.134-1.143l6.054-3.5a2.212,2.212,0,0,1,1.951-.067l6.121,3.565c.471.269.4.807-.135,1.143l-6.054,3.5A2.218,2.218,0,0,1,302.668,322.079Z" transform="translate(-253.317 -297.333)"/>
            <path id="Path_575" data-name="Path 575" class="cls-10" d="M360.068,355.279l-6.121-3.565c-.471-.269-.4-.807.135-1.143l6.054-3.5a2.212,2.212,0,0,1,1.951-.067l6.121,3.565c.471.269.4.807-.135,1.143l-6.054,3.5A2.462,2.462,0,0,1,360.068,355.279Z" transform="translate(-272.107 -308.202)"/>
            <path id="Path_576" data-name="Path 576" class="cls-10" d="M374.168,363.379l-6.121-3.565c-.471-.269-.4-.807.135-1.143l6.054-3.5a2.212,2.212,0,0,1,1.951-.067l6.121,3.565c.471.269.4.807-.135,1.143l-6.054,3.5A2.212,2.212,0,0,1,374.168,363.379Z" transform="translate(-276.723 -310.853)"/>
            <path id="Path_577" data-name="Path 577" class="cls-10" d="M388.268,371.479l-6.121-3.565c-.471-.269-.4-.807.135-1.143l6.054-3.5a2.212,2.212,0,0,1,1.951-.067l6.121,3.565c.471.269.4.807-.135,1.143l-6.054,3.5A2.019,2.019,0,0,1,388.268,371.479Z" transform="translate(-281.339 -313.505)"/>
            <path id="Path_578" data-name="Path 578" class="cls-10" d="M402.368,379.679l-6.121-3.565c-.471-.269-.4-.807.135-1.144l6.054-3.5a2.212,2.212,0,0,1,1.951-.067l6.121,3.565c.471.269.4.807-.135,1.143l-6.054,3.5A2.469,2.469,0,0,1,402.368,379.679Z" transform="translate(-285.955 -316.189)"/>
            <path id="Path_579" data-name="Path 579" class="cls-10" d="M416.468,387.779l-6.121-3.565c-.471-.269-.4-.807.134-1.143l6.054-3.5a2.212,2.212,0,0,1,1.951-.067l6.121,3.565c.471.269.4.807-.135,1.144l-6.054,3.5A2.221,2.221,0,0,1,416.468,387.779Z" transform="translate(-290.57 -318.841)"/>
            <path id="Path_580" data-name="Path 580" class="cls-10" d="M430.568,395.879l-6.121-3.565c-.471-.269-.4-.807.134-1.143l6.054-3.5a2.212,2.212,0,0,1,1.951-.067l6.121,3.565c.471.269.4.807-.135,1.143l-6.054,3.5A2.021,2.021,0,0,1,430.568,395.879Z" transform="translate(-295.186 -321.492)"/>
            <path id="Path_581" data-name="Path 581" class="cls-10" d="M444.668,404.079l-6.121-3.565c-.471-.269-.4-.807.135-1.144l6.054-3.5a2.212,2.212,0,0,1,1.951-.067l6.121,3.565c.471.269.4.807-.135,1.143l-6.054,3.5A2.474,2.474,0,0,1,444.668,404.079Z" transform="translate(-299.802 -324.177)"/>
            <path id="Path_582" data-name="Path 582" class="cls-10" d="M458.768,412.179l-6.121-3.565c-.471-.269-.4-.807.135-1.144l6.054-3.5a2.212,2.212,0,0,1,1.951-.067l6.121,3.565c.471.269.4.807-.135,1.144l-6.054,3.5A2.221,2.221,0,0,1,458.768,412.179Z" transform="translate(-304.418 -326.828)"/>
            <path id="Path_583" data-name="Path 583" class="cls-10" d="M472.868,420.279l-6.121-3.565c-.471-.269-.4-.807.135-1.144l6.054-3.5a2.212,2.212,0,0,1,1.951-.067l6.121,3.565c.471.269.4.807-.134,1.144l-6.054,3.5A2.021,2.021,0,0,1,472.868,420.279Z" transform="translate(-309.033 -329.48)"/>
            <path id="Path_584" data-name="Path 584" class="cls-10" d="M338.568,326.979l-6.121-3.565c-.471-.269-.4-.807.135-1.143l6.054-3.5a2.212,2.212,0,0,1,1.951-.067l6.121,3.565c.471.269.4.807-.135,1.144l-6.054,3.5A2.218,2.218,0,0,1,338.568,326.979Z" transform="translate(-265.069 -298.938)"/>
            <path id="Path_585" data-name="Path 585" class="cls-10" d="M324.568,318.879l-6.121-3.565c-.471-.269-.4-.807.135-1.144l6.054-3.5a2.212,2.212,0,0,1,1.951-.067l6.121,3.565c.471.269.4.807-.135,1.143l-6.054,3.5A2.221,2.221,0,0,1,324.568,318.879Z" transform="translate(-260.486 -296.286)"/>
            <path id="Path_586" data-name="Path 586" class="cls-10" d="M310.568,310.779l-6.121-3.565c-.471-.269-.4-.807.134-1.143l6.054-3.5a2.212,2.212,0,0,1,1.951-.067l6.121,3.565c.471.269.4.807-.135,1.144l-6.054,3.5A2.221,2.221,0,0,1,310.568,310.779Z" transform="translate(-255.903 -293.634)"/>
            <path id="Path_587" data-name="Path 587" class="cls-10" d="M296.568,302.679l-6.121-3.565c-.471-.269-.4-.807.135-1.144l6.054-3.5a2.212,2.212,0,0,1,1.951-.067l6.121,3.565c.471.269.4.807-.135,1.143l-6.054,3.5A2.221,2.221,0,0,1,296.568,302.679Z" transform="translate(-251.32 -290.983)"/>
            <path id="Path_588" data-name="Path 588" class="cls-10" d="M310.968,295.525l-6.121-3.565c-.471-.269-.4-.807.134-1.143L307,289.673a2.212,2.212,0,0,1,1.951-.067l6.121,3.565c.471.269.4.807-.135,1.144l-2.018,1.143A2.221,2.221,0,0,1,310.968,295.525Z" transform="translate(-256.034 -289.411)"/>
            <path id="Path_589" data-name="Path 589" class="cls-10" d="M329.268,306.125l-6.121-3.565c-.471-.269-.4-.807.135-1.144l2.018-1.143a2.212,2.212,0,0,1,1.951-.067l6.121,3.565c.471.269.4.807-.135,1.143l-2.018,1.143A2.474,2.474,0,0,1,329.268,306.125Z" transform="translate(-262.025 -292.881)"/>
            <path id="Path_590" data-name="Path 590" class="cls-10" d="M343.268,314.125l-6.121-3.565c-.471-.269-.4-.807.135-1.144l2.018-1.143a2.212,2.212,0,0,1,1.951-.067l6.121,3.565c.471.269.4.807-.135,1.143l-2.018,1.143A2.221,2.221,0,0,1,343.268,314.125Z" transform="translate(-266.608 -295.5)"/>
            <path id="Path_591" data-name="Path 591" class="cls-10" d="M357.168,322.225l-6.121-3.565c-.471-.269-.4-.807.135-1.143l2.018-1.144a2.212,2.212,0,0,1,1.951-.067l6.121,3.565c.471.269.4.807-.135,1.143l-2.018,1.143A2.474,2.474,0,0,1,357.168,322.225Z" transform="translate(-271.158 -298.152)"/>
            <path id="Path_592" data-name="Path 592" class="cls-10" d="M371.168,330.225l-6.121-3.565c-.471-.269-.4-.807.135-1.143l2.018-1.144a2.212,2.212,0,0,1,1.951-.067l6.121,3.565c.471.269.4.807-.135,1.143l-2.018,1.143A2.021,2.021,0,0,1,371.168,330.225Z" transform="translate(-275.741 -300.771)"/>
            <path id="Path_593" data-name="Path 593" class="cls-10" d="M449.068,375.225l-6.121-3.565c-.471-.269-.4-.807.135-1.143l2.018-1.144a2.213,2.213,0,0,1,1.951-.067l6.121,3.565c.471.269.4.807-.135,1.143l-2.018,1.143A2.019,2.019,0,0,1,449.068,375.225Z" transform="translate(-301.242 -315.502)"/>
            <path id="Path_594" data-name="Path 594" class="cls-10" d="M463.068,383.325l-6.121-3.565c-.471-.269-.4-.807.135-1.143l2.018-1.143a2.212,2.212,0,0,1,1.951-.067l6.121,3.565c.471.269.4.807-.134,1.144l-2.018,1.143A2.221,2.221,0,0,1,463.068,383.325Z" transform="translate(-305.825 -318.153)"/>
            <path id="Path_595" data-name="Path 595" class="cls-10" d="M477.068,391.425l-6.121-3.565c-.471-.269-.4-.807.135-1.144l2.018-1.143a2.212,2.212,0,0,1,1.951-.067l6.121,3.565c.471.269.4.807-.135,1.143l-2.018,1.143A2.474,2.474,0,0,1,477.068,391.425Z" transform="translate(-310.408 -320.805)"/>
            <path id="Path_596" data-name="Path 596" class="cls-10" d="M490.968,399.425l-6.121-3.565c-.471-.269-.4-.807.135-1.143L487,393.573a2.212,2.212,0,0,1,1.951-.067l6.121,3.565c.471.269.4.807-.135,1.143l-2.018,1.144A2.019,2.019,0,0,1,490.968,399.425Z" transform="translate(-314.958 -323.424)"/>
            <path id="Path_597" data-name="Path 597" class="cls-10" d="M352.668,335.079l-6.121-3.565c-.471-.269-.4-.807.135-1.144l6.054-3.5a2.212,2.212,0,0,1,1.951-.067l6.121,3.565c.471.269.4.807-.135,1.143l-6.054,3.5A2.019,2.019,0,0,1,352.668,335.079Z" transform="translate(-269.685 -301.589)"/>
            <path id="Path_598" data-name="Path 598" class="cls-10" d="M366.768,343.279l-6.121-3.565c-.471-.269-.4-.807.135-1.143l6.054-3.5a2.212,2.212,0,0,1,1.951-.067l6.121,3.565c.471.269.4.807-.135,1.143l-6.054,3.5A2.47,2.47,0,0,1,366.768,343.279Z" transform="translate(-274.301 -304.273)"/>
            <path id="Path_599" data-name="Path 599" class="cls-10" d="M380.868,351.379l-6.121-3.565c-.471-.269-.4-.807.135-1.144l6.054-3.5a2.212,2.212,0,0,1,1.951-.067l6.121,3.565c.471.269.4.807-.135,1.143l-6.054,3.5A2.221,2.221,0,0,1,380.868,351.379Z" transform="translate(-278.917 -306.925)"/>
            <path id="Path_600" data-name="Path 600" class="cls-10" d="M394.968,359.479l-6.121-3.565c-.471-.269-.4-.807.135-1.143l6.054-3.5a2.212,2.212,0,0,1,1.951-.067l6.121,3.565c.471.269.4.807-.135,1.143l-6.054,3.5A2.021,2.021,0,0,1,394.968,359.479Z" transform="translate(-283.532 -309.577)"/>
            <path id="Path_601" data-name="Path 601" class="cls-10" d="M409.068,367.679l-6.121-3.565c-.471-.269-.4-.807.135-1.144l6.054-3.5a2.212,2.212,0,0,1,1.951-.067l6.121,3.565c.471.269.4.807-.135,1.143l-6.054,3.5A2.22,2.22,0,0,1,409.068,367.679Z" transform="translate(-288.148 -312.261)"/>
            <path id="Path_602" data-name="Path 602" class="cls-10" d="M423.168,375.779l-6.121-3.565c-.471-.269-.4-.807.134-1.143l6.054-3.5a2.212,2.212,0,0,1,1.951-.067l6.121,3.565c.471.269.4.807-.135,1.144l-6.054,3.5A2.221,2.221,0,0,1,423.168,375.779Z" transform="translate(-292.764 -314.913)"/>
            <path id="Path_603" data-name="Path 603" class="cls-10" d="M437.268,383.979l-6.121-3.565c-.471-.269-.4-.807.135-1.143l6.054-3.5a2.212,2.212,0,0,1,1.951-.067l6.121,3.565c.471.269.4.807-.135,1.144l-6.054,3.5A2.474,2.474,0,0,1,437.268,383.979Z" transform="translate(-297.379 -317.597)"/>
            <path id="Path_604" data-name="Path 604" class="cls-10" d="M451.368,392.079l-6.121-3.565c-.471-.269-.4-.807.135-1.143l6.054-3.5a2.212,2.212,0,0,1,1.951-.067l6.121,3.565c.471.269.4.807-.135,1.143l-6.054,3.5A2.221,2.221,0,0,1,451.368,392.079Z" transform="translate(-301.995 -320.248)"/>
            <path id="Path_605" data-name="Path 605" class="cls-10" d="M465.468,400.179l-6.121-3.565c-.471-.269-.4-.807.135-1.144l6.054-3.5a2.212,2.212,0,0,1,1.951-.067l6.121,3.565c.471.269.4.807-.135,1.143l-6.054,3.5A2.221,2.221,0,0,1,465.468,400.179Z" transform="translate(-306.611 -322.9)"/>
            <path id="Path_606" data-name="Path 606" class="cls-10" d="M266.341,332.74l-18.094-10.426c-.471-.269-.4-.807.135-1.143l6.054-3.5a2.212,2.212,0,0,1,1.951-.067l18.094,10.426c.471.269.4.807-.135,1.144l-6.054,3.5A2.021,2.021,0,0,1,266.341,332.74Z" transform="translate(-237.506 -298.577)"/>
            <path id="Path_607" data-name="Path 607" class="cls-10" d="M439.441,432.74l-18.094-10.426c-.471-.269-.4-.807.135-1.144l6.054-3.5a2.212,2.212,0,0,1,1.951-.067l18.094,10.426c.471.269.4.807-.135,1.143l-6.054,3.5A2.221,2.221,0,0,1,439.441,432.74Z" transform="translate(-294.171 -331.313)"/>
            <path id="Path_608" data-name="Path 608" class="cls-10" d="M388.868,421.152l-6.121-3.565c-.471-.269-.4-.807.135-1.144l7.265-4.17a2.212,2.212,0,0,1,1.951-.067l6.121,3.565c.471.269.4.807-.135,1.144l-7.265,4.17A2.019,2.019,0,0,1,388.868,421.152Z" transform="translate(-281.535 -329.545)"/>
            <path id="Path_609" data-name="Path 609" class="cls-10" d="M284.767,361.037l-9.821-5.65c-.471-.269-.4-.807.135-1.143l7.265-4.17a2.212,2.212,0,0,1,1.951-.067l9.821,5.65c.471.269.4.807-.135,1.143l-7.265,4.17A2.021,2.021,0,0,1,284.767,361.037Z" transform="translate(-246.246 -309.184)"/>
            <path id="Path_610" data-name="Path 610" class="cls-10" d="M373.567,412.337l-9.821-5.65c-.471-.269-.4-.807.135-1.143l7.265-4.17a2.212,2.212,0,0,1,1.951-.067l9.821,5.65c.471.269.4.807-.134,1.143l-7.265,4.17A2.22,2.22,0,0,1,373.567,412.337Z" transform="translate(-275.316 -325.977)"/>
            <path id="Path_611" data-name="Path 611" class="cls-10" d="M305.067,372.837l-9.821-5.65c-.471-.269-.4-.807.135-1.143l7.265-4.17a2.212,2.212,0,0,1,1.951-.067l9.821,5.65c.471.269.4.807-.135,1.144l-7.265,4.17A2.218,2.218,0,0,1,305.067,372.837Z" transform="translate(-252.892 -313.047)"/>
            <path id="Path_612" data-name="Path 612" class="cls-10" d="M304.85,361.9,347.5,386.519c.538.336.538.807,0,1.076l-7.4,4.238a2.012,2.012,0,0,1-1.951,0L295.5,367.214Z" transform="translate(-253.078 -313.141)"/>
            <path id="Path_613" data-name="Path 613" class="cls-10" d="M429.012,440.317l6.861,3.969c.4.2.336.673-.135.942l-2.96,1.682a1.8,1.8,0,0,1-1.547.067l-6.861-3.969c-.4-.2-.336-.673.135-.942l2.96-1.682A1.593,1.593,0,0,1,429.012,440.317Z" transform="translate(-295.178 -338.755)"/>
            <path id="Path_614" data-name="Path 614" class="cls-10" d="M414.812,432.117l6.861,3.969c.4.2.336.673-.135.942l-2.96,1.682a1.8,1.8,0,0,1-1.547.067l-6.861-3.969c-.4-.2-.336-.673.134-.942l2.96-1.682A1.593,1.593,0,0,1,414.812,432.117Z" transform="translate(-290.529 -336.071)"/>
            <path id="Path_615" data-name="Path 615" class="cls-10" d="M400.712,423.93l6.861,3.969c.4.2.336.673-.135.942l-2.96,1.682a1.8,1.8,0,0,1-1.547.067l-6.861-3.969c-.4-.2-.336-.673.135-.942l2.96-1.682A1.8,1.8,0,0,1,400.712,423.93Z" transform="translate(-285.913 -333.4)"/>
            <path id="Path_616" data-name="Path 616" class="cls-10" d="M422.612,427.617l6.861,3.969c.4.2.336.673-.135.942l-2.96,1.682a1.8,1.8,0,0,1-1.547.067l-6.861-3.969c-.4-.2-.336-.673.135-.942l2.96-1.682A1.587,1.587,0,0,1,422.612,427.617Z" transform="translate(-293.083 -334.598)"/>
          </g>
        </g>
      </g>
    </g>
    <g id="Group_143" data-name="Group 143" transform="translate(67.948 275.498)">
      <path id="Path_617" data-name="Path 617" class="cls-11" d="M161.09,446.962a6.136,6.136,0,0,1-3.229-.874L136,433.442l.538-.942,21.928,12.646a5.478,5.478,0,0,0,5.381,0l21.659-12.511.538.942-21.659,12.511A7.093,7.093,0,0,1,161.09,446.962Z" transform="translate(-107.951 -417.08)"/>
      <path id="Path_618" data-name="Path 618" class="cls-12" d="M112.942,427.9a17.617,17.617,0,0,1-8.543-2.018h0c-2.422-1.413-3.7-3.229-3.7-5.247s1.345-3.9,3.7-5.247c4.709-2.758,12.444-2.758,17.152,0,2.422,1.413,3.7,3.229,3.7,5.247s-1.345,3.9-3.7,5.247A18.074,18.074,0,0,1,112.942,427.9Zm0-13.587a17.144,17.144,0,0,0-8,1.883c-2.018,1.211-3.161,2.691-3.161,4.3s1.143,3.161,3.161,4.3h0a17.81,17.81,0,0,0,16.076,0c2.018-1.211,3.161-2.691,3.161-4.3s-1.143-3.161-3.161-4.3A17.424,17.424,0,0,0,112.942,414.317Zm0,10.493a10.219,10.219,0,0,1-4.776-1.143,3.775,3.775,0,0,1-2.152-3.094,3.641,3.641,0,0,1,2.152-3.094,10.271,10.271,0,0,1,9.484,0,3.775,3.775,0,0,1,2.152,3.094,3.641,3.641,0,0,1-2.152,3.094A9.566,9.566,0,0,1,112.942,424.81Zm0-7.332a8.768,8.768,0,0,0-4.238,1.009c-1.009.605-1.614,1.345-1.614,2.085a2.442,2.442,0,0,0,1.614,2.085,9.262,9.262,0,0,0,8.408,0c1.009-.605,1.614-1.345,1.614-2.085a2.442,2.442,0,0,0-1.614-2.085A8.15,8.15,0,0,0,112.942,417.479Z" transform="translate(-96.395 -410.803)"/>
      <g id="Group_142" data-name="Group 142">
        <path id="Path_619" data-name="Path 619" class="cls-13" d="M110.847,429.1a23.916,23.916,0,0,1-11.569-2.758c-3.161-1.816-4.978-4.3-4.978-7s1.749-5.179,4.978-7c6.39-3.7,16.749-3.7,23.139,0,3.161,1.816,4.978,4.3,4.978,7s-1.749,5.179-4.978,7A23.916,23.916,0,0,1,110.847,429.1Zm0-18.43a22.665,22.665,0,0,0-11.031,2.623c-2.825,1.614-4.439,3.767-4.439,6.054s1.547,4.439,4.439,6.054h0c6.054,3.5,15.942,3.5,22.063,0,2.825-1.614,4.439-3.767,4.439-6.054s-1.547-4.439-4.439-6.054A22.482,22.482,0,0,0,110.847,410.668Z" transform="translate(-94.3 -409.575)"/>
      </g>
    </g>
    <g id="Group_145" data-name="Group 145" transform="translate(13.8 188.096)">
      <path id="Path_620" data-name="Path 620" class="cls-14" d="M94.248,380.147a3.811,3.811,0,0,1-1.816-.4l-77.69-44.933a1.686,1.686,0,0,1-.942-1.48,2.115,2.115,0,0,1,1.211-1.749l16.143-9.35a4.648,4.648,0,0,1,4.1-.135l77.69,44.865a1.686,1.686,0,0,1,.942,1.48,2.115,2.115,0,0,1-1.211,1.749l-16.143,9.35A4.474,4.474,0,0,1,94.248,380.147ZM93.172,378.4a3.28,3.28,0,0,0,2.623-.135l16.143-9.35c.336-.2.471-.4.471-.471l-.2-.2-77.69-44.8a3.28,3.28,0,0,0-2.623.134l-16.143,9.35c-.336.2-.471.4-.471.471l.2.2Z" transform="translate(-13.8 -293.401)"/>
      <g id="Group_144" data-name="Group 144" transform="translate(3.901)">
        <path id="Path_621" data-name="Path 621" class="cls-15" d="M55.782,282.594A25.109,25.109,0,0,1,61.5,287.37c2.354-7.668,9.686-10.022,18.3-5.045,7.13,4.1,13.318,12.175,16.614,20.785a8.129,8.129,0,0,1,3.565,1.143c4.641,2.691,8.408,9.215,8.408,14.6v.336a8.927,8.927,0,0,1,4.3,1.48c5.919,3.43,10.762,11.771,10.762,18.632s-4.843,9.619-10.762,6.188L55.782,312.594c-7.2-4.17-12.982-14.193-12.982-22.534C42.8,281.787,48.652,278.424,55.782,282.594Z" transform="translate(-27.195 -279.66)"/>
        <path id="Path_622" data-name="Path 622" class="cls-16" d="M55.782,282.572a20.224,20.224,0,0,1,3.43,2.489l6.39-3.7h0c3.5-2.489,8.543-2.354,14.193.874,7.13,4.1,13.318,12.175,16.614,20.785a8.13,8.13,0,0,1,3.565,1.143c4.641,2.691,8.408,9.215,8.408,14.6v.336a8.927,8.927,0,0,1,4.3,1.48c5.919,3.43,10.762,11.771,10.762,18.632,0,3.43-1.211,5.785-3.094,6.928h-.067l-15.538,9.081L101.32,338.8,55.782,312.5c-7.2-4.17-12.982-14.193-12.982-22.534C42.8,281.765,48.652,278.4,55.782,282.572Z" transform="translate(-27.195 -279.638)"/>
        <path id="Path_623" data-name="Path 623" class="cls-17" d="M24.9,290.845,40.707,281.7h0c2.354-1.413,5.65-1.211,9.282.874a20.226,20.226,0,0,1,3.43,2.489l6.39-3.7h0c3.5-2.489,8.543-2.354,14.193.874,7.13,4.1,13.318,12.175,16.614,20.785a8.13,8.13,0,0,1,3.565,1.143c4.641,2.691,8.408,9.215,8.408,14.6v.336a8.927,8.927,0,0,1,4.3,1.48c5.919,3.43,10.762,11.771,10.762,18.632,0,3.43-1.211,5.785-3.094,6.928H114.5l-15.605,9.081L95.46,338.8,49.922,312.5c-5.852-3.363-10.762-10.628-12.377-17.691Z" transform="translate(-21.335 -279.638)"/>
        <path id="Path_624" data-name="Path 624" class="cls-18" d="M32.582,295.994A25.108,25.108,0,0,1,38.3,300.77c2.354-7.668,9.686-10.022,18.3-5.045,7.13,4.1,13.318,12.175,16.614,20.785a8.13,8.13,0,0,1,3.565,1.143c4.641,2.691,8.408,9.215,8.408,14.6v.336a8.927,8.927,0,0,1,4.3,1.48c5.919,3.431,10.762,11.771,10.762,18.632s-4.843,9.619-10.762,6.188L32.582,325.994c-7.2-4.17-12.982-14.193-12.982-22.534C19.6,295.254,25.385,291.891,32.582,295.994Z" transform="translate(-19.6 -284.047)"/>
      </g>
    </g>
    <path id="Path_625" data-name="Path 625" class="cls-19" d="M279.485,422.383l-39.35-22.735c-1.547-.874-1.547-2.354,0-3.229l26.906-15.538a6.269,6.269,0,0,1,5.583,0l39.35,22.735c1.547.874,1.547,2.354,0,3.229l-26.906,15.538A6.269,6.269,0,0,1,279.485,422.383Z" transform="translate(-73.713 -124.469)"/>
    <g id="Group_149" data-name="Group 149" class="cls-20" transform="translate(219.1 79.447)">
      <g id="Group_148" data-name="Group 148" class="cls-21">
        <path id="Path_626" data-name="Path 626" class="cls-7" d="M320.736,256.319l129.955,75a5.235,5.235,0,0,0,4.776.2l77.556-44.731c1.211-.74,1.076-1.951-.336-2.758L402.731,208.965a5.235,5.235,0,0,0-4.776-.2L320.4,253.494C319.189,254.234,319.323,255.512,320.736,256.319Z" transform="translate(-319.198 -147.628)"/>
        <path id="Path_627" data-name="Path 627" class="cls-22" d="M500.508,284.527l-29.125-16.816c-1.143-.673-1.143-1.749,0-2.354l19.91-11.5a4.424,4.424,0,0,1,4.1,0l29.125,16.816c1.144.673,1.144,1.749,0,2.354l-19.91,11.5A4.423,4.423,0,0,1,500.508,284.527Z" transform="translate(-368.612 -162.383)"/>
        <path id="Path_628" data-name="Path 628" class="cls-23" d="M524.524,271.58,495.4,254.763a4.424,4.424,0,0,0-4.1,0l-19.91,11.5a2.45,2.45,0,0,0-.74.673c-.269-.605-.067-1.211.74-1.682l19.91-11.5a4.424,4.424,0,0,1,4.1,0l29.125,16.816c.807.471,1.009,1.076.74,1.682A2.451,2.451,0,0,0,524.524,271.58Z" transform="translate(-368.614 -162.35)"/>
        <g id="Group_147" data-name="Group 147" transform="translate(26.291 90.328)">
          <g id="Group_146" data-name="Group 146">
            <path id="Path_629" data-name="Path 629" class="cls-10" d="M361.867,276.9,455.9,331.182l-3.767,2.152L358.1,279.052Z" transform="translate(-358.1 -260.42)"/>
            <path id="Path_630" data-name="Path 630" class="cls-10" d="M376.567,268.4l89.394,51.592-3.7,2.152L372.8,270.552Z" transform="translate(-362.912 -257.638)"/>
            <path id="Path_631" data-name="Path 631" class="cls-10" d="M519.4,350.8l8.341,4.843-3.7,2.152-8.341-4.843Z" transform="translate(-409.691 -284.612)"/>
            <path id="Path_632" data-name="Path 632" class="cls-10" d="M508.467,361.5l5.785,3.363-3.7,2.152-5.852-3.363Z" transform="translate(-406.091 -288.115)"/>
            <path id="Path_633" data-name="Path 633" class="cls-10" d="M385.8,263l104.462,60.336-3.767,2.152L382.1,265.152Z" transform="translate(-365.957 -255.87)"/>
            <path id="Path_634" data-name="Path 634" class="cls-10" d="M395,257.7l104.462,60.269-3.7,2.152L391.3,259.852Z" transform="translate(-368.968 -254.135)"/>
            <path id="Path_635" data-name="Path 635" class="cls-10" d="M404.267,252.4l104.394,60.269-3.7,2.152L400.5,254.552Z" transform="translate(-371.98 -252.4)"/>
          </g>
        </g>
      </g>
    </g>
    <g id="Group_150" data-name="Group 150" transform="translate(239.808)">
      <path id="Path_637" data-name="Path 637" class="cls-24" d="M366.885,13.655,349.8,3.767V0l17.085,9.888Z" transform="translate(-349.8)"/>
      <path id="Path_638" data-name="Path 638" class="cls-24" d="M385.288,24.232,379.1,20.667V16.9l6.188,3.565Z" transform="translate(-359.392 -5.532)"/>
      <path id="Path_639" data-name="Path 639" class="cls-24" d="M396.338,30.621,392.1,28.2V24.5l4.238,2.422Z" transform="translate(-363.647 -8.02)"/>
      <path id="Path_640" data-name="Path 640" class="cls-24" d="M359.083,21.881,349.8,16.5V12.8l9.283,5.381Z" transform="translate(-349.8 -4.19)"/>
      <path id="Path_641" data-name="Path 641" class="cls-24" d="M378.935,33.359,367.5,26.767V23l11.435,6.592Z" transform="translate(-355.594 -7.529)"/>
      <path id="Path_642" data-name="Path 642" class="cls-24" d="M392.57,41.221,388.4,38.8V35.1l4.17,2.354Z" transform="translate(-362.436 -11.49)"/>
      <path id="Path_643" data-name="Path 643" class="cls-24" d="M402.17,46.788,398,44.367V40.6l4.17,2.422Z" transform="translate(-365.579 -13.291)"/>
      <path id="Path_644" data-name="Path 644" class="cls-25" d="M356.526,33.168l-6.726-3.9V25.5l6.726,3.9Z" transform="translate(-349.8 -8.348)"/>
      <path id="Path_645" data-name="Path 645" class="cls-25" d="M365.987,38.645,363.7,37.3V33.6l2.287,1.278Z" transform="translate(-354.35 -10.999)"/>
      <path id="Path_646" data-name="Path 646" class="cls-24" d="M375.17,43.988,371,41.567V37.8l4.17,2.422Z" transform="translate(-356.74 -12.374)"/>
      <path id="Path_647" data-name="Path 647" class="cls-24" d="M374.688,56.394,349.8,42.067V38.3l24.888,14.395Z" transform="translate(-349.8 -12.538)"/>
      <path id="Path_648" data-name="Path 648" class="cls-24" d="M396.821,69.232,390.7,65.667V61.9l6.121,3.565Z" transform="translate(-363.189 -20.263)"/>
      <path id="Path_649" data-name="Path 649" class="cls-24" d="M356.526,58.668l-6.726-3.9V51l6.726,3.9Z" transform="translate(-349.8 -16.695)"/>
      <path id="Path_650" data-name="Path 650" class="cls-24" d="M376.884,70.468l-13.184-7.6V59.1l13.184,7.6Z" transform="translate(-354.35 -19.347)"/>
      <path id="Path_651" data-name="Path 651" class="cls-24" d="M391.37,78.821,387.2,76.4V72.7l4.17,2.422Z" transform="translate(-362.043 -23.799)"/>
      <path id="Path_652" data-name="Path 652" class="cls-24" d="M363.589,75.5,349.8,67.567V63.8l13.789,7.937Z" transform="translate(-349.8 -20.885)"/>
      <path id="Path_653" data-name="Path 653" class="cls-25" d="M384.155,87.384,374.2,81.667V77.9l9.955,5.785Z" transform="translate(-357.788 -25.501)"/>
      <path id="Path_654" data-name="Path 654" class="cls-24" d="M399.626,96.368l-6.726-3.9V88.7l6.726,3.9Z" transform="translate(-363.909 -29.037)"/>
      <path id="Path_655" data-name="Path 655" class="cls-24" d="M354.441,83.057,349.8,80.3V76.6l4.641,2.691Z" transform="translate(-349.8 -25.075)"/>
      <path id="Path_656" data-name="Path 656" class="cls-24" d="M366.721,90.132,360.6,86.567V82.8l6.121,3.565Z" transform="translate(-353.335 -27.105)"/>
      <path id="Path_657" data-name="Path 657" class="cls-24" d="M383.555,99.784,373.6,94.067V90.3l9.955,5.785Z" transform="translate(-357.591 -29.56)"/>
      <path id="Path_658" data-name="Path 658" class="cls-24" d="M364.06,101.34,349.8,93.067V89.3l14.26,8.274Z" transform="translate(-349.8 -29.233)"/>
      <path id="Path_659" data-name="Path 659" class="cls-24" d="M388.286,115.3,374.9,107.567V103.8l13.386,7.735Z" transform="translate(-358.017 -33.98)"/>
      <path id="Path_660" data-name="Path 660" class="cls-25" d="M402.87,123.721,398.7,121.3v-3.7l4.17,2.354Z" transform="translate(-365.808 -38.497)"/>
      <path id="Path_661" data-name="Path 661" class="cls-24" d="M412.57,129.321,408.4,126.9v-3.7l4.17,2.354Z" transform="translate(-368.983 -40.33)"/>
      <path id="Path_662" data-name="Path 662" class="cls-24" d="M358.343,110.777l-8.543-4.91V102.1l8.543,4.91Z" transform="translate(-349.8 -33.423)"/>
      <path id="Path_663" data-name="Path 663" class="cls-25" d="M415.7,41.8l11.839,6.861V44.894L415.7,38.1Z" transform="translate(-371.373 -12.472)"/>
      <path id="Path_664" data-name="Path 664" class="cls-24" d="M419.5,56.767l9.282,5.381V58.381L419.5,53Z" transform="translate(-372.617 -17.35)"/>
      <path id="Path_665" data-name="Path 665" class="cls-24" d="M423.3,71.767l6.726,3.834V71.9L423.3,68Z" transform="translate(-373.861 -22.26)"/>
      <path id="Path_666" data-name="Path 666" class="cls-24" d="M418.7,81.867l9.821,5.65V83.75L418.7,78.1Z" transform="translate(-372.355 -25.567)"/>
      <path id="Path_667" data-name="Path 667" class="cls-24" d="M423.3,97.267l6.726,3.9V97.4L423.3,93.5Z" transform="translate(-373.861 -30.608)"/>
      <path id="Path_668" data-name="Path 668" class="cls-24" d="M420.6,108.467l8.543,4.91V109.61L420.6,104.7Z" transform="translate(-372.977 -34.274)"/>
      <path id="Path_669" data-name="Path 669" class="cls-24" d="M426.4,124.567l4.641,2.691v-3.767L426.4,120.8Z" transform="translate(-374.875 -39.545)"/>
      <path id="Path_670" data-name="Path 670" class="cls-24" d="M419.9,133.567l9.013,5.179v-3.7L419.9,129.8Z" transform="translate(-372.748 -42.491)"/>
      <path id="Path_671" data-name="Path 671" class="cls-24" d="M420.6,146.767l8.543,4.91V147.91L420.6,143Z" transform="translate(-372.977 -46.812)"/>
      <path id="Path_672" data-name="Path 672" class="cls-24" d="M370.032,117.552l-3.632-2.085V111.7l3.632,2.085Z" transform="translate(-355.234 -36.566)"/>
      <path id="Path_673" data-name="Path 673" class="cls-24" d="M383.839,125.543l-8.139-4.776V117l8.139,4.776Z" transform="translate(-358.279 -38.301)"/>
      <path id="Path_674" data-name="Path 674" class="cls-24" d="M465.485,70.355,448.4,60.467V56.7l17.085,9.888Z" transform="translate(-382.077 -18.561)"/>
      <path id="Path_675" data-name="Path 675" class="cls-24" d="M483.888,80.965,477.7,77.4V73.7l6.188,3.5Z" transform="translate(-391.669 -24.126)"/>
      <path id="Path_676" data-name="Path 676" class="cls-25" d="M494.97,87.388l-4.17-2.422V81.2l4.17,2.422Z" transform="translate(-395.957 -26.581)"/>
      <path id="Path_677" data-name="Path 677" class="cls-24" d="M457.75,78.648l-9.35-5.381V69.5l9.35,5.381Z" transform="translate(-382.077 -22.751)"/>
      <path id="Path_678" data-name="Path 678" class="cls-24" d="M477.568,90.059,466.2,83.467V79.7l11.368,6.592Z" transform="translate(-387.904 -26.09)"/>
      <path id="Path_679" data-name="Path 679" class="cls-25" d="M491.238,97.988,487,95.567V91.8l4.238,2.422Z" transform="translate(-394.713 -30.051)"/>
      <path id="Path_680" data-name="Path 680" class="cls-24" d="M500.87,103.488l-4.17-2.422V97.3l4.17,2.422Z" transform="translate(-397.889 -31.852)"/>
      <path id="Path_681" data-name="Path 681" class="cls-24" d="M455.126,89.9,448.4,86V82.3l6.726,3.834Z" transform="translate(-382.077 -26.941)"/>
      <path id="Path_682" data-name="Path 682" class="cls-24" d="M464.654,95.345,462.3,94.067V90.3l2.354,1.345Z" transform="translate(-386.628 -29.56)"/>
      <path id="Path_683" data-name="Path 683" class="cls-24" d="M473.838,100.688,469.6,98.267V94.5l4.238,2.422Z" transform="translate(-389.017 -30.935)"/>
      <path id="Path_684" data-name="Path 684" class="cls-24" d="M473.288,113.161,448.4,98.767V95l24.888,14.395Z" transform="translate(-382.077 -31.099)"/>
      <path id="Path_685" data-name="Path 685" class="cls-24" d="M495.488,125.932l-6.188-3.565V118.6l6.188,3.565Z" transform="translate(-395.466 -38.824)"/>
      <path id="Path_686" data-name="Path 686" class="cls-24" d="M455.126,115.4l-6.726-3.834V107.8l6.726,3.9Z" transform="translate(-382.077 -35.289)"/>
      <path id="Path_687" data-name="Path 687" class="cls-24" d="M475.551,127.168l-13.251-7.6V115.8l13.251,7.668Z" transform="translate(-386.628 -37.908)"/>
      <path id="Path_688" data-name="Path 688" class="cls-24" d="M490.07,135.588l-4.17-2.422V129.4l4.17,2.422Z" transform="translate(-394.353 -42.36)"/>
      <path id="Path_689" data-name="Path 689" class="cls-25" d="M462.189,132.271l-13.789-8V120.5l13.789,8Z" transform="translate(-382.077 -39.446)"/>
      <path id="Path_690" data-name="Path 690" class="cls-24" d="M482.822,144.152,472.8,138.367V134.6l10.022,5.785Z" transform="translate(-390.065 -44.062)"/>
      <path id="Path_691" data-name="Path 691" class="cls-24" d="M498.294,153.068l-6.794-3.9V145.4l6.794,3.9Z" transform="translate(-396.186 -47.598)"/>
      <path id="Path_692" data-name="Path 692" class="cls-24" d="M453.041,139.757l-4.641-2.691V133.3l4.641,2.691Z" transform="translate(-382.077 -43.637)"/>
      <path id="Path_693" data-name="Path 693" class="cls-24" d="M465.388,146.832l-6.188-3.565V139.5l6.188,3.565Z" transform="translate(-385.613 -45.666)"/>
      <path id="Path_694" data-name="Path 694" class="cls-25" d="M482.188,156.584l-9.888-5.717V147.1l9.888,5.717Z" transform="translate(-389.901 -48.154)"/>
      <path id="Path_695" data-name="Path 695" class="cls-24" d="M462.66,158.073,448.4,149.8v-3.7l14.26,8.206Z" transform="translate(-382.077 -47.827)"/>
      <path id="Path_696" data-name="Path 696" class="cls-24" d="M486.886,172.035,473.5,164.3v-3.7l13.386,7.668Z" transform="translate(-390.294 -52.573)"/>
      <path id="Path_697" data-name="Path 697" class="cls-24" d="M501.47,180.488l-4.17-2.422V174.3l4.17,2.421Z" transform="translate(-398.085 -57.058)"/>
      <path id="Path_698" data-name="Path 698" class="cls-24" d="M511.17,186.088,507,183.667V179.9l4.17,2.422Z" transform="translate(-401.26 -58.891)"/>
      <path id="Path_699" data-name="Path 699" class="cls-24" d="M456.943,167.477l-8.543-4.91V158.8l8.543,4.978Z" transform="translate(-382.077 -51.984)"/>
      <path id="Path_700" data-name="Path 700" class="cls-25" d="M514.3,98.567l11.906,6.861v-3.767L514.3,94.8Z" transform="translate(-403.65 -31.033)"/>
      <path id="Path_701" data-name="Path 701" class="cls-24" d="M518.1,113.467l9.35,5.381v-3.767L518.1,109.7Z" transform="translate(-404.894 -35.911)"/>
      <path id="Path_702" data-name="Path 702" class="cls-24" d="M521.9,128.467l6.794,3.9V128.6l-6.794-3.9Z" transform="translate(-406.138 -40.821)"/>
      <path id="Path_703" data-name="Path 703" class="cls-24" d="M517.4,138.567l9.821,5.65V140.45L517.4,134.8Z" transform="translate(-404.665 -44.128)"/>
      <path id="Path_704" data-name="Path 704" class="cls-24" d="M521.9,153.967l6.794,3.9V154.1l-6.794-3.9Z" transform="translate(-406.138 -49.169)"/>
      <path id="Path_705" data-name="Path 705" class="cls-24" d="M519.2,165.167l8.61,4.978v-3.767L519.2,161.4Z" transform="translate(-405.254 -52.835)"/>
      <path id="Path_706" data-name="Path 706" class="cls-24" d="M525,181.267l4.709,2.691v-3.767L525,177.5Z" transform="translate(-407.153 -58.106)"/>
      <path id="Path_707" data-name="Path 707" class="cls-24" d="M518.5,190.267l9.081,5.247v-3.767L518.5,186.5Z" transform="translate(-405.025 -61.052)"/>
      <path id="Path_708" data-name="Path 708" class="cls-24" d="M519.2,203.467l8.61,4.91v-3.7L519.2,199.7Z" transform="translate(-405.254 -65.373)"/>
      <path id="Path_709" data-name="Path 709" class="cls-25" d="M468.632,174.252,465,172.167V168.4l3.632,2.085Z" transform="translate(-387.512 -55.127)"/>
      <path id="Path_710" data-name="Path 710" class="cls-24" d="M482.506,182.275l-8.206-4.708V173.8l8.206,4.709Z" transform="translate(-390.556 -56.895)"/>
      <path id="Path_711" data-name="Path 711" class="cls-24" d="M366.885,128.555,349.8,118.667V114.9l17.085,9.888Z" transform="translate(-349.8 -37.613)"/>
      <path id="Path_712" data-name="Path 712" class="cls-24" d="M385.288,139.132l-6.188-3.565V131.8l6.188,3.565Z" transform="translate(-359.392 -43.146)"/>
      <path id="Path_713" data-name="Path 713" class="cls-24" d="M396.338,145.588l-4.238-2.422V139.4l4.238,2.422Z" transform="translate(-363.647 -45.633)"/>
      <path id="Path_714" data-name="Path 714" class="cls-24" d="M359.083,136.848l-9.283-5.381V127.7l9.283,5.381Z" transform="translate(-349.8 -41.803)"/>
      <path id="Path_715" data-name="Path 715" class="cls-24" d="M378.935,148.259,367.5,141.667V137.9l11.435,6.592Z" transform="translate(-355.594 -45.142)"/>
      <path id="Path_716" data-name="Path 716" class="cls-24" d="M392.57,156.188l-4.17-2.421V150l4.17,2.422Z" transform="translate(-362.436 -49.103)"/>
      <path id="Path_717" data-name="Path 717" class="cls-24" d="M402.17,161.688,398,159.267V155.5l4.17,2.422Z" transform="translate(-365.579 -50.904)"/>
      <path id="Path_718" data-name="Path 718" class="cls-24" d="M356.526,148.068l-6.726-3.9V140.4l6.726,3.9Z" transform="translate(-349.8 -45.961)"/>
      <path id="Path_719" data-name="Path 719" class="cls-24" d="M365.987,153.545l-2.287-1.278V148.5l2.287,1.345Z" transform="translate(-354.35 -48.612)"/>
      <path id="Path_720" data-name="Path 720" class="cls-24" d="M375.17,158.888,371,156.467V152.7l4.17,2.422Z" transform="translate(-356.74 -49.987)"/>
      <path id="Path_721" data-name="Path 721" class="cls-24" d="M374.688,171.361,349.8,156.967V153.2l24.888,14.395Z" transform="translate(-349.8 -50.151)"/>
      <path id="Path_722" data-name="Path 722" class="cls-24" d="M396.821,184.132l-6.121-3.565V176.8l6.121,3.565Z" transform="translate(-363.189 -57.877)"/>
      <path id="Path_723" data-name="Path 723" class="cls-24" d="M356.526,173.6l-6.726-3.9V166l6.726,3.9Z" transform="translate(-349.8 -54.341)"/>
      <path id="Path_724" data-name="Path 724" class="cls-24" d="M376.884,185.368l-13.184-7.6V174l13.184,7.6Z" transform="translate(-354.35 -56.96)"/>
      <path id="Path_725" data-name="Path 725" class="cls-24" d="M391.37,193.788l-4.17-2.422V187.6l4.17,2.422Z" transform="translate(-362.043 -61.412)"/>
      <path id="Path_726" data-name="Path 726" class="cls-24" d="M363.589,190.471l-13.789-8V178.7l13.789,8Z" transform="translate(-349.8 -58.499)"/>
      <path id="Path_727" data-name="Path 727" class="cls-24" d="M384.155,202.352l-9.955-5.785V192.8l9.955,5.785Z" transform="translate(-357.788 -63.114)"/>
      <path id="Path_728" data-name="Path 728" class="cls-24" d="M399.626,211.268l-6.726-3.9V203.6l6.726,3.9Z" transform="translate(-363.909 -66.65)"/>
      <path id="Path_729" data-name="Path 729" class="cls-24" d="M354.441,197.957l-4.641-2.691V191.5l4.641,2.691Z" transform="translate(-349.8 -62.689)"/>
      <path id="Path_730" data-name="Path 730" class="cls-24" d="M366.721,205.032l-6.121-3.565V197.7l6.121,3.565Z" transform="translate(-353.335 -64.718)"/>
      <path id="Path_731" data-name="Path 731" class="cls-24" d="M383.555,214.784,373.6,209v-3.7l9.955,5.717Z" transform="translate(-357.591 -67.206)"/>
      <path id="Path_732" data-name="Path 732" class="cls-24" d="M364.06,216.24l-14.26-8.274V204.2l14.26,8.274Z" transform="translate(-349.8 -66.846)"/>
      <path id="Path_733" data-name="Path 733" class="cls-24" d="M388.286,230.2,374.9,222.467V218.7l13.386,7.735Z" transform="translate(-358.017 -71.593)"/>
      <path id="Path_734" data-name="Path 734" class="cls-24" d="M402.87,238.621l-4.17-2.354V232.5l4.17,2.421Z" transform="translate(-365.808 -76.11)"/>
      <path id="Path_735" data-name="Path 735" class="cls-24" d="M412.57,244.288l-4.17-2.422V238.1l4.17,2.422Z" transform="translate(-368.983 -77.944)"/>
      <path id="Path_736" data-name="Path 736" class="cls-24" d="M358.343,225.677l-8.543-4.91V217l8.543,4.91Z" transform="translate(-349.8 -71.036)"/>
      <path id="Path_737" data-name="Path 737" class="cls-24" d="M415.7,156.767l11.839,6.794v-3.7L415.7,153Z" transform="translate(-371.373 -50.086)"/>
      <path id="Path_738" data-name="Path 738" class="cls-24" d="M419.5,171.667l9.282,5.381v-3.767L419.5,167.9Z" transform="translate(-372.617 -54.963)"/>
      <path id="Path_739" data-name="Path 739" class="cls-24" d="M423.3,186.667l6.726,3.9V186.8l-6.726-3.9Z" transform="translate(-373.861 -59.874)"/>
      <path id="Path_740" data-name="Path 740" class="cls-24" d="M418.7,196.767l9.821,5.65V198.65L418.7,193Z" transform="translate(-372.355 -63.18)"/>
      <path id="Path_741" data-name="Path 741" class="cls-24" d="M423.3,212.167l6.726,3.9V212.3l-6.726-3.9Z" transform="translate(-373.861 -68.221)"/>
      <path id="Path_742" data-name="Path 742" class="cls-24" d="M420.6,223.367l8.543,4.91v-3.7L420.6,219.6Z" transform="translate(-372.977 -71.887)"/>
      <path id="Path_743" data-name="Path 743" class="cls-24" d="M426.4,239.467l4.641,2.691v-3.767L426.4,235.7Z" transform="translate(-374.875 -77.158)"/>
      <path id="Path_744" data-name="Path 744" class="cls-24" d="M419.9,248.467l9.013,5.247v-3.767L419.9,244.7Z" transform="translate(-372.748 -80.104)"/>
      <path id="Path_745" data-name="Path 745" class="cls-24" d="M420.6,261.667l8.543,4.91V262.81L420.6,257.9Z" transform="translate(-372.977 -84.425)"/>
      <path id="Path_746" data-name="Path 746" class="cls-24" d="M370.032,232.452l-3.632-2.085V226.6l3.632,2.085Z" transform="translate(-355.234 -74.179)"/>
      <path id="Path_747" data-name="Path 747" class="cls-24" d="M383.839,240.475,375.7,235.7V232l8.139,4.709Z" transform="translate(-358.279 -75.947)"/>
      <path id="Path_748" data-name="Path 748" class="cls-24" d="M391.189,281.771l-13.789-8V270l13.789,8Z" transform="translate(-358.835 -88.386)"/>
      <path id="Path_749" data-name="Path 749" class="cls-24" d="M409.348,292.261,403.9,289.1v-3.7l5.448,3.094Z" transform="translate(-367.51 -93.428)"/>
      <path id="Path_750" data-name="Path 750" class="cls-24" d="M465.485,185.287,448.4,175.4v-3.7l17.085,9.821Z" transform="translate(-382.077 -56.207)"/>
      <path id="Path_751" data-name="Path 751" class="cls-24" d="M483.888,195.932l-6.188-3.565V188.6l6.188,3.565Z" transform="translate(-391.669 -61.739)"/>
      <path id="Path_752" data-name="Path 752" class="cls-24" d="M494.97,202.288l-4.17-2.422V196.1l4.17,2.422Z" transform="translate(-395.957 -64.195)"/>
      <path id="Path_753" data-name="Path 753" class="cls-24" d="M457.75,193.548l-9.35-5.381V184.4l9.35,5.381Z" transform="translate(-382.077 -60.365)"/>
      <path id="Path_754" data-name="Path 754" class="cls-24" d="M477.568,204.991,466.2,198.4v-3.7l11.368,6.592Z" transform="translate(-387.904 -63.736)"/>
      <path id="Path_755" data-name="Path 755" class="cls-24" d="M491.238,212.888,487,210.467V206.7l4.238,2.422Z" transform="translate(-394.713 -67.665)"/>
      <path id="Path_756" data-name="Path 756" class="cls-24" d="M500.87,218.421,496.7,216v-3.7l4.17,2.422Z" transform="translate(-397.889 -69.498)"/>
      <path id="Path_757" data-name="Path 757" class="cls-24" d="M455.126,204.8l-6.726-3.834V197.2l6.726,3.9Z" transform="translate(-382.077 -64.555)"/>
      <path id="Path_758" data-name="Path 758" class="cls-24" d="M464.654,210.312l-2.354-1.345V205.2l2.354,1.345Z" transform="translate(-386.628 -67.174)"/>
      <path id="Path_759" data-name="Path 759" class="cls-24" d="M473.838,215.588l-4.238-2.422V209.4l4.238,2.422Z" transform="translate(-389.017 -68.548)"/>
      <path id="Path_760" data-name="Path 760" class="cls-24" d="M473.288,228.061,448.4,213.667V209.9l24.888,14.395Z" transform="translate(-382.077 -68.712)"/>
      <path id="Path_761" data-name="Path 761" class="cls-24" d="M495.488,240.832l-6.188-3.565V233.5l6.188,3.565Z" transform="translate(-395.466 -76.438)"/>
      <path id="Path_762" data-name="Path 762" class="cls-24" d="M455.126,230.368l-6.726-3.9V222.7l6.726,3.9Z" transform="translate(-382.077 -72.902)"/>
      <path id="Path_763" data-name="Path 763" class="cls-24" d="M475.551,242.135,462.3,234.467V230.7l13.251,7.668Z" transform="translate(-386.628 -75.521)"/>
      <path id="Path_764" data-name="Path 764" class="cls-24" d="M490.07,250.488l-4.17-2.422V244.3l4.17,2.422Z" transform="translate(-394.353 -79.973)"/>
      <path id="Path_765" data-name="Path 765" class="cls-24" d="M462.189,247.2l-13.789-8v-3.7l13.789,7.937Z" transform="translate(-382.077 -77.092)"/>
      <path id="Path_766" data-name="Path 766" class="cls-24" d="M482.822,259.052,472.8,253.267V249.5l10.022,5.785Z" transform="translate(-390.065 -81.675)"/>
      <path id="Path_767" data-name="Path 767" class="cls-24" d="M498.294,268l-6.794-3.9v-3.7l6.794,3.834Z" transform="translate(-396.186 -85.244)"/>
      <path id="Path_768" data-name="Path 768" class="cls-24" d="M453.041,254.657l-4.641-2.691V248.2l4.641,2.691Z" transform="translate(-382.077 -81.25)"/>
      <path id="Path_769" data-name="Path 769" class="cls-24" d="M465.388,261.765,459.2,258.2v-3.7l6.188,3.5Z" transform="translate(-385.613 -83.312)"/>
      <path id="Path_770" data-name="Path 770" class="cls-24" d="M482.188,271.484l-9.888-5.717V262l9.888,5.717Z" transform="translate(-389.901 -85.767)"/>
      <path id="Path_771" data-name="Path 771" class="cls-24" d="M462.66,272.973l-14.26-8.206V261l14.26,8.206Z" transform="translate(-382.077 -85.44)"/>
      <path id="Path_772" data-name="Path 772" class="cls-24" d="M486.886,286.935,473.5,279.267V275.5l13.386,7.735Z" transform="translate(-390.294 -90.187)"/>
      <path id="Path_773" data-name="Path 773" class="cls-24" d="M501.47,295.388l-4.17-2.422V289.2l4.17,2.421Z" transform="translate(-398.085 -94.671)"/>
      <path id="Path_774" data-name="Path 774" class="cls-24" d="M511.17,300.988,507,298.567V294.8l4.17,2.422Z" transform="translate(-401.26 -96.505)"/>
      <path id="Path_775" data-name="Path 775" class="cls-24" d="M456.943,282.444l-8.543-4.978V273.7l8.543,4.978Z" transform="translate(-382.077 -89.597)"/>
      <path id="Path_776" data-name="Path 776" class="cls-24" d="M514.3,213.467l11.906,6.861v-3.767L514.3,209.7Z" transform="translate(-403.65 -68.647)"/>
      <path id="Path_777" data-name="Path 777" class="cls-24" d="M518.1,228.367l9.35,5.381v-3.767L518.1,224.6Z" transform="translate(-404.894 -73.524)"/>
      <path id="Path_778" data-name="Path 778" class="cls-24" d="M521.9,243.367l6.794,3.9V243.5l-6.794-3.9Z" transform="translate(-406.138 -78.435)"/>
      <path id="Path_779" data-name="Path 779" class="cls-24" d="M517.4,253.467l9.821,5.717v-3.767L517.4,249.7Z" transform="translate(-404.665 -81.741)"/>
      <path id="Path_780" data-name="Path 780" class="cls-24" d="M521.9,268.867l6.794,3.9V269l-6.794-3.9Z" transform="translate(-406.138 -86.782)"/>
      <path id="Path_781" data-name="Path 781" class="cls-24" d="M519.2,280.067l8.61,4.978v-3.767L519.2,276.3Z" transform="translate(-405.254 -90.449)"/>
      <path id="Path_782" data-name="Path 782" class="cls-24" d="M525,296.167l4.709,2.691v-3.767L525,292.4Z" transform="translate(-407.153 -95.719)"/>
      <path id="Path_783" data-name="Path 783" class="cls-24" d="M518.5,305.2l9.081,5.247v-3.767L518.5,301.5Z" transform="translate(-405.025 -98.698)"/>
      <path id="Path_784" data-name="Path 784" class="cls-24" d="M519.2,318.367l8.61,4.978v-3.767L519.2,314.6Z" transform="translate(-405.254 -102.986)"/>
      <path id="Path_785" data-name="Path 785" class="cls-24" d="M468.632,289.152,465,287.067V283.3l3.632,2.085Z" transform="translate(-387.512 -92.74)"/>
      <path id="Path_786" data-name="Path 786" class="cls-24" d="M482.506,297.175l-8.206-4.708V288.7l8.206,4.709Z" transform="translate(-390.556 -94.508)"/>
      <path id="Path_787" data-name="Path 787" class="cls-24" d="M489.857,338.5,476,330.567V326.8l13.857,7.937Z" transform="translate(-391.112 -106.98)"/>
      <path id="Path_788" data-name="Path 788" class="cls-24" d="M507.948,349.028l-5.448-3.161V342.1l5.448,3.161Z" transform="translate(-399.787 -111.989)"/>
    </g>
    <path id="Path_789" data-name="Path 789" class="cls-26" d="M142.7,415.609l-.4-.673,8.475-5.112a.566.566,0,0,0,.269-.471.508.508,0,0,0-.269-.471l-8.274-4.91.4-.673,8.274,4.91a1.212,1.212,0,0,1,.605,1.076,1.141,1.141,0,0,1-.605,1.076Z" transform="translate(-42.065 -132.023)"/>
  </g>
</svg>
