<svg xmlns="http://www.w3.org/2000/svg" xmlns:xlink="http://www.w3.org/1999/xlink" viewBox="29.95 5692.542 5980.66 5905.137">
  <defs>
    <style>
      .cls-1 {
        fill: #4885fa;
      }

      .cls-2 {
        fill: url(#linear-gradient);
      }

      .cls-3 {
        fill: url(#linear-gradient-2);
      }

      .cls-4 {
        fill: url(#linear-gradient-3);
      }
    </style>
    <linearGradient id="linear-gradient" x1="0.689" y1="0.707" x2="0.289" y2="-0.046" gradientUnits="objectBoundingBox">
      <stop offset="0" stop-color="#3168fa" stop-opacity="0.702"/>
      <stop offset="1" stop-color="#4885fa" stop-opacity="0"/>
    </linearGradient>
    <linearGradient id="linear-gradient-2" x1="0.301" y1="0.602" x2="-0.91" y2="0.309" xlink:href="#linear-gradient"/>
    <linearGradient id="linear-gradient-3" x1="0.307" y1="0.298" x2="0.778" y2="0.628" xlink:href="#linear-gradient"/>
  </defs>
  <g id="Group_45" data-name="Group 45" transform="matrix(-0.454, 0.891, -0.891, -0.454, 6010.591, 7737.773)">
    <path id="Path_40" data-name="Path 40" class="cls-1" d="M4332.073,3457.234s-471.907,1008.787-1538.828,1046.4c-244.844,8.549-458.571-25.647-642.547-93.7C1679.475,4235.2,1401.46,3837.5,1283.141,3363.878c-36.59-147.043-58.133-301.61-64.973-458.913-20.518-471.223-239.031-683.582-486.27-852.511-236.638-161.406-499.264-282.8-638.785-553.294C-210.206,912.354,324.28,232.534,324.28,232.534L3693.63,20.86h0L4024.306,0l126.526,998.528Z" transform="translate(0 0)"/>
    <path id="Path_41" data-name="Path 41" class="cls-2" d="M3693.516,6.1C3689.07,12.6,3469.189,801.161,2788,841.855c-683.924,41.035-789.932,499.264-1343.91,930.136-275.963,214.752-528.331,267.072-711.965,266.047-236.637-161.406-499.264-282.8-638.785-553.294C-210.32,897.594,324.166,217.774,324.166,217.774Z" transform="translate(0.114 14.76)"/>
    <path id="Path_42" data-name="Path 42" class="cls-3" d="M850.521,1152.374c-14.362-459.255,469.172-866.531,828.573-849.091,442.5,21.886,570.05,677.085,555.688,1023.15-14.7,359.744-309.476,579.625-835.071,521.492C1042.02,1807.915,861.806,1512.117,850.521,1152.374Z" transform="translate(2057.281 732.521)"/>
    <path id="Path_43" data-name="Path 43" class="cls-4" d="M1500.938,2315.656c-81.045,65.315-167.9,108.06-258.181,126.868C771.534,2267.781,493.519,1870.079,375.2,1396.462c49.585-131.314,138.152-255.788,255.445-365.558,373.08-348.8,1068.631-243.819,1317.579,69.418C2254.622,1486.4,1800.5,2073.547,1500.938,2315.656Z" transform="translate(907.941 1967.417)"/>
  </g>
</svg>
