<svg xmlns="http://www.w3.org/2000/svg" xmlns:xlink="http://www.w3.org/1999/xlink" viewBox="3254.05 2403.076 419.95 281.547">
  <defs>
    <style>
      .cls-1, .cls-19 {
        opacity: 0.3;
      }

      .cls-2 {
        fill: url(#linear-gradient);
      }

      .cls-3 {
        fill: url(#linear-gradient-2);
      }

      .cls-4 {
        fill: url(#linear-gradient-3);
      }

      .cls-5 {
        fill: url(#linear-gradient-4);
      }

      .cls-6 {
        fill: url(#linear-gradient-5);
      }

      .cls-7 {
        fill: url(#linear-gradient-6);
      }

      .cls-8 {
        fill: url(#radial-gradient);
      }

      .cls-9 {
        fill: url(#linear-gradient-7);
      }

      .cls-10 {
        fill: url(#linear-gradient-8);
      }

      .cls-11 {
        fill: url(#linear-gradient-9);
      }

      .cls-12 {
        opacity: 0.1;
      }

      .cls-13 {
        fill: #10203b;
      }

      .cls-14 {
        fill: #203e79;
      }

      .cls-15 {
        fill: #3a6daa;
      }

      .cls-16 {
        fill: #274f88;
      }

      .cls-17 {
        fill: #c9d7e4;
      }

      .cls-18 {
        fill: #567dbe;
      }

      .cls-20 {
        clip-path: url(#clip-path);
      }

      .cls-21 {
        fill: #f16b32;
      }

      .cls-22 {
        fill: #f69226;
      }

      .cls-23 {
        clip-path: url(#clip-path-2);
      }

      .cls-24, .cls-39 {
        fill: #fff;
      }

      .cls-24 {
        opacity: 0;
      }

      .cls-25 {
        fill: #82829a;
        opacity: 0.683;
      }

      .cls-26 {
        fill: #7e7e96;
        opacity: 0.707;
      }

      .cls-27 {
        fill: #7a7992;
        opacity: 0.732;
      }

      .cls-28 {
        fill: #75758f;
        opacity: 0.756;
      }

      .cls-29 {
        fill: #71718b;
        opacity: 0.78;
      }

      .cls-30 {
        fill: #6c6c88;
        opacity: 0.805;
      }

      .cls-31 {
        fill: #686884;
        opacity: 0.829;
      }

      .cls-32 {
        fill: #636380;
        opacity: 0.854;
      }

      .cls-33 {
        fill: #5f5f7d;
        opacity: 0.878;
      }

      .cls-34 {
        fill: #5a5a79;
        opacity: 0.902;
      }

      .cls-35 {
        fill: #565676;
        opacity: 0.927;
      }

      .cls-36 {
        fill: #525172;
        opacity: 0.951;
      }

      .cls-37 {
        fill: #4d4d6e;
        opacity: 0.976;
      }

      .cls-38 {
        fill: #49486b;
      }

      .cls-40 {
        fill: url(#linear-gradient-10);
      }

      .cls-41 {
        fill: #333854;
      }

      .cls-42 {
        fill: #fec111;
      }

      .cls-43 {
        fill: url(#linear-gradient-11);
      }

      .cls-44 {
        fill: url(#linear-gradient-12);
      }

      .cls-45 {
        fill: url(#linear-gradient-13);
      }

      .cls-46 {
        fill: url(#linear-gradient-14);
      }

      .cls-47 {
        fill: url(#linear-gradient-15);
      }

      .cls-48 {
        fill: url(#linear-gradient-16);
      }

      .cls-49 {
        fill: url(#linear-gradient-17);
      }

      .cls-50 {
        fill: url(#linear-gradient-18);
      }

      .cls-51 {
        fill: url(#linear-gradient-19);
      }

      .cls-52 {
        fill: url(#linear-gradient-20);
      }

      .cls-53 {
        fill: url(#linear-gradient-21);
      }

      .cls-54 {
        fill: url(#linear-gradient-22);
      }

      .cls-55 {
        fill: url(#linear-gradient-23);
      }

      .cls-56 {
        fill: url(#linear-gradient-24);
      }
    </style>
    <linearGradient id="linear-gradient" x1="-24.367" y1="0.5" x2="-23.368" y2="0.5" gradientUnits="objectBoundingBox">
      <stop offset="0" stop-color="#333854"/>
      <stop offset="0.125" stop-color="#383953"/>
      <stop offset="0.272" stop-color="#463b4f"/>
      <stop offset="0.43" stop-color="#5e3e49"/>
      <stop offset="0.597" stop-color="#7f4341"/>
      <stop offset="0.77" stop-color="#aa4936"/>
      <stop offset="0.945" stop-color="#dd5029"/>
      <stop offset="1" stop-color="#ef5325"/>
    </linearGradient>
    <linearGradient id="linear-gradient-2" x1="-66.89" y1="115.447" x2="-66.304" y2="115.447" xlink:href="#linear-gradient"/>
    <linearGradient id="linear-gradient-3" x1="-217.236" y1="0.497" x2="-216.235" y2="0.497" xlink:href="#linear-gradient"/>
    <linearGradient id="linear-gradient-4" x1="-160.522" y1="-0.023" x2="-160.797" y2="1.024" xlink:href="#linear-gradient"/>
    <linearGradient id="linear-gradient-5" x1="-52.873" y1="0.5" x2="-51.873" y2="0.5" xlink:href="#linear-gradient"/>
    <linearGradient id="linear-gradient-6" x1="-74.39" y1="-31.588" x2="-73.235" y2="-31.588" gradientUnits="objectBoundingBox">
      <stop offset="0" stop-color="#f16b32"/>
      <stop offset="0.306" stop-color="#f27030"/>
      <stop offset="0.667" stop-color="#f37e2c"/>
      <stop offset="1" stop-color="#f69226"/>
    </linearGradient>
    <radialGradient id="radial-gradient" cx="130.469" cy="192.489" fx="93.92305071248575" fy="179.59592063339323" r="41.35" gradientTransform="matrix(-0.937, 0, 0, 0.937, 196.565, 1.63)" gradientUnits="userSpaceOnUse">
      <stop offset="0" stop-color="#2f2e7a"/>
      <stop offset="1" stop-color="#211c58"/>
    </radialGradient>
    <linearGradient id="linear-gradient-7" x1="-57.134" y1="0.5" x2="-56.134" y2="0.5" xlink:href="#linear-gradient-6"/>
    <linearGradient id="linear-gradient-8" x1="-73.972" y1="-31.49" x2="-72.817" y2="-31.49" gradientUnits="objectBoundingBox">
      <stop offset="0" stop-color="#f69226"/>
      <stop offset="0.124" stop-color="#f5942b"/>
      <stop offset="0.27" stop-color="#f19939"/>
      <stop offset="0.428" stop-color="#eca251"/>
      <stop offset="0.593" stop-color="#e4ae72"/>
      <stop offset="0.765" stop-color="#dabd9d"/>
      <stop offset="0.939" stop-color="#ced0d0"/>
      <stop offset="1" stop-color="#c9d7e4"/>
    </linearGradient>
    <linearGradient id="linear-gradient-9" x1="-566.433" y1="0.177" x2="-565.416" y2="0.629" xlink:href="#linear-gradient"/>
    <clipPath id="clip-path">
      <path id="Path_929" data-name="Path 929" class="cls-1" d="M443.528,172.8,463.3,92.139,388.6,47.844,431.675,28l55.47,21.4s.339,97.732,0,98.68-20.522,33.8-20.522,33.8Z" transform="translate(-388.6 -28)"/>
    </clipPath>
    <clipPath id="clip-path-2">
      <path id="Path_969" data-name="Path 969" d="M400.155,182.259l19.777-80.665L345.227,57.3,254.2,91.164l69.9,91.162s57.7,32.848,57.366,33.864,41.856-24.924,41.856-24.924Z" transform="translate(-254.2 -57.3)"/>
    </clipPath>
    <linearGradient id="linear-gradient-10" x1="0.001" y1="0.502" x2="1" y2="0.502" gradientUnits="objectBoundingBox">
      <stop offset="0" stop-color="#c9d7e4"/>
      <stop offset="1" stop-color="#567dbe"/>
    </linearGradient>
    <linearGradient id="linear-gradient-11" x1="0.001" y1="0.503" x2="1.001" y2="0.503" gradientUnits="objectBoundingBox">
      <stop offset="0" stop-color="#567dbe"/>
      <stop offset="0.996" stop-color="#333854"/>
    </linearGradient>
    <linearGradient id="linear-gradient-12" x1="-0.234" y1="-0.267" x2="0.714" y2="0.715" gradientUnits="objectBoundingBox">
      <stop offset="0.479" stop-color="#f69226"/>
      <stop offset="0.996" stop-color="#f16b32"/>
    </linearGradient>
    <linearGradient id="linear-gradient-13" x1="-1.747" y1="-1.841" x2="0.148" y2="0.124" xlink:href="#linear-gradient-12"/>
    <linearGradient id="linear-gradient-14" x1="-1.774" y1="-1.869" x2="0.122" y2="0.096" xlink:href="#linear-gradient-12"/>
    <linearGradient id="linear-gradient-15" x1="-2.89" y1="-3.03" x2="-0.994" y2="-1.066" xlink:href="#linear-gradient-12"/>
    <linearGradient id="linear-gradient-16" x1="0.001" y1="0.501" x2="0.999" y2="0.501" xlink:href="#linear-gradient-10"/>
    <linearGradient id="linear-gradient-17" x1="-0.001" y1="0.5" x2="1" y2="0.5" xlink:href="#linear-gradient-12"/>
    <linearGradient id="linear-gradient-18" x1="0" y1="0.5" x2="1" y2="0.5" xlink:href="#linear-gradient-12"/>
    <linearGradient id="linear-gradient-19" x1="0.001" y1="0.5" x2="1" y2="0.5" xlink:href="#linear-gradient-12"/>
    <linearGradient id="linear-gradient-20" x1="0.001" y1="0.501" x2="1" y2="0.501" xlink:href="#linear-gradient-12"/>
    <linearGradient id="linear-gradient-21" x1="0.001" y1="0.5" x2="1" y2="0.5" xlink:href="#linear-gradient-12"/>
    <linearGradient id="linear-gradient-22" x1="0.001" y1="0.5" x2="1" y2="0.5" xlink:href="#linear-gradient-12"/>
    <linearGradient id="linear-gradient-23" x1="0.003" y1="0.502" x2="1" y2="0.502" xlink:href="#linear-gradient-12"/>
    <linearGradient id="linear-gradient-24" x1="0.001" y1="0.503" x2="1.001" y2="0.503" xlink:href="#linear-gradient-10"/>
  </defs>
  <g id="Group_204" data-name="Group 204" transform="translate(3254.05 2403.076)">
    <g id="Group_152" data-name="Group 152" transform="translate(102.744 146.361)">
      <path id="Path_790" data-name="Path 790" class="cls-2" d="M296.978,351.286a12.335,12.335,0,0,1-6.163-1.625L152.987,270.08a2.469,2.469,0,0,1,0-4.335L238.934,216.1l.339.2L382.925,299.27a2.469,2.469,0,0,1,0,4.335L303.141,349.66A12.521,12.521,0,0,1,296.978,351.286Zm-58.043-133.7L153.6,266.829a1.149,1.149,0,0,0-.61,1.084A1.22,1.22,0,0,0,153.6,269l137.827,79.513a11.078,11.078,0,0,0,11.04,0l79.784-46.055a1.149,1.149,0,0,0,.61-1.084,1.3,1.3,0,0,0-.61-1.084Z" transform="translate(-151.7 -216.1)"/>
    </g>
    <g id="Group_154" data-name="Group 154" transform="translate(54.589 200.866)">
      <path id="Path_791" data-name="Path 791" class="cls-3" d="M147.53,334.062a6.179,6.179,0,0,1-3.251-.88L122.2,320.448l.542-.948,22.079,12.733a5.516,5.516,0,0,0,5.418,0l21.809-12.6.542.948-21.809,12.6A7.093,7.093,0,0,1,147.53,334.062Z" transform="translate(-94.025 -303.973)"/>
      <path id="Path_792" data-name="Path 792" class="cls-4" d="M99.327,315.005a17.739,17.739,0,0,1-8.6-2.032h0C88.287,311.551,87,309.722,87,307.69s1.355-3.928,3.725-5.283c4.741-2.777,12.53-2.777,17.271,0,2.438,1.422,3.725,3.251,3.725,5.283s-1.355,3.928-3.725,5.283A19.024,19.024,0,0,1,99.327,315.005Zm0-13.681a17.263,17.263,0,0,0-8.06,1.9c-2.032,1.219-3.183,2.709-3.183,4.335s1.151,3.183,3.183,4.335h0c4.47,2.574,11.717,2.574,16.187,0,2.032-1.219,3.183-2.709,3.183-4.335s-1.151-3.183-3.183-4.335A17.748,17.748,0,0,0,99.327,301.324Zm0,10.566a10.29,10.29,0,0,1-4.809-1.151,3.8,3.8,0,0,1-2.167-3.116,3.667,3.667,0,0,1,2.167-3.116,10.341,10.341,0,0,1,9.55,0,3.8,3.8,0,0,1,2.167,3.116,3.667,3.667,0,0,1-2.167,3.116A9.821,9.821,0,0,1,99.327,311.89Zm0-7.45a8.829,8.829,0,0,0-4.267,1.016c-1.016.61-1.625,1.355-1.625,2.1a2.459,2.459,0,0,0,1.625,2.1,9.326,9.326,0,0,0,8.466,0c1.016-.61,1.625-1.355,1.625-2.1a2.459,2.459,0,0,0-1.625-2.1A8.563,8.563,0,0,0,99.327,304.44Z" transform="translate(-82.665 -297.785)"/>
      <g id="Group_153" data-name="Group 153">
        <path id="Path_793" data-name="Path 793" class="cls-5" d="M97.261,316.233a24.081,24.081,0,0,1-11.649-2.777c-3.183-1.829-5.012-4.335-5.012-7.044s1.761-5.215,5.012-7.044c6.434-3.725,16.864-3.725,23.3,0,3.183,1.829,5.012,4.335,5.012,7.044s-1.761,5.215-5.012,7.044A24.271,24.271,0,0,1,97.261,316.233Zm0-18.558a22.821,22.821,0,0,0-11.107,2.641c-2.845,1.625-4.47,3.793-4.47,6.1s1.558,4.47,4.47,6.1h0c6.1,3.522,16.052,3.522,22.215,0,2.845-1.625,4.47-3.793,4.47-6.1s-1.558-4.47-4.47-6.1A23.008,23.008,0,0,0,97.261,297.676Z" transform="translate(-80.6 -296.575)"/>
      </g>
    </g>
    <g id="Group_156" data-name="Group 156" transform="translate(0 112.793)">
      <path id="Path_794" data-name="Path 794" class="cls-6" d="M81.071,267.551a3.838,3.838,0,0,1-1.829-.406L.948,221.9A1.7,1.7,0,0,1,0,220.412a2.129,2.129,0,0,1,1.219-1.761l16.255-9.414a4.68,4.68,0,0,1,4.131-.135l78.226,45.175a1.7,1.7,0,0,1,.948,1.49,2.129,2.129,0,0,1-1.219,1.761l-16.255,9.414A4.1,4.1,0,0,1,81.071,267.551Zm-1.084-1.761a3.3,3.3,0,0,0,2.641-.135l16.255-9.414c.339-.2.474-.406.474-.474l-.2-.2L20.86,210.455a3.3,3.3,0,0,0-2.641.135L1.964,220.005c-.339.2-.474.406-.474.474l.2.2Z" transform="translate(0 -180.139)"/>
      <g id="Group_155" data-name="Group 155" transform="translate(3.928)">
        <path id="Path_795" data-name="Path 795" class="cls-7" d="M42.172,169.514a25.281,25.281,0,0,1,5.757,4.809c2.37-7.721,9.753-10.092,18.422-5.08,7.179,4.131,13.41,12.259,16.729,20.928a8.186,8.186,0,0,1,3.59,1.151c4.673,2.709,8.466,9.279,8.466,14.7v.339a8.989,8.989,0,0,1,4.335,1.49c5.96,3.454,10.837,11.852,10.837,18.761s-4.876,9.685-10.837,6.231l-57.3-33.119c-7.247-4.2-13.072-14.291-13.072-22.689C29.1,168.769,34.925,165.383,42.172,169.514Z" transform="translate(-13.319 -166.56)"/>
        <path id="Path_796" data-name="Path 796" class="cls-8" d="M42.139,169.492A20.369,20.369,0,0,1,45.593,172l6.434-3.725h0c3.522-2.506,8.6-2.371,14.291.88,7.179,4.131,13.41,12.259,16.729,20.928a8.186,8.186,0,0,1,3.59,1.151c4.673,2.709,8.466,9.279,8.466,14.7v.339a8.989,8.989,0,0,1,4.335,1.49c5.96,3.454,10.837,11.852,10.837,18.761,0,3.454-1.219,5.825-3.116,6.976h-.068l-15.713,9.211-3.454-16.526L42.072,199.7C34.825,195.5,29,185.408,29,177.01,29.068,168.747,34.892,165.361,42.139,169.492Z" transform="translate(-13.287 -166.538)"/>
        <path id="Path_797" data-name="Path 797" class="cls-9" d="M11.1,177.923l15.916-9.211h0c2.37-1.422,5.689-1.219,9.347.88a20.368,20.368,0,0,1,3.454,2.506l6.434-3.725h0c3.522-2.506,8.6-2.371,14.291.88,7.179,4.131,13.41,12.259,16.729,20.928a8.186,8.186,0,0,1,3.59,1.151c4.673,2.709,8.466,9.279,8.466,14.7v.339a8.989,8.989,0,0,1,4.335,1.49c5.96,3.454,10.837,11.852,10.837,18.761,0,3.454-1.219,5.825-3.116,6.976h-.068L85.6,242.739l-3.454-16.526L36.295,199.731c-5.892-3.386-10.837-10.7-12.462-17.813Z" transform="translate(-7.51 -166.57)"/>
        <path id="Path_798" data-name="Path 798" class="cls-10" d="M18.872,183.014a25.28,25.28,0,0,1,5.757,4.809c2.37-7.721,9.753-10.092,18.422-5.08C50.23,186.875,56.461,195,59.78,203.671a8.186,8.186,0,0,1,3.59,1.151c4.673,2.709,8.466,9.279,8.466,14.7v.339a8.989,8.989,0,0,1,4.335,1.49c5.96,3.454,10.837,11.852,10.837,18.761s-4.876,9.685-10.837,6.231l-57.3-33.119C11.625,209.022,5.8,198.93,5.8,190.532,5.8,182.269,11.692,178.883,18.872,183.014Z" transform="translate(-5.8 -170.916)"/>
      </g>
    </g>
    <path id="Path_799" data-name="Path 799" class="cls-11" d="M128.906,302.694l-.406-.677,8.534-5.147a.57.57,0,0,0,.271-.474.511.511,0,0,0-.271-.474l-8.331-4.944.406-.677,8.331,4.944a1.22,1.22,0,0,1,.61,1.084,1.149,1.149,0,0,1-.61,1.084Z" transform="translate(-41.469 -93.684)"/>
    <g id="Group_160" data-name="Group 160" transform="translate(111.371 3.524)">
      <g id="Group_158" data-name="Group 158" class="cls-12" transform="translate(4.654 140.768)">
        <g id="Group_157" data-name="Group 157">
          <path id="Path_800" data-name="Path 800" class="cls-13" d="M297.82,343.324,173.674,271.667c-3.522-2.032-3.048-5.554,1.016-7.924l84.525-48.764c4.064-2.37,10.159-2.574,13.681-.542l124.078,71.657c3.522,2.032,3.048,5.554-1.016,7.924l-84.525,48.764C307.437,345.085,301.274,345.356,297.82,343.324Z" transform="translate(-171.31 -213.045)"/>
        </g>
      </g>
      <path id="Path_801" data-name="Path 801" class="cls-14" d="M481.636,80.515l-129.09-74.5a5.176,5.176,0,0,0-4.4-.542h0l-.2.068h-.068L343.2,7.3l4.2,2.032c0,.068-.068.135-.068.2L326.267,105.3c-1.084,4.809,1.084,10.362,4.741,12.462L457.05,190.641l-.474,5.351,5.08-1.964a7.236,7.236,0,0,0,3.657-5.215l21.064-95.768C487.393,88.236,485.293,82.682,481.636,80.515Z" transform="translate(-216.572 -5.203)"/>
      <path id="Path_802" data-name="Path 802" class="cls-15" d="M485.19,80.515,356.1,6.014a5.176,5.176,0,0,0-4.4-.542h0l-.2.068h-.068L346.753,7.3l4.2,2.032c0,.068-.068.135-.068.2L337,72.726l63.191,49.239,89.131-36.3A10.5,10.5,0,0,0,485.19,80.515Z" transform="translate(-220.126 -5.203)"/>
      <path id="Path_803" data-name="Path 803" class="cls-16" d="M544.053,131.52l9.821-4.2a12.26,12.26,0,0,0-4-9.821L534.3,124.07Z" transform="translate(-283.798 -41.443)"/>
      <path id="Path_804" data-name="Path 804" class="cls-17" d="M448.277,196.294,319.119,121.725c-3.657-2.1-5.757-7.721-4.741-12.462l21.064-95.768c1.084-4.809,4.876-6.976,8.534-4.876L473.134,83.187c3.657,2.1,5.757,7.721,4.741,12.462l-21.064,95.768C455.727,196.226,451.935,198.393,448.277,196.294Z" transform="translate(-212.743 -6.047)"/>
      <path id="Path_805" data-name="Path 805" class="cls-17" d="M486.738,82.525,357.58,8.024a5.073,5.073,0,0,0-5.08-.2,5.406,5.406,0,0,1,3.861.677L485.519,83.067c3.657,2.1,5.757,7.721,4.741,12.462L469.2,191.3a7.386,7.386,0,0,1-3.454,5.08c2.167-.474,4-2.438,4.673-5.554l21.064-95.768C492.495,90.246,490.4,84.692,486.738,82.525Z" transform="translate(-225.128 -5.858)"/>
      <path id="Path_806" data-name="Path 806" class="cls-17" d="M448.026,192.512l-121.5-70.1c-3.319-1.9-5.283-7.044-4.335-11.446l19.235-87.641c.948-4.4,4.47-6.366,7.789-4.47l121.437,70.1c3.319,1.9,5.283,7.044,4.335,11.446l-19.167,87.641C454.8,192.444,451.344,194.408,448.026,192.512Z" transform="translate(-215.268 -9.376)"/>
      <path id="Path_807" data-name="Path 807" class="cls-14" d="M448.026,192.512l-121.5-70.1c-3.319-1.9-5.283-7.044-4.335-11.446l19.235-87.641c.948-4.4,4.47-6.366,7.789-4.47l121.437,70.1c3.319,1.9,5.283,7.044,4.335,11.446l-19.167,87.641C454.8,192.444,451.344,194.408,448.026,192.512Z" transform="translate(-215.268 -9.376)"/>
      <path id="Path_808" data-name="Path 808" class="cls-18" d="M449.039,192.123,327.6,122.092c-3.319-1.9-5.283-7.044-4.335-11.446L342.5,23.006A6.7,6.7,0,0,1,345.55,18.4c-1.9.474-3.522,2.3-4.131,5.012l-19.235,87.641c-.948,4.4.948,9.482,4.335,11.446l121.437,70.1a4.6,4.6,0,0,0,4.741.135A4.559,4.559,0,0,1,449.039,192.123Z" transform="translate(-215.266 -9.462)"/>
      <path id="Path_809" data-name="Path 809" class="cls-14" d="M401.751,257.794l-17.677-2.3L270.154,189.727c-3.657-2.1-10.024-1.829-14.223.61L175.2,236.866l-10.7-1.422v6.028h0a4.108,4.108,0,0,0,2.438,3.725l129.158,74.569c3.657,2.1,10.024,1.829,14.223-.61l87.911-50.729c2.371-1.355,3.59-3.116,3.454-4.809h0v-5.825Z" transform="translate(-164.456 -64.296)"/>
      <path id="Path_810" data-name="Path 810" class="cls-15" d="M316.142,227.273l-8.127-4.673H219.087L175.2,247.93l-10.7-1.422v6.028h0a4.108,4.108,0,0,0,2.438,3.725L296.094,330.83a13.519,13.519,0,0,0,7.382,1.355Z" transform="translate(-164.456 -75.36)"/>
      <path id="Path_811" data-name="Path 811" class="cls-18" d="M169.239,258.51l-4.741-.61v6.028h0a4.108,4.108,0,0,0,2.438,3.725l2.3,1.287Z" transform="translate(-164.456 -86.752)"/>
      <path id="Path_812" data-name="Path 812" class="cls-16" d="M360.7,376.523a16.81,16.81,0,0,0,12.123-.745V362.3H360.7Z" transform="translate(-227.775 -120.444)"/>
      <path id="Path_813" data-name="Path 813" class="cls-17" d="M296.084,308.929,166.926,234.36c-3.657-2.1-3.183-5.825,1.016-8.2l87.912-50.729c4.2-2.438,10.566-2.709,14.223-.61L399.234,249.4c3.657,2.1,3.183,5.825-1.016,8.2L310.307,308.32C306.108,310.758,299.741,311.029,296.084,308.929Z" transform="translate(-164.445 -59.487)"/>
      <path id="Path_814" data-name="Path 814" class="cls-17" d="M398.278,282.237l-87.911,50.729c-4.2,2.438-10.566,2.709-14.223.61L166.918,259.006a4.766,4.766,0,0,1-2.3-2.506c-.542,1.761.135,3.454,2.3,4.673l129.158,74.569c3.657,2.1,10.024,1.829,14.223-.61L398.211,284.4c2.845-1.625,4-3.861,3.319-5.757A6.981,6.981,0,0,1,398.278,282.237Z" transform="translate(-164.438 -86.3)"/>
      <g id="Group_159" data-name="Group 159" transform="translate(51.267 118.463)">
        <path id="Path_815" data-name="Path 815" class="cls-18" d="M246.274,222.841l-5.825-3.386c-.474-.271-.406-.745.135-1.084l6.908-4a1.952,1.952,0,0,1,1.829-.068l5.825,3.386c.474.271.406.745-.135,1.084l-6.908,4A1.952,1.952,0,0,1,246.274,222.841Z" transform="translate(-240.132 -191.084)"/>
        <path id="Path_816" data-name="Path 816" class="cls-18" d="M259.674,230.541l-5.825-3.386c-.474-.271-.406-.745.135-1.084l6.908-4a1.951,1.951,0,0,1,1.829-.068l5.825,3.386c.474.271.406.745-.135,1.084l-6.908,4A2.17,2.17,0,0,1,259.674,230.541Z" transform="translate(-244.456 -193.569)"/>
        <path id="Path_817" data-name="Path 817" class="cls-18" d="M272.974,238.241l-5.825-3.386c-.474-.271-.406-.745.135-1.084l6.908-4a1.952,1.952,0,0,1,1.829-.068l5.825,3.386c.474.271.406.745-.135,1.084l-6.908,4A2.17,2.17,0,0,1,272.974,238.241Z" transform="translate(-248.748 -196.054)"/>
        <path id="Path_818" data-name="Path 818" class="cls-18" d="M291.374,232.163l-5.825-3.386c-.474-.271-.406-.745.135-1.084l5.757-3.319a1.952,1.952,0,0,1,1.829-.068l5.825,3.386c.474.271.406.745-.135,1.084L293.2,232.1A1.951,1.951,0,0,1,291.374,232.163Z" transform="translate(-254.686 -194.311)"/>
        <path id="Path_819" data-name="Path 819" class="cls-18" d="M304.674,239.863l-5.825-3.386c-.474-.271-.406-.745.135-1.084l5.757-3.319a1.952,1.952,0,0,1,1.829-.068l5.825,3.386c.474.271.406.745-.135,1.084L306.5,239.8A1.951,1.951,0,0,1,304.674,239.863Z" transform="translate(-258.978 -196.796)"/>
        <path id="Path_820" data-name="Path 820" class="cls-18" d="M318.074,247.563l-5.825-3.386c-.474-.271-.406-.745.135-1.084l5.757-3.319a1.952,1.952,0,0,1,1.829-.068l5.825,3.386c.474.271.406.745-.135,1.084L319.9,247.5A1.954,1.954,0,0,1,318.074,247.563Z" transform="translate(-263.303 -199.281)"/>
        <path id="Path_821" data-name="Path 821" class="cls-18" d="M331.374,255.263l-5.825-3.386c-.474-.271-.406-.745.135-1.084l5.757-3.319a1.952,1.952,0,0,1,1.829-.068l5.825,3.386c.474.271.406.745-.135,1.084L333.2,255.2A1.951,1.951,0,0,1,331.374,255.263Z" transform="translate(-267.595 -201.766)"/>
        <path id="Path_822" data-name="Path 822" class="cls-18" d="M344.674,262.963l-5.825-3.386c-.474-.271-.406-.745.135-1.084l5.757-3.319a1.951,1.951,0,0,1,1.829-.068l5.825,3.386c.474.271.406.745-.135,1.084L346.5,262.9A1.951,1.951,0,0,1,344.674,262.963Z" transform="translate(-271.887 -204.251)"/>
        <path id="Path_823" data-name="Path 823" class="cls-18" d="M357.974,270.663l-5.825-3.386c-.474-.271-.406-.745.135-1.084l5.757-3.319a1.952,1.952,0,0,1,1.829-.068l5.825,3.386c.474.271.406.745-.135,1.084L359.8,270.6A2.17,2.17,0,0,1,357.974,270.663Z" transform="translate(-276.179 -206.735)"/>
        <path id="Path_824" data-name="Path 824" class="cls-18" d="M371.274,278.363l-5.825-3.386c-.474-.271-.406-.745.135-1.084l5.757-3.319a1.952,1.952,0,0,1,1.829-.068l5.825,3.386c.474.271.406.745-.135,1.084L373.1,278.3A2.169,2.169,0,0,1,371.274,278.363Z" transform="translate(-280.471 -209.22)"/>
        <path id="Path_825" data-name="Path 825" class="cls-18" d="M384.674,286.063l-5.825-3.386c-.474-.271-.406-.745.135-1.084l5.757-3.319a1.952,1.952,0,0,1,1.829-.068l5.825,3.386c.474.271.406.745-.135,1.084L386.5,286A2.17,2.17,0,0,1,384.674,286.063Z" transform="translate(-284.796 -211.705)"/>
        <path id="Path_826" data-name="Path 826" class="cls-18" d="M397.974,293.763l-5.825-3.386c-.474-.271-.406-.745.135-1.084l5.757-3.319a1.952,1.952,0,0,1,1.829-.068l5.825,3.386c.474.271.406.745-.136,1.084L399.8,293.7A2.17,2.17,0,0,1,397.974,293.763Z" transform="translate(-289.088 -214.19)"/>
        <path id="Path_827" data-name="Path 827" class="cls-18" d="M411.274,301.463l-5.825-3.386c-.474-.271-.406-.745.135-1.084l5.757-3.319a1.952,1.952,0,0,1,1.829-.068l5.825,3.386c.474.271.406.745-.135,1.084L413.1,301.4A2.169,2.169,0,0,1,411.274,301.463Z" transform="translate(-293.38 -216.675)"/>
        <path id="Path_828" data-name="Path 828" class="cls-18" d="M310.974,228.563l-5.825-3.386c-.474-.271-.406-.745.135-1.084l5.757-3.319a1.952,1.952,0,0,1,1.829-.068l5.825,3.386c.474.271.406.745-.135,1.084L312.8,228.5A2.17,2.17,0,0,1,310.974,228.563Z" transform="translate(-261.012 -193.149)"/>
        <path id="Path_829" data-name="Path 829" class="cls-18" d="M297.474,220.763l-5.825-3.386c-.474-.271-.406-.745.135-1.084l5.757-3.319a1.952,1.952,0,0,1,1.829-.068l5.825,3.386c.474.271.406.745-.135,1.084L299.3,220.7A2.17,2.17,0,0,1,297.474,220.763Z" transform="translate(-256.655 -190.632)"/>
        <path id="Path_830" data-name="Path 830" class="cls-18" d="M280.746,211.092l-12.6-7.315c-.474-.271-.406-.745.135-1.084l5.757-3.319a1.952,1.952,0,0,1,1.829-.068l12.6,7.247c.474.271.406.745-.135,1.084l-5.757,3.319A1.969,1.969,0,0,1,280.746,211.092Z" transform="translate(-249.071 -186.243)"/>
        <path id="Path_831" data-name="Path 831" class="cls-18" d="M291.276,202.269l-10.227-5.892c-.474-.271-.406-.745.135-1.084l5.757-3.319a1.952,1.952,0,0,1,1.829-.068L299,197.8c.474.271.406.745-.135,1.084L293.1,202.2A2.17,2.17,0,0,1,291.276,202.269Z" transform="translate(-253.234 -183.855)"/>
        <path id="Path_832" data-name="Path 832" class="cls-18" d="M324.374,236.263l-5.825-3.386c-.474-.271-.406-.745.135-1.084l5.757-3.319a1.952,1.952,0,0,1,1.829-.068l5.825,3.386c.474.271.406.745-.135,1.084L326.2,236.2A2.17,2.17,0,0,1,324.374,236.263Z" transform="translate(-265.336 -195.634)"/>
        <path id="Path_833" data-name="Path 833" class="cls-18" d="M337.674,243.963l-5.825-3.386c-.474-.271-.406-.745.135-1.084l5.757-3.319a1.951,1.951,0,0,1,1.829-.068l5.825,3.386c.474.271.406.745-.135,1.084L339.5,243.9A2.17,2.17,0,0,1,337.674,243.963Z" transform="translate(-269.628 -198.119)"/>
        <path id="Path_834" data-name="Path 834" class="cls-18" d="M350.974,251.663l-5.825-3.386c-.474-.271-.406-.745.135-1.084l5.757-3.319a1.952,1.952,0,0,1,1.829-.068l5.825,3.386c.474.271.406.745-.135,1.084L352.8,251.6A2.17,2.17,0,0,1,350.974,251.663Z" transform="translate(-273.92 -200.604)"/>
        <path id="Path_835" data-name="Path 835" class="cls-18" d="M364.274,259.363l-5.825-3.386c-.474-.271-.406-.745.135-1.084l5.757-3.319a1.952,1.952,0,0,1,1.829-.068l5.825,3.386c.474.271.406.745-.135,1.084L366.1,259.3A2.17,2.17,0,0,1,364.274,259.363Z" transform="translate(-278.212 -203.089)"/>
        <path id="Path_836" data-name="Path 836" class="cls-18" d="M377.574,267.063l-5.825-3.386c-.474-.271-.406-.745.135-1.084l5.757-3.319a1.952,1.952,0,0,1,1.829-.068l5.825,3.386c.474.271.406.745-.135,1.084L379.4,267A2.17,2.17,0,0,1,377.574,267.063Z" transform="translate(-282.504 -205.574)"/>
        <path id="Path_837" data-name="Path 837" class="cls-18" d="M390.974,274.663l-5.825-3.386c-.474-.271-.406-.745.135-1.084l5.757-3.319a1.951,1.951,0,0,1,1.829-.068l5.825,3.386c.474.271.406.745-.135,1.084L392.8,274.6A1.951,1.951,0,0,1,390.974,274.663Z" transform="translate(-286.829 -208.026)"/>
        <path id="Path_838" data-name="Path 838" class="cls-18" d="M404.274,282.363l-5.825-3.386c-.474-.271-.406-.745.135-1.084l5.757-3.319a1.952,1.952,0,0,1,1.829-.068l5.825,3.386c.474.271.406.745-.135,1.084L406.1,282.3A1.951,1.951,0,0,1,404.274,282.363Z" transform="translate(-291.121 -210.511)"/>
        <path id="Path_839" data-name="Path 839" class="cls-18" d="M417.574,290.063l-5.825-3.386c-.474-.271-.406-.745.135-1.084l5.757-3.319a1.952,1.952,0,0,1,1.829-.068l5.825,3.386c.474.271.406.745-.135,1.084L419.4,290A1.951,1.951,0,0,1,417.574,290.063Z" transform="translate(-295.413 -212.996)"/>
        <path id="Path_840" data-name="Path 840" class="cls-18" d="M430.874,297.763l-5.825-3.386c-.474-.271-.406-.745.135-1.084l5.757-3.319a1.952,1.952,0,0,1,1.829-.068l5.825,3.386c.474.271.406.745-.135,1.084L432.7,297.7A1.951,1.951,0,0,1,430.874,297.763Z" transform="translate(-299.705 -215.481)"/>
        <path id="Path_841" data-name="Path 841" class="cls-18" d="M451.282,309.559l-12.733-7.382c-.474-.271-.406-.745.135-1.084l5.757-3.319a1.952,1.952,0,0,1,1.829-.068L459,305.089c.474.271.406.745-.135,1.084l-5.757,3.319A2.169,2.169,0,0,1,451.282,309.559Z" transform="translate(-304.062 -217.998)"/>
        <path id="Path_842" data-name="Path 842" class="cls-18" d="M478.218,295.108l-10.769-6.231c-.474-.271-.406-.745.135-1.084l5.757-3.319a1.952,1.952,0,0,1,1.829-.068l10.769,6.231c.474.271.406.745-.135,1.084l-5.757,3.319A1.954,1.954,0,0,1,478.218,295.108Z" transform="translate(-313.388 -213.706)"/>
        <path id="Path_843" data-name="Path 843" class="cls-18" d="M347.674,234.763l-5.825-3.386c-.474-.271-.406-.745.135-1.084l5.757-3.319a1.952,1.952,0,0,1,1.829-.068l5.825,3.386c.474.271.406.745-.135,1.084L349.5,234.7A2.17,2.17,0,0,1,347.674,234.763Z" transform="translate(-272.855 -195.15)"/>
        <path id="Path_844" data-name="Path 844" class="cls-18" d="M333.974,226.863l-5.825-3.386c-.474-.271-.406-.745.135-1.084l5.757-3.319a1.951,1.951,0,0,1,1.829-.068l5.825,3.386c.474.271.406.745-.135,1.084L335.8,226.8A2.17,2.17,0,0,1,333.974,226.863Z" transform="translate(-268.434 -192.601)"/>
        <path id="Path_845" data-name="Path 845" class="cls-18" d="M320.374,218.963l-5.825-3.386c-.474-.271-.406-.745.135-1.084l5.757-3.319a1.951,1.951,0,0,1,1.829-.068l5.825,3.386c.474.271.406.745-.135,1.084L322.2,218.9A1.952,1.952,0,0,1,320.374,218.963Z" transform="translate(-264.045 -190.051)"/>
        <path id="Path_846" data-name="Path 846" class="cls-18" d="M306.674,211.063l-5.825-3.386c-.474-.271-.406-.745.135-1.084l5.757-3.319a1.952,1.952,0,0,1,1.829-.068l5.825,3.386c.474.271.406.745-.135,1.084L308.5,211A1.952,1.952,0,0,1,306.674,211.063Z" transform="translate(-259.624 -187.502)"/>
        <path id="Path_847" data-name="Path 847" class="cls-18" d="M360.974,242.463l-5.825-3.386c-.474-.271-.406-.745.135-1.084l5.757-3.319a1.952,1.952,0,0,1,1.829-.068l5.825,3.386c.474.271.406.745-.135,1.084L362.8,242.4A2.17,2.17,0,0,1,360.974,242.463Z" transform="translate(-277.147 -197.635)"/>
        <path id="Path_848" data-name="Path 848" class="cls-18" d="M374.274,250.163l-5.825-3.386c-.474-.271-.406-.745.135-1.084l5.757-3.319a1.952,1.952,0,0,1,1.829-.068l5.825,3.386c.474.271.406.745-.135,1.084L376.1,250.1A2.17,2.17,0,0,1,374.274,250.163Z" transform="translate(-281.439 -200.12)"/>
        <path id="Path_849" data-name="Path 849" class="cls-18" d="M387.674,257.863l-5.825-3.386c-.474-.271-.406-.745.135-1.084l5.757-3.319a1.952,1.952,0,0,1,1.829-.068l5.825,3.386c.474.271.406.745-.135,1.084L389.5,257.8A2.174,2.174,0,0,1,387.674,257.863Z" transform="translate(-285.764 -202.605)"/>
        <path id="Path_850" data-name="Path 850" class="cls-18" d="M400.974,265.463l-5.825-3.386c-.474-.271-.406-.745.135-1.084l5.757-3.319a1.952,1.952,0,0,1,1.829-.068l5.825,3.386c.474.271.406.745-.135,1.084L402.8,265.4A1.951,1.951,0,0,1,400.974,265.463Z" transform="translate(-290.056 -205.057)"/>
        <path id="Path_851" data-name="Path 851" class="cls-18" d="M414.274,273.163l-5.825-3.386c-.474-.271-.406-.745.135-1.084l5.757-3.319a1.952,1.952,0,0,1,1.829-.068l5.825,3.386c.474.271.406.745-.135,1.084L416.1,273.1A1.952,1.952,0,0,1,414.274,273.163Z" transform="translate(-294.348 -207.542)"/>
        <path id="Path_852" data-name="Path 852" class="cls-18" d="M427.574,280.863l-5.825-3.386c-.474-.271-.406-.745.135-1.084l5.757-3.319a1.952,1.952,0,0,1,1.829-.068l5.825,3.386c.474.271.406.745-.135,1.084L429.4,280.8A1.952,1.952,0,0,1,427.574,280.863Z" transform="translate(-298.64 -210.027)"/>
        <path id="Path_853" data-name="Path 853" class="cls-18" d="M440.874,288.563l-5.825-3.386c-.474-.271-.406-.745.135-1.084l5.757-3.319a1.952,1.952,0,0,1,1.829-.068l5.825,3.386c.474.271.406.745-.135,1.084L442.7,288.5A1.952,1.952,0,0,1,440.874,288.563Z" transform="translate(-302.932 -212.512)"/>
        <path id="Path_854" data-name="Path 854" class="cls-18" d="M454.274,296.263l-5.825-3.386c-.474-.271-.406-.745.135-1.084l5.757-3.319a1.952,1.952,0,0,1,1.829-.068l5.825,3.386c.474.271.406.745-.135,1.084L456.1,296.2A1.951,1.951,0,0,1,454.274,296.263Z" transform="translate(-307.257 -214.997)"/>
        <path id="Path_855" data-name="Path 855" class="cls-18" d="M467.574,303.963l-5.825-3.386c-.474-.271-.406-.745.135-1.084l5.757-3.319a1.951,1.951,0,0,1,1.829-.068l5.825,3.386c.474.271.406.745-.135,1.084L469.4,303.9A1.951,1.951,0,0,1,467.574,303.963Z" transform="translate(-311.549 -217.482)"/>
        <path id="Path_856" data-name="Path 856" class="cls-18" d="M340.674,215.763l-5.825-3.386c-.474-.271-.406-.745.135-1.084l5.757-3.319a1.951,1.951,0,0,1,1.829-.068l5.825,3.386c.474.271.406.745-.135,1.084L342.5,215.7A2.17,2.17,0,0,1,340.674,215.763Z" transform="translate(-270.596 -189.018)"/>
        <path id="Path_857" data-name="Path 857" class="cls-18" d="M327.374,208.063l-5.825-3.386c-.474-.271-.406-.745.135-1.084l5.757-3.319a1.952,1.952,0,0,1,1.829-.068l5.825,3.386c.474.271.406.745-.135,1.084L329.2,208A1.951,1.951,0,0,1,327.374,208.063Z" transform="translate(-266.304 -186.533)"/>
        <path id="Path_858" data-name="Path 858" class="cls-18" d="M314.174,200.363l-5.825-3.386c-.474-.271-.406-.745.135-1.084l5.757-3.319a1.951,1.951,0,0,1,1.829-.068l5.825,3.386c.474.271.406.745-.135,1.084L316,200.3A1.951,1.951,0,0,1,314.174,200.363Z" transform="translate(-262.044 -184.049)"/>
        <path id="Path_859" data-name="Path 859" class="cls-18" d="M300.874,192.763l-5.825-3.386c-.474-.271-.406-.745.135-1.084l5.757-3.319a1.952,1.952,0,0,1,1.829-.068l5.825,3.386c.474.271.406.745-.135,1.084L302.7,192.7A2.17,2.17,0,0,1,300.874,192.763Z" transform="translate(-257.752 -181.596)"/>
        <path id="Path_860" data-name="Path 860" class="cls-18" d="M314.474,185.928l-5.825-3.386c-.474-.271-.406-.745.135-1.084l1.9-1.084a1.952,1.952,0,0,1,1.829-.068l5.825,3.386c.474.271.406.745-.135,1.084l-1.9,1.084A1.951,1.951,0,0,1,314.474,185.928Z" transform="translate(-262.141 -180.111)"/>
        <path id="Path_861" data-name="Path 861" class="cls-18" d="M331.774,195.928l-5.825-3.386c-.474-.271-.406-.745.135-1.084l1.9-1.084a1.952,1.952,0,0,1,1.829-.068l5.825,3.386c.474.271.406.745-.135,1.084l-1.9,1.084A1.952,1.952,0,0,1,331.774,195.928Z" transform="translate(-267.724 -183.339)"/>
        <path id="Path_862" data-name="Path 862" class="cls-18" d="M344.974,203.528l-5.825-3.386c-.474-.271-.406-.745.135-1.084l1.9-1.084a1.951,1.951,0,0,1,1.829-.068l5.825,3.386c.474.271.406.745-.135,1.084l-1.9,1.084A1.952,1.952,0,0,1,344.974,203.528Z" transform="translate(-271.984 -185.791)"/>
        <path id="Path_863" data-name="Path 863" class="cls-18" d="M358.174,211.228l-5.825-3.386c-.474-.271-.406-.745.135-1.084l1.9-1.084a1.951,1.951,0,0,1,1.829-.068l5.825,3.386c.474.271.406.745-.135,1.084l-1.9,1.084A2.17,2.17,0,0,1,358.174,211.228Z" transform="translate(-276.244 -188.276)"/>
        <path id="Path_864" data-name="Path 864" class="cls-18" d="M371.374,218.828l-5.825-3.386c-.474-.271-.406-.745.135-1.084l1.9-1.084a1.952,1.952,0,0,1,1.829-.068l5.825,3.386c.474.271.406.745-.135,1.084l-1.9,1.084A2.17,2.17,0,0,1,371.374,218.828Z" transform="translate(-280.504 -190.729)"/>
        <path id="Path_865" data-name="Path 865" class="cls-18" d="M445.074,261.328l-5.825-3.386c-.474-.271-.406-.745.135-1.084l1.9-1.084a1.951,1.951,0,0,1,1.829-.068l5.825,3.386c.474.271.406.745-.135,1.084l-1.9,1.084A1.952,1.952,0,0,1,445.074,261.328Z" transform="translate(-304.288 -204.444)"/>
        <path id="Path_866" data-name="Path 866" class="cls-18" d="M458.274,268.928l-5.825-3.386c-.474-.271-.406-.745.135-1.084l1.9-1.084a1.952,1.952,0,0,1,1.829-.068l5.825,3.386c.474.271.406.745-.135,1.084l-1.9,1.084A1.952,1.952,0,0,1,458.274,268.928Z" transform="translate(-308.548 -206.897)"/>
        <path id="Path_867" data-name="Path 867" class="cls-18" d="M471.474,276.628l-5.825-3.386c-.474-.271-.406-.745.135-1.084l1.9-1.084a1.952,1.952,0,0,1,1.829-.068l5.825,3.386c.474.271.406.745-.135,1.084l-1.9,1.084A2.17,2.17,0,0,1,471.474,276.628Z" transform="translate(-312.807 -209.382)"/>
        <path id="Path_868" data-name="Path 868" class="cls-18" d="M484.674,284.228l-5.825-3.386c-.474-.271-.406-.745.135-1.084l1.9-1.084a1.952,1.952,0,0,1,1.829-.068l5.825,3.386c.474.271.406.745-.135,1.084l-1.9,1.084A2.17,2.17,0,0,1,484.674,284.228Z" transform="translate(-317.067 -211.834)"/>
        <path id="Path_869" data-name="Path 869" class="cls-18" d="M353.974,223.363l-5.825-3.386c-.474-.271-.406-.745.135-1.084l5.757-3.319a1.951,1.951,0,0,1,1.829-.068l5.825,3.386c.474.271.406.745-.135,1.084L355.8,223.3A1.952,1.952,0,0,1,353.974,223.363Z" transform="translate(-274.888 -191.471)"/>
        <path id="Path_870" data-name="Path 870" class="cls-18" d="M367.274,231.063l-5.825-3.386c-.474-.271-.406-.745.135-1.084l5.757-3.319a1.952,1.952,0,0,1,1.829-.068l5.825,3.386c.474.271.406.745-.135,1.084L369.1,231A1.951,1.951,0,0,1,367.274,231.063Z" transform="translate(-279.18 -193.956)"/>
        <path id="Path_871" data-name="Path 871" class="cls-18" d="M380.574,238.763l-5.825-3.386c-.474-.271-.406-.745.135-1.084l5.757-3.319a1.951,1.951,0,0,1,1.829-.068l5.825,3.386c.474.271.406.745-.135,1.084L382.4,238.7A1.952,1.952,0,0,1,380.574,238.763Z" transform="translate(-283.473 -196.441)"/>
        <path id="Path_872" data-name="Path 872" class="cls-18" d="M393.974,246.463l-5.825-3.386c-.474-.271-.406-.745.135-1.084l5.757-3.319a1.951,1.951,0,0,1,1.829-.068l5.825,3.386c.474.271.406.745-.135,1.084L395.8,246.4A1.952,1.952,0,0,1,393.974,246.463Z" transform="translate(-287.797 -198.926)"/>
        <path id="Path_873" data-name="Path 873" class="cls-18" d="M407.274,254.163l-5.825-3.386c-.474-.271-.406-.745.135-1.084l5.757-3.319a1.952,1.952,0,0,1,1.829-.068l5.825,3.386c.474.271.406.745-.135,1.084L409.1,254.1A1.952,1.952,0,0,1,407.274,254.163Z" transform="translate(-292.089 -201.411)"/>
        <path id="Path_874" data-name="Path 874" class="cls-18" d="M420.574,261.863l-5.825-3.386c-.474-.271-.406-.745.135-1.084l5.757-3.319a1.952,1.952,0,0,1,1.829-.068l5.825,3.386c.474.271.406.745-.135,1.084L422.4,261.8A1.952,1.952,0,0,1,420.574,261.863Z" transform="translate(-296.381 -203.896)"/>
        <path id="Path_875" data-name="Path 875" class="cls-18" d="M433.874,269.563l-5.825-3.386c-.474-.271-.406-.745.135-1.084l5.757-3.319a1.952,1.952,0,0,1,1.829-.068l5.825,3.386c.474.271.406.745-.135,1.084L435.7,269.5A2.17,2.17,0,0,1,433.874,269.563Z" transform="translate(-300.673 -206.38)"/>
        <path id="Path_876" data-name="Path 876" class="cls-18" d="M447.174,277.263l-5.825-3.386c-.474-.271-.406-.745.135-1.084l5.757-3.319a1.952,1.952,0,0,1,1.829-.068l5.825,3.386c.474.271.406.745-.135,1.084L449,277.2A2.163,2.163,0,0,1,447.174,277.263Z" transform="translate(-304.965 -208.865)"/>
        <path id="Path_877" data-name="Path 877" class="cls-18" d="M460.574,284.963l-5.825-3.386c-.474-.271-.406-.745.135-1.084l5.757-3.319a1.952,1.952,0,0,1,1.829-.068l5.825,3.386c.474.271.406.745-.135,1.084L462.4,284.9A2.17,2.17,0,0,1,460.574,284.963Z" transform="translate(-309.29 -211.35)"/>
        <path id="Path_878" data-name="Path 878" class="cls-18" d="M272.352,221.233l-17.2-9.956c-.474-.271-.406-.745.135-1.084l5.757-3.319a1.951,1.951,0,0,1,1.829-.068l17.2,9.956c.474.271.406.745-.135,1.084l-5.757,3.319A2.17,2.17,0,0,1,272.352,221.233Z" transform="translate(-244.876 -188.663)"/>
        <path id="Path_879" data-name="Path 879" class="cls-18" d="M436.052,315.733l-17.2-9.956c-.474-.271-.406-.745.135-1.084l5.757-3.319a1.951,1.951,0,0,1,1.829-.068l17.2,9.956c.474.271.406.745-.135,1.084l-5.757,3.319A2.17,2.17,0,0,1,436.052,315.733Z" transform="translate(-297.704 -219.16)"/>
        <path id="Path_880" data-name="Path 880" class="cls-18" d="M388.174,304.741l-5.825-3.386c-.474-.271-.406-.745.135-1.084l6.908-4a1.952,1.952,0,0,1,1.829-.068l5.825,3.386c.474.271.406.745-.135,1.084l-6.908,4A1.952,1.952,0,0,1,388.174,304.741Z" transform="translate(-285.925 -217.514)"/>
        <path id="Path_881" data-name="Path 881" class="cls-18" d="M289.8,247.973l-9.347-5.418c-.474-.271-.406-.745.135-1.084l6.908-4a1.952,1.952,0,0,1,1.829-.068l9.347,5.418c.474.271.406.745-.135,1.084l-6.908,4A2.17,2.17,0,0,1,289.8,247.973Z" transform="translate(-253.04 -198.539)"/>
        <path id="Path_882" data-name="Path 882" class="cls-18" d="M373.7,296.372l-9.347-5.418c-.474-.271-.406-.745.135-1.084l6.908-4a1.952,1.952,0,0,1,1.829-.068l9.347,5.418c.474.271.406.745-.135,1.084l-6.908,4A1.951,1.951,0,0,1,373.7,296.372Z" transform="translate(-280.116 -214.158)"/>
        <path id="Path_883" data-name="Path 883" class="cls-18" d="M309,259.073l-9.347-5.418c-.474-.271-.406-.745.135-1.084l6.908-4a1.952,1.952,0,0,1,1.829-.068l9.347,5.418c.474.271.406.745-.135,1.084l-6.908,4A2.17,2.17,0,0,1,309,259.073Z" transform="translate(-259.237 -202.121)"/>
        <path id="Path_884" data-name="Path 884" class="cls-18" d="M308.772,248.7l40.637,23.434c.474.271.474.745,0,1.084l-7.044,4.064a2.159,2.159,0,0,1-1.829,0L299.9,253.847Z" transform="translate(-259.42 -202.246)"/>
        <path id="Path_885" data-name="Path 885" class="cls-18" d="M426.143,322.818l6.5,3.725c.406.2.339.61-.135.88l-2.845,1.625a1.661,1.661,0,0,1-1.49.068l-6.5-3.725c-.406-.2-.339-.61.135-.88l2.845-1.625A1.471,1.471,0,0,1,426.143,322.818Z" transform="translate(-298.632 -226.109)"/>
        <path id="Path_886" data-name="Path 886" class="cls-18" d="M412.643,315.031l6.5,3.725c.406.2.339.61-.135.88l-2.845,1.625a1.661,1.661,0,0,1-1.49.068l-6.5-3.725c-.406-.2-.339-.61.135-.88l2.845-1.625A1.665,1.665,0,0,1,412.643,315.031Z" transform="translate(-294.275 -223.605)"/>
        <path id="Path_887" data-name="Path 887" class="cls-18" d="M399.343,307.331l6.5,3.725c.406.2.339.61-.135.88l-2.845,1.626a1.661,1.661,0,0,1-1.49.068l-6.5-3.725c-.406-.2-.339-.61.135-.88l2.845-1.625A1.655,1.655,0,0,1,399.343,307.331Z" transform="translate(-289.983 -221.12)"/>
        <path id="Path_888" data-name="Path 888" class="cls-18" d="M420.043,310.818l6.5,3.725c.406.2.339.61-.135.88l-2.845,1.625a1.662,1.662,0,0,1-1.49.068l-6.5-3.725c-.406-.2-.339-.61.135-.88l2.845-1.625A1.472,1.472,0,0,1,420.043,310.818Z" transform="translate(-296.663 -222.237)"/>
      </g>
      <path id="Path_889" data-name="Path 889" class="cls-17" d="M288.527,305.575l-40.3-23.231c-1.151-.677-1.016-1.829.339-2.641l24.315-14.02a5.051,5.051,0,0,1,4.605-.2l40.3,23.231c1.151.677,1.016,1.829-.339,2.641l-24.315,14.02A5.052,5.052,0,0,1,288.527,305.575Z" transform="translate(-191.227 -89.049)"/>
    </g>
    <g id="Group_177" data-name="Group 177" class="cls-19" transform="translate(263.193 18.964)">
      <g id="Group_176" data-name="Group 176" class="cls-20">
        <g id="Group_165" data-name="Group 165" transform="translate(-34.474 23.231)">
          <g id="Group_161" data-name="Group 161" transform="translate(0 66.374)">
            <path id="Path_890" data-name="Path 890" class="cls-17" d="M413.15,168.554c2.777,1.625,2.777,4.2,0,5.825l-47.139,27.227a2.889,2.889,0,0,1-2.777,0,.87.87,0,0,1,0-1.625l47.207-27.227a1.411,1.411,0,0,0,0-2.641l-4.538-2.641a27.434,27.434,0,0,0,1.422-2.37Z" transform="translate(-345.76 -161.849)"/>
            <path id="Path_891" data-name="Path 891" class="cls-18" d="M338.31,188.746l47.207-27.227a11.052,11.052,0,0,1,10.092,0l3.657,2.1a27.44,27.44,0,0,1-1.422,2.37l-5.012-2.912a4.886,4.886,0,0,0-4.538,0L341.086,190.3a2.888,2.888,0,0,1-2.777,0C337.5,189.9,337.5,189.152,338.31,188.746Z" transform="translate(-337.7 -160.3)"/>
          </g>
          <path id="Path_892" data-name="Path 892" class="cls-18" d="M337.7,158.546V92.24l49.442-27.565,6.908-.474,6.705,4.335,4.131,3.59-48.223,76.4-15.713,9.211Z" transform="translate(-337.7 -62.913)"/>
          <path id="Path_893" data-name="Path 893" class="cls-18" d="M357.665,181.273,342.9,172.739V108.6l15.239,7.111Z" transform="translate(-339.378 -77.242)"/>
          <path id="Path_894" data-name="Path 894" class="cls-17" d="M415.225,76.6v66.238l-51.88,29.733-.745-.339V105.926Z" transform="translate(-345.736 -66.915)"/>
          <g id="Group_162" data-name="Group 162" transform="translate(3.454 3.985)">
            <path id="Path_895" data-name="Path 895" class="cls-17" d="M379.644,74.493,389.939,68.6a4.948,4.948,0,0,1,4.267.135l9.55,5.554a1.42,1.42,0,0,1,.88,1.558L378.561,91.425l-20.928,12.868-14.833-8.6Z" transform="translate(-342.8 -68.183)"/>
          </g>
          <path id="Path_896" data-name="Path 896" class="cls-18" d="M364.529,118.4v68.541a2.594,2.594,0,0,1-1.287-.339.842.842,0,0,1-.542-.813h0V119.484Z" transform="translate(-345.768 -80.404)"/>
          <path id="Path_897" data-name="Path 897" class="cls-17" d="M337.7,106.413V105.6h.271l.068.542Z" transform="translate(-337.7 -76.274)"/>
          <path id="Path_898" data-name="Path 898" class="cls-17" d="M362.7,120.78v-.88l.2.406Z" transform="translate(-345.768 -80.888)"/>
          <g id="Group_163" data-name="Group 163" transform="translate(0.051)">
            <path id="Path_899" data-name="Path 899" class="cls-17" d="M357.975,102.124,405.182,74.9c2.777-1.625,2.777-4.2,0-5.825l-9.55-5.554a11.052,11.052,0,0,0-10.092,0L338.334,90.746a.87.87,0,0,0,0,1.625,2.889,2.889,0,0,0,2.777,0l47.207-27.227a4.886,4.886,0,0,1,4.538,0L402.4,70.7a1.411,1.411,0,0,1,0,2.641L355.2,100.567a.87.87,0,0,0,0,1.625A3.6,3.6,0,0,0,357.975,102.124Z" transform="translate(-337.775 -62.3)"/>
          </g>
          <path id="Path_900" data-name="Path 900" class="cls-17" d="M385.7,148.973l24.518-14.155V110.3L385.7,124.455Z" transform="translate(-353.19 -77.79)"/>
          <g id="Group_164" data-name="Group 164" transform="translate(0.022 2.286)">
            <path id="Path_901" data-name="Path 901" class="cls-17" d="M338.32,93.461a2.889,2.889,0,0,0,2.777,0L388.3,66.234a4.886,4.886,0,0,1,4.538,0l9.55,5.554c.813.474,1.084,1.151.813,1.761a1.986,1.986,0,0,0-.813-.88l-9.617-5.554a4.886,4.886,0,0,0-4.538,0L341.1,94.341a2.889,2.889,0,0,1-2.777,0c-.61-.339-.745-.813-.406-1.219C337.981,93.257,338.117,93.325,338.32,93.461Z" transform="translate(-337.732 -65.675)"/>
            <path id="Path_902" data-name="Path 902" class="cls-17" d="M363.22,106.965a2.889,2.889,0,0,0,2.777,0L413.2,79.738a3.618,3.618,0,0,0,2.032-2.438c.2,1.219-.474,2.438-2.032,3.319L366,107.846a2.888,2.888,0,0,1-2.777,0c-.61-.339-.745-.813-.406-1.219A2.579,2.579,0,0,0,363.22,106.965Z" transform="translate(-345.768 -69.427)"/>
          </g>
        </g>
        <g id="Group_170" data-name="Group 170" transform="translate(-12.847 36.032)">
          <g id="Group_166" data-name="Group 166" transform="translate(0.097 66.374)">
            <path id="Path_903" data-name="Path 903" class="cls-21" d="M445.217,187.554c2.777,1.625,2.777,4.2,0,5.825l-47.207,27.227a2.889,2.889,0,0,1-2.777,0,.87.87,0,0,1,0-1.625l47.207-27.227a1.411,1.411,0,0,0,0-2.641l-4.538-2.641a27.438,27.438,0,0,0,1.422-2.37Z" transform="translate(-377.811 -180.781)"/>
            <path id="Path_904" data-name="Path 904" class="cls-21" d="M370.334,207.646l47.207-27.227a11.051,11.051,0,0,1,10.092,0l3.657,2.1a27.435,27.435,0,0,1-1.422,2.37l-5.012-2.912a4.886,4.886,0,0,0-4.538,0L373.111,209.2a2.889,2.889,0,0,1-2.777,0C369.589,208.8,369.589,208.12,370.334,207.646Z" transform="translate(-369.775 -179.2)"/>
          </g>
          <path id="Path_905" data-name="Path 905" class="cls-21" d="M369.8,177.546V111.172l49.374-27.565,6.976-.406,6.637,4.335,4.131,3.522-48.155,76.4-15.781,9.279Z" transform="translate(-369.686 -81.845)"/>
          <path id="Path_906" data-name="Path 906" class="cls-22" d="M389.733,200.273,374.9,191.739V127.6l15.239,7.111Z" transform="translate(-371.332 -96.174)"/>
          <path id="Path_907" data-name="Path 907" class="cls-21" d="M447.257,95.6v66.238L395.377,191.5l-.677-.271V124.926Z" transform="translate(-377.722 -85.847)"/>
          <g id="Group_167" data-name="Group 167" transform="translate(3.5 3.985)">
            <path id="Path_908" data-name="Path 908" class="cls-17" d="M411.644,93.393,421.939,87.5a4.948,4.948,0,0,1,4.267.135l9.55,5.554a1.42,1.42,0,0,1,.88,1.558l-26.075,15.578-20.928,12.868-14.833-8.6Z" transform="translate(-374.8 -87.083)"/>
          </g>
          <path id="Path_909" data-name="Path 909" class="cls-21" d="M396.529,137.3v68.541a2.594,2.594,0,0,1-1.287-.339.842.842,0,0,1-.542-.813h0V138.384Z" transform="translate(-377.722 -99.304)"/>
          <path id="Path_910" data-name="Path 910" class="cls-17" d="M369.8,125.38v-.88h.2l.135.61Z" transform="translate(-369.686 -95.174)"/>
          <path id="Path_911" data-name="Path 911" class="cls-17" d="M394.7,139.713V138.9l.2.339Z" transform="translate(-377.722 -99.821)"/>
          <g id="Group_168" data-name="Group 168" transform="translate(0.097)">
            <path id="Path_912" data-name="Path 912" class="cls-21" d="M389.975,121.024,437.182,93.8c2.777-1.625,2.777-4.2,0-5.825l-9.55-5.554a11.051,11.051,0,0,0-10.092,0l-47.207,27.227a.87.87,0,0,0,0,1.625,2.889,2.889,0,0,0,2.777,0l47.207-27.227a4.886,4.886,0,0,1,4.538,0L434.4,89.6a1.411,1.411,0,0,1,0,2.641L387.2,119.467a.87.87,0,0,0,0,1.625A3.087,3.087,0,0,0,389.975,121.024Z" transform="translate(-369.775 -81.2)"/>
          </g>
          <path id="Path_913" data-name="Path 913" class="cls-17" d="M417.7,167.941l24.518-14.155V129.2L417.7,143.355Z" transform="translate(-385.144 -96.69)"/>
          <g id="Group_169" data-name="Group 169" transform="translate(0 2.354)">
            <path id="Path_914" data-name="Path 914" class="cls-17" d="M370.288,112.461a2.889,2.889,0,0,0,2.777,0l47.207-27.227a4.886,4.886,0,0,1,4.538,0l9.55,5.554c.813.474,1.084,1.151.813,1.761a1.986,1.986,0,0,0-.813-.88l-9.617-5.621a4.886,4.886,0,0,0-4.538,0L373,113.273a2.889,2.889,0,0,1-2.777,0c-.61-.339-.745-.813-.406-1.219A2.946,2.946,0,0,0,370.288,112.461Z" transform="translate(-369.632 -84.675)"/>
            <path id="Path_915" data-name="Path 915" class="cls-17" d="M395.22,125.865a2.889,2.889,0,0,0,2.777,0L445.2,98.638a3.618,3.618,0,0,0,2.032-2.438c.2,1.219-.474,2.438-2.032,3.319L398,126.746a2.889,2.889,0,0,1-2.777,0c-.61-.339-.745-.813-.406-1.219A.694.694,0,0,0,395.22,125.865Z" transform="translate(-377.7 -88.394)"/>
          </g>
        </g>
        <g id="Group_175" data-name="Group 175" transform="translate(9.504 49.78)">
          <g id="Group_171" data-name="Group 171" transform="translate(0.029 66.374)">
            <path id="Path_916" data-name="Path 916" class="cls-17" d="M478.117,207.754c2.777,1.625,2.777,4.2,0,5.825l-47.207,27.227a2.889,2.889,0,0,1-2.777,0,.87.87,0,0,1,0-1.625l47.207-27.227a1.411,1.411,0,0,0,0-2.641l-4.538-2.641a27.441,27.441,0,0,0,1.422-2.37Z" transform="translate(-410.711 -201.049)"/>
            <path id="Path_917" data-name="Path 917" class="cls-18" d="M403.234,227.946l47.207-27.227a11.051,11.051,0,0,1,10.092,0l3.657,2.1a27.439,27.439,0,0,1-1.422,2.37l-5.012-2.912a4.886,4.886,0,0,0-4.538,0L406.011,229.5a2.888,2.888,0,0,1-2.777,0A.822.822,0,0,1,403.234,227.946Z" transform="translate(-402.675 -199.5)"/>
          </g>
          <path id="Path_918" data-name="Path 918" class="cls-18" d="M402.7,197.746V131.44l49.442-27.565,6.908-.474,6.637,4.335,4.131,3.59-48.155,76.4L405.951,197Z" transform="translate(-402.654 -102.113)"/>
          <path id="Path_919" data-name="Path 919" class="cls-18" d="M422.633,220.5,407.8,211.971V147.9l15.239,7.044Z" transform="translate(-404.3 -116.474)"/>
          <path id="Path_920" data-name="Path 920" class="cls-17" d="M480.157,115.9v66.171L428.277,211.8l-.677-.271V145.159Z" transform="translate(-410.69 -106.147)"/>
          <g id="Group_172" data-name="Group 172" transform="translate(3.432 3.985)">
            <path id="Path_921" data-name="Path 921" class="cls-17" d="M444.544,113.693l10.295-5.892a4.948,4.948,0,0,1,4.267.135l9.55,5.554a1.42,1.42,0,0,1,.88,1.558l-26.075,15.578-20.928,12.868-14.833-8.6Z" transform="translate(-407.7 -107.383)"/>
          </g>
          <path id="Path_922" data-name="Path 922" class="cls-18" d="M429.429,157.6v68.541a2.594,2.594,0,0,1-1.287-.339.842.842,0,0,1-.542-.813h0V158.684Z" transform="translate(-410.69 -119.604)"/>
          <path id="Path_923" data-name="Path 923" class="cls-17" d="M402.7,145.613V144.8h.2l.135.542Z" transform="translate(-402.654 -115.474)"/>
          <path id="Path_924" data-name="Path 924" class="cls-17" d="M427.6,160.013V159.2l.271.339Z" transform="translate(-410.69 -120.121)"/>
          <g id="Group_173" data-name="Group 173" transform="translate(0.029)">
            <path id="Path_925" data-name="Path 925" class="cls-17" d="M422.875,141.324,470.082,114.1c2.777-1.625,2.777-4.2,0-5.825l-9.55-5.554a11.051,11.051,0,0,0-10.092,0l-47.207,27.227a.87.87,0,0,0,0,1.625,2.889,2.889,0,0,0,2.777,0l47.207-27.227a4.886,4.886,0,0,1,4.538,0l9.55,5.554a1.411,1.411,0,0,1,0,2.641L420.1,139.767a.87.87,0,0,0,0,1.625A3.593,3.593,0,0,0,422.875,141.324Z" transform="translate(-402.675 -101.5)"/>
          </g>
          <path id="Path_926" data-name="Path 926" class="cls-17" d="M450.7,188.241l24.45-14.155V149.5L450.7,163.655Z" transform="translate(-418.144 -116.99)"/>
          <g id="Group_174" data-name="Group 174" transform="translate(0 2.286)">
            <path id="Path_927" data-name="Path 927" class="cls-17" d="M403.22,132.661a2.888,2.888,0,0,0,2.777,0L453.2,105.434a4.886,4.886,0,0,1,4.538,0l9.55,5.554c.813.474,1.084,1.151.813,1.761a1.986,1.986,0,0,0-.813-.88l-9.55-5.554a4.886,4.886,0,0,0-4.538,0L406,133.541a2.889,2.889,0,0,1-2.777,0c-.61-.339-.745-.813-.406-1.219A.694.694,0,0,0,403.22,132.661Z" transform="translate(-402.632 -104.875)"/>
            <path id="Path_928" data-name="Path 928" class="cls-17" d="M428.12,146.165a2.889,2.889,0,0,0,2.777,0L478.1,118.938a3.618,3.618,0,0,0,2.032-2.438c.2,1.219-.474,2.438-2.032,3.319L430.9,147.046a2.889,2.889,0,0,1-2.777,0c-.61-.339-.745-.813-.406-1.219C427.781,145.962,427.917,146.03,428.12,146.165Z" transform="translate(-410.668 -108.627)"/>
          </g>
        </g>
      </g>
    </g>
    <g id="Group_194" data-name="Group 194" transform="translate(172.166 38.808)">
      <g id="Group_193" data-name="Group 193" class="cls-23">
        <g id="Group_182" data-name="Group 182" transform="translate(56.553 3.386)">
          <g id="Group_178" data-name="Group 178" transform="translate(0 66.374)">
            <path id="Path_930" data-name="Path 930" class="cls-17" d="M413.15,168.554c2.777,1.625,2.777,4.2,0,5.825l-47.139,27.227a2.889,2.889,0,0,1-2.777,0,.87.87,0,0,1,0-1.625l47.207-27.227a1.411,1.411,0,0,0,0-2.641l-4.538-2.641a27.434,27.434,0,0,0,1.422-2.37Z" transform="translate(-345.76 -161.849)"/>
            <path id="Path_931" data-name="Path 931" class="cls-18" d="M338.31,188.746l47.207-27.227a11.052,11.052,0,0,1,10.092,0l3.657,2.1a27.44,27.44,0,0,1-1.422,2.37l-5.012-2.912a4.886,4.886,0,0,0-4.538,0L341.086,190.3a2.888,2.888,0,0,1-2.777,0C337.5,189.9,337.5,189.152,338.31,188.746Z" transform="translate(-337.7 -160.3)"/>
          </g>
          <path id="Path_932" data-name="Path 932" class="cls-18" d="M337.7,158.546V92.24l49.442-27.565,6.908-.474,6.705,4.335,4.131,3.59-48.223,76.4-15.713,9.211Z" transform="translate(-337.7 -62.913)"/>
          <path id="Path_933" data-name="Path 933" class="cls-18" d="M357.665,181.273,342.9,172.739V108.6l15.239,7.111Z" transform="translate(-339.378 -77.242)"/>
          <path id="Path_934" data-name="Path 934" class="cls-17" d="M415.225,76.6v66.238l-51.88,29.733-.745-.339V105.926Z" transform="translate(-345.736 -66.915)"/>
          <g id="Group_179" data-name="Group 179" transform="translate(3.454 3.985)">
            <path id="Path_935" data-name="Path 935" class="cls-17" d="M379.644,74.493,389.939,68.6a4.948,4.948,0,0,1,4.267.135l9.55,5.554a1.42,1.42,0,0,1,.88,1.558L378.561,91.425l-20.928,12.868-14.833-8.6Z" transform="translate(-342.8 -68.183)"/>
          </g>
          <path id="Path_936" data-name="Path 936" class="cls-18" d="M364.529,118.4v68.541a2.594,2.594,0,0,1-1.287-.339.842.842,0,0,1-.542-.813h0V119.484Z" transform="translate(-345.768 -80.404)"/>
          <path id="Path_937" data-name="Path 937" class="cls-17" d="M337.7,106.413V105.6h.271l.068.542Z" transform="translate(-337.7 -76.274)"/>
          <path id="Path_938" data-name="Path 938" class="cls-17" d="M362.7,120.78v-.88l.2.406Z" transform="translate(-345.768 -80.888)"/>
          <g id="Group_180" data-name="Group 180" transform="translate(0.051)">
            <path id="Path_939" data-name="Path 939" class="cls-17" d="M357.975,102.124,405.182,74.9c2.777-1.625,2.777-4.2,0-5.825l-9.55-5.554a11.052,11.052,0,0,0-10.092,0L338.334,90.746a.87.87,0,0,0,0,1.625,2.889,2.889,0,0,0,2.777,0l47.207-27.227a4.886,4.886,0,0,1,4.538,0L402.4,70.7a1.411,1.411,0,0,1,0,2.641L355.2,100.567a.87.87,0,0,0,0,1.625A3.6,3.6,0,0,0,357.975,102.124Z" transform="translate(-337.775 -62.3)"/>
          </g>
          <path id="Path_940" data-name="Path 940" class="cls-17" d="M385.7,148.973l24.518-14.155V110.3L385.7,124.455Z" transform="translate(-353.19 -77.79)"/>
          <g id="Group_181" data-name="Group 181" transform="translate(0.022 2.286)">
            <path id="Path_941" data-name="Path 941" class="cls-17" d="M338.32,93.461a2.889,2.889,0,0,0,2.777,0L388.3,66.234a4.886,4.886,0,0,1,4.538,0l9.55,5.554c.813.474,1.084,1.151.813,1.761a1.986,1.986,0,0,0-.813-.88l-9.617-5.554a4.886,4.886,0,0,0-4.538,0L341.1,94.341a2.889,2.889,0,0,1-2.777,0c-.61-.339-.745-.813-.406-1.219C337.981,93.257,338.117,93.325,338.32,93.461Z" transform="translate(-337.732 -65.675)"/>
            <path id="Path_942" data-name="Path 942" class="cls-17" d="M363.22,106.965a2.889,2.889,0,0,0,2.777,0L413.2,79.738a3.618,3.618,0,0,0,2.032-2.438c.2,1.219-.474,2.438-2.032,3.319L366,107.846a2.888,2.888,0,0,1-2.777,0c-.61-.339-.745-.813-.406-1.219A2.579,2.579,0,0,0,363.22,106.965Z" transform="translate(-345.768 -69.427)"/>
          </g>
        </g>
        <g id="Group_187" data-name="Group 187" transform="translate(78.18 16.187)">
          <g id="Group_183" data-name="Group 183" transform="translate(0.097 66.374)">
            <path id="Path_943" data-name="Path 943" class="cls-21" d="M445.217,187.554c2.777,1.625,2.777,4.2,0,5.825l-47.207,27.227a2.889,2.889,0,0,1-2.777,0,.87.87,0,0,1,0-1.625l47.207-27.227a1.411,1.411,0,0,0,0-2.641l-4.538-2.641a27.438,27.438,0,0,0,1.422-2.37Z" transform="translate(-377.811 -180.781)"/>
            <path id="Path_944" data-name="Path 944" class="cls-21" d="M370.334,207.646l47.207-27.227a11.051,11.051,0,0,1,10.092,0l3.657,2.1a27.435,27.435,0,0,1-1.422,2.37l-5.012-2.912a4.886,4.886,0,0,0-4.538,0L373.111,209.2a2.889,2.889,0,0,1-2.777,0C369.589,208.8,369.589,208.12,370.334,207.646Z" transform="translate(-369.775 -179.2)"/>
          </g>
          <path id="Path_945" data-name="Path 945" class="cls-21" d="M369.8,177.546V111.172l49.374-27.565,6.976-.406,6.637,4.335,4.131,3.522-48.155,76.4-15.781,9.279Z" transform="translate(-369.686 -81.845)"/>
          <path id="Path_946" data-name="Path 946" class="cls-22" d="M389.733,200.273,374.9,191.739V127.6l15.239,7.111Z" transform="translate(-371.332 -96.174)"/>
          <path id="Path_947" data-name="Path 947" class="cls-21" d="M447.257,95.6v66.238L395.377,191.5l-.677-.271V124.926Z" transform="translate(-377.722 -85.847)"/>
          <g id="Group_184" data-name="Group 184" transform="translate(3.5 3.985)">
            <path id="Path_948" data-name="Path 948" class="cls-17" d="M411.644,93.393,421.939,87.5a4.948,4.948,0,0,1,4.267.135l9.55,5.554a1.42,1.42,0,0,1,.88,1.558l-26.075,15.578-20.928,12.868-14.833-8.6Z" transform="translate(-374.8 -87.083)"/>
          </g>
          <path id="Path_949" data-name="Path 949" class="cls-21" d="M396.529,137.3v68.541a2.594,2.594,0,0,1-1.287-.339.842.842,0,0,1-.542-.813h0V138.384Z" transform="translate(-377.722 -99.304)"/>
          <path id="Path_950" data-name="Path 950" class="cls-17" d="M369.8,125.38v-.88h.2l.135.61Z" transform="translate(-369.686 -95.174)"/>
          <path id="Path_951" data-name="Path 951" class="cls-17" d="M394.7,139.713V138.9l.2.339Z" transform="translate(-377.722 -99.821)"/>
          <g id="Group_185" data-name="Group 185" transform="translate(0.097)">
            <path id="Path_952" data-name="Path 952" class="cls-21" d="M389.975,121.024,437.182,93.8c2.777-1.625,2.777-4.2,0-5.825l-9.55-5.554a11.051,11.051,0,0,0-10.092,0l-47.207,27.227a.87.87,0,0,0,0,1.625,2.889,2.889,0,0,0,2.777,0l47.207-27.227a4.886,4.886,0,0,1,4.538,0L434.4,89.6a1.411,1.411,0,0,1,0,2.641L387.2,119.467a.87.87,0,0,0,0,1.625A3.087,3.087,0,0,0,389.975,121.024Z" transform="translate(-369.775 -81.2)"/>
          </g>
          <path id="Path_953" data-name="Path 953" class="cls-17" d="M417.7,167.941l24.518-14.155V129.2L417.7,143.355Z" transform="translate(-385.144 -96.69)"/>
          <g id="Group_186" data-name="Group 186" transform="translate(0 2.354)">
            <path id="Path_954" data-name="Path 954" class="cls-17" d="M370.288,112.461a2.889,2.889,0,0,0,2.777,0l47.207-27.227a4.886,4.886,0,0,1,4.538,0l9.55,5.554c.813.474,1.084,1.151.813,1.761a1.986,1.986,0,0,0-.813-.88l-9.617-5.621a4.886,4.886,0,0,0-4.538,0L373,113.273a2.889,2.889,0,0,1-2.777,0c-.61-.339-.745-.813-.406-1.219A2.946,2.946,0,0,0,370.288,112.461Z" transform="translate(-369.632 -84.675)"/>
            <path id="Path_955" data-name="Path 955" class="cls-17" d="M395.22,125.865a2.889,2.889,0,0,0,2.777,0L445.2,98.638a3.618,3.618,0,0,0,2.032-2.438c.2,1.219-.474,2.438-2.032,3.319L398,126.746a2.889,2.889,0,0,1-2.777,0c-.61-.339-.745-.813-.406-1.219A.694.694,0,0,0,395.22,125.865Z" transform="translate(-377.7 -88.394)"/>
          </g>
        </g>
        <g id="Group_192" data-name="Group 192" transform="translate(100.531 29.936)">
          <g id="Group_188" data-name="Group 188" transform="translate(0.029 66.374)">
            <path id="Path_956" data-name="Path 956" class="cls-17" d="M478.117,207.754c2.777,1.625,2.777,4.2,0,5.825l-47.207,27.227a2.889,2.889,0,0,1-2.777,0,.87.87,0,0,1,0-1.625l47.207-27.227a1.411,1.411,0,0,0,0-2.641l-4.538-2.641a27.441,27.441,0,0,0,1.422-2.37Z" transform="translate(-410.711 -201.049)"/>
            <path id="Path_957" data-name="Path 957" class="cls-18" d="M403.234,227.946l47.207-27.227a11.051,11.051,0,0,1,10.092,0l3.657,2.1a27.439,27.439,0,0,1-1.422,2.37l-5.012-2.912a4.886,4.886,0,0,0-4.538,0L406.011,229.5a2.888,2.888,0,0,1-2.777,0A.822.822,0,0,1,403.234,227.946Z" transform="translate(-402.675 -199.5)"/>
          </g>
          <path id="Path_958" data-name="Path 958" class="cls-18" d="M402.7,197.746V131.44l49.442-27.565,6.908-.474,6.637,4.335,4.131,3.59-48.155,76.4L405.951,197Z" transform="translate(-402.654 -102.113)"/>
          <path id="Path_959" data-name="Path 959" class="cls-18" d="M422.633,220.5,407.8,211.971V147.9l15.239,7.044Z" transform="translate(-404.3 -116.474)"/>
          <path id="Path_960" data-name="Path 960" class="cls-17" d="M480.157,115.9v66.171L428.277,211.8l-.677-.271V145.159Z" transform="translate(-410.69 -106.147)"/>
          <g id="Group_189" data-name="Group 189" transform="translate(3.432 3.985)">
            <path id="Path_961" data-name="Path 961" class="cls-17" d="M444.544,113.693l10.295-5.892a4.948,4.948,0,0,1,4.267.135l9.55,5.554a1.42,1.42,0,0,1,.88,1.558l-26.075,15.578-20.928,12.868-14.833-8.6Z" transform="translate(-407.7 -107.383)"/>
          </g>
          <path id="Path_962" data-name="Path 962" class="cls-18" d="M429.429,157.6v68.541a2.594,2.594,0,0,1-1.287-.339.842.842,0,0,1-.542-.813h0V158.684Z" transform="translate(-410.69 -119.604)"/>
          <path id="Path_963" data-name="Path 963" class="cls-17" d="M402.7,145.613V144.8h.2l.135.542Z" transform="translate(-402.654 -115.474)"/>
          <path id="Path_964" data-name="Path 964" class="cls-17" d="M427.6,160.013V159.2l.271.339Z" transform="translate(-410.69 -120.121)"/>
          <g id="Group_190" data-name="Group 190" transform="translate(0.029)">
            <path id="Path_965" data-name="Path 965" class="cls-17" d="M422.875,141.324,470.082,114.1c2.777-1.625,2.777-4.2,0-5.825l-9.55-5.554a11.051,11.051,0,0,0-10.092,0l-47.207,27.227a.87.87,0,0,0,0,1.625,2.889,2.889,0,0,0,2.777,0l47.207-27.227a4.886,4.886,0,0,1,4.538,0l9.55,5.554a1.411,1.411,0,0,1,0,2.641L420.1,139.767a.87.87,0,0,0,0,1.625A3.593,3.593,0,0,0,422.875,141.324Z" transform="translate(-402.675 -101.5)"/>
          </g>
          <path id="Path_966" data-name="Path 966" class="cls-17" d="M450.7,188.241l24.45-14.155V149.5L450.7,163.655Z" transform="translate(-418.144 -116.99)"/>
          <g id="Group_191" data-name="Group 191" transform="translate(0 2.286)">
            <path id="Path_967" data-name="Path 967" class="cls-17" d="M403.22,132.661a2.888,2.888,0,0,0,2.777,0L453.2,105.434a4.886,4.886,0,0,1,4.538,0l9.55,5.554c.813.474,1.084,1.151.813,1.761a1.986,1.986,0,0,0-.813-.88l-9.55-5.554a4.886,4.886,0,0,0-4.538,0L406,133.541a2.889,2.889,0,0,1-2.777,0c-.61-.339-.745-.813-.406-1.219A.694.694,0,0,0,403.22,132.661Z" transform="translate(-402.632 -104.875)"/>
            <path id="Path_968" data-name="Path 968" class="cls-17" d="M428.12,146.165a2.889,2.889,0,0,0,2.777,0L478.1,118.938a3.618,3.618,0,0,0,2.032-2.438c.2,1.219-.474,2.438-2.032,3.319L430.9,147.046a2.889,2.889,0,0,1-2.777,0c-.61-.339-.745-.813-.406-1.219C427.781,145.962,427.917,146.03,428.12,146.165Z" transform="translate(-410.668 -108.627)"/>
          </g>
        </g>
      </g>
    </g>
    <path id="XMLID_81_" class="cls-24" d="M173.38,117.558a4.734,4.734,0,0,1,4.267,0L210.63,136.59a1.341,1.341,0,0,1,0,2.506l-32.51,18.761a4.877,4.877,0,0,1-4.335,0L141.276,139.1c-1.151-.677-1.219-1.829,0-2.506Z" transform="translate(-45.305 -37.774)"/>
    <g id="Group_196" data-name="Group 196" class="cls-12" transform="translate(93.135 84.779)">
      <g id="Group_195" data-name="Group 195">
        <path id="Path_970" data-name="Path 970" class="cls-13" d="M172.316,125.734a4.886,4.886,0,0,1,4.538,0L211.8,145.917a1.411,1.411,0,0,1,0,2.641L177.4,168.4a4.886,4.886,0,0,1-4.538,0l-34.406-19.844c-1.219-.745-1.287-1.9,0-2.641Z" transform="translate(-137.512 -125.175)"/>
      </g>
    </g>
    <path id="Path_971" data-name="Path 971" class="cls-25" d="M177.33,122.406a3.873,3.873,0,0,1,3.454,0l26.482,15.307a1.034,1.034,0,0,1,0,1.964l-26.075,15.036a3.873,3.873,0,0,1-3.454,0l-26.075-15.036c-.948-.542-.948-1.422,0-2.032Z" transform="translate(-48.714 -39.371)"/>
    <path id="Path_972" data-name="Path 972" class="cls-26" d="M177.362,122.606a3.731,3.731,0,0,1,3.386,0l26.211,15.171a1.034,1.034,0,0,1,0,1.964L181.088,154.71a3.873,3.873,0,0,1-3.454,0l-25.872-14.968a1.034,1.034,0,0,1,0-1.964Z" transform="translate(-48.746 -39.436)"/>
    <path id="Path_973" data-name="Path 973" class="cls-27" d="M177.524,122.806a3.731,3.731,0,0,1,3.386,0l26.008,15.036a1.034,1.034,0,0,1,0,1.964l-25.669,14.833a3.731,3.731,0,0,1-3.386,0l-25.6-14.9a1.034,1.034,0,0,1,0-1.964Z" transform="translate(-48.908 -39.5)"/>
    <path id="Path_974" data-name="Path 974" class="cls-28" d="M177.653,122.906a3.59,3.59,0,0,1,3.319,0l25.8,14.9a1.034,1.034,0,0,1,0,1.964l-25.4,14.7a3.731,3.731,0,0,1-3.386,0l-25.33-14.7a1.034,1.034,0,0,1,0-1.964Z" transform="translate(-49.037 -39.533)"/>
    <path id="Path_975" data-name="Path 975" class="cls-29" d="M177.817,123.106a3.591,3.591,0,0,1,3.319,0l25.534,14.765c.948.542.948,1.422,0,1.9l-25.195,14.562a3.59,3.59,0,0,1-3.319,0l-25.195-14.562a1.034,1.034,0,0,1,0-1.964Z" transform="translate(-49.133 -39.597)"/>
    <path id="Path_976" data-name="Path 976" class="cls-30" d="M178,123.306a3.59,3.59,0,0,1,3.319,0l25.33,14.629a1.011,1.011,0,0,1,0,1.9l-24.924,14.426a3.59,3.59,0,0,1-3.319,0l-24.924-14.426c-.88-.542-.88-1.422,0-1.9Z" transform="translate(-49.319 -39.662)"/>
    <path id="Path_977" data-name="Path 977" class="cls-31" d="M178.068,123.406a3.454,3.454,0,0,1,3.251,0l25.06,14.494a1.011,1.011,0,0,1,0,1.9l-24.721,14.291a3.454,3.454,0,0,1-3.251,0L153.685,139.8a1.011,1.011,0,0,1,0-1.9Z" transform="translate(-49.384 -39.694)"/>
    <path id="Path_978" data-name="Path 978" class="cls-32" d="M178.164,123.606a3.454,3.454,0,0,1,3.251,0l24.856,14.358a1.011,1.011,0,0,1,0,1.9l-24.518,14.155a3.454,3.454,0,0,1-3.251,0l-24.518-14.155a1.011,1.011,0,0,1,0-1.9Z" transform="translate(-49.48 -39.759)"/>
    <path id="Path_979" data-name="Path 979" class="cls-33" d="M178.394,123.806a3.32,3.32,0,0,1,3.183,0l24.585,14.223c.88.542.88,1.355,0,1.829l-24.247,14.02a3.32,3.32,0,0,1-3.183,0l-24.247-14.02a1.011,1.011,0,0,1,0-1.9Z" transform="translate(-49.642 -39.823)"/>
    <path id="Path_980" data-name="Path 980" class="cls-34" d="M178.49,124.006a3.32,3.32,0,0,1,3.183,0l24.382,14.088a.963.963,0,0,1,0,1.829l-24.044,13.884a3.74,3.74,0,0,1-3.183,0l-24.044-13.884a.963.963,0,0,1,0-1.829Z" transform="translate(-49.739 -39.888)"/>
    <path id="Path_981" data-name="Path 981" class="cls-35" d="M178.619,124.106a3.188,3.188,0,0,1,3.115,0l24.179,13.952c.88.474.88,1.287,0,1.829l-23.773,13.749a3.74,3.74,0,0,1-3.183,0l-23.773-13.749a.963.963,0,0,1,0-1.829Z" transform="translate(-49.868 -39.92)"/>
    <path id="Path_982" data-name="Path 982" class="cls-36" d="M178.816,124.318a3.375,3.375,0,0,1,3.116,0l23.908,13.817c.88.474.88,1.287,0,1.829l-23.57,13.613a3.59,3.59,0,0,1-3.116,0l-23.569-13.613c-.88-.474-.88-1.287,0-1.829Z" transform="translate(-49.997 -39.996)"/>
    <path id="Path_983" data-name="Path 983" class="cls-37" d="M178.881,124.531a3.443,3.443,0,0,1,3.048,0l23.7,13.681c.88.474.88,1.287,0,1.761l-23.366,13.478a3.59,3.59,0,0,1-3.116,0l-23.366-13.478c-.88-.474-.88-1.287,0-1.829Z" transform="translate(-50.061 -40.073)"/>
    <path id="XMLID_80_" class="cls-38" d="M179.066,124.631a3.443,3.443,0,0,1,3.048,0l23.434,13.546a.941.941,0,0,1,0,1.761l-23.1,13.342a3.443,3.443,0,0,1-3.048,0l-23.1-13.342a.941.941,0,0,1,0-1.761Z" transform="translate(-50.247 -40.105)"/>
    <path id="XMLID_79_" class="cls-39" d="M176.49,120.382a3.751,3.751,0,0,1,3.59,0L207.645,136.3c1.016.542,1.016,1.49,0,2.1l-27.159,15.645a4.167,4.167,0,0,1-3.59,0L149.737,138.4c-1.016-.542-1.016-1.49,0-2.1Z" transform="translate(-48.077 -38.702)"/>
    <path id="XMLID_78_" class="cls-38" d="M219.271,136.323l-27.565-15.916a4.167,4.167,0,0,0-3.59,0L185,122.235l31.087,17.948,3.183-1.829A1.081,1.081,0,0,0,219.271,136.323Z" transform="translate(-59.702 -38.726)"/>
    <path id="XMLID_77_" class="cls-39" d="M194.077,124.44a.423.423,0,0,0,0-.813,1.735,1.735,0,0,0-1.422,0,.423.423,0,0,0,0,.813A1.345,1.345,0,0,0,194.077,124.44Z" transform="translate(-62.074 -39.847)"/>
    <path id="XMLID_76_" class="cls-39" d="M197.477,126.64a.423.423,0,0,0,0-.813,1.736,1.736,0,0,0-1.422,0,.423.423,0,0,0,0,.813A1.735,1.735,0,0,0,197.477,126.64Z" transform="translate(-63.172 -40.557)"/>
    <path id="XMLID_75_" class="cls-39" d="M200.877,128.74a.423.423,0,0,0,0-.813,1.736,1.736,0,0,0-1.422,0,.423.423,0,0,0,0,.813A1.736,1.736,0,0,0,200.877,128.74Z" transform="translate(-64.269 -41.235)"/>
    <path id="XMLID_74_" class="cls-40" d="M207.642,145.342l-27.159,15.645a4.167,4.167,0,0,1-3.59,0l-27.159-15.645a1.6,1.6,0,0,1-.61-.542c-.339.542-.135,1.151.61,1.558L176.893,162a4.167,4.167,0,0,0,3.59,0l27.159-15.645c.745-.406.88-1.016.542-1.558A1.049,1.049,0,0,1,207.642,145.342Z" transform="translate(-48.074 -46.729)"/>
    <g id="XMLID_67_" transform="translate(119.744 91.027)">
      <path id="XMLID_72_" class="cls-38" d="M176.8,135.484l.745-1.084,6.366,1.625-.745,1.151-4.2-1.084,2.574,3.454-.813,1.151Z" transform="translate(-176.8 -134.4)"/>
      <path id="XMLID_70_" class="cls-38" d="M191.879,140.8l1.49,1.016-9.279,4.335-1.49-1.016Z" transform="translate(-178.672 -136.465)"/>
      <path id="XMLID_68_" class="cls-38" d="M201.612,149.883l-.745,1.084-6.366-1.625.813-1.151,4.2,1.016-2.641-3.454.745-1.151Z" transform="translate(-182.512 -137.692)"/>
    </g>
    <g id="Group_198" data-name="Group 198" class="cls-12" transform="translate(151.271 4.165)">
      <g id="Group_197" data-name="Group 197">
        <path id="Path_984" data-name="Path 984" class="cls-13" d="M256.435,6.658a4.734,4.734,0,0,1,4.267,0l33.051,19.1a1.316,1.316,0,0,1,0,2.506L261.176,47.092a4.878,4.878,0,0,1-4.335,0L224.264,28.263a1.316,1.316,0,0,1,0-2.506Z" transform="translate(-223.35 -6.15)"/>
      </g>
    </g>
    <g id="Group_200" data-name="Group 200" class="cls-12" transform="translate(350.164 43.871)">
      <g id="Group_199" data-name="Group 199">
        <path id="Path_985" data-name="Path 985" class="cls-13" d="M538.271,65.334a4.886,4.886,0,0,1,4.538,0l43.075,24.518a1.411,1.411,0,0,1,0,2.641l-20.793,12.259a4.886,4.886,0,0,1-4.538,0L517.952,80.5c-1.219-.745-1.287-1.9,0-2.641Z" transform="translate(-517.012 -64.775)"/>
      </g>
    </g>
    <path id="XMLID_66_" class="cls-38" d="M258.79.482a3.751,3.751,0,0,1,3.59,0L289.945,16.4c1.016.542,1.016,1.49,0,2.1L262.786,34.143a4.167,4.167,0,0,1-3.59,0L232.037,18.5c-1.016-.542-1.016-1.49,0-2.1Z" transform="translate(-74.636 -0.008)"/>
    <path id="XMLID_65_" class="cls-41" d="M301.5,16.323,274.005.406a4.167,4.167,0,0,0-3.59,0L267.3,2.235l31.087,17.948,3.183-1.829C302.519,17.813,302.519,16.864,301.5,16.323Z" transform="translate(-86.262)"/>
    <path id="XMLID_64_" class="cls-42" d="M276.277,4.54a.423.423,0,0,0,0-.813,1.736,1.736,0,0,0-1.422,0,.423.423,0,0,0,0,.813A1.734,1.734,0,0,0,276.277,4.54Z" transform="translate(-88.602 -1.154)"/>
    <path id="XMLID_63_" class="cls-42" d="M279.777,6.64a.423.423,0,0,0,0-.813,1.736,1.736,0,0,0-1.422,0,.423.423,0,0,0,0,.813A1.345,1.345,0,0,0,279.777,6.64Z" transform="translate(-89.731 -1.831)"/>
    <path id="XMLID_62_" class="cls-42" d="M283.177,8.74a.423.423,0,0,0,0-.813,1.736,1.736,0,0,0-1.422,0,.423.423,0,0,0,0,.813A1.734,1.734,0,0,0,283.177,8.74Z" transform="translate(-90.828 -2.509)"/>
    <path id="XMLID_61_" class="cls-43" d="M289.842,25.342,262.683,40.987a4.167,4.167,0,0,1-3.59,0L231.934,25.342a1.6,1.6,0,0,1-.61-.542c-.339.542-.135,1.151.61,1.558L259.093,42a4.167,4.167,0,0,0,3.59,0l27.159-15.645c.745-.406.88-1.016.542-1.558A1.049,1.049,0,0,1,289.842,25.342Z" transform="translate(-74.601 -8.003)"/>
    <path id="XMLID_60_" class="cls-39" d="M272.79,10.2l-1.49.88,7.518,4.4,1.558-.88Z" transform="translate(-87.553 -3.292)"/>
    <path id="XMLID_59_" class="cls-39" d="M267.59,31.1l-1.49.88,7.518,4.4,1.558-.88Z" transform="translate(-85.875 -10.036)"/>
    <path id="XMLID_58_" class="cls-44" d="M255.19,23.9l-1.49.88,7.586,4.4,1.49-.88Z" transform="translate(-81.873 -7.713)"/>
    <path id="XMLID_57_" class="cls-39" d="M278.49,18.3l-1.49.88,7.586,4.4,1.49-.88Z" transform="translate(-89.392 -5.906)"/>
    <path id="XMLID_56_" class="cls-39" d="M265.19,15.3l-1.49.813,17.609,10.295,1.558-.88Z" transform="translate(-85.1 -4.938)"/>
    <path id="XMLID_55_" class="cls-39" d="M244.622,27.4l-1.422.813,19.37,11.243,1.49-.88Z" transform="translate(-78.484 -8.842)"/>
    <path id="XMLID_54_" class="cls-45" d="M272.39,14.7l-1.49.813,2.98,1.829,1.558-.88Z" transform="translate(-87.424 -4.744)"/>
    <path id="XMLID_53_" class="cls-39" d="M269.39,27.4l-1.49.88,3.048,1.761,1.49-.88Z" transform="translate(-86.455 -8.842)"/>
    <path id="XMLID_52_" class="cls-39" d="M292.19,31.1l-1.49.88,3.048,1.761,1.49-.88Z" transform="translate(-93.813 -10.036)"/>
    <path id="XMLID_51_" class="cls-39" d="M273.89,25.2l-1.49.88,6.637,3.861,1.49-.88Z" transform="translate(-87.908 -8.132)"/>
    <path id="XMLID_50_" class="cls-46" d="M268.29,21.9l-1.49.88,3.048,1.761,1.49-.88Z" transform="translate(-86.1 -7.067)"/>
    <path id="XMLID_49_" class="cls-47" d="M269.39,37l-1.49.813,3.048,1.829,1.49-.88Z" transform="translate(-86.455 -11.94)"/>
    <path id="XMLID_48_" class="cls-39" d="M257.29,29.9l-1.49.88,6.637,3.793,1.49-.813Z" transform="translate(-82.551 -9.649)"/>
    <path id="XMLID_47_" class="cls-39" d="M248.89,25.1l-1.49.813,4.944,2.845,1.49-.88Z" transform="translate(-79.84 -8.1)"/>
    <path id="XMLID_46_" class="cls-39" d="M262.922,18.7l-1.422.88,2.98,1.761,1.558-.88Z" transform="translate(-84.39 -6.035)"/>
    <path id="XMLID_45_" class="cls-39" d="M286.19,18l-1.49.88,12.123,7.044,1.558-.88Z" transform="translate(-91.877 -5.809)"/>
    <path id="XMLID_44_" class="cls-39" d="M257.29,20.1l-1.49.88,7.315,4.335,1.49-.88Z" transform="translate(-82.551 -6.487)"/>
    <path id="XMLID_43_" class="cls-39" d="M265.99,6.2l-1.49.813L266.6,8.3l1.49-.88Z" transform="translate(-85.358 -2.001)"/>
    <path id="XMLID_42_" class="cls-39" d="M261.89,8.6l-1.49.88,2.1,1.219,1.558-.88Z" transform="translate(-84.035 -2.775)"/>
    <path id="XMLID_41_" class="cls-39" d="M257.79,11l-1.49.88,2.1,1.219,1.558-.88Z" transform="translate(-82.712 -3.55)"/>
    <path id="XMLID_40_" class="cls-39" d="M253.722,13.4l-1.422.88,2.1,1.219,1.49-.88Z" transform="translate(-81.421 -4.324)"/>
    <path id="XMLID_39_" class="cls-39" d="M249.69,15.8l-1.49.88,2.1,1.219,1.49-.88Z" transform="translate(-80.098 -5.099)"/>
    <path id="XMLID_38_" class="cls-39" d="M245.59,18.2l-1.49.88,2.1,1.219,1.49-.88Z" transform="translate(-78.775 -5.873)"/>
    <path id="XMLID_37_" class="cls-39" d="M241.49,20.6l-1.49.88,2.1,1.219,1.49-.88Z" transform="translate(-77.452 -6.648)"/>
    <path id="XMLID_36_" class="cls-39" d="M237.39,23l-1.49.88L238,25.1l1.558-.88Z" transform="translate(-76.129 -7.422)"/>
    <path id="XMLID_35_" class="cls-48" d="M539.318,60.345a6.743,6.743,0,0,1,6.028-.068l35.693,20.657c1.693.948,1.693,2.574,0,3.522l-14.223,8.466a6.741,6.741,0,0,1-6.028.068L525.095,72.265c-1.693-.948-1.693-2.574,0-3.522Z" transform="translate(-169.046 -19.233)"/>
    <g id="Group_201" data-name="Group 201" transform="translate(354.779 39.146)">
      <path id="XMLID_34_" class="cls-39" d="M539.318,58.545a6.743,6.743,0,0,1,6.028-.068l35.693,20.657c1.693.948,1.693,2.574,0,3.522l-14.223,8.466a6.741,6.741,0,0,1-6.028.068L525.095,70.465c-1.693-.948-1.693-2.574,0-3.522Z" transform="translate(-523.825 -57.799)"/>
    </g>
    <path id="XMLID_33_" class="cls-49" d="M528.4,72.406l37.454,22.079.677-.406L529.077,72Z" transform="translate(-170.523 -23.236)"/>
    <path id="XMLID_32_" class="cls-50" d="M532,70.506l37.454,22.012.677-.406L532.677,70.1Z" transform="translate(-171.685 -22.622)"/>
    <path id="XMLID_31_" class="cls-51" d="M535.4,68.406l37.454,22.079.745-.406L536.145,68Z" transform="translate(-172.782 -21.945)"/>
    <path id="XMLID_30_" class="cls-52" d="M538.9,66.406l37.454,22.079.745-.406L539.645,66Z" transform="translate(-173.911 -21.299)"/>
    <path id="XMLID_29_" class="cls-53" d="M542.4,64.406l37.454,22.079.745-.474L543.145,64Z" transform="translate(-175.041 -20.654)"/>
    <path id="XMLID_28_" class="cls-54" d="M545.9,62.406l37.454,22.079.745-.474L546.645,62Z" transform="translate(-176.17 -20.008)"/>
    <path id="XMLID_27_" class="cls-55" d="M549.5,61.206l11.446,6.705.677-.406L550.245,60.8Z" transform="translate(-177.332 -19.621)"/>
    <g id="Group_203" data-name="Group 203" class="cls-12" transform="translate(342.266 205.454)">
      <g id="Group_202" data-name="Group 202">
        <path id="Path_986" data-name="Path 986" class="cls-13" d="M538.435,303.858a4.734,4.734,0,0,1,4.267,0l33.051,19.1a1.316,1.316,0,0,1,0,2.506l-32.577,18.829a4.878,4.878,0,0,1-4.335,0l-32.577-18.829a1.316,1.316,0,0,1,0-2.506Z" transform="translate(-505.35 -303.35)"/>
      </g>
    </g>
    <path id="XMLID_26_" class="cls-39" d="M542.99,296.482a3.751,3.751,0,0,1,3.59,0L574.145,312.4c1.016.542,1.016,1.49,0,2.1l-27.159,15.645a4.167,4.167,0,0,1-3.59,0L516.237,314.5c-1.016-.542-1.016-1.49,0-2.1Z" transform="translate(-166.352 -95.532)"/>
    <path id="XMLID_25_" class="cls-38" d="M585.671,312.423l-27.565-15.916a4.167,4.167,0,0,0-3.59,0l-3.116,1.829,31.087,17.948,3.183-1.829C586.687,313.913,586.687,312.964,585.671,312.423Z" transform="translate(-177.945 -95.556)"/>
    <path id="XMLID_24_" class="cls-39" d="M560.477,300.54a.423.423,0,0,0,0-.813,1.736,1.736,0,0,0-1.422,0,.423.423,0,0,0,0,.813A1.346,1.346,0,0,0,560.477,300.54Z" transform="translate(-180.317 -96.677)"/>
    <path id="XMLID_23_" class="cls-39" d="M563.877,302.74a.423.423,0,0,0,0-.813,1.736,1.736,0,0,0-1.422,0,.423.423,0,0,0,0,.813A1.346,1.346,0,0,0,563.877,302.74Z" transform="translate(-181.415 -97.387)"/>
    <path id="XMLID_22_" class="cls-39" d="M567.277,304.84a.423.423,0,0,0,0-.813,1.736,1.736,0,0,0-1.422,0,.423.423,0,0,0,0,.813A1.733,1.733,0,0,0,567.277,304.84Z" transform="translate(-182.512 -98.065)"/>
    <path id="XMLID_21_" class="cls-56" d="M574.042,321.442l-27.159,15.645a4.166,4.166,0,0,1-3.59,0l-27.159-15.645a1.6,1.6,0,0,1-.61-.542c-.339.542-.135,1.151.61,1.558L543.293,338.1a4.167,4.167,0,0,0,3.59,0l27.159-15.645c.745-.406.88-1.016.542-1.558A1.049,1.049,0,0,1,574.042,321.442Z" transform="translate(-166.316 -103.559)"/>
    <g id="XMLID_1_" transform="translate(367.901 210.297)">
      <path id="XMLID_19_" class="cls-38" d="M543.2,311.584l.745-1.084,6.367,1.625-.745,1.151-4.2-1.084,2.574,3.454-.813,1.151Z" transform="translate(-543.2 -310.5)"/>
      <path id="XMLID_17_" class="cls-38" d="M558.279,316.9l1.49,1.016-9.279,4.335L549,321.235Z" transform="translate(-545.072 -312.565)"/>
      <path id="XMLID_15_" class="cls-38" d="M568.012,325.983l-.745,1.084-6.367-1.625.813-1.151,4.2,1.016-2.641-3.454.745-1.151Z" transform="translate(-548.912 -313.792)"/>
    </g>
  </g>
</svg>
