<svg xmlns="http://www.w3.org/2000/svg" viewBox="2245.71 1930.037 391.29 321.874">
  <defs>
    <style>
      .cls-1, .cls-9 {
        opacity: 0.1;
      }

      .cls-2 {
        fill: #10203b;
      }

      .cls-3, .cls-9 {
        fill: #203e79;
      }

      .cls-4 {
        fill: #0275bb;
      }

      .cls-5 {
        fill: #274f88;
      }

      .cls-6 {
        fill: #c9d7e4;
      }

      .cls-7 {
        fill: #333854;
      }

      .cls-8 {
        opacity: 0.5;
      }

      .cls-10 {
        fill: #f16b32;
      }

      .cls-11 {
        fill: #f58a1f;
      }

      .cls-12 {
        fill: #ef5325;
      }

      .cls-13, .cls-15 {
        fill: #e5e6e6;
      }

      .cls-13, .cls-14 {
        opacity: 0.6;
      }

      .cls-16 {
        fill: #fff;
      }

      .cls-17 {
        fill: #d7a185;
      }

      .cls-18 {
        fill: #567dbe;
      }

      .cls-19 {
        fill: #bcbdbf;
      }

      .cls-20 {
        fill: #f1f1f1;
      }

      .cls-21 {
        fill: #f8a041;
      }
    </style>
  </defs>
  <g id="Group_105" data-name="Group 105" transform="translate(2245.71 1930.034)">
    <g id="Group_52" data-name="Group 52" transform="translate(71.547 0.003)">
      <g id="Group_50" data-name="Group 50" class="cls-1" transform="translate(4.79 146.084)">
        <g id="Group_49" data-name="Group 49">
          <path id="Path_89" data-name="Path 89" class="cls-2" d="M239.9,343.044,111.063,268.681c-3.655-2.109-3.163-5.763,1.054-8.224l87.717-50.606c4.217-2.46,10.543-2.671,14.2-.562L342.8,283.652c3.655,2.109,3.163,5.763-1.054,8.224l-87.717,50.606C249.878,344.871,243.552,345.152,239.9,343.044Z" transform="translate(-108.61 -207.845)"/>
        </g>
      </g>
      <path id="Path_90" data-name="Path 90" class="cls-3" d="M424.884,78.229,290.848.844A5.372,5.372,0,0,0,286.28.282h0l-.211.07H286l-4.85,1.827,4.358,2.109c0,.07-.07.141-.07.211l-21.859,99.385c-1.125,4.99,1.125,10.754,4.92,12.933L399.3,192.3l-.492,5.553,5.271-2.038a7.509,7.509,0,0,0,3.8-5.412l21.859-99.385C430.858,86.172,428.609,80.408,424.884,78.229Z" transform="translate(-149.78 -0.003)"/>
      <path id="Path_91" data-name="Path 91" class="cls-4" d="M428.156,78.229,294.121.844a5.372,5.372,0,0,0-4.569-.562h0l-.211.07h-.07l-4.85,1.827,4.358,2.109c0,.07-.07.141-.07.211L274.3,70.006l65.577,51.1L432.3,83.5A10.187,10.187,0,0,0,428.156,78.229Z" transform="translate(-153.052 -0.003)"/>
      <path id="Path_92" data-name="Path 92" class="cls-5" d="M481.721,126.849l10.191-4.358a12.723,12.723,0,0,0-4.147-10.191L471.6,119.118Z" transform="translate(-211.678 -33.371)"/>
      <path id="Path_93" data-name="Path 93" class="cls-6" d="M390.643,198.211,256.608,120.826c-3.8-2.179-5.974-8.013-4.92-12.933L273.547,8.509c1.125-4.99,5.061-7.239,8.856-5.061L416.439,80.834c3.8,2.179,5.974,8.013,4.92,12.933L399.5,193.151C398.375,198.141,394.439,200.39,390.643,198.211Z" transform="translate(-146.255 -0.78)"/>
      <path id="Path_94" data-name="Path 94" class="cls-6" d="M429.137,80.239,295.171,2.854a5.264,5.264,0,0,0-5.271-.211,5.61,5.61,0,0,1,4.006.7L427.942,80.731c3.8,2.179,5.974,8.013,4.92,12.933L411,193.048a7.664,7.664,0,0,1-3.585,5.271c2.249-.492,4.147-2.53,4.85-5.763l21.789-99.385C435.111,88.181,432.932,82.418,429.137,80.239Z" transform="translate(-157.688 -0.606)"/>
      <path id="Path_95" data-name="Path 95" class="cls-6" d="M390.117,193.9,264.094,121.151c-3.444-1.968-5.482-7.31-4.5-11.878l19.961-90.95c.984-4.569,4.639-6.607,8.083-4.639L413.662,86.43c3.444,1.968,5.482,7.31,4.5,11.878L398.2,189.258C397.216,193.827,393.561,195.865,390.117,193.9Z" transform="translate(-148.609 -3.845)"/>
      <path id="Path_96" data-name="Path 96" class="cls-7" d="M390.117,193.9,264.094,121.151c-3.444-1.968-5.482-7.31-4.5-11.878l19.961-90.95c.984-4.569,4.639-6.607,8.083-4.639L413.662,86.43c3.444,1.968,5.482,7.31,4.5,11.878L398.2,189.258C397.216,193.827,393.561,195.865,390.117,193.9Z" transform="translate(-148.609 -3.845)"/>
      <path id="Path_97" data-name="Path 97" class="cls-4" d="M391.169,193.554,265.146,120.808c-3.444-1.968-5.482-7.31-4.5-11.878l20.032-90.95a6.953,6.953,0,0,1,3.163-4.779c-1.968.492-3.655,2.39-4.287,5.2l-19.961,90.95c-.984,4.569.984,9.84,4.5,11.878l126.023,72.746a4.771,4.771,0,0,0,4.92.141A5.149,5.149,0,0,1,391.169,193.554Z" transform="translate(-148.607 -3.924)"/>
      <path id="Path_98" data-name="Path 98" class="cls-3" d="M348.011,255.218l-18.345-2.39L211.445,184.58c-3.8-2.179-10.4-1.9-14.76.633L112.9,233.57,101.8,232.094v6.255h0a4.263,4.263,0,0,0,2.53,3.866L238.364,319.6c3.8,2.179,10.4,1.9,14.76-.633l91.3-52.644c2.46-1.406,3.725-3.233,3.585-4.99h0Z" transform="translate(-101.794 -54.412)"/>
      <path id="Path_99" data-name="Path 99" class="cls-4" d="M259.169,222.25l-8.434-4.85H158.449L112.9,243.687,101.8,242.211v6.255h0a4.263,4.263,0,0,0,2.53,3.866l134.036,77.385a14.029,14.029,0,0,0,7.661,1.406Z" transform="translate(-101.794 -64.6)"/>
      <path id="Path_100" data-name="Path 100" class="cls-4" d="M106.718,253.333l-4.92-.633v6.255h0a4.263,4.263,0,0,0,2.53,3.866l2.39,1.335Z" transform="translate(-101.794 -75.089)"/>
      <path id="Path_101" data-name="Path 101" class="cls-5" d="M298,371.96a17.445,17.445,0,0,0,12.581-.773V357.2H298Z" transform="translate(-160.095 -106.14)"/>
      <path id="Path_102" data-name="Path 102" class="cls-6" d="M238.384,308.876,104.419,231.562c-3.8-2.179-3.3-6.045,1.054-8.5L196.7,170.413c4.358-2.53,10.965-2.811,14.76-.633L345.5,247.165c3.8,2.179,3.3,6.045-1.054,8.5l-91.231,52.644C248.786,310.844,242.18,311.055,238.384,308.876Z" transform="translate(-101.814 -50.014)"/>
      <path id="Path_103" data-name="Path 103" class="cls-6" d="M344.439,278.009l-91.231,52.644c-4.358,2.53-10.965,2.811-14.76.633L104.412,253.9a4.945,4.945,0,0,1-2.39-2.6c-.562,1.827.141,3.585,2.39,4.85l134.036,77.385c3.8,2.179,10.4,1.9,14.76-.633l91.231-52.644c2.952-1.687,4.147-4.006,3.444-5.974A7.47,7.47,0,0,1,344.439,278.009Z" transform="translate(-101.807 -74.673)"/>
      <g id="Group_51" data-name="Group 51" transform="translate(53.163 122.937)">
        <path id="Path_104" data-name="Path 104" class="cls-4" d="M183.806,217.97l-6.045-3.514c-.492-.281-.422-.773.141-1.125l7.169-4.147a2.025,2.025,0,0,1,1.9-.07l6.045,3.514c.492.281.422.773-.141,1.125L185.7,217.9A2.025,2.025,0,0,1,183.806,217.97Z" transform="translate(-177.432 -185.014)"/>
        <path id="Path_105" data-name="Path 105" class="cls-4" d="M197.206,225.67l-6.045-3.514c-.492-.281-.422-.773.141-1.125l7.169-4.147a2.025,2.025,0,0,1,1.9-.07l6.045,3.514c.492.281.422.773-.141,1.125L199.1,225.6A2.025,2.025,0,0,1,197.206,225.67Z" transform="translate(-181.414 -187.302)"/>
        <path id="Path_106" data-name="Path 106" class="cls-4" d="M210.505,233.37l-6.045-3.514c-.492-.281-.422-.773.141-1.125l7.169-4.147a2.025,2.025,0,0,1,1.9-.07l6.045,3.514c.492.281.422.773-.141,1.125L212.4,233.3A2.252,2.252,0,0,1,210.505,233.37Z" transform="translate(-185.365 -189.59)"/>
        <path id="Path_107" data-name="Path 107" class="cls-4" d="M228.906,227.267l-6.045-3.514c-.492-.281-.422-.773.141-1.125l5.974-3.444a2.025,2.025,0,0,1,1.9-.07l6.045,3.514c.492.281.422.773-.141,1.125L230.8,227.2A2.025,2.025,0,0,1,228.906,227.267Z" transform="translate(-190.833 -187.986)"/>
        <path id="Path_108" data-name="Path 108" class="cls-4" d="M242.206,234.967l-6.045-3.514c-.492-.281-.422-.773.141-1.125l5.974-3.444a2.025,2.025,0,0,1,1.9-.07l6.045,3.514c.492.281.422.773-.141,1.125L244.1,234.9A2.025,2.025,0,0,1,242.206,234.967Z" transform="translate(-194.785 -190.274)"/>
        <path id="Path_109" data-name="Path 109" class="cls-4" d="M255.605,242.667l-6.045-3.514c-.492-.281-.422-.773.141-1.125l5.974-3.444a2.025,2.025,0,0,1,1.9-.07l6.045,3.514c.492.281.422.773-.141,1.125L257.5,242.6A2.025,2.025,0,0,1,255.605,242.667Z" transform="translate(-198.766 -192.562)"/>
        <path id="Path_110" data-name="Path 110" class="cls-4" d="M268.906,250.367l-6.045-3.514c-.492-.281-.422-.773.141-1.125l5.974-3.444a2.025,2.025,0,0,1,1.9-.07l6.045,3.514c.492.281.422.773-.141,1.125L270.8,250.3A2.025,2.025,0,0,1,268.906,250.367Z" transform="translate(-202.718 -194.849)"/>
        <path id="Path_111" data-name="Path 111" class="cls-4" d="M282.206,258.067l-6.045-3.514c-.492-.281-.422-.773.141-1.125l5.974-3.444a2.025,2.025,0,0,1,1.9-.07l6.045,3.514c.492.281.422.773-.141,1.125L284.1,258A2.025,2.025,0,0,1,282.206,258.067Z" transform="translate(-206.67 -197.137)"/>
        <path id="Path_112" data-name="Path 112" class="cls-4" d="M295.505,265.767l-6.045-3.514c-.492-.281-.422-.773.141-1.125l5.974-3.444a2.025,2.025,0,0,1,1.9-.07l6.045,3.514c.492.281.422.773-.141,1.125L297.4,265.7A2.025,2.025,0,0,1,295.505,265.767Z" transform="translate(-210.622 -199.425)"/>
        <path id="Path_113" data-name="Path 113" class="cls-4" d="M308.806,273.467l-6.045-3.514c-.492-.281-.422-.773.141-1.125l5.974-3.444a2.025,2.025,0,0,1,1.9-.07l6.045,3.514c.492.281.422.773-.141,1.125L310.7,273.4A2.245,2.245,0,0,1,308.806,273.467Z" transform="translate(-214.574 -201.713)"/>
        <path id="Path_114" data-name="Path 114" class="cls-4" d="M322.206,281.167l-6.045-3.514c-.492-.281-.422-.773.141-1.125l5.974-3.444a2.025,2.025,0,0,1,1.9-.07l6.045,3.514c.492.281.422.773-.141,1.125L324.1,281.1A2.252,2.252,0,0,1,322.206,281.167Z" transform="translate(-218.556 -204.001)"/>
        <path id="Path_115" data-name="Path 115" class="cls-4" d="M335.506,288.867l-6.045-3.514c-.492-.281-.422-.773.141-1.125l5.974-3.444a2.025,2.025,0,0,1,1.9-.07l6.045,3.514c.492.281.422.773-.141,1.125L337.4,288.8A2.252,2.252,0,0,1,335.506,288.867Z" transform="translate(-222.508 -206.289)"/>
        <path id="Path_116" data-name="Path 116" class="cls-4" d="M348.806,296.567l-6.045-3.514c-.492-.281-.422-.773.141-1.125l5.974-3.444a2.025,2.025,0,0,1,1.9-.07l6.045,3.514c.492.281.422.773-.141,1.125L350.7,296.5A2.252,2.252,0,0,1,348.806,296.567Z" transform="translate(-226.46 -208.577)"/>
        <path id="Path_117" data-name="Path 117" class="cls-4" d="M248.505,223.667l-6.045-3.514c-.492-.281-.422-.773.141-1.125l5.974-3.444a2.025,2.025,0,0,1,1.9-.07l6.045,3.514c.492.281.422.773-.141,1.125L250.4,223.6A2.025,2.025,0,0,1,248.505,223.667Z" transform="translate(-196.657 -186.916)"/>
        <path id="Path_118" data-name="Path 118" class="cls-4" d="M235.005,215.867l-6.045-3.514c-.492-.281-.422-.773.141-1.125l5.974-3.444a2.025,2.025,0,0,1,1.9-.07l6.045,3.514c.492.281.422.773-.141,1.125L236.9,215.8A2.252,2.252,0,0,1,235.005,215.867Z" transform="translate(-192.645 -184.598)"/>
        <path id="Path_119" data-name="Path 119" class="cls-4" d="M218.534,206.374l-13.073-7.521c-.492-.281-.422-.773.141-1.125l5.974-3.444a2.025,2.025,0,0,1,1.9-.07l13.073,7.521c.492.281.422.773-.141,1.125l-5.974,3.444A2.252,2.252,0,0,1,218.534,206.374Z" transform="translate(-185.663 -180.587)"/>
        <path id="Path_120" data-name="Path 120" class="cls-4" d="M228.974,197.468l-10.613-6.115c-.492-.281-.422-.773.141-1.125l5.974-3.444a2.025,2.025,0,0,1,1.9-.07l10.613,6.115c.492.281.422.773-.141,1.125l-5.974,3.444A2.245,2.245,0,0,1,228.974,197.468Z" transform="translate(-189.496 -178.358)"/>
        <path id="Path_121" data-name="Path 121" class="cls-4" d="M261.906,231.367l-6.045-3.514c-.492-.281-.422-.773.141-1.125l5.974-3.444a2.025,2.025,0,0,1,1.9-.07l6.045,3.514c.492.281.422.773-.141,1.125L263.8,231.3A2.252,2.252,0,0,1,261.906,231.367Z" transform="translate(-200.638 -189.204)"/>
        <path id="Path_122" data-name="Path 122" class="cls-4" d="M275.206,239.067l-6.045-3.514c-.492-.281-.422-.773.141-1.125l5.974-3.444a2.025,2.025,0,0,1,1.9-.07l6.045,3.514c.492.281.422.773-.141,1.125L277.1,239A2.252,2.252,0,0,1,275.206,239.067Z" transform="translate(-204.59 -191.492)"/>
        <path id="Path_123" data-name="Path 123" class="cls-4" d="M288.506,246.767l-6.045-3.514c-.492-.281-.422-.773.141-1.125l5.974-3.444a2.025,2.025,0,0,1,1.9-.07l6.045,3.514c.492.281.422.773-.141,1.125L290.4,246.7A2.252,2.252,0,0,1,288.506,246.767Z" transform="translate(-208.542 -193.78)"/>
        <path id="Path_124" data-name="Path 124" class="cls-4" d="M301.806,254.467l-6.045-3.514c-.492-.281-.422-.773.141-1.125l5.974-3.444a2.025,2.025,0,0,1,1.9-.07l6.045,3.514c.492.281.422.773-.141,1.125L303.7,254.4A2.252,2.252,0,0,1,301.806,254.467Z" transform="translate(-212.494 -196.068)"/>
        <path id="Path_125" data-name="Path 125" class="cls-4" d="M315.206,262.167l-6.045-3.514c-.492-.281-.422-.773.141-1.125l5.974-3.444a2.025,2.025,0,0,1,1.9-.07l6.045,3.514c.492.281.422.773-.141,1.125L317.1,262.1A2.256,2.256,0,0,1,315.206,262.167Z" transform="translate(-216.476 -198.356)"/>
        <path id="Path_126" data-name="Path 126" class="cls-4" d="M328.506,269.867l-6.045-3.514c-.492-.281-.422-.773.141-1.125l5.974-3.444a2.025,2.025,0,0,1,1.9-.07l6.045,3.514c.492.281.422.773-.141,1.125L330.4,269.8A2.252,2.252,0,0,1,328.506,269.867Z" transform="translate(-220.428 -200.644)"/>
        <path id="Path_127" data-name="Path 127" class="cls-4" d="M341.805,277.467l-6.045-3.514c-.492-.281-.422-.773.141-1.125l5.974-3.444a2.025,2.025,0,0,1,1.9-.07l6.045,3.514c.492.281.422.773-.141,1.125L343.7,277.4A2.025,2.025,0,0,1,341.805,277.467Z" transform="translate(-224.38 -202.902)"/>
        <path id="Path_128" data-name="Path 128" class="cls-4" d="M355.105,285.167l-6.045-3.514c-.492-.281-.422-.773.141-1.125l5.974-3.444a2.025,2.025,0,0,1,1.9-.07l6.045,3.514c.492.281.422.773-.141,1.125L357,285.1A2.025,2.025,0,0,1,355.105,285.167Z" transform="translate(-228.332 -205.19)"/>
        <path id="Path_129" data-name="Path 129" class="cls-4" d="M368.406,292.867l-6.045-3.514c-.492-.281-.422-.773.141-1.125l5.974-3.444a2.025,2.025,0,0,1,1.9-.07l6.045,3.514c.492.281.422.773-.141,1.125L370.3,292.8A2.025,2.025,0,0,1,368.406,292.867Z" transform="translate(-232.284 -207.478)"/>
        <path id="Path_130" data-name="Path 130" class="cls-4" d="M389.075,304.814l-13.214-7.661c-.492-.281-.422-.773.141-1.125l5.974-3.444a2.025,2.025,0,0,1,1.9-.07l13.214,7.661c.492.281.422.773-.141,1.125l-5.974,3.444A2.025,2.025,0,0,1,389.075,304.814Z" transform="translate(-236.295 -209.796)"/>
        <path id="Path_131" data-name="Path 131" class="cls-4" d="M415.936,290.319l-11.176-6.466c-.492-.281-.422-.773.141-1.125l5.974-3.444a2.025,2.025,0,0,1,1.9-.07l11.176,6.466c.492.281.422.773-.141,1.125l-5.974,3.444A2.025,2.025,0,0,1,415.936,290.319Z" transform="translate(-244.882 -205.844)"/>
        <path id="Path_132" data-name="Path 132" class="cls-4" d="M285.206,229.867l-6.045-3.514c-.492-.281-.422-.773.141-1.125l5.974-3.444a2.025,2.025,0,0,1,1.9-.07l6.045,3.514c.492.281.422.773-.141,1.125L287.1,229.8A2.252,2.252,0,0,1,285.206,229.867Z" transform="translate(-207.562 -188.758)"/>
        <path id="Path_133" data-name="Path 133" class="cls-4" d="M271.506,221.967l-6.045-3.514c-.492-.281-.422-.773.141-1.125l5.974-3.444a2.025,2.025,0,0,1,1.9-.07l6.045,3.514c.492.281.422.773-.141,1.125L273.4,221.9A2.025,2.025,0,0,1,271.506,221.967Z" transform="translate(-203.491 -186.411)"/>
        <path id="Path_134" data-name="Path 134" class="cls-4" d="M257.906,214.067l-6.045-3.514c-.492-.281-.422-.773.141-1.125l5.974-3.444a2.025,2.025,0,0,1,1.9-.07l6.045,3.514c.492.281.422.773-.141,1.125L259.8,214A2.025,2.025,0,0,1,257.906,214.067Z" transform="translate(-199.45 -184.063)"/>
        <path id="Path_135" data-name="Path 135" class="cls-4" d="M244.205,206.167l-6.045-3.514c-.492-.281-.422-.773.141-1.125l5.974-3.444a2.025,2.025,0,0,1,1.9-.07l6.045,3.514c.492.281.422.773-.141,1.125L246.1,206.1A2.025,2.025,0,0,1,244.205,206.167Z" transform="translate(-195.379 -181.716)"/>
        <path id="Path_136" data-name="Path 136" class="cls-4" d="M298.505,237.567l-6.045-3.514c-.492-.281-.422-.773.141-1.125l5.974-3.444a2.025,2.025,0,0,1,1.9-.07l6.045,3.514c.492.281.422.773-.141,1.125L300.4,237.5A2.252,2.252,0,0,1,298.505,237.567Z" transform="translate(-211.514 -191.046)"/>
        <path id="Path_137" data-name="Path 137" class="cls-4" d="M311.806,245.267l-6.045-3.514c-.492-.281-.422-.773.141-1.125l5.974-3.444a2.025,2.025,0,0,1,1.9-.07l6.045,3.514c.492.281.422.773-.141,1.125L313.7,245.2A2.252,2.252,0,0,1,311.806,245.267Z" transform="translate(-215.466 -193.334)"/>
        <path id="Path_138" data-name="Path 138" class="cls-4" d="M325.206,252.967l-6.045-3.514c-.492-.281-.422-.773.141-1.125l5.974-3.444a2.025,2.025,0,0,1,1.9-.07l6.045,3.514c.492.281.422.773-.141,1.125L327.1,252.9A2.252,2.252,0,0,1,325.206,252.967Z" transform="translate(-219.447 -195.622)"/>
        <path id="Path_139" data-name="Path 139" class="cls-4" d="M338.506,260.667l-6.045-3.514c-.492-.281-.422-.773.141-1.125l5.974-3.444a2.025,2.025,0,0,1,1.9-.07l6.045,3.514c.492.281.422.773-.141,1.125L340.4,260.6A2.252,2.252,0,0,1,338.506,260.667Z" transform="translate(-223.399 -197.91)"/>
        <path id="Path_140" data-name="Path 140" class="cls-4" d="M351.806,268.267l-6.045-3.514c-.492-.281-.422-.773.141-1.125l5.974-3.444a2.025,2.025,0,0,1,1.9-.07l6.045,3.514c.492.281.422.773-.141,1.125L353.7,268.2A2.025,2.025,0,0,1,351.806,268.267Z" transform="translate(-227.351 -200.168)"/>
        <path id="Path_141" data-name="Path 141" class="cls-4" d="M365.106,275.967l-6.045-3.514c-.492-.281-.422-.773.141-1.125l5.974-3.444a2.025,2.025,0,0,1,1.9-.07l6.045,3.514c.492.281.422.773-.141,1.125L367,275.9A2.025,2.025,0,0,1,365.106,275.967Z" transform="translate(-231.303 -202.456)"/>
        <path id="Path_142" data-name="Path 142" class="cls-4" d="M378.506,283.667l-6.045-3.514c-.492-.281-.422-.773.141-1.125l5.974-3.444a2.025,2.025,0,0,1,1.9-.07l6.045,3.514c.492.281.422.773-.141,1.125L380.4,283.6A2.028,2.028,0,0,1,378.506,283.667Z" transform="translate(-235.285 -204.744)"/>
        <path id="Path_143" data-name="Path 143" class="cls-4" d="M391.806,291.367l-6.045-3.514c-.492-.281-.422-.773.141-1.125l5.974-3.444a2.025,2.025,0,0,1,1.9-.07l6.045,3.514c.492.281.422.773-.141,1.125L393.7,291.3A2.025,2.025,0,0,1,391.806,291.367Z" transform="translate(-239.237 -207.032)"/>
        <path id="Path_144" data-name="Path 144" class="cls-4" d="M405.105,299.067l-6.045-3.514c-.492-.281-.422-.773.141-1.125l5.974-3.444a2.025,2.025,0,0,1,1.9-.07l6.045,3.514c.492.281.422.773-.141,1.125L407,299A2.025,2.025,0,0,1,405.105,299.067Z" transform="translate(-243.189 -209.32)"/>
        <path id="Path_145" data-name="Path 145" class="cls-4" d="M278.206,210.867l-6.045-3.514c-.492-.281-.422-.773.141-1.125l5.974-3.444a2.025,2.025,0,0,1,1.9-.07l6.045,3.514c.492.281.422.773-.141,1.125L280.1,210.8A2.252,2.252,0,0,1,278.206,210.867Z" transform="translate(-205.482 -183.112)"/>
        <path id="Path_146" data-name="Path 146" class="cls-4" d="M264.906,203.167l-6.045-3.514c-.492-.281-.422-.773.141-1.125l5.974-3.444a2.025,2.025,0,0,1,1.9-.07l6.045,3.514c.492.281.422.773-.141,1.125L266.8,203.1A2.025,2.025,0,0,1,264.906,203.167Z" transform="translate(-201.53 -180.825)"/>
        <path id="Path_147" data-name="Path 147" class="cls-4" d="M251.706,195.567l-6.045-3.514c-.492-.281-.422-.773.141-1.125l5.974-3.444a2.025,2.025,0,0,1,1.9-.07l6.045,3.514c.492.281.422.773-.141,1.125L253.6,195.5A2.252,2.252,0,0,1,251.706,195.567Z" transform="translate(-197.608 -178.566)"/>
        <path id="Path_148" data-name="Path 148" class="cls-4" d="M238.406,187.867l-6.045-3.514c-.492-.281-.422-.773.141-1.125l5.974-3.444a2.025,2.025,0,0,1,1.9-.07l6.045,3.514c.492.281.422.773-.141,1.125L240.3,187.8A2.025,2.025,0,0,1,238.406,187.867Z" transform="translate(-193.656 -176.278)"/>
        <path id="Path_149" data-name="Path 149" class="cls-4" d="M252.006,180.948l-6.045-3.514c-.492-.281-.422-.773.141-1.125l1.968-1.125a2.025,2.025,0,0,1,1.9-.07l6.045,3.514c.492.281.422.773-.141,1.125l-1.968,1.125A2.025,2.025,0,0,1,252.006,180.948Z" transform="translate(-197.697 -174.911)"/>
        <path id="Path_150" data-name="Path 150" class="cls-4" d="M269.306,190.948l-6.045-3.514c-.492-.281-.422-.773.141-1.125l1.968-1.125a2.025,2.025,0,0,1,1.9-.07l6.045,3.514c.492.281.422.773-.141,1.125l-1.968,1.125A2.025,2.025,0,0,1,269.306,190.948Z" transform="translate(-202.837 -177.883)"/>
        <path id="Path_151" data-name="Path 151" class="cls-4" d="M282.505,198.548l-6.045-3.514c-.492-.281-.422-.773.141-1.125l1.968-1.125a2.025,2.025,0,0,1,1.9-.07l6.045,3.514c.492.281.422.773-.141,1.125l-1.968,1.125A2.025,2.025,0,0,1,282.505,198.548Z" transform="translate(-206.759 -180.141)"/>
        <path id="Path_152" data-name="Path 152" class="cls-4" d="M295.706,206.248l-6.045-3.514c-.492-.281-.422-.773.141-1.125l1.968-1.125a2.025,2.025,0,0,1,1.9-.07l6.045,3.514c.492.281.422.773-.141,1.125l-1.968,1.125A2.252,2.252,0,0,1,295.706,206.248Z" transform="translate(-210.682 -182.429)"/>
        <path id="Path_153" data-name="Path 153" class="cls-4" d="M308.906,213.848l-6.045-3.514c-.492-.281-.422-.773.141-1.125l1.968-1.125a2.025,2.025,0,0,1,1.9-.07l6.045,3.514c.492.281.422.773-.141,1.125l-1.968,1.125A2.252,2.252,0,0,1,308.906,213.848Z" transform="translate(-214.604 -184.687)"/>
        <path id="Path_154" data-name="Path 154" class="cls-4" d="M382.605,256.348l-6.045-3.514c-.492-.281-.422-.773.141-1.125l1.968-1.125a2.025,2.025,0,0,1,1.9-.07l6.045,3.514c.492.281.422.773-.141,1.125l-1.968,1.125A2.025,2.025,0,0,1,382.605,256.348Z" transform="translate(-236.503 -197.316)"/>
        <path id="Path_155" data-name="Path 155" class="cls-4" d="M395.805,264.048l-6.045-3.514c-.492-.281-.422-.773.141-1.125l1.968-1.125a2.025,2.025,0,0,1,1.9-.07l6.045,3.514c.492.281.422.773-.141,1.125l-1.968,1.125A2.252,2.252,0,0,1,395.805,264.048Z" transform="translate(-240.425 -199.604)"/>
        <path id="Path_156" data-name="Path 156" class="cls-4" d="M409.006,271.648l-6.045-3.514c-.492-.281-.422-.773.141-1.125l1.968-1.125a2.025,2.025,0,0,1,1.9-.07l6.045,3.514c.492.281.422.773-.141,1.125l-1.968,1.125A2.252,2.252,0,0,1,409.006,271.648Z" transform="translate(-244.348 -201.862)"/>
        <path id="Path_157" data-name="Path 157" class="cls-4" d="M422.206,279.248l-6.045-3.514c-.492-.281-.422-.773.141-1.125l1.968-1.125a2.025,2.025,0,0,1,1.9-.07l6.045,3.514c.492.281.422.773-.141,1.125l-1.968,1.125A2.025,2.025,0,0,1,422.206,279.248Z" transform="translate(-248.27 -204.12)"/>
        <path id="Path_158" data-name="Path 158" class="cls-4" d="M291.506,218.567l-6.045-3.514c-.492-.281-.422-.773.141-1.125l5.974-3.444a2.025,2.025,0,0,1,1.9-.07l6.045,3.514c.492.281.422.773-.141,1.125L293.4,218.5A2.252,2.252,0,0,1,291.506,218.567Z" transform="translate(-209.434 -185.4)"/>
        <path id="Path_159" data-name="Path 159" class="cls-4" d="M304.806,226.267l-6.045-3.514c-.492-.281-.422-.773.141-1.125l5.974-3.444a2.025,2.025,0,0,1,1.9-.07l6.045,3.514c.492.281.422.773-.141,1.125L306.7,226.2A2.252,2.252,0,0,1,304.806,226.267Z" transform="translate(-213.386 -187.688)"/>
        <path id="Path_160" data-name="Path 160" class="cls-4" d="M318.105,233.867l-6.045-3.514c-.492-.281-.422-.773.141-1.125l5.974-3.444a2.025,2.025,0,0,1,1.9-.07l6.045,3.514c.492.281.422.773-.141,1.125L320,233.8A2.02,2.02,0,0,1,318.105,233.867Z" transform="translate(-217.338 -189.947)"/>
        <path id="Path_161" data-name="Path 161" class="cls-4" d="M331.506,241.567l-6.045-3.514c-.492-.281-.422-.773.141-1.125l5.974-3.444a2.025,2.025,0,0,1,1.9-.07l6.045,3.514c.492.281.422.773-.141,1.125L333.4,241.5A2.025,2.025,0,0,1,331.506,241.567Z" transform="translate(-221.319 -192.235)"/>
        <path id="Path_162" data-name="Path 162" class="cls-4" d="M344.806,249.267l-6.045-3.514c-.492-.281-.422-.773.141-1.125l5.974-3.444a2.025,2.025,0,0,1,1.9-.07l6.045,3.514c.492.281.422.773-.141,1.125L346.7,249.2A2.025,2.025,0,0,1,344.806,249.267Z" transform="translate(-225.271 -194.523)"/>
        <path id="Path_163" data-name="Path 163" class="cls-4" d="M358.105,256.967l-6.045-3.514c-.492-.281-.422-.773.141-1.125l5.974-3.444a2.025,2.025,0,0,1,1.9-.07l6.045,3.514c.492.281.422.773-.141,1.125L360,256.9A2.025,2.025,0,0,1,358.105,256.967Z" transform="translate(-229.223 -196.811)"/>
        <path id="Path_164" data-name="Path 164" class="cls-4" d="M371.406,264.667l-6.045-3.514c-.492-.281-.422-.773.141-1.125l5.974-3.444a2.025,2.025,0,0,1,1.9-.07l6.045,3.514c.492.281.422.773-.141,1.125L373.3,264.6A2.025,2.025,0,0,1,371.406,264.667Z" transform="translate(-233.175 -199.099)"/>
        <path id="Path_165" data-name="Path 165" class="cls-4" d="M384.806,272.367l-6.045-3.514c-.492-.281-.422-.773.141-1.125l5.974-3.444a2.025,2.025,0,0,1,1.9-.07l6.045,3.514c.492.281.422.773-.141,1.125L386.7,272.3A2.252,2.252,0,0,1,384.806,272.367Z" transform="translate(-237.157 -201.387)"/>
        <path id="Path_166" data-name="Path 166" class="cls-4" d="M398.105,280.067l-6.045-3.514c-.492-.281-.422-.773.141-1.125l5.974-3.444a2.025,2.025,0,0,1,1.9-.07l6.045,3.514c.492.281.422.773-.141,1.125L400,280A2.252,2.252,0,0,1,398.105,280.067Z" transform="translate(-241.109 -203.674)"/>
        <path id="Path_167" data-name="Path 167" class="cls-4" d="M210.314,216.585l-17.853-10.332c-.492-.281-.422-.773.141-1.125l5.974-3.444a2.025,2.025,0,0,1,1.9-.07l17.853,10.332c.492.281.422.773-.141,1.125l-5.974,3.444A2.025,2.025,0,0,1,210.314,216.585Z" transform="translate(-181.8 -182.786)"/>
        <path id="Path_168" data-name="Path 168" class="cls-4" d="M374.014,311.085l-17.853-10.332c-.492-.281-.422-.773.141-1.125l5.974-3.444a2.025,2.025,0,0,1,1.9-.07l17.853,10.332c.492.281.422.773-.141,1.125l-5.974,3.444A2.025,2.025,0,0,1,374.014,311.085Z" transform="translate(-230.441 -210.865)"/>
        <path id="Path_169" data-name="Path 169" class="cls-4" d="M325.706,299.87l-6.045-3.514c-.492-.281-.422-.773.141-1.125l7.169-4.147a2.025,2.025,0,0,1,1.9-.07l6.045,3.514c.492.281.422.773-.141,1.125L327.6,299.8A2.025,2.025,0,0,1,325.706,299.87Z" transform="translate(-219.596 -209.35)"/>
        <path id="Path_170" data-name="Path 170" class="cls-4" d="M227.46,243.179l-9.7-5.623c-.492-.281-.422-.773.141-1.125l7.169-4.147a2.025,2.025,0,0,1,1.9-.07l9.7,5.623c.492.281.422.773-.141,1.125l-7.169,4.147A2.252,2.252,0,0,1,227.46,243.179Z" transform="translate(-189.317 -191.878)"/>
        <path id="Path_171" data-name="Path 171" class="cls-4" d="M311.36,291.579l-9.7-5.623c-.492-.281-.422-.773.141-1.125l7.169-4.147a2.025,2.025,0,0,1,1.9-.07l9.7,5.623c.492.281.422.773-.141,1.125l-7.169,4.147A2.025,2.025,0,0,1,311.36,291.579Z" transform="translate(-214.247 -206.26)"/>
        <path id="Path_172" data-name="Path 172" class="cls-4" d="M246.66,254.279l-9.7-5.623c-.492-.281-.422-.773.141-1.125l7.169-4.147a2.025,2.025,0,0,1,1.9-.07l9.7,5.623c.492.281.422.773-.141,1.125l-7.169,4.147A2.252,2.252,0,0,1,246.66,254.279Z" transform="translate(-195.022 -195.176)"/>
        <path id="Path_173" data-name="Path 173" class="cls-4" d="M246.407,243.5l42.172,24.319c.492.281.492.773,0,1.125l-7.31,4.217a2.24,2.24,0,0,1-1.9,0L237.2,248.842Z" transform="translate(-195.191 -195.292)"/>
        <path id="Path_174" data-name="Path 174" class="cls-4" d="M363.622,317.624l6.747,3.866c.422.211.351.633-.141.914l-2.952,1.687a1.724,1.724,0,0,1-1.546.07l-6.747-3.866c-.422-.211-.351-.633.141-.914l2.952-1.687A1.527,1.527,0,0,1,363.622,317.624Z" transform="translate(-231.295 -217.264)"/>
        <path id="Path_175" data-name="Path 175" class="cls-4" d="M350.122,309.836l6.747,3.866c.422.211.351.633-.141.914l-2.952,1.687a1.724,1.724,0,0,1-1.546.07l-6.747-3.866c-.422-.211-.351-.633.141-.914l2.952-1.687A1.728,1.728,0,0,1,350.122,309.836Z" transform="translate(-227.284 -214.958)"/>
        <path id="Path_176" data-name="Path 176" class="cls-4" d="M336.822,302.136,343.569,306c.422.211.351.633-.141.914l-2.952,1.687a1.724,1.724,0,0,1-1.546.07l-6.747-3.866c-.422-.211-.351-.633.141-.914l2.952-1.687A1.717,1.717,0,0,1,336.822,302.136Z" transform="translate(-223.332 -212.67)"/>
        <path id="Path_177" data-name="Path 177" class="cls-4" d="M357.522,305.624l6.747,3.866c.422.211.351.633-.141.914l-2.952,1.687a1.724,1.724,0,0,1-1.546.07l-6.747-3.866c-.422-.211-.351-.633.141-.914l2.952-1.687A1.527,1.527,0,0,1,357.522,305.624Z" transform="translate(-229.483 -213.698)"/>
      </g>
      <path id="Path_178" data-name="Path 178" class="cls-6" d="M227.408,301.877,185.658,277.7c-1.195-.7-1.054-1.9.351-2.741l25.233-14.549a5.242,5.242,0,0,1,4.779-.211l41.82,24.108c1.195.7,1.054,1.9-.351,2.741L232.258,301.6A5.2,5.2,0,0,1,227.408,301.877Z" transform="translate(-126.473 -77.174)"/>
    </g>
    <g id="Group_63" data-name="Group 63" transform="translate(214.097 225.549)">
      <g id="Group_54" data-name="Group 54" class="cls-8" transform="translate(16.723 27.693)">
        <g id="Group_53" data-name="Group 53">
          <path id="Path_179" data-name="Path 179" class="cls-2" d="M427.363,361.143a7.743,7.743,0,0,0-7.029,0l-90.458,52.223c-1.968,1.125-1.968,2.952,0,4.077a7.743,7.743,0,0,0,7.029,0l90.458-52.223C429.331,364.1,429.331,362.268,427.363,361.143Z" transform="translate(-328.4 -360.3)"/>
        </g>
      </g>
      <g id="Group_62" data-name="Group 62">
        <g id="Group_61" data-name="Group 61">
          <path id="Path_180" data-name="Path 180" class="cls-6" d="M488.7,321.111h0a.5.5,0,0,0-.422-.211l-5.482,1.195,2.179,3.655,3.725-4.217Q488.809,321.427,488.7,321.111Z" transform="translate(-357.555 -320.9)"/>
          <g id="Group_55" data-name="Group 55" transform="translate(65.359 0.675)">
            <path id="Path_181" data-name="Path 181" class="cls-7" d="M479.424,324.137a2.613,2.613,0,0,0-1.265-2.109.756.756,0,0,0-.843-.07,34.6,34.6,0,0,0-17.993,4.85l-.422.211,6.818,11.527,2.038-1.335a35.226,35.226,0,0,0,10.473-10.894l.843-1.406C479.353,324.77,479.424,324.489,479.424,324.137Z" transform="translate(-415.813 -321.861)"/>
            <path id="Path_182" data-name="Path 182" class="cls-6" d="M466.589,337.487a10.408,10.408,0,0,0-4.779-8.153c-2.6-1.476-4.709-.281-4.709,2.741a10.408,10.408,0,0,0,4.779,8.153C464.48,341.7,466.659,340.509,466.589,337.487Z" transform="translate(-415.278 -323.894)"/>
            <path id="Path_183" data-name="Path 183" class="cls-6" d="M407.913,365.789l40.344-25.162L441.439,329.1,399.9,352.084Z" transform="translate(-398.282 -324.012)"/>
            <path id="Path_184" data-name="Path 184" class="cls-6" d="M408.845,371.716a12.285,12.285,0,0,0-5.693-9.629c-3.093-1.757-5.623-.281-5.553,3.3a12.285,12.285,0,0,0,5.693,9.629C406.385,376.777,408.845,375.3,408.845,371.716Z" transform="translate(-397.598 -333.593)"/>
          </g>
          <g id="Group_56" data-name="Group 56" transform="translate(9.693 29.764)">
            <path id="Path_185" data-name="Path 185" class="cls-6" d="M405.545,373.616a12.285,12.285,0,0,0-5.693-9.629c-3.093-1.757-5.623-.281-5.553,3.3a12.285,12.285,0,0,0,5.693,9.629C403.085,378.677,405.615,377.2,405.545,373.616Z" transform="translate(-340.951 -363.246)"/>
            <rect id="Rectangle_35" data-name="Rectangle 35" class="cls-6" width="61.852" height="15.814" transform="translate(1.636 31.706) rotate(-30.445)"/>
            <path id="Path_186" data-name="Path 186" class="cls-6" d="M329.645,418.216a12.285,12.285,0,0,0-5.693-9.629c-3.093-1.757-5.623-.281-5.553,3.3a12.285,12.285,0,0,0,5.693,9.629C327.185,423.277,329.715,421.8,329.645,418.216Z" transform="translate(-318.398 -376.499)"/>
            <path id="Path_187" data-name="Path 187" class="cls-7" d="M328.536,418.316a8.075,8.075,0,0,0-3.866-5.834c-1.968-1.125-3.514-.351-3.374,1.757a8.075,8.075,0,0,0,3.866,5.834C327.13,421.2,328.606,420.424,328.536,418.316Z" transform="translate(-319.257 -377.723)"/>
          </g>
          <g id="Group_57" data-name="Group 57" transform="translate(62.759 27.461)">
            <path id="Path_188" data-name="Path 188" class="cls-6" d="M410.4,371.1a12.285,12.285,0,0,0-5.693-9.629,4.3,4.3,0,0,0-3.3-.633c.984-1.054,2.671-1.195,4.569-.141a12.587,12.587,0,0,1,5.693,9.629c0,2.109-.843,3.514-2.249,3.866A4.629,4.629,0,0,0,410.4,371.1Z" transform="translate(-396.127 -359.97)"/>
            <path id="Path_189" data-name="Path 189" class="cls-7" d="M408.852,371.405a12.285,12.285,0,0,0-5.693-9.629c-1.546-.914-2.952-.984-3.936-.351l-3.022,1.757,1.406,2.46a12.965,12.965,0,0,0,5.131,8.786l1.406,2.46,3.022-1.757h0A4.224,4.224,0,0,0,408.852,371.405Z" transform="translate(-394.582 -360.279)"/>
            <path id="Path_190" data-name="Path 190" class="cls-6" d="M405.145,373.916a12.285,12.285,0,0,0-5.693-9.629c-3.093-1.757-5.623-.281-5.553,3.3a12.285,12.285,0,0,0,5.693,9.629C402.685,378.977,405.145,377.5,405.145,373.916Z" transform="translate(-393.898 -361.033)"/>
          </g>
          <g id="Group_58" data-name="Group 58" transform="translate(0 65.88)">
            <path id="Path_191" data-name="Path 191" class="cls-2" d="M326.95,419.107a5.312,5.312,0,0,0-2.46-4.147c-1.335-.773-2.39-.141-2.39,1.406a5.311,5.311,0,0,0,2.46,4.147C325.9,421.286,326.95,420.654,326.95,419.107Z" transform="translate(-309.805 -414.631)"/>
            <path id="Path_192" data-name="Path 192" class="cls-7" d="M321.049,420.8a5.034,5.034,0,0,0-3.444-5.9c-1.054.633-11.316,6.677-11.316,6.677a3.435,3.435,0,1,0,3.514,5.9C309.733,427.411,320.346,421.155,321.049,420.8Z" transform="translate(-304.607 -414.711)"/>
          </g>
          <g id="Group_60" data-name="Group 60" transform="translate(14.403 32.515)">
            <path id="Path_193" data-name="Path 193" class="cls-7" d="M340.422,384.2l-1.687-.984c-.984-.562-2.249-.422-3.655.422l-5.834,3.444a4.307,4.307,0,0,0-1.968,3.444V393.4a2.417,2.417,0,0,1-.562,1.476l.211,1.335-1.476-.843h0a.776.776,0,0,1-.351-.7v-2.882a9.289,9.289,0,0,1,4.077-7.239l5.834-3.444c1.968-1.125,3.8-1.335,5.131-.562l1.687.984c.984.562,2.249.422,3.655-.422l23.405-13.776a.645.645,0,0,1,.773-.07h0l1.476.843-1.265.492a2.243,2.243,0,0,1-.984,1.265l-23.405,13.776C343.585,384.83,341.758,385.041,340.422,384.2Z" transform="translate(-325.1 -367.161)"/>
            <path id="Path_194" data-name="Path 194" class="cls-2" d="M340.765,384.521c-.984-.562-2.249-.422-3.655.422l-5.834,3.444a4.307,4.307,0,0,0-1.968,3.444v2.882a2.5,2.5,0,0,1-1.054,1.9c-.562.351-1.054.07-1.054-.633V393.1a9.289,9.289,0,0,1,4.077-7.239l5.834-3.444c1.968-1.125,3.8-1.335,5.131-.562l1.687.984c.984.562,2.249.422,3.655-.422l23.405-13.776c.562-.351,1.054-.07,1.054.633a2.5,2.5,0,0,1-1.054,1.9l-23.405,13.776c-1.968,1.125-3.8,1.335-5.131.562Z" transform="translate(-325.724 -367.554)"/>
            <g id="Group_59" data-name="Group 59" transform="translate(3.585 23.925)">
              <path id="Path_195" data-name="Path 195" class="cls-6" d="M330.2,401.973v2.952a1.548,1.548,0,0,0,.07-.562V401.2C330.27,401.481,330.2,401.762,330.2,401.973Z" transform="translate(-330.2 -401.2)"/>
            </g>
          </g>
        </g>
      </g>
    </g>
    <g id="Group_66" data-name="Group 66" transform="translate(349.448 188.842)">
      <g id="Group_64" data-name="Group 64">
        <path id="Path_196" data-name="Path 196" class="cls-9" d="M532.133,310.126c-7.169,4.147-18.837,4.147-26.006,0s-7.169-10.894,0-15.041,18.837-4.147,26.006,0C539.372,299.232,539.372,305.98,532.133,310.126Z" transform="translate(-498.24 -275.598)"/>
        <path id="Path_197" data-name="Path 197" class="cls-10" d="M539.02,288.22v-5.9H537.9a14.112,14.112,0,0,0-4.99-4.709c-8.153-4.709-21.437-4.709-29.59,0a12.5,12.5,0,0,0-4.99,4.709H497.2v5.834h0c0,3.093,2.038,6.185,6.115,8.575,8.153,4.709,21.437,4.709,29.59,0C536.982,294.405,539.02,291.313,539.02,288.22Z" transform="translate(-497.185 -270.28)"/>
        <path id="Path_198" data-name="Path 198" class="cls-10" d="M532.905,289.286c-8.153,4.709-21.437,4.709-29.591,0s-8.153-12.37,0-17.08,21.437-4.709,29.591,0S541.059,284.507,532.905,289.286Z" transform="translate(-497.185 -268.675)"/>
        <path id="Path_199" data-name="Path 199" class="cls-6" d="M532.9,294.553c-8.153,4.709-21.437,4.709-29.59,0-3.936-2.249-5.9-5.2-6.115-8.153-.211,3.233,1.827,6.466,6.115,8.926,8.153,4.709,21.437,4.709,29.59,0,4.287-2.46,6.255-5.693,6.115-8.926C538.8,289.352,536.835,292.234,532.9,294.553Z" transform="translate(-497.179 -273.942)"/>
      </g>
      <g id="Group_65" data-name="Group 65" transform="translate(10.277 6.343)">
        <path id="Path_200" data-name="Path 200" class="cls-6" d="M512.362,287.4a.985.985,0,0,1-.562-.773v-7.872c0-.633.843-1.054,1.9-1.054s1.9.492,1.9,1.054v6.537l18.907-2.319a2.2,2.2,0,0,1,2.249.843c.211.562-.422,1.195-1.476,1.265l-21.226,2.6a2.778,2.778,0,0,1-1.546-.211C512.433,287.47,512.433,287.4,512.362,287.4Z" transform="translate(-511.8 -277.7)"/>
      </g>
    </g>
    <g id="Group_70" data-name="Group 70" transform="translate(358.881 137.551)">
      <g id="Group_69" data-name="Group 69">
        <g id="Group_68" data-name="Group 68" class="cls-1" transform="translate(0 30.574)">
          <g id="Group_67" data-name="Group 67">
            <path id="Path_201" data-name="Path 201" class="cls-2" d="M526.766,257.9,510.6,248.548l16.166-9.348,16.166,9.348Z" transform="translate(-510.6 -239.2)"/>
          </g>
        </g>
        <path id="Path_202" data-name="Path 202" class="cls-3" d="M549.766,227.7,533.6,237.044v-18.7L549.766,209Z" transform="translate(-517.434 -199.652)"/>
        <path id="Path_203" data-name="Path 203" class="cls-6" d="M526.766,214.4,510.6,205.048l16.166-9.348,16.166,9.348Z" transform="translate(-510.6 -195.7)"/>
        <path id="Path_204" data-name="Path 204" class="cls-4" d="M526.766,237.044,510.6,227.7V209l16.166,9.348Z" transform="translate(-510.6 -199.652)"/>
      </g>
      <path id="Path_205" data-name="Path 205" class="cls-6" d="M523.369,231.2l-4.569-2.6v-5.2l4.569,2.6Z" transform="translate(-513.036 -203.931)"/>
    </g>
    <g id="Group_72" data-name="Group 72" class="cls-1" transform="translate(4.551 217.396)">
      <g id="Group_71" data-name="Group 71">
        <path id="Path_206" data-name="Path 206" class="cls-2" d="M67.782,380.711,7.477,345.919a2.042,2.042,0,0,1,0-3.514L64.83,309.3,129,346.341a2.042,2.042,0,0,1,0,3.514L75.514,380.711A7.613,7.613,0,0,1,67.782,380.711Z" transform="translate(-6.475 -309.3)"/>
      </g>
    </g>
    <g id="Group_77" data-name="Group 77" transform="translate(0 189.002)">
      <g id="Group_73" data-name="Group 73" transform="translate(0)">
        <path id="Path_207" data-name="Path 207" class="cls-10" d="M64.1,273.188c0-3.8-2.671-5.412-6.045-3.444l-56.369,32.4A3.778,3.778,0,0,0,0,305.028c0,1.054.7,1.476,1.617.984l56.369-32.472c1.476-.843,2.741-.141,2.741,1.546v6.326c1.125-.07,2.179-.07,3.3-.07Z" transform="translate(0 -268.902)"/>
        <path id="Path_208" data-name="Path 208" class="cls-10" d="M1.617,322.586l56.369-20.524a13.379,13.379,0,0,0,6.045-10.4V286.6c-1.125,0-2.179,0-3.3.07v6.888a5.847,5.847,0,0,1-2.741,4.709l-56.3,20.524A3.666,3.666,0,0,0,0,321.673C0,322.657.7,323.149,1.617,322.586Z" transform="translate(0 -274.161)"/>
      </g>
      <path id="Path_209" data-name="Path 209" class="cls-10" d="M.6,335.463l68.6,39.712,58.127-34.651,4.569-6.888-.492,2.46-1.195-6.4L22.389,333.847,3.341,332.582Z" transform="translate(-0.178 -286.967)"/>
      <path id="Path_210" data-name="Path 210" class="cls-11" d="M3.8,320.9v8.434l66.35,38.376,1.757-8.083Z" transform="translate(-1.129 -284.353)"/>
      <path id="Path_211" data-name="Path 211" class="cls-10" d="M131.081,309.141,62.552,269.5.841,305.416.7,306.26l68.6,39.712Z" transform="translate(-0.208 -269.08)"/>
      <g id="Group_74" data-name="Group 74" transform="translate(68.951 43.154)">
        <path id="Path_212" data-name="Path 212" class="cls-6" d="M138.163,347.52l16.1-9.559a6.135,6.135,0,0,0,2.39-4.5V332.2c0-1.054-.422-1.687-1.054-1.9l-31.7,17.642L98.1,361.929v8.5Z" transform="translate(-98.1 -330.3)"/>
      </g>
      <path id="Path_213" data-name="Path 213" class="cls-10" d="M71.27,359.077,3.233,319.717l-1.476-.843L.422,318.1A3.2,3.2,0,0,0,0,319.646,1.178,1.178,0,0,0,.492,320.7h0l68.6,39.712Z" transform="translate(0 -283.521)"/>
      <path id="Path_214" data-name="Path 214" class="cls-6" d="M97,393.611l.843.492.141-.281-.492-.422Z" transform="translate(-28.822 -305.895)"/>
      <path id="Path_215" data-name="Path 215" class="cls-6" d="M97,377.6l.914.492L97.7,377.6Z" transform="translate(-28.822 -301.2)"/>
      <g id="Group_75" data-name="Group 75" transform="translate(68.665 39.672)">
        <path id="Path_216" data-name="Path 216" class="cls-10" d="M99.315,358.629l56.369-32.472c3.3-1.9,6.045-.351,6.045,3.444v1.265a13.191,13.191,0,0,1-6.045,10.4L99.315,373.741c-.914.492-1.617.07-1.617-.984a3.778,3.778,0,0,1,1.687-2.882L155.754,337.4a6.028,6.028,0,0,0,2.741-4.709v-1.265c0-1.757-1.195-2.46-2.741-1.546l-56.44,32.543c-.914.492-1.617.07-1.617-.984A3.494,3.494,0,0,1,99.315,358.629Z" transform="translate(-97.694 -325.346)"/>
      </g>
      <g id="Group_76" data-name="Group 76" transform="translate(67.686 39.157)">
        <path id="Path_217" data-name="Path 217" class="cls-6" d="M97.214,374.626a3.778,3.778,0,0,1,1.687-2.882l56.369-32.472a6.028,6.028,0,0,0,2.741-4.709V333.3c0-1.125-.492-1.827-1.335-1.9a2.1,2.1,0,0,1,.422,1.406v1.265a5.847,5.847,0,0,1-2.741,4.709L97.987,371.252a3.666,3.666,0,0,0-1.687,2.882c0,.773.422,1.265,1.054,1.195A2.079,2.079,0,0,1,97.214,374.626Z" transform="translate(-96.3 -326.629)"/>
        <path id="Path_218" data-name="Path 218" class="cls-6" d="M97.214,361.293a3.778,3.778,0,0,1,1.687-2.882l56.369-32.472a4.569,4.569,0,0,1,3.8-.633c-1.125-.914-2.811-.984-4.709.141L97.987,357.919A3.666,3.666,0,0,0,96.3,360.8c0,.773.422,1.265,1.054,1.195A3.094,3.094,0,0,1,97.214,361.293Z" transform="translate(-96.3 -324.612)"/>
      </g>
      <path id="Path_219" data-name="Path 219" class="cls-6" d="M60.5,319.423,91.637,301.5l26.99,15.6L87.49,335.026Z" transform="translate(-17.977 -278.588)"/>
    </g>
    <g id="Group_85" data-name="Group 85" transform="translate(104.98 252.592)">
      <g id="Group_79" data-name="Group 79" class="cls-1" transform="translate(5.176 32.455)">
        <g id="Group_78" data-name="Group 78">
          <path id="Path_220" data-name="Path 220" class="cls-2" d="M166.055,437c12.441,7.169,32.683,7.169,45.124,0s12.441-18.837,0-26.076c-12.441-7.169-32.683-7.169-45.124,0C153.615,418.166,153.615,429.834,166.055,437Zm12.16-18.977c5.693-3.3,15.041-3.3,20.734,0s5.693,8.645,0,11.949-15.041,3.3-20.734,0S172.522,421.329,178.215,418.026Z" transform="translate(-156.725 -405.55)"/>
        </g>
      </g>
      <g id="Group_84" data-name="Group 84">
        <g id="Group_80" data-name="Group 80" transform="translate(9.235)">
          <path id="Path_221" data-name="Path 221" class="cls-12" d="M217.634,399.972l-11.386.211a12,12,0,0,0-3.585-3.022c-6.255-3.585-16.1-3.866-22.913-.843L173,389.991l-10.4.141a12.381,12.381,0,0,1,1.617-.984c14.479-8.364,37.955-8.364,52.363,0a27.7,27.7,0,0,1,6.537,5.061Z" transform="translate(-162.53 -366.358)"/>
          <path id="Path_222" data-name="Path 222" class="cls-10" d="M162.5,369.541v16.588l10.473-.211V369.4Z" transform="translate(-162.5 -362.354)"/>
          <path id="Path_223" data-name="Path 223" class="cls-12" d="M184.147,375.8v16.517l-6.747-6.4V369.4Z" transform="translate(-166.927 -362.354)"/>
          <path id="Path_224" data-name="Path 224" class="cls-12" d="M213.5,380.2v16.517l-14.971-12.23L187,392.848V376.331l10.613-5.131s14.62,4.5,15.393,4.639S213.5,380.2,213.5,380.2Z" transform="translate(-169.78 -362.889)"/>
          <path id="Path_225" data-name="Path 225" class="cls-12" d="M236.086,383.7v16.517l-11.386.211V383.911Z" transform="translate(-180.982 -366.603)"/>
          <path id="Path_226" data-name="Path 226" class="cls-10" d="M246.312,375.5v16.517l-5.412,5.763V381.263Z" transform="translate(-185.796 -364.166)"/>
          <path id="Path_227" data-name="Path 227" class="cls-10" d="M217.634,376.472l-11.386.211a12,12,0,0,0-3.585-3.022c-6.255-3.585-16.1-3.866-22.913-.843L173,366.491l-10.4.141a12.378,12.378,0,0,1,1.617-.984c14.479-8.364,37.955-8.364,52.363,0a27.693,27.693,0,0,1,6.537,5.061Z" transform="translate(-162.53 -359.375)"/>
        </g>
        <g id="Group_82" data-name="Group 82" transform="translate(0 9.858)">
          <path id="Path_228" data-name="Path 228" class="cls-4" d="M177.94,381.4v15.182l-9.84-2.39s.562-8.856.773-9.137C169.084,384.844,177.94,381.4,177.94,381.4Z" transform="translate(-154.929 -375.777)"/>
          <g id="Group_81" data-name="Group 81">
            <path id="Path_229" data-name="Path 229" class="cls-3" d="M189.313,403v16.517l-1.054,1.125-6.958-4.006s1.054-12.581,1.195-12.862S189.313,403,189.313,403Z" transform="translate(-158.852 -382.195)"/>
            <path id="Path_230" data-name="Path 230" class="cls-4" d="M166.4,396.9l5.974,5.623c-4.99,3.936-4.358,9.489,1.757,13a21.273,21.273,0,0,0,5.693,2.179l-6.185,6.537,5.482,5.131a48.914,48.914,0,0,1-18.907-5.834c-12.441-7.169-14.2-18.2-5.2-26.428Z" transform="translate(-149.361 -380.383)"/>
            <path id="Path_231" data-name="Path 231" class="cls-4" d="M179.131,410.418v16.517l-13.495-5.2L149.4,406.2l.07-17.5,17.15,13.565Z" transform="translate(-149.373 -377.946)"/>
            <path id="Path_232" data-name="Path 232" class="cls-6" d="M166.4,373.4l5.974,5.623c-4.99,3.936-4.358,9.489,1.757,13a21.273,21.273,0,0,0,5.693,2.179l-6.185,6.537,5.482,5.131a48.915,48.915,0,0,1-18.907-5.834c-12.441-7.169-14.2-18.2-5.2-26.428Z" transform="translate(-149.361 -373.4)"/>
          </g>
        </g>
        <g id="Group_83" data-name="Group 83" transform="translate(29.829 14.567)">
          <path id="Path_233" data-name="Path 233" class="cls-4" d="M191.8,426.162l5.412-5.763c5.061.281,10.262-.633,14.128-2.882,4.006-2.319,5.623-5.412,4.92-8.434l12.933-.211,4.99-5.271c4.358,7.45,1.406,16.025-8.926,21.929-7.591,4.358-17.572,6.466-27.482,6.255Z" transform="translate(-191.8 -387.083)"/>
          <path id="Path_234" data-name="Path 234" class="cls-4" d="M200.3,411.2v16.517l38.306-21.226V389.9l-5.623,2.319Z" transform="translate(-194.326 -383.012)"/>
          <path id="Path_235" data-name="Path 235" class="cls-3" d="M191.8,412.2v16.517l5.974,5.623V417.823Z" transform="translate(-191.8 -389.638)"/>
          <path id="Path_236" data-name="Path 236" class="cls-4" d="M191.8,402.662l5.412-5.763c5.061.281,10.262-.633,14.128-2.882,4.006-2.319,5.623-5.412,4.92-8.434l12.933-.211,4.99-5.271c4.358,7.45,1.406,16.025-8.926,21.929-7.591,4.358-17.572,6.466-27.482,6.255Z" transform="translate(-191.8 -380.1)"/>
        </g>
      </g>
    </g>
    <g id="Group_88" data-name="Group 88" transform="translate(109.927 57.073)">
      <path id="Path_237" data-name="Path 237" class="cls-7" d="M156.4,115.781v38.728l59.884-34.651V81.2Z" transform="translate(-156.4 -81.2)"/>
      <path id="Path_238" data-name="Path 238" class="cls-13" d="M162.2,144.3l4.5-2.6v22.632l-4.5,2.6Z" transform="translate(-158.123 -99.177)"/>
      <path id="Path_239" data-name="Path 239" class="cls-13" d="M171.3,139.1l4.428-2.6v22.632l-4.428,2.6Z" transform="translate(-160.827 -97.632)"/>
      <path id="Path_240" data-name="Path 240" class="cls-13" d="M180.3,133.9l4.5-2.6v22.632l-4.5,2.6Z" transform="translate(-163.502 -96.087)"/>
      <path id="Path_241" data-name="Path 241" class="cls-13" d="M189.4,128.7l4.5-2.6v22.632l-4.5,2.6Z" transform="translate(-166.206 -94.542)"/>
      <g id="Group_86" data-name="Group 86" class="cls-14" transform="translate(45.124 5.342)">
        <path id="Path_242" data-name="Path 242" class="cls-15" d="M233.251,88.8v1.406L220.6,97.515V96.11Z" transform="translate(-220.6 -88.8)"/>
        <path id="Path_243" data-name="Path 243" class="cls-15" d="M233.251,94.006l-12.651,7.38V99.91l12.651-7.31Z" transform="translate(-220.6 -89.929)"/>
        <path id="Path_244" data-name="Path 244" class="cls-15" d="M233.251,97.906l-12.651,7.31V103.81l12.651-7.31Z" transform="translate(-220.6 -91.088)"/>
        <path id="Path_245" data-name="Path 245" class="cls-15" d="M233.251,101.706l-12.651,7.38V107.68l12.651-7.38Z" transform="translate(-220.6 -92.217)"/>
      </g>
      <g id="Group_87" data-name="Group 87" class="cls-14" transform="translate(45.124 19.469)">
        <path id="Path_246" data-name="Path 246" class="cls-15" d="M233.251,108.9v1.406l-12.651,7.38V116.21Z" transform="translate(-220.6 -108.9)"/>
        <path id="Path_247" data-name="Path 247" class="cls-15" d="M233.251,114.206l-12.651,7.31V120.11l12.651-7.31Z" transform="translate(-220.6 -110.059)"/>
        <path id="Path_248" data-name="Path 248" class="cls-15" d="M233.251,118.006l-12.651,7.38V123.98l12.651-7.38Z" transform="translate(-220.6 -111.188)"/>
        <path id="Path_249" data-name="Path 249" class="cls-15" d="M233.251,121.906l-12.651,7.31V127.81l12.651-7.31Z" transform="translate(-220.6 -112.347)"/>
      </g>
    </g>
    <g id="Group_92" data-name="Group 92" transform="translate(26.779 105.079)">
      <path id="Path_250" data-name="Path 250" class="cls-7" d="M38.1,184.151v38.657l59.813-34.581V149.5Z" transform="translate(-38.1 -149.5)"/>
      <g id="Group_89" data-name="Group 89" class="cls-14" transform="translate(4.217 30.012)">
        <path id="Path_251" data-name="Path 251" class="cls-15" d="M56.751,192.2v1.406L44.1,200.915V199.51Z" transform="translate(-44.1 -192.2)"/>
        <path id="Path_252" data-name="Path 252" class="cls-15" d="M56.751,197.406,44.1,204.786V203.31L56.751,196Z" transform="translate(-44.1 -193.329)"/>
        <path id="Path_253" data-name="Path 253" class="cls-15" d="M56.751,201.306,44.1,208.615V207.21l12.652-7.31Z" transform="translate(-44.1 -194.488)"/>
        <path id="Path_254" data-name="Path 254" class="cls-15" d="M56.751,205.106,44.1,212.486V211.08l12.652-7.38Z" transform="translate(-44.1 -195.617)"/>
      </g>
      <g id="Group_90" data-name="Group 90" class="cls-14" transform="translate(4.217 42.945)">
        <path id="Path_255" data-name="Path 255" class="cls-15" d="M56.751,210.6v1.406L44.1,219.315V217.91Z" transform="translate(-44.1 -210.6)"/>
        <path id="Path_256" data-name="Path 256" class="cls-15" d="M56.751,215.906,44.1,223.215V221.81l12.652-7.31Z" transform="translate(-44.1 -211.759)"/>
        <path id="Path_257" data-name="Path 257" class="cls-15" d="M56.751,219.706,44.1,227.086V225.61l12.652-7.31Z" transform="translate(-44.1 -212.888)"/>
        <path id="Path_258" data-name="Path 258" class="cls-15" d="M56.751,223.606,44.1,230.915V229.51l12.652-7.31Z" transform="translate(-44.1 -214.047)"/>
      </g>
      <path id="Path_259" data-name="Path 259" class="cls-13" d="M42.5,230.861v2.6L98.307,201.13V198.6Z" transform="translate(-39.407 -164.09)"/>
      <g id="Group_91" data-name="Group 91" class="cls-14" transform="translate(39.923 15.318)">
        <path id="Path_260" data-name="Path 260" class="cls-15" d="M102.631,172.352A16.984,16.984,0,0,0,94.9,185.707c0,4.92,3.514,6.888,7.731,4.428a16.984,16.984,0,0,0,7.731-13.354C110.363,171.86,106.919,169.892,102.631,172.352Z" transform="translate(-94.9 -171.293)"/>
      </g>
    </g>
    <g id="Group_96" data-name="Group 96" class="cls-14" transform="translate(206.388 28.607)">
      <path id="Path_261" data-name="Path 261" class="cls-16" d="M337.463,61.224,309.7,45.761l1.054-5.061,27.693,15.533Z" transform="translate(-298.412 -40.7)"/>
      <path id="Path_262" data-name="Path 262" class="cls-16" d="M334.793,74.594,307.1,59.061,308.084,54l27.693,15.533Z" transform="translate(-297.64 -44.652)"/>
      <path id="Path_263" data-name="Path 263" class="cls-16" d="M332.193,87.924,304.5,72.39l.984-4.99,27.693,15.533Z" transform="translate(-296.867 -48.634)"/>
      <g id="Group_93" data-name="Group 93" transform="translate(41.932 19.258)">
        <path id="Path_264" data-name="Path 264" class="cls-16" d="M386.293,88.624,358.6,73.09l.984-4.99,27.693,15.463Z" transform="translate(-354.875 -68.1)"/>
        <path id="Path_265" data-name="Path 265" class="cls-16" d="M383.693,101.924,356,86.461l.984-5.061,27.693,15.533Z" transform="translate(-354.102 -72.052)"/>
        <path id="Path_266" data-name="Path 266" class="cls-16" d="M380.993,115.294,353.3,99.761l.984-5.061,27.693,15.533Z" transform="translate(-353.3 -76.004)"/>
      </g>
      <g id="Group_94" data-name="Group 94" transform="translate(35.255 53.277)">
        <path id="Path_267" data-name="Path 267" class="cls-16" d="M376.763,137.094,349,121.561l1.054-5.061,27.693,15.533Z" transform="translate(-345.345 -116.5)"/>
        <path id="Path_268" data-name="Path 268" class="cls-16" d="M374.093,150.424,346.4,134.89l.984-4.99,27.693,15.463Z" transform="translate(-344.573 -120.482)"/>
        <path id="Path_269" data-name="Path 269" class="cls-16" d="M371.493,163.724,343.8,148.261l.984-5.061,27.693,15.533Z" transform="translate(-343.8 -124.434)"/>
      </g>
      <g id="Group_95" data-name="Group 95" transform="translate(29.211 84.062)">
        <path id="Path_270" data-name="Path 270" class="cls-16" d="M368.093,180.824,340.4,165.29l.984-4.99,27.763,15.533Z" transform="translate(-336.745 -160.3)"/>
        <path id="Path_271" data-name="Path 271" class="cls-16" d="M365.493,194.194,337.8,178.661l.984-5.061,27.693,15.533Z" transform="translate(-335.973 -164.252)"/>
        <path id="Path_272" data-name="Path 272" class="cls-16" d="M362.893,207.524,335.2,191.99l.984-4.99,27.693,15.463Z" transform="translate(-335.2 -168.234)"/>
      </g>
      <path id="Path_273" data-name="Path 273" class="cls-16" d="M329.593,101.294,301.9,85.761l.984-5.061,27.693,15.533Z" transform="translate(-296.095 -52.586)"/>
      <path id="Path_274" data-name="Path 274" class="cls-16" d="M311.324,111.385c-7.731-4.287-15.463-.141-17.29,9.278-1.827,9.489,2.882,20.594,10.613,24.952,7.731,4.287,15.463.141,17.29-9.278l-13.987-7.872Z" transform="translate(-293.64 -61.201)"/>
      <path id="Path_275" data-name="Path 275" class="cls-16" d="M391.539,202.619l-7.24-4.077L395.054,144l7.169,4.077Z" transform="translate(-320.579 -71.394)"/>
      <path id="Path_276" data-name="Path 276" class="cls-16" d="M408.139,205.114l-7.239-4.077L414.746,130.4l7.239,4.006Z" transform="translate(-325.511 -67.353)"/>
      <path id="Path_277" data-name="Path 277" class="cls-16" d="M426.069,207.607l-7.169-4.077L436.331,114.9l7.169,4.077Z" transform="translate(-330.86 -62.748)"/>
    </g>
    <g id="Group_97" data-name="Group 97" transform="translate(184.212 58.351)">
      <path id="Path_278" data-name="Path 278" class="cls-17" d="M263.362,141.485a1.654,1.654,0,0,0,.141-.562c0-.211-.141-.07-.281.07-.281.351-.492.7-.773,1.054-.07.07-.281.211-.351,0a3.368,3.368,0,0,1,.633-1.827,9.843,9.843,0,0,1,.7-1.125c.141-.211.281-.351.422-.562.07-.07.351-.281.351-.422V137.9l2.671.351a6.046,6.046,0,0,1,.07,1.125,4.245,4.245,0,0,1-.492,2.109,3.429,3.429,0,0,0-.211,1.476c0,.562.351.914.141,1.406-.211.562-1.687.633-2.6-.141a2.344,2.344,0,0,1-.562-1.687,4.008,4.008,0,0,1,.07-.914A.218.218,0,0,1,263.362,141.485Z" transform="translate(-262.089 -99.325)"/>
      <path id="Path_279" data-name="Path 279" class="cls-15" d="M264.611,136.9l-.211.984a7.538,7.538,0,0,0,3.514.633l.281-1.195Z" transform="translate(-262.776 -99.028)"/>
      <path id="Path_280" data-name="Path 280" class="cls-18" d="M267.563,103.8s-1.265,13.495-3.163,23.476a5.631,5.631,0,0,0,3.8.7l2.038-11.035Z" transform="translate(-262.776 -89.193)"/>
      <path id="Path_281" data-name="Path 281" class="cls-17" d="M292.7,132.6s-.492.07-.773.773-1.195,1.827-1.476,1.617,0-3.022,0-3.022l.562-1.265Z" transform="translate(-270.478 -97.186)"/>
      <path id="Path_282" data-name="Path 282" class="cls-15" d="M293.452,132.171l-.562.7-2.39-2.53.7-.843Z" transform="translate(-270.531 -96.829)"/>
      <path id="Path_283" data-name="Path 283" class="cls-7" d="M295.228,183.514s.211,2.179,1.125,2.952c2.319,1.9,3.374,3.655,1.265,4.287s-6.4-1.757-6.818-3.374l.281-4.779Z" transform="translate(-270.62 -112.607)"/>
      <path id="Path_284" data-name="Path 284" class="cls-7" d="M271.409,183.514s-.211,2.179-1.125,2.952c-2.319,1.9-3.374,3.655-1.265,4.287s6.4-1.757,6.818-3.374l-.281-4.779Z" transform="translate(-263.81 -112.607)"/>
      <path id="Path_285" data-name="Path 285" class="cls-4" d="M270.5,132.717v37.744s3.655,1.406,6.677-.492c0,0-.141-17.993.492-27.412,0,0,.492-.633.843.492,0,0,4.428,18.415,5.553,27.2a9.444,9.444,0,0,0,6.326-.843s-2.811-16.1-3.093-18.134-2.671-17.712-2.671-17.712S274.647,131.381,270.5,132.717Z" transform="translate(-264.588 -97.656)"/>
      <path id="Path_286" data-name="Path 286" class="cls-17" d="M287.865,93.8l-1.125.281-.141,1.757C288.076,95.979,287.865,93.8,287.865,93.8Z" transform="translate(-269.372 -86.221)"/>
      <path id="Path_287" data-name="Path 287" class="cls-17" d="M274.5,93.8l1.125.281.141,1.757C274.285,95.979,274.5,93.8,274.5,93.8Z" transform="translate(-265.772 -86.221)"/>
      <path id="Path_288" data-name="Path 288" class="cls-19" d="M276.7,99.646s2.249-.773,6.537-.07l-.351,1.054-4.85.984-1.195-1.195Z" transform="translate(-266.43 -87.85)"/>
      <path id="Path_289" data-name="Path 289" class="cls-18" d="M280.819,100.678s5.623,1.195,6.185,1.827-.843,9-1.476,10.824-1.617,10.894-1.617,10.894a17.939,17.939,0,0,1-13.987-.914s-.351-6.537-.7-9.981c-.281-3.022-.422-10.4-.422-10.4a11.733,11.733,0,0,1,5.482-2.038A38.759,38.759,0,0,1,280.819,100.678Z" transform="translate(-264.083 -88.249)"/>
      <path id="Path_290" data-name="Path 290" class="cls-18" d="M292.947,103.2s5.834,9,7.591,13.425l-7.591,8.013-2.6-2.882,5.061-5.131-2.882-5.061L288.8,106.5Z" transform="translate(-270.026 -89.015)"/>
      <path id="Path_291" data-name="Path 291" class="cls-17" d="M283.2,94.551l-.211,4.428s-2.109,2.038-5.693,0V94.2Z" transform="translate(-266.609 -86.34)"/>
      <ellipse id="Ellipse_13" data-name="Ellipse 13" class="cls-17" cx="4.217" cy="5.904" rx="4.217" ry="5.904" transform="translate(9.356 0.55)"/>
      <path id="Path_292" data-name="Path 292" class="cls-7" d="M278.955,87.855s3.233-1.617,3.444,3.374a2.271,2.271,0,0,0,1.968-.351s1.617-8.645-5.342-7.8c0,0-5.9-.562-5.061,7.942a2.808,2.808,0,0,0,2.179.141C276.144,91.088,275.722,87.222,278.955,87.855Z" transform="translate(-265.593 -83.018)"/>
      <path id="Path_293" data-name="Path 293" class="cls-17" d="M277.4,101.1l2.811,2.249,2.249-1.617-.281-.562Z" transform="translate(-266.638 -88.391)"/>
      <path id="Path_294" data-name="Path 294" class="cls-20" d="M284.633,99.7l-3.233,3.233,2.46,1.546,1.195-4.006Z" transform="translate(-267.827 -87.975)"/>
      <path id="Path_295" data-name="Path 295" class="cls-20" d="M276.462,99.8l3.3,3.163-2.39,1.546-1.476-3.8Z" transform="translate(-266.193 -88.004)"/>
      <path id="Path_296" data-name="Path 296" class="cls-20" d="M270.2,126.8a2.882,2.882,0,0,0,.07.773,29.106,29.106,0,0,0,14.549.633c0-.281.07-.492.07-.773C276.877,128.768,272.168,127.573,270.2,126.8Z" transform="translate(-264.499 -96.027)"/>
      <path id="Path_297" data-name="Path 297" class="cls-20" d="M270.3,129.9a2.882,2.882,0,0,0,.07.773,29.771,29.771,0,0,0,14.2.7c0-.211.07-.492.07-.773C276.977,131.8,272.338,130.673,270.3,129.9Z" transform="translate(-264.529 -96.948)"/>
      <path id="Path_298" data-name="Path 298" class="cls-17" d="M290.332,130.791a1.548,1.548,0,0,1,.211.843c-.211,1.335.141,1.406.211,2.109a1.788,1.788,0,0,1-.281,1.195c-.141.211-.422.633-.773.633-.633-.07-1.406-1.265-1.125-1.827a2.138,2.138,0,0,0,.211-1.476c-.07-.562.141-.7.562-.984C289.418,131.212,290.191,130.65,290.332,130.791Z" transform="translate(-269.941 -97.206)"/>
    </g>
    <g id="Group_104" data-name="Group 104" transform="translate(108.381 111.403)">
      <g id="Group_98" data-name="Group 98" transform="translate(62.274)">
        <path id="Path_299" data-name="Path 299" class="cls-7" d="M273.163,216.555a6,6,0,0,0,2.46-.492c.773-.562,2.671,1.687.843,2.882s-3.725,2.39-4.709,2.179c-.984-.141-1.546-.351-1.617-.562s-.141-4.147-.141-4.147Z" transform="translate(-250.882 -175.577)"/>
        <path id="Path_300" data-name="Path 300" class="cls-11" d="M273.45,212.5V217s-2.53,1.125-4.217.492l-.633-3.022Z" transform="translate(-250.466 -174.545)"/>
        <path id="Path_301" data-name="Path 301" class="cls-7" d="M283.463,220.155a6,6,0,0,0,2.46-.492c.773-.562,2.671,1.687.843,2.882s-3.725,2.39-4.709,2.179c-.984-.141-1.546-.351-1.617-.562s-.141-4.147-.141-4.147Z" transform="translate(-253.943 -176.646)"/>
        <path id="Path_302" data-name="Path 302" class="cls-17" d="M283.249,190.193s.7-1.195,1.265-1.968c.562-.7,1.335-1.9.633-2.46a6.3,6.3,0,0,0-2.6-1.265c-.633.07-1.617.843-1.265,1.265s-.281,2.39-.281,2.39Z" transform="translate(-254.151 -166.225)"/>
        <path id="Path_303" data-name="Path 303" class="cls-15" d="M249.368,173.957a2.556,2.556,0,0,1,2.6-.7l1.968.562,5.342,2.53L263,178.315l.281,11.878.351,5.763-2.179,1.827c-2.6,2.46-10.683-1.827-10.683-1.827-1.335-4.5-3.374-16.8-3.374-16.8A8.428,8.428,0,0,1,249.368,173.957Z" transform="translate(-244.167 -162.851)"/>
        <path id="Path_304" data-name="Path 304" class="cls-11" d="M264.694,200.57s5.623-1.195,9.067-1.476a2.181,2.181,0,0,1,2.39,2.109,101.954,101.954,0,0,1-.141,13.776l-2.109,1.335a1.5,1.5,0,0,1-2.249-1.195l-.351-7.661c0-.633-.843.141-1.335.562-1.546,1.335-5.342,2.882-7.661,2.038,0,0-6.888-2.109-8.5-6.607Z" transform="translate(-246.069 -170.557)"/>
        <path id="Path_305" data-name="Path 305" class="cls-16" d="M264.151,216.384l1.968-.984-1.125,17.08a.865.865,0,0,1-.351.7,1.311,1.311,0,0,1-.7.351c-.492.07-.914-.422-.843-1.054Z" transform="translate(-248.829 -175.406)"/>
        <path id="Path_306" data-name="Path 306" class="cls-16" d="M244.065,206.084l1.9-.984L244.7,220.844a1.129,1.129,0,0,1-.351.773,2.466,2.466,0,0,1-.562.351c-.562.141-.984-.422-.984-1.125Z" transform="translate(-242.8 -172.346)"/>
        <path id="Path_307" data-name="Path 307" class="cls-16" d="M280.727,211.4l2.249,13.706a.924.924,0,0,1-.211.843.607.607,0,0,1-.422.211.669.669,0,0,1-.7-.562L278.9,212.033Z" transform="translate(-253.527 -174.218)"/>
        <path id="Path_308" data-name="Path 308" class="cls-17" d="M257.695,159.391a6.321,6.321,0,0,1,3.233-.07c2.109.633,3.163,2.6,3.655,4.569s.633,4.92-.492,6.747c-.7,1.125-2.319.914-3.444.633a12.968,12.968,0,0,1-4.287-1.827c-1.546-1.195-2.39-3.8-2.46-5.623C253.829,162.2,255.727,159.742,257.695,159.391Z" transform="translate(-246.097 -158.687)"/>
        <path id="Path_309" data-name="Path 309" class="cls-17" d="M256.7,173.1a1.9,1.9,0,0,0,.562.492,14.624,14.624,0,0,0,4.287,1.827,2.079,2.079,0,0,0,.7.141l-.141.773a9.979,9.979,0,0,1-4.006.211A1.589,1.589,0,0,1,256.7,175v-1.9Z" transform="translate(-246.93 -162.837)"/>
        <path id="Path_310" data-name="Path 310" class="cls-20" d="M266,179.9s3.093-.07,3.866,2.038c.773,2.179,2.53,6.466,2.53,6.466s2.6-2.038,3.585-2.249c0,0,2.179,1.125,2.671,2.249,0,0-3.233,5.623-7.239,7.31a28.038,28.038,0,0,1-6.4-9.84C265.015,185.944,262.414,181.657,266,179.9Z" transform="translate(-249.13 -164.858)"/>
        <path id="Path_311" data-name="Path 311" class="cls-7" d="M245.074,182.491c8.083,1.687,12.16,5.974,13.495,7.591a2.219,2.219,0,0,1,.492,1.335V206.95C248.237,205.123,243.6,198.8,243.6,198.8V183.686A1.2,1.2,0,0,1,245.074,182.491Z" transform="translate(-243.036 -165.621)"/>
        <path id="Path_312" data-name="Path 312" class="cls-7" d="M265.5,214.734s9.348-.914,12.23-4.147c0,0,.211-2.179-.7-1.9a35.533,35.533,0,0,1-11.527,3.585Z" transform="translate(-249.545 -173.405)"/>
        <path id="Path_313" data-name="Path 313" class="cls-7" d="M264.047,160.186l1.406-.633a10.986,10.986,0,0,0-7.731-.633,3.109,3.109,0,0,0-1.054.351A5.185,5.185,0,0,0,254,163.63c.07,1.9.914,4.428,2.46,5.623a13.079,13.079,0,0,0,3.3,1.546c.351-.141.773-1.9.773-1.9-.633-.351-1.195-2.53-.492-2.952.7-.351,1.195.984,1.195.984a1.065,1.065,0,0,0,.7-1.406,1.648,1.648,0,0,1-.141-.773.917.917,0,0,1,.843-.914c.211,0,.422-.07.633-.07a27.6,27.6,0,0,1,3.444.07A14.229,14.229,0,0,0,264.047,160.186Z" transform="translate(-246.124 -158.499)"/>
      </g>
      <g id="Group_99" data-name="Group 99" transform="translate(114.777 30.776)">
        <path id="Path_314" data-name="Path 314" class="cls-2" d="M347.863,260.254a6,6,0,0,0,2.46-.492c.773-.562,2.671,1.687.843,2.882s-3.725,2.39-4.709,2.179c-.984-.141-1.546-.351-1.617-.562s-.141-4.147-.141-4.147Z" transform="translate(-325.582 -219.338)"/>
        <path id="Path_315" data-name="Path 315" class="cls-7" d="M348.15,256.2v4.5s-2.53,1.125-4.217.492l-.633-3.022Z" transform="translate(-325.166 -218.305)"/>
        <path id="Path_316" data-name="Path 316" class="cls-2" d="M358.163,263.954a6,6,0,0,0,2.46-.492c.773-.562,2.671,1.687.843,2.882s-3.725,2.39-4.709,2.179c-.984-.141-1.546-.351-1.617-.562s-.141-4.147-.141-4.147Z" transform="translate(-328.643 -220.437)"/>
        <path id="Path_317" data-name="Path 317" class="cls-11" d="M324.617,217.906a2.748,2.748,0,0,1,2.671-.843l1.617.492,5.342,2.53,3.725,1.968.351,11.878.351,5.763-2.179,1.827c-2.6,2.46-10.684-1.827-10.684-1.827-1.335-4.5-2.811-16.658-2.811-16.658A7.868,7.868,0,0,1,324.617,217.906Z" transform="translate(-319.134 -206.65)"/>
        <path id="Path_318" data-name="Path 318" class="cls-7" d="M339.494,244.211s6.4-1.335,9.84-1.617a2.181,2.181,0,0,1,2.39,2.109c.141,3.093-.492,9.278-.914,13.917l-2.109,1.265a1.5,1.5,0,0,1-2.249-1.195l-.351-7.661c0-.633-.843.141-1.335.562-1.546,1.335-5.342,2.882-7.661,2.038,0,0-6.888-2.109-8.5-6.607Z" transform="translate(-320.798 -214.259)"/>
        <path id="Path_319" data-name="Path 319" class="cls-16" d="M338.851,260.084l1.968-.984-1.125,17.08a.865.865,0,0,1-.351.7,1.311,1.311,0,0,1-.7.351c-.492.07-.914-.422-.843-1.054Z" transform="translate(-323.529 -219.167)"/>
        <path id="Path_320" data-name="Path 320" class="cls-16" d="M318.765,249.884l1.9-.984L319.4,264.644a.865.865,0,0,1-.351.7,2.465,2.465,0,0,1-.562.351c-.562.141-.984-.422-.984-1.125Z" transform="translate(-317.5 -216.136)"/>
        <path id="Path_321" data-name="Path 321" class="cls-16" d="M355.427,255.1l2.249,13.706a.924.924,0,0,1-.211.843.607.607,0,0,1-.422.211.669.669,0,0,1-.7-.562L353.6,255.733Z" transform="translate(-328.227 -217.978)"/>
        <path id="Path_322" data-name="Path 322" class="cls-17" d="M332.395,203.091a6.321,6.321,0,0,1,3.233-.07c2.109.633,3.163,2.6,3.655,4.569s.633,4.92-.492,6.747c-.7,1.125-2.319.914-3.444.633a12.968,12.968,0,0,1-4.287-1.827c-1.546-1.195-2.39-3.8-2.46-5.623C328.529,205.9,330.427,203.442,332.395,203.091Z" transform="translate(-320.797 -202.448)"/>
        <path id="Path_323" data-name="Path 323" class="cls-17" d="M336.25,219.119a12.969,12.969,0,0,1-4.287-1.827,3.518,3.518,0,0,1-.562-.492h0v1.9a2.526,2.526,0,0,0,2.038,1.125,7.174,7.174,0,0,0,3.3.211l.141-.773C336.671,219.19,336.461,219.19,336.25,219.119Z" transform="translate(-321.63 -206.598)"/>
        <path id="Path_324" data-name="Path 324" class="cls-7" d="M319.774,226.192c8.083,1.687,12.159,5.974,13.495,7.591a2.219,2.219,0,0,1,.492,1.335v15.533C322.937,248.824,318.3,242.5,318.3,242.5V227.457A1.247,1.247,0,0,1,319.774,226.192Z" transform="translate(-317.736 -209.383)"/>
        <path id="Path_325" data-name="Path 325" class="cls-7" d="M340.2,258.534s9.348-.914,12.23-4.147c0,0,.211-2.179-.7-1.9a35.532,35.532,0,0,1-11.527,3.585Z" transform="translate(-324.245 -217.195)"/>
        <path id="Path_326" data-name="Path 326" class="cls-15" d="M331.122,217.4l-.422,1.265a5.827,5.827,0,0,0,6.607,1.968l-.562-.773C336.674,219.79,332.809,219.93,331.122,217.4Z" transform="translate(-321.422 -206.776)"/>
        <path id="Path_327" data-name="Path 327" class="cls-17" d="M358.7,240.435a4.618,4.618,0,0,1,1.335-.141c.492,0,.773.633,1.195.843a2.277,2.277,0,0,1,1.054,1.827c0,.843-.351,1.757-.843,1.757s-.562.07-.7-.281-.914-1.546-.914-1.546Z" transform="translate(-329.742 -213.575)"/>
        <path id="Path_328" data-name="Path 328" class="cls-15" d="M353.888,235.135c-.984.281-6.4.633-6.4.633s-.633-6.888-1.406-9a4.293,4.293,0,0,0-2.811-2.671c-3.585,1.757-1.687,6.255-1.687,6.255a59.742,59.742,0,0,1,2.39,8.786,1.372,1.372,0,0,0,1.617,1.125c4.779-.773,9.278-1.9,9.278-1.9A6.669,6.669,0,0,0,353.888,235.135Z" transform="translate(-324.508 -208.767)"/>
        <path id="Path_329" data-name="Path 329" class="cls-7" d="M339.209,203.772c-2.952-2.46-7.029-1.125-7.029-1.125h0a3.478,3.478,0,0,0-.914.281,5.185,5.185,0,0,0-2.671,4.358c.07,1.9.914,4.428,2.46,5.623a13.079,13.079,0,0,0,3.3,1.546c.351-.141.773-1.9.773-1.9-.633-.351-1.195-2.53-.492-2.952.7-.351,1.195.984,1.195.984a1.065,1.065,0,0,0,.7-1.406,2.244,2.244,0,0,1,0-1.617c2.952-.07,3.3.984,3.3.984A4.451,4.451,0,0,0,339.209,203.772Z" transform="translate(-320.794 -202.285)"/>
      </g>
      <g id="Group_100" data-name="Group 100" transform="translate(33.034 16.065)">
        <path id="Path_330" data-name="Path 330" class="cls-2" d="M231.563,240.455a6,6,0,0,0,2.46-.492c.773-.562,2.671,1.687.843,2.882s-3.725,2.39-4.709,2.179c-.984-.141-1.546-.351-1.617-.562s-.141-4.147-.141-4.147Z" transform="translate(-209.282 -198.743)"/>
        <path id="Path_331" data-name="Path 331" class="cls-7" d="M231.85,236.4v4.5s-2.53,1.125-4.217.492L227,238.368Z" transform="translate(-208.866 -197.711)"/>
        <path id="Path_332" data-name="Path 332" class="cls-2" d="M241.863,244.155a6,6,0,0,0,2.46-.492c.773-.562,2.671,1.687.843,2.882s-3.725,2.39-4.709,2.179c-.984-.141-1.546-.351-1.617-.562s-.141-4.147-.141-4.147Z" transform="translate(-212.343 -199.843)"/>
        <path id="Path_333" data-name="Path 333" class="cls-11" d="M207.8,197.857a2.556,2.556,0,0,1,2.6-.7l1.968.562,5.342,2.53,3.725,1.968.351,11.878.351,5.763-2.179,1.827c-2.6,2.46-10.684-1.827-10.684-1.827-1.335-4.5-3.374-16.869-3.374-16.869A8.171,8.171,0,0,1,207.8,197.857Z" transform="translate(-202.597 -186.018)"/>
        <path id="Path_334" data-name="Path 334" class="cls-7" d="M223.194,224.47s5.623-1.195,9.067-1.476a2.181,2.181,0,0,1,2.39,2.109,101.966,101.966,0,0,1-.141,13.776l-2.109,1.335a1.5,1.5,0,0,1-2.249-1.195l-.351-7.661c0-.633-.843.141-1.335.562-1.546,1.335-5.342,2.882-7.661,2.038,0,0-6.888-2.109-8.5-6.607Z" transform="translate(-204.498 -193.724)"/>
        <path id="Path_335" data-name="Path 335" class="cls-16" d="M222.551,240.284l1.968-.984-1.125,17.08a.865.865,0,0,1-.351.7,1.311,1.311,0,0,1-.7.351c-.492.07-.914-.422-.843-1.054Z" transform="translate(-207.229 -198.573)"/>
        <path id="Path_336" data-name="Path 336" class="cls-16" d="M202.465,230.084l1.9-.984L203.1,244.844a1.129,1.129,0,0,1-.351.773,2.466,2.466,0,0,1-.562.351c-.562.141-.984-.422-.984-1.125Z" transform="translate(-201.2 -195.542)"/>
        <path id="Path_337" data-name="Path 337" class="cls-16" d="M239.127,235.3l2.249,13.706a.924.924,0,0,1-.211.843.608.608,0,0,1-.422.211.669.669,0,0,1-.7-.562L237.3,235.933Z" transform="translate(-211.927 -197.384)"/>
        <path id="Path_338" data-name="Path 338" class="cls-17" d="M216.122,183.291a6.321,6.321,0,0,1,3.233-.07c2.109.633,3.163,2.6,3.725,4.569.492,1.968.633,4.92-.492,6.747-.7,1.125-2.319.914-3.444.633a12.968,12.968,0,0,1-4.287-1.827c-1.546-1.195-2.39-3.8-2.46-5.623C212.256,186.1,214.154,183.642,216.122,183.291Z" transform="translate(-204.525 -181.854)"/>
        <path id="Path_339" data-name="Path 339" class="cls-17" d="M215.1,197a1.894,1.894,0,0,0,.562.492,14.624,14.624,0,0,0,4.287,1.827,2.079,2.079,0,0,0,.7.141l-.141.773a6.12,6.12,0,0,1-3.233-.07c-.773-.07-2.109-.492-2.109-1.265l-.07-1.9Z" transform="translate(-205.33 -186.004)"/>
        <path id="Path_340" data-name="Path 340" class="cls-7" d="M203.474,206.391c8.083,1.687,12.16,5.974,13.495,7.591a2.219,2.219,0,0,1,.492,1.335V230.85C206.637,229.023,202,222.7,202,222.7V207.586A1.2,1.2,0,0,1,203.474,206.391Z" transform="translate(-201.436 -188.788)"/>
        <path id="Path_341" data-name="Path 341" class="cls-7" d="M223.9,238.734s9.348-.914,12.23-4.147c0,0,.211-2.179-.7-1.9a35.533,35.533,0,0,1-11.527,3.585Z" transform="translate(-207.945 -196.601)"/>
        <path id="Path_342" data-name="Path 342" class="cls-17" d="M242,219.835a4.618,4.618,0,0,1,1.335-.141c.492,0,.773.633,1.195.843a2.277,2.277,0,0,1,1.054,1.827c0,.843-.351,1.757-.843,1.757-.422,0-.562.07-.7-.281s-.914-1.546-.914-1.546Z" transform="translate(-213.323 -192.743)"/>
        <path id="Path_343" data-name="Path 343" class="cls-15" d="M241.2,219.411l.914-.211a7.082,7.082,0,0,1,.843,3.022l-.843.211Z" transform="translate(-213.086 -192.6)"/>
        <path id="Path_344" data-name="Path 344" class="cls-10" d="M236.188,214.635c-.984.281-6.4.633-6.4.633s-.633-6.888-1.406-9a4.293,4.293,0,0,0-2.811-2.671c-3.585,1.757-1.687,6.255-1.687,6.255a59.742,59.742,0,0,1,2.39,8.786,1.372,1.372,0,0,0,1.617,1.125c4.779-.773,9.278-1.9,9.278-1.9A6.669,6.669,0,0,0,236.188,214.635Z" transform="translate(-207.792 -187.965)"/>
        <path id="Path_345" data-name="Path 345" class="cls-21" d="M222.462,186.939s3.585-3.8,0-4.85-7.029-.984-9.559.281c-2.6,1.265-2.249,5.061-1.827,5.974a17.831,17.831,0,0,0,2.952,4.217c.07.07.07.07.141.07.07.07.141.07.211.141a13.08,13.08,0,0,0,3.3,1.546c.351-.141.773-1.9.773-1.9-.633-.351-1.195-2.53-.492-2.952.7-.351,1.195.984,1.195.984a1.065,1.065,0,0,0,.7-1.406,2.245,2.245,0,0,1,0-1.617A6.17,6.17,0,0,0,222.462,186.939Z" transform="translate(-204.047 -181.355)"/>
        <path id="Path_346" data-name="Path 346" class="cls-15" d="M214.862,197.5l-.562,1.265a5.1,5.1,0,0,0,6.4,1.757l-.351-.773C220.345,199.819,216.619,200.1,214.862,197.5Z" transform="translate(-205.092 -186.153)"/>
      </g>
      <g id="Group_101" data-name="Group 101" transform="translate(85.538 46.855)">
        <path id="Path_347" data-name="Path 347" class="cls-2" d="M306.263,284.155a6,6,0,0,0,2.46-.492c.773-.562,2.671,1.687.843,2.882s-3.725,2.39-4.709,2.179c-.984-.141-1.546-.351-1.617-.562s-.141-4.147-.141-4.147Z" transform="translate(-283.982 -242.519)"/>
        <path id="Path_348" data-name="Path 348" class="cls-7" d="M306.55,280.2v4.5s-2.53,1.125-4.217.492l-.633-3.022Z" transform="translate(-283.566 -241.516)"/>
        <path id="Path_349" data-name="Path 349" class="cls-2" d="M316.563,287.855a6,6,0,0,0,2.46-.492c.773-.562,2.671,1.687.843,2.882s-3.725,2.39-4.709,2.179c-.984-.141-1.546-.351-1.617-.562s-.141-4.147-.141-4.147Z" transform="translate(-287.043 -243.618)"/>
        <path id="Path_350" data-name="Path 350" class="cls-17" d="M316.349,257.793s.7-1.195,1.265-1.968c.562-.7,1.335-1.9.633-2.46a6.3,6.3,0,0,0-2.6-1.265c-.633.07-1.617.843-1.265,1.265s-.281,2.39-.281,2.39Z" transform="translate(-287.251 -233.167)"/>
        <path id="Path_351" data-name="Path 351" class="cls-18" d="M282.5,241.557a2.556,2.556,0,0,1,2.6-.7l1.968.562,5.342,2.53,3.725,1.968.351,11.878.351,5.763-2.179,1.827c-2.6,2.46-10.684-1.827-10.684-1.827-1.335-4.5-3.374-16.8-3.374-16.8A8.4,8.4,0,0,1,282.5,241.557Z" transform="translate(-277.297 -229.793)"/>
        <path id="Path_352" data-name="Path 352" class="cls-7" d="M297.894,268.17s5.623-1.195,9.067-1.476a2.181,2.181,0,0,1,2.39,2.109,101.964,101.964,0,0,1-.141,13.776l-2.109,1.335a1.5,1.5,0,0,1-2.249-1.195l-.351-7.661c0-.633-.843.141-1.335.562-1.546,1.335-5.342,2.882-7.661,2.038,0,0-6.888-2.109-8.5-6.607Z" transform="translate(-279.198 -237.499)"/>
        <path id="Path_353" data-name="Path 353" class="cls-16" d="M297.251,283.984l1.968-.984-1.125,17.079a.865.865,0,0,1-.351.7,1.311,1.311,0,0,1-.7.351c-.492.07-.914-.422-.843-1.054Z" transform="translate(-281.929 -242.348)"/>
        <path id="Path_354" data-name="Path 354" class="cls-16" d="M277.165,273.784l1.9-.984L277.8,288.544a1.129,1.129,0,0,1-.351.773,2.466,2.466,0,0,1-.562.351c-.562.141-.984-.422-.984-1.125Z" transform="translate(-275.9 -239.317)"/>
        <path id="Path_355" data-name="Path 355" class="cls-16" d="M313.827,279.1l2.249,13.706a.924.924,0,0,1-.211.843.607.607,0,0,1-.422.211.669.669,0,0,1-.7-.562L312,279.733Z" transform="translate(-286.627 -241.189)"/>
        <path id="Path_356" data-name="Path 356" class="cls-17" d="M290.822,226.991a6.321,6.321,0,0,1,3.233-.07c2.109.633,3.163,2.6,3.725,4.569.492,1.968.633,4.92-.492,6.747-.7,1.125-2.319.914-3.444.633a13.627,13.627,0,0,1-4.287-1.827c-1.546-1.195-2.39-3.8-2.46-5.623C286.956,229.8,288.854,227.342,290.822,226.991Z" transform="translate(-279.225 -225.629)"/>
        <path id="Path_357" data-name="Path 357" class="cls-17" d="M289.8,240.7a1.894,1.894,0,0,0,.562.492,14.625,14.625,0,0,0,4.287,1.827,2.079,2.079,0,0,0,.7.141l-.141.773a9.979,9.979,0,0,1-4.006.211A1.589,1.589,0,0,1,289.8,242.6v-1.9Z" transform="translate(-280.03 -229.779)"/>
        <path id="Path_358" data-name="Path 358" class="cls-7" d="M299.1,247.6s3.093-.07,3.866,2.038c.773,2.179,2.53,6.466,2.53,6.466s2.6-2.038,3.585-2.249c0,0,2.179,1.125,2.671,2.249,0,0-3.233,5.623-7.239,7.31a28.038,28.038,0,0,1-6.4-9.84S295.514,249.287,299.1,247.6Z" transform="translate(-282.23 -231.829)"/>
        <path id="Path_359" data-name="Path 359" class="cls-7" d="M278.174,250.183c8.083,1.687,12.159,5.974,13.495,7.591a2.219,2.219,0,0,1,.492,1.335v15.533c-10.824-1.827-15.463-8.153-15.463-8.153V251.378A1.171,1.171,0,0,1,278.174,250.183Z" transform="translate(-276.136 -232.585)"/>
        <path id="Path_360" data-name="Path 360" class="cls-7" d="M298.6,282.434s9.348-.914,12.23-4.147c0,0,.211-2.179-.7-1.9a35.532,35.532,0,0,1-11.527,3.585Z" transform="translate(-282.645 -240.376)"/>
        <path id="Path_361" data-name="Path 361" class="cls-7" d="M297.245,230.741s2.319-1.968.7-3.093c-.492-.351-.984-.351-1.406-.843a5.647,5.647,0,0,0-1.476-1.406c-.562-.281-1.054.281-1.546.422-.984.281-1.687-.843-2.671-.633-.351.07-.562.351-.843.492-.7.422-2.6.07-2.53,1.335a1.775,1.775,0,0,1-.843,1.687,1.656,1.656,0,0,0-.843,1.687,4.2,4.2,0,0,0,.422.773,2.821,2.821,0,0,1,.211,1.054,4.092,4.092,0,0,0,.773,2.179,11.287,11.287,0,0,0,1.968,2.109,13.08,13.08,0,0,0,3.3,1.546c.351-.141.773-1.9.773-1.9-.633-.351-1.195-2.53-.492-2.952.7-.351,1.195.984,1.195.984a1.065,1.065,0,0,0,.7-1.406,2.244,2.244,0,0,1,0-1.617A5.413,5.413,0,0,0,297.245,230.741Z" transform="translate(-278.83 -225.162)"/>
      </g>
      <g id="Group_102" data-name="Group 102" transform="translate(0 36.488)">
        <path id="Path_362" data-name="Path 362" class="cls-2" d="M184.463,267.954a6,6,0,0,0,2.46-.492c.773-.562,2.671,1.687.843,2.882s-3.725,2.39-4.709,2.179c-.984-.141-1.546-.351-1.617-.562s-.141-4.147-.141-4.147Z" transform="translate(-162.252 -227.337)"/>
        <path id="Path_363" data-name="Path 363" class="cls-7" d="M184.75,264v4.5s-2.53,1.125-4.217.492l-.633-3.022Z" transform="translate(-161.836 -226.335)"/>
        <path id="Path_364" data-name="Path 364" class="cls-2" d="M194.763,271.655a6,6,0,0,0,2.46-.492c.773-.562,2.671,1.687.843,2.882s-3.725,2.39-4.709,2.179c-.984-.141-1.546-.351-1.617-.562s-.141-4.147-.141-4.147Z" transform="translate(-165.313 -228.437)"/>
        <path id="Path_365" data-name="Path 365" class="cls-17" d="M194.549,241.593s.7-1.195,1.265-1.968c.562-.7,1.335-1.9.633-2.46a6.3,6.3,0,0,0-2.6-1.265c-.633.07-1.617.843-1.265,1.265s-.281,2.39-.281,2.39Z" transform="translate(-165.521 -217.985)"/>
        <path id="Path_366" data-name="Path 366" class="cls-18" d="M160.8,225.457a2.556,2.556,0,0,1,2.6-.7l1.968.562,5.342,2.46,3.725,1.968.351,11.878.351,5.763-2.179,1.827c-2.6,2.46-10.683-1.827-10.683-1.827-1.335-4.5-3.374-16.8-3.374-16.8A7.3,7.3,0,0,1,160.8,225.457Z" transform="translate(-155.597 -214.642)"/>
        <path id="Path_367" data-name="Path 367" class="cls-7" d="M176.094,252.07s5.623-1.195,9.067-1.476a2.181,2.181,0,0,1,2.39,2.109,101.958,101.958,0,0,1-.141,13.776l-2.109,1.265a1.5,1.5,0,0,1-2.249-1.195l-.351-7.661c0-.633-.843.141-1.335.562-1.546,1.335-5.342,2.882-7.661,2.038,0,0-6.888-2.109-8.5-6.607Z" transform="translate(-157.469 -222.348)"/>
        <path id="Path_368" data-name="Path 368" class="cls-16" d="M175.451,267.784l1.968-.984-1.125,17.08a.865.865,0,0,1-.351.7,1.311,1.311,0,0,1-.7.351c-.492.07-.914-.422-.843-1.054Z" transform="translate(-160.199 -227.167)"/>
        <path id="Path_369" data-name="Path 369" class="cls-16" d="M155.465,257.584l1.9-.984L156.1,272.344a1.129,1.129,0,0,1-.351.773,2.462,2.462,0,0,1-.562.351c-.562.141-.984-.422-.984-1.125Z" transform="translate(-154.2 -224.136)"/>
        <path id="Path_370" data-name="Path 370" class="cls-16" d="M192.127,262.9l2.249,13.706a.924.924,0,0,1-.211.843.607.607,0,0,1-.422.211.669.669,0,0,1-.7-.562L190.3,263.533Z" transform="translate(-164.927 -226.008)"/>
        <path id="Path_371" data-name="Path 371" class="cls-17" d="M169,210.891a6.321,6.321,0,0,1,3.233-.07c2.109.633,3.163,2.6,3.655,4.569s.633,4.92-.492,6.747c-.7,1.125-2.319.914-3.444.633a13.627,13.627,0,0,1-4.287-1.827c-1.546-1.195-2.39-3.8-2.46-5.623C165.2,213.7,167.027,211.172,169,210.891Z" transform="translate(-157.469 -210.477)"/>
        <path id="Path_372" data-name="Path 372" class="cls-7" d="M167.941,210.825a6.871,6.871,0,0,1,4.287-.141c1.968.562,3.022,2.39,3.585,4.217a6.574,6.574,0,0,1-2.671.492,2.245,2.245,0,0,0,0,1.617,1.022,1.022,0,0,1-.7,1.406s-.492-1.335-1.195-.984-.211,2.53.492,2.952c0,0-.492,1.757-.773,1.9a10.953,10.953,0,0,1-3.3-1.546c-1.546-1.195-2.39-3.8-2.46-5.623A5.888,5.888,0,0,1,167.941,210.825Z" transform="translate(-157.469 -210.412)"/>
        <path id="Path_373" data-name="Path 373" class="cls-17" d="M168.1,224.6a1.894,1.894,0,0,0,.562.492,14.624,14.624,0,0,0,4.287,1.827,2.079,2.079,0,0,0,.7.141l-.141.773a9.979,9.979,0,0,1-4.006.211A1.589,1.589,0,0,1,168.1,226.5v-1.9Z" transform="translate(-158.33 -214.628)"/>
        <path id="Path_374" data-name="Path 374" class="cls-18" d="M177.3,231.4s3.093-.07,3.866,2.038c.773,2.179,2.53,6.466,2.53,6.466a19.813,19.813,0,0,1,3.585-2.319s2.179,1.125,2.671,2.319c0,0-3.233,5.623-7.239,7.31a28.038,28.038,0,0,1-6.4-9.84S173.714,233.157,177.3,231.4Z" transform="translate(-160.5 -216.648)"/>
        <path id="Path_375" data-name="Path 375" class="cls-7" d="M156.376,233.991c8.083,1.687,12.159,5.974,13.495,7.591a2.219,2.219,0,0,1,.492,1.335V258.45C159.539,256.623,154.9,250.3,154.9,250.3V235.186A1.229,1.229,0,0,1,156.376,233.991Z" transform="translate(-154.408 -217.412)"/>
        <path id="Path_376" data-name="Path 376" class="cls-7" d="M176.8,266.234s9.348-.914,12.23-4.147c0,0,.211-2.179-.7-1.9a35.531,35.531,0,0,1-11.527,3.585Z" transform="translate(-160.915 -225.195)"/>
      </g>
      <g id="Group_103" data-name="Group 103" transform="translate(52.504 66.558)">
        <path id="Path_377" data-name="Path 377" class="cls-17" d="M269.3,291.035a4.618,4.618,0,0,1,1.335-.141c.492,0,.773.633,1.195.843a2.277,2.277,0,0,1,1.054,1.827c0,.843-.351,1.757-.843,1.757-.422,0-.562.07-.7-.281s-.914-1.546-.914-1.546Z" transform="translate(-240.904 -264.392)"/>
        <path id="Path_378" data-name="Path 378" class="cls-7" d="M259.163,311.755a6,6,0,0,0,2.46-.492c.773-.562,2.671,1.687.843,2.882s-3.725,2.39-4.709,2.179c-.984-.141-1.546-.351-1.617-.562s-.141-4.147-.141-4.147Z" transform="translate(-236.952 -270.422)"/>
        <path id="Path_379" data-name="Path 379" class="cls-7" d="M259.45,307.7v4.5s-2.53,1.125-4.217.492l-.633-3.022Z" transform="translate(-236.536 -269.39)"/>
        <path id="Path_380" data-name="Path 380" class="cls-7" d="M269.463,315.355a6,6,0,0,0,2.46-.492c.773-.562,2.671,1.687.843,2.882s-3.725,2.39-4.709,2.179c-.984-.141-1.546-.351-1.617-.562s-.141-4.147-.141-4.147Z" transform="translate(-240.013 -271.492)"/>
        <path id="Path_381" data-name="Path 381" class="cls-7" d="M235.5,269.157a2.556,2.556,0,0,1,2.6-.7l1.968.562,5.342,2.46,2.46,1.406,1.617,12.441.351,5.763-2.179,1.827c-2.6,2.46-10.683-1.827-10.683-1.827-1.335-4.5-3.374-16.869-3.374-16.869A7.731,7.731,0,0,1,235.5,269.157Z" transform="translate(-230.297 -257.696)"/>
        <path id="Path_382" data-name="Path 382" class="cls-7" d="M250.794,295.77s6.185-1.195,9.629-1.476a2.181,2.181,0,0,1,2.39,2.109,113.957,113.957,0,0,1-.7,13.776L260,311.514a1.5,1.5,0,0,1-2.249-1.195l-.351-7.661c0-.633-.843.141-1.335.562-1.546,1.335-5.342,2.882-7.661,2.038,0,0-6.888-2.109-8.5-6.607Z" transform="translate(-232.169 -265.402)"/>
        <path id="Path_383" data-name="Path 383" class="cls-16" d="M250.151,311.584l1.968-.984-1.125,17.079a.865.865,0,0,1-.351.7,1.311,1.311,0,0,1-.7.351c-.492.07-.914-.422-.843-1.054Z" transform="translate(-234.899 -270.251)"/>
        <path id="Path_384" data-name="Path 384" class="cls-16" d="M230.165,301.384l1.9-.984L230.8,316.144a1.129,1.129,0,0,1-.351.773,2.463,2.463,0,0,1-.562.351c-.562.141-.984-.422-.984-1.125Z" transform="translate(-228.9 -267.221)"/>
        <path id="Path_385" data-name="Path 385" class="cls-16" d="M266.827,306.6l2.249,13.706a.924.924,0,0,1-.211.843.607.607,0,0,1-.422.211.669.669,0,0,1-.7-.562L265,307.233Z" transform="translate(-239.627 -269.063)"/>
        <path id="Path_386" data-name="Path 386" class="cls-17" d="M243.724,254.591a6.321,6.321,0,0,1,3.233-.07c2.109.633,3.163,2.6,3.725,4.569.492,1.968.633,4.92-.492,6.747-.7,1.125-2.319.914-3.444.633a13.627,13.627,0,0,1-4.287-1.827c-1.546-1.195-2.39-3.8-2.46-5.623A5.239,5.239,0,0,1,243.724,254.591Z" transform="translate(-232.197 -253.532)"/>
        <path id="Path_387" data-name="Path 387" class="cls-17" d="M242.8,268.3a1.9,1.9,0,0,0,.562.492,14.624,14.624,0,0,0,4.287,1.827,2.08,2.08,0,0,0,.7.141l-.141.773c-1.476.422-2.53-.211-3.585-.351-.773-.07-1.546-.281-1.757-.984l-.07-1.9Z" transform="translate(-233.03 -257.682)"/>
        <path id="Path_388" data-name="Path 388" class="cls-7" d="M231.076,277.691c8.083,1.687,12.16,5.974,13.495,7.591a2.219,2.219,0,0,1,.492,1.335V302.15C234.239,300.323,229.6,294,229.6,294V278.886A1.229,1.229,0,0,1,231.076,277.691Z" transform="translate(-229.108 -260.466)"/>
        <path id="Path_389" data-name="Path 389" class="cls-7" d="M251.5,310.034s9.348-.914,12.23-4.147c0,0,.211-2.179-.7-1.9a35.532,35.532,0,0,1-11.527,3.585Z" transform="translate(-235.615 -268.28)"/>
        <path id="Path_390" data-name="Path 390" class="cls-7" d="M251.543,253.971a2.272,2.272,0,0,1-3.3,0c-1.827-1.617-9-1.125-8.645,5.482l.843,2.109h0a6.491,6.491,0,0,0,1.827,2.741,13.079,13.079,0,0,0,3.3,1.546c.351-.141.773-1.9.773-1.9-.633-.351-1.195-2.53-.492-2.952.7-.351,1.195.984,1.195.984a1.065,1.065,0,0,0,.7-1.406,2.245,2.245,0,0,1,0-1.617,6.573,6.573,0,0,0,2.671-.492A4.213,4.213,0,0,0,251.543,253.971Z" transform="translate(-232.074 -253.194)"/>
        <path id="Path_391" data-name="Path 391" class="cls-15" d="M242.511,269.1s1.335,1.9,5.553,2.179l.633.914a24.18,24.18,0,0,1-4.92-.633c-1.125-.422-1.476-.843-1.476-1.687Z" transform="translate(-232.882 -257.92)"/>
        <path id="Path_392" data-name="Path 392" class="cls-15" d="M268.5,290.711l.914-.211a7.082,7.082,0,0,1,.843,3.022l-.843.211Z" transform="translate(-240.667 -264.279)"/>
        <path id="Path_393" data-name="Path 393" class="cls-7" d="M263.488,285.835c-.984.281-6.4.633-6.4.633s-.633-6.888-1.406-9a4.293,4.293,0,0,0-2.811-2.671c-3.585,1.757-1.687,6.255-1.687,6.255a59.743,59.743,0,0,1,2.39,8.786,1.372,1.372,0,0,0,1.617,1.125c4.779-.773,9.278-1.9,9.278-1.9A6.669,6.669,0,0,0,263.488,285.835Z" transform="translate(-235.373 -259.614)"/>
      </g>
    </g>
  </g>
</svg>
