<svg xmlns="http://www.w3.org/2000/svg" xmlns:xlink="http://www.w3.org/1999/xlink" viewBox="2284.35 2380.787 307.65 318.978">
  <defs>
    <style>
      .cls-1, .cls-9 {
        fill: #333854;
      }

      .cls-1, .cls-4 {
        opacity: 0.1;
      }

      .cls-2 {
        fill: #f69228;
      }

      .cls-3 {
        fill: #fff;
      }

      .cls-5 {
        fill: #10203b;
      }

      .cls-6 {
        fill: #f69226;
      }

      .cls-7 {
        fill: #f16b32;
      }

      .cls-8 {
        fill: #c9d7e4;
      }

      .cls-10 {
        clip-path: url(#clip-path);
      }

      .cls-11 {
        fill: #3a6daa;
      }

      .cls-12 {
        fill: #274f88;
      }

      .cls-13 {
        fill: #0275bb;
      }

      .cls-14 {
        fill: #f58a1f;
      }

      .cls-15 {
        fill: url(#linear-gradient);
      }

      .cls-16 {
        opacity: 0.25;
      }
    </style>
    <clipPath id="clip-path">
      <path id="Path_1004" data-name="Path 1004" d="M127.192,185.907c0,9.9-6.97,13.878-15.5,8.962-8.588-4.916-15.5-16.99-15.5-26.885s6.97-13.878,15.5-8.962C120.222,164,127.192,176.012,127.192,185.907Z" transform="translate(-96.2 -156.918)"/>
    </clipPath>
    <linearGradient id="linear-gradient" y1="0.5" x2="1" y2="0.5" gradientUnits="objectBoundingBox">
      <stop offset="0" stop-color="#f16b32"/>
      <stop offset="0.33" stop-color="#f16f31"/>
      <stop offset="0.637" stop-color="#f37a2d"/>
      <stop offset="0.933" stop-color="#f58d28"/>
      <stop offset="1" stop-color="#f69226"/>
    </linearGradient>
  </defs>
  <g id="Group_234" data-name="Group 234" transform="translate(2284.375 2380.841)">
    <g id="Group_207" data-name="Group 207" transform="translate(-0.025 161.584)">
      <g id="Group_205" data-name="Group 205">
        <path id="Path_987" data-name="Path 987" class="cls-1" d="M40.767,310.82c-8.277,4.792-21.657,4.792-29.934,0s-8.277-12.509,0-17.3,21.657-4.792,29.934,0S49.044,306.028,40.767,310.82Z" transform="translate(-1.731 -271.099)"/>
        <path id="Path_988" data-name="Path 988" class="cls-2" d="M48.169,282.971V276.25H46.862a14.876,14.876,0,0,0-5.788-5.414c-9.4-5.414-24.644-5.414-34.042,0a15.808,15.808,0,0,0-5.788,5.414H0v6.721H0c0,3.547,2.3,7.157,7.032,9.9,9.4,5.414,24.644,5.414,34.042,0C45.8,290.128,48.169,286.518,48.169,282.971Z" transform="translate(0.016 -262.356)"/>
        <path id="Path_989" data-name="Path 989" class="cls-2" d="M41.064,283.4c-9.4,5.414-24.644,5.414-34.042,0s-9.4-14.251,0-19.666,24.644-5.414,34.042,0S50.462,277.925,41.064,283.4Z" transform="translate(0.025 -259.675)"/>
        <path id="Path_990" data-name="Path 990" class="cls-3" d="M41.068,292.1c-9.4,5.414-24.644,5.414-34.042,0-4.481-2.614-6.846-5.974-7.032-9.4-.187,3.734,2.116,7.468,7.032,10.268,9.4,5.414,24.644,5.414,34.042,0,4.916-2.8,7.219-6.6,7.032-10.268C47.913,286.123,45.611,289.483,41.068,292.1Z" transform="translate(0.022 -268.371)"/>
      </g>
      <g id="Group_206" data-name="Group 206" transform="translate(11.84 7.297)">
        <path id="Path_991" data-name="Path 991" class="cls-3" d="M19.622,282.6a1.035,1.035,0,0,1-.622-.871v-9.086c0-.685,1-1.245,2.178-1.245s2.178.56,2.178,1.245v7.53L45.138,277.5c1.182-.124,2.3.311,2.552.934.249.685-.5,1.369-1.68,1.494l-24.4,2.987a3.459,3.459,0,0,1-1.8-.249C19.747,282.664,19.685,282.6,19.622,282.6Z" transform="translate(-19 -271.4)"/>
      </g>
    </g>
    <g id="Group_209" data-name="Group 209" class="cls-4" transform="translate(68.5 128.941)">
      <g id="Group_208" data-name="Group 208">
        <path id="Path_992" data-name="Path 992" class="cls-5" d="M131.316,242.806l40.389-23.337c4.356-2.552,3.8-6.908-1.245-9.833h0c-5.041-2.925-12.7-3.236-17.052-.685l-40.389,23.337c-4.356,2.552-3.8,6.908,1.245,9.833h0C119.3,245.046,126.96,245.358,131.316,242.806Z" transform="translate(-110.085 -207.223)"/>
      </g>
    </g>
    <g id="Group_214" data-name="Group 214" transform="translate(57.681 79.479)">
      <g id="Group_210" data-name="Group 210" transform="translate(47.422 26.671)">
        <path id="Path_993" data-name="Path 993" class="cls-6" d="M175.746,193.128V190.2l3.485-17.488-3.423-2.116-6.846,3.8-.062,22.528c0,1.494.56,2.552,1.431,2.863h0l3.049,1.929.373-1.431.5-2.614A8.955,8.955,0,0,0,175.746,193.128Z" transform="translate(-168.9 -170.6)"/>
        <path id="Path_994" data-name="Path 994" class="cls-6" d="M177.723,202.938h0c-1.867,1.058-3.423-.124-3.423-2.614l.062-22.528,6.846-3.8-.062,22.528A7.689,7.689,0,0,1,177.723,202.938Z" transform="translate(-170.939 -171.884)"/>
      </g>
      <path id="Path_995" data-name="Path 995" class="cls-7" d="M183.73,144.457c0-5.725-3.983-12.633-8.962-15.5-2.552-1.494-4.854-1.556-6.472-.5h0l-27.2,15.621,14,21.035,25.951-14.874a.061.061,0,0,0,.062-.062l.062-.062h0C182.734,149.187,183.73,147.258,183.73,144.457Z" transform="translate(-110.979 -127.744)"/>
      <path id="Path_996" data-name="Path 996" class="cls-6" d="M158.9,156.378c0-5.85-4.107-13.007-9.211-15.932-2.3-1.307-4.419-1.556-6.037-.871h-.124c-.062.062-.124.062-.187.124a65.195,65.195,0,0,1-30.992,6.6l-3.049-.124,24.707,42.381,1.369-2.614a64.09,64.09,0,0,1,20.786-23.524C157.9,161.419,158.9,159.365,158.9,156.378Z" transform="translate(-98.969 -132.072)"/>
      <path id="Path_997" data-name="Path 997" class="cls-8" d="M132.248,182.949c0-11.264-7.9-24.956-17.674-30.619-4.854-2.8-9.273-3.112-12.447-1.245h0l-2.925,1.68,1-.187c-2.054,2.178-3.3,5.539-3.3,9.957,0,11.264,7.9,24.956,17.674,30.619,3.858,2.24,7.406,2.863,10.268,2.116l-.436.685,2.676-1.556h.062l.124-.062h0C130.319,192.471,132.248,188.55,132.248,182.949Z" transform="translate(-94.286 -136.115)"/>
      <path id="Path_998" data-name="Path 998" class="cls-3" d="M130.195,184.958c0-11.264-7.9-24.956-17.674-30.619-4.792-2.8-9.148-3.049-12.322-1.307l-.436.249c-.124.124-.311.187-.436.311l.871-.187c-2.054,2.178-3.3,5.539-3.3,9.957,0,11.264,7.9,24.956,17.674,30.619,3.858,2.24,7.406,2.863,10.268,2.116l-.436.622C128.017,194.977,130.195,190.87,130.195,184.958Z" transform="translate(-94.286 -136.879)"/>
      <path id="Path_999" data-name="Path 999" class="cls-6" d="M128.048,185.448c0,11.264-7.9,15.869-17.674,10.206S92.7,176.3,92.7,165.035s7.9-15.869,17.674-10.206S128.048,174.183,128.048,185.448Z" transform="translate(-92.7 -137.057)"/>
      <path id="Path_1000" data-name="Path 1000" class="cls-9" d="M127.192,185.907c0,9.9-6.97,13.878-15.5,8.962-8.588-4.916-15.5-16.99-15.5-26.885s6.97-13.878,15.5-8.962C120.222,164,127.192,176.012,127.192,185.907Z" transform="translate(-94.022 -138.762)"/>
      <path id="Path_1001" data-name="Path 1001" class="cls-3" d="M112.343,194.853c-8.588-4.916-15.5-16.99-15.5-26.885,0-5.165,1.929-8.775,4.979-10.268-3.485,1.307-5.725,4.979-5.725,10.58,0,9.9,6.97,21.906,15.5,26.885,4.045,2.365,7.779,2.676,10.517,1.307C119.5,197.467,116.077,196.969,112.343,194.853Z" transform="translate(-93.984 -139.057)"/>
      <g id="Group_212" data-name="Group 212" transform="translate(2.178 18.156)">
        <g id="Group_211" data-name="Group 211" class="cls-10">
          <path id="Path_1002" data-name="Path 1002" class="cls-8" d="M117.4,172.625,139.866,155.2l8.153,14.189-26.387,10.829Z" transform="translate(-104.207 -156.269)"/>
          <path id="Path_1003" data-name="Path 1003" class="cls-6" d="M122.323,188.493c0,1.991-1.369,2.8-3.112,1.8a6.907,6.907,0,0,1-3.112-5.352c0-1.991,1.369-2.8,3.112-1.8A6.907,6.907,0,0,1,122.323,188.493Z" transform="translate(-103.716 -166.661)"/>
        </g>
      </g>
      <g id="Group_213" data-name="Group 213" transform="translate(48.231 42.694)">
        <path id="Path_1005" data-name="Path 1005" class="cls-3" d="M171.134,203.039l-.124-.062a1.934,1.934,0,0,1-.809-1.556v-4.356c0-.622.373-.871.809-.622l.124.062a1.934,1.934,0,0,1,.809,1.556v4.356C171.943,203.039,171.569,203.288,171.134,203.039Z" transform="translate(-170.2 -196.347)"/>
      </g>
    </g>
    <g id="Group_216" data-name="Group 216" class="cls-4" transform="translate(37.144 221.468)">
      <g id="Group_215" data-name="Group 215">
        <path id="Path_1006" data-name="Path 1006" class="cls-5" d="M59.7,367.413l137.349,79.472,116.314-69.328,9.211-13.754-.934,4.854L319.15,355.9l-215.887,8.215-38.024-2.427Z" transform="translate(-59.7 -355.9)"/>
      </g>
    </g>
    <g id="Group_221" data-name="Group 221" transform="translate(36.333 127.932)">
      <g id="Group_217" data-name="Group 217">
        <path id="Path_1007" data-name="Path 1007" class="cls-2" d="M186.663,214.188c0-7.655-5.414-10.766-12.011-6.97L61.7,272.252a7.349,7.349,0,0,0-3.3,5.725c0,2.116,1.494,2.987,3.3,1.929l112.891-65.034c2.987-1.743,5.414-.311,5.414,3.112v12.633c2.178-.124,4.419-.124,6.6-.124Z" transform="translate(-58.398 -205.601)"/>
        <path id="Path_1008" data-name="Path 1008" class="cls-6" d="M61.7,317.743l112.891-41.136c6.659-3.8,12.073-13.193,12.073-20.848V245.677a58.073,58.073,0,0,0-6.6.124v13.816a11.986,11.986,0,0,1-5.414,9.4L61.7,310.089a7.349,7.349,0,0,0-3.3,5.725C58.337,317.93,59.83,318.739,61.7,317.743Z" transform="translate(-58.397 -220.722)"/>
      </g>
      <path id="Path_1009" data-name="Path 1009" class="cls-6" d="M59.7,354.713l137.349,79.472,116.314-69.328,9.211-13.816-.934,4.916L319.15,343.2l-215.887,8.215-38.024-2.427Z" transform="translate(-58.889 -257.568)"/>
      <path id="Path_1010" data-name="Path 1010" class="cls-3" d="M67,323.2v16.865l132.743,76.8,3.547-16.118Z" transform="translate(-61.646 -250.014)"/>
      <path id="Path_1011" data-name="Path 1011" class="cls-2" d="M320.906,286.247,183.806,206.9,60.149,278.842l-.249,1.743,137.349,79.472Z" transform="translate(-58.965 -206.091)"/>
      <g id="Group_218" data-name="Group 218" transform="translate(137.973 86.566)">
        <path id="Path_1012" data-name="Path 1012" class="cls-3" d="M360.381,379.053l32.237-19.106a12.1,12.1,0,0,0,4.854-8.962v-2.552c0-2.054-.871-3.361-2.178-3.734l-63.478,35.286L280.1,407.929l.062,17.114Z" transform="translate(-280.1 -344.7)"/>
      </g>
      <path id="Path_1013" data-name="Path 1013" class="cls-6" d="M201.139,398.986,64.848,320.136l-2.863-1.68L59.371,316.9a6.318,6.318,0,0,0-.871,3.049,2.375,2.375,0,0,0,.933,2.116h0L196.72,401.6Z" transform="translate(-58.436 -247.635)"/>
      <path id="Path_1014" data-name="Path 1014" class="cls-3" d="M277.7,487.573l1.68,1,.311-.56-1.058-.809Z" transform="translate(-141.221 -311.952)"/>
      <path id="Path_1015" data-name="Path 1015" class="cls-3" d="M277.7,451.3l1.8,1.058-.436-1Z" transform="translate(-141.221 -298.393)"/>
      <g id="Group_219" data-name="Group 219" transform="translate(137.288 79.472)">
        <path id="Path_1016" data-name="Path 1016" class="cls-2" d="M282.361,399.952l112.891-65.034c6.659-3.8,12.011-.685,12.011,6.97v2.552c0,7.655-5.414,16.99-12.073,20.848L282.3,430.26c-1.8,1.058-3.3.187-3.3-1.929a7.349,7.349,0,0,1,3.3-5.725l112.891-65.034a11.986,11.986,0,0,0,5.414-9.4v-2.552c0-3.485-2.427-4.854-5.414-3.112L282.361,407.545c-1.8,1.058-3.3.187-3.3-1.929A7.334,7.334,0,0,1,282.361,399.952Z" transform="translate(-279 -333.301)"/>
      </g>
      <g id="Group_220" data-name="Group 220" transform="translate(135.484 78.421)">
        <path id="Path_1017" data-name="Path 1017" class="cls-3" d="M277.9,433.566a7.349,7.349,0,0,1,3.3-5.725l112.891-65.034a11.986,11.986,0,0,0,5.414-9.4v-2.552c0-2.24-1.058-3.672-2.614-3.858a4.677,4.677,0,0,1,.809,2.8v2.552a11.986,11.986,0,0,1-5.414,9.4L279.4,426.783a7.349,7.349,0,0,0-3.3,5.725c0,1.618.871,2.489,2.054,2.365A4.068,4.068,0,0,1,277.9,433.566Z" transform="translate(-276.1 -337.424)"/>
        <path id="Path_1018" data-name="Path 1018" class="cls-3" d="M278,405.04a7.349,7.349,0,0,1,3.3-5.725l112.891-65.034c2.863-1.618,5.477-1.991,7.53-1.245-2.178-1.867-5.6-1.991-9.335.187L279.5,398.256a7.349,7.349,0,0,0-3.3,5.725c0,1.618.871,2.489,2.054,2.365A2.887,2.887,0,0,1,278,405.04Z" transform="translate(-276.138 -331.612)"/>
      </g>
    </g>
    <g id="Group_223" data-name="Group 223" transform="translate(52.885 20.456)">
      <path id="Path_1019" data-name="Path 1019" class="cls-9" d="M397.628,103.971,275.775,33.648a4.915,4.915,0,0,0-4.107-.5h0l-.249.062h-.062l-4.419,1.68,3.921,1.929c0,.062-.062.124-.062.187l-19.852,90.3c-1,4.543,1,9.771,4.419,11.762l118.865,68.643-.436,5.041,4.792-1.867a6.669,6.669,0,0,0,3.423-4.916l19.852-90.3C403.042,111.253,401.051,105.963,397.628,103.971Z" transform="translate(-147.571 -32.903)"/>
      <path id="Path_1020" data-name="Path 1020" class="cls-11" d="M401.9,103.971,280.048,33.648a4.915,4.915,0,0,0-4.107-.5h0l-.249.062h-.062l-4.419,1.68,3.921,1.929c0,.062-.062.124-.062.187L262,96.566l59.619,46.426,84.015-34.228A9.37,9.37,0,0,0,401.9,103.971Z" transform="translate(-151.844 -32.903)"/>
      <path id="Path_1021" data-name="Path 1021" class="cls-12" d="M473.848,161.493l9.273-3.921a11.549,11.549,0,0,0-3.734-9.273L464.7,154.461Z" transform="translate(-228.397 -76.485)"/>
      <path id="Path_1022" data-name="Path 1022" class="cls-8" d="M365.153,213.43l-121.79-70.324c-3.423-1.991-5.414-7.281-4.419-11.762l19.852-90.3c1-4.543,4.605-6.6,8.028-4.605l121.79,70.324c3.423,1.991,5.414,7.281,4.419,11.762l-19.79,90.363C372.248,213.368,368.638,215.421,365.153,213.43Z" transform="translate(-143.039 -33.951)"/>
      <path id="Path_1023" data-name="Path 1023" class="cls-3" d="M404.682,106.083,282.892,35.76a4.9,4.9,0,0,0-4.792-.187,5.129,5.129,0,0,1,3.61.622L403.5,106.519c3.423,1.991,5.414,7.281,4.419,11.762l-19.79,90.363a6.973,6.973,0,0,1-3.236,4.792c2.054-.436,3.8-2.3,4.419-5.228l19.852-90.3C410.1,113.365,408.105,108.075,404.682,106.083Z" transform="translate(-157.924 -33.708)"/>
      <path id="Path_1024" data-name="Path 1024" class="cls-3" d="M365.567,210.74,251,144.648c-3.174-1.8-4.979-6.659-4.045-10.766l18.172-82.646c.934-4.107,4.232-6.037,7.343-4.17l114.571,66.092c3.174,1.8,4.979,6.659,4.045,10.766L372.911,206.57C372.04,210.677,368.741,212.607,365.567,210.74Z" transform="translate(-146.067 -37.982)"/>
      <path id="Path_1025" data-name="Path 1025" class="cls-9" d="M365.567,210.74,251,144.648c-3.174-1.8-4.979-6.659-4.045-10.766l18.172-82.646c.934-4.107,4.232-6.037,7.343-4.17l114.571,66.092c3.174,1.8,4.979,6.659,4.045,10.766L372.911,206.57C372.04,210.677,368.741,212.607,365.567,210.74Z" transform="translate(-146.067 -37.982)"/>
      <path id="Path_1026" data-name="Path 1026" class="cls-13" d="M366.566,210.422,251.995,144.268c-3.174-1.8-4.979-6.659-4.045-10.766l18.172-82.646a6.346,6.346,0,0,1,2.863-4.356c-1.8.5-3.3,2.178-3.858,4.73l-18.172,82.708c-.934,4.107.934,8.962,4.045,10.766L365.57,210.8a4.621,4.621,0,0,0,4.481.187A4.717,4.717,0,0,1,366.566,210.422Z" transform="translate(-146.07 -38.038)"/>
      <path id="Path_1027" data-name="Path 1027" class="cls-9" d="M308.788,286.409l-16.678-2.178L184.7,222.184c-3.423-1.991-9.459-1.743-13.442.56L95.08,266.681,85,265.374V271.1h0a3.963,3.963,0,0,0,2.3,3.547l121.79,70.324c3.423,1.991,9.459,1.743,13.442-.56l82.957-47.857c2.24-1.307,3.361-2.987,3.3-4.543h0Z" transform="translate(-84.994 -103.88)"/>
      <path id="Path_1028" data-name="Path 1028" class="cls-11" d="M228.072,260.519l-7.655-4.419H136.465L95.08,280,85,278.691v5.725h0a3.964,3.964,0,0,0,2.3,3.547l121.79,70.323A12.321,12.321,0,0,0,216,359.594Z" transform="translate(-84.994 -117.197)"/>
      <path id="Path_1029" data-name="Path 1029" class="cls-13" d="M89.479,292.96,85,292.4v5.725h0a3.963,3.963,0,0,0,2.3,3.547l2.116,1.245V292.96Z" transform="translate(-84.994 -130.906)"/>
      <path id="Path_1030" data-name="Path 1030" class="cls-12" d="M286.4,413.042a15.634,15.634,0,0,0,11.451-.685V399.6H286.4Z" transform="translate(-161.059 -171.392)"/>
      <path id="Path_1031" data-name="Path 1031" class="cls-8" d="M209.191,333.5,87.4,263.181c-3.423-1.991-2.987-5.477,1-7.779l82.957-47.857c3.983-2.3,10.02-2.552,13.442-.56l121.79,70.324c3.423,1.991,2.987,5.477-1,7.779l-82.957,47.857C218.651,335.247,212.614,335.5,209.191,333.5Z" transform="translate(-85.033 -98.14)"/>
      <path id="Path_1032" data-name="Path 1032" class="cls-3" d="M305.591,315.171l-82.957,47.857c-3.983,2.3-10.02,2.552-13.442.56L87.4,293.265a4.481,4.481,0,0,1-2.116-2.365c-.56,1.618.124,3.3,2.116,4.419l121.79,70.324c3.423,1.991,9.459,1.742,13.442-.56l82.957-47.857c2.676-1.556,3.734-3.61,3.112-5.414A6.628,6.628,0,0,1,305.591,315.171Z" transform="translate(-85.033 -130.34)"/>
      <g id="Group_222" data-name="Group 222" transform="translate(48.316 111.839)">
        <path id="Path_1033" data-name="Path 1033" class="cls-13" d="M168.462,255.757l-5.539-3.174c-.436-.249-.373-.685.124-1l6.535-3.734a1.92,1.92,0,0,1,1.743-.062l5.539,3.174c.436.249.373.685-.124,1l-6.534,3.734A2.141,2.141,0,0,1,168.462,255.757Z" transform="translate(-162.632 -225.83)"/>
        <path id="Path_1034" data-name="Path 1034" class="cls-13" d="M182.062,263.657l-5.539-3.174c-.436-.249-.373-.685.124-1l6.535-3.734a1.92,1.92,0,0,1,1.743-.062l5.539,3.174c.436.249.373.685-.124,1l-6.535,3.734A2.13,2.13,0,0,1,182.062,263.657Z" transform="translate(-167.768 -228.813)"/>
        <path id="Path_1035" data-name="Path 1035" class="cls-13" d="M195.762,271.457l-5.539-3.174c-.436-.249-.373-.685.124-1l6.534-3.734a1.92,1.92,0,0,1,1.743-.062l5.539,3.174c.436.249.373.685-.124,1l-6.534,3.734A1.75,1.75,0,0,1,195.762,271.457Z" transform="translate(-172.942 -231.759)"/>
        <path id="Path_1036" data-name="Path 1036" class="cls-13" d="M214.662,265.3l-5.539-3.174c-.436-.249-.373-.685.124-1l5.477-3.174a1.92,1.92,0,0,1,1.743-.062l5.539,3.174c.436.249.373.685-.124,1l-5.477,3.174A1.92,1.92,0,0,1,214.662,265.3Z" transform="translate(-180.08 -229.644)"/>
        <path id="Path_1037" data-name="Path 1037" class="cls-13" d="M228.362,273.2l-5.539-3.174c-.436-.249-.373-.685.124-1l5.477-3.174a1.92,1.92,0,0,1,1.743-.062l5.539,3.174c.436.249.373.685-.124,1l-5.477,3.174A1.92,1.92,0,0,1,228.362,273.2Z" transform="translate(-185.254 -232.628)"/>
        <path id="Path_1038" data-name="Path 1038" class="cls-13" d="M242.062,281.1l-5.539-3.174c-.436-.249-.373-.685.124-1l5.477-3.174a1.92,1.92,0,0,1,1.743-.062l5.539,3.174c.436.249.373.685-.124,1l-5.477,3.174A1.923,1.923,0,0,1,242.062,281.1Z" transform="translate(-190.428 -235.611)"/>
        <path id="Path_1039" data-name="Path 1039" class="cls-13" d="M255.762,289l-5.539-3.174c-.436-.249-.373-.685.124-1l5.477-3.174a1.92,1.92,0,0,1,1.743-.062l5.539,3.174c.436.249.373.685-.124,1l-5.477,3.174A1.923,1.923,0,0,1,255.762,289Z" transform="translate(-195.602 -238.595)"/>
        <path id="Path_1040" data-name="Path 1040" class="cls-13" d="M269.362,296.9l-5.539-3.174c-.436-.249-.373-.685.124-1l5.477-3.174a1.92,1.92,0,0,1,1.743-.062l5.539,3.174c.436.249.373.685-.124,1l-5.477,3.174A1.915,1.915,0,0,1,269.362,296.9Z" transform="translate(-200.739 -241.579)"/>
        <path id="Path_1041" data-name="Path 1041" class="cls-13" d="M283.062,304.8l-5.539-3.174c-.436-.249-.373-.685.125-1l5.476-3.174a1.92,1.92,0,0,1,1.743-.062l5.539,3.174c.436.249.373.685-.124,1l-5.477,3.174A1.92,1.92,0,0,1,283.062,304.8Z" transform="translate(-205.913 -244.562)"/>
        <path id="Path_1042" data-name="Path 1042" class="cls-13" d="M296.762,312.7l-5.539-3.174c-.436-.249-.373-.685.124-1l5.477-3.174a1.92,1.92,0,0,1,1.743-.062l5.539,3.174c.436.249.373.685-.124,1l-5.477,3.174A1.92,1.92,0,0,1,296.762,312.7Z" transform="translate(-211.087 -247.546)"/>
        <path id="Path_1043" data-name="Path 1043" class="cls-13" d="M310.462,320.6l-5.539-3.174c-.436-.249-.373-.685.124-1l5.477-3.174a1.92,1.92,0,0,1,1.743-.062l5.539,3.174c.436.249.373.685-.124,1l-5.477,3.174A1.923,1.923,0,0,1,310.462,320.6Z" transform="translate(-216.261 -250.529)"/>
        <path id="Path_1044" data-name="Path 1044" class="cls-13" d="M324.162,328.5l-5.539-3.174c-.436-.249-.373-.685.124-1l5.477-3.174a1.92,1.92,0,0,1,1.743-.062l5.539,3.174c.436.249.373.685-.124,1l-5.477,3.174A1.923,1.923,0,0,1,324.162,328.5Z" transform="translate(-221.435 -253.513)"/>
        <path id="Path_1045" data-name="Path 1045" class="cls-13" d="M337.762,336.4l-5.539-3.174c-.436-.249-.373-.685.124-1l5.477-3.174a1.92,1.92,0,0,1,1.743-.062l5.539,3.174c.436.249.373.685-.124,1l-5.477,3.174A1.92,1.92,0,0,1,337.762,336.4Z" transform="translate(-226.571 -256.496)"/>
        <path id="Path_1046" data-name="Path 1046" class="cls-13" d="M234.862,261.6l-5.539-3.174c-.436-.249-.373-.685.124-1l5.477-3.174a1.92,1.92,0,0,1,1.743-.062l5.539,3.174c.436.249.373.685-.124,1l-5.477,3.174A2.141,2.141,0,0,1,234.862,261.6Z" transform="translate(-187.709 -228.247)"/>
        <path id="Path_1047" data-name="Path 1047" class="cls-13" d="M220.962,253.6l-5.539-3.174c-.436-.249-.373-.685.124-1l5.477-3.174a1.92,1.92,0,0,1,1.743-.062l5.539,3.174c.436.249.373.685-.124,1l-5.477,3.174A2.137,2.137,0,0,1,220.962,253.6Z" transform="translate(-182.459 -225.226)"/>
        <path id="Path_1048" data-name="Path 1048" class="cls-13" d="M203.21,243.269l-11.887-6.846c-.436-.249-.373-.685.124-1l5.477-3.174a1.92,1.92,0,0,1,1.743-.062l11.887,6.846c.436.249.373.685-.124,1l-5.477,3.174A1.75,1.75,0,0,1,203.21,243.269Z" transform="translate(-173.358 -219.938)"/>
        <path id="Path_1049" data-name="Path 1049" class="cls-13" d="M214.269,234.362l-9.646-5.539c-.436-.249-.373-.685.124-1l5.477-3.174a1.92,1.92,0,0,1,1.743-.062l9.646,5.539c.436.249.373.685-.124,1l-5.477,3.174A2.137,2.137,0,0,1,214.269,234.362Z" transform="translate(-178.381 -217.068)"/>
        <path id="Path_1050" data-name="Path 1050" class="cls-13" d="M248.562,269.5l-5.539-3.174c-.436-.249-.373-.685.124-1l5.477-3.174a1.92,1.92,0,0,1,1.743-.062l5.539,3.174c.436.249.373.685-.124,1l-5.477,3.174A2.141,2.141,0,0,1,248.562,269.5Z" transform="translate(-192.883 -231.23)"/>
        <path id="Path_1051" data-name="Path 1051" class="cls-13" d="M262.162,277.4l-5.539-3.174c-.436-.249-.373-.685.124-1l5.477-3.174a1.92,1.92,0,0,1,1.743-.062l5.539,3.174c.436.249.373.685-.124,1l-5.477,3.174A2.13,2.13,0,0,1,262.162,277.4Z" transform="translate(-198.019 -234.214)"/>
        <path id="Path_1052" data-name="Path 1052" class="cls-13" d="M275.862,285.3l-5.539-3.174c-.436-.249-.373-.685.125-1l5.477-3.174a1.92,1.92,0,0,1,1.743-.062l5.539,3.174c.436.249.373.685-.125,1l-5.477,3.174A2.136,2.136,0,0,1,275.862,285.3Z" transform="translate(-203.193 -237.198)"/>
        <path id="Path_1053" data-name="Path 1053" class="cls-13" d="M289.562,293.2l-5.539-3.174c-.436-.249-.373-.685.125-1l5.477-3.174a1.92,1.92,0,0,1,1.742-.062l5.539,3.174c.436.249.373.685-.124,1l-5.477,3.174A2.137,2.137,0,0,1,289.562,293.2Z" transform="translate(-208.367 -240.181)"/>
        <path id="Path_1054" data-name="Path 1054" class="cls-13" d="M303.262,301.1l-5.539-3.174c-.436-.249-.373-.685.124-1l5.477-3.174a1.92,1.92,0,0,1,1.743-.062l5.539,3.174c.436.249.373.685-.124,1L305,301.035A2.141,2.141,0,0,1,303.262,301.1Z" transform="translate(-213.541 -243.165)"/>
        <path id="Path_1055" data-name="Path 1055" class="cls-13" d="M316.962,309l-5.539-3.174c-.436-.249-.373-.685.124-1l5.477-3.174a1.92,1.92,0,0,1,1.743-.062l5.539,3.174c.436.249.373.685-.124,1l-5.477,3.174A2.14,2.14,0,0,1,316.962,309Z" transform="translate(-218.716 -246.148)"/>
        <path id="Path_1056" data-name="Path 1056" class="cls-13" d="M330.562,316.9l-5.539-3.174c-.436-.249-.373-.685.124-1l5.477-3.174a1.92,1.92,0,0,1,1.743-.062l5.539,3.174c.436.249.373.685-.124,1l-5.477,3.174A2.137,2.137,0,0,1,330.562,316.9Z" transform="translate(-223.852 -249.132)"/>
        <path id="Path_1057" data-name="Path 1057" class="cls-13" d="M344.262,324.8l-5.539-3.174c-.436-.249-.373-.685.124-1l5.477-3.174a1.92,1.92,0,0,1,1.743-.062l5.539,3.174c.436.249.373.685-.124,1L346,324.735A2.137,2.137,0,0,1,344.262,324.8Z" transform="translate(-229.026 -252.116)"/>
        <path id="Path_1058" data-name="Path 1058" class="cls-13" d="M357.962,332.7l-5.539-3.174c-.436-.249-.373-.685.124-1l5.477-3.174a1.92,1.92,0,0,1,1.742-.062l5.539,3.174c.436.249.373.685-.124,1l-5.477,3.174A2.141,2.141,0,0,1,357.962,332.7Z" transform="translate(-234.2 -255.099)"/>
        <path id="Path_1059" data-name="Path 1059" class="cls-13" d="M378.334,344.393l-12.011-6.97c-.436-.249-.373-.685.124-1l5.477-3.174a1.92,1.92,0,0,1,1.743-.062l12.011,6.97c.436.249.373.685-.124,1l-5.477,3.174A1.92,1.92,0,0,1,378.334,344.393Z" transform="translate(-239.45 -258.083)"/>
        <path id="Path_1060" data-name="Path 1060" class="cls-13" d="M406.067,329.673l-10.144-5.85c-.436-.249-.373-.685.124-1l5.477-3.174a1.92,1.92,0,0,1,1.743-.062l10.144,5.85c.436.249.373.685-.124,1l-5.477,3.174A1.92,1.92,0,0,1,406.067,329.673Z" transform="translate(-250.629 -252.946)"/>
        <path id="Path_1061" data-name="Path 1061" class="cls-13" d="M272.462,267.9l-5.539-3.174c-.436-.249-.373-.685.125-1l5.477-3.174a1.92,1.92,0,0,1,1.743-.062l5.539,3.174c.436.249.373.685-.124,1l-5.477,3.174A1.75,1.75,0,0,1,272.462,267.9Z" transform="translate(-201.909 -230.626)"/>
        <path id="Path_1062" data-name="Path 1062" class="cls-13" d="M258.462,259.8l-5.539-3.174c-.436-.249-.373-.685.124-1l5.477-3.174a1.92,1.92,0,0,1,1.743-.062l5.539,3.174c.436.249.373.685-.125,1l-5.476,3.174A1.75,1.75,0,0,1,258.462,259.8Z" transform="translate(-196.622 -227.567)"/>
        <path id="Path_1063" data-name="Path 1063" class="cls-13" d="M244.462,251.8l-5.539-3.174c-.436-.249-.373-.685.124-1l5.477-3.174a1.92,1.92,0,0,1,1.743-.062l5.539,3.174c.436.249.373.685-.124,1l-5.477,3.174A2.14,2.14,0,0,1,244.462,251.8Z" transform="translate(-191.335 -224.546)"/>
        <path id="Path_1064" data-name="Path 1064" class="cls-13" d="M230.462,243.7l-5.539-3.174c-.436-.249-.373-.685.124-1l5.477-3.174a1.92,1.92,0,0,1,1.743-.062l5.539,3.174c.436.249.373.685-.124,1l-5.477,3.174A2.141,2.141,0,0,1,230.462,243.7Z" transform="translate(-186.047 -221.487)"/>
        <path id="Path_1065" data-name="Path 1065" class="cls-13" d="M286.162,275.8l-5.539-3.174c-.436-.249-.373-.685.124-1l5.477-3.174a1.92,1.92,0,0,1,1.743-.062l5.539,3.174c.436.249.373.685-.124,1l-5.477,3.174A1.92,1.92,0,0,1,286.162,275.8Z" transform="translate(-207.083 -233.61)"/>
        <path id="Path_1066" data-name="Path 1066" class="cls-13" d="M299.862,283.7l-5.539-3.174c-.436-.249-.373-.685.124-1l5.477-3.174a1.92,1.92,0,0,1,1.742-.062l5.539,3.174c.436.249.373.685-.125,1l-5.476,3.174A1.923,1.923,0,0,1,299.862,283.7Z" transform="translate(-212.257 -236.593)"/>
        <path id="Path_1067" data-name="Path 1067" class="cls-13" d="M313.562,291.6l-5.539-3.174c-.436-.249-.373-.685.125-1l5.477-3.174a1.92,1.92,0,0,1,1.742-.062l5.539,3.174c.436.249.373.685-.124,1l-5.477,3.174A1.923,1.923,0,0,1,313.562,291.6Z" transform="translate(-217.431 -239.577)"/>
        <path id="Path_1068" data-name="Path 1068" class="cls-13" d="M327.162,299.5l-5.539-3.174c-.436-.249-.373-.685.125-1l5.477-3.174a1.92,1.92,0,0,1,1.742-.062l5.539,3.174c.436.249.373.685-.124,1l-5.477,3.174A1.92,1.92,0,0,1,327.162,299.5Z" transform="translate(-222.568 -242.561)"/>
        <path id="Path_1069" data-name="Path 1069" class="cls-13" d="M340.862,307.4l-5.539-3.174c-.436-.249-.373-.685.124-1l5.477-3.174a1.92,1.92,0,0,1,1.743-.062l5.539,3.174c.436.249.373.685-.124,1l-5.477,3.174A1.92,1.92,0,0,1,340.862,307.4Z" transform="translate(-227.742 -245.544)"/>
        <path id="Path_1070" data-name="Path 1070" class="cls-13" d="M354.562,315.3l-5.539-3.174c-.436-.249-.373-.685.124-1l5.477-3.174a1.92,1.92,0,0,1,1.742-.062l5.539,3.174c.436.249.373.685-.124,1l-5.477,3.174A1.923,1.923,0,0,1,354.562,315.3Z" transform="translate(-232.916 -248.528)"/>
        <path id="Path_1071" data-name="Path 1071" class="cls-13" d="M368.262,323.2l-5.539-3.174c-.436-.249-.373-.685.124-1l5.477-3.174a1.92,1.92,0,0,1,1.743-.062l5.539,3.174c.436.249.373.685-.124,1L370,323.135A1.923,1.923,0,0,1,368.262,323.2Z" transform="translate(-238.09 -251.511)"/>
        <path id="Path_1072" data-name="Path 1072" class="cls-13" d="M381.862,331.1l-5.539-3.174c-.436-.249-.373-.685.125-1l5.477-3.174a1.92,1.92,0,0,1,1.742-.062l5.539,3.174c.436.249.373.685-.124,1l-5.477,3.174A1.915,1.915,0,0,1,381.862,331.1Z" transform="translate(-243.226 -254.495)"/>
        <path id="Path_1073" data-name="Path 1073" class="cls-13" d="M395.562,339l-5.539-3.174c-.436-.249-.373-.685.124-1l5.477-3.174a1.92,1.92,0,0,1,1.743-.062l5.539,3.174c.436.249.373.685-.124,1l-5.477,3.174A1.92,1.92,0,0,1,395.562,339Z" transform="translate(-248.4 -257.478)"/>
        <path id="Path_1074" data-name="Path 1074" class="cls-13" d="M265.262,248.4l-5.539-3.174c-.436-.249-.373-.685.124-1l5.477-3.174a1.92,1.92,0,0,1,1.743-.062l5.539,3.174c.436.249.373.685-.124,1L267,248.335A1.92,1.92,0,0,1,265.262,248.4Z" transform="translate(-199.19 -223.262)"/>
        <path id="Path_1075" data-name="Path 1075" class="cls-13" d="M251.662,240.6l-5.539-3.174c-.436-.249-.373-.685.124-1l5.477-3.174a1.92,1.92,0,0,1,1.743-.062l5.539,3.174c.436.249.373.685-.124,1l-5.477,3.112A1.936,1.936,0,0,1,251.662,240.6Z" transform="translate(-194.054 -220.316)"/>
        <path id="Path_1076" data-name="Path 1076" class="cls-13" d="M238.062,232.7l-5.539-3.174c-.436-.249-.373-.685.124-1l5.477-3.174a1.92,1.92,0,0,1,1.743-.062l5.539,3.174c.436.249.373.685-.124,1l-5.477,3.174A1.92,1.92,0,0,1,238.062,232.7Z" transform="translate(-188.918 -217.332)"/>
        <path id="Path_1077" data-name="Path 1077" class="cls-13" d="M224.462,224.8l-5.539-3.174c-.436-.249-.373-.685.124-1l5.477-3.174a1.92,1.92,0,0,1,1.743-.062l5.539,3.174c.436.249.373.685-.124,1l-5.477,3.174A1.923,1.923,0,0,1,224.462,224.8Z" transform="translate(-183.781 -214.349)"/>
        <path id="Path_1078" data-name="Path 1078" class="cls-13" d="M238.462,218.081l-5.539-3.174c-.436-.249-.373-.685.124-1l1.8-1.058a1.92,1.92,0,0,1,1.743-.062l5.539,3.174c.436.249.373.685-.124,1l-1.8,1.058A2.141,2.141,0,0,1,238.462,218.081Z" transform="translate(-189.069 -212.611)"/>
        <path id="Path_1079" data-name="Path 1079" class="cls-13" d="M256.162,228.281l-5.539-3.174c-.436-.249-.373-.685.124-1l1.8-1.058a1.92,1.92,0,0,1,1.743-.062l5.539,3.174c.436.249.373.685-.124,1l-1.8,1.058A1.915,1.915,0,0,1,256.162,228.281Z" transform="translate(-195.753 -216.464)"/>
        <path id="Path_1080" data-name="Path 1080" class="cls-13" d="M269.762,236.081l-5.539-3.174c-.436-.249-.373-.685.124-1l1.8-1.058a1.92,1.92,0,0,1,1.742-.062l5.539,3.174c.436.249.373.685-.124,1l-1.8,1.058A1.92,1.92,0,0,1,269.762,236.081Z" transform="translate(-200.89 -219.409)"/>
        <path id="Path_1081" data-name="Path 1081" class="cls-13" d="M283.362,243.981l-5.539-3.174c-.436-.249-.373-.685.125-1l1.8-1.058a1.92,1.92,0,0,1,1.742-.062l5.539,3.174c.436.249.373.685-.124,1l-1.8,1.058A2.141,2.141,0,0,1,283.362,243.981Z" transform="translate(-206.026 -222.393)"/>
        <path id="Path_1082" data-name="Path 1082" class="cls-13" d="M296.862,251.781l-5.539-3.174c-.436-.249-.373-.685.124-1l1.8-1.058a1.92,1.92,0,0,1,1.742-.062l5.539,3.174c.436.249.373.685-.124,1l-1.8,1.058A2.137,2.137,0,0,1,296.862,251.781Z" transform="translate(-211.124 -225.339)"/>
        <path id="Path_1083" data-name="Path 1083" class="cls-13" d="M372.562,295.481l-5.539-3.174c-.436-.249-.373-.685.124-1l1.8-1.058a1.92,1.92,0,0,1,1.742-.062l5.539,3.174c.436.249.373.685-.124,1l-1.8,1.058A2.141,2.141,0,0,1,372.562,295.481Z" transform="translate(-239.714 -241.843)"/>
        <path id="Path_1084" data-name="Path 1084" class="cls-13" d="M386.062,303.281l-5.539-3.174c-.436-.249-.373-.685.124-1l1.8-1.058a1.92,1.92,0,0,1,1.742-.062l5.539,3.174c.436.249.373.685-.124,1l-1.8,1.058A1.92,1.92,0,0,1,386.062,303.281Z" transform="translate(-244.812 -244.789)"/>
        <path id="Path_1085" data-name="Path 1085" class="cls-13" d="M399.662,311.081l-5.539-3.174c-.436-.249-.373-.685.124-1l1.8-1.058a1.92,1.92,0,0,1,1.743-.062l5.539,3.174c.436.249.373.685-.124,1l-1.8,1.058A1.923,1.923,0,0,1,399.662,311.081Z" transform="translate(-249.949 -247.735)"/>
        <path id="Path_1086" data-name="Path 1086" class="cls-13" d="M413.162,318.881l-5.539-3.174c-.436-.249-.373-.685.124-1l1.8-1.058a1.92,1.92,0,0,1,1.742-.062l5.539,3.174c.436.249.373.685-.124,1l-1.8,1.058A1.75,1.75,0,0,1,413.162,318.881Z" transform="translate(-255.047 -250.68)"/>
        <path id="Path_1087" data-name="Path 1087" class="cls-13" d="M278.962,256.3l-5.539-3.174c-.436-.249-.373-.685.124-1l5.477-3.174a1.92,1.92,0,0,1,1.743-.062l5.539,3.174c.436.249.373.685-.124,1l-5.477,3.174A1.923,1.923,0,0,1,278.962,256.3Z" transform="translate(-204.364 -226.245)"/>
        <path id="Path_1088" data-name="Path 1088" class="cls-13" d="M292.662,264.2l-5.539-3.174c-.436-.249-.373-.685.125-1l5.476-3.174a1.92,1.92,0,0,1,1.743-.062l5.539,3.174c.436.249.373.685-.124,1l-5.477,3.174A1.923,1.923,0,0,1,292.662,264.2Z" transform="translate(-209.538 -229.229)"/>
        <path id="Path_1089" data-name="Path 1089" class="cls-13" d="M306.362,272.1l-5.539-3.174c-.436-.249-.373-.685.124-1l5.477-3.174a1.92,1.92,0,0,1,1.743-.062l5.539,3.174c.436.249.373.685-.124,1l-5.477,3.174A1.923,1.923,0,0,1,306.362,272.1Z" transform="translate(-214.712 -232.212)"/>
        <path id="Path_1090" data-name="Path 1090" class="cls-13" d="M319.962,280l-5.539-3.174c-.436-.249-.373-.685.124-1l5.477-3.174a1.92,1.92,0,0,1,1.743-.062l5.539,3.174c.436.249.373.685-.124,1l-5.477,3.174A1.92,1.92,0,0,1,319.962,280Z" transform="translate(-219.849 -235.196)"/>
        <path id="Path_1091" data-name="Path 1091" class="cls-13" d="M333.662,287.9l-5.539-3.174c-.436-.249-.373-.685.124-1l5.477-3.174a1.92,1.92,0,0,1,1.743-.062l5.539,3.174c.436.249.373.685-.124,1l-5.477,3.174A1.92,1.92,0,0,1,333.662,287.9Z" transform="translate(-225.023 -238.18)"/>
        <path id="Path_1092" data-name="Path 1092" class="cls-13" d="M347.362,295.8l-5.539-3.174c-.436-.249-.373-.685.124-1l5.477-3.174a1.921,1.921,0,0,1,1.743-.062l5.539,3.174c.436.249.373.685-.125,1l-5.477,3.174A2.141,2.141,0,0,1,347.362,295.8Z" transform="translate(-230.197 -241.163)"/>
        <path id="Path_1093" data-name="Path 1093" class="cls-13" d="M361.062,303.7l-5.539-3.174c-.436-.249-.373-.685.125-1l5.476-3.174a1.92,1.92,0,0,1,1.743-.062l5.539,3.174c.436.249.373.685-.125,1l-5.477,3.174A2.141,2.141,0,0,1,361.062,303.7Z" transform="translate(-235.371 -244.147)"/>
        <path id="Path_1094" data-name="Path 1094" class="cls-13" d="M374.662,311.6l-5.539-3.174c-.436-.249-.373-.685.124-1l5.477-3.174a1.92,1.92,0,0,1,1.743-.062l5.539,3.174c.436.249.373.685-.124,1l-5.477,3.174A2.13,2.13,0,0,1,374.662,311.6Z" transform="translate(-240.507 -247.13)"/>
        <path id="Path_1095" data-name="Path 1095" class="cls-13" d="M388.362,319.5l-5.539-3.174c-.436-.249-.373-.685.124-1l5.477-3.174a1.92,1.92,0,0,1,1.743-.062l5.539,3.174c.436.249.373.685-.124,1l-5.477,3.174A2.137,2.137,0,0,1,388.362,319.5Z" transform="translate(-245.681 -250.114)"/>
        <path id="Path_1096" data-name="Path 1096" class="cls-13" d="M194.266,253.52l-16.243-9.4c-.436-.249-.373-.685.124-1l5.477-3.174a1.92,1.92,0,0,1,1.743-.062l16.243,9.4c.436.249.373.685-.124,1l-5.477,3.174A2.137,2.137,0,0,1,194.266,253.52Z" transform="translate(-168.335 -222.846)"/>
        <path id="Path_1097" data-name="Path 1097" class="cls-13" d="M362.266,350.52l-16.243-9.4c-.436-.249-.373-.685.124-1l5.477-3.174a1.92,1.92,0,0,1,1.743-.062l16.243,9.4c.436.249.373.685-.124,1l-5.477,3.174A1.92,1.92,0,0,1,362.266,350.52Z" transform="translate(-231.783 -259.48)"/>
        <path id="Path_1098" data-name="Path 1098" class="cls-13" d="M314.062,339.857l-5.539-3.174c-.436-.249-.373-.685.124-1l6.534-3.734a1.92,1.92,0,0,1,1.743-.062l5.539,3.174c.436.249.373.685-.124,1l-6.534,3.734A2.137,2.137,0,0,1,314.062,339.857Z" transform="translate(-217.62 -257.592)"/>
        <path id="Path_1099" data-name="Path 1099" class="cls-13" d="M212.76,281.286l-8.837-5.1c-.436-.249-.373-.685.124-1l6.535-3.734a1.92,1.92,0,0,1,1.743-.062l8.837,5.1c.436.249.373.685-.124,1l-6.534,3.734A1.92,1.92,0,0,1,212.76,281.286Z" transform="translate(-178.116 -234.743)"/>
        <path id="Path_1100" data-name="Path 1100" class="cls-13" d="M298.96,330.986l-8.837-5.1c-.436-.249-.373-.685.124-1l6.534-3.734a1.92,1.92,0,0,1,1.743-.062l8.837,5.1c.436.249.373.685-.124,1l-6.535,3.734A1.751,1.751,0,0,1,298.96,330.986Z" transform="translate(-210.671 -253.513)"/>
        <path id="Path_1101" data-name="Path 1101" class="cls-13" d="M232.46,292.686l-8.837-5.1c-.436-.249-.373-.685.124-1l6.534-3.734a1.92,1.92,0,0,1,1.743-.062l8.837,5.1c.436.249.373.685-.124,1l-6.535,3.734A1.915,1.915,0,0,1,232.46,292.686Z" transform="translate(-185.556 -239.048)"/>
        <path id="Path_1102" data-name="Path 1102" class="cls-13" d="M232.339,282.9l38.336,22.155a.519.519,0,0,1,0,1l-6.659,3.858a2.126,2.126,0,0,1-1.742,0L224,287.754Z" transform="translate(-185.809 -239.157)"/>
        <path id="Path_1103" data-name="Path 1103" class="cls-13" d="M353.183,359l6.161,3.547c.373.187.311.56-.124.809l-2.676,1.556a1.66,1.66,0,0,1-1.431.062l-6.161-3.547c-.373-.187-.311-.56.124-.809l2.676-1.556A1.474,1.474,0,0,1,353.183,359Z" transform="translate(-232.906 -267.839)"/>
        <path id="Path_1104" data-name="Path 1104" class="cls-13" d="M339.383,351.019l6.161,3.547c.373.187.311.56-.124.809l-2.676,1.556a1.661,1.661,0,0,1-1.431.062l-6.161-3.547c-.373-.187-.311-.56.124-.809l2.676-1.556A1.66,1.66,0,0,1,339.383,351.019Z" transform="translate(-227.694 -264.833)"/>
        <path id="Path_1105" data-name="Path 1105" class="cls-13" d="M325.683,343.119l6.161,3.547c.373.187.311.56-.124.809l-2.676,1.556a1.661,1.661,0,0,1-1.431.062l-6.161-3.547c-.373-.187-.311-.56.125-.809l2.676-1.556A1.66,1.66,0,0,1,325.683,343.119Z" transform="translate(-222.52 -261.85)"/>
        <path id="Path_1106" data-name="Path 1106" class="cls-13" d="M346.883,346.7l6.161,3.547c.373.187.311.56-.124.809l-2.676,1.556a1.661,1.661,0,0,1-1.431.062l-6.161-3.547c-.373-.187-.311-.56.124-.809l2.676-1.556A1.474,1.474,0,0,1,346.883,346.7Z" transform="translate(-230.527 -263.194)"/>
      </g>
    </g>
    <g id="Group_226" data-name="Group 226" transform="translate(230.209 -0.053)">
      <g id="Group_224" data-name="Group 224">
        <path id="Path_1107" data-name="Path 1107" class="cls-14" d="M421.908,21.077,386,.291a2.039,2.039,0,0,0-2.054-.124h0l-4.294,1.991s1.618.56,2.552.871l-5.165,26.138a5.551,5.551,0,0,0,2.116,5.539l34.353,19.852-.622,3.049,4.356-2.054h0a3.231,3.231,0,0,0,1.556-2.3l5.29-26.7C424.459,24.438,423.526,21.948,421.908,21.077Z" transform="translate(-372.574 0.053)"/>
        <path id="Path_1108" data-name="Path 1108" class="cls-6" d="M408.06,58.826,372.151,38.1a5.436,5.436,0,0,1-2.116-5.539l5.29-26.7c.436-2.116,2.054-3.112,3.672-2.178l35.909,20.724a5.436,5.436,0,0,1,2.116,5.539l-5.29,26.7C411.3,58.763,409.678,59.7,408.06,58.826Z" transform="translate(-369.928 -1.227)"/>
        <path id="Path_1109" data-name="Path 1109" class="cls-3" d="M420.273,23.811,384.365,3.087a2.169,2.169,0,0,0-2.365,0,2.428,2.428,0,0,1,1.556.311l35.909,20.724a5.436,5.436,0,0,1,2.116,5.539l-5.29,26.7a3.357,3.357,0,0,1-1.307,2.178,2.9,2.9,0,0,0,2.116-2.489l5.29-26.7A5.436,5.436,0,0,0,420.273,23.811Z" transform="translate(-374.487 -1.001)"/>
      </g>
      <g id="Group_225" data-name="Group 225" transform="translate(12.612 23.089)">
        <path id="Path_1110" data-name="Path 1110" class="cls-3" d="M395.114,41.561a1.875,1.875,0,0,1-2.987,1.369,4.128,4.128,0,0,1-1.867-4.17,1.9,1.9,0,0,1,2.987-1.369A4.238,4.238,0,0,1,395.114,41.561Z" transform="translate(-390.193 -37.048)"/>
        <path id="Path_1111" data-name="Path 1111" class="cls-3" d="M406.914,48.354a1.875,1.875,0,0,1-2.987,1.369,4.128,4.128,0,0,1-1.867-4.17,1.875,1.875,0,0,1,2.987-1.369A4.238,4.238,0,0,1,406.914,48.354Z" transform="translate(-394.65 -39.609)"/>
        <path id="Path_1112" data-name="Path 1112" class="cls-3" d="M418.714,55.254a1.875,1.875,0,0,1-2.987,1.369,4.128,4.128,0,0,1-1.867-4.17,1.875,1.875,0,0,1,2.987-1.369A4.188,4.188,0,0,1,418.714,55.254Z" transform="translate(-399.106 -42.215)"/>
      </g>
    </g>
    <g id="Group_230" data-name="Group 230" transform="translate(210.588 262.853)">
      <g id="Group_229" data-name="Group 229">
        <g id="Group_228" data-name="Group 228" class="cls-4" transform="translate(5.617 29.374)">
          <g id="Group_227" data-name="Group 227">
            <path id="Path_1113" data-name="Path 1113" class="cls-5" d="M386.865,492.377c-9.024,5.228-23.649,5.228-32.672,0s-9.024-13.629,0-18.857,23.649-5.228,32.672,0S395.889,487.212,386.865,492.377Z" transform="translate(-347.425 -469.6)"/>
          </g>
        </g>
        <path id="Path_1114" data-name="Path 1114" class="cls-14" d="M395.841,450.217v-8.09h-1.494a18.9,18.9,0,0,0-6.908-6.472c-11.2-6.472-29.374-6.472-40.638,0a18.407,18.407,0,0,0-6.908,6.472H338.4v8.028h0c0,4.232,2.8,8.526,8.4,11.762,11.2,6.472,29.374,6.472,40.638,0C393.041,458.68,395.841,454.449,395.841,450.217Z" transform="translate(-338.4 -425.572)"/>
        <path id="Path_1115" data-name="Path 1115" class="cls-7" d="M404.888,435.754c-5.6-3.236-12.944-4.854-20.288-4.854v35.971c7.344,0,14.687-1.618,20.288-4.854s8.4-7.468,8.4-11.7v-8.09H411.8A18.407,18.407,0,0,0,404.888,435.754Z" transform="translate(-355.848 -425.61)"/>
        <path id="Path_1116" data-name="Path 1116" class="cls-15" d="M387.44,450.716c-11.2,6.472-29.374,6.472-40.638,0-11.2-6.472-11.2-16.99,0-23.462s29.374-6.472,40.638,0C398.642,433.726,398.642,444.244,387.44,450.716Z" transform="translate(-338.4 -422.4)"/>
        <path id="Path_1117" data-name="Path 1117" class="cls-3" d="M387.468,461.1c-11.2,6.472-29.374,6.472-40.638,0-5.352-3.112-8.153-7.157-8.339-11.2-.249,4.419,2.552,8.9,8.339,12.26,11.2,6.472,29.374,6.472,40.638,0,5.85-3.361,8.588-7.841,8.339-12.26C395.621,453.945,392.82,457.99,387.468,461.1Z" transform="translate(-338.429 -432.786)"/>
      </g>
    </g>
    <path id="Path_1118" data-name="Path 1118" class="cls-3" d="M365.764,446.021l11.264-6.472c1.245-.747,3.423-.436,3.921.56l4.73,9.211c.56,1.058-1.12,1.991-2.925,1.68l-15.994-2.738C365.017,448.013,364.457,446.768,365.764,446.021Z" transform="translate(-137.875 -165.867)"/>
    <g id="Group_233" data-name="Group 233" transform="translate(207.559 86.553)">
      <g id="Group_231" data-name="Group 231">
        <path id="Path_1119" data-name="Path 1119" class="cls-8" d="M336.873,179.618c-2.24.311-3.983-2.427-3.112-4.979l5.414-16.678,5.414-16.678c.809-2.552,3.61-2.925,4.979-.747l9.148,14.563,9.148,14.563c1.369,2.24.373,5.414-1.867,5.725L351.435,177.5Z" transform="translate(-333.532 -139.11)"/>
      </g>
      <g id="Group_232" data-name="Group 232" class="cls-16">
        <path id="Path_1120" data-name="Path 1120" class="cls-9" d="M336.873,179.618c-2.24.311-3.983-2.427-3.112-4.979l5.414-16.678,5.414-16.678c.809-2.552,3.61-2.925,4.979-.747l9.148,14.563,9.148,14.563c1.369,2.24.373,5.414-1.867,5.725L351.435,177.5Z" transform="translate(-333.532 -139.11)"/>
      </g>
    </g>
  </g>
</svg>
