<svg xmlns="http://www.w3.org/2000/svg" viewBox="-1632 1187 180 180">
  <defs>
    <style>
      .cls-1 {
        fill: #c9d6e2;
      }

      .cls-2 {
        fill: #14213d;
      }
    </style>
  </defs>
  <g id="Group_1317" data-name="Group 1317" transform="translate(-1632 1187.05)">
    <g id="Group_1301" data-name="Group 1301" transform="translate(0 67.466)">
      <path id="Path_3450" data-name="Path 3450" class="cls-1" d="M112.484,191.242A56.242,56.242,0,1,1,56.242,135,56.263,56.263,0,0,1,112.484,191.242Z" transform="translate(0 -135)"/>
    </g>
    <g id="Group_1302" data-name="Group 1302" transform="translate(132.182 163.102)">
      <rect id="Rectangle_344" data-name="Rectangle 344" class="cls-2" width="44.994" height="5.649"/>
    </g>
    <g id="Group_1303" data-name="Group 1303" transform="translate(163.102 151.829)">
      <path id="Path_3451" data-name="Path 3451" class="cls-2" d="M329.074,331.871a2.8,2.8,0,0,1-2-4.8l9.249-9.249-9.249-9.249a2.828,2.828,0,0,1,4-4l11.249,11.249a2.836,2.836,0,0,1,0,4l-11.249,11.248A2.836,2.836,0,0,1,329.074,331.871Z" transform="translate(-326.25 -303.75)"/>
    </g>
    <g id="Group_1304" data-name="Group 1304" transform="translate(87.163 -0.05)">
      <path id="Path_3452" data-name="Path 3452" class="cls-2" d="M188.423,28.121a2.835,2.835,0,0,1-2-.8l-11.249-11.3a2.836,2.836,0,0,1,0-4L186.423.775a2.828,2.828,0,0,1,4,4l-9.249,9.249,9.249,9.249a2.836,2.836,0,0,1,0,4A2.89,2.89,0,0,1,188.423,28.121Z" transform="translate(-174.35 0.05)"/>
    </g>
    <g id="Group_1305" data-name="Group 1305" transform="translate(0 11.223)">
      <path id="Path_3453" data-name="Path 3453" class="cls-2" d="M89.988,179.978H0v-5.649H89.988a73.09,73.09,0,1,0,0-146.18V22.5a78.739,78.739,0,1,1,0,157.478Z" transform="translate(0 -22.5)"/>
    </g>
    <g id="Group_1306" data-name="Group 1306" transform="translate(11.248 12.523)">
      <path id="Path_3454" data-name="Path 3454" class="cls-2" d="M60.445,169.88A78.747,78.747,0,0,1,86.891,25.1l1,5.549A73.141,73.141,0,0,0,63.344,165.081Z" transform="translate(-22.5 -25.1)"/>
    </g>
    <g id="Group_1307" data-name="Group 1307" transform="translate(39.345 42.569)">
      <path id="Path_3455" data-name="Path 3455" class="cls-2" d="M129.343,183.186a50.624,50.624,0,0,1-17.9-97.986l2,5.249a45.06,45.06,0,1,0,31.8.05l2-5.249a50.595,50.595,0,0,1-17.9,97.936Z" transform="translate(-78.7 -85.2)"/>
    </g>
    <g id="Group_1308" data-name="Group 1308" transform="translate(81.539 39.32)">
      <rect id="Rectangle_345" data-name="Rectangle 345" class="cls-2" width="16.898" height="5.649"/>
    </g>
    <g id="Group_1309" data-name="Group 1309" transform="translate(87.188 42.169)">
      <rect id="Rectangle_346" data-name="Rectangle 346" class="cls-2" width="5.649" height="11.248"/>
    </g>
    <g id="Group_1310" data-name="Group 1310" transform="translate(50.593 50.568)">
      <path id="Path_3456" data-name="Path 3456" class="cls-2" d="M140.594,179.939a39.37,39.37,0,1,1,39.395-39.344A39.429,39.429,0,0,1,140.594,179.939Zm0-73.09a33.745,33.745,0,1,0,33.745,33.745A33.8,33.8,0,0,0,140.594,106.849Z" transform="translate(-101.2 -101.2)"/>
    </g>
    <g id="Group_1311" data-name="Group 1311" transform="translate(93.626 68.304)">
      <rect id="Rectangle_347" data-name="Rectangle 347" class="cls-2" width="19.897" height="5.599" transform="translate(0 14.069) rotate(-45)"/>
    </g>
    <g id="Group_1312" data-name="Group 1312" transform="translate(87.188 61.816)">
      <rect id="Rectangle_348" data-name="Rectangle 348" class="cls-2" width="5.649" height="5.649"/>
    </g>
    <g id="Group_1313" data-name="Group 1313" transform="translate(61.891 87.163)">
      <rect id="Rectangle_349" data-name="Rectangle 349" class="cls-2" width="5.649" height="5.649"/>
    </g>
    <g id="Group_1314" data-name="Group 1314" transform="translate(87.188 112.459)">
      <rect id="Rectangle_350" data-name="Rectangle 350" class="cls-2" width="5.649" height="5.649"/>
    </g>
    <g id="Group_1315" data-name="Group 1315" transform="translate(112.484 87.163)">
      <rect id="Rectangle_351" data-name="Rectangle 351" class="cls-2" width="5.649" height="5.649"/>
    </g>
    <g id="Group_1316" data-name="Group 1316" transform="translate(78.739 78.714)">
      <path id="Path_3457" data-name="Path 3457" class="cls-2" d="M168.748,180A11.248,11.248,0,1,1,180,168.749,11.265,11.265,0,0,1,168.748,180Zm0-16.848A5.624,5.624,0,1,0,174.4,168.8,5.643,5.643,0,0,0,168.748,163.149Z" transform="translate(-157.5 -157.5)"/>
    </g>
  </g>
</svg>
