<svg xmlns="http://www.w3.org/2000/svg" xmlns:xlink="http://www.w3.org/1999/xlink" viewBox="-7295.832 -1698.836 3879.717 3844.843">
  <defs>
    <style>
      .cls-1 {
        fill: #e4e9f3;
      }

      .cls-2 {
        fill: url(#linear-gradient);
      }

      .cls-3 {
        fill: url(#linear-gradient-2);
      }

      .cls-4 {
        fill: url(#linear-gradient-3);
      }
    </style>
    <linearGradient id="linear-gradient" x1="0.689" y1="0.707" x2="0.289" y2="-0.046" gradientUnits="objectBoundingBox">
      <stop offset="0" stop-color="#cfd8eb" stop-opacity="0.6"/>
      <stop offset="1" stop-color="#dce3f1" stop-opacity="0"/>
    </linearGradient>
    <linearGradient id="linear-gradient-2" x1="0.301" y1="0.602" x2="-0.91" y2="0.309" xlink:href="#linear-gradient"/>
    <linearGradient id="linear-gradient-3" x1="0.307" y1="0.298" x2="0.778" y2="0.628" xlink:href="#linear-gradient"/>
  </defs>
  <g id="Group_36" data-name="Group 36" transform="matrix(0.53, -0.848, 0.848, 0.53, -7295.81, 631.624)">
    <path id="Path_40" data-name="Path 40" class="cls-1" d="M2748.028,2193.091s-299.354,639.923-976.153,663.784c-155.317,5.423-290.894-16.269-407.6-59.437C1065.357,2686.59,889,2434.309,813.943,2133.871c-23.211-93.277-36.877-191.326-41.215-291.111-13.015-298.92-151.629-433.629-308.464-540.789-150.111-102.388-316.707-179.4-405.212-350.981-192.411-372.24,146.64-803.482,146.64-803.482L2343.033,13.232h0L2552.8,0l80.262,633.415Z" transform="translate(0 0)"/>
    <path id="Path_41" data-name="Path 41" class="cls-2" d="M2342.978,6.1c-2.82,4.122-142.3,504.346-574.412,530.16-433.846,26.031-501.092,316.707-852.507,590.03C741,1262.518,580.913,1295.707,464.425,1295.056c-150.111-102.388-316.707-179.4-405.212-350.981-192.628-372.457,146.423-803.7,146.423-803.7Z" transform="translate(0.055 7.132)"/>
    <path id="Path_42" data-name="Path 42" class="cls-3" d="M850.407,841.7c-9.111-291.327,297.618-549.683,525.6-538.62,280.7,13.883,361.61,429.507,352.5,649.033-9.328,228.2-196.315,367.684-529.726,330.807C971.884,1257.546,857.565,1069.907,850.407,841.7Z" transform="translate(994.137 353.975)"/>
    <path id="Path_43" data-name="Path 43" class="cls-4" d="M1089.31,1766.247c-51.411,41.432-106.509,68.547-163.777,80.478C626.614,1735.878,450.255,1483.6,375.2,1183.158c31.454-83.3,87.637-162.258,162.041-231.891C773.9,730.006,1215.126,796.6,1373.046,995.3,1567.408,1240.209,1279.335,1612.666,1089.31,1766.247Z" transform="translate(438.743 950.712)"/>
  </g>
</svg>
