<svg xmlns="http://www.w3.org/2000/svg" viewBox="-2814.5 3111.717 126.515 166.916">
  <defs>
    <style>
      .cls-1 {
        fill: none;
      }

      .cls-1, .cls-3 {
        stroke-miterlimit: 10;
      }

      .cls-2 {
        fill: #d0d6e3;
      }

      .cls-3 {
        fill: #fff;
        stroke: #14213d;
      }

      .cls-4, .cls-6 {
        fill: #14213d;
      }

      .cls-4 {
        font-size: 14px;
        font-family: Montserrat-Regular, Montserrat;
      }

      .cls-5, .cls-6 {
        stroke: none;
      }
    </style>
  </defs>
  <g id="Group_1298" data-name="Group 1298" transform="translate(-3980)">
    <g id="Group_1042" data-name="Group 1042" transform="translate(1166.5 3112.717)">
      <g id="Group_1041" data-name="Group 1041" transform="translate(0 0)">
        <g id="Path_2844" data-name="Path 2844" class="cls-1" transform="translate(-0.5 -1.2)">
          <path class="cls-5" d="M125.015,152.3H.5V1.2H90.191l34.825,35.876Z"/>
          <path class="cls-6" d="M 125.0153198242188 152.3013305664063 L 125.0153198242188 37.07635116577148 L 90.19075775146484 1.199997067451477 L 0.5000102519989014 1.199997067451477 L 0.5000102519989014 152.3013305664063 L 125.0153198242188 152.3013305664063 M 126.0153198242188 153.3013305664063 L 125.0153198242188 153.3013305664063 L 0.5000102519989014 153.3013305664063 L -0.4999897480010986 153.3013305664063 L -0.4999897480010986 152.3013305664063 L -0.4999897480010986 1.199997067451477 L -0.4999897480010986 0.1999970972537994 L 0.5000102519989014 0.1999970972537994 L 90.19075775146484 0.1999970972537994 L 90.61371612548828 0.1999970972537994 L 90.90830230712891 0.5034970641136169 L 125.7328643798828 36.37985229492188 L 126.0153198242188 36.67082977294922 L 126.0153198242188 37.07635116577148 L 126.0153198242188 152.3013305664063 L 126.0153198242188 153.3013305664063 Z"/>
        </g>
        <g id="Path_2845" data-name="Path 2845" class="cls-2" transform="translate(-63.725 -1.2)">
          <path class="cls-5" d="M 187.6423950195313 36.57634353637695 L 154.5 36.57634353637695 L 154.5 2.432968854904175 L 187.6423950195313 36.57634353637695 Z"/>
          <path class="cls-6" d="M 186.4602355957031 36.07634353637695 L 155 3.66593599319458 L 155 36.07634353637695 L 186.4602355957031 36.07634353637695 M 188.8245544433594 37.07634353637695 L 154 37.07634353637695 L 154 1.200002193450928 L 188.8245544433594 37.07634353637695 Z"/>
        </g>
      </g>
      <path id="Path_2847" data-name="Path 2847" class="cls-3" d="M144.315,213.7l19.165,40.9-19.165-6.427L125.5,254.6Z" transform="translate(-52.462 -89.535)"/>
    </g>
    <text id="DRAG_DROP" data-name="DRAG &amp; DROP" class="cls-4" transform="translate(1178.041 3190.822)"><tspan x="0" y="0">DRAG &amp; DROP</tspan></text>
    <text id="OR_CLICK_HERE" data-name="OR CLICK HERE" class="cls-4" transform="translate(1173.535 3208.598)"><tspan x="0" y="0">OR CLICK HERE</tspan></text>
  </g>
</svg>
