<svg xmlns="http://www.w3.org/2000/svg" xmlns:xlink="http://www.w3.org/1999/xlink" viewBox="-3308.606 -596.454 1776.342 1696.019">
  <defs>
    <style>
      .cls-1 {
        fill: url(#linear-gradient);
      }

      .cls-2 {
        fill: #e4e9f3;
      }

      .cls-3 {
        fill: url(#linear-gradient-2);
      }

      .cls-4 {
        fill: url(#linear-gradient-3);
      }

      .cls-5 {
        fill: url(#linear-gradient-4);
      }
    </style>
    <linearGradient id="linear-gradient" x1="0.9" y1="0.807" x2="0.71" y2="-0.701" gradientUnits="objectBoundingBox">
      <stop offset="0" stop-color="#4885fa"/>
      <stop offset="1" stop-color="#14213d"/>
    </linearGradient>
    <linearGradient id="linear-gradient-2" x1="0.689" y1="0.707" x2="0.289" y2="-0.046" gradientUnits="objectBoundingBox">
      <stop offset="0" stop-color="#cfd8eb" stop-opacity="0.6"/>
      <stop offset="1" stop-color="#dce3f1" stop-opacity="0"/>
    </linearGradient>
    <linearGradient id="linear-gradient-3" x1="0.301" y1="0.602" x2="-0.91" y2="0.309" xlink:href="#linear-gradient-2"/>
    <linearGradient id="linear-gradient-4" x1="0.307" y1="0.298" x2="0.778" y2="0.628" xlink:href="#linear-gradient-2"/>
  </defs>
  <g id="Group_1297" data-name="Group 1297" transform="translate(-3980)">
    <path id="Path_54" data-name="Path 54" class="cls-1" d="M163.1,6.4C293-28,441,82.7,459.8,186.3c23.1,127.5-155.1,207.1-254.6,226C101.7,431.9,19.5,362.4,1.4,208.8-11,104.3,61.4,33.4,163.1,6.4Z" transform="matrix(0.191, 0.982, -0.982, 0.191, 1079.296, -281.251)"/>
    <g id="Group_36" data-name="Group 36" transform="translate(779.681 -121.902) rotate(-22)">
      <path id="Path_40" data-name="Path 40" class="cls-2" d="M1266.8,1011s-138,295-450,306c-71.6,2.5-134.1-7.5-187.9-27.4-137.8-51.1-219.1-167.4-253.7-305.9a679.415,679.415,0,0,1-19-134.2c-6-137.8-69.9-199.9-142.2-249.3C144.8,553,68,517.5,27.2,438.4-61.5,266.8,94.8,68,94.8,68L1080.1,6.1h0L1176.8,0l37,292Z"/>
      <path id="Path_41" data-name="Path 41" class="cls-3" d="M1080.1,6.1c-1.3,1.9-65.6,232.5-264.8,244.4-200,12-231,146-393,272-80.7,62.8-154.5,78.1-208.2,77.8-69.2-47.2-146-82.7-186.8-161.8C-61.5,266.8,94.8,68,94.8,68Z"/>
      <path id="Path_42" data-name="Path 42" class="cls-4" d="M850.3,551.2c-4.2-134.3,137.2-253.4,242.3-248.3,129.4,6.4,166.7,198,162.5,299.2-4.3,105.2-90.5,169.5-244.2,152.5C906.3,742.9,853.6,656.4,850.3,551.2Z"/>
      <path id="Path_43" data-name="Path 43" class="cls-5" d="M704.4,1252.5c-23.7,19.1-49.1,31.6-75.5,37.1-137.8-51.1-219.1-167.4-253.7-305.9,14.5-38.4,40.4-74.8,74.7-106.9,109.1-102,312.5-71.3,385.3,20.3C924.8,1010,792,1181.7,704.4,1252.5Z"/>
    </g>
  </g>
</svg>
