<svg xmlns="http://www.w3.org/2000/svg" viewBox="-2953 224 750.7 660.903">
  <defs>
    <style>
      .cls-1 {
        opacity: 0.4;
      }

      .cls-2 {
        fill: #c9d7e4;
      }

      .cls-3 {
        fill: #91a0c6;
      }

      .cls-16, .cls-4 {
        fill: #fff;
      }

      .cls-12, .cls-5 {
        fill: #333854;
      }

      .cls-16, .cls-5 {
        opacity: 0.5;
      }

      .cls-6 {
        fill: #c3d0d5;
      }

      .cls-7 {
        fill: #0c0809;
      }

      .cls-8 {
        fill: #0d090a;
      }

      .cls-9 {
        fill: #1ab2c7;
      }

      .cls-10 {
        fill: #567dbe;
      }

      .cls-11 {
        fill: #17a0b2;
      }

      .cls-13 {
        fill: #f3f7ff;
      }

      .cls-14 {
        fill: #b1bfe8;
      }

      .cls-15 {
        fill: #1c4c7f;
      }

      .cls-17 {
        fill: #0275bb;
      }

      .cls-18 {
        fill: #397ba8;
      }

      .cls-19 {
        fill: #737373;
      }

      .cls-20 {
        fill: #555;
      }

      .cls-21 {
        fill: #838585;
      }

      .cls-22 {
        fill: #f58a1f;
      }

      .cls-23 {
        fill: #f69226;
      }

      .cls-24 {
        fill: #999;
      }

      .cls-25 {
        fill: #717070;
      }

      .cls-26 {
        fill: #939292;
      }

      .cls-27 {
        fill: #f16b32;
      }

      .cls-28, .cls-34 {
        fill: #10203b;
      }

      .cls-29 {
        fill: #09bcc9;
      }

      .cls-30 {
        fill: #ff9e29;
      }

      .cls-31 {
        fill: #d7a185;
      }

      .cls-32 {
        fill: #0a3459;
      }

      .cls-33 {
        fill: #f9a369;
      }

      .cls-34 {
        opacity: 0.19;
      }
    </style>
  </defs>
  <g id="Group_1143" data-name="Group 1143" transform="translate(-2953 224.003)">
    <g id="Group_1043" data-name="Group 1043" class="cls-1">
      <path id="Path_2848" data-name="Path 2848" class="cls-2" d="M686.2,217.4l-64.5-37.2L686.2,143l64.5,37.2Zm-59.9-37.3,59.9,34.6,59.9-34.6-59.9-34.6Z"/>
      <path id="Path_2849" data-name="Path 2849" class="cls-2" d="M561.8,217.4l-.6-.3-63.9-36.9L561.8,143l.6.3,63.9,36.9Zm-59.9-37.3,59.9,34.6,59.9-34.6-59.9-34.6Z"/>
      <path id="Path_2850" data-name="Path 2850" class="cls-2" d="M624,253.3,559.6,216l64.5-37.2L688.6,216ZM564.1,216,624,250.6,683.9,216,624,181.5Z"/>
      <path id="Path_2851" data-name="Path 2851" class="cls-2" d="M686.2,289.1l-.6-.3-63.9-36.9,64.5-37.2.6.3,63.9,36.9Zm-59.9-37.2,59.9,34.6,59.9-34.6-59.9-34.6Z"/>
      <path id="Path_2852" data-name="Path 2852" class="cls-2" d="M437.5,217.4l-.6-.3-63.9-37,64.5-37.2.6.3L502,180.1Zm-59.9-37.3,59.9,34.6,59.9-34.6-59.9-34.6Z"/>
      <path id="Path_2853" data-name="Path 2853" class="cls-2" d="M499.7,253.3l-.6-.3-63.9-37,64.5-37.2.6.3L564.2,216ZM439.8,216l59.9,34.6L559.6,216l-59.9-34.6Z"/>
      <path id="Path_2854" data-name="Path 2854" class="cls-2" d="M561.8,289.1l-.6-.3-63.9-36.9,64.5-37.2,64.5,37.2ZM502,251.9l59.9,34.6,59.9-34.6-59.9-34.6Z"/>
      <path id="Path_2855" data-name="Path 2855" class="cls-2" d="M624,325l-64.5-37.2L624,250.6l.6.3,63.9,36.9Zm-59.9-37.2L624,322.4l59.9-34.6L624,253.3Z"/>
      <path id="Path_2856" data-name="Path 2856" class="cls-2" d="M686.2,360.9l-64.5-37.2,64.5-37.2.6.3,63.9,36.9Zm-59.9-37.2,59.9,34.6,59.9-34.6-59.9-34.6Z"/>
      <path id="Path_2857" data-name="Path 2857" class="cls-2" d="M313.1,217.4l-.6-.3-63.9-36.9L313.1,143l64.5,37.2Zm-59.8-37.3,59.9,34.6,59.9-34.6-59.9-34.6Z"/>
      <path id="Path_2858" data-name="Path 2858" class="cls-2" d="M375.3,253.3,310.9,216l64.5-37.2.6.3L439.9,216ZM315.4,216l59.9,34.6L435.2,216l-59.9-34.6Z"/>
      <path id="Path_2859" data-name="Path 2859" class="cls-2" d="M437.5,289.1l-.6-.3L373,251.9l64.5-37.2.6.3L502,251.9Zm-59.9-37.2,59.9,34.6,59.9-34.6-59.9-34.6Z"/>
      <path id="Path_2860" data-name="Path 2860" class="cls-2" d="M499.7,325l-.6-.3-63.9-36.9,64.5-37.2.6.3,63.9,36.9Zm-59.9-37.2,59.9,34.6,59.9-34.6-59.9-34.6Z"/>
      <path id="Path_2861" data-name="Path 2861" class="cls-2" d="M561.8,360.9l-64.5-37.2,64.5-37.2,64.5,37.2ZM502,323.7l59.9,34.6,59.9-34.6-59.9-34.6Z"/>
      <path id="Path_2862" data-name="Path 2862" class="cls-2" d="M624,396.8l-.6-.3-63.9-36.9L624,322.4l64.5,37.2Zm-59.9-37.2L624,394.2l59.9-34.6L624,325Z"/>
      <path id="Path_2863" data-name="Path 2863" class="cls-2" d="M686.2,432.7l-64.5-37.2,64.5-37.2.6.3,63.9,36.9Zm-59.9-37.2,59.9,34.6,59.9-34.6-59.9-34.6Z"/>
      <path id="Path_2864" data-name="Path 2864" class="cls-2" d="M188.8,217.4l-.6-.3-63.9-36.9L188.8,143l.6.3,63.9,36.9Zm-59.9-37.3,59.9,34.6,59.9-34.6-59.9-34.6Z"/>
      <path id="Path_2865" data-name="Path 2865" class="cls-2" d="M251,253.2l-.6-.3L186.5,216,251,178.8l.6.3L315.5,216ZM191.1,216,251,250.6,310.9,216,251,181.5Z"/>
      <path id="Path_2866" data-name="Path 2866" class="cls-2" d="M313.2,289.1l-.6-.3-63.9-36.9,64.5-37.2,64.5,37.2Zm-59.9-37.2,59.9,34.6,59.9-34.6-59.9-34.6Z"/>
      <path id="Path_2867" data-name="Path 2867" class="cls-2" d="M375.3,325l-.6-.3-63.9-36.9,64.5-37.2.6.3,63.9,36.9Zm-59.9-37.2,59.9,34.6,59.9-34.6-59.9-34.6Z"/>
      <path id="Path_2868" data-name="Path 2868" class="cls-2" d="M437.5,360.9,373,323.7l64.5-37.2.6.3L502,323.7Zm-59.9-37.2,59.9,34.6,59.9-34.6-59.9-34.6Z"/>
      <path id="Path_2869" data-name="Path 2869" class="cls-2" d="M499.7,396.8l-64.5-37.2,64.5-37.2,64.5,37.2Zm-59.9-37.2,59.9,34.6,59.9-34.6L499.7,325Z"/>
      <path id="Path_2870" data-name="Path 2870" class="cls-2" d="M561.8,432.7l-.6-.3-63.9-36.9,64.5-37.2.6.3,63.9,36.9ZM502,395.5l59.9,34.6,59.9-34.6-59.9-34.6Z"/>
      <path id="Path_2871" data-name="Path 2871" class="cls-2" d="M624,468.6l-.6-.3-63.9-36.9L624,394.2l64.5,37.2Zm-59.9-37.2L624,466l59.9-34.6L624,396.8Z"/>
      <path id="Path_2872" data-name="Path 2872" class="cls-2" d="M686.2,504.5l-.6-.3-63.9-36.9,64.5-37.2.6.3,63.9,36.9Zm-59.9-37.2,59.9,34.6,59.9-34.6-59.9-34.6Z"/>
      <path id="Path_2873" data-name="Path 2873" class="cls-2" d="M64.5,217.4l-.6-.3L0,180.1l64.5-37.2L129,180.1ZM4.6,180.1l59.9,34.6,59.9-34.6L64.5,145.5Z"/>
      <path id="Path_2874" data-name="Path 2874" class="cls-2" d="M126.6,253.2l-.6-.3L62.2,216l64.5-37.2.6.3L191.2,216ZM66.7,216l59.9,34.6L186.5,216l-59.9-34.6Z"/>
      <path id="Path_2875" data-name="Path 2875" class="cls-2" d="M188.8,289.1l-64.5-37.2,64.5-37.2.6.3,63.9,36.9Zm-59.9-37.2,59.9,34.6,59.9-34.6-59.9-34.6Z"/>
      <path id="Path_2876" data-name="Path 2876" class="cls-2" d="M251,325l-.6-.3-63.9-36.9L251,250.6l.6.3,63.9,36.9Zm-59.9-37.2L251,322.4l59.9-34.6L251,253.2Z"/>
      <path id="Path_2877" data-name="Path 2877" class="cls-2" d="M313.2,360.9l-.6-.3-63.9-36.9,64.5-37.2.6.3,63.9,36.9Zm-59.9-37.2,59.9,34.6,59.9-34.6-59.9-34.6Z"/>
      <path id="Path_2878" data-name="Path 2878" class="cls-2" d="M375.3,396.8l-.6-.3-63.9-36.9,64.5-37.2,64.5,37.2Zm-59.9-37.2,59.9,34.6,59.9-34.6L375.3,325Z"/>
      <path id="Path_2879" data-name="Path 2879" class="cls-2" d="M437.5,432.7l-.6-.3L373,395.5l64.5-37.2L502,395.5Zm-59.9-37.2,59.9,34.6,59.9-34.6-59.9-34.6Z"/>
      <path id="Path_2880" data-name="Path 2880" class="cls-2" d="M499.7,468.6l-64.5-37.2,64.5-37.2.6.3,63.9,36.9Zm-59.9-37.2L499.7,466l59.9-34.6-59.9-34.6Z"/>
      <path id="Path_2881" data-name="Path 2881" class="cls-2" d="M561.8,504.5l-.6-.3-63.9-36.9,64.5-37.2.6.3,63.9,36.9ZM502,467.3l59.9,34.6,59.9-34.6-59.9-34.6Z"/>
      <path id="Path_2882" data-name="Path 2882" class="cls-2" d="M624,540.4l-.6-.3-63.9-36.9L624,466l.6.3,63.9,36.9Zm-59.9-37.2L624,537.8l59.9-34.6L624,468.6Z"/>
      <path id="Path_2883" data-name="Path 2883" class="cls-2" d="M686.2,576.3l-.6-.3-63.9-36.9,64.5-37.2,64.5,37.2Zm-59.9-37.2,59.9,34.6,59.9-34.6-59.9-34.6Z"/>
      <path id="Path_2884" data-name="Path 2884" class="cls-2" d="M64.5,289.1l-.6-.3L0,251.9l64.5-37.2.5.3,63.9,36.9ZM4.6,251.9l59.9,34.6,59.9-34.6L64.5,217.3Z"/>
      <path id="Path_2885" data-name="Path 2885" class="cls-2" d="M126.6,325l-.6-.3L62.1,287.8l64.5-37.2,64.5,37.2ZM66.7,287.8l59.9,34.6,59.9-34.6-59.9-34.6Z"/>
      <path id="Path_2886" data-name="Path 2886" class="cls-2" d="M188.8,360.9l-64.5-37.2,64.5-37.2.6.3,63.9,36.9Zm-59.9-37.2,59.9,34.6,59.9-34.6-59.9-34.6Z"/>
      <path id="Path_2887" data-name="Path 2887" class="cls-2" d="M251,396.8l-.6-.3-63.9-36.9L251,322.4l.6.3,63.9,36.9Zm-59.9-37.2L251,394.2l59.9-34.6L251,325Z"/>
      <path id="Path_2888" data-name="Path 2888" class="cls-2" d="M313.2,432.7l-.6-.3-63.9-36.9,64.5-37.2.6.3,63.9,36.9Zm-59.9-37.2,59.9,34.6,59.9-34.6-59.9-34.6Z"/>
      <path id="Path_2889" data-name="Path 2889" class="cls-2" d="M375.3,468.6l-.6-.3-63.9-36.9,64.5-37.2.6.3,63.9,36.9Zm-59.9-37.2L375.3,466l59.9-34.6-59.9-34.6Z"/>
      <path id="Path_2890" data-name="Path 2890" class="cls-2" d="M437.5,504.5,373,467.3l64.5-37.2L502,467.3Zm-59.9-37.2,59.9,34.6,59.9-34.6-59.9-34.6Z"/>
      <path id="Path_2891" data-name="Path 2891" class="cls-2" d="M499.7,540.4l-64.5-37.2L499.7,466l.6.3,63.9,36.9Zm-59.9-37.2,59.9,34.6,59.9-34.6-59.9-34.6Z"/>
      <path id="Path_2892" data-name="Path 2892" class="cls-2" d="M561.8,576.3l-.6-.3-63.9-36.9,64.5-37.2.6.3,63.9,36.9ZM502,539.1l59.9,34.6,59.9-34.6-59.9-34.6Z"/>
      <path id="Path_2893" data-name="Path 2893" class="cls-2" d="M624,612.2l-.6-.3L559.6,575l64.5-37.2.6.3L688.6,575ZM564.1,575,624,609.6,683.9,575,624,540.4Z"/>
      <path id="Path_2894" data-name="Path 2894" class="cls-2" d="M686.2,648.1l-.6-.3-63.9-36.9,64.5-37.2.6.3,63.9,36.9Zm-59.9-37.2,59.9,34.6,59.9-34.6-59.9-34.6Z"/>
      <path id="Path_2895" data-name="Path 2895" class="cls-2" d="M64.5,360.9l-.6-.3L0,323.7l64.5-37.2.6.3L129,323.7ZM4.6,323.7l59.9,34.6,59.9-34.6L64.5,289.1Z"/>
      <path id="Path_2896" data-name="Path 2896" class="cls-2" d="M126.6,396.8l-.6-.3L62.1,359.6l64.5-37.2,64.5,37.2ZM66.7,359.6l59.9,34.6,59.9-34.6L126.6,325Z"/>
      <path id="Path_2897" data-name="Path 2897" class="cls-2" d="M188.8,432.7l-.6-.3-63.9-36.9,64.5-37.2.6.3,63.9,36.9Zm-59.9-37.2,59.9,34.6,59.9-34.6-59.9-34.6Z"/>
      <path id="Path_2898" data-name="Path 2898" class="cls-2" d="M251,468.6l-64.5-37.2L251,394.2l.6.3,63.9,36.9Zm-59.9-37.2L251,466l59.9-34.6L251,396.8Z"/>
      <path id="Path_2899" data-name="Path 2899" class="cls-2" d="M313.2,504.5l-.6-.3-63.9-36.9,64.5-37.2.6.3,63.9,36.9Zm-59.9-37.2,59.9,34.6,59.9-34.6-59.9-34.6Z"/>
      <path id="Path_2900" data-name="Path 2900" class="cls-2" d="M375.3,540.4l-64.5-37.2L375.3,466l64.5,37.2Zm-59.9-37.2,59.9,34.6,59.9-34.6-59.9-34.6Z"/>
      <path id="Path_2901" data-name="Path 2901" class="cls-2" d="M437.5,576.3l-.6-.3L373,539.1l64.5-37.2L502,539.1Zm-59.9-37.2,59.9,34.6,59.9-34.6-59.9-34.6Z"/>
      <path id="Path_2902" data-name="Path 2902" class="cls-2" d="M499.7,612.2l-.6-.3L435.2,575l64.5-37.2.6.3L564.2,575ZM439.8,575l59.9,34.6L559.6,575l-59.9-34.6Z"/>
      <path id="Path_2903" data-name="Path 2903" class="cls-2" d="M561.9,648.1l-64.5-37.2,64.5-37.2.6.3,63.9,36.9ZM502,610.9l59.9,34.6,59.9-34.6-59.9-34.6Z"/>
      <path id="Path_2904" data-name="Path 2904" class="cls-2" d="M64.5,432.7l-.6-.3L0,395.5l64.5-37.2.6.3L129,395.5ZM4.6,395.5l59.9,34.6,59.9-34.6L64.5,360.9Z"/>
      <path id="Path_2905" data-name="Path 2905" class="cls-2" d="M126.6,468.6l-.6-.3L62.1,431.4l64.5-37.2.6.3,63.9,36.9ZM66.7,431.4,126.6,466l59.9-34.6-59.9-34.6Z"/>
      <path id="Path_2906" data-name="Path 2906" class="cls-2" d="M188.8,504.5l-.6-.3-63.9-36.9,64.5-37.2,64.5,37.2Zm-59.9-37.2,59.9,34.6,59.9-34.6-59.9-34.6Z"/>
      <path id="Path_2907" data-name="Path 2907" class="cls-2" d="M251,540.4l-64.5-37.2L251,466l.6.3,63.9,36.9Zm-59.9-37.2L251,537.8l59.9-34.6L251,468.6Z"/>
      <path id="Path_2908" data-name="Path 2908" class="cls-2" d="M313.2,576.3l-.6-.3-63.9-36.9,64.5-37.2,64.5,37.2Zm-59.9-37.2,59.9,34.6,59.9-34.6-59.9-34.6Z"/>
      <path id="Path_2909" data-name="Path 2909" class="cls-2" d="M375.3,612.2,310.9,575l64.5-37.2.6.3L439.9,575ZM315.4,575l59.9,34.6L435.2,575l-59.9-34.6Z"/>
      <path id="Path_2910" data-name="Path 2910" class="cls-2" d="M437.5,648.1l-.6-.3L373,610.9l64.5-37.2.6.3L502,610.9Zm-59.9-37.2,59.9,34.6,59.9-34.6-59.9-34.6Z"/>
      <path id="Path_2911" data-name="Path 2911" class="cls-2" d="M64.5,504.5l-.6-.3L0,467.3l64.5-37.2.6.3L129,467.3ZM4.6,467.3l59.9,34.6,59.9-34.6L64.5,432.7Z"/>
      <path id="Path_2912" data-name="Path 2912" class="cls-2" d="M126.6,540.4l-.6-.3L62.1,503.2,126.6,466l.6.3,63.9,36.9ZM66.7,503.2l59.9,34.6,59.9-34.6-59.9-34.6Z"/>
      <path id="Path_2913" data-name="Path 2913" class="cls-2" d="M188.8,576.3l-.6-.3-63.9-36.9,64.5-37.2,64.5,37.2Zm-59.9-37.2,59.9,34.6,59.9-34.6-59.9-34.6Z"/>
      <path id="Path_2914" data-name="Path 2914" class="cls-2" d="M251,612.2l-.6-.3L186.5,575,251,537.8l.6.3L315.5,575ZM191.1,575,251,609.6,310.9,575,251,540.4Z"/>
      <path id="Path_2915" data-name="Path 2915" class="cls-2" d="M313.2,648.1l-64.5-37.2,64.5-37.2,64.5,37.2Zm-59.9-37.2,59.9,34.6,59.9-34.6-59.9-34.6Z"/>
      <path id="Path_2916" data-name="Path 2916" class="cls-2" d="M64.5,576.3,0,539.1l64.5-37.2.6.3L129,539.1ZM4.6,539.1l59.9,34.6,59.9-34.6L64.5,504.5Z"/>
      <path id="Path_2917" data-name="Path 2917" class="cls-2" d="M126.6,612.2l-.6-.3L62.2,575l64.5-37.2.6.3L191.2,575ZM66.7,575l59.9,34.6L186.5,575l-59.9-34.6Z"/>
      <path id="Path_2918" data-name="Path 2918" class="cls-2" d="M188.8,648.1l-.6-.3-63.9-36.9,64.5-37.2.6.3,63.9,36.9Zm-59.9-37.2,59.9,34.6,59.9-34.6-59.9-34.6Z"/>
      <path id="Path_2919" data-name="Path 2919" class="cls-2" d="M64.5,648.1,0,610.9l64.5-37.2.5.3,63.9,36.9ZM4.6,610.9l59.9,34.6,59.9-34.6L64.5,576.3Z"/>
    </g>
    <g id="Group_1142" data-name="Group 1142">
      <g id="Group_1141" data-name="Group 1141">
        <g id="Group_1044" data-name="Group 1044">
          <path id="Path_2920" data-name="Path 2920" class="cls-3" d="M445,485.4v0Z"/>
        </g>
        <g id="Group_1140" data-name="Group 1140">
          <g id="Group_1047" data-name="Group 1047">
            <g id="Group_1046" data-name="Group 1046">
              <g id="Group_1045" data-name="Group 1045">
                <path id="Path_2921" data-name="Path 2921" class="cls-4" d="M579.4,373.4c5.8,3.3,5.8,8.7.1,12L464.7,452.1c-5.7,3.3-15,3.3-20.8,0L307.4,373.3c-5.7-3.3-5.8-8.7-.1-12l114.8-66.7c5.7-3.3,15-3.3,20.8,0Z"/>
              </g>
              <path id="Path_2922" data-name="Path 2922" class="cls-2" d="M583.7,379.9a.9.9,0,0,1-.1.5c0,.1-.1.2-.1.4,0,.1-.1.3-.1.4s-.1.2-.2.4-.1.3-.2.5c-.1.1-.1.2-.2.3-.1.2-.2.3-.3.5-.1.1-.2.2-.2.3-.2.2-.4.5-.6.7l-.2.2c-.1.1-.3.2-.5.4-.1.1-.3.2-.4.3a1.756,1.756,0,0,0-.5.4,2.092,2.092,0,0,0-.6.4L464.7,452.3a6.11,6.11,0,0,1-1.4.7c-.1.1-.3.1-.4.2a5.637,5.637,0,0,1-1.2.4c-.1,0-.3.1-.4.1-.2.1-.5.1-.8.2-.2.1-.4.1-.6.2-.3.1-.5.1-.8.2-.2,0-.4.1-.6.1a8.806,8.806,0,0,1-1.7.2h-.5c-.3,0-.7.1-1,.1h-2.8a1.7,1.7,0,0,1-.7-.1c-.2,0-.5-.1-.7-.1s-.4-.1-.7-.1-.5-.1-.8-.1c-.2,0-.4-.1-.6-.1-.3-.1-.6-.1-.9-.2-.2,0-.3-.1-.5-.1-.5-.2-1.1-.3-1.6-.5-.1,0-.1-.1-.2-.1a12.444,12.444,0,0,1-2-1L307.3,373.5c-2.9-1.7-4.3-3.9-4.3-6.1v8.4c0,2.2,1.4,4.4,4.3,6.1l136.5,78.8a12.444,12.444,0,0,0,2,1,.1.1,0,0,1,.1.1h.1a7.494,7.494,0,0,0,1.6.5h.1c.1,0,.3.1.4.1a2.92,2.92,0,0,0,.9.2c.1,0,.2,0,.2.1a.756.756,0,0,1,.4.1c.3,0,.5.1.8.1a.367.367,0,0,1,.3.1h.3c.2,0,.5.1.7.1h3.4a3.4,3.4,0,0,0,1-.1h.5c.6-.1,1.1-.1,1.7-.2h.1c.2,0,.3-.1.5-.1.3-.1.5-.1.8-.2a1.421,1.421,0,0,0,.6-.2c.3-.1.5-.1.8-.2h.2c.1,0,.2-.1.3-.1.4-.1.8-.3,1.2-.4.1-.1.3-.1.4-.2a9.143,9.143,0,0,0,1.4-.7L579.4,394c.1,0,.1-.1.2-.1.1-.1.3-.2.4-.3a1,1,0,0,0,.5-.4c.1-.1.3-.2.4-.3a1.756,1.756,0,0,0,.5-.4.1.1,0,0,0,.1-.1l.2-.2a4.346,4.346,0,0,0,.6-.7l.1-.1.1-.1c.1-.2.2-.3.3-.5,0-.1.1-.1.1-.2a.1.1,0,0,1,.1-.1c.1-.2.1-.3.2-.5,0-.1.1-.2.1-.3v-.1a.6.6,0,0,0,.1-.4c0-.1.1-.2.1-.3v-.1a.9.9,0,0,1,.1-.5v-8.8C583.8,379.6,583.7,379.7,583.7,379.9Z"/>
            </g>
          </g>
          <g id="Group_1058" data-name="Group 1058">
            <g id="Group_1049" data-name="Group 1049">
              <g id="Group_1048" data-name="Group 1048">
                <path id="Path_2923" data-name="Path 2923" class="cls-2" d="M492.3,362.7h0v-.8a.749.749,0,0,0-.1-.5v-.2a.367.367,0,0,0-.1-.3c0-.2-.1-.4-.1-.6,0-.1-.1-.3-.1-.4v-.2c-.1-.2-.1-.4-.2-.6s-.1-.3-.2-.5l-13.8-30.8-67-38.9,13.8,30.8a5.637,5.637,0,0,1,.4,1.2v.1c.1.4.2.8.3,1.3v.1a6.6,6.6,0,0,1,.1,1.4v1.7a9.971,9.971,0,0,1-.2,1.6v.1a9.365,9.365,0,0,1-.4,1.6v.1a10.926,10.926,0,0,1-.5,1.7v.1a13.353,13.353,0,0,1-.7,1.8c-.3.6-.5,1.2-.8,1.7a.1.1,0,0,1-.1.1,10,10,0,0,1-.8,1.4,4.348,4.348,0,0,0-.4.7,6.07,6.07,0,0,1-.7,1c-.1.1-.1.2-.2.2a13.443,13.443,0,0,1-1.1,1.4v.1a15.374,15.374,0,0,1-1.2,1.3h0l-1.2,1.2a.1.1,0,0,0-.1.1,6.419,6.419,0,0,1-1.3,1,.1.1,0,0,0-.1.1c-.4.3-.9.6-1.4.9l-43.7,25.2,67,38.9,43.7-25.2a.1.1,0,0,0,.1-.1c.2-.1.3-.2.5-.3s.3-.2.5-.3c.1-.1.2-.1.3-.2a.1.1,0,0,0,.1-.1c.1,0,.1-.1.2-.1.2-.1.3-.3.5-.4s.3-.3.5-.4l.1-.1a.1.1,0,0,0,.1-.1l.3-.3c.2-.1.3-.3.5-.5.2-.1.3-.3.5-.4h0a1.755,1.755,0,0,0,.4-.5c.1-.2.3-.3.4-.5a1.38,1.38,0,0,0,.3-.4v-.1l.1-.1c.1-.2.3-.3.4-.5.2-.2.3-.4.5-.6,0-.1.1-.1.1-.2.1-.1.1-.2.2-.2.1-.2.2-.3.3-.5a2.187,2.187,0,0,1,.3-.5,4.348,4.348,0,0,0,.4-.7c.1-.1.1-.2.2-.3a3.128,3.128,0,0,0,.5-1,497612531921.147,497612531921.147,0,0,1,.2-.2c.1-.1.1-.3.2-.4l.3-.6.3-.6a.1.1,0,0,1,.1-.1c.1-.1.1-.3.2-.4a1.421,1.421,0,0,0,.2-.6c.1-.2.1-.4.2-.6,0-.1,0-.1.1-.2v-.1c0-.1.1-.2.1-.3.1-.2.1-.4.2-.6s.1-.4.2-.6v-.3c0-.1.1-.2.1-.3,0-.2.1-.4.1-.6s.1-.4.1-.6v-.3a.367.367,0,0,1,.1-.3,4.331,4.331,0,0,1,.1-.5.749.749,0,0,1,.1-.5v-1.8Z"/>
                <path id="Path_2924" data-name="Path 2924" class="cls-5" d="M493.5,356.3l-13.8-30.8c-.1-.2-.2-.2-.3-.3h.1l-67-38.9h-.7v.2l-.1.1a.1.1,0,0,1-.1.1l-.1.1h0v.9h0v.8h0v.8l67,38.9L492.3,359c1.4,3.2,1.1,7.8-1.1,12.7-2.1,4.8-5.5,8.9-9.3,11.1L438.2,408l-67-38.9h-.3v.2l-.1.1a.1.1,0,0,1-.1.1l-.1.1h0v.9h0v.9h0v.8h0v.1l.2.2,67,38.9c-.1,0-.1-.1-.2-.2.2.3.5.3,1,.1l43.7-25.2c4.5-2.6,8.7-7.6,11.2-13.3C494.7,365.8,495.2,360.1,493.5,356.3Zm-14.4-31.1Zm-42.7,84.7a.749.749,0,0,1-.1-.5.749.749,0,0,0,.1.5Z"/>
              </g>
            </g>
            <g id="Group_1050" data-name="Group 1050">
              <path id="Path_2925" data-name="Path 2925" class="cls-2" d="M588.5,378.3l-.1,24.3c0,4.5-3.2,6.4-7.2,4.1L338.5,266.6c-4-2.3-7.2-7.8-7.1-12.4l.1-24.3Z"/>
            </g>
            <path id="Path_2926" data-name="Path 2926" class="cls-5" d="M492.3,362.7v1.7l-67.1-38.7v-2a6.149,6.149,0,0,0-.1-1.4v-.1c-.1-.4-.2-.9-.3-1.3v-.1c-.1-.4-.3-.8-.4-1.2l-2-4.6,66.9,38.6,2.2,4.9c.1.2.1.3.2.5s.1.4.2.6v.2c0,.1.1.3.1.4,0,.2.1.4.1.6v1.5l.2.4Z"/>
            <g id="Group_1051" data-name="Group 1051">
              <path id="Path_2927" data-name="Path 2927" class="cls-6" d="M331.4,229.9l6.7-3.9,257,148.4-6.6,3.9Z"/>
            </g>
            <g id="Group_1052" data-name="Group 1052">
              <path id="Path_2928" data-name="Path 2928" class="cls-7" d="M343,94.2l6.7-3.9-.4,129.3-6.6,3.9Z"/>
            </g>
            <g id="Group_1053" data-name="Group 1053">
              <path id="Path_2929" data-name="Path 2929" class="cls-8" d="M342.7,223.5l6.6-3.9L584,355.1l-6.7,3.9Z"/>
            </g>
            <g id="Group_1054" data-name="Group 1054">
              <path id="Path_2930" data-name="Path 2930" class="cls-9" d="M343,94.2l6.7-3.9L584.4,225.8l-6.7,3.9Z"/>
            </g>
            <g id="Group_1055" data-name="Group 1055">
              <path id="Path_2931" data-name="Path 2931" class="cls-10" d="M577.7,229.7,577.3,359,342.7,223.5,343,94.2Z"/>
            </g>
            <g id="Group_1056" data-name="Group 1056">
              <path id="Path_2932" data-name="Path 2932" class="cls-11" d="M577.7,229.7l6.7-3.9L584,355.1l-6.7,3.9Z"/>
            </g>
            <path id="Path_2933" data-name="Path 2933" class="cls-10" d="M595.1,374.4l.4-146.8v-1.3a.756.756,0,0,0-.1-.4h0a.367.367,0,0,0-.1-.3.756.756,0,0,0-.1-.4c0-.1-.1-.2-.1-.4,0-.1-.1-.3-.1-.4s-.1-.2-.1-.3h0V224c0-.1-.1-.2-.1-.4,0-.1-.1-.2-.1-.4,0-.1-.1-.2-.1-.3s-.1-.2-.1-.3-.1-.2-.1-.3h0v-.1c-.1-.1-.1-.2-.2-.3s-.1-.3-.2-.4-.1-.3-.2-.4c-.1-.2-.2-.3-.3-.5v-.2a4.052,4.052,0,0,1-.5-.9,2.651,2.651,0,0,0-.5-.6h0c-.1-.1-.2-.3-.3-.4l-.3-.3-.3-.3-.3-.3-.1-.1h0l-.2-.2-.3-.3-.3-.3-.3-.3c-.1,0-.1-.1-.2-.1h0l-.1-.1c-.1-.1-.2-.2-.3-.2-.1-.1-.2-.1-.3-.2s-.2-.1-.3-.2-.2-.1-.3-.2h-.1L345.7,75.1a.349.349,0,0,1-.2-.1c-.1-.1-.2-.1-.3-.2-.1,0-.1-.1-.2-.1h-.1c-.1,0-.2-.1-.3-.1s-.2-.1-.3-.1h0c-.1,0-.1,0-.2-.1-.1,0-.2-.1-.3-.1h-.3a.367.367,0,0,1-.3-.1h-1a.6.6,0,0,0-.4.1h-.1c-.1,0-.3.1-.4.1h0a2.185,2.185,0,0,0-.5.3l-6.7,3.9a2.185,2.185,0,0,0,.5-.3.6.6,0,0,1,.4-.1h.1a4.331,4.331,0,0,0,.5-.1h.7a1.268,1.268,0,0,1,.6.1h.1a1.421,1.421,0,0,1,.6.2h0c.2.1.5.2.7.3h0a2.506,2.506,0,0,1,.7.4L581.7,219.2a7.1,7.1,0,0,1,1.4,1h0a15.374,15.374,0,0,1,1.3,1.2h0c.4.5.8.9,1.2,1.4h0a8.634,8.634,0,0,1,1,1.6v.1a8.866,8.866,0,0,1,.8,1.7h0a6.356,6.356,0,0,1,.6,1.8h0a11.63,11.63,0,0,1,.4,1.8h0a10.286,10.286,0,0,1,.1,1.7l-.4,146.8h0l-.1,24.3c0,.6-.1,1.1-.1,1.5h0a4.949,4.949,0,0,1-.4,1.3h0a2.177,2.177,0,0,1-.5.8c-.1.1-.1.2-.2.2a1.555,1.555,0,0,1-.8.6l6.7-3.9c.3-.2.5-.4.8-.6.1-.1.1-.2.2-.2l.3-.3c.1-.2.2-.3.3-.5h0c.1-.1.1-.2.2-.4,0-.1.1-.2.1-.4,0-.1.1-.2.1-.4v-.2h0v-.2a.367.367,0,0,1,.1-.3v-.9h0l.3-24.3Z"/>
            <g id="Group_1057" data-name="Group 1057">
              <path id="Path_2934" data-name="Path 2934" class="cls-12" d="M581.8,219.1c4,2.3,7.2,7.8,7.1,12.4l-.4,146.8-257-148.4.4-146.8c0-4.5,3.2-6.4,7.2-4.1ZM577.3,359l.4-129.3L343,94.2l-.4,129.3L577.3,359"/>
            </g>
          </g>
          <g id="Group_1061" data-name="Group 1061">
            <path id="Path_2935" data-name="Path 2935" class="cls-10" d="M440.6,474v3h0a3.179,3.179,0,0,1-1.9,3l-52.3,30.4a10.38,10.38,0,0,1-9.4,0L231.4,426.3c-1.4-.8-2-1.8-1.9-2.8h0v-3.1a3.339,3.339,0,0,0,1.9,2.6L377,506.9a10.38,10.38,0,0,0,9.4,0l52.3-30.4A3.206,3.206,0,0,0,440.6,474Z"/>
            <path id="Path_2936" data-name="Path 2936" class="cls-2" d="M283.7,387.1a10.38,10.38,0,0,1,9.4,0l145.6,84.1c2.6,1.5,2.6,3.9,0,5.4L386.4,507a10.38,10.38,0,0,1-9.4,0L231.4,422.9c-2.6-1.5-2.6-3.9,0-5.4"/>
            <g id="Group_1060" data-name="Group 1060">
              <g id="Group_1059" data-name="Group 1059">
                <path id="Path_2937" data-name="Path 2937" class="cls-13" d="M297.8,394.5,290,390a1.532,1.532,0,0,0-1.6,0l-4.2,2.4c-.4.3-.4.7,0,.9l7.8,4.5a1.532,1.532,0,0,0,1.6,0l4.2-2.4c.4-.2.4-.6,0-.9"/>
                <path id="Path_2938" data-name="Path 2938" class="cls-13" d="M310.1,401.7l-7.8-4.5a2.2,2.2,0,0,0-1.6,0l-4.1,2.4c-.4.3-.5.7,0,.9l7.8,4.5a2.2,2.2,0,0,0,1.6,0l4.1-2.4c.4-.3.4-.7,0-.9"/>
                <path id="Path_2939" data-name="Path 2939" class="cls-13" d="M322.4,408.8l-7.8-4.5a2.2,2.2,0,0,0-1.6,0l-4.1,2.4c-.4.3-.5.7,0,.9l7.8,4.5a2.2,2.2,0,0,0,1.6,0l4.1-2.4c.5-.2.5-.7,0-.9"/>
                <path id="Path_2940" data-name="Path 2940" class="cls-13" d="M334.8,415.9l-7.8-4.5a2.2,2.2,0,0,0-1.6,0l-4.1,2.4c-.4.3-.5.7,0,.9l7.8,4.5a2.2,2.2,0,0,0,1.6,0l4.1-2.4c.4-.2.4-.6,0-.9"/>
                <path id="Path_2941" data-name="Path 2941" class="cls-13" d="M347.1,423l-7.8-4.5a2.2,2.2,0,0,0-1.6,0l-4.1,2.4c-.4.3-.5.7,0,.9l7.8,4.5a2.2,2.2,0,0,0,1.6,0l4.1-2.4c.5-.2.5-.6,0-.9"/>
                <path id="Path_2942" data-name="Path 2942" class="cls-13" d="M359.5,430.2l-7.8-4.5a2.2,2.2,0,0,0-1.6,0l-4.1,2.4c-.4.3-.5.7,0,.9l7.8,4.5a2.2,2.2,0,0,0,1.6,0l4.1-2.4c.4-.3.4-.7,0-.9"/>
                <path id="Path_2943" data-name="Path 2943" class="cls-13" d="M371.8,437.3l-7.8-4.5a2.2,2.2,0,0,0-1.6,0l-4.1,2.4c-.4.3-.5.7,0,.9l7.8,4.5a2.2,2.2,0,0,0,1.6,0l4.1-2.4a.487.487,0,0,0,0-.9"/>
                <path id="Path_2944" data-name="Path 2944" class="cls-13" d="M384.2,444.4l-7.8-4.5a2.2,2.2,0,0,0-1.6,0l-4.1,2.4c-.4.3-.5.7,0,.9l7.8,4.5a2.2,2.2,0,0,0,1.6,0l4.1-2.4c.4-.2.4-.6,0-.9"/>
                <path id="Path_2945" data-name="Path 2945" class="cls-13" d="M396.5,451.6l-7.8-4.5a2.2,2.2,0,0,0-1.6,0l-4.1,2.4c-.4.3-.5.7,0,.9l7.8,4.5a2.2,2.2,0,0,0,1.6,0l4.1-2.4c.4-.3.4-.7,0-.9"/>
                <path id="Path_2946" data-name="Path 2946" class="cls-13" d="M408.8,458.7l-7.8-4.5a2.2,2.2,0,0,0-1.6,0l-4.1,2.4c-.4.3-.5.7,0,.9l7.8,4.5a2.2,2.2,0,0,0,1.6,0l4.1-2.4c.5-.3.5-.7,0-.9"/>
                <path id="Path_2947" data-name="Path 2947" class="cls-13" d="M421.2,465.8l-7.8-4.5a2.2,2.2,0,0,0-1.6,0l-4.1,2.4c-.4.3-.5.7,0,.9l7.8,4.5a2.2,2.2,0,0,0,1.6,0l4.1-2.4c.4-.3.4-.7,0-.9"/>
                <path id="Path_2948" data-name="Path 2948" class="cls-13" d="M433.5,472.9l-7.8-4.5a1.532,1.532,0,0,0-1.6,0l-4.2,2.4c-.4.3-.4.7,0,.9l7.8,4.5a1.8,1.8,0,0,0,1.6,0l4.2-2.4c.4-.2.4-.6,0-.9"/>
                <path id="Path_2949" data-name="Path 2949" class="cls-13" d="M288.9,399.7l-7.8-4.5a1.8,1.8,0,0,0-1.6,0l-6.8,3.9c-.4.3-.4.7,0,.9l7.8,4.5a1.532,1.532,0,0,0,1.6,0l6.8-3.9c.4-.3.4-.7,0-.9"/>
                <path id="Path_2950" data-name="Path 2950" class="cls-13" d="M301.3,406.8l-7.8-4.5a2.2,2.2,0,0,0-1.6,0l-6.8,3.9c-.4.3-.5.7,0,.9l7.8,4.5a2.2,2.2,0,0,0,1.6,0l6.8-3.9c.4-.2.4-.6,0-.9"/>
                <path id="Path_2951" data-name="Path 2951" class="cls-13" d="M313.6,413.9l-7.8-4.5a2.2,2.2,0,0,0-1.6,0l-6.8,3.9c-.4.3-.5.7,0,.9l7.8,4.5a2.2,2.2,0,0,0,1.6,0l6.8-3.9c.4-.2.4-.6,0-.9"/>
                <path id="Path_2952" data-name="Path 2952" class="cls-13" d="M325.9,421.1l-7.8-4.5a2.2,2.2,0,0,0-1.6,0l-6.8,3.9c-.4.3-.5.7,0,.9l7.8,4.5a2.2,2.2,0,0,0,1.6,0l6.8-3.9c.5-.3.5-.7,0-.9"/>
                <path id="Path_2953" data-name="Path 2953" class="cls-13" d="M338.3,428.2l-7.8-4.5a2.2,2.2,0,0,0-1.6,0l-6.8,3.9c-.4.3-.5.7,0,.9l7.8,4.5a2.2,2.2,0,0,0,1.6,0l6.8-3.9c.4-.3.4-.7,0-.9"/>
                <path id="Path_2954" data-name="Path 2954" class="cls-13" d="M350.6,435.3l-7.8-4.5a2.2,2.2,0,0,0-1.6,0l-6.8,3.9c-.4.3-.5.7,0,.9l7.8,4.5a2.2,2.2,0,0,0,1.6,0l6.8-3.9c.4-.2.4-.6,0-.9"/>
                <path id="Path_2955" data-name="Path 2955" class="cls-13" d="M363,442.4l-7.8-4.5a2.2,2.2,0,0,0-1.6,0l-6.8,3.9c-.4.3-.5.7,0,.9l7.8,4.5a2.2,2.2,0,0,0,1.6,0l6.8-3.9c.4-.2.4-.6,0-.9"/>
                <path id="Path_2956" data-name="Path 2956" class="cls-13" d="M375.3,449.6l-7.8-4.5a2.2,2.2,0,0,0-1.6,0l-6.8,3.9c-.4.3-.5.7,0,.9l7.8,4.5a2.2,2.2,0,0,0,1.6,0l6.8-3.9c.4-.3.4-.7,0-.9"/>
                <path id="Path_2957" data-name="Path 2957" class="cls-13" d="M387.6,456.7l-7.8-4.5a2.2,2.2,0,0,0-1.6,0l-6.8,3.9c-.4.3-.5.7,0,.9l7.8,4.5a2.2,2.2,0,0,0,1.6,0l6.8-3.9c.5-.3.5-.7,0-.9"/>
                <path id="Path_2958" data-name="Path 2958" class="cls-13" d="M400,463.8l-7.8-4.5a2.2,2.2,0,0,0-1.6,0l-6.8,3.9c-.4.3-.5.7,0,.9l7.8,4.5a2.2,2.2,0,0,0,1.6,0l6.8-3.9c.4-.2.4-.6,0-.9"/>
                <path id="Path_2959" data-name="Path 2959" class="cls-13" d="M412.3,470.9l-7.8-4.5a2.2,2.2,0,0,0-1.6,0l-6.8,3.9c-.4.3-.5.7,0,.9l7.8,4.5a2.2,2.2,0,0,0,1.6,0l6.8-3.9c.4-.2.5-.6,0-.9"/>
                <path id="Path_2960" data-name="Path 2960" class="cls-13" d="M424.7,478.1l-7.8-4.5a1.532,1.532,0,0,0-1.6,0l-6.8,3.9c-.4.3-.4.7,0,.9l7.8,4.5a1.8,1.8,0,0,0,1.6,0l6.8-3.9c.4-.3.4-.7,0-.9"/>
                <path id="Path_2961" data-name="Path 2961" class="cls-13" d="M289.7,413.5l-12.3-7.1-1.1-.6-6.8-3.9a2.2,2.2,0,0,0-1.6,0l-6.8,3.9c-.4.3-.5.7,0,.9l6.8,3.9,1.1.6,12.3,7.1a2.2,2.2,0,0,0,1.6,0l6.8-3.9c.4-.2.4-.6,0-.9"/>
                <path id="Path_2962" data-name="Path 2962" class="cls-13" d="M302,420.7l-7.8-4.5a2.2,2.2,0,0,0-1.6,0l-6.8,3.9c-.4.3-.5.7,0,.9l7.8,4.5a2.2,2.2,0,0,0,1.6,0l6.8-3.9c.4-.3.4-.7,0-.9"/>
                <path id="Path_2963" data-name="Path 2963" class="cls-13" d="M314.4,427.8l-7.8-4.5a2.2,2.2,0,0,0-1.6,0l-6.8,3.9c-.4.3-.5.7,0,.9l7.8,4.5a2.2,2.2,0,0,0,1.6,0l6.8-3.9a.487.487,0,0,0,0-.9"/>
                <path id="Path_2964" data-name="Path 2964" class="cls-13" d="M326.7,434.9l-7.8-4.5a2.2,2.2,0,0,0-1.6,0l-6.8,3.9c-.4.3-.5.7,0,.9l7.8,4.5a2.2,2.2,0,0,0,1.6,0l6.8-3.9c.4-.2.4-.6,0-.9"/>
                <path id="Path_2965" data-name="Path 2965" class="cls-13" d="M339,442l-7.8-4.5a2.2,2.2,0,0,0-1.6,0l-6.8,3.9c-.4.3-.5.7,0,.9l7.8,4.5a2.2,2.2,0,0,0,1.6,0l6.8-3.9c.5-.2.5-.6,0-.9"/>
                <path id="Path_2966" data-name="Path 2966" class="cls-13" d="M351.4,449.2l-7.8-4.5a2.2,2.2,0,0,0-1.6,0l-6.8,3.9c-.4.3-.5.7,0,.9L343,454a2.2,2.2,0,0,0,1.6,0l6.8-3.9c.4-.3.4-.7,0-.9"/>
                <path id="Path_2967" data-name="Path 2967" class="cls-13" d="M363.7,456.3l-7.8-4.5a2.2,2.2,0,0,0-1.6,0l-6.8,3.9c-.4.3-.5.7,0,.9l7.8,4.5a2.2,2.2,0,0,0,1.6,0l6.8-3.9a.487.487,0,0,0,0-.9"/>
                <path id="Path_2968" data-name="Path 2968" class="cls-13" d="M376.1,463.4l-7.8-4.5a2.2,2.2,0,0,0-1.6,0l-6.8,3.9c-.4.3-.5.7,0,.9l7.8,4.5a2.2,2.2,0,0,0,1.6,0l6.8-3.9c.4-.2.4-.6,0-.9"/>
                <path id="Path_2969" data-name="Path 2969" class="cls-13" d="M388.4,470.5l-7.8-4.5a2.2,2.2,0,0,0-1.6,0l-6.8,3.9c-.4.3-.5.7,0,.9l7.8,4.5a2.2,2.2,0,0,0,1.6,0l6.8-3.9c.4-.2.4-.6,0-.9"/>
                <path id="Path_2970" data-name="Path 2970" class="cls-13" d="M413.1,484.8l-12.3-7.1-2.2-1.2-5.7-3.3a2.2,2.2,0,0,0-1.6,0l-6.8,3.9c-.4.3-.5.7,0,.9l5.7,3.3,2.2,1.2,12.3,7.1a2.2,2.2,0,0,0,1.6,0l6.8-3.9c.4-.3.4-.7,0-.9"/>
                <path id="Path_2971" data-name="Path 2971" class="cls-13" d="M296.6,430.9l-7.8-4.5a2.2,2.2,0,0,0-1.6,0l-6.8,3.9c-.4.3-.5.7,0,.9l7.8,4.5a2.2,2.2,0,0,0,1.6,0l6.8-3.9c.5-.3.5-.7,0-.9"/>
                <path id="Path_2972" data-name="Path 2972" class="cls-13" d="M309,438l-7.8-4.5a2.2,2.2,0,0,0-1.6,0l-6.8,3.9c-.4.3-.5.7,0,.9l7.8,4.5a2.2,2.2,0,0,0,1.6,0l6.8-3.9c.4-.3.4-.7,0-.9"/>
                <path id="Path_2973" data-name="Path 2973" class="cls-13" d="M321.3,445.1l-7.8-4.5a2.2,2.2,0,0,0-1.6,0l-6.8,3.9c-.4.3-.5.7,0,.9l7.8,4.5a2.2,2.2,0,0,0,1.6,0l6.8-3.9c.4-.2.5-.6,0-.9"/>
                <path id="Path_2974" data-name="Path 2974" class="cls-13" d="M333.7,452.2l-7.8-4.5a2.2,2.2,0,0,0-1.6,0l-6.8,3.9c-.4.3-.5.7,0,.9l7.8,4.5a2.2,2.2,0,0,0,1.6,0l6.8-3.9c.4-.2.4-.6,0-.9"/>
                <path id="Path_2975" data-name="Path 2975" class="cls-13" d="M346,459.4l-7.8-4.5a2.2,2.2,0,0,0-1.6,0l-6.8,3.9c-.4.3-.5.7,0,.9l7.8,4.5a2.2,2.2,0,0,0,1.6,0l6.8-3.9c.4-.3.4-.7,0-.9"/>
                <path id="Path_2976" data-name="Path 2976" class="cls-13" d="M358.3,466.5l-7.8-4.5a2.2,2.2,0,0,0-1.6,0l-6.8,3.9c-.4.3-.5.7,0,.9l7.8,4.5a2.2,2.2,0,0,0,1.6,0l6.8-3.9c.5-.3.5-.7,0-.9"/>
                <path id="Path_2977" data-name="Path 2977" class="cls-13" d="M370.7,473.6l-7.8-4.5a2.2,2.2,0,0,0-1.6,0l-6.8,3.9c-.4.3-.5.7,0,.9l7.8,4.5a2.2,2.2,0,0,0,1.6,0l6.8-3.9c.4-.2.4-.6,0-.9"/>
                <path id="Path_2978" data-name="Path 2978" class="cls-13" d="M401.6,491.5l-25.9-14.9a1.483,1.483,0,0,0-1.3,0l-7,4.1a.417.417,0,0,0,0,.8l25.9,14.9a2.2,2.2,0,0,0,1.6,0l6.8-3.9c.3-.4.3-.8-.1-1"/>
                <path id="Path_2979" data-name="Path 2979" class="cls-13" d="M283.8,423.4l-25.9-14.9a1.483,1.483,0,0,0-1.3,0l-7,4.1a.417.417,0,0,0,0,.8l25.9,14.9a2.2,2.2,0,0,0,1.6,0l6.8-3.9a.613.613,0,0,0-.1-1"/>
                <path id="Path_2980" data-name="Path 2980" class="cls-13" d="M254.3,419.8l-7.8-4.5a2.2,2.2,0,0,0-1.6,0l-8.4,4.9c-.4.3-.5.7,0,.9l7.8,4.5a2.2,2.2,0,0,0,1.6,0l8.4-4.9c.5-.3.5-.7,0-.9"/>
                <path id="Path_2981" data-name="Path 2981" class="cls-13" d="M266.7,426.9l-7.8-4.5a2.2,2.2,0,0,0-1.6,0l-8.4,4.9c-.4.3-.5.7,0,.9l7.8,4.5a2.2,2.2,0,0,0,1.6,0l8.4-4.9c.4-.2.4-.6,0-.9"/>
                <path id="Path_2982" data-name="Path 2982" class="cls-13" d="M279,434l-7.8-4.5a2.2,2.2,0,0,0-1.6,0l-8.4,4.9c-.4.3-.5.7,0,.9l7.8,4.5a2.2,2.2,0,0,0,1.6,0l8.4-4.9c.4-.2.5-.6,0-.9"/>
                <path id="Path_2983" data-name="Path 2983" class="cls-13" d="M291.4,441.2l-7.8-4.5a2.2,2.2,0,0,0-1.6,0l-8.4,4.9c-.4.3-.5.7,0,.9l7.8,4.5a2.2,2.2,0,0,0,1.6,0l8.4-4.9c.4-.3.4-.7,0-.9"/>
                <path id="Path_2984" data-name="Path 2984" class="cls-13" d="M340.7,469.7l-3.1-1.8-4.7-2.7-4.5-2.6-7.8-4.5-4.5-2.6-7.8-4.5L296,443.9a2.2,2.2,0,0,0-1.6,0l-8.4,4.9c-.4.3-.5.7,0,.9l12.3,7.1,7.8,4.5,4.5,2.6,7.8,4.5,4.5,2.6,4.7,2.7,3.1,1.8a2.2,2.2,0,0,0,1.6,0l8.4-4.9c.4-.3.5-.7,0-.9"/>
                <path id="Path_2985" data-name="Path 2985" class="cls-13" d="M353.1,476.8l-7.8-4.5a2.2,2.2,0,0,0-1.6,0l-8.4,4.9c-.4.3-.5.7,0,.9l7.8,4.5a2.2,2.2,0,0,0,1.6,0l8.4-4.9c.4-.3.4-.7,0-.9"/>
                <path id="Path_2986" data-name="Path 2986" class="cls-13" d="M365.4,483.9l-7.8-4.5a2.2,2.2,0,0,0-1.6,0l-8.4,4.9c-.4.3-.5.7,0,.9l7.8,4.5a2.2,2.2,0,0,0,1.6,0l8.4-4.9c.4-.2.4-.6,0-.9"/>
                <path id="Path_2987" data-name="Path 2987" class="cls-13" d="M377.8,491l-7.8-4.5a2.2,2.2,0,0,0-1.6,0l-8.4,4.9c-.4.3-.5.7,0,.9l7.8,4.5a2.2,2.2,0,0,0,1.6,0l8.4-4.9c.4-.2.4-.6,0-.9"/>
                <path id="Path_2988" data-name="Path 2988" class="cls-13" d="M390.1,498.2l-7.8-4.5a2.2,2.2,0,0,0-1.6,0l-8.4,4.9c-.4.3-.5.7,0,.9l7.8,4.5a2.2,2.2,0,0,0,1.6,0l8.4-4.9c.4-.3.4-.7,0-.9"/>
              </g>
            </g>
          </g>
          <g id="Group_1068" data-name="Group 1068">
            <g id="Group_1064" data-name="Group 1064">
              <g id="Group_1063" data-name="Group 1063">
                <g id="Group_1062" data-name="Group 1062">
                  <path id="Path_2989" data-name="Path 2989" class="cls-2" d="M324.9,276.4c5.8,3.3,5.8,8.7.1,12L210.2,355.1c-5.7,3.3-15,3.3-20.8,0L88.9,297c-5.7-3.3-5.8-8.7-.1-12l114.8-66.7c5.7-3.3,15-3.3,20.8,0Z"/>
                </g>
                <path id="Path_2990" data-name="Path 2990" class="cls-10" d="M329.2,282.8a.9.9,0,0,1-.1.5c0,.1-.1.2-.1.4,0,.1-.1.3-.1.4s-.1.2-.2.4-.1.3-.2.5c-.1.1-.1.2-.2.3-.1.2-.2.3-.3.5-.1.1-.2.2-.2.3-.2.2-.4.5-.6.7l-.2.2c-.1.1-.3.2-.5.4-.1.1-.3.2-.4.3a1.756,1.756,0,0,0-.5.4,2.092,2.092,0,0,0-.6.4L210.2,355.2a6.11,6.11,0,0,1-1.4.7c-.1.1-.3.1-.4.2a5.637,5.637,0,0,1-1.2.4c-.1,0-.3.1-.4.1-.2.1-.5.1-.8.2-.2.1-.4.1-.6.2-.3.1-.5.1-.8.2-.2,0-.4.1-.6.1a8.806,8.806,0,0,1-1.7.2h-.5c-.3,0-.7.1-1,.1H198a1.7,1.7,0,0,1-.7-.1c-.2,0-.5-.1-.7-.1s-.4-.1-.7-.1-.5-.1-.8-.1c-.2,0-.4-.1-.6-.1-.3-.1-.6-.1-.9-.2-.2,0-.3-.1-.5-.1-.5-.2-1.1-.3-1.6-.5-.1,0-.1-.1-.2-.1a12.445,12.445,0,0,1-2-1L88.9,297c-2.9-1.7-4.3-3.9-4.3-6.1v8.4c0,2.2,1.4,4.4,4.3,6.1l100.5,58.2a12.445,12.445,0,0,0,2,1,.1.1,0,0,1,.1.1h.1a7.494,7.494,0,0,0,1.6.5h.1c.1,0,.3.1.4.1a2.92,2.92,0,0,0,.9.2c.1,0,.2,0,.2.1a.756.756,0,0,1,.4.1c.3,0,.5.1.8.1a.367.367,0,0,1,.3.1h.3c.2,0,.5.1.7.1h3.4a3.4,3.4,0,0,0,1-.1h.5c.6-.1,1.1-.1,1.7-.2h.1c.2,0,.3-.1.5-.1.3-.1.5-.1.8-.2a1.421,1.421,0,0,0,.6-.2c.3-.1.5-.1.8-.2h.2c.1,0,.2-.1.3-.1.4-.1.8-.3,1.2-.4.1-.1.3-.1.4-.2a9.143,9.143,0,0,0,1.4-.7L325,296.9c.1,0,.1-.1.2-.1.1-.1.3-.2.4-.3a1,1,0,0,0,.5-.4c.1-.1.3-.2.4-.3a1.756,1.756,0,0,0,.5-.4.1.1,0,0,0,.1-.1l.2-.2a4.349,4.349,0,0,0,.6-.7l.1-.1.1-.1c.1-.2.2-.3.3-.5,0-.1.1-.1.1-.2a.1.1,0,0,1,.1-.1c.1-.2.1-.3.2-.5,0-.1.1-.2.1-.3v-.1a.6.6,0,0,0,.1-.4c0-.1.1-.2.1-.3v-.1a.9.9,0,0,1,.1-.5v-8.8C329.2,282.6,329.2,282.7,329.2,282.8Z"/>
              </g>
            </g>
            <g id="Group_1067" data-name="Group 1067">
              <path id="Path_2991" data-name="Path 2991" class="cls-3" d="M240.6,221.8v0Z"/>
              <path id="Path_2992" data-name="Path 2992" class="cls-14" d="M259.7,250.2a19.649,19.649,0,0,0-2.5-1.3c-.3-.1-.6-.3-.9-.4-.5-.2-1-.5-1.5-.7-.1,0-.2-.1-.3-.1-.2-.1-.4-.1-.6-.2a17.231,17.231,0,0,0-2.1-.7,1.854,1.854,0,0,0-.7-.2c-.2,0-.3-.1-.5-.1-.3-.1-.6-.1-.9-.2a15.986,15.986,0,0,0-2.1-.5c-.2,0-.4-.1-.6-.1a2.768,2.768,0,0,0-.9-.1l-1.8-.3c-.2,0-.5-.1-.7-.1-.3,0-.5-.1-.8-.1-.6-.1-1.1-.1-1.7-.2-.3,0-.5-.1-.8-.1h-.8c-.6,0-1.2-.1-1.7-.1h-5a17.854,17.854,0,0,0-2.3.2,2.768,2.768,0,0,0-.9.1.6.6,0,0,0-.4.1c-.2,0-.5.1-.7.1l-2.4.3c-.2,0-.4.1-.6.1h-.3a4.252,4.252,0,0,1-1.1.2c-.6.1-1.3.3-1.9.4a7.367,7.367,0,0,0-1.4.4c-.6.2-1.2.3-1.8.5-.1,0-.3.1-.4.1-.7.2-1.4.5-2.1.7-.1,0-.2.1-.3.1-.7.3-1.5.6-2.2.9l-.6.3c-.8.4-1.6.8-2.3,1.2a.758.758,0,0,1-.4.2.52.52,0,0,1-.4.2c-.2.1-.4.3-.6.4a1,1,0,0,0-.5.4c-.2.1-.4.3-.6.4s-.3.3-.5.4a2.182,2.182,0,0,0-.5.4c-.2.1-.3.3-.5.4s-.3.3-.5.4l-.2.2-.2.2-.8.8c-.1.1-.2.2-.2.3-.3.3-.6.7-.9,1h0c-.1.1-.1.2-.2.2a4.233,4.233,0,0,0-.5.7.52.52,0,0,0-.2.4c-.1.2-.3.4-.4.6,0,.1-.1.1-.1.2a.349.349,0,0,1-.1.2c-.1.2-.2.3-.3.5-.1.1-.1.3-.2.4-.1.2-.1.3-.2.5a.349.349,0,0,1-.1.2c0,.1,0,.1-.1.2-.1.2-.1.3-.2.5,0,.2-.1.3-.1.5s-.1.3-.1.5a.367.367,0,0,1-.1.3v.2c0,.2-.1.3-.1.5a.9.9,0,0,1-.1.5V270a9329167294880.162,9329167294880.162,0,0,0,.2-1c0-.2.1-.3.1-.5s.1-.3.1-.5.1-.3.1-.5c.1-.2.1-.3.2-.5.1-.1.1-.3.2-.4.1-.2.1-.3.2-.5.1-.1.1-.3.2-.4.1-.2.2-.3.3-.5a.758.758,0,0,0,.2-.4,2.092,2.092,0,0,1,.4-.6.52.52,0,0,0,.2-.4,4.233,4.233,0,0,0,.5-.7c.1-.1.1-.2.2-.3.3-.3.6-.7.9-1l.3-.3a6.034,6.034,0,0,1,.8-.8,1.38,1.38,0,0,1,.4-.3c.2-.1.3-.3.5-.4s.3-.3.5-.4a2.182,2.182,0,0,0,.5-.4c.2-.1.3-.3.5-.4s.4-.3.6-.4a1,1,0,0,0,.5-.4c.2-.1.4-.3.6-.4.3-.2.5-.3.8-.5.7-.4,1.5-.8,2.3-1.2l.6-.3c.7-.3,1.4-.6,2.2-.9.1,0,.2-.1.3-.1a18.285,18.285,0,0,1,2.5-.8c.6-.2,1.2-.3,1.8-.5.4-.1.9-.3,1.3-.4a12.859,12.859,0,0,1,1.9-.4c.5-.1.9-.2,1.4-.3.2,0,.4-.1.6-.1l2.4-.3c.2,0,.5-.1.7-.1.5,0,.9-.1,1.4-.1.8-.1,1.5-.1,2.3-.2h5c.6,0,1.2.1,1.7.1s1.1.1,1.6.1c.6.1,1.1.1,1.7.2.5.1,1,.1,1.5.2l1.8.3c.5.1,1,.2,1.4.3.7.2,1.4.3,2.1.5a7.367,7.367,0,0,1,1.4.4c.2.1.5.1.7.2.7.2,1.4.5,2.1.7.2.1.4.1.6.2a14.166,14.166,0,0,1,1.8.8,3.552,3.552,0,0,1,.9.4,19.647,19.647,0,0,1,2.5,1.3,22.8,22.8,0,0,1,7.6,6.6,12.956,12.956,0,0,1,2.5,7.5v-6.8C269.8,259.2,266.4,254.1,259.7,250.2Z"/>
              <path id="Path_2993" data-name="Path 2993" class="cls-15" d="M191.1,261.4v5.7c0,4.7,2.4,9.5,7.3,13.6V275C193.5,270.9,191.1,266.2,191.1,261.4Z"/>
              <path id="Path_2994" data-name="Path 2994" class="cls-12" d="M273.2,262.4v.6a.749.749,0,0,1-.1.5c0,.2-.1.4-.1.6a4.331,4.331,0,0,1-.1.5c0,.2-.1.4-.1.6a.764.764,0,0,1-.2.5c-.1.2-.1.4-.2.6s-.1.4-.2.5l-.3.6c-.1.2-.2.3-.2.5l-.3.6c-.1.2-.2.3-.3.5a3.039,3.039,0,0,1-.5.7c-.1.1-.2.3-.3.4-.2.3-.4.5-.6.8l-.3.3a11.988,11.988,0,0,1-1.1,1.2l-.3.3-.9.9-.4.4c-.2.2-.4.3-.6.5s-.4.3-.6.5-.4.3-.6.5-.4.3-.6.5-.5.3-.7.5a4.348,4.348,0,0,1-.7.4c-.2.2-.5.3-.7.5a8.794,8.794,0,0,1-1,.6,19.647,19.647,0,0,1-2.5,1.3c-.3.1-.5.3-.8.4a10.838,10.838,0,0,1-1.9.8,3.553,3.553,0,0,0-.9.4c-.7.3-1.4.5-2.1.8-.2.1-.5.2-.7.3a27.584,27.584,0,0,1-2.7.8c-.2,0-.4.1-.6.1-.9.2-1.9.5-2.9.7-.1,0-.3.1-.4.1a18.663,18.663,0,0,1-2.5.4c-.3.1-.6.1-.9.2-1,.1-1.9.3-2.9.4h-.2a30.283,30.283,0,0,1-3.1.2h-.7c-1,0-2,.1-3,.1h-.3c-1,0-2,0-3-.1h-.4c-1-.1-2-.1-3-.2a1.268,1.268,0,0,1-.6-.1c-1-.1-2-.2-3-.4-.2,0-.3-.1-.5-.1a23.253,23.253,0,0,1-2.8-.5.367.367,0,0,1-.3-.1c-1-.2-1.9-.4-2.9-.7-.2-.1-.5-.1-.7-.2-.7-.2-1.5-.4-2.2-.6a6.9,6.9,0,0,1-.8-.3c-1-.3-1.9-.7-2.9-1h0v5.7h.1c.9.4,1.8.7,2.7,1a6.9,6.9,0,0,1,.8.3c.5.1.9.3,1.4.4.3.1.6.1.8.2s.5.1.7.2a23.032,23.032,0,0,0,2.8.6h.1a.367.367,0,0,1,.3.1,27.409,27.409,0,0,0,2.8.5c.2,0,.3.1.5.1a.367.367,0,0,1,.3.1l2.7.3a1.268,1.268,0,0,1,.6.1c.3,0,.5.1.8.1a17.7,17.7,0,0,0,2.3.1h.4a5.7,5.7,0,0,1,1.3.1h5.7c1-.1,2-.1,3-.2h.2a25.356,25.356,0,0,0,2.9-.4,2.92,2.92,0,0,0,.9-.2c.4-.1.8-.1,1.2-.2s.9-.2,1.3-.3c.1,0,.3-.1.4-.1,1-.2,1.9-.4,2.9-.7.2,0,.4-.1.6-.1.8-.2,1.7-.5,2.5-.7a.349.349,0,0,0,.2-.1c.2-.1.5-.2.7-.3a18.034,18.034,0,0,0,2.1-.8,3.553,3.553,0,0,0,.9-.4c.6-.3,1.3-.5,1.9-.8a3,3,0,0,0,.8-.4c.9-.4,1.7-.9,2.5-1.3.2-.1.3-.2.5-.3s.3-.2.5-.3a4.235,4.235,0,0,0,.7-.5,4.348,4.348,0,0,1,.7-.4c.2-.2.5-.3.7-.5s.4-.3.6-.5.4-.3.6-.5.4-.3.6-.5.4-.3.6-.5c.1-.1.2-.1.2-.2l.2-.2.9-.9.3-.3c.4-.4.7-.8,1.1-1.2v-.1c.1-.1.1-.2.2-.3.2-.3.4-.5.6-.8.1-.1.2-.3.3-.4a2.506,2.506,0,0,0,.4-.7c0-.1.1-.1.1-.2.1-.1.1-.2.2-.3l.3-.6c.1-.2.2-.3.2-.5l.3-.6c0-.1.1-.2.1-.3s.1-.2.1-.3c.1-.2.1-.4.2-.6s.1-.4.2-.5a1.268,1.268,0,0,0,.1-.6c0-.1.1-.2.1-.3v-.2c0-.2.1-.4.1-.6a.749.749,0,0,1,.1-.5v-7.1A1.983,1.983,0,0,1,273.2,262.4Z"/>
              <path id="Path_2995" data-name="Path 2995" class="cls-10" d="M261.1,244.7c-16.1-9.3-42.1-9.3-58.1,0-14.2,8.2-15.7,21-4.7,30.3l-23.2,13.5,10.7,6.2L209,281.2c16,6.4,38.1,5.4,52.2-2.8C277.3,269.1,277.2,254,261.1,244.7Zm-8.5,28.6c-11.2,6.5-29.3,6.5-40.6,0-11.2-6.5-11.3-17-.1-23.5s29.4-6.5,40.6,0S263.7,266.8,252.6,273.3Z"/>
              <path id="Path_2996" data-name="Path 2996" class="cls-12" d="M185.9,294.6v5.7l23.2-13.4v-5.7Z"/>
              <path id="Path_2997" data-name="Path 2997" class="cls-14" d="M175.2,288.5v5.7l10.7,6.1v-5.7Z"/>
              <path id="Path_2998" data-name="Path 2998" class="cls-16" d="M212,273.3c11.2,6.5,29.4,6.5,40.6,0s11.1-17-.1-23.5-29.4-6.5-40.6,0-11.2,17,.1,23.5"/>
              <g id="Group_1066" data-name="Group 1066">
                <path id="Path_2999" data-name="Path 2999" class="cls-10" d="M150.6,317.8c0-.2-.1-.4-.1-.6,0-.1-.1-.3-.1-.4s-.1-.3-.1-.4a4.331,4.331,0,0,0-.1-.5c0-.1-.1-.2-.1-.3-.1-.2-.1-.4-.2-.6,0-.1-.1-.2-.1-.3a6.889,6.889,0,0,0-.3-.8v-.1c-.1-.2-.2-.5-.3-.7a.349.349,0,0,0-.1-.2,2.507,2.507,0,0,0-.4-.7.1.1,0,0,0-.1-.1c-.2-.3-.3-.5-.5-.8,0-.1-.1-.1-.1-.2a1,1,0,0,0-.4-.5c-.1-.1-.1-.2-.2-.3s-.2-.3-.3-.4a1.381,1.381,0,0,1-.3-.4l-.3-.3c-.2-.2-.3-.4-.5-.5l-.3-.3c-.1-.1-.2-.2-.3-.2l-.4-.4c-.1-.1-.2-.1-.3-.2a1.756,1.756,0,0,1-.5-.4c-.1-.1-.2-.1-.2-.2-.2-.2-.5-.3-.7-.5a9.293,9.293,0,0,0-1-.5c-.1,0-.2-.1-.3-.1-.2-.1-.4-.1-.5-.2-.1,0-.2-.1-.3-.1a.367.367,0,0,1-.3-.1.6.6,0,0,1-.4-.1h-.8a1.268,1.268,0,0,0-.6.1H139c-.1,0-.3.1-.4.1h-.1c-.2.1-.3.1-.5.2l40.2-22.9h0c.1-.1.3-.1.4-.2h.2c.1,0,.1-.1.2-.1s.1,0,.2-.1h.2a.9.9,0,0,0,.5-.1h1.2a.367.367,0,0,1,.3.1h.2c.1,0,.1,0,.2.1.2.1.4.1.5.2.1,0,.1,0,.2.1a.1.1,0,0,1,.1.1,9.248,9.248,0,0,1,1,.5,3.039,3.039,0,0,1,.7.5c.1.1.2.1.2.2a1.756,1.756,0,0,1,.5.4c.1.1.2.1.3.2s.3.2.4.4c.1.1.2.2.3.2l.2.2.2.2c.2.2.3.4.5.5l.2.2c0,.1.1.1.1.2a1.381,1.381,0,0,1,.3.4c.1.1.1.2.2.2l.2.2c.1.1.1.2.2.3,0,.1.1.1.1.2.1.1.2.2.2.3s.1.1.1.2a.1.1,0,0,0,.1.1c.1.2.3.4.4.6h0a.1.1,0,0,0,.1.1c.1.2.2.3.3.5,0,.1.1.1.1.2a.349.349,0,0,0,.1.2c0,.1.1.1.1.2a1.689,1.689,0,0,1,.2.5v.1h0c.1.2.2.5.3.7v.1c0,.1.1.2.1.3s.1.2.1.3.1.2.1.3.1.2.1.3,0,.1.1.2c0,.1.1.2.1.3s.1.3.1.4v.4c0,.2.1.4.1.6v.4a6.15,6.15,0,0,1,.1,1.3c0,2.4-.9,4.1-2.2,4.9l-40.2,22.9c1.4-.8,2.2-2.5,2.2-4.9a5.7,5.7,0,0,0-.1-1.3C150.6,318,150.6,317.9,150.6,317.8Z"/>
                <g id="Group_1065" data-name="Group 1065">
                  <path id="Path_3000" data-name="Path 3000" class="cls-12" d="M143.1,306.3c-4.2-2.4-7.6-.5-7.7,4.4,0,4.8,3.4,10.7,7.6,13.2s7.6.5,7.7-4.4C150.7,314.6,147.3,308.7,143.1,306.3Z"/>
                </g>
              </g>
            </g>
          </g>
          <g id="Group_1085" data-name="Group 1085">
            <g id="Group_1071" data-name="Group 1071">
              <g id="Group_1070" data-name="Group 1070">
                <g id="Group_1069" data-name="Group 1069">
                  <path id="Path_3001" data-name="Path 3001" class="cls-2" d="M718.5,502.9c5.8,3.3,5.8,8.7.1,12L603.8,581.6c-5.7,3.3-15,3.3-20.8,0L482.5,523.4c-5.7-3.3-5.8-8.7-.1-12l114.8-66.7c5.7-3.3,15-3.3,20.8,0Z"/>
                </g>
                <path id="Path_3002" data-name="Path 3002" class="cls-10" d="M722.8,509.4a.9.9,0,0,1-.1.5c0,.1-.1.2-.1.4,0,.1-.1.3-.1.4s-.1.2-.2.4-.1.3-.2.5c-.1.1-.1.2-.2.3-.1.2-.2.3-.3.5-.1.1-.2.2-.2.3-.2.2-.4.5-.6.7l-.2.2c-.1.1-.3.2-.5.4-.1.1-.3.2-.4.3a1.755,1.755,0,0,0-.5.4,2.09,2.09,0,0,0-.6.4L603.8,581.8a6.111,6.111,0,0,1-1.4.7c-.1.1-.3.1-.4.2a5.639,5.639,0,0,1-1.2.4c-.1,0-.3.1-.4.1-.2.1-.5.1-.8.2-.2.1-.4.1-.6.2-.3.1-.5.1-.8.2-.2,0-.4.1-.6.1a8.808,8.808,0,0,1-1.7.2h-.5c-.3,0-.7.1-1,.1h-2.8a1.7,1.7,0,0,1-.7-.1c-.2,0-.5-.1-.7-.1s-.4-.1-.7-.1-.5-.1-.8-.1c-.2,0-.4-.1-.6-.1-.3-.1-.6-.1-.9-.2-.2,0-.3-.1-.5-.1-.5-.2-1.1-.3-1.6-.5-.1,0-.1-.1-.2-.1a12.44,12.44,0,0,1-2-1L482.4,523.6c-2.9-1.7-4.3-3.9-4.3-6.1v8.4c0,2.2,1.4,4.4,4.3,6.1l100.5,58.2a12.44,12.44,0,0,0,2,1,.1.1,0,0,1,.1.1h.1a7.492,7.492,0,0,0,1.6.5h.1c.1,0,.3.1.4.1a2.92,2.92,0,0,0,.9.2c.1,0,.2,0,.2.1a.756.756,0,0,1,.4.1c.3,0,.5.1.8.1a.367.367,0,0,1,.3.1h.3c.2,0,.5.1.7.1h3.4a3.4,3.4,0,0,0,1-.1h.5c.6-.1,1.1-.1,1.7-.2h.1c.2,0,.3-.1.5-.1.3-.1.5-.1.8-.2a1.42,1.42,0,0,0,.6-.2c.3-.1.5-.1.8-.2h.2c.1,0,.2-.1.3-.1.4-.1.8-.3,1.2-.4.1-.1.3-.1.4-.2a9.146,9.146,0,0,0,1.4-.7l114.8-66.7c.1,0,.1-.1.2-.1.1-.1.3-.2.4-.3a1,1,0,0,0,.5-.4c.1-.1.3-.2.4-.3a1.755,1.755,0,0,0,.5-.4.1.1,0,0,0,.1-.1l.2-.2a4.347,4.347,0,0,0,.6-.7l.1-.1.1-.1c.1-.2.2-.3.3-.5,0-.1.1-.1.1-.2a.1.1,0,0,1,.1-.1c.1-.2.1-.3.2-.5,0-.1.1-.2.1-.3v-.1a.6.6,0,0,0,.1-.4c0-.1.1-.2.1-.3v-.1a.9.9,0,0,1,.1-.5V509C722.8,509.1,722.8,509.2,722.8,509.4Z"/>
              </g>
            </g>
            <g id="Group_1084" data-name="Group 1084">
              <g id="Group_1072" data-name="Group 1072">
                <path id="Path_3003" data-name="Path 3003" class="cls-10" d="M516.4,494.4c-4.8,2.8-4.9,7.3-.1,10.1l59.1,34.3c4.8,2.8,12.6,2.8,17.5,0L689.5,483c4.8-2.8,4.9-7.3.1-10.1l-59.1-34.3c-4.8-2.8-12.6-2.8-17.5,0Z"/>
              </g>
              <path id="Path_3004" data-name="Path 3004" class="cls-12" d="M693.1,477.9c0,1.8-1.2,3.7-3.6,5.1l-96.6,55.8a8.865,8.865,0,0,1-1.7.8c-.1,0-.1.1-.2.1a6.471,6.471,0,0,1-1.3.4c-.1,0-.3.1-.4.1-.3.1-.5.1-.8.2-.2,0-.3.1-.5.1s-.4.1-.7.1c-.2,0-.4.1-.6.1a1.268,1.268,0,0,0-.6.1h-3a1.95,1.95,0,0,1-.8-.1h-.4a6.75,6.75,0,0,1-1.4-.2c-.2,0-.3-.1-.5-.1s-.5-.1-.7-.1-.3-.1-.5-.1c-.2-.1-.4-.1-.6-.2-.1,0-.2-.1-.4-.1a4.178,4.178,0,0,1-1-.4c-.1,0-.2-.1-.4-.2l-1.2-.6-59.1-34.3c-.2-.1-.3-.2-.5-.3a1.382,1.382,0,0,1-.4-.3l-.3-.3c-.1-.1-.3-.2-.4-.3l-.2-.2a2.65,2.65,0,0,1-.5-.6c-.1-.1-.1-.2-.2-.2-.1-.1-.2-.3-.3-.4s-.1-.2-.2-.3-.1-.3-.2-.4c0-.1-.1-.2-.1-.3s-.1-.2-.1-.4c0-.1-.1-.2-.1-.3v-.8l.1,27.6v.9c0,.1,0,.2.1.2,0,.1.1.2.1.4v.1c0,.1.1.1.1.2.1.1.1.3.2.4v.1c0,.1.1.1.1.2.1.1.2.3.3.4l.1.1.1.1c.2.2.3.4.5.6l.1.1a.1.1,0,0,1,.1.1,1.38,1.38,0,0,0,.4.3l.3.3c.1.1.3.2.4.3s.2.1.3.2a.349.349,0,0,0,.2.1l59.1,34.3,1.2.6c.1.1.2.1.4.2a10.386,10.386,0,0,0,1,.4c.1,0,.1.1.2.1h.1c.2.1.4.1.6.2.2,0,.3.1.5.1a1.7,1.7,0,0,0,.7.1c.1,0,.3.1.4.1h.1c.5.1.9.1,1.4.2h.4a1.95,1.95,0,0,1,.8.1h3a1.268,1.268,0,0,0,.6-.1h.6c.2,0,.4-.1.7-.1a.367.367,0,0,0,.3-.1c.1,0,.1,0,.2-.1.3-.1.5-.1.8-.2a.367.367,0,0,0,.3-.1h.1c.5-.1.9-.3,1.3-.4h.1a.1.1,0,0,0,.1-.1,13.025,13.025,0,0,0,1.7-.8l96.6-55.8c2.4-1.4,3.7-3.3,3.6-5.1Z"/>
              <path id="Path_3005" data-name="Path 3005" class="cls-10" d="M693.1,489.2c0,1.8-1.2,3.7-3.6,5.1l-96.6,55.8a8.865,8.865,0,0,1-1.7.8c-.1,0-.1.1-.2.1a6.471,6.471,0,0,1-1.3.4c-.1,0-.3.1-.4.1-.3.1-.5.1-.8.2-.2,0-.3.1-.5.1s-.4.1-.7.1c-.2,0-.4.1-.6.1a1.268,1.268,0,0,0-.6.1h-3a1.95,1.95,0,0,1-.8-.1h-.4a6.75,6.75,0,0,1-1.4-.2c-.2,0-.3-.1-.5-.1s-.5-.1-.7-.1-.3-.1-.5-.1c-.2-.1-.4-.1-.6-.2-.1,0-.2-.1-.4-.1a4.178,4.178,0,0,1-1-.4c-.1,0-.2-.1-.4-.2l-1.2-.6-59.1-34.3c-.2-.1-.3-.2-.5-.3a1.381,1.381,0,0,1-.4-.3l-.3-.3c-.1-.1-.3-.2-.4-.3l-.2-.2a2.652,2.652,0,0,1-.5-.6c-.1-.1-.1-.2-.2-.2-.1-.1-.2-.3-.3-.4s-.1-.2-.2-.3-.1-.3-.2-.4c0-.1-.1-.2-.1-.3s-.1-.2-.1-.4c0-.1-.1-.2-.1-.3v4.8c0,.1.1.2.1.3s.1.2.1.4c0,.1.1.2.1.3.1.1.1.3.2.4,0,.1.1.2.2.3s.2.3.3.4.1.2.2.2c.2.2.3.4.5.6l.2.2a1.38,1.38,0,0,0,.4.3l.3.3c.1.1.3.2.4.3.2.1.3.2.5.3l59.1,34.3,1.2.6c.1.1.2.1.4.2a10.386,10.386,0,0,0,1,.4c.1,0,.2.1.4.1.2.1.4.1.6.2.2,0,.3.1.5.1a1.7,1.7,0,0,0,.7.1c.2,0,.3.1.5.1.5.1.9.1,1.4.2h.4a1.95,1.95,0,0,1,.8.1h3a1.268,1.268,0,0,0,.6-.1,1.268,1.268,0,0,0,.6-.1c.2,0,.4-.1.7-.1.2,0,.3-.1.5-.1.3-.1.5-.1.8-.2.1,0,.3-.1.4-.1.5-.1.9-.3,1.3-.4.1,0,.1-.1.2-.1a13.025,13.025,0,0,0,1.7-.8l96.6-55.8c2.4-1.4,3.7-3.3,3.6-5.1"/>
              <g id="Group_1076" data-name="Group 1076">
                <g id="Group_1074" data-name="Group 1074">
                  <g id="Group_1073" data-name="Group 1073">
                    <path id="Path_3006" data-name="Path 3006" class="cls-10" d="M614.1,526.6l.1,17.4a12.48,12.48,0,0,1-5.5,9.6c-3,1.8-5.5.3-5.6-3.2L603,533Z"/>
                  </g>
                </g>
                <g id="Group_1075" data-name="Group 1075">
                  <path id="Path_3007" data-name="Path 3007" class="cls-17" d="M614,526.6,603,533l-16.6-9.6c-3.1-1.8-3.1-4.6,0-6.4a11.879,11.879,0,0,1,11,0Z"/>
                </g>
              </g>
              <g id="Group_1080" data-name="Group 1080">
                <g id="Group_1078" data-name="Group 1078">
                  <g id="Group_1077" data-name="Group 1077">
                    <path id="Path_3008" data-name="Path 3008" class="cls-10" d="M680.9,487.6,681,505a12.48,12.48,0,0,1-5.5,9.6c-3.1,1.8-5.5.3-5.6-3.2l-.1-17.4Z"/>
                  </g>
                </g>
                <g id="Group_1079" data-name="Group 1079">
                  <path id="Path_3009" data-name="Path 3009" class="cls-17" d="M680.9,487.7l-11,6.4-16.6-9.6c-3.1-1.8-3.1-4.6,0-6.4a11.879,11.879,0,0,1,11,0Z"/>
                </g>
              </g>
              <g id="Group_1083" data-name="Group 1083">
                <g id="Group_1082" data-name="Group 1082">
                  <path id="Path_3010" data-name="Path 3010" class="cls-18" d="M658.5,514.7l-2.3-1.4v6.4l2.3,1.4c3.2,1.9,4.8,4.3,4.8,6.7v-6.4C663.3,519,661.7,516.6,658.5,514.7Z"/>
                  <g id="Group_1081" data-name="Group 1081">
                    <path id="Path_3011" data-name="Path 3011" class="cls-10" d="M663.5,511.8c9.1,5.3,9.2,13.9.1,19.1l-4,2.3c-9.1,5.3-23.9,5.3-33,0l-2.3-1.4,5-2.9,2.3,1.4c6.4,3.7,16.7,3.7,23.1,0l4-2.3c6.3-3.7,6.3-9.7-.1-13.4l-2.3-1.4,5-2.9Z"/>
                  </g>
                  <path id="Path_3012" data-name="Path 3012" class="cls-17" d="M670.3,522.2a1.7,1.7,0,0,1-.1.7c0,.2-.1.4-.1.6-.1.2-.1.5-.2.7a1.422,1.422,0,0,0-.2.6c-.1.2-.2.5-.3.7-.2.3-.4.7-.6,1,0,.1-.1.1-.1.2-.2.3-.5.6-.8,1l-.2.2-1,1c-.2.2-.5.4-.7.6a4.235,4.235,0,0,1-.7.5c-.3.2-.5.4-.8.6l-.9.6-4,2.3a15.051,15.051,0,0,1-2.2,1.1,4.877,4.877,0,0,1-.7.3c-.6.2-1.2.5-1.8.7a1.446,1.446,0,0,1-.7.2l-1.2.3a2.92,2.92,0,0,1-.9.2c-.4.1-.9.2-1.3.3-.3.1-.6.1-.9.2a25.129,25.129,0,0,1-2.7.4,2.2,2.2,0,0,0-.8.1c-.5,0-1.1.1-1.6.1h-3.4a4.87,4.87,0,0,1-1.2-.1c-.4,0-.7-.1-1.1-.1s-.8-.1-1.2-.1c-.3,0-.7-.1-1-.1-.4-.1-.8-.1-1.2-.2-.3-.1-.6-.1-1-.2a8.328,8.328,0,0,1-1.5-.4c-.3-.1-.5-.1-.8-.2-.9-.3-1.7-.5-2.5-.8-.4-.2-.8-.3-1.2-.5l-.6-.3c-.6-.3-1.2-.6-1.7-.9l-2.3-1.4v6.4l2.3,1.4c.5.3,1.1.6,1.7.9l.6.3c.3.2.7.3,1,.5h.1a18.287,18.287,0,0,0,2.5.8c.1,0,.1,0,.2.1a1.269,1.269,0,0,0,.6.1,8.328,8.328,0,0,1,1.5.4c.1,0,.3.1.4.1.2,0,.4.1.6.1a5.021,5.021,0,0,0,1.2.2c.2,0,.3.1.5.1a1.268,1.268,0,0,1,.6.1c.4,0,.8.1,1.2.1a1.268,1.268,0,0,1,.6.1h.5a4.87,4.87,0,0,1,1.2.1h3.4c.5,0,1.1-.1,1.6-.1h.8a25.114,25.114,0,0,0,2.7-.4h.1a2.353,2.353,0,0,0,.8-.2c.4-.1.9-.2,1.3-.3a2.92,2.92,0,0,1,.9-.2l1.2-.3a.367.367,0,0,0,.3-.1.758.758,0,0,0,.4-.2,13.358,13.358,0,0,0,1.8-.7,4.877,4.877,0,0,1,.7-.3,15.057,15.057,0,0,0,2.2-1.1l4-2.3c.1-.1.2-.1.3-.2.2-.1.4-.3.6-.4a5.553,5.553,0,0,0,.8-.6,4.235,4.235,0,0,1,.7-.5c.2-.2.5-.4.7-.6l.1-.1a6.468,6.468,0,0,0,.8-.9l.2-.2a1.756,1.756,0,0,0,.4-.5c.1-.1.2-.3.3-.4,0-.1.1-.1.1-.2a3.507,3.507,0,0,0,.5-.8c0-.1.1-.1.1-.2.1-.2.2-.5.3-.7.1-.1.1-.3.2-.4v-.1c.1-.2.1-.5.2-.7,0-.2.1-.3.1-.5v-.1c0-.2.1-.5.1-.7a.9.9,0,0,1,.1-.5v-6.6C670.4,521.7,670.3,521.9,670.3,522.2Z"/>
                </g>
              </g>
            </g>
          </g>
          <g id="Group_1100" data-name="Group 1100">
            <g id="Group_1088" data-name="Group 1088">
              <g id="Group_1087" data-name="Group 1087">
                <g id="Group_1086" data-name="Group 1086">
                  <path id="Path_3013" data-name="Path 3013" class="cls-2" d="M211.1,408.3c4.8,2.8,4.8,7.2.1,10l-95.4,55.5c-4.7,2.8-12.5,2.8-17.3,0L14.9,425.5c-4.8-2.8-4.8-7.2-.1-10L110.2,360c4.7-2.8,12.5-2.8,17.3,0Z"/>
                </g>
                <path id="Path_3014" data-name="Path 3014" class="cls-10" d="M214.7,413.7v.4c0,.1-.1.2-.1.3s-.1.2-.1.4c0,.1-.1.2-.1.3-.1.1-.1.3-.2.4,0,.1-.1.2-.2.3s-.2.3-.3.4-.1.2-.2.2c-.2.2-.3.4-.5.6l-.2.2a1.38,1.38,0,0,1-.4.3l-.3.3c-.1.1-.3.2-.4.3-.2.1-.3.2-.5.3l-95.4,55.5a10.907,10.907,0,0,0-1.1.6.367.367,0,0,1-.3.1,10.375,10.375,0,0,1-1,.4c-.1,0-.2.1-.4.1-.2.1-.4.1-.6.2-.2,0-.3.1-.5.1a1.483,1.483,0,0,1-.7.1c-.2,0-.3.1-.5.1-.5.1-.9.1-1.4.2h-.4a2.2,2.2,0,0,0-.8.1h-3a1.268,1.268,0,0,1-.6-.1.749.749,0,0,1-.5-.1c-.2,0-.4-.1-.6-.1s-.3-.1-.5-.1c-.3-.1-.5-.1-.8-.2-.1,0-.3-.1-.4-.1-.4-.1-.9-.3-1.3-.4-.1,0-.1,0-.2-.1a13.021,13.021,0,0,1-1.7-.8L14.9,425.6c-2.4-1.4-3.6-3.2-3.6-5v7c0,1.8,1.2,3.6,3.6,5l83.6,48.3a8.864,8.864,0,0,0,1.7.8.1.1,0,0,1,.1.1h.1a6.468,6.468,0,0,0,1.3.4h.1a.367.367,0,0,1,.3.1c.3.1.5.1.8.2h.2a.367.367,0,0,1,.3.1c.2,0,.4.1.6.1h.6a1.268,1.268,0,0,1,.6.1h3a1.949,1.949,0,0,0,.8-.1h.4a6.752,6.752,0,0,0,1.4-.2h.1c.1,0,.3-.1.4-.1.2,0,.5-.1.7-.1s.3-.1.5-.1c.2-.1.4-.1.6-.2h.1c.1,0,.1-.1.2-.1a6.9,6.9,0,0,0,1-.4c.1,0,.2-.1.3-.1l1.2-.6,95.4-55.5a.1.1,0,0,0,.1-.1c.1-.1.2-.1.3-.2s.3-.2.4-.3l.3-.3c.1-.1.3-.2.4-.3a.1.1,0,0,0,.1-.1l.1-.1a2.652,2.652,0,0,0,.5-.6l.1-.1.1-.1c.1-.1.2-.3.3-.4,0-.1.1-.1.1-.2v-.1c.1-.1.1-.3.2-.4,0-.1.1-.1.1-.2v-.1c0-.1.1-.2.1-.4a.349.349,0,0,1,.1-.2v-7.8C214.7,413.4,214.7,413.5,214.7,413.7Z"/>
              </g>
            </g>
            <g id="Group_1099" data-name="Group 1099">
              <g id="Group_1089" data-name="Group 1089">
                <path id="Path_3015" data-name="Path 3015" class="cls-19" d="M117.3,412.2v1.2l11-37.2v-1.3Z"/>
              </g>
              <g id="Group_1090" data-name="Group 1090">
                <path id="Path_3016" data-name="Path 3016" class="cls-20" d="M117.4,412.2v1.2l10.9-37.2v-1.3Z"/>
              </g>
              <g id="Group_1091" data-name="Group 1091">
                <path id="Path_3017" data-name="Path 3017" class="cls-21" d="M117.4,412.2v1.2l58.6-2.8v-7.9Z"/>
              </g>
              <g id="Group_1092" data-name="Group 1092">
                <path id="Path_3018" data-name="Path 3018" class="cls-22" d="M128.3,374.9l-10.9,37.3,58.6-9.5Z"/>
              </g>
              <g id="Group_1093" data-name="Group 1093">
                <path id="Path_3019" data-name="Path 3019" class="cls-23" d="M52.3,418.8l65-6.6,11-37.3Z"/>
              </g>
              <g id="Group_1094" data-name="Group 1094">
                <path id="Path_3020" data-name="Path 3020" class="cls-24" d="M52.3,418.8l.1,7.9,64.9-13.3v-1.2Z"/>
              </g>
              <g id="Group_1095" data-name="Group 1095">
                <path id="Path_3021" data-name="Path 3021" class="cls-25" d="M52.3,418.8l.1,7.9,64.9-13.3v-1.2Z"/>
              </g>
              <g id="Group_1096" data-name="Group 1096">
                <path id="Path_3022" data-name="Path 3022" class="cls-22" d="M100.1,446.5v7.9L176,410.6v-7.9Z"/>
              </g>
              <path id="Path_3023" data-name="Path 3023" class="cls-26" d="M117.3,412.2"/>
              <line id="Line_28" data-name="Line 28" class="cls-26" x1="58.6" y2="9.5" transform="translate(117.4 402.7)"/>
              <path id="Path_3024" data-name="Path 3024" class="cls-23" d="M117.3,412.2l-17.2,34.3L176,402.7Z"/>
              <g id="Group_1097" data-name="Group 1097">
                <path id="Path_3025" data-name="Path 3025" class="cls-22" d="M52.3,418.8l47.8,27.7,17.2-34.3Z"/>
              </g>
              <g id="Group_1098" data-name="Group 1098">
                <path id="Path_3026" data-name="Path 3026" class="cls-27" d="M52.3,418.8l.1,7.9,47.7,27.7v-7.9Z"/>
              </g>
            </g>
          </g>
          <g id="Group_1113" data-name="Group 1113">
            <g id="Group_1103" data-name="Group 1103">
              <g id="Group_1102" data-name="Group 1102">
                <g id="Group_1101" data-name="Group 1101">
                  <path id="Path_3027" data-name="Path 3027" class="cls-2" d="M510.8,586.4c4.8,2.8,4.8,7.2.1,10l-95.4,55.5c-4.7,2.8-12.5,2.8-17.3,0l-83.6-48.3c-4.8-2.8-4.8-7.2-.1-10l95.4-55.5c4.7-2.8,12.5-2.8,17.3,0Z"/>
                </g>
                <path id="Path_3028" data-name="Path 3028" class="cls-10" d="M514.4,591.8v.4c0,.1-.1.2-.1.3s-.1.2-.1.4c0,.1-.1.2-.1.3-.1.1-.1.3-.2.4,0,.1-.1.2-.2.3s-.2.3-.3.4-.1.2-.2.2c-.2.2-.3.4-.5.6l-.2.2a1.38,1.38,0,0,1-.4.3l-.3.3c-.1.1-.3.2-.4.3-.2.1-.3.2-.5.3L415.5,652a10.923,10.923,0,0,0-1.1.6.367.367,0,0,1-.3.1,10.39,10.39,0,0,1-1,.4c-.1,0-.2.1-.4.1-.2.1-.4.1-.6.2-.2,0-.3.1-.5.1a1.483,1.483,0,0,1-.7.1c-.2,0-.3.1-.5.1-.5.1-.9.1-1.4.2h-.4a2.2,2.2,0,0,0-.8.1h-3a1.269,1.269,0,0,1-.6-.1.75.75,0,0,1-.5-.1c-.2,0-.4-.1-.6-.1s-.3-.1-.5-.1c-.3-.1-.5-.1-.8-.2-.1,0-.3-.1-.4-.1-.4-.1-.9-.3-1.3-.4-.1,0-.1,0-.2-.1a13.021,13.021,0,0,1-1.7-.8l-83.6-48.3c-2.4-1.4-3.6-3.2-3.6-5v7c0,1.8,1.2,3.6,3.6,5L398.2,659a8.866,8.866,0,0,0,1.7.8.1.1,0,0,1,.1.1h.1a6.47,6.47,0,0,0,1.3.4h.1a.367.367,0,0,1,.3.1c.3.1.5.1.8.2h.2a.367.367,0,0,1,.3.1c.2,0,.4.1.6.1h.6a1.269,1.269,0,0,1,.6.1h3a1.95,1.95,0,0,0,.8-.1h.4a6.75,6.75,0,0,0,1.4-.2h.1c.1,0,.3-.1.4-.1.2,0,.5-.1.7-.1s.3-.1.5-.1c.2-.1.4-.1.6-.2h.1c.1,0,.1-.1.2-.1a6.891,6.891,0,0,0,1-.4c.1,0,.2-.1.3-.1l1.2-.6L511,603.4a.1.1,0,0,0,.1-.1c.1-.1.2-.1.3-.2s.3-.2.4-.3l.3-.3c.1-.1.3-.2.4-.3a.1.1,0,0,0,.1-.1l.1-.1a2.652,2.652,0,0,0,.5-.6l.1-.1.1-.1c.1-.1.2-.3.3-.4,0-.1.1-.1.1-.2v-.1c.1-.1.1-.3.2-.4,0-.1.1-.1.1-.2v-.1c0-.1.1-.2.1-.4a.349.349,0,0,1,.1-.2v-7.8A.754.754,0,0,1,514.4,591.8Z"/>
              </g>
            </g>
            <g id="Group_1112" data-name="Group 1112">
              <g id="Group_1107" data-name="Group 1107">
                <g id="Group_1104" data-name="Group 1104">
                  <path id="Path_3029" data-name="Path 3029" class="cls-13" d="M401.4,614.3c-.2,0-.5-.1-.7-.1-.4-.1-.7-.2-1.1-.3a1.421,1.421,0,0,1-.6-.2c-.7-.2-1.3-.4-1.9-.6-.3-.1-.6-.3-.9-.4-.2-.1-.3-.1-.5-.2a5.388,5.388,0,0,1-1.3-.7l-57.1-33v25.4l57.1,32.9c.4.2.9.5,1.3.7.2.1.3.1.5.2a2.993,2.993,0,0,1,.8.4h.1a13.888,13.888,0,0,0,1.9.6c.1,0,.1,0,.2.1a4.332,4.332,0,0,0,.5.1c.4.1.7.2,1.1.3.1,0,.2.1.3.1a.6.6,0,0,1,.4.1c.3.1.6.1,1,.2h0V614.5C402,614.4,401.7,614.4,401.4,614.3Z"/>
                  <path id="Path_3030" data-name="Path 3030" class="cls-4" d="M419.7,611.8c-.5.3-1.1.6-1.7.9-.2.1-.3.1-.5.2a7.835,7.835,0,0,1-1.4.5c-.2.1-.3.1-.5.2l-.9.3c-.2.1-.5.1-.7.2-.3.1-.7.1-1,.2-.2,0-.5.1-.7.1-.7.1-1.4.2-2,.3h-.6c-.4,0-.8.1-1.2.1H405a1.95,1.95,0,0,1-.8-.1c-.3,0-.6-.1-.9-.1s-.5-.1-.8-.1h0v25.4a.756.756,0,0,1,.4.1h.4c.3,0,.6.1.9.1h4.3a4.87,4.87,0,0,0,1.2-.1h.7c.7-.1,1.4-.2,2-.3h.1c.2,0,.4-.1.6-.1.3-.1.7-.1,1-.2.2-.1.5-.1.7-.2l.9-.3c.1,0,.1,0,.2-.1.1,0,.2-.1.3-.1.5-.2,1-.3,1.4-.5.2-.1.4-.1.5-.2a9.145,9.145,0,0,0,1.7-.9l72.1-42V569.7Z"/>
                </g>
                <g id="Group_1105" data-name="Group 1105">
                  <path id="Path_3031" data-name="Path 3031" class="cls-10" d="M492.3,554.7c7,4.1,7.1,10.6.1,14.7l-72.7,42.4c-7,4.1-18.3,4.1-25.4,0l-58.8-33.9,98-57.1Z"/>
                </g>
                <g id="Group_1106" data-name="Group 1106">
                  <path id="Path_3032" data-name="Path 3032" class="cls-4" d="M460.2,554c3.5,2,3.5,5.3,0,7.3l-8.9,5.7a13.98,13.98,0,0,1-12.6,0l-24.5-14.2a3.238,3.238,0,0,1-.1-5.6l13.6-8.2a6.369,6.369,0,0,1,6.4-.1Z"/>
                </g>
                <path id="Path_3033" data-name="Path 3033" class="cls-12" d="M339.7,585.1v15.7l56.7,32.7a10.9,10.9,0,0,0,1.1.6,5.891,5.891,0,0,1,.8.4l.2.1a7.492,7.492,0,0,0,1.6.5h.1l.3.1a2.921,2.921,0,0,0,.9.2l.3.1.3.1a9.68,9.68,0,0,1,1.2.2l1.5.2,1.5.1H408a3.4,3.4,0,0,0,1-.1h.6a11.266,11.266,0,0,0,1.8-.3h.1l.5-.1a2.353,2.353,0,0,0,.8-.2l.7-.2a1.421,1.421,0,0,0,.6-.2h.1c.1,0,.2-.1.3-.1.4-.1.8-.3,1.2-.4l.4-.2a7.62,7.62,0,0,0,1.3-.7l74.2-43.3,5.9-3.4v1.3a1.268,1.268,0,0,1-.1.6v.1c0,.1-.1.2-.1.4a.764.764,0,0,1-.2.5v.1c0,.1-.1.2-.1.3l-.3.6a.1.1,0,0,1-.1.1c0,.1-.1.2-.2.3-.1.2-.3.4-.4.6,0,.1-.1.1-.1.2s-.1.1-.2.2a6.035,6.035,0,0,1-.8.8l-.2.2a.1.1,0,0,0-.1.1c-.2.2-.4.3-.5.5-.2.1-.3.3-.5.4s-.4.3-.6.4-.3.2-.5.3c-.1,0-.1.1-.2.1l-.7.4-72.1,42c-.5.3-1.1.6-1.7.9-.2.1-.3.1-.5.2a7.835,7.835,0,0,1-1.4.5c-.1,0-.2.1-.3.1s-.1,0-.2.1l-.9.3c-.2.1-.5.1-.7.2-.3.1-.6.1-1,.2-.2,0-.4.1-.6.1h-.1c-.7.1-1.4.2-2,.3h-.7c-.4,0-.8.1-1.2.1h-4.3c-.3,0-.6-.1-.9-.1h-.4a.6.6,0,0,1-.4-.1,4.4,4.4,0,0,1-1-.2.6.6,0,0,1-.4-.1.367.367,0,0,1-.3-.1c-.4-.1-.7-.2-1.1-.3a4.332,4.332,0,0,0-.5-.1.31.31,0,0,1-.2-.1c-.6-.2-1.3-.4-1.9-.6h-.1a2.993,2.993,0,0,1-.8-.4c-.1-.1-.3-.1-.5-.2-.5-.2-.9-.5-1.3-.7L337,604.5l-1.7-1,.1-25.4,1.7,1,57.1,33c.4.2.9.5,1.3.7.2.1.3.1.5.2.3.1.6.3.9.4a13.888,13.888,0,0,0,1.9.6c.2.1.4.1.6.2.4.1.7.2,1.1.3.3,0,.5.1.7.1.3.1.6.1,1,.2.3,0,.5.1.8.1s.6.1.9.1a1.95,1.95,0,0,1,.8.1h3.5a4.87,4.87,0,0,0,1.2-.1h.6c.7-.1,1.4-.2,2-.3.2,0,.5-.1.7-.1.3-.1.7-.1,1-.2a1.853,1.853,0,0,0,.7-.2l.9-.3c.2,0,.3-.1.5-.2.5-.2,1-.3,1.4-.5.2-.1.4-.1.5-.2a9.145,9.145,0,0,0,1.7-.9l72-42,.7-.4c.2-.1.5-.3.7-.4s.5-.3.7-.4.3-.3.5-.4a1.2,1.2,0,0,0,.5-.5l.3-.3.8-.8a1.38,1.38,0,0,0,.3-.4,2.093,2.093,0,0,0,.4-.6.758.758,0,0,0,.2-.4,2.186,2.186,0,0,1,.3-.5c.1-.1.1-.3.2-.4a1.087,1.087,0,0,0,.1-.5c0-.2.1-.3.1-.5a1.268,1.268,0,0,1,.1-.6v8.5l-5.9,3.5-69.9,40.8a20.128,20.128,0,0,1-2.1,1.1,1.422,1.422,0,0,1-.6.2,8.507,8.507,0,0,1-1.7.6,4.169,4.169,0,0,1-.6.2c-.3.1-.7.2-1.1.3l-.2.1a1.421,1.421,0,0,0-.6.2c-.4.1-.7.1-1.2.2a4.5,4.5,0,0,0-.8.2c-.8.1-1.6.2-2.3.3l-.7.1c-.5,0-.9.1-1.4.1h-3a3.4,3.4,0,0,1-1-.1,3.752,3.752,0,0,1-1-.1c-.3,0-.7-.1-1-.1s-.6-.1-.9-.1a4.251,4.251,0,0,1-1.1-.2c-.3-.1-.6-.1-.9-.2-.5-.1-.9-.2-1.3-.3h-.1a1.421,1.421,0,0,1-.6-.2,15.548,15.548,0,0,1-2.3-.8,10.407,10.407,0,0,1-1.2-.5c-.1-.1-.3-.1-.5-.2-.5-.3-1.1-.5-1.6-.8Z"/>
              </g>
              <g id="Group_1111" data-name="Group 1111">
                <g id="Group_1108" data-name="Group 1108">
                  <path id="Path_3034" data-name="Path 3034" class="cls-2" d="M401.4,584.2c-.2,0-.5-.1-.7-.1-.4-.1-.7-.2-1.1-.3a1.421,1.421,0,0,1-.6-.2c-.7-.2-1.3-.4-1.9-.6-.3-.1-.6-.3-.9-.4-.2-.1-.3-.1-.5-.2a5.388,5.388,0,0,1-1.3-.7l-57.1-33v25.4L394.4,607c.4.2.9.5,1.3.7.2.1.3.1.5.2a2.993,2.993,0,0,1,.8.4h.1a13.888,13.888,0,0,0,1.9.6c.1,0,.1,0,.2.1a4.332,4.332,0,0,0,.5.1c.4.1.7.2,1.1.3.1,0,.2.1.3.1a.6.6,0,0,1,.4.1c.3.1.6.1,1,.2h0V584.4A6.53,6.53,0,0,0,401.4,584.2Z"/>
                  <path id="Path_3035" data-name="Path 3035" class="cls-4" d="M419.7,581.7c-.5.3-1.1.6-1.7.9-.2.1-.3.1-.5.2a7.835,7.835,0,0,1-1.4.5c-.2.1-.3.1-.5.2l-.9.3c-.2.1-.5.1-.7.2-.3.1-.7.1-1,.2-.2,0-.5.1-.7.1-.7.1-1.4.2-2,.3h-.6c-.4,0-.8.1-1.2.1H405a1.95,1.95,0,0,1-.8-.1c-.3,0-.6-.1-.9-.1s-.5-.1-.8-.1h0v25.4a.756.756,0,0,1,.4.1h.4c.3,0,.6.1.9.1h4.3a4.87,4.87,0,0,0,1.2-.1h.7c.7-.1,1.4-.2,2-.3h.1c.2,0,.4-.1.6-.1.3-.1.7-.1,1-.2.2-.1.5-.1.7-.2l.9-.3c.1,0,.1,0,.2-.1.1,0,.2-.1.3-.1.5-.2,1-.3,1.4-.5.2-.1.4-.1.5-.2a9.145,9.145,0,0,0,1.7-.9l72.1-42V539.6Z"/>
                </g>
                <g id="Group_1109" data-name="Group 1109">
                  <path id="Path_3036" data-name="Path 3036" class="cls-23" d="M492.3,524.6c7,4.1,7.1,10.6.1,14.7l-72.7,42.4c-7,4.1-18.3,4.1-25.4,0l-58.8-33.9,98-57.1Z"/>
                </g>
                <g id="Group_1110" data-name="Group 1110">
                  <path id="Path_3037" data-name="Path 3037" class="cls-4" d="M460.2,523.9c3.5,2,3.5,5.3,0,7.3l-8.9,5.7a13.98,13.98,0,0,1-12.6,0l-24.5-14.2a3.238,3.238,0,0,1-.1-5.6l13.6-8.2a6.369,6.369,0,0,1,6.4-.1Z"/>
                </g>
                <path id="Path_3038" data-name="Path 3038" class="cls-27" d="M339.7,555v15.7l56.7,32.7a10.9,10.9,0,0,0,1.1.6,5.891,5.891,0,0,1,.8.4l.2.1a7.492,7.492,0,0,0,1.6.5h.1l.3.1a2.921,2.921,0,0,0,.9.2l.3.1.3.1a9.68,9.68,0,0,1,1.2.2l1.5.2,1.5.1H408a3.4,3.4,0,0,0,1-.1h.6a11.266,11.266,0,0,0,1.8-.3h.1l.5-.1a2.353,2.353,0,0,0,.8-.2l.7-.2a1.421,1.421,0,0,0,.6-.2h.1c.1,0,.2-.1.3-.1.4-.1.8-.3,1.2-.4l.4-.2a7.62,7.62,0,0,0,1.3-.7l74.2-43.3,5.9-3.4v1.3a1.268,1.268,0,0,1-.1.6v.1c0,.1-.1.2-.1.4a.764.764,0,0,1-.2.5v.1c0,.1-.1.2-.1.3l-.3.6a.1.1,0,0,1-.1.1c0,.1-.1.2-.2.3-.1.2-.3.4-.4.6,0,.1-.1.1-.1.2s-.1.1-.2.2a6.035,6.035,0,0,1-.8.8l-.2.2a.1.1,0,0,0-.1.1c-.2.2-.4.3-.5.5-.2.1-.3.3-.5.4s-.4.3-.6.4-.3.2-.5.3c-.1,0-.1.1-.2.1l-.7.4-72.1,42c-.5.3-1.1.6-1.7.9-.2.1-.3.1-.5.2a7.835,7.835,0,0,1-1.4.5c-.1,0-.2.1-.3.1s-.1,0-.2.1l-.9.3c-.2.1-.5.1-.7.2-.3.1-.6.1-1,.2-.2,0-.4.1-.6.1h-.1c-.7.1-1.4.2-2,.3h-.7c-.4,0-.8.1-1.2.1h-4.3c-.3,0-.6-.1-.9-.1h-.4a.6.6,0,0,1-.4-.1,4.4,4.4,0,0,1-1-.2.6.6,0,0,1-.4-.1.367.367,0,0,1-.3-.1c-.4-.1-.7-.2-1.1-.3a4.332,4.332,0,0,0-.5-.1.31.31,0,0,1-.2-.1c-.6-.2-1.3-.4-1.9-.6h-.1a2.993,2.993,0,0,1-.8-.4c-.1-.1-.3-.1-.5-.2-.5-.2-.9-.5-1.3-.7L337,574.4l-1.7-1,.1-25.4,1.7,1,57.1,33c.4.2.9.5,1.3.7.2.1.3.1.5.2.3.1.6.3.9.4a13.888,13.888,0,0,0,1.9.6c.2.1.4.1.6.2.4.1.7.2,1.1.3.3,0,.5.1.7.1.3.1.6.1,1,.2.3,0,.5.1.8.1s.6.1.9.1a1.95,1.95,0,0,1,.8.1h3.5a4.87,4.87,0,0,0,1.2-.1h.6c.7-.1,1.4-.2,2-.3.2,0,.5-.1.7-.1.3-.1.7-.1,1-.2a1.853,1.853,0,0,0,.7-.2l.9-.3c.2,0,.3-.1.5-.2.5-.2,1-.3,1.4-.5.2-.1.4-.1.5-.2a9.145,9.145,0,0,0,1.7-.9l72-42,.7-.4c.2-.1.5-.3.7-.4s.5-.3.7-.4.3-.3.5-.4a1.2,1.2,0,0,0,.5-.5l.3-.3.8-.8a1.38,1.38,0,0,0,.3-.4,2.093,2.093,0,0,0,.4-.6.758.758,0,0,0,.2-.4,2.186,2.186,0,0,1,.3-.5c.1-.1.1-.3.2-.4a1.087,1.087,0,0,0,.1-.5c0-.2.1-.3.1-.5a1.268,1.268,0,0,1,.1-.6v8.5l-5.9,3.5-69.9,40.8a20.128,20.128,0,0,1-2.1,1.1,1.422,1.422,0,0,1-.6.2,8.507,8.507,0,0,1-1.7.6,4.169,4.169,0,0,1-.6.2c-.3.1-.7.2-1.1.3l-.2.1a1.421,1.421,0,0,0-.6.2c-.4.1-.7.1-1.2.2a4.5,4.5,0,0,0-.8.2c-.8.1-1.6.2-2.3.3l-.7.1c-.5,0-.9.1-1.4.1h-3a3.4,3.4,0,0,1-1-.1,3.752,3.752,0,0,1-1-.1c-.3,0-.7-.1-1-.1s-.6-.1-.9-.1a4.251,4.251,0,0,1-1.1-.2c-.3-.1-.6-.1-.9-.2-.5-.1-.9-.2-1.3-.3h-.1a1.421,1.421,0,0,1-.6-.2,15.548,15.548,0,0,1-2.3-.8,10.407,10.407,0,0,1-1.2-.5c-.1-.1-.3-.1-.5-.2-.5-.3-1.1-.5-1.6-.8Z"/>
              </g>
            </g>
          </g>
          <g id="Group_1129" data-name="Group 1129">
            <g id="Group_1116" data-name="Group 1116">
              <g id="Group_1115" data-name="Group 1115">
                <g id="Group_1114" data-name="Group 1114">
                  <path id="Path_3039" data-name="Path 3039" class="cls-2" d="M338.2,516.6c5.8,3.3,5.8,8.7.1,12L223.5,595.3c-5.7,3.3-15,3.3-20.8,0L102.2,537.1c-5.7-3.3-5.8-8.7-.1-12l114.8-66.7c5.7-3.3,15-3.3,20.8,0Z"/>
                </g>
                <path id="Path_3040" data-name="Path 3040" class="cls-10" d="M342.5,523.1a.9.9,0,0,1-.1.5c0,.1-.1.2-.1.4,0,.1-.1.3-.1.4s-.1.2-.2.4-.1.3-.2.5c-.1.1-.1.2-.2.3-.1.2-.2.3-.3.5-.1.1-.2.2-.2.3-.2.2-.4.5-.6.7l-.2.2c-.1.1-.3.2-.5.4-.1.1-.3.2-.4.3a1.755,1.755,0,0,0-.5.4,2.091,2.091,0,0,0-.6.4L223.5,595.5a6.11,6.11,0,0,1-1.4.7c-.1.1-.3.1-.4.2a5.639,5.639,0,0,1-1.2.4c-.1,0-.3.1-.4.1-.2.1-.5.1-.8.2-.2.1-.4.1-.6.2-.3.1-.5.1-.8.2-.2,0-.4.1-.6.1a8.809,8.809,0,0,1-1.7.2h-.5c-.3,0-.7.1-1,.1h-2.8a1.7,1.7,0,0,1-.7-.1c-.2,0-.5-.1-.7-.1s-.4-.1-.7-.1-.5-.1-.8-.1c-.2,0-.4-.1-.6-.1-.3-.1-.6-.1-.9-.2-.2,0-.3-.1-.5-.1-.5-.2-1.1-.3-1.6-.5-.1,0-.1-.1-.2-.1a12.442,12.442,0,0,1-2-1L102.1,537.3c-2.9-1.7-4.3-3.9-4.3-6.1v8.4c0,2.2,1.4,4.4,4.3,6.1l100.5,58.2a12.442,12.442,0,0,0,2,1,.1.1,0,0,1,.1.1h.1a7.492,7.492,0,0,0,1.6.5h.1c.1,0,.3.1.4.1a2.921,2.921,0,0,0,.9.2c.1,0,.2,0,.2.1a.756.756,0,0,1,.4.1c.3,0,.5.1.8.1a.367.367,0,0,1,.3.1h.3c.2,0,.5.1.7.1h3.4a3.4,3.4,0,0,0,1-.1h.5c.6-.1,1.1-.1,1.7-.2h.1c.2,0,.3-.1.5-.1.3-.1.5-.1.8-.2a1.421,1.421,0,0,0,.6-.2c.3-.1.5-.1.8-.2h.2c.1,0,.2-.1.3-.1.4-.1.8-.3,1.2-.4.1-.1.3-.1.4-.2a9.145,9.145,0,0,0,1.4-.7l114.8-66.7c.1,0,.1-.1.2-.1.1-.1.3-.2.4-.3a1,1,0,0,0,.5-.4c.1-.1.3-.2.4-.3a1.755,1.755,0,0,0,.5-.4.1.1,0,0,0,.1-.1l.2-.2a4.351,4.351,0,0,0,.6-.7l.1-.1a.349.349,0,0,0,.1-.2c.1-.2.2-.3.3-.5,0-.1.1-.1.1-.2a.1.1,0,0,1,.1-.1c.1-.2.1-.3.2-.5,0-.1.1-.2.1-.3v-.1a.6.6,0,0,0,.1-.4c0-.1.1-.2.1-.3v-.1a.9.9,0,0,1,.1-.5v-8.8A1.086,1.086,0,0,1,342.5,523.1Z"/>
              </g>
            </g>
            <g id="Group_1128" data-name="Group 1128">
              <path id="Path_3041" data-name="Path 3041" class="cls-28" d="M217.9,547.4s-1.7,8,2.2,9.3,12,1.6,12,1.6,24.7-8.3,23.1-11.6-10-4-19.8-4.3C226.4,542.2,217.9,547.4,217.9,547.4Z"/>
              <path id="Path_3042" data-name="Path 3042" class="cls-28" d="M179.7,534.6s-1.7,8,2.2,9.3,12.1,1.4,12.1,1.4,24.6-8,23-11.3-10-4-19.8-4.3C188.1,529.4,179.7,534.6,179.7,534.6Z"/>
              <g id="Group_1126" data-name="Group 1126">
                <g id="Group_1125" data-name="Group 1125">
                  <g id="Group_1117" data-name="Group 1117">
                    <path id="Path_3043" data-name="Path 3043" class="cls-15" d="M298.2,286.2l.9-.2-13.5,66-1,.2Z"/>
                  </g>
                  <g id="Group_1118" data-name="Group 1118">
                    <path id="Path_3044" data-name="Path 3044" class="cls-15" d="M298.2,286.2,249.6,258l.9-.3L299.1,286Z"/>
                  </g>
                  <g id="Group_1119" data-name="Group 1119">
                    <path id="Path_3045" data-name="Path 3045" class="cls-15" d="M284.6,352.2,236,324l13.6-66,48.6,28.2Z"/>
                  </g>
                  <g id="Group_1123" data-name="Group 1123">
                    <g id="Group_1120" data-name="Group 1120">
                      <path id="Path_3046" data-name="Path 3046" class="cls-29" d="M253.8,284.8l1.8-9.2,4.5,2.4-1.9,9.3Z"/>
                    </g>
                    <g id="Group_1121" data-name="Group 1121">
                      <path id="Path_3047" data-name="Path 3047" class="cls-30" d="M265.8,291.6l1.9-9.2,4.4,2.5-1.9,9.2Z"/>
                    </g>
                    <g id="Group_1122" data-name="Group 1122">
                      <path id="Path_3048" data-name="Path 3048" class="cls-13" d="M278.2,298.4l1.9-9.3,4.4,2.5-1.8,9.2Z"/>
                    </g>
                  </g>
                  <g id="Group_1124" data-name="Group 1124">
                    <path id="Path_3049" data-name="Path 3049" class="cls-13" d="M249.5,292.1l.1-.3L282.9,311v.2Z"/>
                    <path id="Path_3050" data-name="Path 3050" class="cls-13" d="M248.4,296.6l.1-.2,33.3,19.1v.3Z"/>
                    <path id="Path_3051" data-name="Path 3051" class="cls-13" d="M247.3,301.2l.1-.3,33.3,19.2v.3Z"/>
                    <path id="Path_3052" data-name="Path 3052" class="cls-13" d="M246.2,305.8l.1-.3,33.3,19.2v.3Z"/>
                    <path id="Path_3053" data-name="Path 3053" class="cls-13" d="M245.1,310.4l.1-.3,33.3,19.2v.3Z"/>
                    <path id="Path_3054" data-name="Path 3054" class="cls-13" d="M244,315l.1-.3,33.4,19.2-.1.2Z"/>
                  </g>
                </g>
              </g>
              <path id="Path_3055" data-name="Path 3055" class="cls-31" d="M277,334.3l-2.3-13.7a1.83,1.83,0,0,1,1.6-2.1h0a1.965,1.965,0,0,1,1.7.9l3.2,6,6.8-13a5.067,5.067,0,0,1,5-2.6h0a4.812,4.812,0,0,1,4.2,5c-.2,6.6-1.3,19-6.4,25.4Z"/>
              <path id="Path_3056" data-name="Path 3056" class="cls-28" d="M181.5,402.7l-1.8,132,10.3,3.9,8-3.9,17.8-96.3-17.6-39.2Z"/>
              <path id="Path_3057" data-name="Path 3057" class="cls-12" d="M196,408.9s4.8,34.8,11.4,43.6L218,547.9l10.8,3.3,9.1-4.9.8-130.3-23.3-13.2Z"/>
              <path id="Path_3058" data-name="Path 3058" class="cls-17" d="M277,334.3l-16.3,22.8-17.2-28.8a16.031,16.031,0,0,0-11.5-7.7l-11.4-1.7L198,317l-8.8,1.3a23.59,23.59,0,0,0-17.7,16.9l-3.3,13.7,13.2,2.6v64.2l6.5,7.1A43.948,43.948,0,0,0,238.5,433h0l-.1-69.7,15,17.4a6.183,6.183,0,0,0,9.6-.3l27.7-40Z"/>
              <path id="Path_3059" data-name="Path 3059" class="cls-32" d="M234.9,282.8s4.1-21.2-14-23.3c-12.3-1.4-24.6,3.8-26,22.3-1.3,18.5,5.2,20.5,5.2,20.5L210,311l17-2.1Z"/>
              <g id="Group_1127" data-name="Group 1127">
                <path id="Path_3060" data-name="Path 3060" class="cls-33" d="M199.5,301.9l.1.1A.1.1,0,0,0,199.5,301.9Z"/>
                <path id="Path_3061" data-name="Path 3061" class="cls-33" d="M202.9,304c.1,0,.1.1.2.1C203,304.1,203,304,202.9,304Z"/>
                <path id="Path_3062" data-name="Path 3062" class="cls-33" d="M210.8,307.2a.367.367,0,0,1,.3.1A.367.367,0,0,0,210.8,307.2Z"/>
                <path id="Path_3063" data-name="Path 3063" class="cls-33" d="M198.6,301.2c.1.1.2.1.3.2A1.238,1.238,0,0,1,198.6,301.2Z"/>
                <path id="Path_3064" data-name="Path 3064" class="cls-33" d="M197.9,300.7l.2.2A.215.215,0,0,0,197.9,300.7Z"/>
                <path id="Path_3065" data-name="Path 3065" class="cls-33" d="M197.5,300.4a.1.1,0,0,1,.1.1Z"/>
                <path id="Path_3066" data-name="Path 3066" class="cls-33" d="M204.4,304.8c.1,0,.1.1.2.1A.349.349,0,0,1,204.4,304.8Z"/>
                <path id="Path_3067" data-name="Path 3067" class="cls-33" d="M214.5,307.5h-.2A.138.138,0,0,0,214.5,307.5Z"/>
                <path id="Path_3068" data-name="Path 3068" class="cls-33" d="M212.5,307.5h0Z"/>
                <path id="Path_3069" data-name="Path 3069" class="cls-33" d="M219.9,316.1l-.7-.5S219.3,315.9,219.9,316.1Z"/>
                <path id="Path_3070" data-name="Path 3070" class="cls-33" d="M197.7,300.5c.1,0,.1.1.2.2C197.8,300.6,197.7,300.6,197.7,300.5Z"/>
                <path id="Path_3071" data-name="Path 3071" class="cls-33" d="M198.1,300.9c.1.1.3.2.4.3A1.381,1.381,0,0,0,198.1,300.9Z"/>
                <path id="Path_3072" data-name="Path 3072" class="cls-33" d="M198.8,301.4a2.652,2.652,0,0,1,.6.5A2.652,2.652,0,0,0,198.8,301.4Z"/>
                <path id="Path_3073" data-name="Path 3073" class="cls-33" d="M203.1,304.1c.4.2.8.5,1.3.7C203.9,304.6,203.5,304.3,203.1,304.1Z"/>
                <path id="Path_3074" data-name="Path 3074" class="cls-33" d="M217.7,306.9a8.534,8.534,0,0,1-3.1.6,8.534,8.534,0,0,0,3.1-.6Z"/>
                <path id="Path_3075" data-name="Path 3075" class="cls-33" d="M211.1,307.3a7.719,7.719,0,0,0,1.5.2A7.719,7.719,0,0,0,211.1,307.3Z"/>
                <path id="Path_3076" data-name="Path 3076" class="cls-33" d="M204.6,304.9a27.178,27.178,0,0,0,6.2,2.3A25.536,25.536,0,0,1,204.6,304.9Z"/>
                <path id="Path_3077" data-name="Path 3077" class="cls-33" d="M214.4,307.6a7.568,7.568,0,0,1-1.5-.1C213.4,307.5,213.9,307.6,214.4,307.6Z"/>
                <path id="Path_3078" data-name="Path 3078" class="cls-33" d="M199.6,301.9q1.35.9,3.3,2.1A38.92,38.92,0,0,1,199.6,301.9Z"/>
                <path id="Path_3079" data-name="Path 3079" class="cls-33" d="M219.2,315.6h0v0Z"/>
                <path id="Path_3080" data-name="Path 3080" class="cls-31" d="M219.2,315.6l-1.6-8.6a8.534,8.534,0,0,1-3.1.6h-.2a7.568,7.568,0,0,1-1.5-.1h-.4c-.5-.1-1-.1-1.5-.2a.367.367,0,0,1-.3-.1,25.537,25.537,0,0,1-6.2-2.3c-.1,0-.1-.1-.2-.1-.4-.2-.9-.5-1.3-.7-.1,0-.1-.1-.2-.1a32.253,32.253,0,0,1-3-1.9v15.2c6.4,3,13.7,5.1,19.9,2Z"/>
                <path id="Path_3081" data-name="Path 3081" class="cls-31" d="M234.9,282.8l-2.4,3.3-1.6,8.5a2.92,2.92,0,0,0-.2-.9c-1-3.6-3.9-5.9-6.6-5.2s-4.1,4.2-3.1,7.8a8.014,8.014,0,0,0,3.2,4.6L223,302a9.95,9.95,0,0,1-5.4,5l1.6,8.6.7.5c-.6-.2-.7-.5-.7-.5s.2,1.9,7.7-.6C233.4,312.9,235.8,290.3,234.9,282.8Z"/>
              </g>
              <path id="Path_3082" data-name="Path 3082" class="cls-17" d="M168.3,348.8l-1.5,16.5a8.814,8.814,0,0,0,3.7,8.1l23.9,17-8.8-50.5Z"/>
            </g>
          </g>
          <g id="Group_1139" data-name="Group 1139">
            <g id="Group_1133" data-name="Group 1133">
              <g id="Group_1132" data-name="Group 1132">
                <g id="Group_1131" data-name="Group 1131">
                  <g id="Group_1130" data-name="Group 1130">
                    <path id="Path_3083" data-name="Path 3083" class="cls-13" d="M528.8,202.5h0l.1-63.7Z"/>
                    <path id="Path_3084" data-name="Path 3084" class="cls-13" d="M528.8,202.5l-.2,53.3a10.3,10.3,0,0,0,4.7,8.1l66.5,38.4c2.6,1.5,4.7.3,4.7-2.7l.2-53.3Z"/>
                  </g>
                  <path id="Path_3085" data-name="Path 3085" class="cls-28" d="M566.7,217.7c-12-6.9-21.7-23.7-21.6-37.4,0-13.8,9.8-19.3,21.8-12.4s21.7,23.7,21.6,37.4-9.8,19.3-21.8,12.4m33.4-43.2-66.5-38.4c-2.6-1.5-4.7-.3-4.7,2.7l-.2,63.8,75.9,43.8.2-63.8a10.3,10.3,0,0,0-4.7-8.1"/>
                  <path id="Path_3086" data-name="Path 3086" class="cls-15" d="M582.7,241,550,222.1c-.4-.2-.8,0-.8.4v.2a1.441,1.441,0,0,0,.8,1.3l32.7,18.9c.4.2.8.1.8-.4v-.2a1.653,1.653,0,0,0-.8-1.3"/>
                  <path id="Path_3087" data-name="Path 3087" class="cls-15" d="M589.1,252.3,543.6,226c-.4-.2-.8,0-.8.4v.2a1.441,1.441,0,0,0,.8,1.3l45.6,26.3c.4.2.8,0,.8-.4v-.2a2.222,2.222,0,0,0-.9-1.3"/>
                  <path id="Path_3088" data-name="Path 3088" class="cls-15" d="M589.1,258.9l-45.6-26.3c-.4-.2-.8,0-.8.4v.2a1.441,1.441,0,0,0,.8,1.3l45.6,26.3c.4.2.8.1.8-.4v-.2a1.652,1.652,0,0,0-.8-1.3"/>
                  <path id="Path_3089" data-name="Path 3089" class="cls-15" d="M582.7,262.9,550,244c-.4-.2-.8,0-.8.4v.2a1.441,1.441,0,0,0,.8,1.3l32.7,18.9c.4.2.8.1.8-.4v-.2a1.955,1.955,0,0,0-.8-1.3"/>
                  <path id="Path_3090" data-name="Path 3090" class="cls-15" d="M589.1,274.2l-45.6-26.3c-.4-.2-.8,0-.8.4v.2a1.441,1.441,0,0,0,.8,1.3l45.6,26.3c.4.2.8,0,.8-.4v-.2a2.577,2.577,0,0,0-.8-1.3"/>
                  <path id="Path_3091" data-name="Path 3091" class="cls-15" d="M589.1,280.8l-45.6-26.3c-.4-.2-.8-.1-.8.4v.2a1.441,1.441,0,0,0,.8,1.3l45.6,26.3c.4.2.8.1.8-.4v-.2a1.955,1.955,0,0,0-.8-1.3"/>
                  <path id="Path_3092" data-name="Path 3092" class="cls-4" d="M566.7,213.9l-2.4-1.5a7.006,7.006,0,0,1-1-.8,39.464,39.464,0,0,1-10.1-12.3,36.852,36.852,0,0,1-4.8-17c0-11.6,8.3-16.3,18.4-10.5s18.3,20,18.3,31.6c0,5.3-1.7,9.1-4.5,11.2-2.5,1.9-5.9,2.4-9.8,1.1a4.18,4.18,0,0,1-1-.4,27.311,27.311,0,0,1-3.1-1.4m.1-46c-12-6.9-21.7-1.4-21.8,12.4,0,13.8,9.6,30.5,21.6,37.4s21.7,1.4,21.8-12.4-9.6-30.5-21.6-37.4"/>
                  <path id="Path_3093" data-name="Path 3093" class="cls-28" d="M566.8,171.7c-10.1-5.8-18.4-1.1-18.4,10.5a36.2,36.2,0,0,0,4.8,17,39.464,39.464,0,0,0,10.1,12.3c.3.3.7.5,1,.8a15.759,15.759,0,0,0,2.4,1.5,21.983,21.983,0,0,0,3.1,1.5c.3.1.7.3,1,.4,3.9,1.2,7.3.8,9.8-1.1,2.8-2.1,4.5-5.9,4.5-11.2C585.1,191.7,577,177.6,566.8,171.7Z"/>
                  <path id="Path_3094" data-name="Path 3094" class="cls-4" d="M562.3,196.5c-2.3-.4-7.3-1.9-7.8-1.2a27.565,27.565,0,0,0-1.2,3.9,39.464,39.464,0,0,0,10.1,12.3l-1.1-15"/>
                  <path id="Path_3095" data-name="Path 3095" class="cls-4" d="M566.9,176.6c-3.6-2.1-4.4.7-4.4.7-3.4-1.4-2.7,5.4-2.5,7.2a1.483,1.483,0,0,0-.1.7c0,1.3.8,3.1,1.6,3.5l.2.1c.1.3.1.7.2,1a19.893,19.893,0,0,0,1.9,5h0c0,.7-.1,1.5-.4,1.7l3.7,5.5,3.6-1.2-.1-.1a10.9,10.9,0,0,1-.4-2.2,6.665,6.665,0,0,0,1.9-2.8,1.884,1.884,0,0,0,.2-.8c.1.1.1.1.2.1.7.4,1.6-.4,1.6-1.7a3.371,3.371,0,0,0-.5-1.7c2.1-5-.8-10.8-5.4-14.3-.4-.2-.9-.5-1.3-.7"/>
                  <path id="Path_3096" data-name="Path 3096" class="cls-4" d="M572,202.2l-1.2,13.5c3.9,1.2,7.3.8,9.8-1.1a42.937,42.937,0,0,0-1.1-4.7c-.4-1.3-5.2-5.4-7.5-7.7"/>
                  <path id="Path_3097" data-name="Path 3097" class="cls-4" d="M567.1,202.5l-2.1.5.6,2.3-1.2,7.1a15.759,15.759,0,0,0,2.4,1.5,21.983,21.983,0,0,0,3.1,1.5l-1.2-8.3.6-1.6-2.2-3"/>
                </g>
                <path id="Path_3098" data-name="Path 3098" class="cls-23" d="M564.9,125.3l2.5,7.4c0,.1.1.2.2.3l5.9,4.4a.706.706,0,0,1-.1,1.2l-3.7,2a.67.67,0,0,0-.4.7l.8,5.8a.666.666,0,0,1-1.2.5l-4.4-5.3a.365.365,0,0,0-.5-.2l-5,.1a.709.709,0,0,1-.7-.8l1-6.2a.9.9,0,0,0-.1-.5l-3.8-6.5a.711.711,0,0,1,.9-1l4.5,1.8a.807.807,0,0,0,.9-.3l2.1-3.6C563.9,124.6,564.7,124.7,564.9,125.3Z"/>
                <path id="Path_3099" data-name="Path 3099" class="cls-23" d="M584.4,136.8l2.5,7.4c0,.1.1.2.2.3l5.9,4.4a.706.706,0,0,1-.1,1.2l-3.7,2a.67.67,0,0,0-.4.7l.8,5.8a.666.666,0,0,1-1.2.5l-4.4-5.3a.365.365,0,0,0-.5-.2l-5,.1a.709.709,0,0,1-.7-.8l1-6.2a.9.9,0,0,0-.1-.5l-3.8-6.5a.711.711,0,0,1,.9-1l4.5,1.8a.807.807,0,0,0,.9-.3l2.1-3.6C583.4,136.1,584.2,136.2,584.4,136.8Z"/>
              </g>
              <path id="Path_3100" data-name="Path 3100" class="cls-34" d="M537.2,138.1l-3.6-2.1c-2.6-1.5-4.7-.3-4.7,2.7l-.2,63.8h0l-.2,53.3a10.3,10.3,0,0,0,4.7,8.1l3.9,2.3V138.1Z"/>
            </g>
            <g id="Group_1136" data-name="Group 1136">
              <g id="Group_1134" data-name="Group 1134">
                <path id="Path_3101" data-name="Path 3101" class="cls-13" d="M407.5,132.9l.3-102-.5,187.3c0,4.7,3.3,10.6,7.5,12.9l106.3,61.4c4.1,2.4,7.5.5,7.5-4.3l.2-85.3Z"/>
                <path id="Path_3102" data-name="Path 3102" class="cls-22" d="M468.2,157.1C449,146,433.6,119.3,433.6,97.2s15.6-30.9,34.8-19.8S503,115.2,503,137.3s-15.6,30.9-34.8,19.8M521.6,88,415.3,26.6c-4.1-2.4-7.5-.5-7.5,4.3l-.3,102,121.3,70,.3-102A16.4,16.4,0,0,0,521.6,88"/>
                <path id="Path_3103" data-name="Path 3103" class="cls-15" d="M493.8,194.3l-52.3-30.2c-.7-.4-1.2-.1-1.3.7v.3a2.845,2.845,0,0,0,1.2,2.1l52.3,30.2c.7.4,1.2.1,1.3-.7v-.3a2.717,2.717,0,0,0-1.2-2.1"/>
                <path id="Path_3104" data-name="Path 3104" class="cls-15" d="M504.1,212.4l-72.9-42.1c-.7-.4-1.2-.1-1.3.7v.3a3.048,3.048,0,0,0,1.2,2.2L504,215.6c.7.4,1.2.1,1.3-.7v-.3a3.048,3.048,0,0,0-1.2-2.2"/>
                <path id="Path_3105" data-name="Path 3105" class="cls-15" d="M504,222.9l-72.9-42.1c-.7-.4-1.2-.1-1.3.7v.3a2.845,2.845,0,0,0,1.2,2.1L503.9,226c.7.4,1.2.1,1.3-.7V225a2.467,2.467,0,0,0-1.2-2.1"/>
                <path id="Path_3106" data-name="Path 3106" class="cls-15" d="M493.7,229.3l-52.3-30.2c-.7-.4-1.2-.1-1.3.7v.3a2.845,2.845,0,0,0,1.2,2.1l52.3,30.2c.7.4,1.2.1,1.3-.7v-.3a2.718,2.718,0,0,0-1.2-2.1"/>
                <path id="Path_3107" data-name="Path 3107" class="cls-15" d="M504,247.4l-72.9-42.1c-.7-.4-1.2-.1-1.3.7v.3a3.048,3.048,0,0,0,1.2,2.2l72.9,42.1c.7.4,1.2.1,1.3-.7v-.3a3.048,3.048,0,0,0-1.2-2.2"/>
                <path id="Path_3108" data-name="Path 3108" class="cls-15" d="M503.9,258,431,215.9c-.7-.4-1.2-.1-1.3.7v.3a2.845,2.845,0,0,0,1.2,2.1l72.9,42.1c.7.4,1.2.1,1.3-.7v-.3a2.35,2.35,0,0,0-1.2-2.1"/>
                <path id="Path_3109" data-name="Path 3109" class="cls-4" d="M468.2,150.9a41.3,41.3,0,0,1-3.8-2.5c-.5-.4-1.1-.8-1.6-1.2a64.128,64.128,0,0,1-16.2-19.7c-4.8-8.8-7.7-18.5-7.7-27.3.1-18.6,13.2-26.1,29.4-16.8s29.3,32,29.2,50.6c0,8.4-2.7,14.5-7.2,17.9-4,3-9.5,3.8-15.7,1.8-.5-.2-1.1-.4-1.6-.6a20.122,20.122,0,0,1-4.8-2.2m.2-73.5c-19.2-11.1-34.7-2.2-34.8,19.8S449,146,468.2,157.1s34.7,2.2,34.8-19.8-15.4-48.8-34.6-59.9"/>
                <path id="Path_3110" data-name="Path 3110" class="cls-22" d="M468.4,83.6c-16.2-9.3-29.3-1.8-29.4,16.8,0,8.8,2.9,18.5,7.7,27.3a64.127,64.127,0,0,0,16.2,19.7c.5.4,1,.8,1.6,1.2,1.2.9,2.5,1.7,3.8,2.5a31.5,31.5,0,0,0,4.9,2.4c.6.2,1.1.4,1.6.6,6.2,2,11.7,1.2,15.7-1.8,4.5-3.3,7.1-9.5,7.2-17.9C497.7,115.6,484.6,92.9,468.4,83.6Z"/>
                <path id="Path_3111" data-name="Path 3111" class="cls-4" d="M461.1,123.3c-3.7-.7-11.7-3-12.5-1.9a36.751,36.751,0,0,0-2,6.2,64.127,64.127,0,0,0,16.2,19.7l-1.7-24"/>
                <path id="Path_3112" data-name="Path 3112" class="cls-4" d="M468.9,92.6c0-.1-.1-.1,0,0-6.2-3.3-8.9-.6-10,1.9a9.317,9.317,0,0,0-.7,4.6l.3,4.2c-.7.1-1.2.7-1.2,2,0,2,1.4,5,2.5,5.7l.3.1a13.64,13.64,0,0,0,.4,1.7,34.533,34.533,0,0,0,3,7.9h0a5.356,5.356,0,0,1-.6,2.7l5.9,8.8,5.7-2-.1-.1a10.525,10.525,0,0,1-.6-3.5,9.667,9.667,0,0,0,3-4.4c.1-.4.3-.8.4-1.2.1.1.2.2.3.2,1.2.7,2.5-.7,2.5-2.7a5.527,5.527,0,0,0-1.6-3.8l.2-4.7a20.733,20.733,0,0,0-9.7-17.4"/>
                <path id="Path_3113" data-name="Path 3113" class="cls-4" d="M476.6,132.3l-1.9,21.5c6.2,2,11.7,1.2,15.7-1.8-.7-3.6-1.4-6.6-1.7-7.5-.8-2-8.3-8.5-12.1-12.2"/>
                <path id="Path_3114" data-name="Path 3114" class="cls-4" d="M468.9,132.9l-3.3.7.9,3.6-2,11.3c1.2.9,2.5,1.7,3.8,2.5a31.5,31.5,0,0,0,4.9,2.4l-1.9-13.3.9-2.6-3.3-4.6"/>
              </g>
              <g id="Group_1135" data-name="Group 1135">
                <path id="Path_3115" data-name="Path 3115" class="cls-23" d="M439.3,3.8l3.2,9.3a1.381,1.381,0,0,0,.3.4l7.4,5.5a.889.889,0,0,1-.1,1.5L445.5,23a.807.807,0,0,0-.4.9l1,7.3a.868.868,0,0,1-1.5.7L439,25.3a.908.908,0,0,0-.7-.3l-6.3.2a.919.919,0,0,1-.9-1l1.3-7.8a1.268,1.268,0,0,0-.1-.6l-4.8-8.2a.848.848,0,0,1,1.1-1.2l5.6,2.3a.841.841,0,0,0,1.1-.4l2.6-4.5A.717.717,0,0,1,439.3,3.8Z"/>
                <path id="Path_3116" data-name="Path 3116" class="cls-23" d="M463.8,18.3l3.2,9.3a1.381,1.381,0,0,0,.3.4l7.4,5.5a.889.889,0,0,1-.1,1.5L470,37.5a.807.807,0,0,0-.4.9l1,7.3a.868.868,0,0,1-1.5.7l-5.6-6.6a.908.908,0,0,0-.7-.3l-6.3.2a.919.919,0,0,1-.9-1l1.3-7.8a1.268,1.268,0,0,0-.1-.6L452,22.1a.848.848,0,0,1,1.1-1.2l5.6,2.3a.841.841,0,0,0,1.1-.4l2.6-4.5A.717.717,0,0,1,463.8,18.3Z"/>
                <path id="Path_3117" data-name="Path 3117" class="cls-23" d="M489.1,32.5l3.2,9.3a1.381,1.381,0,0,0,.3.4l7.4,5.5a.889.889,0,0,1-.1,1.5l-4.6,2.5a.807.807,0,0,0-.4.9l1,7.3a.868.868,0,0,1-1.5.7L488.8,54a.908.908,0,0,0-.7-.3l-6.3.2a.919.919,0,0,1-.9-1l1.3-7.8a1.268,1.268,0,0,0-.1-.6l-4.8-8.2a.848.848,0,0,1,1.1-1.2l5.6,2.3a.841.841,0,0,0,1.1-.4l2.6-4.5C487.9,31.7,488.8,31.8,489.1,32.5Z"/>
                <path id="Path_3118" data-name="Path 3118" class="cls-23" d="M513.6,47l3.2,9.3a1.38,1.38,0,0,0,.3.4l7.4,5.5a.889.889,0,0,1-.1,1.5l-4.6,2.5a.807.807,0,0,0-.4.9l1,7.3a.868.868,0,0,1-1.5.7l-5.6-6.6a.908.908,0,0,0-.7-.3l-6.3.2a.919.919,0,0,1-.9-1l1.3-7.8a1.268,1.268,0,0,0-.1-.6l-4.8-8.2a.848.848,0,0,1,1.1-1.2l5.6,2.3a.841.841,0,0,0,1.1-.4l2.6-4.5C512.4,46.2,513.3,46.3,513.6,47Z"/>
              </g>
            </g>
            <g id="Group_1138" data-name="Group 1138">
              <g id="Group_1137" data-name="Group 1137">
                <path id="Path_3119" data-name="Path 3119" class="cls-13" d="M331.6,87.6l.2-63.8L331.5,141a10.3,10.3,0,0,0,4.7,8.1l66.5,38.4c2.6,1.5,4.7.3,4.7-2.7l.2-53.3Z"/>
                <path id="Path_3120" data-name="Path 3120" class="cls-10" d="M369.6,102.8c-12-6.9-21.7-23.7-21.6-37.4,0-13.8,9.8-19.3,21.8-12.4s21.7,23.7,21.6,37.4-9.8,19.3-21.8,12.4M403,59.6,336.5,21.2c-2.6-1.5-4.7-.3-4.7,2.7l-.2,63.8,75.9,43.8.2-63.8a10.3,10.3,0,0,0-4.7-8.1"/>
                <path id="Path_3121" data-name="Path 3121" class="cls-15" d="M385.6,126.1l-32.7-18.9c-.4-.2-.8,0-.8.4v.2a1.441,1.441,0,0,0,.8,1.3L385.6,128c.4.2.8.1.8-.4v-.2a1.653,1.653,0,0,0-.8-1.3"/>
                <path id="Path_3122" data-name="Path 3122" class="cls-15" d="M392,137.4l-45.6-26.3c-.4-.2-.8,0-.8.4v.2a1.441,1.441,0,0,0,.8,1.3L392,139.3c.4.2.8,0,.8-.4v-.2a1.7,1.7,0,0,0-.8-1.3"/>
                <path id="Path_3123" data-name="Path 3123" class="cls-15" d="M392,144l-45.6-26.3c-.4-.2-.8,0-.8.4v.2a1.441,1.441,0,0,0,.8,1.3L392,146c.4.2.8.1.8-.4v-.2a1.684,1.684,0,0,0-.8-1.4"/>
                <path id="Path_3124" data-name="Path 3124" class="cls-15" d="M385.5,148l-32.7-18.9c-.4-.2-.8,0-.8.4v.2a1.441,1.441,0,0,0,.8,1.3l32.7,18.9c.4.2.8.1.8-.4v-.2a1.441,1.441,0,0,0-.8-1.3"/>
                <path id="Path_3125" data-name="Path 3125" class="cls-15" d="M392,159.3,346.4,133c-.4-.2-.8,0-.8.4v.2a1.441,1.441,0,0,0,.8,1.3L392,161.2c.4.2.8,0,.8-.4v-.2a2.577,2.577,0,0,0-.8-1.3"/>
                <path id="Path_3126" data-name="Path 3126" class="cls-15" d="M391.9,165.9l-45.6-26.3c-.4-.2-.8-.1-.8.4v.2a1.441,1.441,0,0,0,.8,1.3l45.6,26.3c.4.2.8.1.8-.4v-.2a1.441,1.441,0,0,0-.8-1.3"/>
                <path id="Path_3127" data-name="Path 3127" class="cls-4" d="M369.6,99l-2.4-1.5c-.3-.2-.7-.5-1-.7-.5-.4-.9-.8-1.4-1.2a40.537,40.537,0,0,1-8.7-11.2.758.758,0,0,1-.2-.4,36.2,36.2,0,0,1-4.6-16.6c0-11.6,8.3-16.3,18.4-10.5S388,76.9,388,88.5c0,5.3-1.7,9.1-4.5,11.2-.2.2-.5.3-.7.5a10.63,10.63,0,0,1-8.7.8c-.2,0-.3-.1-.5-.1a4.179,4.179,0,0,1-1-.4q-1.35-.6-3-1.5m.1-46c-12-6.9-21.7-1.4-21.8,12.4,0,13.8,9.6,30.5,21.6,37.4s21.7,1.4,21.8-12.4S381.7,59.9,369.7,53"/>
                <path id="Path_3128" data-name="Path 3128" class="cls-10" d="M369.7,56.8c-10.1-5.8-18.4-1.1-18.4,10.5a35.876,35.876,0,0,0,4.6,16.6c.1.1.1.3.2.4a43.72,43.72,0,0,0,8.7,11.2,17.408,17.408,0,0,0,1.4,1.2,6.07,6.07,0,0,0,1,.7,15.763,15.763,0,0,0,2.4,1.5,21.985,21.985,0,0,0,3.1,1.5c.3.1.7.3,1,.4.2,0,.3.1.5.1a11.084,11.084,0,0,0,8.7-.8,3.039,3.039,0,0,0,.7-.5c2.8-2.1,4.5-5.9,4.5-11.2C388,76.9,379.9,62.7,369.7,56.8Z"/>
                <path id="Path_3129" data-name="Path 3129" class="cls-4" d="M371.1,63.5a4.215,4.215,0,0,0-4.8,0,2.583,2.583,0,0,0-.8-.5c-1.2-.7-3.3-1.5-3.2,1.3.1,3-.6,7.2-1.9,9-.6.8-.2,2.5.9,3.7a38.349,38.349,0,0,0,5,4.6.445.445,0,0,1-.6.2c-1.4-.4-8.4-3.4-8.9-1.9A36.51,36.51,0,0,0,356,84c.1.1.1.3.2.4a43.72,43.72,0,0,0,8.7,11.2,28.856,28.856,0,0,1-.7-5.7,36.927,36.927,0,0,0,5.3,4,35.951,35.951,0,0,0,5.3,2.2,19.962,19.962,0,0,1-.7,5,11.084,11.084,0,0,0,8.7-.8c-.3-2.4-.6-4.8-.8-5.7-.6-2.1-7.5-7.2-8.9-8.4a1.7,1.7,0,0,1-.6-1,11.968,11.968,0,0,0,5.3.7c1.1-.1,1.6-1.3,1.2-2.9a52.786,52.786,0,0,1-1.4-9c-.1-3-3-8.5-6.5-10.5"/>
              </g>
              <path id="Path_3130" data-name="Path 3130" class="cls-34" d="M403,59.6l-4.6-2.7V185l4.3,2.5c2.6,1.5,4.7.3,4.7-2.7l.2-53.3.2-63.8A10.682,10.682,0,0,0,403,59.6Z"/>
              <path id="Path_3131" data-name="Path 3131" class="cls-23" d="M351,.5l2.6,7.6c0,.1.1.3.2.3l6.1,4.5a.706.706,0,0,1-.1,1.2l-3.8,2a.67.67,0,0,0-.4.7l.8,6a.705.705,0,0,1-1.2.6L350.6,18a.6.6,0,0,0-.6-.3l-5.2.1a.709.709,0,0,1-.7-.8l1.1-6.3a.9.9,0,0,0-.1-.5l-3.9-6.7a.713.713,0,0,1,.9-1l4.6,1.9a.806.806,0,0,0,.9-.3L349.7.4A.7.7,0,0,1,351,.5Z"/>
              <path id="Path_3132" data-name="Path 3132" class="cls-23" d="M371.1,12.3l2.6,7.6c0,.1.1.3.2.3l6.1,4.5a.706.706,0,0,1-.1,1.2l-3.8,2a.67.67,0,0,0-.4.7l.8,6a.705.705,0,0,1-1.2.6l-4.6-5.4a.6.6,0,0,0-.6-.3l-5.2.1a.709.709,0,0,1-.7-.8l1.1-6.3a.9.9,0,0,0-.1-.5l-3.9-6.7a.713.713,0,0,1,.9-1l4.6,1.9a.806.806,0,0,0,.9-.3l2.1-3.7A.752.752,0,0,1,371.1,12.3Z"/>
              <path id="Path_3133" data-name="Path 3133" class="cls-23" d="M391.6,23.9l2.6,7.6c0,.1.1.3.2.3l6.1,4.5a.706.706,0,0,1-.1,1.2l-3.8,2a.67.67,0,0,0-.4.7l.8,6a.705.705,0,0,1-1.2.6l-4.6-5.4a.6.6,0,0,0-.6-.3l-5.2.1a.709.709,0,0,1-.7-.8l1.1-6.3a.9.9,0,0,0-.1-.5l-3.9-6.7a.713.713,0,0,1,.9-1l4.6,1.9a.806.806,0,0,0,.9-.3l2.1-3.7C390.7,23.2,391.5,23.3,391.6,23.9Z"/>
            </g>
          </g>
        </g>
      </g>
    </g>
  </g>
</svg>
