<svg xmlns="http://www.w3.org/2000/svg" viewBox="-8889.297 274 659.729 650.631">
  <defs>
    <style>
      .cls-1 {
        opacity: 0.22;
      }

      .cls-2 {
        fill: #10203b;
      }

      .cls-3 {
        fill: #0669bf;
      }

      .cls-4 {
        fill: #567dbe;
      }

      .cls-5 {
        fill: #fff;
      }

      .cls-6 {
        fill: #feac15;
      }

      .cls-7 {
        fill: #ffdc9b;
      }

      .cls-8 {
        fill: #fe7e14;
      }

      .cls-9 {
        fill: #f69226;
      }

      .cls-10, .cls-11, .cls-19, .cls-20, .cls-23, .cls-27, .cls-28 {
        fill: none;
        stroke-miterlimit: 10;
      }

      .cls-10, .cls-11 {
        stroke: #4ba6f7;
        stroke-width: 5.046px;
      }

      .cls-10, .cls-11, .cls-23, .cls-28 {
        stroke-linejoin: round;
      }

      .cls-11, .cls-20, .cls-23, .cls-28 {
        stroke-linecap: round;
      }

      .cls-12 {
        fill: #066fcf;
      }

      .cls-13 {
        fill: #06325b;
      }

      .cls-14 {
        fill: #e6eff6;
      }

      .cls-15 {
        fill: #d7a185;
      }

      .cls-16 {
        fill: #c4927c;
      }

      .cls-17 {
        fill: #0569bd;
      }

      .cls-18 {
        fill: #3885ca;
      }

      .cls-19, .cls-20 {
        stroke: #8fbee7;
        stroke-width: 0.452px;
      }

      .cls-21 {
        fill: #fcaa16;
      }

      .cls-22 {
        fill: #2a80c7;
      }

      .cls-23 {
        stroke: #ffa841;
        stroke-width: 6.333px;
      }

      .cls-24 {
        fill: #c9d7e4;
      }

      .cls-25 {
        fill: #254380;
      }

      .cls-26 {
        fill: #001626;
      }

      .cls-27 {
        stroke: #1371c0;
        stroke-width: 0.361px;
      }

      .cls-28 {
        stroke: #b8dff8;
        stroke-width: 8.071px;
      }

      .cls-29 {
        fill: #066ecd;
      }

      .cls-30 {
        fill: #0a81ed;
      }

      .cls-31 {
        fill: #fc7e14;
      }
    </style>
  </defs>
  <g id="Group_1259" data-name="Group 1259" transform="translate(-8889.297 273.981)">
    <g id="Group_1258" data-name="Group 1258" transform="translate(0 0.019)">
      <g id="Group_1237" data-name="Group 1237" class="cls-1" transform="translate(233.615 596.243)">
        <g id="Group_1236" data-name="Group 1236">
          <path id="Path_3304" data-name="Path 3304" class="cls-2" d="M331.36,686.675c-18.44,10.617-48.241,10.617-66.681,0s-18.44-27.846,0-38.462,48.241-10.617,66.681,0S349.8,676.058,331.36,686.675Z" transform="translate(-250.85 -640.25)"/>
        </g>
      </g>
      <g id="Group_1239" data-name="Group 1239" class="cls-1" transform="translate(525.576 530.68)">
        <g id="Group_1238" data-name="Group 1238">
          <path id="Path_3305" data-name="Path 3305" class="cls-2" d="M644.86,616.275c-18.44,10.617-48.241,10.617-66.681,0s-18.44-27.846,0-38.462,48.241-10.617,66.681,0C663.207,588.429,663.207,605.658,644.86,616.275Z" transform="translate(-564.35 -569.85)"/>
        </g>
      </g>
      <g id="Group_1241" data-name="Group 1241" class="cls-1" transform="translate(46.239 426.934)">
        <g id="Group_1240" data-name="Group 1240">
          <path id="Path_3306" data-name="Path 3306" class="cls-2" d="M130.16,504.875c-18.44,10.617-48.241,10.617-66.681,0s-18.44-27.846,0-38.462,48.241-10.617,66.681,0S148.6,494.258,130.16,504.875Z" transform="translate(-49.65 -458.45)"/>
        </g>
      </g>
      <g id="Group_1247" data-name="Group 1247" transform="translate(273.521)">
        <path id="Path_3307" data-name="Path 3307" class="cls-3" d="M557.168,135.784,326.114,2.33c-4.75-2.7-9.034-2.98-12.386-1.118h0L301.9,7.824s2.7,4.377,4.936,7.916c0,.373-.093.745-.093,1.211V356.408c0,14.249,8.661,30.733,19.278,36.879L555.305,525.624l1.4,9.406,11.455-6.612c5.029-1.769,8.289-7.543,8.289-16.391V172.663C576.446,158.414,567.878,141.931,557.168,135.784Z" transform="translate(-294.263 -0.019)"/>
        <path id="Path_3308" data-name="Path 3308" class="cls-4" d="M544.125,534.148,312.978,400.787c-10.617-6.147-19.278-22.63-19.278-36.879V24.451c0-14.249,8.661-20.768,19.278-14.621L544.125,143.284c10.617,6.147,19.278,22.63,19.278,36.879V519.62C563.4,533.775,554.742,540.294,544.125,534.148Z" transform="translate(-293.7 -0.534)"/>
        <path id="Path_3309" data-name="Path 3309" class="cls-5" d="M538.3,475.119,322.8,350.7V48.4L538.3,172.821Z" transform="translate(-295.699 -3.343)"/>
        <path id="Path_3310" data-name="Path 3310" class="cls-6" d="M478.84,124,395.769,76.037C389.529,72.5,384.5,62.813,384.5,54.524V32.173c0-8.289,5.029-12.107,11.269-8.475L478.84,71.66c6.24,3.539,11.269,13.224,11.269,21.513v22.351C490.016,123.72,484.987,127.538,478.84,124Z" transform="translate(-299.938 -1.552)"/>
        <path id="Path_3311" data-name="Path 3311" class="cls-7" d="M491.338,161.32,380.794,97.526c-8.289-4.75-14.994-17.6-14.994-28.591v-29.8c0-10.989,6.705-16.111,14.994-11.269L491.339,91.659c8.289,4.75,14.994,17.6,14.994,28.591v29.8C506.239,161.04,499.534,166.162,491.338,161.32Z" transform="translate(-298.654 -1.807)"/>
        <path id="Path_3312" data-name="Path 3312" class="cls-8" d="M491.338,165.92,380.794,102.126c-8.289-4.75-14.994-17.6-14.994-28.591v-29.8c0-10.989,6.705-16.111,14.994-11.269l110.545,63.7c8.289,4.75,14.994,17.6,14.994,28.591v29.8C506.239,165.64,499.534,170.669,491.338,165.92Z" transform="translate(-298.654 -2.123)"/>
        <path id="Path_3313" data-name="Path 3313" class="cls-9" d="M491.338,163.42,380.794,99.626c-8.289-4.75-14.994-17.6-14.994-28.591v-29.8c0-10.989,6.705-16.111,14.994-11.269L491.339,93.759c8.289,4.75,14.994,17.6,14.994,28.591v29.8C506.239,163.14,499.534,168.262,491.338,163.42Z" transform="translate(-298.654 -1.951)"/>
        <g id="Group_1246" data-name="Group 1246" transform="translate(51.314 102.052)">
          <path id="Path_3314" data-name="Path 3314" class="cls-10" d="M348.8,109.6l31.571,18.253V164.36L348.8,146.107Z" transform="translate(-348.8 -109.6)"/>
          <path id="Path_3315" data-name="Path 3315" class="cls-10" d="M348.8,179.4l31.571,18.253v36.414L348.8,215.814Z" transform="translate(-348.8 -114.396)"/>
          <path id="Path_3316" data-name="Path 3316" class="cls-10" d="M348.8,249.1l31.571,18.253V303.86L348.8,285.607Z" transform="translate(-348.8 -119.184)"/>
          <path id="Path_3317" data-name="Path 3317" class="cls-10" d="M348.8,318.9l31.571,18.253V373.66L348.8,355.407Z" transform="translate(-348.8 -123.98)"/>
          <line id="Line_57" data-name="Line 57" class="cls-11" x2="113.339" y2="65.47" transform="translate(54.201 39.114)"/>
          <line id="Line_58" data-name="Line 58" class="cls-11" x2="66.029" y2="38.183" transform="translate(54.76 57.647)"/>
          <line id="Line_59" data-name="Line 59" class="cls-11" x2="113.339" y2="65.47" transform="translate(54.201 105.888)"/>
          <line id="Line_60" data-name="Line 60" class="cls-11" x2="66.029" y2="38.183" transform="translate(54.76 124.421)"/>
          <line id="Line_61" data-name="Line 61" class="cls-11" x2="113.339" y2="65.47" transform="translate(54.201 170.054)"/>
          <line id="Line_62" data-name="Line 62" class="cls-11" x2="66.029" y2="38.183" transform="translate(54.76 188.587)"/>
          <line id="Line_63" data-name="Line 63" class="cls-11" x2="113.339" y2="65.47" transform="translate(54.201 234.221)"/>
          <line id="Line_64" data-name="Line 64" class="cls-11" x2="66.029" y2="38.183" transform="translate(54.76 252.753)"/>
          <g id="Group_1242" data-name="Group 1242" transform="translate(6.985 16.073)">
            <path id="Path_3318" data-name="Path 3318" class="cls-12" d="M369.927,135.465c0,2.98-2.049,4.1-4.563,2.7a10.24,10.24,0,0,1-4.563-8.009c0-2.98,2.049-4.1,4.563-2.7A10.537,10.537,0,0,1,369.927,135.465Z" transform="translate(-356.609 -126.859)"/>
            <path id="Path_3319" data-name="Path 3319" class="cls-12" d="M356.3,145.735c0-5.588,3.911-7.916,8.847-5.122,4.843,2.794,8.847,9.685,8.847,15.273" transform="translate(-356.3 -127.723)"/>
          </g>
          <g id="Group_1243" data-name="Group 1243" transform="translate(6.985 80.519)">
            <path id="Path_3320" data-name="Path 3320" class="cls-12" d="M369.927,204.665c0,2.98-2.049,4.1-4.563,2.7a10.24,10.24,0,0,1-4.563-8.009c0-2.98,2.049-4.1,4.563-2.7A10.24,10.24,0,0,1,369.927,204.665Z" transform="translate(-356.609 -196.059)"/>
            <path id="Path_3321" data-name="Path 3321" class="cls-12" d="M356.3,214.835c0-5.588,3.911-7.916,8.847-5.122,4.843,2.794,8.847,9.685,8.847,15.273" transform="translate(-356.3 -196.916)"/>
          </g>
          <g id="Group_1244" data-name="Group 1244" transform="translate(6.985 145.43)">
            <path id="Path_3322" data-name="Path 3322" class="cls-12" d="M369.927,274.365c0,2.98-2.049,4.1-4.563,2.7a10.24,10.24,0,0,1-4.563-8.009c0-2.98,2.049-4.1,4.563-2.7A10.386,10.386,0,0,1,369.927,274.365Z" transform="translate(-356.609 -265.759)"/>
            <path id="Path_3323" data-name="Path 3323" class="cls-12" d="M356.3,284.635c0-5.588,3.911-7.916,8.847-5.122,4.843,2.794,8.847,9.685,8.847,15.273" transform="translate(-356.3 -266.623)"/>
          </g>
          <g id="Group_1245" data-name="Group 1245" transform="translate(6.985 210.434)">
            <path id="Path_3324" data-name="Path 3324" class="cls-12" d="M369.927,344.165c0,2.98-2.049,4.1-4.563,2.7a10.24,10.24,0,0,1-4.563-8.009c0-2.98,2.049-4.1,4.563-2.7A10.239,10.239,0,0,1,369.927,344.165Z" transform="translate(-356.609 -335.559)"/>
            <path id="Path_3325" data-name="Path 3325" class="cls-12" d="M356.3,354.335c0-5.588,3.911-7.916,8.847-5.122,4.843,2.794,8.847,9.685,8.847,15.273" transform="translate(-356.3 -336.416)"/>
          </g>
        </g>
      </g>
      <g id="Group_1248" data-name="Group 1248" transform="translate(197.341 270.826)">
        <path id="Path_3326" data-name="Path 3326" class="cls-13" d="M376.435,429.658c0,47.4-33.247,66.588-74.317,42.933s-74.317-81.3-74.317-128.7,33.247-66.588,74.317-42.933S376.435,382.255,376.435,429.658Z" transform="translate(-212.992 -290.825)"/>
        <path id="Path_3327" data-name="Path 3327" class="cls-13" d="M473.187,605.622,360.5,478.594,375.494,463.6,502.522,576.193a20.854,20.854,0,0,1,0,29.429h0A20.741,20.741,0,0,1,473.187,605.622Z" transform="translate(-222.11 -302.696)"/>
        <path id="Path_3328" data-name="Path 3328" class="cls-4" d="M463.993,612.922,351.4,485.894,366.394,470.9,493.516,583.493a20.853,20.853,0,0,1,0,29.429h0A20.967,20.967,0,0,1,463.993,612.922Z" transform="translate(-221.484 -303.197)"/>
        <path id="Path_3329" data-name="Path 3329" class="cls-4" d="M360.535,439.258c0,47.4-33.247,66.588-74.317,42.933s-74.317-81.3-74.317-128.7,33.247-66.588,74.317-42.933S360.535,391.855,360.535,439.258Z" transform="translate(-211.9 -291.484)"/>
        <path id="Path_3330" data-name="Path 3330" class="cls-14" d="M287.523,463.377c-31.2-18.067-56.623-62.024-56.623-98.158,0-36.041,25.424-50.756,56.623-32.688s56.623,62.024,56.623,98.158S318.721,481.444,287.523,463.377Z" transform="translate(-213.205 -293.159)"/>
      </g>
      <g id="Group_1249" data-name="Group 1249" transform="translate(202.65 362.255)">
        <path id="Path_3331" data-name="Path 3331" class="cls-15" d="M239.206,417.684l-.838-1.4c-2.328-3.818-4.843-7.543-6.24-11.827-.652-1.956-1.118-3.911-1.863-5.774a8.406,8.406,0,0,0-3.911-4.47,11.814,11.814,0,0,0,2.049,6.147A125.092,125.092,0,0,1,219.835,389c-.466.093-.652.466-.838.838a17.393,17.393,0,0,0-1.4,6.147,7.958,7.958,0,0,0,.373,2.98,8.775,8.775,0,0,0,1.863,2.7c2.142,2.235,5.4,4,6.426,6.892a18.916,18.916,0,0,1,1.676,4.47c.838,3.818,1.769,7.637,2.7,11.455,1.024,4.284,3.446,14.342,8.1,16.577,2.514,1.211,4.656,1.118,6.519-1.024s1.4-4.936.745-7.73A65.247,65.247,0,0,0,239.206,417.684Z" transform="translate(-217.6 -389)"/>
        <path id="Path_3332" data-name="Path 3332" class="cls-15" d="M273.469,479.415a16.951,16.951,0,0,0-1.583-4.1c-6.333-12.759-13.411-25.238-23.375-35.669a12.529,12.529,0,0,0-3.725-2.887,5.529,5.529,0,0,0-4.843.093,4.8,4.8,0,0,0-2.142,4.1,11.688,11.688,0,0,0,1.118,4.377,125.916,125.916,0,0,0,19.65,33.9c1.956,2.421,4.191,4.843,7.357,5.681a8.1,8.1,0,0,0,6.053-.652C273.655,483.141,273.748,481,273.469,479.415Z" transform="translate(-218.988 -392.246)"/>
        <path id="Path_3333" data-name="Path 3333" class="cls-16" d="M255.853,457.946c-.186.093-.093.373-.279.093-.093-2.887-1.863-6.705-3.166-9.313-1.676-3.446-4.1-6.333-6.426-9.406a28.117,28.117,0,0,1-3.26-4.191c3.353-.279-2.328-13.318-3.166-15.366-.652-1.49-1.4-3.26-1.956-4.563a50.906,50.906,0,0,0,4.75,7.916,29.67,29.67,0,0,1,3.539,9.313,30.781,30.781,0,0,0,1.118,4.191c.652,1.4,2.049,2.421,3.073,3.632,2.049,2.421,3.539,5.029,5.4,7.543a16.04,16.04,0,0,1,2.049,3.446c.559,1.3,1.863,3.539,1.769,4.936s-2.328,1.956-3.632,1.956C255.76,457.667,255.947,457.2,255.853,457.946Z" transform="translate(-218.974 -390.8)"/>
        <path id="Path_3334" data-name="Path 3334" class="cls-15" d="M354.477,427.451a14.327,14.327,0,0,0,1.211-1.118c3.26-3.073,6.705-5.96,9.22-9.685,1.118-1.676,2.142-3.446,3.353-5.029a8.77,8.77,0,0,1,4.936-3.26,13.223,13.223,0,0,1-3.632,5.4,101.635,101.635,0,0,0,11.362-8.661,1.219,1.219,0,0,1,.559,1.118,16.085,16.085,0,0,1-.372,6.333,7.51,7.51,0,0,1-1.211,2.794,9,9,0,0,1-2.514,2.049c-2.608,1.583-6.24,2.421-8.1,4.843a24.452,24.452,0,0,0-2.887,3.818c-1.863,3.446-3.818,6.8-5.681,10.244-2.142,3.818-7.264,12.852-12.293,13.69-2.794.466-4.75-.186-5.96-2.794-1.211-2.514,0-5.122,1.4-7.637A66.01,66.01,0,0,1,354.477,427.451Z" transform="translate(-226.145 -390.106)"/>
        <path id="Path_3335" data-name="Path 3335" class="cls-15" d="M347.744,451.046a4.537,4.537,0,0,0-.279.652,11.721,11.721,0,0,1-2.98,3.446A130.875,130.875,0,0,1,322.413,470.7a121.727,121.727,0,0,1-11.082,5.4c-2.887,1.211-5.96,2.328-9.127,1.583-1.769-.373-4.1-1.583-5.029-3.353-.838-1.676,0-3.632,1.024-4.936a16.1,16.1,0,0,1,3.26-2.887c11.455-8.382,23.655-16.2,37.252-20.768a12.775,12.775,0,0,1,4.563-.838,5.384,5.384,0,0,1,4.191,2.328A4.251,4.251,0,0,1,347.744,451.046Z" transform="translate(-223.044 -392.84)"/>
        <path id="Path_3336" data-name="Path 3336" class="cls-4" d="M274.929,477.513a29.2,29.2,0,0,0-1.863-5.215c-.559-1.3-1.118-2.7-1.769-4-.559-1.211-1.024-2.421-1.676-3.539a38.489,38.489,0,0,0-2.049-3.26c-1.211-1.863-2.421-3.725-3.632-5.495a36.722,36.722,0,0,0-18.44,14.621,69.2,69.2,0,0,0,6.8,7.916,28.713,28.713,0,0,0,8.1,6.147,18.2,18.2,0,0,0,10.431,1.3C274.65,485.336,275.488,480.586,274.929,477.513Z" transform="translate(-219.517 -393.603)"/>
        <path id="Path_3337" data-name="Path 3337" class="cls-15" d="M297.756,450.271c-.745,1.583-1.769,3.26-3.539,3.632a18.614,18.614,0,0,1-3.632-.186c-.372-.093-.745-.093-1.118-.186a14.983,14.983,0,0,1-3.539-.931,17.793,17.793,0,0,1-3.073-4.284.706.706,0,0,0-.186-.373,8.619,8.619,0,0,0-.466-.931,8.788,8.788,0,0,1-1.3-2.98c0-5.4,2.328-6.8,4.284-9.5a17.92,17.92,0,0,1,8.009-5.588,10.078,10.078,0,0,1,5.495-.559c1.583.466,1.4,1.583,1.49,3.073C300.55,437.978,300.457,444.311,297.756,450.271Z" transform="translate(-221.949 -391.693)"/>
        <path id="Path_3338" data-name="Path 3338" class="cls-15" d="M292.382,463.743a16.537,16.537,0,0,1-15.739,4.75,28.139,28.139,0,0,0-4.843-1.118c2.235-1.49,3.446-4.191,3.911-6.8a20.665,20.665,0,0,0-.279-8.94c-.186-.559-1.49-3.073-.838-3.539.559-.372,3.446.838,4.284.838a7.17,7.17,0,0,0,2.7-.652c.186-.093.279-.093.466-.186h0a27.175,27.175,0,0,1,2.887-1.3,1.585,1.585,0,0,1,.652-.093c.186.093.279.186.466.279,1.3,1.211,2.608,2.328,3.911,3.446a19.877,19.877,0,0,0-.931,3.911.342.342,0,0,1-.093.279,25.406,25.406,0,0,0-.279,3.818,4.533,4.533,0,0,0,.093,1.118,3.737,3.737,0,0,0,.279,1.4A4,4,0,0,0,292.382,463.743Z" transform="translate(-221.324 -392.964)"/>
        <path id="Path_3339" data-name="Path 3339" class="cls-16" d="M289.6,454.912a25.4,25.4,0,0,0-.279,3.818,4.534,4.534,0,0,0,.093,1.118,4.2,4.2,0,0,1-.931-.838c-.559-.559-1.118-1.024-1.676-1.583a19.783,19.783,0,0,1-3.353-6.147,10.885,10.885,0,0,1-.559-1.863,4.532,4.532,0,0,1-.093-1.118h0a47.655,47.655,0,0,0,4.191,4.563,14.229,14.229,0,0,0,2.794,1.769c.093.093.186.093.279.186a3.311,3.311,0,0,1,.838.373A4.106,4.106,0,0,0,289.6,454.912Z" transform="translate(-222.08 -393.074)"/>
        <path id="Path_3340" data-name="Path 3340" class="cls-2" d="M284.528,451.192a16.935,16.935,0,0,0,2.887-2.887c1.956-2.608,2.514-6.053,4.1-8.847a12.6,12.6,0,0,1,4.284-4.563,27.656,27.656,0,0,0,4.47-2.794,9.763,9.763,0,0,0,2.887-7.171,18.612,18.612,0,0,0-1.956-7.73,6.487,6.487,0,0,1-4.1,1.676c-4.1.559-8.382.186-12.479.559-4.191.372-8.475,1.676-11.176,4.843-2.887,3.353-3.353,8.1-3.446,12.572a32.506,32.506,0,0,0,.466,6.705,17.444,17.444,0,0,0,3.725,7.823C277.078,455.1,281.176,453.986,284.528,451.192Z" transform="translate(-221.2 -390.937)"/>
        <path id="Path_3341" data-name="Path 3341" class="cls-15" d="M293.843,439.89a3.5,3.5,0,0,0-1.3-1.3,1.546,1.546,0,0,0-1.769.186,1.491,1.491,0,0,0-.373,1.4,8.194,8.194,0,0,0,.466,1.4,17.931,17.931,0,0,0,2.421,4.563c.186.186.466.466.745.373a.727.727,0,0,0,.372-.373c0-.372.559-1.118.652-1.583a6.032,6.032,0,0,0,.186-1.863s.093.093-.093.093C294.5,442.125,294.4,440.728,293.843,439.89Z" transform="translate(-222.599 -392.394)"/>
        <path id="Path_3342" data-name="Path 3342" class="cls-2" d="M268.088,668.971a7.55,7.55,0,0,0,.093,3.539c.745,2.235,3.446,3.446,5.774,3.26,2.421-.186,4.563-1.49,6.612-2.7a53.34,53.34,0,0,0,9.5-6.8,10.546,10.546,0,0,0,2.7-3.446,4.936,4.936,0,0,0,0-4.284c-1.118-1.956-3.911-2.514-6.053-1.956-2.235.559-4.1,1.956-6.24,2.887-2.794,1.3-4.47,2.328-7.357,3.446C269.671,664.315,268.554,665.525,268.088,668.971Z" transform="translate(-221.058 -407.37)"/>
        <path id="Path_3343" data-name="Path 3343" class="cls-17" d="M264.09,550.272c-.559,7.357.745,14.808,1.769,22.072,1.118,7.73,2.049,15.459,2.608,23.189a37,37,0,0,1,.093,7.171c-.372,3.818-1.863,7.543-2.608,11.362-1.3,6.426-.652,13.131,0,19.65.466,4.377.838,8.661,1.3,13.038a59.653,59.653,0,0,0,2.049,12.2c3.632,1.3,5.774-.186,6.985-1.4a165.391,165.391,0,0,1,5.495-33.713c.931-3.446,1.956-6.892,2.608-10.43.652-4,.745-8.009,1.024-12.014,1.024-15.366,4.47-30.733,3.073-46.1a157.761,157.761,0,0,0-2.98-17.6,2.727,2.727,0,0,0-.652-1.49,2.678,2.678,0,0,0-1.676-.652l-9.5-1.4c-1.956-.279-4.47-1.211-5.96.372s-1.769,5.122-2.235,7.171A54.755,54.755,0,0,0,264.09,550.272Z" transform="translate(-220.785 -398.937)"/>
        <path id="Path_3344" data-name="Path 3344" class="cls-2" d="M301.783,675.766a10.031,10.031,0,0,0-.093,3.725c.652,2.514,3.539,3.911,6.053,3.725,2.608-.093,4.936-1.3,7.264-2.515,3.539-1.863,7.078-3.818,10.524-5.96,1.956-1.3,3.911-2.7,4.936-4.843s.559-5.029-1.4-6.24c-2.235-1.3-4.936,0-7.264.931a39.349,39.349,0,0,1-7.916,1.956c-2.7.559-7.357.466-9.779,1.863C301.969,669.62,302.155,673.438,301.783,675.766Z" transform="translate(-223.368 -407.833)"/>
        <path id="Path_3345" data-name="Path 3345" class="cls-17" d="M283.373,563.974c1.583,2.328,3.446,4.47,4.936,6.8,2.049,3.26,3.166,6.892,4.377,10.524,3.26,9.965,6.519,20.116,6.705,30.547.093,7.357-1.3,14.621-1.49,21.978a128.138,128.138,0,0,0,.745,14.621c.466,5.029.838,9.965,1.3,14.994a20.907,20.907,0,0,0,11.827-2.421c-.652-12.293.652-24.679,2.794-36.879,1.024-5.867,2.235-11.734,2.794-17.695.931-10.9-.373-21.885-1.769-32.781-1.676-13.5-3.353-27.1-8.1-39.859.279.838-22.63,3.073-24.586,3.26-7.357.745-5.308,9.592-4.191,14.9A29.7,29.7,0,0,0,283.373,563.974Z" transform="translate(-221.721 -398.949)"/>
        <path id="Path_3346" data-name="Path 3346" class="cls-13" d="M277.792,596.783a54.957,54.957,0,0,1,1.956,7.45,40.091,40.091,0,0,1-.093,8.847l-.838,10.058c-.745,8.661-1.4,17.415-2.794,25.983-.559,3.446.652,6.24,1.024,10.151,3.353-10.989,4.936-21.234,6.985-32.5,2.328-12.666,3.073-25.611,3.725-38.556l.559-11.175c.093-1.863.186-3.911-.745-5.495-.931-1.676-2.7-2.608-4.284-3.632-4.1-2.608-6.8-6.333-10.431-9.313-1.3,1.676-.093,6.146.093,8.289.279,3.353.559,6.705,1.024,10.058A102.274,102.274,0,0,0,277.792,596.783Z" transform="translate(-221.355 -400.653)"/>
        <path id="Path_3347" data-name="Path 3347" class="cls-4" d="M307.52,506.443a57.282,57.282,0,0,0,.559-6.892c0-4.191-1.211-8.2-2.421-12.2-1.583-5.4-3.26-10.71-4.843-16.111a27.4,27.4,0,0,0-2.235-5.774,17.089,17.089,0,0,1-7.823-.466l.373.279a18.768,18.768,0,0,1-12.759,4.284h0c-.466-.279-1.3-.186-1.956-.466a15.066,15.066,0,0,1-1.676-.931c-.745-.466-1.676-1.583-1.3-2.608a6.743,6.743,0,0,1-4.377,1.49c-1.3.093-2.887.186-3.818,1.024a10,10,0,0,0-3.073,6.053c0,.093-.093.186-.093.279a16.494,16.494,0,0,0-.186,6.053,82.072,82.072,0,0,0,1.956,12.573c.652,2.608,1.49,5.122,1.956,7.73,1.956,10.617-2.421,21.513-.373,32.13,1.3-.093,2.328.931,3.353,1.676,3.446,2.7,7.916,3.632,12.293,3.725s8.754-.559,13.131-.652c4.936-.093,10.524.279,14.249-2.98C307.333,525.441,306.5,515.942,307.52,506.443Z" transform="translate(-220.63 -394.222)"/>
        <path id="Path_3348" data-name="Path 3348" class="cls-18" d="M300.221,469.475c-1.4-.838-3.26,0-4.1,1.3a7.7,7.7,0,0,0-1.024,4.563c-.186,9.592,2.608,18.905,3.446,28.4a16.493,16.493,0,0,1-.279,6.053c-.466,1.863-1.49,3.632-2.142,5.495-1.211,3.632-.931,7.637-.279,11.362.652,3.818,1.769,7.543,2.049,11.362a47.271,47.271,0,0,0,13.876-2.887,1.28,1.28,0,0,0,.745-.466c.186-.279.093-.559,0-.931-1.769-8.94-1.676-18.253-1.118-27.38a43.77,43.77,0,0,0,.186-6.985,50.159,50.159,0,0,0-1.118-6.333c-1.118-5.029-2.421-10.337-5.867-14.249-1.211-1.4-2.794-2.608-3.818-4.191s-1.583-3.725-.652-5.4c.466.652.838,1.3,1.3,1.956" transform="translate(-222.924 -394.506)"/>
        <path id="Path_3349" data-name="Path 3349" class="cls-16" d="M349.131,448.6c.093.931.372,1.769.466,2.7a4.54,4.54,0,0,0-.279.652,11.721,11.721,0,0,1-2.98,3.446,130.876,130.876,0,0,1-22.072,15.553c-.279-.745-.652-1.676-.372-2.235.466-.931,2.142-1.4,2.887-1.956a44.53,44.53,0,0,1,5.867-4.191,42.878,42.878,0,0,0,5.588-3.446,45.233,45.233,0,0,0,5.96-4.47A60.918,60.918,0,0,0,349.131,448.6Z" transform="translate(-224.896 -393.095)"/>
        <path id="Path_3350" data-name="Path 3350" class="cls-4" d="M294.272,469.359a25.328,25.328,0,0,1,3.725-4c1.024-1.024,2.142-1.956,3.166-2.98.931-.931,1.956-1.769,2.98-2.608s2.142-1.49,3.166-2.235L312.9,453.9a36.048,36.048,0,0,1,10.989,20.768,79.352,79.352,0,0,1-9.406,4.563,28.448,28.448,0,0,1-9.965,2.421,17.674,17.674,0,0,1-10.058-2.98C291.385,476.624,292.5,471.967,294.272,469.359Z" transform="translate(-222.748 -393.459)"/>
        <path id="Path_3351" data-name="Path 3351" class="cls-18" d="M290.4,460.8Z" transform="translate(-222.602 -393.933)"/>
      </g>
      <g id="Group_1250" data-name="Group 1250" transform="translate(66.176 220.955)">
        <path id="Path_3352" data-name="Path 3352" class="cls-15" d="M115.81,286.614a7.288,7.288,0,0,1-3.166.466,29.253,29.253,0,0,1-6.333-.652c-3.446-.838-6.147-2.887-9.22-4.656-.931-.559-1.769-1.211-2.7-1.676-.466-.279-1.118-.373-1.49-.838.745-.373,1.769-.093,2.608-.466,2.328-1.118,3.818-3.632,4.563-5.96.279-.931.559-1.863.838-2.887.186-.652.279-1.3.466-1.956a3.838,3.838,0,0,0,.093-1.118,8.4,8.4,0,0,0-.279-3.446c-.093-.186-.186-.279-.279-.466.466,0,.931-.559,1.3-.559.652,0,1.4.838,1.863,1.211a10.076,10.076,0,0,0,4,2.515c2.142.559,4.563,1.3,6.705.838a12.062,12.062,0,0,0-1.4,4c0,.186-.093.279-.093.466a14.964,14.964,0,0,0-.466,4.1v.093a19.8,19.8,0,0,0,.652,4.1A28.616,28.616,0,0,0,115.81,286.614Z" transform="translate(-72.559 -239.002)"/>
        <path id="Path_3353" data-name="Path 3353" class="cls-16" d="M113.886,271.863a14.964,14.964,0,0,0-.466,4.1,5.456,5.456,0,0,1-2.98,2.421c-1.3.279-2.794-.652-3.632-1.49a28.036,28.036,0,0,1-5.308-6.519c.186-.652.279-1.3.466-1.956a3.838,3.838,0,0,0,.093-1.118c.279.373.652.652.931,1.024.838.838,2.049,1.4,3.073,2.235a6.823,6.823,0,0,0,2.142,1.49,5.665,5.665,0,0,0,2.142.279,8.98,8.98,0,0,0,3.539-.838C113.979,271.491,113.979,271.677,113.886,271.863Z" transform="translate(-73.15 -239.338)"/>
        <path id="Path_3354" data-name="Path 3354" class="cls-15" d="M120.583,248.976c.279,1.583,1.118,2.98,1.211,4.656a20.442,20.442,0,0,1-.559,7.171,28.485,28.485,0,0,1-8.1,12.386c-5.4,4.75-10.617-4.284-11.921-8.754-1.118-3.818-2.049-9.127.093-12.759,1.769-2.887,4.284-5.96,7.73-6.8a11.4,11.4,0,0,1,7.823.931C118.161,246.648,119.372,249.069,120.583,248.976Z" transform="translate(-73.048 -237.777)"/>
        <path id="Path_3355" data-name="Path 3355" class="cls-2" d="M102.647,254.9c3.446-4.656,8.754-2.98,10.8-3.26a8.135,8.135,0,0,0,6.892-7.543c.186-1.956.466-4.563-.093-6.426-1.676.373-2.887,1.3-4.75.931-1.956-.373-3.539-1.211-5.681-1.3-3.911-.186-8.382.745-10.989,3.725A21.613,21.613,0,0,0,93.8,255.738c0,1.583,4.284,14.9,7.078,12.945,1.024-.745.466-6.426.652-7.73C101.716,259.463,102.088,255.645,102.647,254.9Z" transform="translate(-72.621 -237.276)"/>
        <path id="Path_3356" data-name="Path 3356" class="cls-2" d="M119.843,244.1c3.446-.279,5.681,4.47,5.96,7.73.279,3.073-.838,6.333-1.863,9.127a26.67,26.67,0,0,1-2.049,4.377c-.279.466-1.769,3.073-2.421,2.98-1.211-.093.652-3.632.838-4.284a26.317,26.317,0,0,0,1.583-6.053c.279-3.073.373-6.147-1.024-8.94C119.843,247.079,119.1,246.148,119.843,244.1Z" transform="translate(-74.357 -237.744)"/>
        <path id="Path_3357" data-name="Path 3357" class="cls-15" d="M102.918,258.354c-.373-1.118-.373-1.956-1.3-2.794-.652-.559-1.4-.838-2.049-.093-1.3,1.49.466,3.632,1.118,5.029.373.745,1.024,1.4,1.4,2.142a25.1,25.1,0,0,0,.373-2.608C102.639,259.564,102.732,258.261,102.918,258.354Z" transform="translate(-72.985 -238.494)"/>
        <path id="Path_3358" data-name="Path 3358" class="cls-2" d="M81.946,470c-.931,1.769.093,5.029-.186,7.078s-1.769,3.632-2.98,5.308c-1.769,2.421-6.985,7.078-5.4,10.43,1.956,4.284,7.264,2.515,10.058.466,2.887-2.142,3.725-5.867,5.96-8.568,1.863-2.235,1.956-4,1.4-6.705A55.763,55.763,0,0,1,90.142,470a35.107,35.107,0,0,0-5.4.373C83.9,470.462,81.574,470.556,81.946,470Z" transform="translate(-71.198 -253.262)"/>
        <path id="Path_3359" data-name="Path 3359" class="cls-2" d="M108.169,469.6c-.186,2.514.559,5.215.093,7.637-.373,2.142-2.328,4.563-1.769,6.892s3.632,2.421,5.588,3.073a9.319,9.319,0,0,1,4.75,3.725c2.7,3.446,9.127,4.377,12.479.931,1.49-1.583,1.863-4.47.186-5.867-1.769-1.49-4.284-1.4-6.24-2.515-5.215-2.98-7.823-7.637-7.45-13.876-2.608.186-4.843.652-7.357.279C108.448,470.252,108.448,470.531,108.169,469.6Z" transform="translate(-73.486 -253.238)"/>
        <path id="Path_3360" data-name="Path 3360" class="cls-18" d="M87.126,341.7c-2.235.931-3.353,6.612-4.284,8.754a43.6,43.6,0,0,0-2.794,10.9c-1.4,10.244,0,20.488,1.118,30.733.466,4,1.211,8.1,1.49,12.107A32.671,32.671,0,0,1,80.234,417.6a39.472,39.472,0,0,0-2.049,16.484c.652,4.656.186,5.122.652,9.779.466,4.377.931,8.754,1.118,13.131a43.725,43.725,0,0,1,.186,4.936c-.093,1.769.373,3.446.373,5.122a.6.6,0,0,0,.559.559c3.632-.093,8.289.093,11.641-1.024.093,0,.186-.186.279-.279.931-7.73,2.328-15.366,3.911-23,2.421-11.827,4.563-23.655,6.892-35.482,2.142-10.989,4.377-22.351,5.774-33.527a130.6,130.6,0,0,0,1.024-15.925c0-2.608,0-5.122-.186-7.73-.093-1.118.279-3.353-.652-4-1.118-.745-5.308-.279-6.705-.466a40.962,40.962,0,0,1-7.543-1.118c-3.073-.838-6.333-1.769-9.313-2.794C87.033,342.259,87.871,342.352,87.126,341.7Z" transform="translate(-71.535 -244.45)"/>
        <path id="Path_3361" data-name="Path 3361" class="cls-18" d="M103.773,346.89H103.4C103.586,346.7,103.679,346.7,103.773,346.89Z" transform="translate(-73.281 -244.797)"/>
        <path id="Path_3362" data-name="Path 3362" class="cls-18" d="M130.435,380.379c0,11.548-2.235,22.91-4.656,34.085-2.514,11.455-4.47,22.91-6.147,34.458-.652,4.377-.838,8.94-1.769,13.224-.186.838-.279,2.608-.745,3.26-.838,1.211-2.514.745-4.1.745-1.4,0-3.166.279-4.47.186-1.863-.279-2.049-1.118-2.328-3.073-1.024-7.171-1.118-12.666-1.49-18.346-.279-4.563-.838-8.568-.373-13.038,0-.279.093-.559.093-.838.838-7.357,1.863-14.528,2.887-21.885a47.819,47.819,0,0,0,.186-8.94c-.279-3.632-.745-7.264-1.024-10.9-1.024-13.6.466-27.287-2.235-40.791a6.1,6.1,0,0,0-.466-1.676c7.264,0,17.788,4.377,24.214-.652-.186,5.774,1.583,11.269,1.863,16.95S130.435,374.511,130.435,380.379Z" transform="translate(-73.308 -244.759)"/>
        <path id="Path_3363" data-name="Path 3363" class="cls-19" d="M96.459,355.2c-.466,2.794-2.328,5.029-4.1,7.078-1.4,1.583-2.887,3.725-4.75,4.75a9.087,9.087,0,0,1-6.612.652h.466" transform="translate(-71.742 -245.378)"/>
        <path id="Path_3364" data-name="Path 3364" class="cls-19" d="M123.4,355.9c-.093,3.632,2.608,8.847,5.495,11.082.466.373,2.235,1.118,2.328.838" transform="translate(-74.655 -245.426)"/>
        <path id="Path_3365" data-name="Path 3365" class="cls-19" d="M116.223,355.5c-.466.931-.093,3.073-.186,4.284-.093,1.676-.186,3.353-.279,4.936a24.323,24.323,0,0,1-1.024,6.333c-1.024,2.887-3.725,3.26-6.333,2.7.186.093.373.093.466.186" transform="translate(-73.624 -245.398)"/>
        <path id="Path_3366" data-name="Path 3366" class="cls-19" d="M110.366,355.2c-.652,1.211,0,4.563,0,6.147a42.436,42.436,0,0,1,0,5.96,42.588,42.588,0,0,0-.466,4.843" transform="translate(-73.727 -245.378)"/>
        <path id="Path_3367" data-name="Path 3367" class="cls-20" d="M86.126,352.7c.093,2.608-1.3,5.867-1.769,8.754a52.87,52.87,0,0,0-.466,8.568c0,5.495.186,10.9.186,16.391v21.979c0,6.892-2.049,13.411-3.073,20.209a126.5,126.5,0,0,0-1.3,18.719c.093,4.191.652,8.568.931,12.666.093,1.211.652,7.171.652,7.916" transform="translate(-71.652 -245.206)"/>
        <path id="Path_3368" data-name="Path 3368" class="cls-4" d="M129.036,286.689c-2.514.093-4.563,3.26-5.4,5.029-1.024,2.142-.931,4.656-.838,6.8a172.452,172.452,0,0,0,2.142,20.768c.652,3.446.466,7.171,1.769,10.337.279.745,2.608,1.863,3.353,2.328,1.118.652,1.956-.559,2.514-1.49,3.353-5.029,3.446-11.176,3.632-16.763.093-2.142-.279-4.191-.279-6.426a58.36,58.36,0,0,0-.373-9.872,22.04,22.04,0,0,0-2.608-7.543c-.652-1.118-1.49-2.7-2.887-3.166C129.222,286.41,128.477,286.6,129.036,286.689Z" transform="translate(-74.61 -240.66)"/>
        <path id="Path_3369" data-name="Path 3369" class="cls-15" d="M118.569,331.911c1.024,1.583,2.98,2.142,4.656,2.608,5.495,1.769,11.362,2.608,17.136,3.725,4.75.838,9.592.652,14.342,1.956,4.377,1.211,8.568,3.725,13.131,4.563,2.514.466,6.519.838,9.313-.279a1.742,1.742,0,0,0,.652-2.794,6.615,6.615,0,0,0-1.211-1.118c-1.024-.652-2.794-.838-3.911-1.211a70.757,70.757,0,0,0-6.8-2.887,13.384,13.384,0,0,1,4.563.279.431.431,0,0,0,.186-.838,40.6,40.6,0,0,0-6.519-2.142c-2.235-.466-5.308.466-7.637.093-4-.745-6.8-2.608-10.71-4-6.333-2.235-13.131-5.867-20.023-5.774-1.769,0-4.656-.652-6.053.652C118.569,325.671,117.544,330.328,118.569,331.911Z" transform="translate(-74.294 -243.229)"/>
        <path id="Path_3370" data-name="Path 3370" class="cls-17" d="M137.884,307.586a5.511,5.511,0,0,1-.093,1.769c-.279.931-.559.931-1.769,1.3a13.064,13.064,0,0,1-3.818.559c-.931.093-1.863,0-2.794,0-.838,0-1.676-.093-2.514-.093-.373-5.96-.466-12.014-1.118-17.881-.186-1.211-.931-7.637.838-8.009h0a5.043,5.043,0,0,1,5.96.186c2.7,1.956,3.073,5.308,3.818,8.382a52.449,52.449,0,0,1,1.49,9.313C137.79,304.606,137.977,306.1,137.884,307.586Z" transform="translate(-74.796 -240.51)"/>
        <path id="Path_3371" data-name="Path 3371" class="cls-13" d="M130.283,303.575c.279,1.4.838,7.264,2.049,8.382-.931.093-1.863,0-2.794,0a46.883,46.883,0,0,1-.838-7.264c0-3.26.373-6.333.373-9.592C130,297.8,129.724,300.967,130.283,303.575Z" transform="translate(-75.019 -241.248)"/>
        <path id="Path_3372" data-name="Path 3372" class="cls-17" d="M127.509,342.007c-.186-5.774-.745-11.548-.745-17.415,0-5.588-.093-11.176-.373-16.67a38.846,38.846,0,0,1-.093-7.357,50.31,50.31,0,0,0,.652-7.45c0-2.328.186-7.171-2.235-8.289-1.863-.838-3.818-1.583-5.681-2.514-2.049-1.024-4.656-2.887-6.892-3.073a4.92,4.92,0,0,1-.093,1.211l.093.093c-.186,2.7-2.794,3.725-5.122,4.1a9.352,9.352,0,0,1-8.382-2.608A6.673,6.673,0,0,1,96.5,278.4a9.6,9.6,0,0,1-4.284.931,10.638,10.638,0,0,1-2.421.838c-1.676.652-3.353,1.118-5.029,1.676a30.933,30.933,0,0,0-6.24,3.353c-.186.559-.279,1.118-.466,1.769a28.011,28.011,0,0,0,.466,13.317c.652,2.235,1.4,2.608,3.353,4,1.118.745,2.7,1.676,3.073,2.98s0,3.166,0,4.563v6.147c-.093,6.612-1.211,13.038-2.235,19.557-.373,2.328-.745,4.75-1.3,7.078-.093.373-.186.838-.279,1.211-.373,1.49-1.024,3.632-.745,5.122a7.984,7.984,0,0,1,2.514.466c3.166.745,6.24,2.235,9.5,2.608a132.457,132.457,0,0,0,16.111,1.024c5.867,0,13.131,1.49,18.253-2.142,1.118-.838.745-2.049.745-3.539C127.23,346.943,127.6,344.522,127.509,342.007Z" transform="translate(-71.5 -240.101)"/>
        <path id="Path_3373" data-name="Path 3373" class="cls-17" d="M115.9,279.9c1.863.559,3.818,1.024,5.774,1.583,2.049.652,3.911,1.676,5.867,2.235.745.279,2.049.466,2.608,1.118a2.956,2.956,0,0,1-.186,3.446c-.838.931-2.608.372-3.725.372a5.126,5.126,0,0,1-4.191-1.49c-1.4-1.211-2.142-2.887-3.353-4.284A12.465,12.465,0,0,1,115.9,279.9Z" transform="translate(-74.139 -240.204)"/>
        <path id="Path_3374" data-name="Path 3374" class="cls-13" d="M88.757,313.054c0,5.774-1.3,11.548-2.142,17.229a50.758,50.758,0,0,1-2.328,9.872c-.373,1.211-.838,2.421-1.3,3.539a28.73,28.73,0,0,1-1.583,2.7c.466-2.328.931-4.75,1.3-7.078,1.024-6.519,2.235-12.945,2.235-19.557v-5.495a5.7,5.7,0,0,1,.466-1.118c1.4-2.7,2.7-5.774,2.514-8.847A38.274,38.274,0,0,1,88.757,313.054Z" transform="translate(-71.769 -241.881)"/>
        <path id="Path_3375" data-name="Path 3375" class="cls-15" d="M81.823,284.989c-2.514-.466-5.122,2.794-6.24,4.563-1.4,2.235-1.769,5.215-2.049,7.73-.838,8.2-1.769,16.3-1.769,24.586,0,4.1-.931,8.382-.186,12.386.186.838,2.235,2.794,2.794,3.353,1.024,1.024,2.049-.279,2.794-1.211,4.191-5.122,5.495-12.107,6.705-18.533.466-2.421.466-4.936.931-7.45a79.937,79.937,0,0,0,1.49-11.548,31.515,31.515,0,0,0-1.118-9.313c-.373-1.4-.931-3.446-2.235-4.377C82.1,284.709,81.264,284.8,81.823,284.989Z" transform="translate(-71.074 -240.543)"/>
        <path id="Path_3376" data-name="Path 3376" class="cls-21" d="M72.176,339.4c.931,1.676,2.887,2.235,4.47,2.887,5.4,2.049,11.176,3.26,16.856,4.563,4.656,1.118,9.592,1.118,14.249,2.7,4.377,1.49,8.382,4.191,12.852,5.215,2.514.559,6.426,1.118,9.313.186a1.752,1.752,0,0,0,.745-2.794,4.558,4.558,0,0,0-1.211-1.118c-.931-.652-2.7-.931-3.818-1.49-2.235-1.024-4.377-2.421-6.612-3.26,1.024-.279,2.887.186,4.563.466a.447.447,0,0,0,.279-.838,41.186,41.186,0,0,0-6.426-2.514c-2.235-.559-5.4.186-7.637-.279-4-.931-6.705-2.98-10.43-4.563-6.24-2.608-12.759-6.612-19.743-6.892-1.769-.093-4.563-.931-6.053.373C72.549,333.071,71.245,337.728,72.176,339.4Z" transform="translate(-71.113 -243.737)"/>
        <path id="Path_3377" data-name="Path 3377" class="cls-17" d="M84.88,281.845a29.462,29.462,0,0,0-6.705,3.166,11.683,11.683,0,0,0-4.47,4.563l-.559,2.235a30.014,30.014,0,0,0-1.49,5.681c-.186,2.049-.279,4.1-.466,6.053a40.433,40.433,0,0,0-.093,4.75c0,.931.093,1.769.093,2.7,0,1.4-.279,1.49,1.118,2.142a22.922,22.922,0,0,0,4.75,1.4c1.211.279,2.049.838,3.26,1.024,1.676.186,3.539-.279,5.122,0,.745-2.049.652-4.656.838-6.8.186-2.328.466-4.656.652-6.985.279-5.4.838-10.8,1.118-16.2a17.777,17.777,0,0,0-.279-4.47A14.586,14.586,0,0,0,84.88,281.845Z" transform="translate(-71.059 -240.287)"/>
        <path id="Path_3378" data-name="Path 3378" class="cls-18" d="M133.1,313.486l.186-.186C133.286,313.486,133.286,313.579,133.1,313.486Z" transform="translate(-75.321 -242.499)"/>
        <path id="Path_3379" data-name="Path 3379" class="cls-13" d="M114.365,384.24a74.625,74.625,0,0,1-3.353,17.508,48.04,48.04,0,0,0-2.514,13.5c-.093,1.956.279,3.911.279,5.867a41.053,41.053,0,0,1-.745,6.8,26.844,26.844,0,0,1-1.863,6.053,21.444,21.444,0,0,1-1.676,4c0-1.3,0-2.608-.093-4,0-.279.093-.559.093-.838.838-7.357,1.863-14.528,2.887-21.885a47.818,47.818,0,0,0,.186-8.94,67,67,0,0,0,1.211-7.543c.279-2.514.745-5.029.838-7.543.093-2.421,0-5.96.931-8.2.745-1.769,3.073-2.608,4.47-3.725C115.2,378.187,114.644,381.26,114.365,384.24Z" transform="translate(-73.349 -246.759)"/>
        <path id="Path_3380" data-name="Path 3380" class="cls-20" d="M112.593,379.2c-1.118,9.22.745,18.719-.745,27.846a112.225,112.225,0,0,0-1.4,14.808c-.279,5.495-2.328,10.8-2.794,16.3A143.818,143.818,0,0,0,107.1,453.7a71.771,71.771,0,0,0,2.328,14.621" transform="translate(-73.533 -247.027)"/>
        <path id="Path_3381" data-name="Path 3381" class="cls-19" d="M94.5,279.3c.466,2.235,3.539,5.588,4.75,6.612a13.133,13.133,0,0,0,5.588,2.421c3.632.745,8.1-.373,10.151-3.446a8.988,8.988,0,0,0,1.583-4.377" transform="translate(-72.669 -240.163)"/>
        <path id="Path_3382" data-name="Path 3382" class="cls-19" d="M86.6,281.9c-.093,1.024.652,2.142,1.024,3.073a17.7,17.7,0,0,1,1.024,3.632,43.332,43.332,0,0,1,.373,6.985,27.132,27.132,0,0,1-.186,5.495c-.186,1.024-.745,1.956-.838,2.98" transform="translate(-72.126 -240.342)"/>
        <path id="Path_3383" data-name="Path 3383" class="cls-19" d="M127.7,285.3a44.023,44.023,0,0,1,1.863,9.872c.093,2.515-.093,4.936-.093,7.45" transform="translate(-74.95 -240.575)"/>
      </g>
      <g id="Group_1251" data-name="Group 1251" transform="translate(108.868 272.052)">
        <path id="Path_3384" data-name="Path 3384" class="cls-22" d="M170.17,300.205l-10.337-6.147h0c-4.563-2.887-10.9-2.608-17.974,1.49-13.783,7.916-24.959,27.287-24.959,43.212,0,7.637,2.608,13.131,6.8,15.832h0l.186.093c.186.093.466.279.652.373l10.058,5.867,3.446-5.96a27.769,27.769,0,0,0,3.725-1.863c13.783-7.916,24.959-27.287,24.959-43.212,0-1.211-.093-2.328-.186-3.446Z" transform="translate(-116.9 -292.142)"/>
        <path id="Path_3385" data-name="Path 3385" class="cls-4" d="M177.417,316.086c0,15.925-11.176,35.2-24.959,43.212-13.783,7.916-24.959,1.49-24.959-14.435s11.176-35.2,24.959-43.212C166.242,293.735,177.417,300.254,177.417,316.086Z" transform="translate(-117.628 -292.564)"/>
        <path id="Path_3386" data-name="Path 3386" class="cls-23" d="M160.946,316.4l-7.823,29.336-7.823-13.5" transform="translate(-118.851 -293.809)"/>
      </g>
      <path id="Path_3387" data-name="Path 3387" class="cls-15" d="M72.176,339.4c.931,1.676,2.887,2.235,4.47,2.887,5.4,2.049,11.176,3.26,16.856,4.563,4.656,1.118,9.592,1.118,14.249,2.7,4.377,1.49,8.382,4.191,12.852,5.215,2.514.559,6.426,1.118,9.313.186a1.752,1.752,0,0,0,.745-2.794,4.558,4.558,0,0,0-1.211-1.118c-.931-.652-2.7-.931-3.818-1.49-2.235-1.024-4.377-2.421-6.612-3.26,1.024-.279,2.887.186,4.563.466a.447.447,0,0,0,.279-.838,41.186,41.186,0,0,0-6.426-2.514c-2.235-.559-5.4.186-7.637-.279-4-.931-6.705-2.98-10.43-4.563-6.24-2.608-12.759-6.612-19.743-6.892-1.769-.093-4.563-.931-6.053.373C72.549,333.071,71.245,337.728,72.176,339.4Z" transform="translate(-4.937 -22.782)"/>
      <g id="Group_1252" data-name="Group 1252" transform="translate(492.934 321.269)">
        <path id="Path_3388" data-name="Path 3388" class="cls-15" d="M594.982,391.726a9.709,9.709,0,0,1-3.725,2.328c-1.583.652-3.167,1.3-4.656,2.049a64.274,64.274,0,0,0,11.548,22.072,58.447,58.447,0,0,0,10.617-12.386c2.794-4.656,5.215-9.034,5.122-14.435-1.211.652-3.353-.931-4.284-1.956a7.784,7.784,0,0,1-1.583-3.818c-.652-4.1-.186-8.289.279-12.479a15.322,15.322,0,0,1-7.73,5.215c-2.328.745-6.612,1.676-5.495,5.029C596.006,386.045,597.124,389.118,594.982,391.726Z" transform="translate(-533.237 -346.921)"/>
        <path id="Path_3389" data-name="Path 3389" class="cls-16" d="M595.533,389.077a5.3,5.3,0,0,0,3.725,2.142,4.933,4.933,0,0,0,3.073-1.4,20.268,20.268,0,0,0,3.26-4.191,53.568,53.568,0,0,0,3.166-6.053,13.6,13.6,0,0,0,1.583-7.078c-1.49,2.421-2.98,4.936-4.377,7.357-1.863,3.166-3.632,5.681-7.264,5.96-.838.093-2.608,1.211-3.446,1.211C593.857,387.028,595.16,388.425,595.533,389.077Z" transform="translate(-533.788 -346.879)"/>
        <path id="Path_3390" data-name="Path 3390" class="cls-15" d="M587.872,362.185c-2.049,3.632-2.142,8.2-1.024,12.2a34.143,34.143,0,0,0,5.96,10.989c1.211,1.583,2.7,3.26,4.656,3.353,1.769.093,3.353-1.118,4.563-2.328,7.543-7.823,8.1-19.743,3.818-25.7C601.282,354.362,591.5,355.666,587.872,362.185Z" transform="translate(-533.205 -345.785)"/>
        <path id="Path_3391" data-name="Path 3391" class="cls-9" d="M584.855,363.382a8.2,8.2,0,0,1,7.543-2.887,10.711,10.711,0,0,1,6.985,4.284,16.531,16.531,0,0,1,3.073,7.73c.186,1.211-14.062.466-15.366.279-2.328-.372-4.377-.186-4.191-2.887A11.865,11.865,0,0,1,584.855,363.382Z" transform="translate(-532.982 -346.049)"/>
        <path id="Path_3392" data-name="Path 3392" class="cls-9" d="M587.624,357.168a14.152,14.152,0,0,1,6.892-4.936c5.4-1.956,12.107-.838,15.646,3.632,2.235,2.794,2.98,6.333,3.166,9.872a32.028,32.028,0,0,1-2.421,14.156c-.373.838-1.024,1.863-1.956,1.769-.745-.093-1.118-.931-1.3-1.583a29.384,29.384,0,0,1-1.211-4.936c-.186-1.49-.373-3.166-1.49-4.191-.838-.838-2.142-1.024-3.166-1.583-1.676-.931-2.608-2.794-4-4.1a8.512,8.512,0,0,0-6.053-2.328,8.179,8.179,0,0,0-3.632,1.024c-.838.373-1.769,1.211-2.515.186C584.364,362.476,586.692,358.471,587.624,357.168Z" transform="translate(-533.143 -345.423)"/>
        <path id="Path_3393" data-name="Path 3393" class="cls-9" d="M599.881,347.607a4.36,4.36,0,0,1,3.632-2.515,8.371,8.371,0,0,1,9.034,5.495,4.572,4.572,0,0,1-.559,4.377,4.8,4.8,0,0,1-4.377,1.024C604.351,355.337,598.3,351.984,599.881,347.607Z" transform="translate(-534.132 -344.989)"/>
        <path id="Path_3394" data-name="Path 3394" class="cls-15" d="M605.994,376.479c-.559-3.26,1.956-6.333,3.446-5.588a2.024,2.024,0,0,1,.652,2.049,18.66,18.66,0,0,1-2.421,8.009c-.559-1.3-1.118-2.608-1.583-3.911" transform="translate(-534.564 -346.761)"/>
        <path id="Path_3395" data-name="Path 3395" class="cls-15" d="M623.192,400.629a19.181,19.181,0,0,0,0,4c1.024,12.945,2.794,25.89,7.357,38.09a11.921,11.921,0,0,0,1.956,3.725,3.693,3.693,0,0,0,6.612-1.3,12.069,12.069,0,0,0,.466-4.1,125.334,125.334,0,0,0-5.029-35.3c-.838-2.7-1.863-5.495-4-7.264a5.8,5.8,0,0,0-4.843-1.4C624.216,397.463,623.471,399.232,623.192,400.629Z" transform="translate(-535.744 -348.56)"/>
        <path id="Path_3396" data-name="Path 3396" class="cls-15" d="M579.051,409.842a11.58,11.58,0,0,0-.931,2.887c-2.328,9.779-4.191,19.837-3.725,29.895a7.107,7.107,0,0,0,.559,3.166,3.059,3.059,0,0,0,2.421,1.956,3.239,3.239,0,0,0,2.794-1.3,8.117,8.117,0,0,0,1.3-2.887,97.614,97.614,0,0,0,4.75-27.287c.093-2.142,0-4.47-1.211-6.333a4.794,4.794,0,0,0-3.26-2.235C580.541,407.7,579.61,408.818,579.051,409.842Z" transform="translate(-532.393 -349.298)"/>
        <path id="Path_3397" data-name="Path 3397" class="cls-24" d="M620.772,420.649c5.122.466,10.151-.559,15.18-1.49-.093-2.235-.186-4.377-.466-6.612a21.608,21.608,0,0,0-.466-3.539c-.093-.466-.093-.931-.186-1.3h-.093a23.134,23.134,0,0,0-4.656-8.847c-5.867-4.377-12.852-6.519-20.116-7.357-3.073,7.543-7.637,13.783-12.2,20.582.279-.372-3.073-6.147-3.353-6.892-1.024-2.421-1.676-4.936-2.608-7.357a9.552,9.552,0,0,1-.559-2.98s-7.357,2.608-9.5,4.191a16.6,16.6,0,0,0-5.588,8.754c0,.093-.093.279-.093.372.093.093-1.769,7.357-1.769,10.989a2.358,2.358,0,0,0,.559,1.956.091.091,0,0,1,.093.093,3.876,3.876,0,0,0,2.887.931c5.215.186,4,.093,5.495.279a.84.84,0,0,1,.093-.466c.093-.093.186-.093.186-.186.373,1.024.745,2.049,1.118,3.166a5.38,5.38,0,0,0,.652,1.3,46.5,46.5,0,0,1,.373,26.449c12.014,1.211,36.041-.745,36.041-.745l1.676-.745a9.275,9.275,0,0,0-1.676-3.073c-1.769-1.769-2.142-4.47-2.235-6.985a142.5,142.5,0,0,1,.931-23.562C620.585,419.159,620.772,420.649,620.772,420.649Z" transform="translate(-532.392 -348.185)"/>
        <path id="Path_3398" data-name="Path 3398" class="cls-4" d="M581.682,410.2c-.652,3.725-1.211,7.357-1.583,11.176a3.346,3.346,0,0,0,.186,1.676c.466.838,3.632.931,3.632.931s-.838-2.794-1.024-3.818A93.733,93.733,0,0,1,581.682,410.2Z" transform="translate(-532.789 -349.47)"/>
        <path id="Path_3399" data-name="Path 3399" class="cls-4" d="M592.631,426.532c6.8.186,13.5-.652,20.209-1.4a12.785,12.785,0,0,1-7.73,3.632c-2.608.279-5.308-.279-7.916.093-2.142.279-4.284,1.118-6.426,1.118a7.438,7.438,0,0,1-5.215-2.421c-.931-1.024-2.421-3.26-1.863-4.656C585.833,425.88,588.441,426.439,592.631,426.532Z" transform="translate(-533.029 -350.342)"/>
        <path id="Path_3400" data-name="Path 3400" class="cls-4" d="M623.863,421.132c-.745-5.308-1.583-10.524-2.328-15.832a80.892,80.892,0,0,1-.466,19.557c-.652,4.47-1.676,8.94-1.769,13.5s.745,9.313,3.632,12.852a3.985,3.985,0,0,0,1.49,1.3,1.855,1.855,0,0,0,1.956-.186c-2.515-2.142-2.887-5.774-3.073-9.034-.373-8.009,0-16.018.279-23.934" transform="translate(-535.483 -349.133)"/>
        <path id="Path_3401" data-name="Path 3401" class="cls-25" d="M620.53,444.1c5.029,10.9,9.686,22.165,10.9,34.178,1.3,12.759-1.4,25.611-4,38.183-.559,2.7-1.118,3.911-4.191,4.936a25.489,25.489,0,0,1-10.617,1.3c-1.49-8.475-5.495-16.2-8.661-24.12a120.06,120.06,0,0,1-7.916-53.084c0,.093-6.985.093-7.637.093,5.122.373,10.71-.466,15.925-.745C609.82,444.566,615.128,444.379,620.53,444.1Z" transform="translate(-533.361 -351.799)"/>
        <path id="Path_3402" data-name="Path 3402" class="cls-25" d="M591.209,523.548a94.093,94.093,0,0,0,15.366.186c2.328-5.774,2.608-12.293,1.956-18.533s-2.328-12.293-3.725-18.347a302.823,302.823,0,0,1-6.705-40.791c0-.093-8.94-.745-9.685-.373-.931.559-1.211,2.328-1.49,3.166a83.976,83.976,0,0,0-3.725,24.493C583.013,490.394,587.111,506.971,591.209,523.548Z" transform="translate(-533.003 -351.9)"/>
        <path id="Path_3403" data-name="Path 3403" class="cls-2" d="M639.944,603.534a8.162,8.162,0,0,0-1.956-3.632,33.784,33.784,0,0,1-6.892-17.6c-1.956.652-3.539.093-5.495.186a35.343,35.343,0,0,1-.559,6.985c-.559,2.98-1.211,5.495-.372,8.382a5.984,5.984,0,0,1,.931,1.211c2.7,2.608,3.446,4.1,4.936,7.543a12.141,12.141,0,0,0,1.4.931,6.477,6.477,0,0,0,5.4.466A4.517,4.517,0,0,0,639.944,603.534Z" transform="translate(-535.825 -361.294)"/>
        <path id="Path_3404" data-name="Path 3404" class="cls-2" d="M597.027,594.53c-1.956,2.515-4.563,4.47-5.96,7.264-.559,1.118-.745,2.794.373,3.353a2.694,2.694,0,0,0,2.235-.093,63.362,63.362,0,0,0,12.759-5.867,4.4,4.4,0,0,0,2.328-2.514,5.663,5.663,0,0,0-.093-1.769c-.838-3.911-1.676-7.916-2.514-11.828-.093-.652-4-.186-4.47-.093-1.676.466-1.024,1.583-1.211,3.073A17.107,17.107,0,0,1,597.027,594.53Z" transform="translate(-533.513 -361.324)"/>
        <path id="Path_3405" data-name="Path 3405" class="cls-25" d="M615.747,534.539c.652,3.353,1.3,6.612,1.956,9.965,3.446,17.415,5.588,26.914,5.867,37.065.466.093.838.093,1.3.186a27,27,0,0,1,4.75.093c.931-.093,1.863-.093,2.794-.186-1.956-15.273,3.073-30.267.652-45.261a92.263,92.263,0,0,0-4.191-14.808,8.8,8.8,0,0,0-2.142-4,6.071,6.071,0,0,0-4-1.49c-4.284-.186-9.406,4.1-9.034,8.661C614.164,528.113,615.189,531.373,615.747,534.539Z" transform="translate(-535.097 -356.745)"/>
        <path id="Path_3406" data-name="Path 3406" class="cls-25" d="M599.4,581.935c2.7.093,5.308.186,8.009.279.559-12.2,4.563-24.307,2.887-36.414-.652-4.563-2.049-8.94-2.887-13.5-.838-4.47-1.118-9.313.466-13.6-.279.745-6.985.652-7.916.652-1.4,0-2.7,0-4.1-.093-.931-.093-2.794-.652-3.632-.279-1.49.745-.745,5.215-.652,6.612a80.248,80.248,0,0,0,1.024,8.1C593.815,541.051,597.634,557.162,599.4,581.935Z" transform="translate(-533.561 -356.924)"/>
        <path id="Path_3407" data-name="Path 3407" class="cls-15" d="M560.126,445.424c-5.215,2.421-10.337,5.681-16.111,6.053-2.98.186-6.146-.372-9.033.373,1.956.652,3.911,1.211,5.867,1.863a15.762,15.762,0,0,1-9.034,3.539c-.931.093-2.142.186-2.514,1.024a10.79,10.79,0,0,0,9.127,2.515c2.515-.559,4.75-1.956,7.078-3.166,8.009-3.911,17.229-4.191,25.8-6.426a13.21,13.21,0,0,0,4.47-1.769,5.4,5.4,0,0,0,2.421-3.911c.373-6.426-10.244-3.073-13.411-2.049C563.2,444.12,561.616,444.679,560.126,445.424Z" transform="translate(-529.3 -351.632)"/>
        <path id="Path_3408" data-name="Path 3408" class="cls-26" d="M600.617,466c0,3.446,1.024,6.985,1.676,10.337.559,3.073.838,6.053,1.4,9.034,1.49,8.009,5.029,15.739,6.147,23.748.466,3.26.559,5.96-.559,8.94.093-3.26-1.583-7.078-2.608-10.151-1.211-3.353-2.608-6.519-3.632-9.872A74.573,74.573,0,0,1,599.5,476.8C599.407,473.264,600.71,469.539,600.617,466Z" transform="translate(-534.123 -353.303)"/>
        <path id="Path_3409" data-name="Path 3409" class="cls-26" d="M607.1,530.2c-3.26,2.608.186,9.034,1.118,12.014a62.358,62.358,0,0,1,2.049,12.479,26.22,26.22,0,0,1,.186,6.612c0-1.769.745-3.632,1.024-5.4a25.4,25.4,0,0,0,.186-5.96c-.466-4.656-1.863-9.127-3.073-13.69C607.937,534.112,607.751,531.783,607.1,530.2Z" transform="translate(-534.551 -357.714)"/>
        <path id="Path_3410" data-name="Path 3410" class="cls-26" d="M629.973,521.9c-4.563,2.142,1.3,12.107,2.049,15.273a53.989,53.989,0,0,1,1.49,14.994c-.093,2.608,0,5.308,0,7.916a68.24,68.24,0,0,0-.838-31.571C632.022,526.463,631.37,523.669,629.973,521.9Z" transform="translate(-536.099 -357.144)"/>
        <path id="Path_3411" data-name="Path 3411" class="cls-27" d="M595.934,445.7c-.652,2.608-2.794,20.116,3.353,18.16" transform="translate(-533.817 -351.909)"/>
        <path id="Path_3412" data-name="Path 3412" class="cls-27" d="M610.2,445.5a10.5,10.5,0,0,0,.279,2.328,14.16,14.16,0,0,0,1.676,4.284,20.993,20.993,0,0,0,5.681,7.078c2.235,1.769,6.426,5.029,9.313,3.446" transform="translate(-534.857 -351.89)"/>
        <path id="Path_3413" data-name="Path 3413" class="cls-27" d="M592.73,446.7c0,4-1.863,8.754-3.446,12.386-.838,1.956-2.049,4.656-4.284,5.029" transform="translate(-533.127 -351.977)"/>
        <path id="Path_3414" data-name="Path 3414" class="cls-27" d="M599.056,447.573c-1.024-1.4-2.98,1.583-1.3,2.328,1.676.838,2.98-1.583,1.3-2.7" transform="translate(-533.958 -352.012)"/>
        <path id="Path_3415" data-name="Path 3415" class="cls-21" d="M613.342,447.062c-6.612,2.98-12.945,7.171-20.209,7.637-3.818.279-7.637-.559-11.362.466,2.421.745,4.843,1.583,7.264,2.328a20.006,20.006,0,0,1-11.269,4.47c-1.211.093-2.7.186-3.166,1.3a13.553,13.553,0,0,0,11.455,3.166c3.166-.652,5.96-2.515,8.94-3.911,9.965-4.936,21.606-5.308,32.409-8.009a17.161,17.161,0,0,0,5.588-2.235,6.481,6.481,0,0,0,3.073-4.936c.559-8.1-12.852-3.911-16.763-2.608A46.469,46.469,0,0,0,613.342,447.062Z" transform="translate(-532.412 -351.688)"/>
      </g>
      <g id="Group_1253" data-name="Group 1253" transform="translate(487.439 374.215)">
        <path id="Path_3416" data-name="Path 3416" class="cls-22" d="M530.4,409.905l10.337-6.147h0c4.563-2.887,10.9-2.608,17.974,1.49,13.783,7.916,24.959,27.287,24.959,43.212,0,7.637-2.608,13.131-6.8,15.832h0l-.186.093c-.186.093-.466.279-.652.373l-10.058,5.867-3.446-5.96A27.767,27.767,0,0,1,558.8,462.8c-13.783-7.916-24.959-27.287-24.959-43.212,0-1.211.093-2.328.186-3.446Z" transform="translate(-523.881 -401.842)"/>
        <path id="Path_3417" data-name="Path 3417" class="cls-4" d="M523.4,425.885c0,15.925,11.175,35.2,24.959,43.212,13.783,7.916,24.959,1.49,24.959-14.435s-11.176-35.2-24.959-43.212C534.576,403.534,523.4,409.96,523.4,425.885Z" transform="translate(-523.4 -402.27)"/>
        <path id="Path_3418" data-name="Path 3418" class="cls-28" d="M543.9,453.8" transform="translate(-524.808 -405.412)"/>
        <path id="Path_3419" data-name="Path 3419" class="cls-28" d="M554.9,429.7" transform="translate(-525.564 -403.756)"/>
        <path id="Path_3420" data-name="Path 3420" class="cls-28" d="M560.2,461.9" transform="translate(-525.928 -405.969)"/>
        <path id="Path_3421" data-name="Path 3421" class="cls-28" d="M537.9,423.3" transform="translate(-524.396 -403.316)"/>
      </g>
      <path id="Path_3422" data-name="Path 3422" class="cls-15" d="M613.342,447.062c-6.612,2.98-12.945,7.171-20.209,7.637-3.818.279-7.637-.559-11.362.466,2.421.745,4.843,1.583,7.264,2.328a20.006,20.006,0,0,1-11.269,4.47c-1.211.093-2.7.186-3.166,1.3a13.553,13.553,0,0,0,11.455,3.166c3.166-.652,5.96-2.515,8.94-3.911,9.965-4.936,21.606-5.308,32.409-8.009a17.161,17.161,0,0,0,5.588-2.235,6.481,6.481,0,0,0,3.073-4.936c.559-8.1-12.852-3.911-16.763-2.608A46.469,46.469,0,0,0,613.342,447.062Z" transform="translate(-39.478 -30.419)"/>
      <g id="Group_1255" data-name="Group 1255" transform="translate(135.503 52.973)">
        <path id="Path_3423" data-name="Path 3423" class="cls-4" d="M230.037,213.27,146.5,165.029V99l83.537,48.334Z" transform="translate(-145.569 -59.793)"/>
        <path id="Path_3424" data-name="Path 3424" class="cls-29" d="M229.13,213.977,145.5,165.736V99.8l83.63,48.241Z" transform="translate(-145.5 -59.847)"/>
        <path id="Path_3425" data-name="Path 3425" class="cls-4" d="M230.037,146.133,146.5,97.892v-4c0-1.583.652-2.794,1.769-3.073L188.315,78.8l40.046,58.206a9.443,9.443,0,0,1,1.769,5.122v4Z" transform="translate(-145.569 -58.405)"/>
        <path id="Path_3426" data-name="Path 3426" class="cls-29" d="M229.13,146.839,145.5,98.6V94.687c0-1.583.652-2.794,1.769-3.073L187.315,79.6l40.046,58.206a9.443,9.443,0,0,1,1.769,5.122v3.911Z" transform="translate(-145.5 -58.46)"/>
        <path id="Path_3427" data-name="Path 3427" class="cls-21" d="M153.3,56.9l69.1,39.953v91.36l-69.1-39.859Z" transform="translate(-146.036 -56.9)"/>
        <path id="Path_3428" data-name="Path 3428" class="cls-4" d="M150.784,167.45l-4.284-2.514V99l43.119,54.574c2.235,2.887,2.421,6.705.186,7.171l-34.365,7.73A6.513,6.513,0,0,1,150.784,167.45Z" transform="translate(-145.569 -59.793)"/>
        <path id="Path_3429" data-name="Path 3429" class="cls-4" d="M228.6,214.321l4.284,2.514V150.9l-43.119,4.75c-2.235.279-2.421,3.911-.186,6.892l34.365,47.4A15.773,15.773,0,0,0,228.6,214.321Z" transform="translate(-148.42 -63.358)"/>
        <path id="Path_3430" data-name="Path 3430" class="cls-4" d="M146.431,98.911,145.5,97.7v4l1.4.466Z" transform="translate(-145.5 -59.703)"/>
        <path id="Path_3431" data-name="Path 3431" class="cls-30" d="M149.784,168.25l-4.284-2.514V99.8l43.119,54.574c2.235,2.887,2.421,6.705.186,7.171l-34.365,7.73A7.018,7.018,0,0,1,149.784,168.25Z" transform="translate(-145.5 -59.847)"/>
        <path id="Path_3432" data-name="Path 3432" class="cls-30" d="M227.7,215.121l4.284,2.514V151.7l-43.119,4.75c-2.235.279-2.421,3.911-.186,6.892l34.365,47.4A14.808,14.808,0,0,0,227.7,215.121Z" transform="translate(-148.358 -63.413)"/>
        <path id="Path_3433" data-name="Path 3433" class="cls-17" d="M229.137,217.5,145.6,169.258v-3.911c0-1.583.652-2.794,1.769-3.073l36.972-11.082c1.769-.559,4.284.931,6.053,3.446l36.972,53.829a9.443,9.443,0,0,1,1.769,5.122V217.5Z" transform="translate(-145.507 -63.37)"/>
        <g id="Group_1254" data-name="Group 1254" transform="translate(26.262 33.608)">
          <path id="Path_3434" data-name="Path 3434" class="cls-29" d="M195.585,119.727c-.093,1.4.652,2.98,2.142,2.235,1.211-.559,1.583-2.328,1.583-4.191.093-6.519-4.1-14.063-10.058-17.508-6.053-3.446-10.8.093-10.8,7.171,0,7.264,4.936,15.925,11.548,19.743a18.646,18.646,0,0,0,7.823,2.514c1.118.093,2.235,1.4,2.7,3.073.466,1.863.373,3.073-1.024,3.073a22.63,22.63,0,0,1-9.5-3.073c-8.754-5.029-16.3-17.229-16.3-28.032,0-9.685,6.612-14.9,15.646-9.685,7.823,4.563,14.714,15.646,14.528,25.145,0,3.353-1.118,6.705-3.539,7.637-1.3.559-3.166.093-4.936-.931a7.927,7.927,0,0,1-3.166-4.284c-1.118.838-2.794.745-4.47-.186-3.818-2.142-6.519-7.078-6.612-11.641-.093-5.588,2.7-9.592,8.661-6.24l3.539,2.049c2.608,1.49,3.166,3.539,2.887,6.426Zm-4.191-8.754a1.011,1.011,0,0,0-.373-.838L190,109.483c-2.049-1.211-3.26-.093-3.632,1.863-.279,1.49-.279,4.377,1.863,5.588,2.235,1.3,2.887-1.3,2.98-3.26Z" transform="translate(-173.7 -92.987)"/>
        </g>
      </g>
      <g id="Group_1256" data-name="Group 1256" transform="translate(88.845 512.38)">
        <path id="Path_3435" data-name="Path 3435" class="cls-31" d="M198.96,583.655v3.073H191.7a20.276,20.276,0,0,0-4.377-6.147l5.122-2.98c2.142-1.211,2.98-2.887,2.7-4.47v-8.475h-9.22v2.98a14.111,14.111,0,0,0-8.009,1.583l-5.122,2.98a63.132,63.132,0,0,0-10.617-2.514v-4.191c0-2.98-4.284-5.495-9.5-5.495h-1.583c-5.215,0-9.5,2.421-9.5,5.495v4.191a65.356,65.356,0,0,0-10.617,2.514l-5.122-2.98a14.694,14.694,0,0,0-12.945-.186v-4.377h-4.284v8.568h0c-.279,1.583.652,3.166,2.7,4.377l5.122,2.98a20.276,20.276,0,0,0-4.377,6.147H104.9a17.139,17.139,0,0,0-3.818.466v-3.725H95.4v9.313h0v.279c0,2.98,4.284,5.495,9.5,5.495h7.171a20.276,20.276,0,0,0,4.377,6.146l-2.142,1.211v-3.539h-5.681v9.779h.093a5.219,5.219,0,0,0,2.7,3.26l1.118.652a14.8,14.8,0,0,0,13.411,0l5.122-2.98a63.133,63.133,0,0,0,10.617,2.515v4.191c0,2.98,4.284,5.495,9.5,5.495h1.583c5.215,0,9.5-2.421,9.5-5.495V615.6a65.356,65.356,0,0,0,10.617-2.515l5.122,2.98a14.8,14.8,0,0,0,13.411,0l1.118-.652c2.142-1.211,2.98-2.887,2.7-4.47v-7.823H188.9a19.167,19.167,0,0,0,2.98-4.563h7.171c5.122,0,9.22-2.328,9.5-5.215h0v-9.779H198.96Zm-32.6,9.127c0,2.049-1.4,4.1-4.1,5.681l-.186.093a20.338,20.338,0,0,1-9.872,2.328h-.373a21.158,21.158,0,0,1-9.872-2.328l-.186-.093c-2.7-1.583-4.1-3.632-4.1-5.681V592.6c0-2.049,1.4-4.1,4.1-5.681l.186-.093a20.337,20.337,0,0,1,9.872-2.328h.279a21.158,21.158,0,0,1,9.872,2.328l.186.093c2.7,1.583,4.1,3.632,4.1,5.681C166.365,592.6,166.365,592.688,166.365,592.782Z" transform="translate(-95.4 -550.873)"/>
        <path id="Path_3436" data-name="Path 3436" class="cls-21" d="M192.441,597.975,187.319,595a20.275,20.275,0,0,0,4.377-6.147h7.171c5.215,0,9.5-2.421,9.5-5.495v-.931c0-2.98-4.284-5.495-9.5-5.495H191.7a20.276,20.276,0,0,0-4.377-6.146l5.122-2.98c3.725-2.142,3.725-5.588,0-7.73l-1.118-.652a14.8,14.8,0,0,0-13.411,0l-5.122,2.98a63.133,63.133,0,0,0-10.617-2.514h0v-4.191c0-2.98-4.284-5.495-9.5-5.495h-1.583c-5.215,0-9.5,2.421-9.5,5.495v4.191a65.356,65.356,0,0,0-10.617,2.514l-5.122-2.98a14.8,14.8,0,0,0-13.411,0l-1.118.652c-3.725,2.142-3.725,5.588,0,7.73l5.122,2.98a20.276,20.276,0,0,0-4.377,6.146H104.9c-5.215,0-9.5,2.421-9.5,5.495v.931c0,2.98,4.284,5.495,9.5,5.495h7.171A20.275,20.275,0,0,0,116.447,595l-5.122,2.98c-3.725,2.142-3.725,5.588,0,7.73l1.118.652a14.8,14.8,0,0,0,13.411,0l5.122-2.98a63.12,63.12,0,0,0,10.617,2.515h0v4.191c0,2.98,4.284,5.495,9.5,5.495h1.583c5.215,0,9.5-2.421,9.5-5.495v-4.191a65.35,65.35,0,0,0,10.617-2.515l5.122,2.98a14.8,14.8,0,0,0,13.411,0l1.118-.652C196.073,603.563,196.073,600.117,192.441,597.975Zm-40.6-6.705a21.158,21.158,0,0,1-9.872-2.328l-.186-.093c-2.7-1.583-4.1-3.632-4.1-5.681v-.186c0-2.049,1.4-4.1,4.1-5.681l.186-.093a20.337,20.337,0,0,1,9.872-2.328h.279a21.158,21.158,0,0,1,9.872,2.328l.186.093c2.7,1.583,4.1,3.632,4.1,5.681v.186c0,2.049-1.4,4.1-4.1,5.681l-.186.093a20.337,20.337,0,0,1-9.872,2.328Z" transform="translate(-95.4 -550.2)"/>
      </g>
      <g id="Group_1257" data-name="Group 1257" transform="translate(0 15.907)">
        <circle id="Ellipse_161" data-name="Ellipse 161" class="cls-4" cx="13.783" cy="13.783" r="13.783" transform="translate(534.935 54.294)"/>
        <circle id="Ellipse_162" data-name="Ellipse 162" class="cls-4" cx="6.053" cy="6.053" r="6.053" transform="translate(608.694 280.599)"/>
        <circle id="Ellipse_163" data-name="Ellipse 163" class="cls-4" cx="23.096" cy="23.096" r="23.096" transform="translate(21.885 105.795)"/>
        <circle id="Ellipse_164" data-name="Ellipse 164" class="cls-4" cx="12.107" cy="12.107" r="12.107" transform="translate(1.304 219.506)"/>
        <circle id="Ellipse_165" data-name="Ellipse 165" class="cls-4" cx="13.969" cy="13.969" r="13.969" transform="translate(159.158 418.524)"/>
        <circle id="Ellipse_166" data-name="Ellipse 166" class="cls-4" cx="6.053" cy="6.053" r="6.053" transform="translate(366.93 581.686)"/>
        <circle id="Ellipse_167" data-name="Ellipse 167" class="cls-4" cx="7.264" cy="7.264" r="7.264" transform="translate(204.605 8.568)"/>
        <circle id="Ellipse_168" data-name="Ellipse 168" class="cls-4" cx="4.843" cy="4.843" r="4.843" transform="translate(456.893)"/>
        <circle id="Ellipse_169" data-name="Ellipse 169" class="cls-4" cx="20.675" cy="20.675" r="20.675" transform="translate(596.494 108.216)"/>
        <circle id="Ellipse_170" data-name="Ellipse 170" class="cls-4" cx="4.843" cy="4.843" r="4.843" transform="translate(647.622 471.514)"/>
        <circle id="Ellipse_171" data-name="Ellipse 171" class="cls-4" cx="3.632" cy="3.632" r="3.632" transform="translate(0 383.973)"/>
        <circle id="Ellipse_172" data-name="Ellipse 172" class="cls-4" cx="3.632" cy="3.632" r="3.632" transform="translate(652.465 221.182)"/>
      </g>
    </g>
    <path id="Path_3437" data-name="Path 3437" class="cls-23" d="M556.446,431l-7.823,29.336-7.823-13.6" transform="translate(-37.156 -29.611)"/>
  </g>
</svg>
