<svg xmlns="http://www.w3.org/2000/svg" viewBox="-2142.687 6558 2226.43 1341.708">
  <defs>
    <style>
      .cls-1 {
        fill: #14213d;
      }
    </style>
  </defs>
  <path id="Subtraction_30" data-name="Subtraction 30" class="cls-1" d="M-6751.852,1341.707h-.061c-30.267,0-60.863-.515-90.938-1.527-28.76-.968-57.807-2.418-86.333-4.31-53.062-3.519-106.271-8.694-158.151-15.38a2329.923,2329.923,0,0,1-253.374-46.666c-31.725-7.74-62.826-16.125-92.439-24.922-23.692-7.038-46.487-14.352-67.75-21.74-36.18-12.57-55.679-21.125-55.872-21.21l-23.029,16.3,5.114-554.773c-.046-.162-4.7-16.561-9.7-43.147-2.959-15.735-5.484-31.992-7.5-48.32-2.524-20.405-4.263-40.983-5.167-61.161-2.3-51.351.723-100.43,8.989-145.873,2.388-13.13,5.254-26.132,8.518-38.646,3.434-13.163,7.4-26.143,11.8-38.581,4.608-13.043,9.809-25.844,15.459-38.049a407.368,407.368,0,0,1,19.508-37.048c6.535-10.98,13.65-21.7,21.149-31.85a377.825,377.825,0,0,1,24.957-30.347,379.759,379.759,0,0,1,29.038-28.511A394.081,394.081,0,0,1-7424.246,99.6a422.5,422.5,0,0,1,38.021-23.841A467.322,467.322,0,0,1-7343.3,54.758c15.3-6.553,31.48-12.555,48.1-17.838,17.071-5.427,35.088-10.251,53.551-14.338,17.65-3.906,36.2-7.349,55.124-10.232,18.459-2.812,37.813-5.173,57.526-7.018,19.189-1.8,39.274-3.154,59.7-4.038C-7049.458.435-7028.719,0-7007.661,0c26.974,0,55.417.714,84.542,2.122,27.79,1.343,57.082,3.361,87.061,6,28.409,2.5,58.372,5.633,89.055,9.318,28.79,3.457,59.247,7.523,90.525,12.085C-6601.1,37.6-6541.124,47.5-6473.116,59.78c62.836,11.351,125.065,23.381,182.952,34.689,14.814,2.894,29.809,5.832,44.31,8.674l1.066.209h.007c224.578,44.014,436.7,85.587,598.23,85.587,15.316,0,30.177-.38,44.168-1.131,14.368-.77,28.271-1.955,41.326-3.522a86.2,86.2,0,0,1,10.22-.621,78.009,78.009,0,0,1,16.986,1.852A77.889,77.889,0,0,1-5517.866,191a89.2,89.2,0,0,1,15.009,8.982,113.042,113.042,0,0,1,14.056,12.371,163.4,163.4,0,0,1,19.214,24.444,260.789,260.789,0,0,1,17.231,31.3c5.349,11.379,10.506,24.087,15.327,37.771,4.734,13.437,9.276,28.189,13.5,43.848,4.146,15.369,8.1,32.036,11.751,49.536,3.582,17.166,6.974,35.614,10.08,54.832,6.031,37.308,11.232,79.025,15.46,123.993,4.054,43.128,7.322,90.4,9.712,140.491,2.286,47.912,3.829,99.679,4.588,153.866.724,51.654.754,106.87.09,164.115-.631,54.342-1.9,111.956-3.787,171.24a141.349,141.349,0,0,0-15.291-11.459,118.11,118.11,0,0,0-16-8.687,105.035,105.035,0,0,0-16.726-5.811,101.189,101.189,0,0,0-17.462-2.829c-27.942-2.045-56.011-3.082-83.427-3.082-17.624,0-35.531.427-53.223,1.27-16.986.809-34.383,2.031-51.708,3.631-32.263,2.98-65.281,7.321-100.942,13.272-30.521,5.092-62.644,11.287-101.094,19.494-34.181,7.3-68.764,15.2-105.378,23.567l-.007,0c-41.675,9.524-84.768,19.373-130.953,29.159-52.356,11.093-100.81,20.406-148.129,28.471-27.419,4.673-55.154,9.039-82.435,12.977-29.379,4.241-59.337,8.145-89.045,11.6-31.626,3.683-64.068,6.991-96.426,9.832-34.162,3-69.347,5.575-104.578,7.658-27.675,1.636-55.675,2.873-83.223,3.677C-6698.336,1341.313-6725.31,1341.707-6751.852,1341.707Z" transform="translate(5455.113 6558)"/>
</svg>
