<svg xmlns="http://www.w3.org/2000/svg" viewBox="-883 5793 186.7 111.4">
  <defs>
    <style>
      .cls-1 {
        fill: #4885fa;
      }

      .cls-2 {
        fill: #e0e2ee;
      }

      .cls-3 {
        fill: #14213d;
      }
    </style>
  </defs>
  <g id="Group_1027" data-name="Group 1027" transform="translate(-883 5793)">
    <path id="Path_2804" data-name="Path 2804" class="cls-1" d="M0,0V111.4H170.3V0ZM16.2,7.6a3.009,3.009,0,0,1-3-3,3.076,3.076,0,0,1,3-3,3,3,0,0,1,0,6Zm23.4,0a3.009,3.009,0,0,1-3-3,3.076,3.076,0,0,1,3-3,3,3,0,0,1,0,6Zm21.7,0a3.009,3.009,0,0,1-3-3,3.076,3.076,0,0,1,3-3,3.009,3.009,0,0,1,3,3A3.076,3.076,0,0,1,61.3,7.6Zm23.4,0a3.009,3.009,0,0,1-3-3,3.076,3.076,0,0,1,3-3,3,3,0,0,1,0,6Zm22.8,0a3.009,3.009,0,0,1-3-3,3.076,3.076,0,0,1,3-3,3,3,0,0,1,0,6Zm23.4,0a3.009,3.009,0,0,1-3-3,3.076,3.076,0,0,1,3-3,3,3,0,0,1,0,6Zm22.5,0a3.009,3.009,0,0,1-3-3,3.076,3.076,0,0,1,3-3,3.009,3.009,0,0,1,3,3A3.076,3.076,0,0,1,153.4,7.6Z"/>
    <g id="Group_1026" data-name="Group 1026">
      <g id="Group_997" data-name="Group 997">
        <g id="Group_990" data-name="Group 990">
          <rect id="Rectangle_291" data-name="Rectangle 291" class="cls-2" width="18.1" height="13.7" transform="translate(7.9 13.7)"/>
        </g>
        <g id="Group_991" data-name="Group 991">
          <rect id="Rectangle_292" data-name="Rectangle 292" class="cls-2" width="18.1" height="13.7" transform="translate(30.6 13.7)"/>
        </g>
        <g id="Group_992" data-name="Group 992">
          <rect id="Rectangle_293" data-name="Rectangle 293" class="cls-2" width="18.1" height="13.7" transform="translate(53.3 13.7)"/>
        </g>
        <g id="Group_993" data-name="Group 993">
          <rect id="Rectangle_294" data-name="Rectangle 294" class="cls-2" width="18.1" height="13.7" transform="translate(76.1 13.7)"/>
        </g>
        <g id="Group_994" data-name="Group 994">
          <rect id="Rectangle_295" data-name="Rectangle 295" class="cls-2" width="18.1" height="13.7" transform="translate(98.8 13.7)"/>
        </g>
        <g id="Group_995" data-name="Group 995">
          <rect id="Rectangle_296" data-name="Rectangle 296" class="cls-2" width="18.1" height="13.7" transform="translate(121.6 13.7)"/>
        </g>
        <g id="Group_996" data-name="Group 996">
          <rect id="Rectangle_297" data-name="Rectangle 297" class="cls-2" width="18.1" height="13.7" transform="translate(144.3 13.7)"/>
        </g>
      </g>
      <g id="Group_1005" data-name="Group 1005">
        <g id="Group_998" data-name="Group 998">
          <path id="Path_2805" data-name="Path 2805" class="cls-2" d="M25.2,34V46.2H8.6V34H25.2m.8-.7H7.9V47H26V33.3Z"/>
        </g>
        <g id="Group_999" data-name="Group 999">
          <path id="Path_2806" data-name="Path 2806" class="cls-2" d="M48,34V46.2H31.3V34H48m.7-.7H30.6V47H48.7V33.3Z"/>
        </g>
        <g id="Group_1000" data-name="Group 1000">
          <path id="Path_2807" data-name="Path 2807" class="cls-2" d="M70.7,34V46.2H54.1V34H70.7m.7-.7H53.3V47H71.4V33.3Z"/>
        </g>
        <g id="Group_1001" data-name="Group 1001">
          <path id="Path_2808" data-name="Path 2808" class="cls-2" d="M93.4,34V46.2H76.8V34H93.4m.8-.7H76.1V47H94.2V33.3Z"/>
        </g>
        <g id="Group_1002" data-name="Group 1002">
          <path id="Path_2809" data-name="Path 2809" class="cls-2" d="M116.2,34V46.2H99.6V34h16.6m.7-.7H98.8V47h18.1V33.3Z"/>
        </g>
        <g id="Group_1003" data-name="Group 1003">
          <path id="Path_2810" data-name="Path 2810" class="cls-2" d="M138.9,34V46.2H122.3V34h16.6m.8-.7H121.6V47h18.1V33.3Z"/>
        </g>
        <g id="Group_1004" data-name="Group 1004">
          <path id="Path_2811" data-name="Path 2811" class="cls-2" d="M161.7,34V46.2H145V34h16.7m.7-.7H144.3V47h18.1V33.3Z"/>
        </g>
      </g>
      <g id="Group_1013" data-name="Group 1013">
        <g id="Group_1006" data-name="Group 1006">
          <path id="Path_2812" data-name="Path 2812" class="cls-2" d="M25.2,53.6V65.8H8.6V53.6H25.2m.8-.7H7.9V66.6H26V52.9Z"/>
        </g>
        <g id="Group_1007" data-name="Group 1007">
          <path id="Path_2813" data-name="Path 2813" class="cls-2" d="M48,53.6V65.8H31.3V53.6H48m.7-.7H30.6V66.6H48.7V52.9Z"/>
        </g>
        <g id="Group_1008" data-name="Group 1008">
          <path id="Path_2814" data-name="Path 2814" class="cls-2" d="M70.7,53.6V65.8H54.1V53.6H70.7m.7-.7H53.3V66.6H71.4V52.9Z"/>
        </g>
        <g id="Group_1009" data-name="Group 1009">
          <path id="Path_2815" data-name="Path 2815" class="cls-2" d="M93.4,53.6V65.8H76.8V53.6H93.4m.8-.7H76.1V66.6H94.2V52.9Z"/>
        </g>
        <g id="Group_1010" data-name="Group 1010">
          <path id="Path_2816" data-name="Path 2816" class="cls-2" d="M116.2,53.6V65.8H99.6V53.6h16.6m.7-.7H98.8V66.6h18.1V52.9Z"/>
        </g>
        <g id="Group_1011" data-name="Group 1011">
          <path id="Path_2817" data-name="Path 2817" class="cls-2" d="M138.9,53.6V65.8H122.3V53.6h16.6m.8-.7H121.6V66.6h18.1V52.9Z"/>
        </g>
        <g id="Group_1012" data-name="Group 1012">
          <path id="Path_2818" data-name="Path 2818" class="cls-2" d="M161.7,53.6V65.8H145V53.6h16.7m.7-.7H144.3V66.6h18.1V52.9Z"/>
        </g>
      </g>
      <g id="Group_1021" data-name="Group 1021">
        <g id="Group_1014" data-name="Group 1014">
          <path id="Path_2819" data-name="Path 2819" class="cls-2" d="M25.2,73.2V85.4H8.6V73.2H25.2m.8-.8H7.9V86.1H26V72.4Z"/>
        </g>
        <g id="Group_1015" data-name="Group 1015">
          <path id="Path_2820" data-name="Path 2820" class="cls-2" d="M48,73.2V85.4H31.3V73.2H48m.7-.8H30.6V86.1H48.7V72.4Z"/>
        </g>
        <g id="Group_1016" data-name="Group 1016">
          <path id="Path_2821" data-name="Path 2821" class="cls-2" d="M70.7,73.2V85.4H54.1V73.2H70.7m.7-.8H53.3V86.1H71.4V72.4Z"/>
        </g>
        <g id="Group_1017" data-name="Group 1017">
          <path id="Path_2822" data-name="Path 2822" class="cls-2" d="M93.4,73.2V85.4H76.8V73.2H93.4m.8-.8H76.1V86.1H94.2V72.4Z"/>
        </g>
        <g id="Group_1018" data-name="Group 1018">
          <path id="Path_2823" data-name="Path 2823" class="cls-2" d="M116.2,73.2V85.4H99.6V73.2h16.6m.7-.8H98.8V86.1h18.1V72.4Z"/>
        </g>
        <g id="Group_1019" data-name="Group 1019">
          <path id="Path_2824" data-name="Path 2824" class="cls-2" d="M138.9,73.2V85.4H122.3V73.2h16.6m.8-.8H121.6V86.1h18.1V72.4Z"/>
        </g>
        <g id="Group_1020" data-name="Group 1020">
          <path id="Path_2825" data-name="Path 2825" class="cls-2" d="M161.7,73.2V85.4H145V73.2h16.7m.7-.8H144.3V86.1h18.1V72.4Z"/>
        </g>
      </g>
      <g id="Group_1022" data-name="Group 1022">
        <path id="Path_2826" data-name="Path 2826" class="cls-2" d="M25.2,92.7V105H8.6V92.7H25.2M26,92H7.9v13.7H26V92Z"/>
      </g>
      <g id="Group_1023" data-name="Group 1023">
        <path id="Path_2827" data-name="Path 2827" class="cls-2" d="M48,92.7V105H31.3V92.7H48m.7-.7H30.6v13.7H48.7V92Z"/>
      </g>
      <g id="Group_1024" data-name="Group 1024">
        <path id="Path_2828" data-name="Path 2828" class="cls-2" d="M70.7,92.7V105H54.1V92.7H70.7m.7-.7H53.3v13.7H71.4V92Z"/>
      </g>
      <g id="Group_1025" data-name="Group 1025">
        <path id="Path_2829" data-name="Path 2829" class="cls-2" d="M93.4,92.7V105H76.8V92.7H93.4m.8-.7H76.1v13.7H94.2V92Z"/>
      </g>
    </g>
    <path id="Path_2830" data-name="Path 2830" class="cls-3" d="M186.7,93.4l-4.2,10.3-4.2-10.3V7.5h8.4Z"/>
  </g>
</svg>
