<svg xmlns="http://www.w3.org/2000/svg" viewBox="-1648 5781 186.4 110">
  <defs>
    <style>
      .cls-1 {
        fill: #14213d;
      }

      .cls-2 {
        fill: #4885fa;
      }

      .cls-3 {
        fill: #e0e2ee;
      }
    </style>
  </defs>
  <g id="Group_989" data-name="Group 989" transform="translate(-1648 5781)">
    <g id="Group_988" data-name="Group 988">
      <g id="Group_984" data-name="Group 984">
        <circle id="Ellipse_126" data-name="Ellipse 126" class="cls-1" cx="15" cy="15" r="15" transform="translate(13.8 28)"/>
        <path id="Path_2796" data-name="Path 2796" class="cls-2" d="M5,66.2a5.015,5.015,0,0,0-5,5H0V110H10.1V71.3h0A5.121,5.121,0,0,0,5,66.2Z"/>
        <path id="Path_2797" data-name="Path 2797" class="cls-1" d="M53.4,97.9H67.6a6.2,6.2,0,0,0,0-12.4H56.2L37.8,65.8l-.2-.2a12.246,12.246,0,0,0-21.3,8.3V74h0v36H40.9V87.1l7.9,8.8A6.127,6.127,0,0,0,53.4,97.9Z"/>
        <circle id="Ellipse_127" data-name="Ellipse 127" class="cls-1" cx="15" cy="15" r="15" transform="translate(142.5 28)"/>
        <path id="Path_2798" data-name="Path 2798" class="cls-1" d="M157.7,61.6a12.013,12.013,0,0,0-8.2,3.2l-.2.2a11.987,11.987,0,0,0-1.1,1.2L130.1,85.7H118.6a6.2,6.2,0,0,0,0,12.4h14.2a6.127,6.127,0,0,0,4.6-2l7.9-8.8V110H170V73.9h0v-.1A12.27,12.27,0,0,0,157.7,61.6Z"/>
        <path id="Path_2799" data-name="Path 2799" class="cls-2" d="M186.3,71.2a5,5,0,0,0-10,0h0V110h10.1V71.2Z"/>
        <path id="Path_2800" data-name="Path 2800" class="cls-2" d="M135.1,101.5H50.9a3.9,3.9,0,0,0-3.9,3.9v4.5h92v-4.5A3.971,3.971,0,0,0,135.1,101.5Z"/>
      </g>
      <path id="Path_2801" data-name="Path 2801" class="cls-2" d="M129.8,19.1c0,4.8-3.2,9.2-8.5,12.6,0,0,3,6,2.7,6.1-.5.2-5.3-4.6-5.8-4.4-6,3-14,4.8-22.7,4.8a56.23,56.23,0,0,1-17-2.5c-1.2-.4-7.5,5.7-8.6,5.3-.9-.4,3.4-7.3,2.6-7.7-6.9-3.5-11.2-8.5-11.2-14.1C61.3,8.5,76.6,0,95.5,0S129.8,8.5,129.8,19.1Z"/>
      <g id="Group_987" data-name="Group 987">
        <g id="Group_985" data-name="Group 985">
          <path id="Path_2802" data-name="Path 2802" class="cls-3" d="M95.5,6.8a12.7,12.7,0,1,0,12.7,12.7A12.718,12.718,0,0,0,95.5,6.8Zm4.6,21a5.457,5.457,0,0,1-3.7,1.5v2.5H95.1V29.3A5.961,5.961,0,0,1,91,27.6a5.539,5.539,0,0,1-1.4-4.1h1.6a4.223,4.223,0,0,0,1.2,3.2,4.459,4.459,0,0,0,3.3,1.2,4.2,4.2,0,0,0,3-1,3.225,3.225,0,0,0,1.2-2.6,3.244,3.244,0,0,0-.9-2.4,9.63,9.63,0,0,0-3.3-1.8,10.113,10.113,0,0,1-4.2-2.2,4.79,4.79,0,0,1-1.2-3.3,4.752,4.752,0,0,1,1.3-3.5,5.4,5.4,0,0,1,3.6-1.5V7h1.3V9.7a5.134,5.134,0,0,1,3.6,1.7,6.48,6.48,0,0,1,1.3,4.1H99.8a4.859,4.859,0,0,0-1.1-3.3A3.7,3.7,0,0,0,95.8,11a3.945,3.945,0,0,0-2.9,1,3.392,3.392,0,0,0-1,2.6,3.04,3.04,0,0,0,1,2.5,9.8,9.8,0,0,0,3.3,1.7,14.008,14.008,0,0,1,3.4,1.5,5.175,5.175,0,0,1,1.6,1.7,5.555,5.555,0,0,1,.5,2.3A5.725,5.725,0,0,1,100.1,27.8Z"/>
        </g>
        <g id="Group_986" data-name="Group 986">
          <path id="Path_2803" data-name="Path 2803" class="cls-3" d="M95.5,5.1a14.4,14.4,0,1,0,14.4,14.4A14.4,14.4,0,0,0,95.5,5.1Zm0,27.6a13.3,13.3,0,1,1,13.3-13.3A13.294,13.294,0,0,1,95.5,32.7Z"/>
        </g>
      </g>
    </g>
  </g>
</svg>
