<svg xmlns="http://www.w3.org/2000/svg" viewBox="-644 1192 250.543 183.6">
  <defs>
    <style>
      .cls-1, .cls-7 {
        fill: #313965;
      }

      .cls-1, .cls-2, .cls-5 {
        fill-rule: evenodd;
      }

      .cls-2, .cls-6 {
        fill: #4885fa;
      }

      .cls-3, .cls-5 {
        fill: #f39200;
      }

      .cls-4 {
        fill: #fff;
      }
    </style>
  </defs>
  <g id="Group_856" data-name="Group 856" transform="translate(-643.957 1192)">
    <path id="Path_2547" data-name="Path 2547" class="cls-1" d="M149.2,52.1c0,2.4-.6,4.1-1.8,5.2a5.339,5.339,0,0,1-3.7,1.6v3.4h-1.9V58.9a5.1,5.1,0,0,1-4-1.9,8.725,8.725,0,0,1-1.7-5.8h3.1c0,2.3.3,3.7,1,4.3a2.633,2.633,0,0,0,1.6.9V47.6c-2.2-1.2-3.6-2.2-4.2-3.2a6.387,6.387,0,0,1-1-3.3,5.9,5.9,0,0,1,1.4-4,5.682,5.682,0,0,1,3.7-1.8V32.7h1.9v2.6a4.458,4.458,0,0,1,3.7,1.8,6.837,6.837,0,0,1,1.4,4.6h-3a4.415,4.415,0,0,0-.7-2.9,2.07,2.07,0,0,0-1.4-.9v7.6a14.585,14.585,0,0,1,3.8,2.7,4.7,4.7,0,0,1,1.8,3.9Zm-7.4-7.9V37.7a2.29,2.29,0,0,0-1.6.7,2.918,2.918,0,0,0-.7,2.2,3.922,3.922,0,0,0,.4,1.8,3.723,3.723,0,0,0,1.9,1.8Zm4.4,8.6a3.612,3.612,0,0,0-.7-2.4,10.183,10.183,0,0,0-1.8-1.8v7.8a4.013,4.013,0,0,0,1.6-.8A3.616,3.616,0,0,0,146.2,52.8Z"/>
    <g id="Group_855" data-name="Group 855">
      <path id="Path_2548" data-name="Path 2548" class="cls-2" d="M96.4,134.2h74.9c2,1,7.8,4.6,7.1,13.6h-87a4.2,4.2,0,0,0,0,8.4H182a4.268,4.268,0,0,0,4.1-3.3c3-13.4-3.5-21.4-9.2-25l12.5-59.3,27.3-11.2a4.15,4.15,0,1,0-3.1-7.7l-29.4,12a4.837,4.837,0,0,0-2.1,1.9H70.5a4.272,4.272,0,0,0-4.4,4.2A4.336,4.336,0,0,0,70.5,72h5.1l16.8,59.3a4.237,4.237,0,0,0,4,2.9Zm72.3-8.3h-7.5l1.1-7.6h8l-1.6,7.6Zm3-14.3h-8.5l1.2-8.6h9.1l-1.8,8.6Zm3.2-15.2h-9.6l1.2-8.6h10.2l-1.8,8.6Zm3.2-15.2H167.5l1.3-9.3h11.3l-2,9.3Zm-16-9.3-1.3,9.3H147l.4-9.3Zm-21.4,0-.4,9.3h-13l-.8-9.3Zm-20.9,0,.8,9.3H107.4L106,71.9Zm-20.5,0,1.4,9.3H86.9l-2.6-9.3Zm14.8,54-1.1-7.6h10.8l.6,7.6ZM112,111.6l-1.3-8.6h11.8l.7,8.6Zm-2.3-15.2-1.3-8.6h12.8l.7,8.6Zm-8-8.6,1.3,8.6H91.2l-2.4-8.6ZM104,103l1.3,8.6H95.5L93.1,103Zm2.2,15.2,1.1,7.6H99.4l-2.2-7.6Zm24.9,7.7-.7-7.6h8.4l-.3,7.6Zm-1.3-14.3-.7-8.6h10.3l-.3,8.6Zm-1.2-15.2-.7-8.6H140l-.3,8.6Zm16.6,29.5.3-7.6h10.1l-1.1,7.6Zm.6-14.3.3-8.6h11.6l-1.2,8.6Zm.6-15.2.3-8.6h13.2l-1.2,8.6Z"/>
      <g id="Group_803" data-name="Group 803">
        <circle id="Ellipse_103" data-name="Ellipse 103" class="cls-3" cx="12.3" cy="12.3" r="12.3" transform="translate(159.1 159)"/>
        <circle id="Ellipse_104" data-name="Ellipse 104" class="cls-4" cx="6.2" cy="6.2" r="6.2" transform="translate(165.2 165.1)"/>
      </g>
      <g id="Group_804" data-name="Group 804">
        <circle id="Ellipse_105" data-name="Ellipse 105" class="cls-3" cx="12.3" cy="12.3" r="12.3" transform="translate(93.4 159)"/>
        <circle id="Ellipse_106" data-name="Ellipse 106" class="cls-4" cx="6.2" cy="6.2" r="6.2" transform="translate(99.5 165.1)"/>
      </g>
      <path id="Path_2549" data-name="Path 2549" class="cls-5" d="M86.7,5.9a14.682,14.682,0,0,1,2.9.5l3.8-3.9,6,3.8-1.9,5.1a14.647,14.647,0,0,1,1.7,2.4h5.4l1.6,6.9L101.3,23a14.682,14.682,0,0,1-.5,2.9l3.9,3.8-3.8,6-5.1-1.9a14.647,14.647,0,0,1-2.4,1.7v5.4l-6.9,1.6-2.3-4.9a14.682,14.682,0,0,1-2.9-.5L77.4,41l-6-3.8,1.9-5.1a14.648,14.648,0,0,1-1.7-2.4H66.2l-1.6-6.9,4.9-2.3a14.682,14.682,0,0,1,.5-2.9l-3.9-3.8,3.8-6L75,9.7A14.647,14.647,0,0,1,77.4,8V2.6L84.3,1l2.4,4.9Zm-4,4h0a12.143,12.143,0,1,0,14.5,9.2A12.112,12.112,0,0,0,82.7,9.9Z"/>
      <path id="Path_2550" data-name="Path 2550" class="cls-1" d="M212.2,115c0,2.4-.6,4.1-1.8,5.2a5.339,5.339,0,0,1-3.7,1.6v3.4h-1.9v-3.4a5.1,5.1,0,0,1-4-1.9,8.725,8.725,0,0,1-1.7-5.8h3.1c0,2.3.3,3.7,1,4.3a2.633,2.633,0,0,0,1.6.9v-8.8c-2.2-1.2-3.6-2.2-4.2-3.2a6.387,6.387,0,0,1-1-3.3,5.9,5.9,0,0,1,1.4-4,5.682,5.682,0,0,1,3.7-1.8V95.6h1.9V98a4.458,4.458,0,0,1,3.7,1.8,6.837,6.837,0,0,1,1.4,4.6h-3a4.415,4.415,0,0,0-.7-2.9,2.07,2.07,0,0,0-1.4-.9v7.6a14.585,14.585,0,0,1,3.8,2.7,5.238,5.238,0,0,1,1.8,4.1Zm-7.4-7.9v-6.5a2.29,2.29,0,0,0-1.6.7,2.918,2.918,0,0,0-.7,2.2,3.922,3.922,0,0,0,.4,1.8,4.163,4.163,0,0,0,1.9,1.8Zm4.4,8.5a3.612,3.612,0,0,0-.7-2.4,10.183,10.183,0,0,0-1.8-1.8v7.8a4.013,4.013,0,0,0,1.6-.8A3.473,3.473,0,0,0,209.2,115.6Z"/>
      <path id="Path_2551" data-name="Path 2551" class="cls-1" d="M60.6,108.5c0,2.4-.6,4.1-1.8,5.2a5.339,5.339,0,0,1-3.7,1.6v3.4H53.2v-3.4a5.1,5.1,0,0,1-4-1.9,8.725,8.725,0,0,1-1.7-5.8h3.1c0,2.3.3,3.7,1,4.3a2.633,2.633,0,0,0,1.6.9V104c-2.2-1.2-3.6-2.2-4.2-3.2a6.387,6.387,0,0,1-1-3.3,5.9,5.9,0,0,1,1.4-4,5.682,5.682,0,0,1,3.7-1.8V89.1H55v2.6a4.458,4.458,0,0,1,3.7,1.8,6.837,6.837,0,0,1,1.4,4.6h-3a4.415,4.415,0,0,0-.7-2.9,2.07,2.07,0,0,0-1.4-.9v7.6a14.585,14.585,0,0,1,3.8,2.7,4.7,4.7,0,0,1,1.8,3.9Zm-7.4-7.9V94.1a2.29,2.29,0,0,0-1.6.7,2.918,2.918,0,0,0-.7,2.2,3.922,3.922,0,0,0,.4,1.8,3.723,3.723,0,0,0,1.9,1.8Zm4.4,8.6a3.612,3.612,0,0,0-.7-2.4,10.183,10.183,0,0,0-1.8-1.8v7.8a4.013,4.013,0,0,0,1.6-.8A3.767,3.767,0,0,0,57.6,109.2Z"/>
      <path id="Path_2552" data-name="Path 2552" class="cls-6" d="M185.6,0c-12.1,0-22,7.8-22,17.3s9.9,17.3,22,17.3a14.084,14.084,0,0,0,2-.1l1.7,4.2a1.057,1.057,0,0,0,.7.6h.2a.779.779,0,0,0,.7-.3l6.3-7c6.5-3.2,10.4-8.7,10.4-14.7C207.6,7.8,197.7,0,185.6,0Zm-8.3,21.7a2.6,2.6,0,1,1,2.6-2.6A2.521,2.521,0,0,1,177.3,21.7Zm8.4,0a2.6,2.6,0,1,1,2.6-2.6A2.647,2.647,0,0,1,185.7,21.7Zm7.9,0a2.6,2.6,0,1,1,2.6-2.6A2.647,2.647,0,0,1,193.6,21.7Z"/>
      <g id="Group_847" data-name="Group 847">
        <g id="Group_807" data-name="Group 807">
          <g id="Group_806" data-name="Group 806">
            <g id="Group_805" data-name="Group 805">
              <rect id="Rectangle_252" data-name="Rectangle 252" class="cls-3" width="4.1" height="19.8" transform="translate(0.039 78.16) rotate(-1.512)"/>
            </g>
          </g>
        </g>
        <g id="Group_810" data-name="Group 810">
          <g id="Group_809" data-name="Group 809">
            <g id="Group_808" data-name="Group 808">
              <rect id="Rectangle_253" data-name="Rectangle 253" class="cls-6" width="4.1" height="18.5" transform="translate(-0.043 78.162) rotate(-1.511)"/>
            </g>
          </g>
        </g>
        <g id="Group_813" data-name="Group 813">
          <g id="Group_812" data-name="Group 812">
            <g id="Group_811" data-name="Group 811">
              <rect id="Rectangle_254" data-name="Rectangle 254" class="cls-3" width="4.1" height="12.6" transform="translate(5.535 85.26) rotate(-1.512)"/>
            </g>
          </g>
        </g>
        <g id="Group_816" data-name="Group 816">
          <g id="Group_815" data-name="Group 815">
            <g id="Group_814" data-name="Group 814">
              <rect id="Rectangle_255" data-name="Rectangle 255" class="cls-3" width="4.1" height="30.3" transform="matrix(1, -0.026, 0.026, 1, 10.403, 67.462)"/>
            </g>
          </g>
        </g>
        <g id="Group_819" data-name="Group 819">
          <g id="Group_818" data-name="Group 818">
            <g id="Group_817" data-name="Group 817">
              <rect id="Rectangle_256" data-name="Rectangle 256" class="cls-3" width="4.1" height="23.6" transform="translate(15.89 73.962) rotate(-1.511)"/>
            </g>
          </g>
        </g>
        <g id="Group_822" data-name="Group 822">
          <g id="Group_821" data-name="Group 821">
            <g id="Group_820" data-name="Group 820">
              <rect id="Rectangle_257" data-name="Rectangle 257" class="cls-3" width="4.1" height="12" transform="translate(21.544 85.461) rotate(-1.511)"/>
            </g>
          </g>
        </g>
        <g id="Group_825" data-name="Group 825">
          <g id="Group_824" data-name="Group 824">
            <g id="Group_823" data-name="Group 823">
              <rect id="Rectangle_258" data-name="Rectangle 258" class="cls-3" width="4.1" height="25.1" transform="translate(26.57 72.161) rotate(-1.512)"/>
            </g>
          </g>
        </g>
        <g id="Group_828" data-name="Group 828">
          <g id="Group_827" data-name="Group 827">
            <g id="Group_826" data-name="Group 826">
              <rect id="Rectangle_259" data-name="Rectangle 259" class="cls-3" width="4.1" height="32.7" transform="translate(31.671 64.463) rotate(-1.511)"/>
            </g>
          </g>
        </g>
        <g id="Group_831" data-name="Group 831">
          <g id="Group_830" data-name="Group 830">
            <g id="Group_829" data-name="Group 829">
              <rect id="Rectangle_260" data-name="Rectangle 260" class="cls-6" width="4.1" height="4.1" transform="translate(5.547 84.958) rotate(-1.511)"/>
            </g>
          </g>
        </g>
        <g id="Group_834" data-name="Group 834">
          <g id="Group_833" data-name="Group 833">
            <g id="Group_832" data-name="Group 832">
              <rect id="Rectangle_261" data-name="Rectangle 261" class="cls-6" width="4.1" height="2.3" transform="translate(10.371 67.458) rotate(-1.511)"/>
            </g>
          </g>
        </g>
        <g id="Group_837" data-name="Group 837">
          <g id="Group_836" data-name="Group 836">
            <g id="Group_835" data-name="Group 835">
              <rect id="Rectangle_262" data-name="Rectangle 262" class="cls-6" width="4.1" height="7.7" transform="translate(15.901 73.959) rotate(-1.511)"/>
            </g>
          </g>
        </g>
        <g id="Group_840" data-name="Group 840">
          <g id="Group_839" data-name="Group 839">
            <g id="Group_838" data-name="Group 838">
              <rect id="Rectangle_263" data-name="Rectangle 263" class="cls-6" width="4.1" height="11.6" transform="translate(21.448 80.259) rotate(-1.511)"/>
            </g>
          </g>
        </g>
        <g id="Group_843" data-name="Group 843">
          <g id="Group_842" data-name="Group 842">
            <g id="Group_841" data-name="Group 841">
              <rect id="Rectangle_264" data-name="Rectangle 264" class="cls-6" width="4.1" height="5.8" transform="translate(26.525 72.159) rotate(-1.512)"/>
            </g>
          </g>
        </g>
        <g id="Group_846" data-name="Group 846">
          <g id="Group_845" data-name="Group 845">
            <g id="Group_844" data-name="Group 844">
              <rect id="Rectangle_265" data-name="Rectangle 265" class="cls-6" width="4.1" height="28.9" transform="matrix(1, -0.026, 0.026, 1, 31.722, 64.461)"/>
            </g>
          </g>
        </g>
      </g>
      <g id="Group_854" data-name="Group 854">
        <g id="Group_848" data-name="Group 848">
          <path id="Path_2553" data-name="Path 2553" class="cls-3" d="M232.8,99.8a17.65,17.65,0,1,1,17.7-17.7A17.733,17.733,0,0,1,232.8,99.8Zm0-32.1a14.4,14.4,0,1,0,14.4,14.4A14.468,14.468,0,0,0,232.8,67.7Z"/>
        </g>
        <g id="Group_849" data-name="Group 849">
          <path id="Path_2554" data-name="Path 2554" class="cls-3" d="M232.8,99.8a17.65,17.65,0,1,1,17.7-17.7A17.733,17.733,0,0,1,232.8,99.8Zm0-31.5a13.8,13.8,0,1,0,13.8,13.8A13.828,13.828,0,0,0,232.8,68.3Z"/>
        </g>
        <g id="Group_850" data-name="Group 850">
          <path id="Path_2555" data-name="Path 2555" class="cls-3" d="M232.8,93.8a11.7,11.7,0,1,1,11.7-11.7A11.715,11.715,0,0,1,232.8,93.8Zm0-21.8a10.1,10.1,0,1,0,10.1,10.1A10.072,10.072,0,0,0,232.8,72Z"/>
        </g>
        <g id="Group_851" data-name="Group 851">
          <path id="Path_2556" data-name="Path 2556" class="cls-3" d="M232.8,89.2a7.1,7.1,0,1,1,7.1-7.1A7.127,7.127,0,0,1,232.8,89.2Zm0-12.6a5.5,5.5,0,1,0,5.5,5.5A5.549,5.549,0,0,0,232.8,76.6Z"/>
        </g>
        <g id="Group_852" data-name="Group 852">
          <circle id="Ellipse_107" data-name="Ellipse 107" class="cls-3" cx="2.2" cy="2.2" r="2.2" transform="translate(230.6 79.9)"/>
        </g>
        <g id="Group_853" data-name="Group 853">
          <path id="Path_2557" data-name="Path 2557" class="cls-6" d="M245.4,66.2l-13,15.5a.529.529,0,0,0,.1.8l13.6-16.3C245.9,65.9,245.6,66,245.4,66.2Z"/>
          <path id="Path_2558" data-name="Path 2558" class="cls-7" d="M246.1,66.1,232.5,82.4a.529.529,0,0,0,.8-.1l13-15.5a.545.545,0,0,0-.2-.7Z"/>
        </g>
        <path id="Path_2559" data-name="Path 2559" class="cls-6" d="M244.5,67.3,241,71.5l-.7-4.8,3.5-4.2Z"/>
        <path id="Path_2560" data-name="Path 2560" class="cls-7" d="M245.4,67.9l-3.5,4.2,4.8-.1,3.5-4.2Z"/>
      </g>
    </g>
  </g>
</svg>
