<svg xmlns="http://www.w3.org/2000/svg" viewBox="-2125.687 2343 2226.442 2618.707">
  <defs>
    <style>
      .cls-1 {
        fill: #f2f7fc;
      }
    </style>
  </defs>
  <path id="Subtraction_29" data-name="Subtraction 29" class="cls-1" d="M-6732.84,2618.707h-.069c-30.271,0-60.868-.514-90.939-1.527-28.758-.968-57.8-2.418-86.333-4.31-53.067-3.52-106.276-8.694-158.151-15.38a2330.035,2330.035,0,0,1-253.375-46.666c-31.737-7.744-62.838-16.129-92.44-24.923-23.688-7.037-46.483-14.351-67.751-21.74-36.42-12.654-55.682-21.126-55.872-21.21l-54.259,66.062,17.345-1881.53c-.046-.161-4.672-16.426-9.7-43.147-2.958-15.731-5.483-31.988-7.5-48.32-2.524-20.407-4.263-40.984-5.167-61.16-2.3-51.352.723-100.431,8.989-145.873,2.39-13.138,5.256-26.14,8.518-38.646,3.436-13.169,7.4-26.149,11.8-38.581,4.607-13.041,9.809-25.843,15.459-38.049a407.2,407.2,0,0,1,19.507-37.049c6.537-10.983,13.653-21.7,21.15-31.85a377.706,377.706,0,0,1,24.957-30.347,379.761,379.761,0,0,1,29.038-28.511A393.869,393.869,0,0,1-7424.246,99.6a422.478,422.478,0,0,1,38.022-23.841A467.478,467.478,0,0,1-7343.3,54.758c15.294-6.552,31.478-12.554,48.1-17.838,17.073-5.428,35.09-10.252,53.551-14.338,17.646-3.906,36.192-7.349,55.124-10.233,18.458-2.812,37.812-5.173,57.525-7.017,19.19-1.8,39.275-3.154,59.7-4.038C-7049.459.435-7028.721,0-7007.662,0c26.965,0,55.409.714,84.542,2.122,27.79,1.343,57.081,3.361,87.061,6,28.4,2.5,58.361,5.632,89.055,9.318,28.8,3.458,59.256,7.525,90.525,12.085,55.369,8.075,115.348,17.973,183.364,30.26,62.852,11.354,125.074,23.382,182.952,34.689,15.552,3.038,31.4,6.145,45.387,8.885,224.577,44.013,436.7,85.586,598.226,85.586,15.319,0,30.18-.38,44.169-1.13,14.367-.77,28.271-1.955,41.326-3.522a86.094,86.094,0,0,1,10.223-.622,77.9,77.9,0,0,1,18.07,2.1,78.549,78.549,0,0,1,16.935,6.208A92.238,92.238,0,0,1-5500,202.149a120.469,120.469,0,0,1,14.751,13.993,176.9,176.9,0,0,1,18.7,25.413,281.048,281.048,0,0,1,16.763,32.083c5.2,11.6,10.218,24.515,14.905,38.372,4.6,13.61,9.019,28.509,13.122,44.282,4.03,15.492,7.871,32.251,11.415,49.812,3.479,17.236,6.771,35.727,9.785,54.962,5.851,37.345,10.891,79.015,14.98,123.855,3.922,43.012,7.074,90.08,9.368,139.9,2.194,47.656,3.662,99.1,4.362,152.9.668,51.3.656,106.1-.036,162.867-.657,53.935-1.945,111.062-3.827,169.794-6.512,203.19-20.332,434.558-41.075,687.676-8.148,99.432-17.4,202.52-27.5,306.4-8.078,83.1-16.711,166.884-25.661,249.029-11.814-.375-23.779-.565-35.562-.565-17.626,0-35.533.427-53.225,1.27-16.99.809-34.388,2.031-51.71,3.631-32.268,2.981-65.288,7.322-100.947,13.272-30.531,5.094-62.656,11.289-101.1,19.495-34.181,7.3-68.765,15.2-105.379,23.566l-.013,0c-41.682,9.526-84.784,19.375-130.957,29.159-52.356,11.093-100.812,20.406-148.133,28.471-27.429,4.674-55.165,9.041-82.437,12.977-29.377,4.24-59.336,8.144-89.045,11.6-31.634,3.684-64.076,6.992-96.426,9.832-34.158,3-69.343,5.576-104.577,7.659-27.677,1.636-55.676,2.873-83.218,3.677C-6679.319,2618.313-6706.291,2618.707-6732.84,2618.707Z" transform="translate(5472.113 2343)"/>
</svg>
