<svg xmlns="http://www.w3.org/2000/svg" viewBox="-1646 1182 207.343 211.8">
  <defs>
    <style>
      .cls-1 {
        fill: #e0e2ee;
      }

      .cls-2 {
        fill: #4885fa;
      }

      .cls-3 {
        fill: #313965;
      }

      .cls-4 {
        fill: #fff;
      }

      .cls-5 {
        fill: #f5b800;
      }

      .cls-6 {
        fill: #ef9a00;
      }

      .cls-7 {
        fill: #d9d1c2;
      }

      .cls-8 {
        fill: #f39200;
      }

      .cls-9 {
        fill: #0082b7;
      }

      .cls-10 {
        opacity: 0.49;
      }

      .cls-11 {
        fill: #065475;
      }

      .cls-12 {
        fill: #09668f;
      }
    </style>
  </defs>
  <g id="Group_798" data-name="Group 798" transform="translate(-1645.957 1182)">
    <g id="Group_796" data-name="Group 796">
      <g id="Group_631" data-name="Group 631">
        <g id="Group_630" data-name="Group 630">
          <path id="Path_2439" data-name="Path 2439" class="cls-1" d="M95.7,116.2c1.6-1.3,7.2-3.4,7.3-9.4-.1-6-5.6-8.2-7.3-9.4-1.6-1.3-7.3-3.7-14.2-12.7-7-9-3.6-25.9-3.6-25.9h56s3.4,16.8-3.6,25.9a47.973,47.973,0,0,1-14.2,12.7c-1.6,1.3-7.2,3.4-7.3,9.4.1,6,5.6,8.2,7.3,9.4,3.1,2.2,7.7,4.7,14.2,12.7,7.2,8.8,3.6,25.9,3.6,25.9h-56s-3.4-16.8,3.6-25.9C88.5,119.9,94.1,117.5,95.7,116.2Z"/>
          <path id="Path_2440" data-name="Path 2440" class="cls-2" d="M109,132.6a3.549,3.549,0,0,1-2.5-3.2c-.4-7.5-.3-24.5,2.7-28.4a14.532,14.532,0,0,1,3.6-3.1c9.3-6.3,16.2-11.9,18.3-19.1H80.3C81.8,85,90.4,93.5,98.9,98a25.833,25.833,0,0,1,3.4,1.9c3.5,2.5,3.6,21.4,3.3,29.4a3.517,3.517,0,0,1-2.6,3.2C92.2,135.4,84,154,84,154h43.7C127.8,154,119.7,135.7,109,132.6Z"/>
          <path id="Path_2441" data-name="Path 2441" class="cls-2" d="M95.7,116.2c1.6-1.3,7.2-3.4,7.3-9.4-.1-6-5.6-8.2-7.3-9.4-1.6-1.3-7.3-3.7-14.2-12.7-7-9-3.6-25.9-3.6-25.9h4.8c-.6,5.9-2.7,17.1,2.7,24.1,7.5,9.7,13.6,12.4,15.3,13.7,1.8,1.4,6,3.7,6.1,10.2-.1,6.5-4.3,8.8-6.1,10.2s-7.8,4-15.3,13.7c-5.4,7-3.3,18.2-2.7,24.1H77.9s-3.4-16.8,3.6-25.9C88.5,119.9,94.1,117.5,95.7,116.2Z"/>
          <path id="Path_2442" data-name="Path 2442" class="cls-3" d="M138.2,158.6a1.793,1.793,0,0,1-1.8,1.8h-61a1.793,1.793,0,0,1-1.8-1.8v-2.8a1.793,1.793,0,0,1,1.8-1.8h61a1.793,1.793,0,0,1,1.8,1.8Z"/>
          <path id="Path_2443" data-name="Path 2443" class="cls-2" d="M134.6,64.2H77.3a40.555,40.555,0,0,1,.7-5.5h56C133.9,58.8,134.3,61,134.6,64.2Z"/>
          <path id="Path_2444" data-name="Path 2444" class="cls-2" d="M77.3,149.3h57.3a40.555,40.555,0,0,1-.7,5.5h-56A51.334,51.334,0,0,1,77.3,149.3Z"/>
          <path id="Path_2445" data-name="Path 2445" class="cls-3" d="M138.2,58.2a1.793,1.793,0,0,1-1.8,1.8h-61a1.793,1.793,0,0,1-1.8-1.8V55.4a1.793,1.793,0,0,1,1.8-1.8h61a1.793,1.793,0,0,1,1.8,1.8Z"/>
        </g>
        <path id="Path_2446" data-name="Path 2446" class="cls-4" d="M132.8,66.4c-.3,7.9-1.2,19.3-18.9,30.1C119.5,91,127.6,85,132.8,66.4Z"/>
        <path id="Path_2447" data-name="Path 2447" class="cls-4" d="M114.7,117.1c8.1,5.2,17.6,13.2,17.8,22.6.1,3.7-3.6,3-3.6-.5C128.8,135.8,126.3,125.2,114.7,117.1Z"/>
      </g>
      <g id="Group_656" data-name="Group 656">
        <g id="Group_633" data-name="Group 633">
          <g id="Group_632" data-name="Group 632">
            <path id="Path_2448" data-name="Path 2448" class="cls-3" d="M64,182.1,50,166.3l-20.4,5.2-6,19.5,34.3,10.7Z"/>
          </g>
        </g>
        <g id="Group_634" data-name="Group 634">
          <path id="Path_2449" data-name="Path 2449" class="cls-5" d="M29.6,171.5l-6,19.5,34.3,10.7Z"/>
        </g>
        <g id="Group_635" data-name="Group 635">
          <path id="Path_2450" data-name="Path 2450" class="cls-5" d="M64,182.1,23.6,191l34.3,10.7Z"/>
        </g>
        <g id="Group_636" data-name="Group 636">
          <path id="Path_2451" data-name="Path 2451" class="cls-6" d="M43.8,186.6,23.6,191l34.3,10.7Z"/>
        </g>
        <g id="Group_637" data-name="Group 637">
          <rect id="Rectangle_216" data-name="Rectangle 216" class="cls-7" width="0.8" height="8.3" transform="translate(39.087 166.114) rotate(-72.832)"/>
        </g>
        <g id="Group_638" data-name="Group 638">
          <rect id="Rectangle_217" data-name="Rectangle 217" class="cls-7" width="0.8" height="20.6" transform="translate(38.558 167.924) rotate(-72.83)"/>
        </g>
        <g id="Group_639" data-name="Group 639">
          <rect id="Rectangle_218" data-name="Rectangle 218" class="cls-7" width="0.8" height="20.6" transform="translate(38.02 169.607) rotate(-72.83)"/>
        </g>
        <g id="Group_640" data-name="Group 640">
          <rect id="Rectangle_219" data-name="Rectangle 219" class="cls-7" width="0.8" height="20.6" transform="translate(37.482 171.29) rotate(-72.83)"/>
        </g>
        <g id="Group_641" data-name="Group 641">
          <rect id="Rectangle_220" data-name="Rectangle 220" class="cls-7" width="0.8" height="20.6" transform="translate(37.01 173.098) rotate(-72.83)"/>
        </g>
        <g id="Group_642" data-name="Group 642">
          <rect id="Rectangle_221" data-name="Rectangle 221" class="cls-7" width="0.8" height="20.6" transform="translate(36.472 174.781) rotate(-72.83)"/>
        </g>
        <g id="Group_643" data-name="Group 643">
          <rect id="Rectangle_222" data-name="Rectangle 222" class="cls-7" width="0.8" height="20.6" transform="translate(35.934 176.464) rotate(-72.83)"/>
        </g>
        <g id="Group_644" data-name="Group 644">
          <path id="Path_2452" data-name="Path 2452" class="cls-1" d="M56.2,192.2l-25.8-8,6.3-20.5a1.959,1.959,0,0,1,2.4-1.3l22.1,6.8a1.959,1.959,0,0,1,1.3,2.4Z"/>
        </g>
        <g id="Group_645" data-name="Group 645">
          <path id="Path_2453" data-name="Path 2453" class="cls-8" d="M29.6,171.5l-6,19.5,34.3,10.7Z"/>
        </g>
        <g id="Group_646" data-name="Group 646">
          <path id="Path_2454" data-name="Path 2454" class="cls-8" d="M64,182.1,23.6,191l34.3,10.7Z"/>
        </g>
        <g id="Group_647" data-name="Group 647">
          <path id="Path_2455" data-name="Path 2455" class="cls-2" d="M43.8,186.6,23.6,191l34.3,10.7Z"/>
        </g>
        <g id="Group_655" data-name="Group 655">
          <g id="Group_648" data-name="Group 648">
            <rect id="Rectangle_223" data-name="Rectangle 223" class="cls-3" width="0.8" height="8.3" transform="translate(39.087 166.114) rotate(-72.832)"/>
          </g>
          <g id="Group_649" data-name="Group 649">
            <rect id="Rectangle_224" data-name="Rectangle 224" class="cls-3" width="0.8" height="20.6" transform="translate(38.558 167.924) rotate(-72.83)"/>
          </g>
          <g id="Group_650" data-name="Group 650">
            <rect id="Rectangle_225" data-name="Rectangle 225" class="cls-3" width="0.8" height="20.6" transform="translate(38.02 169.607) rotate(-72.83)"/>
          </g>
          <g id="Group_651" data-name="Group 651">
            <rect id="Rectangle_226" data-name="Rectangle 226" class="cls-3" width="0.8" height="20.6" transform="translate(37.482 171.29) rotate(-72.83)"/>
          </g>
          <g id="Group_652" data-name="Group 652">
            <rect id="Rectangle_227" data-name="Rectangle 227" class="cls-3" width="0.8" height="20.6" transform="translate(37.01 173.098) rotate(-72.83)"/>
          </g>
          <g id="Group_653" data-name="Group 653">
            <rect id="Rectangle_228" data-name="Rectangle 228" class="cls-3" width="0.8" height="20.6" transform="translate(36.472 174.781) rotate(-72.83)"/>
          </g>
          <g id="Group_654" data-name="Group 654">
            <rect id="Rectangle_229" data-name="Rectangle 229" class="cls-3" width="0.8" height="20.6" transform="translate(35.934 176.464) rotate(-72.83)"/>
          </g>
        </g>
      </g>
      <g id="Group_665" data-name="Group 665">
        <g id="Group_664" data-name="Group 664">
          <g id="Group_663" data-name="Group 663">
            <g id="Group_658" data-name="Group 658">
              <g id="Group_657" data-name="Group 657">
                <path id="Path_2456" data-name="Path 2456" class="cls-2" d="M194.6,105.3,172.3,98a2.7,2.7,0,0,1-1.7-3.3l8.8-27a2.7,2.7,0,0,1,3.3-1.7l22.4,7.3a2.7,2.7,0,0,1,1.7,3.3l-8.8,27A2.686,2.686,0,0,1,194.6,105.3Z"/>
              </g>
            </g>
            <g id="Group_660" data-name="Group 660">
              <g id="Group_659" data-name="Group 659">
                <path id="Path_2457" data-name="Path 2457" class="cls-4" d="M192.3,101.7l-15.9-5.2a2.373,2.373,0,0,1-1.8-2.8l7.5-22.8a2.363,2.363,0,0,1,3.1-1.2l15.9,5.2a2.373,2.373,0,0,1,1.8,2.8l-7.5,22.8A2.453,2.453,0,0,1,192.3,101.7Z"/>
              </g>
            </g>
            <g id="Group_662" data-name="Group 662">
              <g id="Group_661" data-name="Group 661">
                <path id="Path_2458" data-name="Path 2458" class="cls-9" d="M195.9,74.2l-6.3-2.1a.815.815,0,0,1-.5-1.1l.3-.9a.815.815,0,0,1,1.1-.5l6.3,2.1a.815.815,0,0,1,.5,1.1l-.3.9A.948.948,0,0,1,195.9,74.2Z"/>
              </g>
            </g>
          </g>
          <path id="Path_2459" data-name="Path 2459" class="cls-8" d="M195.4,80.7l-9.1-3a.931.931,0,0,1-.6-1.2l.1-.2a.931.931,0,0,1,1.2-.6l9.1,3a.931.931,0,0,1,.6,1.2l-.1.2A.931.931,0,0,1,195.4,80.7Z"/>
          <path id="Path_2460" data-name="Path 2460" class="cls-8" d="M194.2,84.3l-9.1-3a.931.931,0,0,1-.6-1.2l.1-.2a.931.931,0,0,1,1.2-.6l9.1,3a.931.931,0,0,1,.6,1.2l-.1.2A.9.9,0,0,1,194.2,84.3Z"/>
          <path id="Path_2461" data-name="Path 2461" class="cls-8" d="M193,87.9l-9.1-3a.931.931,0,0,1-.6-1.2l.1-.2a.931.931,0,0,1,1.2-.6l9.1,3a.931.931,0,0,1,.6,1.2l-.1.2A.9.9,0,0,1,193,87.9Z"/>
          <path id="Path_2462" data-name="Path 2462" class="cls-8" d="M191.8,91.5l-9.1-3a.931.931,0,0,1-.6-1.2l.1-.2a.931.931,0,0,1,1.2-.6l9.1,3a.931.931,0,0,1,.6,1.2l-.1.2A.9.9,0,0,1,191.8,91.5Z"/>
          <path id="Path_2463" data-name="Path 2463" class="cls-8" d="M190.6,95.4l-9.1-3a.931.931,0,0,1-.6-1.2l.1-.2a.931.931,0,0,1,1.2-.6l9.1,3a.931.931,0,0,1,.6,1.2l-.1.2A1.072,1.072,0,0,1,190.6,95.4Z"/>
        </g>
      </g>
      <g id="Group_718" data-name="Group 718">
        <g id="Group_717" data-name="Group 717">
          <g id="Group_708" data-name="Group 708">
            <g id="Group_670" data-name="Group 670">
              <g id="Group_667" data-name="Group 667">
                <g id="Group_666" data-name="Group 666">
                  <path id="Path_2464" data-name="Path 2464" class="cls-8" d="M200.7,130.1l-3.2,18.6a2.933,2.933,0,0,1-3.5,2.2l-21.2-3.7a2.969,2.969,0,0,1-2.5-3.3l3.2-18.6a2.933,2.933,0,0,1,3.5-2.2l21.2,3.7A2.947,2.947,0,0,1,200.7,130.1Z"/>
                </g>
              </g>
              <g id="Group_669" data-name="Group 669">
                <g id="Group_668" data-name="Group 668">
                  <path id="Path_2465" data-name="Path 2465" class="cls-2" d="M200.9,129.4l-1.2,6.6-27.2-4.7,1.2-6.6c.2-1.1,1.7-1.8,3.3-1.5l21.2,3.7C199.9,127.2,201.1,128.3,200.9,129.4Z"/>
                </g>
              </g>
            </g>
            <g id="Group_707" data-name="Group 707">
              <g id="Group_672" data-name="Group 672">
                <g id="Group_671" data-name="Group 671">
                  <path id="Path_2466" data-name="Path 2466" class="cls-4" d="M176.8,138l-2.2-.4c-.2,0-.3-.2-.3-.4l.3-1.5c0-.2.2-.3.4-.3l2.2.4c.2,0,.3.2.3.4l-.3,1.5C177.1,137.9,177,138,176.8,138Z"/>
                </g>
              </g>
              <g id="Group_674" data-name="Group 674">
                <g id="Group_673" data-name="Group 673">
                  <path id="Path_2467" data-name="Path 2467" class="cls-4" d="M180.6,138.6l-2.2-.4c-.2,0-.3-.2-.3-.4l.3-1.5c0-.2.2-.3.4-.3l2.2.4c.2,0,.3.2.3.4l-.3,1.5C181,138.5,180.8,138.7,180.6,138.6Z"/>
                </g>
              </g>
              <g id="Group_676" data-name="Group 676">
                <g id="Group_675" data-name="Group 675">
                  <path id="Path_2468" data-name="Path 2468" class="cls-4" d="M184.5,139.3l-2.2-.4c-.2,0-.3-.2-.3-.4l.3-1.5c0-.2.2-.3.4-.3l2.2.4c.2,0,.3.2.3.4l-.3,1.5C184.8,139.2,184.7,139.3,184.5,139.3Z"/>
                </g>
              </g>
              <g id="Group_678" data-name="Group 678">
                <g id="Group_677" data-name="Group 677">
                  <path id="Path_2469" data-name="Path 2469" class="cls-4" d="M188.3,140l-2.2-.4c-.2,0-.3-.2-.3-.4l.3-1.5c0-.2.2-.3.4-.3l2.2.4c.2,0,.3.2.3.4l-.3,1.5C188.7,139.9,188.5,140,188.3,140Z"/>
                </g>
              </g>
              <g id="Group_680" data-name="Group 680">
                <g id="Group_679" data-name="Group 679">
                  <path id="Path_2470" data-name="Path 2470" class="cls-4" d="M192,140.6l-2.2-.4c-.2,0-.3-.2-.3-.4l.3-1.5c0-.2.2-.3.4-.3l2.2.4c.2,0,.3.2.3.4l-.3,1.5C192.4,140.5,192.2,140.6,192,140.6Z"/>
                </g>
              </g>
              <g id="Group_682" data-name="Group 682">
                <g id="Group_681" data-name="Group 681">
                  <path id="Path_2471" data-name="Path 2471" class="cls-4" d="M195.7,141.3l-2.2-.4c-.2,0-.3-.2-.3-.4l.3-1.5c0-.2.2-.3.4-.3l2.2.4c.2,0,.3.2.3.4l-.3,1.5C196.1,141.2,195.9,141.3,195.7,141.3Z"/>
                </g>
              </g>
              <g id="Group_684" data-name="Group 684">
                <g id="Group_683" data-name="Group 683">
                  <path id="Path_2472" data-name="Path 2472" class="cls-4" d="M176.2,141.4,174,141c-.2,0-.3-.2-.3-.4l.3-1.5c0-.2.2-.3.4-.3l2.2.4c.2,0,.3.2.3.4l-.3,1.5C176.5,141.3,176.4,141.5,176.2,141.4Z"/>
                </g>
              </g>
              <g id="Group_686" data-name="Group 686">
                <g id="Group_685" data-name="Group 685">
                  <path id="Path_2473" data-name="Path 2473" class="cls-4" d="M180,142.1l-2.2-.4c-.2,0-.3-.2-.3-.4l.3-1.5c0-.2.2-.3.4-.3l2.2.4c.2,0,.3.2.3.4l-.3,1.5C180.4,142,180.2,142.1,180,142.1Z"/>
                </g>
              </g>
              <g id="Group_688" data-name="Group 688">
                <g id="Group_687" data-name="Group 687">
                  <path id="Path_2474" data-name="Path 2474" class="cls-4" d="M183.9,142.8l-2.2-.4c-.2,0-.3-.2-.3-.4l.3-1.5c0-.2.2-.3.4-.3l2.2.4c.2,0,.3.2.3.4l-.3,1.5C184.2,142.7,184.1,142.8,183.9,142.8Z"/>
                </g>
              </g>
              <g id="Group_690" data-name="Group 690">
                <g id="Group_689" data-name="Group 689">
                  <path id="Path_2475" data-name="Path 2475" class="cls-4" d="M187.7,143.4l-2.2-.4c-.2,0-.3-.2-.3-.4l.3-1.5c0-.2.2-.3.4-.3l2.2.4c.2,0,.3.2.3.4l-.3,1.5C188.1,143.4,187.9,143.5,187.7,143.4Z"/>
                </g>
              </g>
              <g id="Group_692" data-name="Group 692">
                <g id="Group_691" data-name="Group 691">
                  <path id="Path_2476" data-name="Path 2476" class="cls-4" d="M191.4,144.1l-2.2-.4c-.2,0-.3-.2-.3-.4l.3-1.5c0-.2.2-.3.4-.3l2.2.4c.2,0,.3.2.3.4l-.3,1.5C191.8,144,191.6,144.1,191.4,144.1Z"/>
                </g>
              </g>
              <g id="Group_694" data-name="Group 694">
                <g id="Group_693" data-name="Group 693">
                  <path id="Path_2477" data-name="Path 2477" class="cls-4" d="M195.1,144.7l-2.2-.4c-.2,0-.3-.2-.3-.4l.3-1.5c0-.2.2-.3.4-.3l2.2.4c.2,0,.3.2.3.4l-.3,1.5C195.5,144.6,195.3,144.8,195.1,144.7Z"/>
                </g>
              </g>
              <g id="Group_696" data-name="Group 696">
                <g id="Group_695" data-name="Group 695">
                  <path id="Path_2478" data-name="Path 2478" class="cls-4" d="M175.6,144.9l-2.2-.4c-.2,0-.3-.2-.3-.4l.3-1.5c0-.2.2-.3.4-.3l2.2.4c.2,0,.3.2.3.4l-.3,1.5C175.9,144.8,175.8,144.9,175.6,144.9Z"/>
                </g>
              </g>
              <g id="Group_698" data-name="Group 698">
                <g id="Group_697" data-name="Group 697">
                  <path id="Path_2479" data-name="Path 2479" class="cls-4" d="M179.4,145.6l-2.2-.4c-.2,0-.3-.2-.3-.4l.3-1.5c0-.2.2-.3.4-.3l2.2.4c.2,0,.3.2.3.4l-.3,1.5C179.8,145.5,179.6,145.6,179.4,145.6Z"/>
                </g>
              </g>
              <g id="Group_700" data-name="Group 700">
                <g id="Group_699" data-name="Group 699">
                  <path id="Path_2480" data-name="Path 2480" class="cls-4" d="M183.3,146.3l-2.2-.4c-.2,0-.3-.2-.3-.4l.3-1.5c0-.2.2-.3.4-.3l2.2.4c.2,0,.3.2.3.4l-.3,1.5A.536.536,0,0,1,183.3,146.3Z"/>
                </g>
              </g>
              <g id="Group_702" data-name="Group 702">
                <g id="Group_701" data-name="Group 701">
                  <path id="Path_2481" data-name="Path 2481" class="cls-4" d="M187.1,146.9l-2.2-.4c-.2,0-.3-.2-.3-.4l.3-1.5c0-.2.2-.3.4-.3l2.2.4c.2,0,.3.2.3.4l-.3,1.5C187.5,146.8,187.3,147,187.1,146.9Z"/>
                </g>
              </g>
              <g id="Group_704" data-name="Group 704">
                <g id="Group_703" data-name="Group 703">
                  <path id="Path_2482" data-name="Path 2482" class="cls-4" d="M190.8,147.6l-2.2-.4c-.2,0-.3-.2-.3-.4l.3-1.5c0-.2.2-.3.4-.3l2.2.4c.2,0,.3.2.3.4l-.3,1.5C191.2,147.5,191,147.6,190.8,147.6Z"/>
                </g>
              </g>
              <g id="Group_706" data-name="Group 706">
                <g id="Group_705" data-name="Group 705">
                  <path id="Path_2483" data-name="Path 2483" class="cls-4" d="M194.5,148.2l-2.2-.4c-.2,0-.3-.2-.3-.4l.3-1.5c0-.2.2-.3.4-.3l2.2.4c.2,0,.3.2.3.4l-.3,1.5C194.9,148.1,194.7,148.2,194.5,148.2Z"/>
                </g>
              </g>
            </g>
          </g>
          <g id="Group_716" data-name="Group 716">
            <g id="Group_715" data-name="Group 715">
              <g id="Group_710" data-name="Group 710">
                <g id="Group_709" data-name="Group 709">
                  <path id="Path_2484" data-name="Path 2484" class="cls-3" d="M178,127.8h0a1.48,1.48,0,0,1-1.2-1.7l.7-4.2a1.48,1.48,0,0,1,1.7-1.2h0a1.48,1.48,0,0,1,1.2,1.7l-.7,4.2A1.48,1.48,0,0,1,178,127.8Z"/>
                </g>
              </g>
              <g id="Group_712" data-name="Group 712">
                <g id="Group_711" data-name="Group 711">
                  <path id="Path_2485" data-name="Path 2485" class="cls-3" d="M186.9,129.4h0a1.48,1.48,0,0,1-1.2-1.7l.7-4.2a1.48,1.48,0,0,1,1.7-1.2h0a1.48,1.48,0,0,1,1.2,1.7l-.7,4.2A1.48,1.48,0,0,1,186.9,129.4Z"/>
                </g>
              </g>
              <g id="Group_714" data-name="Group 714">
                <g id="Group_713" data-name="Group 713">
                  <path id="Path_2486" data-name="Path 2486" class="cls-3" d="M195.8,130.9h0a1.48,1.48,0,0,1-1.2-1.7l.7-4.2a1.48,1.48,0,0,1,1.7-1.2h0a1.48,1.48,0,0,1,1.2,1.7l-.7,4.2A1.48,1.48,0,0,1,195.8,130.9Z"/>
                </g>
              </g>
            </g>
          </g>
        </g>
      </g>
      <g id="Group_761" data-name="Group 761">
        <g id="Group_721" data-name="Group 721">
          <g id="Group_720" data-name="Group 720">
            <g id="Group_719" data-name="Group 719">
              <rect id="Rectangle_230" data-name="Rectangle 230" class="cls-8" width="3.1" height="15.2" transform="matrix(0.884, -0.467, 0.467, 0.884, 38.719, 28.825)"/>
            </g>
          </g>
        </g>
        <g id="Group_724" data-name="Group 724">
          <g id="Group_723" data-name="Group 723">
            <g id="Group_722" data-name="Group 722">
              <rect id="Rectangle_231" data-name="Rectangle 231" class="cls-2" width="3.1" height="14.2" transform="matrix(0.884, -0.467, 0.467, 0.884, 38.765, 28.848)"/>
            </g>
          </g>
        </g>
        <g id="Group_727" data-name="Group 727">
          <g id="Group_726" data-name="Group 726">
            <g id="Group_725" data-name="Group 725">
              <rect id="Rectangle_232" data-name="Rectangle 232" class="cls-8" width="3.1" height="9.6" transform="matrix(0.884, -0.467, 0.467, 0.884, 44.952, 31.901)"/>
            </g>
          </g>
        </g>
        <g id="Group_730" data-name="Group 730">
          <g id="Group_729" data-name="Group 729">
            <g id="Group_728" data-name="Group 728">
              <rect id="Rectangle_233" data-name="Rectangle 233" class="cls-8" width="3.1" height="23.2" transform="matrix(0.884, -0.467, 0.467, 0.884, 42.271, 17.961)"/>
            </g>
          </g>
        </g>
        <g id="Group_733" data-name="Group 733">
          <g id="Group_732" data-name="Group 732">
            <g id="Group_731" data-name="Group 731">
              <rect id="Rectangle_234" data-name="Rectangle 234" class="cls-8" width="3.1" height="18.1" transform="matrix(0.884, -0.467, 0.467, 0.884, 48.265, 20.569)"/>
            </g>
          </g>
        </g>
        <g id="Group_736" data-name="Group 736">
          <g id="Group_735" data-name="Group 735">
            <g id="Group_734" data-name="Group 734">
              <rect id="Rectangle_235" data-name="Rectangle 235" class="cls-8" width="3.1" height="9.2" transform="matrix(0.884, -0.467, 0.467, 0.884, 56.053, 26.549)"/>
            </g>
          </g>
        </g>
        <g id="Group_739" data-name="Group 739">
          <g id="Group_738" data-name="Group 738">
            <g id="Group_737" data-name="Group 737">
              <rect id="Rectangle_236" data-name="Rectangle 236" class="cls-8" width="3.1" height="19.2" transform="matrix(0.884, -0.467, 0.467, 0.884, 54.904, 15.764)"/>
            </g>
          </g>
        </g>
        <g id="Group_742" data-name="Group 742">
          <g id="Group_741" data-name="Group 741">
            <g id="Group_740" data-name="Group 740">
              <rect id="Rectangle_237" data-name="Rectangle 237" class="cls-8" width="3.1" height="25" transform="matrix(0.884, -0.467, 0.467, 0.884, 55.834, 8.682)"/>
            </g>
          </g>
        </g>
        <g id="Group_745" data-name="Group 745">
          <g id="Group_744" data-name="Group 744">
            <g id="Group_743" data-name="Group 743">
              <rect id="Rectangle_238" data-name="Rectangle 238" class="cls-2" width="3.1" height="3.1" transform="matrix(0.884, -0.467, 0.467, 0.884, 44.834, 31.619)"/>
            </g>
          </g>
        </g>
        <g id="Group_748" data-name="Group 748">
          <g id="Group_747" data-name="Group 747">
            <g id="Group_746" data-name="Group 746">
              <rect id="Rectangle_239" data-name="Rectangle 239" class="cls-2" width="3.1" height="1.8" transform="matrix(0.884, -0.467, 0.467, 0.884, 42.25, 17.929)"/>
            </g>
          </g>
        </g>
        <g id="Group_751" data-name="Group 751">
          <g id="Group_750" data-name="Group 750">
            <g id="Group_749" data-name="Group 749">
              <rect id="Rectangle_240" data-name="Rectangle 240" class="cls-2" width="3.1" height="5.9" transform="matrix(0.884, -0.467, 0.467, 0.884, 48.218, 20.586)"/>
            </g>
          </g>
        </g>
        <g id="Group_754" data-name="Group 754">
          <g id="Group_753" data-name="Group 753">
            <g id="Group_752" data-name="Group 752">
              <rect id="Rectangle_241" data-name="Rectangle 241" class="cls-2" width="3.1" height="8.9" transform="matrix(0.884, -0.467, 0.467, 0.884, 54.212, 23.025)"/>
            </g>
          </g>
        </g>
        <g id="Group_757" data-name="Group 757">
          <g id="Group_756" data-name="Group 756">
            <g id="Group_755" data-name="Group 755">
              <rect id="Rectangle_242" data-name="Rectangle 242" class="cls-2" width="3.1" height="4.5" transform="matrix(0.884, -0.467, 0.467, 0.884, 54.922, 15.692)"/>
            </g>
          </g>
        </g>
        <g id="Group_760" data-name="Group 760">
          <g id="Group_759" data-name="Group 759">
            <g id="Group_758" data-name="Group 758">
              <rect id="Rectangle_243" data-name="Rectangle 243" class="cls-2" width="3.1" height="22.1" transform="matrix(0.884, -0.467, 0.467, 0.884, 55.828, 8.72)"/>
            </g>
          </g>
        </g>
      </g>
      <g id="Group_775" data-name="Group 775">
        <g id="Group_773" data-name="Group 773">
          <g id="Group_772" data-name="Group 772">
            <g id="Group_771" data-name="Group 771">
              <g id="Group_764" data-name="Group 764">
                <g id="Group_763" data-name="Group 763">
                  <g id="Group_762" data-name="Group 762">
                    <path id="Path_2487" data-name="Path 2487" class="cls-1" d="M30.6,55.9a11.385,11.385,0,1,0-9.5,16.7c.4,1.7,4.9,5,7.5,3.7,2.6-1.4,1.9-7.5,1.1-8.2A11.245,11.245,0,0,0,30.6,55.9Z"/>
                  </g>
                </g>
              </g>
              <g id="Group_767" data-name="Group 767">
                <g id="Group_766" data-name="Group 766">
                  <g id="Group_765" data-name="Group 765">
                    <path id="Path_2488" data-name="Path 2488" class="cls-9" d="M21.6,73.6l2.3,4.3h0c.9,1.5,3.4,1.7,5.7.4,2.3-1.2,3.6-3.5,2.8-5h0L30.2,69Z"/>
                  </g>
                </g>
              </g>
              <g id="Group_770" data-name="Group 770">
                <g id="Group_769" data-name="Group 769">
                  <g id="Group_768" data-name="Group 768">
                    <rect id="Rectangle_244" data-name="Rectangle 244" class="cls-4" width="9.7" height="0.6" transform="translate(22.213 74.709) rotate(-27.995)"/>
                  </g>
                </g>
              </g>
            </g>
          </g>
        </g>
        <g id="Group_774" data-name="Group 774" class="cls-10">
          <path id="Path_2489" data-name="Path 2489" class="cls-4" d="M13.8,57.7a2.476,2.476,0,0,1-.2,4.8,2.438,2.438,0,0,1-1.2,0,2.476,2.476,0,0,1,.2-4.8A2.437,2.437,0,0,1,13.8,57.7Z"/>
        </g>
      </g>
      <g id="Group_784" data-name="Group 784">
        <g id="Group_777" data-name="Group 777">
          <g id="Group_776" data-name="Group 776">
            <path id="Path_2490" data-name="Path 2490" class="cls-2" d="M39.7,113.9l-11.3,7.7-12-17.8,11.3-7.7a1.068,1.068,0,0,1,1.6.7L30.9,107l8.9,5.2A1.086,1.086,0,0,1,39.7,113.9Z"/>
          </g>
        </g>
        <g id="Group_779" data-name="Group 779">
          <g id="Group_778" data-name="Group 778">
            <path id="Path_2491" data-name="Path 2491" class="cls-11" d="M28.9,116.4l-2.7,1.8,2.2,3.4Z"/>
          </g>
        </g>
        <g id="Group_781" data-name="Group 781">
          <g id="Group_780" data-name="Group 780">
            <path id="Path_2492" data-name="Path 2492" class="cls-8" d="M28.9,116.4,16,125.1,4.1,107.5l12-8.1a.984.984,0,0,1,1.4.3Z"/>
          </g>
        </g>
        <g id="Group_783" data-name="Group 783">
          <g id="Group_782" data-name="Group 782">
            <path id="Path_2493" data-name="Path 2493" class="cls-2" d="M26.7,143.9h0a1.93,1.93,0,0,1-2.7-.5L.3,108.4a1.93,1.93,0,0,1,.5-2.7h0a1.93,1.93,0,0,1,2.7.5l23.7,35A2,2,0,0,1,26.7,143.9Z"/>
          </g>
        </g>
      </g>
      <g id="Group_785" data-name="Group 785">
        <path id="Path_2494" data-name="Path 2494" class="cls-8" d="M163,31.5l-1.8-.2a7.945,7.945,0,0,0-.6-2.2l1.4-1c.1-.1.2-.3.1-.4l-.9-1.7c-.1-.1-.3-.2-.4-.1l-1.6.7a19.2,19.2,0,0,0-1.4-1.5l.8-1.6c.1-.2,0-.3-.1-.4l-1.6-1a.247.247,0,0,0-.4.1l-1.1,1.4a9.006,9.006,0,0,0-2.8-.8l-.2-1.7a.319.319,0,0,0-.3-.3h-1.9a.265.265,0,0,0-.3.3l-.2,1.7a8.648,8.648,0,0,0-2.3.6l-1-1.4c-.1-.1-.3-.2-.4-.1l-1.7.9c-.1.1-.2.3-.1.4l.7,1.6a19.2,19.2,0,0,0-1.5,1.4l-1.6-.8c-.2-.1-.3,0-.4.1l-1,1.6a.247.247,0,0,0,.1.4l1.4,1.1a9.007,9.007,0,0,0-.8,2.8l-1.8.2a.319.319,0,0,0-.3.3v1.9a.265.265,0,0,0,.3.3l1.8.2a7.945,7.945,0,0,0,.6,2.2l-1.5,1c-.1.1-.2.3-.1.4l.9,1.7c.1.1.3.2.4.1L143,39a9.266,9.266,0,0,0,1.4,1.4l-.8,1.6c-.1.2,0,.3.1.4l1.6,1a.247.247,0,0,0,.4-.1l1.1-1.4a9.006,9.006,0,0,0,2.8.8l.2,1.8a.319.319,0,0,0,.3.3H152a.265.265,0,0,0,.3-.3l.2-1.8a7.945,7.945,0,0,0,2.2-.6l1.1,1.5c.1.1.3.2.4.1l1.7-.9c.1-.1.2-.3.1-.4l-.7-1.7a9.266,9.266,0,0,0,1.4-1.4l1.6.8c.2.1.3,0,.4-.1l1-1.6a.247.247,0,0,0-.1-.4l-1.4-1.1a9.239,9.239,0,0,0,.8-2.7l2-.2a.319.319,0,0,0,.3-.3V31.8A.265.265,0,0,0,163,31.5Zm-11.9,7.3a6,6,0,1,1,6-6A5.954,5.954,0,0,1,151.1,38.8Z"/>
        <path id="Path_2495" data-name="Path 2495" class="cls-9" d="M182,28.6l-1.3-.1a10.462,10.462,0,0,0-.4-1.7l1.1-.8a.367.367,0,0,0,.1-.3l-.7-1.3c-.1-.1-.2-.2-.3-.1l-1.2.5a10.949,10.949,0,0,0-1-1.1l.6-1.2a.192.192,0,0,0-.1-.3l-1.2-.8a.192.192,0,0,0-.3.1l-.8,1a8.3,8.3,0,0,0-2.1-.6l-.1-1.3a.215.215,0,0,0-.2-.2h-1.4a.215.215,0,0,0-.2.2l-.1,1.3a4.8,4.8,0,0,0-1.7.5l-.8-1.1a.367.367,0,0,0-.3-.1l-1.3.7c-.1.1-.2.2-.1.3l.5,1.2a5.731,5.731,0,0,0-1.1,1.1l-1.2-.6a.192.192,0,0,0-.3.1l-.8,1.2a.192.192,0,0,0,.1.3l1,.8a8.3,8.3,0,0,0-.6,2.1l-1.3.1a.215.215,0,0,0-.2.2v1.4a.215.215,0,0,0,.2.2l1.3.1a10.462,10.462,0,0,0,.4,1.7l-1.1.8a.367.367,0,0,0-.1.3l.7,1.3c.1.1.2.2.3.1l1.3-.5a10.948,10.948,0,0,0,1,1.1l-.6,1.2a.192.192,0,0,0,.1.3l1.2.8a.192.192,0,0,0,.3-.1l.9-1.1a8.3,8.3,0,0,0,2.1.6l.1,1.4a.215.215,0,0,0,.2.2H174a.215.215,0,0,0,.2-.2l.1-1.4a8.469,8.469,0,0,0,1.7-.4l.8,1.1a.367.367,0,0,0,.3.1l1.3-.7c.1-.1.2-.2.1-.3l-.5-1.3a10.95,10.95,0,0,0,1.1-1l1.2.6a.192.192,0,0,0,.3-.1l.8-1.2a.192.192,0,0,0-.1-.3l-1.1-.9a7.274,7.274,0,0,0,.6-2.1l1.3-.1a.215.215,0,0,0,.2-.2V28.7C182.2,28.8,182.1,28.7,182,28.6Zm-8.3,5.5a4.6,4.6,0,0,1-5.3-5.3,4.458,4.458,0,0,1,3.7-3.7,4.6,4.6,0,0,1,5.3,5.3A4.458,4.458,0,0,1,173.7,34.1Z"/>
        <path id="Path_2496" data-name="Path 2496" class="cls-2" d="M174.4,45l-1-.1-.3-1.2.8-.6a.31.31,0,0,0,.1-.2l-.5-.9c0-.1-.1-.1-.2-.1l-.9.4a3.043,3.043,0,0,0-.8-.8l.4-.9c0-.1,0-.2-.1-.2l-.9-.6a.139.139,0,0,0-.2,0l-.6.8a7.494,7.494,0,0,0-1.6-.5l-.1-1a.215.215,0,0,0-.2-.2h-1.1a.215.215,0,0,0-.2.2l-.1,1c-.4.1-.9.2-1.3.3l-.6-.8a.31.31,0,0,0-.2-.1l-.9.5c-.1,0-.1.1-.1.2l.4.9a3.043,3.043,0,0,0-.8.8l-.9-.4c-.1,0-.2,0-.2.1l-.6.9a.139.139,0,0,0,0,.2l.8.6a4.191,4.191,0,0,0-.4,1.5l-1,.1a.215.215,0,0,0-.2.2v1.1a.215.215,0,0,0,.2.2l1,.1.3,1.2-.8.6a.31.31,0,0,0-.1.2l.5.9c0,.1.1.1.2.1l.9-.4a3.043,3.043,0,0,0,.8.8l-.5.9c0,.1,0,.2.1.2l.9.6a.139.139,0,0,0,.2,0l.6-.8a8.8,8.8,0,0,0,1.5.5l.1,1a.215.215,0,0,0,.2.2h1.1a.215.215,0,0,0,.2-.2l.1-1c.4-.1.9-.2,1.2-.3l.6.8a.31.31,0,0,0,.2.1l.9-.5c.1,0,.1-.1.1-.2l-.4-.9a3.043,3.043,0,0,0,.8-.8l.9.4c.1,0,.2,0,.2-.1l.6-.9a.139.139,0,0,0,0-.2l-.8-.6a8.8,8.8,0,0,0,.5-1.5l1-.1a.215.215,0,0,0,.2-.2V45.2C174.6,45.1,174.5,45,174.4,45Zm-6.7,4.1a3.4,3.4,0,1,1,3.4-3.4A3.372,3.372,0,0,1,167.7,49.1Z"/>
      </g>
      <g id="Group_786" data-name="Group 786">
        <path id="Path_2497" data-name="Path 2497" class="cls-8" d="M106.2,15.9,100,4.9a12.62,12.62,0,0,0,6.2,23.6,12.733,12.733,0,0,0,12.1-8.8Z"/>
        <path id="Path_2498" data-name="Path 2498" class="cls-9" d="M106.3,1.2a12.7,12.7,0,0,0-6.2,1.6l6.2,11h.1l5.3-11.5A14.083,14.083,0,0,0,106.3,1.2Z"/>
        <path id="Path_2499" data-name="Path 2499" class="cls-2" d="M120.8,14.9a12.788,12.788,0,0,0-7.3-11.5l-5.3,11.5,12,3.8A12.088,12.088,0,0,0,120.8,14.9Z"/>
      </g>
      <g id="Group_788" data-name="Group 788">
        <path id="Path_2500" data-name="Path 2500" class="cls-2" d="M100.1,203.4a1.793,1.793,0,0,0,1.8,1.8h10.8l6,6.6-.4-6.6h2.2a1.793,1.793,0,0,0,1.8-1.8V190a1.793,1.793,0,0,0-1.8-1.8H101.8A1.793,1.793,0,0,0,100,190v13.4Z"/>
        <path id="Path_2501" data-name="Path 2501" class="cls-12" d="M100.1,190.1v13.5h15.1a1.923,1.923,0,0,0,2-1.9V188.2H102A1.784,1.784,0,0,0,100.1,190.1Z"/>
        <path id="Path_2502" data-name="Path 2502" class="cls-1" d="M114.5,199.9a2.006,2.006,0,0,1-2,2h-13l-6.6,7,.4-7H90.8a2.006,2.006,0,0,1-2-2V185.7a2.006,2.006,0,0,1,2-2h21.6a2.006,2.006,0,0,1,2,2v14.2Z"/>
        <g id="Group_787" data-name="Group 787">
          <circle id="Ellipse_80" data-name="Ellipse 80" class="cls-9" cx="1.5" cy="1.5" r="1.5" transform="translate(95.4 191.3)"/>
          <circle id="Ellipse_81" data-name="Ellipse 81" class="cls-9" cx="1.5" cy="1.5" r="1.5" transform="translate(100.2 191.3)"/>
          <circle id="Ellipse_82" data-name="Ellipse 82" class="cls-9" cx="1.5" cy="1.5" r="1.5" transform="translate(105.1 191.3)"/>
        </g>
      </g>
      <g id="Group_795" data-name="Group 795">
        <g id="Group_789" data-name="Group 789">
          <path id="Path_2503" data-name="Path 2503" class="cls-8" d="M159.5,200a14,14,0,1,1,14-14A14.041,14.041,0,0,1,159.5,200Zm0-25.5a11.4,11.4,0,1,0,11.4,11.4A11.395,11.395,0,0,0,159.5,174.5Z"/>
        </g>
        <g id="Group_790" data-name="Group 790">
          <path id="Path_2504" data-name="Path 2504" class="cls-8" d="M159.5,200a14,14,0,1,1,14-14A14.041,14.041,0,0,1,159.5,200Zm0-25a11,11,0,1,0,11,11A11.032,11.032,0,0,0,159.5,175Z"/>
        </g>
        <g id="Group_791" data-name="Group 791">
          <path id="Path_2505" data-name="Path 2505" class="cls-8" d="M159.5,195.3a9.3,9.3,0,1,1,9.3-9.3A9.347,9.347,0,0,1,159.5,195.3Zm0-17.4a8,8,0,1,0,8,8A8.024,8.024,0,0,0,159.5,177.9Z"/>
        </g>
        <g id="Group_792" data-name="Group 792">
          <path id="Path_2506" data-name="Path 2506" class="cls-8" d="M159.5,191.6a5.6,5.6,0,1,1,5.6-5.6A5.528,5.528,0,0,1,159.5,191.6Zm0-10a4.3,4.3,0,1,0,4.3,4.3A4.268,4.268,0,0,0,159.5,181.6Z"/>
        </g>
        <g id="Group_793" data-name="Group 793">
          <circle id="Ellipse_83" data-name="Ellipse 83" class="cls-8" cx="1.7" cy="1.7" r="1.7" transform="translate(157.8 184.3)"/>
        </g>
        <g id="Group_794" data-name="Group 794">
          <path id="Path_2507" data-name="Path 2507" class="cls-2" d="M169.5,173.3l-10.3,12.3a.377.377,0,0,0,.1.6l10.8-13A.471.471,0,0,0,169.5,173.3Z"/>
          <path id="Path_2508" data-name="Path 2508" class="cls-3" d="M170.1,173.2l-10.8,13a.377.377,0,0,0,.6-.1l10.3-12.3a.482.482,0,0,0-.1-.6Z"/>
        </g>
        <path id="Path_2509" data-name="Path 2509" class="cls-2" d="M168.8,174.2l-2.8,3.3-.6-3.8,2.8-3.3Z"/>
        <path id="Path_2510" data-name="Path 2510" class="cls-3" d="M169.5,174.7l-2.8,3.3,3.9-.1,2.7-3.3Z"/>
      </g>
    </g>
    <g id="Group_797" data-name="Group 797">
      <circle id="Ellipse_84" data-name="Ellipse 84" class="cls-8" cx="0.9" cy="0.9" r="0.9" transform="translate(125.3 29.3)"/>
      <circle id="Ellipse_85" data-name="Ellipse 85" class="cls-8" cx="0.4" cy="0.4" r="0.4" transform="translate(143.8 8.3)"/>
      <circle id="Ellipse_86" data-name="Ellipse 86" class="cls-8" cx="0.7" cy="0.7" r="0.7" transform="translate(71.7 0)"/>
      <circle id="Ellipse_87" data-name="Ellipse 87" class="cls-8" cx="0.9" cy="0.9" r="0.9" transform="translate(40.7 51.8)"/>
      <circle id="Ellipse_88" data-name="Ellipse 88" class="cls-8" cx="1.1" cy="1.1" r="1.1" transform="translate(48.1 127.5)"/>
      <circle id="Ellipse_89" data-name="Ellipse 89" class="cls-8" cx="0.9" cy="0.9" r="0.9" transform="translate(6 80)"/>
      <circle id="Ellipse_90" data-name="Ellipse 90" class="cls-8" cx="1.1" cy="1.1" r="1.1" transform="translate(75.4 185.2)"/>
      <circle id="Ellipse_91" data-name="Ellipse 91" class="cls-8" cx="1.3" cy="1.3" r="1.3" transform="translate(8.2 168.5)"/>
      <circle id="Ellipse_92" data-name="Ellipse 92" class="cls-8" cx="1.3" cy="1.3" r="1.3" transform="translate(171.5 158.1)"/>
      <circle id="Ellipse_93" data-name="Ellipse 93" class="cls-8" cx="0.9" cy="0.9" r="0.9" transform="translate(127.9 209.1)"/>
      <circle id="Ellipse_94" data-name="Ellipse 94" class="cls-8" cx="0.9" cy="0.9" r="0.9" transform="translate(205.5 112.5)"/>
      <circle id="Ellipse_95" data-name="Ellipse 95" class="cls-8" cx="1.1" cy="1.1" r="1.1" transform="translate(191.9 49.7)"/>
    </g>
    <path id="Path_2511" data-name="Path 2511" class="cls-8" d="M82.8,20.4h-1v-1a.5.5,0,0,0-1,0v1h-1a.5.5,0,0,0,0,1h1v1a.5.5,0,1,0,1,0v-1h1a.472.472,0,0,0,.5-.5A.536.536,0,0,0,82.8,20.4Z"/>
    <path id="Path_2512" data-name="Path 2512" class="cls-8" d="M134.9,2.5h-1v-1a.5.5,0,0,0-1,0v1h-1a.472.472,0,0,0-.5.5.472.472,0,0,0,.5.5h1v1a.5.5,0,0,0,1,0v-1h1a.472.472,0,0,0,.5-.5A.536.536,0,0,0,134.9,2.5Z"/>
    <path id="Path_2513" data-name="Path 2513" class="cls-8" d="M167.9,65.9h-1v-1a.5.5,0,0,0-1,0v1h-1a.5.5,0,0,0,0,1h1v1a.5.5,0,0,0,1,0v-1h1a.5.5,0,0,0,0-1Z"/>
    <path id="Path_2514" data-name="Path 2514" class="cls-8" d="M173.3,110.8h-1v-1a.5.5,0,0,0-1,0v1h-1a.5.5,0,0,0,0,1h1v1a.5.5,0,1,0,1,0v-1h1a.5.5,0,0,0,0-1Z"/>
    <path id="Path_2515" data-name="Path 2515" class="cls-8" d="M189.8,167h-1v-1a.5.5,0,0,0-1,0v1h-1a.5.5,0,0,0,0,1h1v1a.5.5,0,0,0,1,0v-1h1a.5.5,0,0,0,0-1Z"/>
    <path id="Path_2516" data-name="Path 2516" class="cls-8" d="M137.1,198.9h-1v-1a.5.5,0,0,0-1,0v1h-1a.5.5,0,0,0,0,1h1v1a.5.5,0,0,0,1,0v-1h1a.472.472,0,0,0,.5-.5A.536.536,0,0,0,137.1,198.9Z"/>
    <path id="Path_2517" data-name="Path 2517" class="cls-8" d="M72.5,207.8h-1v-1a.5.5,0,0,0-1,0v1h-1a.5.5,0,0,0,0,1h1v1a.5.5,0,0,0,1,0v-1h1a.472.472,0,0,0,.5-.5A.536.536,0,0,0,72.5,207.8Z"/>
    <path id="Path_2518" data-name="Path 2518" class="cls-8" d="M6.1,147.3h-1v-1a.472.472,0,0,0-.5-.5.472.472,0,0,0-.5.5v1H3a.5.5,0,0,0,0,1H4v1a.472.472,0,0,0,.5.5.472.472,0,0,0,.5-.5v-1H6a.472.472,0,0,0,.5-.5C6.7,147.5,6.4,147.3,6.1,147.3Z"/>
    <path id="Path_2519" data-name="Path 2519" class="cls-8" d="M39.8,86.4h-1v-1a.5.5,0,0,0-1,0v1h-1a.5.5,0,0,0,0,1h1v1a.5.5,0,0,0,1,0v-1h1a.5.5,0,0,0,0-1Z"/>
    <path id="Path_2520" data-name="Path 2520" class="cls-8" d="M27.3,32.9h-1v-1a.5.5,0,0,0-1,0v1h-1a.5.5,0,0,0,0,1h1v1a.5.5,0,0,0,1,0v-1h1a.5.5,0,1,0,0-1Z"/>
  </g>
</svg>
