<svg xmlns="http://www.w3.org/2000/svg" xmlns:xlink="http://www.w3.org/1999/xlink" viewBox="-883 5450 186.41 111.1">
  <defs>
    <style>
      .cls-1 {
        fill: #14213d;
      }

      .cls-2 {
        fill: url(#linear-gradient);
      }

      .cls-3, .cls-4 {
        fill: none;
        stroke: #e0e2ee;
        stroke-miterlimit: 10;
      }

      .cls-3 {
        stroke-width: 0.25px;
      }

      .cls-4 {
        stroke-width: 0.941px;
      }
    </style>
    <linearGradient id="linear-gradient" x1="0.006" y1="0.5" x2="1.004" y2="0.5" gradientUnits="objectBoundingBox">
      <stop offset="0" stop-color="#ff931f"/>
      <stop offset="1" stop-color="#ff931f"/>
    </linearGradient>
  </defs>
  <g id="Group_979" data-name="Group 979" transform="translate(-882.99 5450.004)">
    <path id="Path_2838" data-name="Path 2838" class="cls-1" d="M0,0H111.1V169.9H0Z" transform="translate(169.89 -0.005) rotate(90)"/>
    <path id="Path_2790" data-name="Path 2790" class="cls-2" d="M186.4,90.4l-4.3,10.5-4.3-10.5V3.5h8.6Z"/>
    <g id="Group_978" data-name="Group 978">
      <path id="Path_2791" data-name="Path 2791" class="cls-3" d="M118.4,92.4a5.418,5.418,0,0,0,4.5,4.4c2.2.3,7-1,7.2.4s1.2,3.1,2.6,2.8a2.589,2.589,0,0,0,1.1-.7c1.7-1.6,2.9-4.2,5.3-4.3,2.5-.1,4,2.7,5.8,4.4a1.235,1.235,0,0,0,.8.4,1.382,1.382,0,0,0,.9-.5c1.2-1.1,5.2-1.3,6.2-.1,1.2-3.3-1.2-6.8-3.5-9.5a3.007,3.007,0,0,0-1.4-1.1c-.9-.3-1.9.4-2.6,1.1-2.6,2.6-4.8,8.3-6,7.7-1.1-.6-2.3-1.6-2.2-2.9a6.289,6.289,0,0,1,1.3-2.4,1.956,1.956,0,0,0,0-2.5,1.431,1.431,0,0,0-1.1-.3,4.249,4.249,0,0,0-3.5,2.3,7.653,7.653,0,0,0-.7,4.2c0,.4.1.8-.2,1-.3.3-.7.2-1.1.1-.6-.1-1.2-.3-1.8-.4a6.437,6.437,0,0,1-2.7-1.1,2.1,2.1,0,0,1-.8-2.6c.4-.9,1.4-1.2,2.3-1.7.8-.5,6.1-.2,8.4,1.3"/>
      <g id="Group_977" data-name="Group 977">
        <line id="Line_19" data-name="Line 19" class="cls-4" x2="39.4" transform="translate(18.7 13.6)"/>
        <line id="Line_20" data-name="Line 20" class="cls-4" x2="134.3" transform="translate(18.7 23.7)"/>
        <line id="Line_21" data-name="Line 21" class="cls-4" x2="134.3" transform="translate(18.7 32)"/>
        <line id="Line_22" data-name="Line 22" class="cls-4" x2="134.3" transform="translate(18.7 40.3)"/>
        <line id="Line_23" data-name="Line 23" class="cls-4" x2="134.3" transform="translate(18.7 47.3)"/>
        <line id="Line_24" data-name="Line 24" class="cls-4" x2="134.3" transform="translate(18.7 55.6)"/>
        <line id="Line_25" data-name="Line 25" class="cls-4" x2="134.3" transform="translate(18.7 64)"/>
        <line id="Line_26" data-name="Line 26" class="cls-4" x2="134.3" transform="translate(18.7 72.5)"/>
        <line id="Line_27" data-name="Line 27" class="cls-4" x2="65.6" transform="translate(18.7 80.8)"/>
      </g>
    </g>
  </g>
</svg>
