<svg xmlns="http://www.w3.org/2000/svg" viewBox="-1182 1182 303.9 178.1">
  <defs>
    <style>
      .cls-1 {
        fill: #f39200;
      }

      .cls-2 {
        fill: #fff;
      }

      .cls-3 {
        fill: #313965;
      }

      .cls-4 {
        fill: #8bc3b6;
      }

      .cls-5 {
        fill: #4885fa;
      }
    </style>
  </defs>
  <g id="Group_802" data-name="Group 802" transform="translate(-1182 1182)">
    <path id="Path_2521" data-name="Path 2521" class="cls-1" d="M246.5,171.7a26,26,0,1,1,26-26A26.076,26.076,0,0,1,246.5,171.7Zm0-46.8a20.9,20.9,0,1,0,20.9,20.9A20.955,20.955,0,0,0,246.5,124.9Z"/>
    <path id="Path_2522" data-name="Path 2522" class="cls-2" d="M283.2,70.7A20.7,20.7,0,1,1,303.9,50,20.742,20.742,0,0,1,283.2,70.7Zm0-36.3A15.6,15.6,0,1,0,298.8,50,15.62,15.62,0,0,0,283.2,34.4Z"/>
    <path id="Path_2523" data-name="Path 2523" class="cls-3" d="M23.9,85.4A23.9,23.9,0,1,1,47.8,61.5,23.9,23.9,0,0,1,23.9,85.4Zm0-42.6A18.8,18.8,0,1,0,42.7,61.6,18.778,18.778,0,0,0,23.9,42.8Z"/>
    <path id="Path_2524" data-name="Path 2524" class="cls-1" d="M56.9,178.1a17.6,17.6,0,1,1,17.6-17.6A17.626,17.626,0,0,1,56.9,178.1Zm0-30.2a12.5,12.5,0,1,0,12.5,12.5A12.5,12.5,0,0,0,56.9,147.9Z"/>
    <path id="Path_2525" data-name="Path 2525" class="cls-1" d="M77.8,128.3a8.7,8.7,0,1,1,8.7-8.7A8.706,8.706,0,0,1,77.8,128.3Zm0-12.2a3.6,3.6,0,1,0,3.6,3.6A3.718,3.718,0,0,0,77.8,116.1Z"/>
    <circle id="Ellipse_96" data-name="Ellipse 96" class="cls-2" cx="4.8" cy="4.8" r="4.8" transform="translate(5 97)"/>
    <circle id="Ellipse_97" data-name="Ellipse 97" class="cls-1" cx="4.8" cy="4.8" r="4.8" transform="translate(139.1 155.7)"/>
    <circle id="Ellipse_98" data-name="Ellipse 98" class="cls-1" cx="4.8" cy="4.8" r="4.8" transform="translate(262.6 93)"/>
    <circle id="Ellipse_99" data-name="Ellipse 99" class="cls-4" cx="4.8" cy="4.8" r="4.8" transform="translate(223.2 0)"/>
    <circle id="Ellipse_100" data-name="Ellipse 100" class="cls-1" cx="4.8" cy="4.8" r="4.8" transform="translate(60.9 0)"/>
    <circle id="Ellipse_101" data-name="Ellipse 101" class="cls-1" cx="4.8" cy="4.8" r="4.8" transform="translate(145.3 22.2)"/>
    <circle id="Ellipse_102" data-name="Ellipse 102" class="cls-3" cx="4.8" cy="4.8" r="4.8" transform="translate(54.7 124.2)"/>
    <path id="Path_2526" data-name="Path 2526" class="cls-3" d="M180.9,173.2a8.7,8.7,0,1,1,8.7-8.7A8.706,8.706,0,0,1,180.9,173.2Zm0-12.3a3.6,3.6,0,1,0,3.6,3.6A3.585,3.585,0,0,0,180.9,160.9Z"/>
    <rect id="Rectangle_245" data-name="Rectangle 245" class="cls-1" width="5.1" height="34.6" transform="translate(195.478 117.989) rotate(-59.66)"/>
    <rect id="Rectangle_246" data-name="Rectangle 246" class="cls-2" width="72.6" height="5.1" transform="matrix(0.95, -0.314, 0.314, 0.95, 195.432, 77.905)"/>
    <rect id="Rectangle_247" data-name="Rectangle 247" class="cls-3" width="5.1" height="57.3" transform="translate(43.866 69.151) rotate(-73.297)"/>
    <rect id="Rectangle_248" data-name="Rectangle 248" class="cls-1" width="16.8" height="5.1" transform="translate(82.447 114.049) rotate(-12.186)"/>
    <rect id="Rectangle_249" data-name="Rectangle 249" class="cls-1" width="45.3" height="5.1" transform="translate(68.782 150.875) rotate(-28.874)"/>
    <rect id="Rectangle_250" data-name="Rectangle 250" class="cls-3" width="5.1" height="16.2" transform="translate(169.561 144.787) rotate(-24.784)"/>
    <path id="Path_2527" data-name="Path 2527" class="cls-2" d="M114.3,22.3a8.674,8.674,0,1,1-8,9.3A8.781,8.781,0,0,1,114.3,22.3Zm1,12.2a3.559,3.559,0,1,0-3.8-3.3A3.513,3.513,0,0,0,115.3,34.5Z"/>
    <rect id="Rectangle_251" data-name="Rectangle 251" class="cls-2" width="5.1" height="16.2" transform="translate(115.464 38.073) rotate(-29.092)"/>
    <path id="Path_2528" data-name="Path 2528" class="cls-1" d="M199.2,10.6a8.653,8.653,0,1,1-12-2.4A8.577,8.577,0,0,1,199.2,10.6Zm-10.1,6.8a3.606,3.606,0,1,0,1-5A3.581,3.581,0,0,0,189.1,17.4Z"/>
    <path id="Path_2529" data-name="Path 2529" class="cls-1" d="M190.4,22,173,51.9l-4.4-2.6,17.5-29.9Z"/>
    <path id="Path_2530" data-name="Path 2530" class="cls-1" d="M196.4,89.1l5.7-.4a54.375,54.375,0,0,0-21.8-34.9l-3,4.9A48.007,48.007,0,0,1,196.4,89.1Z"/>
    <path id="Path_2531" data-name="Path 2531" class="cls-3" d="M148.7,49.3a48.575,48.575,0,0,1,28.7,9.4l3-4.9a54.173,54.173,0,0,0-63-.2l3.7,4.4A47.888,47.888,0,0,1,148.7,49.3Z"/>
    <path id="Path_2532" data-name="Path 2532" class="cls-1" d="M121.1,58l-3.7-4.4a54.208,54.208,0,0,0-14.5,15.3l5,2.9A45.755,45.755,0,0,1,121.1,58Z"/>
    <path id="Path_2533" data-name="Path 2533" class="cls-2" d="M202.2,88.7l-5.7.4a49.377,49.377,0,0,1,.8,8.7,48.5,48.5,0,1,1-89.4-26.1l-5-2.9a54.2,54.2,0,1,0,100,29A54.947,54.947,0,0,0,202.2,88.7Z"/>
    <path id="Path_2534" data-name="Path 2534" class="cls-5" d="M65.7,158.7a.458.458,0,0,0-.4-.5l-1.9-.4,1-1.6a.616.616,0,0,0-.1-.7L61.8,153a.616.616,0,0,0-.7-.1l-1.6,1-.4-1.9a.664.664,0,0,0-.5-.4H55.1a.458.458,0,0,0-.5.4l-.4,1.9-1.6-1a.616.616,0,0,0-.7.1l-2.5,2.5a.616.616,0,0,0-.1.7l1,1.6-1.9.4a.664.664,0,0,0-.4.5v3.5a.458.458,0,0,0,.4.5l1.9.4-1,1.6a.616.616,0,0,0,.1.7l2.5,2.5a.616.616,0,0,0,.7.1l1.6-1,.4,1.9a.664.664,0,0,0,.5.4h3.5a.458.458,0,0,0,.5-.4l.4-1.9,1.6,1a.616.616,0,0,0,.7-.1l2.5-2.5a.616.616,0,0,0,.1-.7l-1-1.6,1.9-.4a.664.664,0,0,0,.4-.5Zm-8.8,5.7h0a3.7,3.7,0,0,1-.1-7.4h.1a3.7,3.7,0,1,1,0,7.4Z"/>
    <path id="Path_2535" data-name="Path 2535" class="cls-5" d="M283.2,39.3c-6.9,0-12.4,4.4-12.4,9.8s5.6,9.8,12.4,9.8h1.1l1,2.4c.1.2.2.3.4.3h.1a.52.52,0,0,0,.4-.2l3.6-4c3.7-1.8,5.9-4.9,5.9-8.3C295.7,43.7,290.1,39.3,283.2,39.3Zm-4.6,12.3a1.5,1.5,0,1,1,1.5-1.5A1.538,1.538,0,0,1,278.6,51.6Zm4.7,0a1.5,1.5,0,1,1,1.5-1.5A1.538,1.538,0,0,1,283.3,51.6Zm4.5,0a1.5,1.5,0,1,1,1.5-1.5A1.612,1.612,0,0,1,287.8,51.6Z"/>
    <g id="Group_799" data-name="Group 799">
      <path id="Path_2536" data-name="Path 2536" class="cls-5" d="M151.8,126.2l17.6-7.1a1.189,1.189,0,0,0,.7-1.5l-.2-.7a.367.367,0,0,1,.1-.3c3.5-4.6,1.1-10.8,1.1-10.8l-3.6-9.1h0c-.1-.3-1.1-4.6-4.3-4.6a3.907,3.907,0,0,0-3.4,1.5c-.2.2-.5.2-.6-.1-.2-.9-1-2.1-3.2-2.4a3.356,3.356,0,0,0-3.9,2.1.313.313,0,0,1-.6,0c-.8-1.7-2.5-3.6-4.7-2.9a3.99,3.99,0,0,0-2.5,2.2.313.313,0,0,1-.6,0l-3.6-9.3s-1.7-5.6-5.4-4.2c-3.6,1.4-1.7,6.2-1.7,6.2l8.4,22.1a.333.333,0,0,1-.5.4l-4-2.4h0c-.3-.3-4.5-3.8-7.2-1s.3,5.9.5,6.1h0L150,124.8l.1.1.3.7A.97.97,0,0,0,151.8,126.2Z"/>
      <path id="Path_2537" data-name="Path 2537" class="cls-5" d="M176.5,129.8l-4-8.9a1.43,1.43,0,0,0-1.7-.7L151.3,128a1.356,1.356,0,0,0-.7,1.8l4,8.8a1.43,1.43,0,0,0,1.7.7l19.4-7.7A1.326,1.326,0,0,0,176.5,129.8Z"/>
      <path id="Path_2538" data-name="Path 2538" class="cls-5" d="M128.6,71a2.388,2.388,0,0,0,2.2,1.5,1.884,1.884,0,0,0,.8-.2,2.283,2.283,0,0,0,1.3-3L130.5,63a2.312,2.312,0,0,0-4.3,1.7Z"/>
      <path id="Path_2539" data-name="Path 2539" class="cls-5" d="M118.1,74.9l6.2,2.7a2.92,2.92,0,0,0,.9.2,2.26,2.26,0,0,0,2.1-1.4,2.382,2.382,0,0,0-1.2-3.1l-6.2-2.7a2.382,2.382,0,0,0-3.1,1.2A2.484,2.484,0,0,0,118.1,74.9Z"/>
      <path id="Path_2540" data-name="Path 2540" class="cls-5" d="M150.8,84.3l-6.2-2.7a2.351,2.351,0,1,0-1.9,4.3l6.2,2.7a2.92,2.92,0,0,0,.9.2,2.261,2.261,0,0,0,2.1-1.4A2.23,2.23,0,0,0,150.8,84.3Z"/>
      <path id="Path_2541" data-name="Path 2541" class="cls-5" d="M127.2,82.4a2.283,2.283,0,0,0-3-1.3l-6.3,2.4a2.283,2.283,0,0,0-1.3,3,2.388,2.388,0,0,0,2.2,1.5,1.884,1.884,0,0,0,.8-.2l6.3-2.4A2.249,2.249,0,0,0,127.2,82.4Z"/>
      <path id="Path_2542" data-name="Path 2542" class="cls-5" d="M141.7,76.8a2.388,2.388,0,0,0,2.2,1.5,1.884,1.884,0,0,0,.8-.2l6.3-2.4a2.312,2.312,0,0,0-1.7-4.3L143,73.8A2.249,2.249,0,0,0,141.7,76.8Z"/>
      <path id="Path_2543" data-name="Path 2543" class="cls-5" d="M129.8,95.9l2.7-6.2a2.351,2.351,0,0,0-4.3-1.9L125.5,94a2.382,2.382,0,0,0,1.2,3.1,2.92,2.92,0,0,0,.9.2A2.4,2.4,0,0,0,129.8,95.9Z"/>
      <path id="Path_2544" data-name="Path 2544" class="cls-5" d="M137.6,72.5a2.92,2.92,0,0,0,.9.2,2.261,2.261,0,0,0,2.1-1.4l2.7-6.2a2.382,2.382,0,0,0-1.2-3.1,2.348,2.348,0,0,0-3.1,1.2l-2.7,6.2A2.484,2.484,0,0,0,137.6,72.5Z"/>
    </g>
    <path id="Path_2545" data-name="Path 2545" class="cls-5" d="M252.3,131.2H240.7a2.456,2.456,0,0,0-2.4,2.5v24.1a2.456,2.456,0,0,0,2.4,2.5h11.6a2.456,2.456,0,0,0,2.4-2.5V133.7A2.336,2.336,0,0,0,252.3,131.2ZM248,158.3a.645.645,0,0,1-.6.6h-1.8a.645.645,0,0,1-.6-.6v-1a.645.645,0,0,1,.6-.6h1.8a.645.645,0,0,1,.6.6Zm3.4-3.3h-9.6a1.155,1.155,0,0,1-1.2-1.2V135.2a1.155,1.155,0,0,1,1.2-1.2h9.6a1.155,1.155,0,0,1,1.2,1.2v18.6A1.379,1.379,0,0,1,251.4,155Z"/>
    <g id="Group_801" data-name="Group 801">
      <g id="Group_800" data-name="Group 800">
        <path id="Path_2546" data-name="Path 2546" class="cls-5" d="M32.4,58.2a2.2,2.2,0,0,0-.8.1v-.7a7.341,7.341,0,0,0-7.3-7.3,7.2,7.2,0,0,0-6.9,5.1h-.6a7.7,7.7,0,1,0,0,15.4H32.4a6.3,6.3,0,1,0,0-12.6Z"/>
      </g>
    </g>
  </g>
</svg>
