<svg xmlns="http://www.w3.org/2000/svg" viewBox="1792.985 6586 2313.084 1079.039">
  <defs>
    <style>
      .cls-1 {
        fill: #f2f7fc;
      }
    </style>
  </defs>
  <path id="bg-testimonial" class="cls-1" d="M-6726.561,1079.038h-.049c-31.451,0-63.238-.417-94.478-1.238-29.886-.785-60.063-1.961-89.692-3.495-28.261-1.463-56.767-3.29-84.726-5.43-26.573-2.033-53.348-4.4-79.58-7.042-90.769-9.131-179.333-21.862-263.233-37.84-32.961-6.277-65.272-13.076-96.036-20.209-24.621-5.709-48.3-11.64-70.388-17.629-37.813-10.254-57.847-17.13-58.045-17.2l-16.165,9.668,5.166-437.382a350.625,350.625,0,0,1-10.075-34.987c-3.074-12.756-5.7-25.939-7.795-39.182-2.623-16.553-4.429-33.238-5.368-49.594-2.391-41.64.751-81.437,9.339-118.286,2.482-10.65,5.459-21.193,8.85-31.337a329.334,329.334,0,0,1,12.256-31.284,316.789,316.789,0,0,1,16.061-30.853,313.418,313.418,0,0,1,20.267-30.042,320.315,320.315,0,0,1,21.973-25.826,337.93,337.93,0,0,1,25.928-24.608,367.389,367.389,0,0,1,30.168-23.119c10.914-7.51,22.586-14.7,34.692-21.36,12.477-6.867,25.767-13.371,39.5-19.332,14.141-6.137,29.145-11.867,44.595-17.033,15.89-5.313,32.7-10.18,49.973-14.464,17.734-4.4,36.452-8.312,55.635-11.626,18.334-3.168,37.6-5.959,57.269-8.3,19.176-2.28,39.284-4.195,59.765-5.691,19.93-1.456,40.8-2.558,62.022-3.274C-7028.115.352-7006.569,0-6984.691,0c28.017,0,57.568.579,87.833,1.721,28.863,1.089,59.294,2.725,90.449,4.862,29.512,2.025,60.641,4.567,92.521,7.555,29.923,2.8,61.566,6.1,94.048,9.8,57.54,6.55,119.853,14.576,190.5,24.537,65.275,9.2,129.928,18.958,190.072,28.129,15.234,2.323,30.658,4.682,45.574,6.963l1.553.238c233.326,35.691,453.713,69.4,621.534,69.4,15.913,0,31.351-.309,45.886-.917,14.928-.625,29.373-1.586,42.934-2.856,3.57-.334,7.143-.5,10.619-.5a102.969,102.969,0,0,1,17.641,1.5,97.245,97.245,0,0,1,16.6,4.438,100.821,100.821,0,0,1,15.588,7.279,113.583,113.583,0,0,1,14.6,10.025,143.67,143.67,0,0,1,19.909,19.749,203.181,203.181,0,0,1,17.861,25.28,293.406,293.406,0,0,1,15.892,30.5c4.909,10.845,9.621,22.755,14.005,35.4,4.3,12.4,8.4,25.856,12.2,39.988,3.721,13.862,7.244,28.754,10.471,44.263,6.267,30.117,11.678,63.793,16.082,100.094,4.224,34.818,7.635,72.98,10.138,113.425,2.394,38.688,4.021,80.49,4.835,124.246.777,41.714.837,86.312.176,132.554-.626,43.909-1.918,90.458-3.84,138.351a158.991,158.991,0,0,0-17.558-11.577,140.363,140.363,0,0,0-18.468-8.759,131.3,131.3,0,0,0-19.4-5.819,131.744,131.744,0,0,0-20.351-2.76c-29.032-1.658-58.194-2.5-86.675-2.5-18.32,0-36.924.347-55.294,1.03-17.645.656-35.719,1.647-53.721,2.944C-5594,951-5628.3,954.517-5665.346,959.341c-31.714,4.13-65.088,9.153-105.028,15.807-35.5,5.914-71.411,12.32-109.433,19.1l-.053.009-.039.007c-43.292,7.722-88.058,15.707-136.011,23.637-54.387,8.995-104.727,16.546-153.9,23.087-28.491,3.79-57.306,7.331-85.644,10.523-30.516,3.438-61.641,6.6-92.511,9.41-32.846,2.986-66.551,5.668-100.179,7.972-35.491,2.431-72.045,4.521-108.648,6.209-28.756,1.327-57.851,2.33-86.474,2.982C-6670.954,1078.718-6698.98,1079.038-6726.561,1079.038Z" transform="translate(9390.785 6586)"/>
</svg>
