<svg xmlns="http://www.w3.org/2000/svg" viewBox="19900 1141 1920 1138.8">
  <defs>
    <style>
      .cls-1 {
        fill: #4885fa;
      }

      .cls-2 {
        fill: #3c485e;
      }

      .cls-3 {
        fill: #48a2fa;
      }

      .cls-4 {
        fill: #ff931f;
      }

      .cls-5 {
        fill: #e2b49b;
      }

      .cls-6 {
        fill: #fff;
      }

      .cls-7 {
        fill: #b53e44;
      }

      .cls-8 {
        fill: #14213d;
      }

      .cls-9 {
        fill: #3c5b8a;
      }

      .cls-10 {
        fill: #e00109;
      }

      .cls-11 {
        fill: #9ce0fa;
      }

      .cls-12 {
        fill: #72c7fa;
      }
    </style>
  </defs>
  <g id="Group_369" data-name="Group 369" transform="translate(19900 1141)">
    <rect id="XMLID_116_" class="cls-1" width="1920" height="1080"/>
    <path id="XMLID_115_" class="cls-2" d="M284.9,731.3s-5,28.8-.3,30.4c-32.4,8.5-50.9,25.1-50.9,25.1l8.7-29.1a253.933,253.933,0,0,1,18-44.3c6.5-12.4,13.9-27.9,15.8-36.7l5.8-28.2v-.2l9.7,45.4Z"/>
    <path id="XMLID_114_" class="cls-2" d="M351.5,759.4h0a237.423,237.423,0,0,0-15.3-48l-7.7-17.3h0l-2.4-5.4L309,652.9l-3.4.5a72.946,72.946,0,0,1-9.3.8l-4.9.1-1.2,78.2s10.4,24.3,8.5,26.2c3.4-.5,6.8-1,10.4-1.3l14.2-.6A166.178,166.178,0,0,1,351.5,759.4Z"/>
    <path id="XMLID_113_" class="cls-3" d="M1283.9,874.8c-46.5,0-46.5-45.3-92.9-45.3-46.5,0-46.5,45.3-92.9,45.3-46.5,0-46.5-45.3-92.9-45.3s-46.5,45.3-92.9,45.3c-46.5,0-46.5-45.3-92.9-45.3-46.5,0-46.5,45.3-92.9,45.3-46.5,0-46.5-45.3-92.9-45.3-46.5,0-46.5,45.3-92.9,45.3-46.5,0-46.5-45.3-92.9-45.3-46.5,0-46.5,45.3-92.9,45.3s-46.5-45.3-92.9-45.3c-46.5,0-46.5,45.3-92.9,45.3-46.5,0-46.5-45.3-92.9-45.3-40,0-45.6,33.6-76.1,42.9V1057H1362.7V831.2C1329.8,839.3,1325,874.8,1283.9,874.8Z"/>
    <path id="XMLID_112_" class="cls-4" d="M323.5,570.3l-7.3-2.3-3.7-1.2-2.8-.9-16.4-5.2-.3-.1-10-3.2-.9-25.1a6.221,6.221,0,0,1-2.6.9,4.51,4.51,0,0,1-.6-9,3.448,3.448,0,0,1,2.9.8l-.2-4.5c.4-.3.8-.5,1.2-.8a43.022,43.022,0,0,1,6-3.2l7.5,26.8a8.144,8.144,0,0,1-2.4-3.4h-.6a12.005,12.005,0,0,0,12.8,11.2h0a12.175,12.175,0,0,0,10.9-9,11.654,11.654,0,0,0,4.1,5.2l.4,5.4.9,13.7Z"/>
    <g id="XMLID_110_">
      <path id="XMLID_111_" class="cls-5" d="M317.7,522.9v-.3a3.75,3.75,0,0,1-1.6-2.1,2.665,2.665,0,1,1-3-4.1,1.483,1.483,0,0,1,.7-.1,2.526,2.526,0,0,1,2.4,1.2,3.27,3.27,0,0,1,1.1-1.5l-.1-2.2h0v-.6c-.5-.1-.9-.4-1.4-.5s-1.2.2-1.7.1a5.262,5.262,0,0,0-1.4,1.2,5.758,5.758,0,0,1-4.1,1.8,6.639,6.639,0,0,1-4.3-1.3,4.069,4.069,0,0,0-2.4-.8,3.858,3.858,0,0,0-2.2,1.1,8.555,8.555,0,0,1-2.2,1.5,1.461,1.461,0,0,1-1.9-1c0-.1-.1-.2-.1-.3v-.2a1.7,1.7,0,0,1,.1-.7,52.959,52.959,0,0,0-6.7,2.3l7.5,26.8a9.977,9.977,0,0,0,14.1-.8,9.243,9.243,0,0,0,2.1-3.9l2.6-.2h.8l1-.1h.2l3.1-.2h.4a2.82,2.82,0,0,0,2.7-3,2.376,2.376,0,0,0-.3-1.2Zm-13.3,3.4a4.657,4.657,0,1,1,4.4-4.9h0a4.679,4.679,0,0,1-4.4,4.9Z"/>
    </g>
    <circle id="XMLID_109_" class="cls-6" cx="4.7" cy="4.7" r="4.7" transform="translate(299.106 517.324) rotate(-3.726)"/>
    <circle id="XMLID_108_" class="cls-7" cx="3.4" cy="3.4" r="3.4" transform="translate(302.488 519.037) rotate(-3.726)"/>
    <path id="XMLID_107_" class="cls-6" d="M316.6,518.8a2.618,2.618,0,0,1-.5,1.7,2.432,2.432,0,0,1-2,1.1,2.654,2.654,0,1,1-.3-5.3,2.526,2.526,0,0,1,2.4,1.2A2.836,2.836,0,0,1,316.6,518.8Z"/>
    <path id="XMLID_106_" class="cls-7" d="M317.1,519.7a1.689,1.689,0,0,1-.3,1,1.855,1.855,0,0,1-1.2.7,1.6,1.6,0,0,1-.2-3.2,1.513,1.513,0,0,1,1.4.7A1.135,1.135,0,0,1,317.1,519.7Z"/>
    <path id="XMLID_105_" class="cls-7" d="M328.8,549.7a11.858,11.858,0,0,1-7.9-2.3,12.384,12.384,0,0,1-4.1-5.2,9.465,9.465,0,0,1-.8-3.7h0l1-.1h.2l3.1-.2h.4a10.216,10.216,0,0,0,9.8,6,9.935,9.935,0,0,0,9.3-7.2S340.6,549,328.8,549.7Z"/>
    <path id="XMLID_104_" class="cls-7" d="M316.9,542.2a11.932,11.932,0,0,1-10.8,9A12.126,12.126,0,0,1,293.3,540h.6a11.645,11.645,0,0,0,2.4,3.4,9.977,9.977,0,0,0,14.1-.8,9.243,9.243,0,0,0,2.1-3.9l2.6-.2h.8l1-.1h.2A8.1,8.1,0,0,1,316.9,542.2Z"/>
    <path id="XMLID_103_" class="cls-8" d="M340.4,504.5h0a23.634,23.634,0,0,1-4.2,7.4,8.632,8.632,0,0,1-1.3,1.4,10.835,10.835,0,0,1-11.7,2.4h-.1a4.178,4.178,0,0,1-1-.4h0a9.826,9.826,0,0,0-1.6-.5,19.952,19.952,0,0,0-3.5-.9h0l-.5-1.1c-1-.2-1.6,0-2.7-.2-1.6-.2-5.7.5-6.1.5-1.2-.1-2.5-.2-3.7-.2-1.3.1-2.5.2-3.8.4a38.639,38.639,0,0,0-4.9,1,52.959,52.959,0,0,0-6.7,2.3,43.022,43.022,0,0,0-6,3.2c-.4.3-.9.6-1.3.9-1,.7-2,1.4-3,2.2A26.763,26.763,0,0,1,268,526a24.527,24.527,0,0,1-17.9-6.3l-.1-.1-.6-.6h0a8.214,8.214,0,0,1-1.6-2.5,8.943,8.943,0,0,1-.7-4.6,8.462,8.462,0,0,1,4.2-6.4,7.218,7.218,0,0,1,2-.9,8.316,8.316,0,0,1,5.4.1h0a22.544,22.544,0,0,0,3.6.6h2.1a9.08,9.08,0,0,0,2.3-.3,16.363,16.363,0,0,0,13-14,42.1,42.1,0,0,1,.9-4.9,14.192,14.192,0,0,1,1-2.9,17.906,17.906,0,0,1,14.9-10.4,20.9,20.9,0,0,1,2.5.1,21.858,21.858,0,0,1,13.5,7.7,45.607,45.607,0,0,1,9.7,20.3,3.958,3.958,0,0,0,4.4,3,3.671,3.671,0,0,0,3.2-2.4v-.1h0c0-.1.1-.2.1-.3h0c0-.1,0-.2.1-.2a5.455,5.455,0,0,1,5.6-3.6,5.281,5.281,0,0,1,4.4,3.3A3.67,3.67,0,0,1,340.4,504.5Z"/>
    <path id="XMLID_102_" class="cls-9" d="M384,534c0,27.6-12.9,50.2-19.6,60.1a13.091,13.091,0,0,1-11.3,5.8,56.949,56.949,0,0,1-21.7-5.8c-3.9-1.9-10.4-4.1-10.4-4.1l3.2-1.5,6.1-2.9-4.1-5.9c3,3,12.2,11.4,23.4,12.6a12.759,12.759,0,0,0,11.9-5.5c4.9-6.9,12.7-22.1,16.3-51.9v-.4Z"/>
    <path id="XMLID_101_" class="cls-10" d="M382.6,534h0l2.8-.1Z"/>
    <path id="XMLID_100_" class="cls-4" d="M391.7,533.3l-7.7.7-6.2.5-7.4.6,4.5-16.7,9.9-1.2Z"/>
    <rect id="XMLID_99_" class="cls-10" width="0.2" height="2.8" transform="translate(246.112 500.928) rotate(-54.541)"/>
    <path id="XMLID_98_" class="cls-8" d="M335.9,625.1l-5.3-1.4-13.5-3.6c.1-2.5.1-5.1.1-7.6,0-5.9-.3-12-.9-18.2v-.6L316,591c-.2-2.1-.4-4.2-.7-6.3a26.96,26.96,0,0,0-.4-2.8.6.6,0,0,0-.1-.4c-.7-5.1-1.5-10.1-2.4-14.8l3.7,1.2,2.7,2.6a65.29,65.29,0,0,1,5.8,7l1.5,2.1h0l4.1,5.9-6.1,2.9-4.7,2.3,11.4,23.8Z"/>
    <path id="XMLID_97_" class="cls-8" d="M279.6,476.1A9.96,9.96,0,0,0,264.5,489l-1.9,1.9c-2.7-.6-6.4,1.2-6.4,1.2a9.838,9.838,0,0,0,7.7,7.7s1.9-4.2,1-6.8l3.8-3.8-1.1-1.1a6.859,6.859,0,1,1,9.7-9.7h0c2.7,2.7,3.8,8.1,1.1,10.8l.4.4C282.8,485.5,283.5,479.9,279.6,476.1Z"/>
    <path id="XMLID_96_" class="cls-4" d="M266.2,496l-6.7,16.3-4.6-4-7.7-6.5-3.9-3.4,15.1-8.6Z"/>
    <path id="XMLID_95_" class="cls-8" d="M292.3,787.7l7.1,18.7-.6.4h0L285,815.4l-2.5-4.5-3.2-5.6,6.9-19.9V762.2a10.923,10.923,0,0,1-1.7-.5c-4.7-1.6-8-5.5-8-10.1,0-4.8,3.5-15.9,8.5-20.3l.1-.1,8.2.4h.1c4.8,4.6,8.2,15.3,8.2,20a10.769,10.769,0,0,1-3.1,7.2,12.564,12.564,0,0,1-6.3,3.4v23.1Z"/>
    <path id="XMLID_94_" class="cls-8" d="M354.5,787.2a2.2,2.2,0,0,1-.1.8,13.367,13.367,0,0,1-11.1,11.4,14.1,14.1,0,0,1-4.1-.1l-10.4-1.7h0L313.2,795l-.2,2.7-5-.3,2.6-39.6a3,3,0,0,0-.8-.4c-.1,0-.1-.1-.2-.1a9.718,9.718,0,0,1-5.2-8.9c.2-2.8,1.9-7.9,4.4-12.2a21.531,21.531,0,0,1,3.6-4.8h.4l7.8.4h.5a19.517,19.517,0,0,1,2.8,4.6,41.73,41.73,0,0,1,2.5,7.8,17.525,17.525,0,0,1,.6,5.6,9.843,9.843,0,0,1-4.1,7,12.616,12.616,0,0,1-3.3,1.6,15.529,15.529,0,0,1-2.1.4,26.306,26.306,0,0,0-.7,4.9,29.494,29.494,0,0,0,1,9.8,18.653,18.653,0,0,0,10.4,12.2h.1a30.276,30.276,0,0,0,26.4-1.2C354.6,785.5,354.6,786.3,354.5,787.2Z"/>
    <path id="XMLID_93_" class="cls-9" d="M326.1,688.7l-4.7,43-.7.1-7.9.7.1-1.1,4.7-42.2L309,652.9l-3.4.5a72.946,72.946,0,0,1-9.3.8l-4.9.1,4.3,35.3h0l-2.1,42v.1l-8.3-.4h-.2l2.2-41.7h0L283,654.9l-.9-6.7-1-7.8,2.6-.5h.1l13.4-2.4,4.7-.8,7,1.9,6.9,1.9.8,7Z"/>
    <g id="XMLID_91_">
      <path id="XMLID_92_" class="cls-7" d="M321.3,513.4a1.612,1.612,0,0,1-.6,1.3,1.389,1.389,0,0,1-1.1.2,6.59,6.59,0,0,1-2.4-1.1h0a3.338,3.338,0,0,0-3.2-.5,4.194,4.194,0,0,0-1.4.9,5.758,5.758,0,0,1-4.1,1.8,6.639,6.639,0,0,1-4.3-1.3,4.069,4.069,0,0,0-2.4-.8,3.858,3.858,0,0,0-2.2,1.1,8.555,8.555,0,0,1-2.2,1.5,1.461,1.461,0,0,1-1.9-1c0-.1-.1-.2-.1-.3V515a1.7,1.7,0,0,1,.1-.7,1.779,1.779,0,0,1,.8-.7,2.73,2.73,0,0,0,1.2-.9,5.758,5.758,0,0,1,4.1-1.8,6.639,6.639,0,0,1,4.3,1.3,2.384,2.384,0,0,0,1.1.6,5.854,5.854,0,0,0,1.3.2c.3,0,.5-.1.7-.1h0a3.072,3.072,0,0,0,1.5-1,5.758,5.758,0,0,1,4.1-1.8,6.639,6.639,0,0,1,4.3,1.3,5.388,5.388,0,0,0,1.3.7,1.63,1.63,0,0,1,1.1,1.3Z"/>
    </g>
    <path id="XMLID_90_" class="cls-7" d="M371.9,516.6l3,1.8h10.3v-3.5H371.3Z"/>
    <path id="XMLID_89_" class="cls-4" d="M315.6,640.5a81.641,81.641,0,0,0-16.4-.8c-2,.1-3.9.3-5.8.5-2.3.3-8.1,1.3-10.2,1.7l.8-6.1c1.9-.4,7.1-1.4,9.2-1.7,1.8-.2,3.7-.4,5.6-.5a26.208,26.208,0,0,1,2.8-.1,70.349,70.349,0,0,1,14.5,1.1C316.4,635.4,316,639.3,315.6,640.5Z"/>
    <path id="XMLID_88_" class="cls-5" d="M309.7,565.9h0a8.223,8.223,0,0,1-7,6.1c-.3,0-.7.1-1,.1h0a8.2,8.2,0,0,1-8.1-7.2l-.5-3.6.2-.6Z"/>
    <path id="XMLID_87_" class="cls-6" d="M317.2,612.5c0,2.5,0,5.1-.1,7.6-.1,3.4-.7,14.5-.8,14.5a78.054,78.054,0,0,0-14.5-1.1c-.9,0-1.9.1-2.8.1-1.9.1-3.8.3-5.6.5-1.9.2-6.6,1.2-8.7,1.6l.2-1.2,2.4-14.5,3.3-32,.2-2.2.7-8.4.2-2,1.2-14.2.5-.1.5,3.6a8.2,8.2,0,0,0,8.1,7.2h0a3.4,3.4,0,0,0,1-.1,8.374,8.374,0,0,0,7-6h0l2.8.9c.9,4.8,1.7,9.8,2.4,14.9a.6.6,0,0,0,.1.4c.1.9.3,1.9.4,2.8.3,2.1.5,4.2.7,6.3a24.518,24.518,0,0,1,.2,2.7,1.268,1.268,0,0,0,.1.6C316.8,600.5,317.2,606.6,317.2,612.5Z"/>
    <path id="XMLID_86_" class="cls-9" d="M287.2,620.1l-2.4,14.5-.2,1.1-.9,4.2-.1.7-.3,1.3h0l-1.3,6.3v.2l-5.8,28.2c-1.8,8.8-9.3,24.3-15.8,36.7a253.934,253.934,0,0,0-18,44.3l-8.7,29.1h0a322.884,322.884,0,0,1,18.8-110.5l10.8-30.3,4.2-76.2a77.354,77.354,0,0,1-37.7-34.6,9.053,9.053,0,0,1,.6-9.5h0l16.9-23.9,7.7,6.6-.2.2L240.6,525a9.012,9.012,0,0,0-.6,10.9c7.8,11.8,16.3,18.4,21.1,21.4a24.96,24.96,0,0,0,6.4,3l17.8,5.5,1.2,1a22.157,22.157,0,0,0-4,7.2L274,598.5l8.2-2.5-9.9,32.5Z"/>
    <path id="XMLID_85_" class="cls-2" d="M308.8,642.6H297.1a2.051,2.051,0,0,1-2.1-2.1V633a2.051,2.051,0,0,1,2.1-2.1h11.7a2.051,2.051,0,0,1,2.1,2.1v7.5A2.051,2.051,0,0,1,308.8,642.6Zm-9.6-4.3h7.4v-3.2h-7.4Z"/>
    <path id="XMLID_84_" class="cls-2" d="M301.9,637.4h-4.8a.7.7,0,0,1,0-1.4h4.8a.7.7,0,0,1,0,1.4Z"/>
    <g id="XMLID_81_">
      <path id="XMLID_83_" class="cls-6" d="M1509,416.4a14.72,14.72,0,0,0,.4-3.6,16.089,16.089,0,0,0-16.1-16.1h0a7.568,7.568,0,0,0-1.5.1,21.6,21.6,0,0,0-40.6,1.2,16.117,16.117,0,0,0-21.1,8.4,18.223,18.223,0,0,0-1.1,4,22.4,22.4,0,0,0-5.7-.8,21.6,21.6,0,0,0,0,43.2h70a21.575,21.575,0,0,0,15.7-36.4Z"/>
      <path id="XMLID_82_" class="cls-6" d="M1420.1,234.8a8.331,8.331,0,0,0,.3-2.2,9.859,9.859,0,0,0-9.9-9.9h-.9a13.106,13.106,0,0,0-17.2-7.3,13.242,13.242,0,0,0-7.6,8.1,9.887,9.887,0,0,0-12.9,5.1,10.269,10.269,0,0,0-.7,2.5,13.449,13.449,0,0,0-3.5-.5,13.2,13.2,0,0,0,0,26.4h42.8a13.187,13.187,0,0,0,13.2-13.2h0A12.964,12.964,0,0,0,1420.1,234.8Z"/>
    </g>
    <g id="XMLID_78_">
      <path id="XMLID_80_" class="cls-6" d="M512.4,381.6a14.723,14.723,0,0,0,.4-3.6,16.09,16.09,0,0,0-16.1-16.1h0a7.568,7.568,0,0,0-1.5.1,21.6,21.6,0,0,0-40.6,1.2,16.117,16.117,0,0,0-21.1,8.4,18.226,18.226,0,0,0-1.1,4,22.394,22.394,0,0,0-5.7-.8,21.6,21.6,0,0,0,0,43.2h70a21.575,21.575,0,0,0,15.7-36.4Z"/>
      <path id="XMLID_79_" class="cls-6" d="M613.1,213.4a8.329,8.329,0,0,0,.3-2.2,9.859,9.859,0,0,0-9.9-9.9h-.9a13.106,13.106,0,0,0-17.2-7.3,13.242,13.242,0,0,0-7.6,8.1,9.887,9.887,0,0,0-12.9,5.1,10.275,10.275,0,0,0-.7,2.5,13.448,13.448,0,0,0-3.5-.5,13.2,13.2,0,1,0,0,26.4h42.8a13.187,13.187,0,0,0,13.2-13.2h0A13.144,13.144,0,0,0,613.1,213.4Z"/>
    </g>
    <path id="XMLID_77_" class="cls-9" d="M416.3,503.2l-43.1-.7-56.6,14,.4,3.5,1.8,2.5,54.4-6.6,38.5,3.8,66,37.8,15-54.2Z"/>
    <path id="XMLID_71_" class="cls-2" d="M502,504.9a7.381,7.381,0,0,0-3.9.1c-6.2,1.9-13,11.6-16.5,24.3s-2.6,24.5,1.7,29.3a6.483,6.483,0,0,0,3.3,2.1c7,1.9,16.2-9,20.4-24.4C511.3,520.9,509,506.8,502,504.9ZM493,550a4.614,4.614,0,0,1-3.6.6c-4.4-1.2-5.9-10.2-3.2-19.9,2.7-9.8,8.5-16.7,12.9-15.5a4.921,4.921,0,0,1,2.8,2.3c2.1,3.5,2.4,10.3.4,17.6C500.4,542.3,496.6,548,493,550Z"/>
    <path id="XMLID_70_" class="cls-11" d="M502.4,535c-2,7.3-5.8,13-9.4,14.9a4.614,4.614,0,0,1-3.6.6c-4.4-1.2-5.9-10.2-3.2-19.9,2.7-9.8,8.5-16.7,12.9-15.5a4.921,4.921,0,0,1,2.8,2.3C504.1,520.9,504.4,527.7,502.4,535Z"/>
    <path id="XMLID_44_" class="cls-8" d="M483.3,558.6a6.483,6.483,0,0,0,3.3,2.1l-7.1-2c-7-1.9-9.2-16-5-31.5,4.3-15.4,13.4-26.4,20.4-24.4l7.1,2a7.381,7.381,0,0,0-3.9.1c-6.2,1.9-13,11.6-16.5,24.3C478.1,542,479,553.8,483.3,558.6Z"/>
    <path id="XMLID_42_" class="cls-8" d="M413.3,520.6a34.424,34.424,0,0,1,4.7-17.4h-3.3a36.424,36.424,0,0,0-4.3,16.4l1.2.1Z"/>
    <path id="XMLID_41_" class="cls-8" d="M375.2,516.1a23.87,23.87,0,0,1,.3-13.5h-2.3l-.7.2a26.059,26.059,0,0,0-.2,13.3l1-.1Z"/>
    <path id="XMLID_36_" class="cls-2" d="M319.9,522.4a3.583,3.583,0,0,1-1.1.4,2.543,2.543,0,0,1-1.7-.4,3.535,3.535,0,0,1-1.6-2,2.919,2.919,0,0,1-.2-.9,3.194,3.194,0,0,1,.3-1.9,2.587,2.587,0,0,1,1.1-1.4,2.389,2.389,0,0,1,1.4-.5,4.87,4.87,0,0,1,1.2.1,1,1,0,0,0-.5.4,3.98,3.98,0,0,0-1.1,3.1,3.675,3.675,0,0,0,2.1,3C319.7,522.3,319.8,522.4,319.9,522.4Z"/>
    <path id="XMLID_35_" class="cls-7" d="M387.4,504.1h0a2.22,2.22,0,0,1-2.2-2.2v-.7a2.22,2.22,0,0,1,2.2-2.2h0a2.22,2.22,0,0,1,2.2,2.2v.7A2.22,2.22,0,0,1,387.4,504.1Z"/>
    <path id="XMLID_34_" class="cls-7" d="M383,504.1h0a2.22,2.22,0,0,1-2.2-2.2v-.7A2.22,2.22,0,0,1,383,499h0a2.22,2.22,0,0,1,2.2,2.2v.7A2.22,2.22,0,0,1,383,504.1Z"/>
    <path id="XMLID_28_" class="cls-7" d="M378.7,504.1h0a2.22,2.22,0,0,1-2.2-2.2v-.7a2.22,2.22,0,0,1,2.2-2.2h0a2.22,2.22,0,0,1,2.2,2.2v.7A2.22,2.22,0,0,1,378.7,504.1Z"/>
    <path id="XMLID_27_" class="cls-7" d="M374.3,504.1h0a2.22,2.22,0,0,1-2.2-2.2v-.7a2.22,2.22,0,0,1,2.2-2.2h0a2.22,2.22,0,0,1,2.2,2.2v.7A2.22,2.22,0,0,1,374.3,504.1Z"/>
    <path id="XMLID_26_" class="cls-7" d="M368.8,518.3h0a2.2,2.2,0,0,1-1.1-2.9l.3-.6a2.2,2.2,0,0,1,2.9-1.1h0a2.2,2.2,0,0,1,1.1,2.9l-.3.6A2.2,2.2,0,0,1,368.8,518.3Z"/>
    <path id="XMLID_22_" class="cls-3" d="M1920,831.2c-32.8,8.1-37.5,43.6-78.7,43.6-46.4,0-46.4-45.3-92.9-45.3-46.4,0-46.4,45.3-92.9,45.3-46.4,0-46.4-45.3-92.9-45.3-46.4,0-46.4,45.3-92.9,45.3-46.4,0-46.4-45.3-92.9-45.3-46.4,0-46.4,45.3-92.8,45.3s-46.4-45.3-92.9-45.3c-46.4,0-46.4,45.3-92.9,45.3-46.4,0-46.4-45.3-92.9-45.3-46.4,0-46.4,45.3-92.9,45.3s-46.4-45.3-92.9-45.3c-46.4,0-46.4,45.3-92.9,45.3-46.4,0-46.4-45.3-92.8-45.3s-46.4,45.3-92.9,45.3c-46.4,0-46.4-45.3-92.8-45.3V1057H1920Z"/>
    <path id="XMLID_12_" class="cls-8" d="M1569.6,840.3c-3.6,84.5-42.2,129.3-108,126.5-66.5-2.8-100.9-50.6-97.4-135.1,3.5-84.1,41.9-129.3,108.4-126.5C1538.4,708,1573.2,756.2,1569.6,840.3ZM1437,834.8c-2.4,56.6,4.8,79.3,26.8,80.3,21.7.9,30.7-21.2,33.1-77.8,2.4-57-4.8-79-26.5-79.9C1448.4,756.5,1439.4,777.8,1437,834.8Z"/>
    <path id="XMLID_11_" class="cls-8" d="M1798.6,851.3c-3.6,84.5-42.2,129.3-108,126.5-66.5-2.8-100.9-50.6-97.4-135.1,3.5-84.1,41.9-129.3,108.4-126.5C1767.4,719,1802.2,767.2,1798.6,851.3ZM1666,845.8c-2.4,56.6,4.8,79.3,26.8,80.3,21.7.9,30.7-21.2,33.1-77.8,2.4-57-4.8-79-26.5-79.9C1677.4,767.5,1668.4,788.8,1666,845.8Z"/>
    <path id="XMLID_10_" class="cls-8" d="M384.2,798a128.579,128.579,0,0,0-72.8-22.3,120.11,120.11,0,0,0-21.5,2.5,180.785,180.785,0,0,0-65.5,26.4,472.736,472.736,0,0,1-105.3,50.6A473.789,473.789,0,0,1,.1,878.7V989.2H211.5V989h.1c2.1.1,4.2.2,6.3.2A103.408,103.408,0,0,0,321.3,885.8c0-2.3.1-6.1.2-8.4a32.328,32.328,0,0,0-.1-4.4c-.1-1.5-.1-3-.1-4.6A60.3,60.3,0,0,1,380.2,809h.6a6.018,6.018,0,0,0,6-6A5.638,5.638,0,0,0,384.2,798Z"/>
    <path id="XMLID_9_" class="cls-8" d="M292.6,561.3l-1.2,14.2-.2,2-.7,8.4-.2,2.2-3.3,32-15,8.3,9.9-32.5-8.2,2.5C273.9,598.4,281,563.9,292.6,561.3Z"/>
    <path id="XMLID_7_" class="cls-5" d="M281.8,525.1a3.448,3.448,0,0,0-2.9-.8,4.51,4.51,0,0,0,.6,9,6.22,6.22,0,0,0,2.6-.9l.1,2h0Z"/>
    <g id="Group_368" data-name="Group 368">
      <path id="Path_1306" data-name="Path 1306" class="cls-8" d="M1319.8,825.8q25.8,24,24,61.9a84.6,84.6,0,0,1-14.8,44.8q-13.65,20.1-40.2,31.3c-17.7,7.4-39.3,10.6-64.9,9.4a231.874,231.874,0,0,1-55.3-9.3c-18.1-5.4-33.6-12.5-46.4-21.5l29.5-55.4a129.234,129.234,0,0,0,34.4,17.9,134.606,134.606,0,0,0,38.3,7.4c12.9.6,23.3-1.4,31.3-6,7.9-4.6,12.1-11.3,12.5-20.2s-3.1-15.7-10.5-20.6-20.7-7.8-39.9-8.6l-72.1-3.2L1166,699l169.3,7.6-2.6,58.1-107.1-4.8-5.2,38.6,17.8.8Q1294,801.85,1319.8,825.8Z"/>
    </g>
    <path id="XMLID_6_" class="cls-12" d="M1841.3,956.6c-46.5,0-46.5-45.3-92.9-45.3-46.5,0-46.5,45.3-92.9,45.3-46.5,0-46.5-45.3-92.9-45.3-45.9,0-46.5,44.3-91.4,45.3-44.9-1-45.5-45.3-91.4-45.3h-3c-45.9,0-46.5,44.3-91.4,45.3-44.9-1-45.5-45.3-91.4-45.3h-3c-45.9,0-46.5,44.3-91.4,45.3-44.9-1-45.5-45.3-91.4-45.3h-3c-45.9,0-46.5,44.3-91.4,45.3-44.9-1-45.5-45.3-91.4-45.3h-3c-45.9,0-46.5,44.3-91.4,45.3-44.9-1-45.5-45.3-91.4-45.3h-3c-45.9,0-46.5,44.3-91.4,45.3-44.9-1-45.5-45.3-91.4-45.3h-3v.1c-43.4,1.9-44.5,45.2-89.9,45.2-46.5,0-46.5-45.3-92.9-45.3-46.5,0-46.5,45.3-92.9,45.3-46.5,0-46.5-45.3-92.9-45.3-41.3,0-45.9,35.8-79,43.7v183.8H1920V913C1887.2,921.1,1882.5,956.6,1841.3,956.6Z"/>
  </g>
</svg>
