<svg xmlns="http://www.w3.org/2000/svg" viewBox="3332.902 6011 379.064 396.477">
  <defs>
    <style>
      .cls-1 {
        fill: #14213d;
      }

      .cls-2 {
        fill: #2d3b5a;
      }
    </style>
  </defs>
  <g id="Group_1378" data-name="Group 1378" transform="translate(1990)">
    <path id="Path_3505" data-name="Path 3505" class="cls-1" d="M94.773,4.745c75.489-25.516,161.5,56.6,172.423,133.442,13.424,94.574-90.134,153.618-147.957,167.637C59.091,320.363,11.322,268.811.8,154.877-6.4,77.363,35.671,24.773,94.773,4.745Z" transform="matrix(-0.891, -0.454, 0.454, -0.891, 1582.033, 6407.478)"/>
    <path id="Path_3507" data-name="Path 3507" class="cls-2" d="M33.382,97,12.363,108.492A13.174,13.174,0,0,0,9,111.015c12.331,10.369,30.969,21.208,50.182,19.391,18.953-2.337,28.009-9.021,40.341-19.111a41,41,0,0,0-3.643-2.522l-22.42-11.21A8.769,8.769,0,0,1,68.695,90V81.027c.561-.841,1.4-1.682,2.242-2.8a54.679,54.679,0,0,0,7.006-14.013,7.241,7.241,0,0,0,5.045-6.726V47.957a7.657,7.657,0,0,0-2.242-5.325V28.9s2.8-21.3-26.064-21.3S28.618,28.9,28.618,28.9V42.352a7.176,7.176,0,0,0-2.242,5.325v9.529a6.831,6.831,0,0,0,3.363,5.885,44.784,44.784,0,0,0,8.408,17.656v8.688A9.79,9.79,0,0,1,33.382,97Z" transform="translate(1478.421 6141.86)"/>
  </g>
</svg>
