<?xml version="1.0" encoding="utf-8"?>
<!-- Generator: Adobe Illustrator 25.2.1, SVG Export Plug-In . SVG Version: 6.00 Build 0)  -->
<svg version="1.1" id="Layer_1" xmlns="http://www.w3.org/2000/svg" xmlns:xlink="http://www.w3.org/1999/xlink" x="0px" y="0px"
	 viewBox="0 0 813.3 807" style="enable-background:new 0 0 813.3 807;" xml:space="preserve">
<style type="text/css">
	.st0{fill:none;stroke:#BBE5FF;stroke-width:0.783;stroke-linecap:round;stroke-miterlimit:10;}
	.st1{fill:none;stroke:#BBE5FF;stroke-width:0.783;stroke-linecap:round;stroke-miterlimit:9.9999;}
	.st2{fill:none;stroke:#8AB7CE;stroke-width:0.783;stroke-miterlimit:10;}
	.st3{opacity:0.24;}
	.st4{fill:#333854;}
	.st5{fill:#C9D7E4;}
	.st6{fill:#0275BB;}
	.st7{fill:none;stroke:#8AB7CE;stroke-width:0.783;stroke-linecap:round;stroke-miterlimit:10;}
	.st8{fill:#10203B;}
	.st9{fill:#567DBE;}
	.st10{fill:none;stroke:#567DBE;stroke-width:0.784;stroke-miterlimit:10;}
	.st11{fill:none;stroke:#96C1EA;stroke-width:1.044;stroke-miterlimit:10;}
	.st12{fill:#F78C57;}
	.st13{fill:none;stroke:#96C1EA;stroke-width:1.044;stroke-miterlimit:9.9995;}
	.st14{fill:#F58A1F;}
	.st15{fill:none;stroke:#F58A1F;stroke-width:0.784;stroke-miterlimit:10;}
	.st16{enable-background:new    ;}
	.st17{fill:#FFFFFF;}
</style>
<g id="Group_1147" transform="translate(27.194 0.4)">
	<line id="Line_29" class="st0" x1="258.3" y1="689.4" x2="258.3" y2="11.4"/>
	<line id="Line_30" class="st0" x1="89.1" y1="512.9" x2="89.1" y2="150.3"/>
	<line id="Line_31" class="st0" x1="296.5" y1="598.7" x2="296.5" y2="60.7"/>
	<line id="Line_32" class="st0" x1="458.2" y1="598.7" x2="458.2" y2="66.5"/>
	<line id="Line_33" class="st0" x1="615.4" y1="701.9" x2="615.4" y2="79"/>
	<circle id="Ellipse_133" class="st0" cx="89.1" cy="144.4" r="5.8"/>
	
		<ellipse id="Ellipse_134" transform="matrix(0.4061 -0.9138 0.9138 0.4061 148.0891 239.4849)" class="st1" cx="258.3" cy="5.8" rx="5.8" ry="5.8"/>
	<circle id="Ellipse_135" class="st0" cx="296.5" cy="55.1" r="5.8"/>
	<circle id="Ellipse_136" class="st0" cx="615.4" cy="72.4" r="5.8"/>
	<g id="Group_1144" transform="translate(683.846 108.269)">
		<line id="Line_34" class="st0" x1="5.9" y1="246.9" x2="5.9" y2="12.5"/>
		<circle id="Ellipse_137" class="st0" cx="5.9" cy="5.8" r="5.8"/>
	</g>
	<g id="Group_1145" transform="translate(774.023 260.513)">
		<line id="Line_35" class="st0" x1="5.9" y1="338.2" x2="5.9" y2="12.5"/>
		<circle id="Ellipse_138" class="st0" cx="5.9" cy="5.8" r="5.8"/>
	</g>
	<g id="Group_1146" transform="translate(0 245.205)">
		<line id="Line_36" class="st0" x1="5.9" y1="337.9" x2="5.9" y2="12.5"/>
		<circle id="Ellipse_139" class="st0" cx="5.9" cy="5.8" r="5.8"/>
	</g>
	<circle id="Ellipse_140" class="st0" cx="458.2" cy="60.7" r="5.8"/>
</g>
<g id="Group_1148" transform="translate(54.748 132.883)">
	<path id="Path_3134" class="st2" d="M717.9,244.1v-66.5c0-6-4.6-10.9-10.6-11.4l-29.5-1.9c-3.8-14.5-9.6-28.5-17.3-41.5l19.5-22.3
		c3.9-4.6,3.6-11.3-0.6-15.6l-47-47c-4.3-4.2-11-4.4-15.6-0.6l-22.3,19.5c-13-7.5-27-13.3-41.5-17.3l-1.7-28.9
		C551,4.6,546-0.1,540,0h-66.5c-6,0-10.9,4.6-11.4,10.6l-1.9,29.5c-14.5,3.8-28.5,9.6-41.5,17.3l-22.3-19.5
		c-4.6-3.9-11.3-3.6-15.6,0.6l-46.5,46.8c-4.2,4.3-4.4,11-0.6,15.6l19.5,22.3c-7.5,13-13.3,27-17.3,41.5l-29.5,1.9
		c-6,0.4-10.6,5.4-10.6,11.4v66.5c0,6,4.6,10.9,10.6,11.4l29.5,1.9c3.8,14.5,9.6,28.5,17.3,41.5l-19.5,22.3
		c-3.9,4.6-3.6,11.3,0.6,15.6l47,47c4.3,4.2,11,4.4,15.6,0.6l22.3-19.5c13,7.5,27,13.3,41.5,17.3l1.9,29.5c0.4,6,5.4,10.6,11.4,10.6
		h66.5c6,0,10.9-4.6,11.4-10.6l1.9-29.5c14.5-3.8,28.5-9.6,41.5-17.3l22.3,19.5c4.6,3.9,11.3,3.6,15.6-0.6l47-47
		c4.2-4.3,4.4-11,0.6-15.6l-19.5-22.3c7.5-13,13.3-27,17.3-41.5l29.5-1.9C713.1,255.2,717.9,250.2,717.9,244.1z M517.5,315.1
		c-57.5,5.9-109-35.9-114.9-93.5c-0.7-7.1-0.7-14.3,0-21.5c4.7-49,44.5-88.8,93.5-93.5c57.6-5.9,109,36,114.9,93.5
		S575,309.1,517.5,315.1L517.5,315.1z"/>
	<path id="Path_3135" class="st2" d="M287.8,327v-45.4c0.1-4.1-3.1-7.6-7.2-7.8l-20-1.4c-2.7-9.9-6.7-19.4-11.7-28.4l13.4-15
		c2.7-3,2.6-7.7-0.3-10.6l-32.3-32c-2.9-2.9-7.5-3-10.6-0.3l-15,13.4c-9-5-18.5-9-28.4-11.7l-1.4-20c-0.2-4.1-3.7-7.3-7.8-7.2h-45.4
		c-4.1-0.1-7.6,3.1-7.8,7.2l-1.4,20c-9.9,2.7-19.4,6.7-28.4,11.7l-15-13.4c-3-2.7-7.7-2.6-10.6,0.3l-32,32c-2.9,2.9-3,7.5-0.3,10.6
		L39,244c-5,9-9,18.5-11.7,28.4l-20,1.4c-4.1,0.2-7.3,3.7-7.2,7.8V327c-0.1,4.1,3.1,7.6,7.2,7.8l20,1.4c2.7,9.9,6.7,19.4,11.7,28.4
		l-13.4,15c-2.7,3-2.6,7.7,0.3,10.6l32,32c2.9,2.9,7.5,3,10.6,0.3l15-13.4c9,5,18.5,9,28.4,11.7l1.4,20c0.2,4.1,3.7,7.3,7.8,7.2
		h45.4c4.1,0.1,7.6-3.1,7.8-7.2l1.4-20c9.9-2.7,19.4-6.7,28.4-11.7l15,13.4c3,2.7,7.7,2.6,10.6-0.3l32-32c2.9-2.9,3-7.5,0.3-10.6
		l-13.4-15c5-9,9-18.5,11.7-28.4l20-1.4C284.5,334.7,287.9,331.2,287.8,327z M150.9,375.7c-39.3,4.1-74.4-24.5-78.5-63.8
		c-0.5-4.9-0.5-9.8,0-14.7c3.3-33.4,30.3-60.7,64-64c39.3-4.1,74.4,24.5,78.5,63.8c0.5,4.9,0.5,9.8,0,14.7
		C211.6,345.1,184.6,372.4,150.9,375.7z"/>
</g>
<g id="Group_1150" transform="translate(33.039 692.595)" class="st3">
	<g id="Group_1149">
		<path id="Path_3136" class="st4" d="M753.8,114.4H0.1L146.7,0h460.1L753.8,114.4z"/>
	</g>
</g>
<g id="Group_1166" transform="translate(0.358 355.543)">
	<rect id="Rectangle_307" x="179.4" y="0" class="st5" width="460.1" height="267.5"/>
	<g id="Group_1165" transform="translate(0 7.793)">
		<g id="Group_1162" transform="translate(192.996)">
			<rect id="Rectangle_308" x="0.1" y="0" class="st4" width="433.1" height="251.6"/>
			<g id="Group_1161" transform="translate(23.101 24.771)">
				<g id="Group_1151" transform="translate(0 22.823)">
					<path id="Path_3137" class="st6" d="M100.8,7.2H3.7c-2,0-3.6-1.6-3.6-3.6l0,0c0-2,1.6-3.6,3.6-3.6h97.1c2,0,3.6,1.6,3.6,3.6
						l0,0C104.4,5.6,102.8,7.2,100.8,7.2z"/>
					<path id="Path_3138" class="st6" d="M214.9,7.2h-97.1c-2,0-3.6-1.6-3.6-3.6l0,0c0-2,1.6-3.6,3.6-3.6h97.1c2,0,3.6,1.6,3.6,3.6
						l0,0C218.5,5.6,216.9,7.2,214.9,7.2z"/>
					<path id="Path_3139" class="st6" d="M260.8,7.2h-26.7c-2,0-3.6-1.6-3.6-3.6l0,0c0-2,1.6-3.6,3.6-3.6h26.7c2,0,3.6,1.6,3.6,3.6
						l0,0c0.1,1.9-1.5,3.6-3.4,3.6C261,7.2,260.9,7.2,260.8,7.2z"/>
				</g>
				<g id="Group_1153" transform="translate(0 45.645)">
					<path id="Path_3142" class="st6" d="M50.7,7.2h-47c-2,0-3.6-1.6-3.6-3.6l0,0c0-2,1.6-3.6,3.6-3.6h47c2,0,3.6,1.6,3.6,3.6l0,0
						C54.3,5.6,52.7,7.2,50.7,7.2z"/>
					<path id="Path_3143" class="st6" d="M146.7,7.2H63.8c-2,0-3.6-1.6-3.6-3.6l0,0c0-2,1.6-3.6,3.6-3.6h82.9c2,0,3.6,1.6,3.6,3.6
						l0,0C150.3,5.6,148.7,7.2,146.7,7.2z"/>
				</g>
				<g id="Group_1154">
					<path id="Path_3144" class="st6" d="M89.1,7.2H3.7c-2,0-3.6-1.6-3.6-3.6l0,0c0-2,1.6-3.6,3.6-3.6h85.4c2,0,3.6,1.6,3.6,3.6l0,0
						C92.7,5.6,91.1,7.2,89.1,7.2z"/>
					<path id="Path_3145" class="st6" d="M306.5,7.2H107.2c-2,0-3.6-1.6-3.6-3.6l0,0c0-2,1.6-3.6,3.6-3.6h199.3c2,0,3.6,1.6,3.6,3.6
						l0,0C310.1,5.6,308.5,7.2,306.5,7.2z"/>
				</g>
				<g id="Group_1157" transform="translate(0 205.126)">
					<path id="Path_3151" class="st6" d="M132,7.2H3.7c-2,0-3.6-1.6-3.6-3.6l0,0c0-2,1.6-3.6,3.6-3.6H132c2,0,3.6,1.6,3.6,3.6l0,0
						C135.6,5.6,134,7.2,132,7.2z"/>
					<path id="Path_3152" class="st6" d="M228,7.2h-76.5c-2,0-3.6-1.6-3.6-3.6l0,0c0-2,1.6-3.6,3.6-3.6H228c2,0,3.6,1.6,3.6,3.6l0,0
						C231.6,5.6,230,7.2,228,7.2z"/>
				</g>
				<g id="Group_1160" transform="translate(0 182.303)">
					<path id="Path_3157" class="st6" d="M260.8,7.2h-42.6c-2,0-3.6-1.6-3.6-3.6l0,0c0-2,1.6-3.6,3.6-3.6h42.6c2,0,3.6,1.6,3.6,3.6
						l0,0c0.1,1.9-1.5,3.6-3.4,3.6C261,7.2,260.9,7.2,260.8,7.2z"/>
					<path id="Path_3158" class="st6" d="M203,7.2H3.7c-2,0-3.6-1.6-3.6-3.6l0,0c0-2,1.6-3.6,3.6-3.6H203c2,0,3.6,1.6,3.6,3.6l0,0
						C206.5,5.6,204.9,7.2,203,7.2z"/>
				</g>
			</g>
		</g>
		<path id="Path_3159" class="st5" d="M786.4,373.8H32.7l146.7-114.1h460.1L786.4,373.8z"/>
		<g id="Group_1163" transform="translate(0 251.328)">
			<line id="Line_37" class="st7" x1="146.3" y1="15.3" x2="166.6" y2="0"/>
			<line id="Line_38" class="st7" x1="73.6" y1="70.1" x2="139.1" y2="20.9"/>
			<path id="Path_3160" class="st7" d="M110.4,147.2H14.6c-13.9,0-20-17.8-8.6-26.2l20.9-15.9"/>
			<line id="Line_39" class="st7" x1="513.7" y1="147.2" x2="179.4" y2="147.2"/>
			<line id="Line_40" class="st7" x1="735.8" y1="147.2" x2="574.4" y2="147.2"/>
			<line id="Line_41" class="st7" x1="729.9" y1="60.7" x2="758.9" y2="82.4"/>
			<line id="Line_42" class="st7" x1="669" y1="14.7" x2="724.4" y2="56.5"/>
		</g>
		<g id="Group_1164" transform="translate(144.568 263.018)">
			<path id="Path_3161" class="st8" d="M81.9,7.2h-25L66,0h23.9L81.9,7.2z"/>
			<path id="Path_3162" class="st8" d="M67.7,20.6H39.9l10.6-8.4h26.4L67.7,20.6z"/>
			<path id="Path_3163" class="st8" d="M109.7,20.6H82.2l8.6-8.4h26.4L109.7,20.6z"/>
			<path id="Path_3164" class="st8" d="M152,20.6h-27.6l6.4-8.4h26.4L152,20.6z"/>
			<path id="Path_3165" class="st8" d="M194.3,20.6h-27.8l4.7-8.4h26.4L194.3,20.6z"/>
			<path id="Path_3166" class="st8" d="M236.6,20.6h-27.8l2.8-8.4H238L236.6,20.6z"/>
			<path id="Path_3167" class="st8" d="M278.9,20.6h-27.8l0.6-8.4h26.4L278.9,20.6z"/>
			<path id="Path_3168" class="st8" d="M321,20.6h-27.6l-1.4-8.4h26.4L321,20.6z"/>
			<path id="Path_3169" class="st8" d="M363.3,20.6h-27.6l-3.3-8.4h26.4L363.3,20.6z"/>
			<path id="Path_3170" class="st8" d="M405.6,20.6h-27.8l-5.3-8.4h26.4L405.6,20.6z"/>
			<path id="Path_3171" class="st8" d="M447.9,20.6H420l-7.2-8.4h26.4L447.9,20.6z"/>
			<path id="Path_3172" class="st8" d="M490.2,20.6h-27.8l-9.2-8.4h26.2L490.2,20.6z"/>
			<path id="Path_3173" class="st8" d="M51.8,34.5H22l12.2-9.7h28.4L51.8,34.5z"/>
			<path id="Path_3174" class="st8" d="M97.5,34.5H67.7l10-9.7h28.4L97.5,34.5z"/>
			<path id="Path_3175" class="st8" d="M143.1,34.5h-29.8l7.5-9.7h28.4L143.1,34.5z"/>
			<path id="Path_3176" class="st8" d="M188.8,34.5h-30.1l5.6-9.7h28.4L188.8,34.5z"/>
			<path id="Path_3177" class="st8" d="M234.4,34.5h-30.1l3.1-9.7h28.4L234.4,34.5z"/>
			<path id="Path_3178" class="st8" d="M280,34.5h-30l0.8-9.7h28.4L280,34.5z"/>
			<path id="Path_3179" class="st8" d="M325.4,34.5h-29.8l-1.7-9.7h28.4L325.4,34.5z"/>
			<path id="Path_3180" class="st8" d="M371.1,34.5h-29.8l-3.9-9.7h28.4L371.1,34.5z"/>
			<path id="Path_3181" class="st8" d="M416.7,34.5h-29.8l-6.4-9.7h28.4L416.7,34.5z"/>
			<path id="Path_3182" class="st8" d="M462.3,34.5h-30.1l-8.3-9.7h28.4L462.3,34.5z"/>
			<path id="Path_3183" class="st8" d="M508,34.5h-30.1L467,24.8h28.4L508,34.5z"/>
			<path id="Path_3184" class="st8" d="M32.6,51.8H0.1l14.5-11.4h30.9L32.6,51.8z"/>
			<path id="Path_3185" class="st8" d="M82.4,51.8H49.9l11.7-11.4h30.9L82.4,51.8z"/>
			<path id="Path_3186" class="st8" d="M380,51.8H99.4l9.2-11.4h265L380,51.8z"/>
			<path id="Path_3187" class="st8" d="M430.3,51.8h-32.6l-7.2-11.4h30.9L430.3,51.8z"/>
			<path id="Path_3188" class="st8" d="M480.2,51.8h-32.6l-10-11.4h30.6L480.2,51.8z"/>
			<path id="Path_3189" class="st8" d="M530,51.8h-32.8l-12.8-11.4h30.9L530,51.8z"/>
			<path id="Path_3190" class="st8" d="M132.5,7.2h-25l7-7.2h23.9L132.5,7.2z"/>
			<path id="Path_3191" class="st8" d="M168.4,7.2h-25l5.3-7.2h23.9L168.4,7.2z"/>
			<path id="Path_3192" class="st8" d="M204.1,7.2h-25L183,0h23.9L204.1,7.2z"/>
			<path id="Path_3193" class="st8" d="M240,7.2h-25l2.2-7.2h23.9L240,7.2z"/>
			<path id="Path_3194" class="st8" d="M275.6,7.2h-25l0.8-7.2h23.9L275.6,7.2z"/>
			<path id="Path_3195" class="st8" d="M311.5,7.2h-25L285.6,0h23.9L311.5,7.2z"/>
			<path id="Path_3196" class="st8" d="M348.5,7.2h-25.1L321,0h23.9L348.5,7.2z"/>
			<path id="Path_3197" class="st8" d="M405,7.2h-25L375,0h23.9L405,7.2z"/>
			<path id="Path_3198" class="st8" d="M439.2,7.2h-25L407.5,0h23.9L439.2,7.2z"/>
			<path id="Path_3199" class="st8" d="M473.2,7.2h-25.1l-8-7.2H464L473.2,7.2z"/>
			<path id="Path_3200" class="st8" d="M351,95.5H179l13.6-32h144.7L351,95.5z"/>
		</g>
		<path id="Path_3201" class="st9" d="M775.3,386.6H43.9c-6.1,0-11.1-5-11.1-11.1v-1.4h753.7v1.4
			C786.4,381.6,781.4,386.6,775.3,386.6z"/>
	</g>
</g>
<g id="Group_1169" transform="translate(68.108 259.799)">
	<path id="Path_3203" class="st9" d="M139.2,300.8h-79c-13.8,0-25-11.2-25-25v-79c0-13.8,11.2-25,25-25h79c13.8,0,25,11.2,25,25v79
		C164.1,289.5,153,300.6,139.2,300.8z"/>
	<path id="Path_3204" class="st10" d="M143.7,308.6H55.4c-15.4,0-27.8-12.5-27.8-27.8v-88.2c0-15.4,12.5-27.8,27.8-27.8h88.2
		c15.4,0,27.8,12.5,27.8,27.8v88.2c0.2,15.2-12.1,27.7-27.3,27.8C144,308.6,143.8,308.6,143.7,308.6z"/>
</g>
<circle id="Ellipse_142" class="st11" cx="736.1" cy="598.8" r="5.8"/>
<circle id="Ellipse_143" class="st11" cx="652.9" cy="225" r="5.8"/>
<circle id="Ellipse_144" class="st12" cx="699.7" cy="365.3" r="3.6"/>
<ellipse id="Ellipse_145" transform="matrix(6.652028e-02 -0.9978 0.9978 6.652028e-02 -460.1975 671.1123)" class="st12" cx="128.6" cy="581.5" rx="3.6" ry="3.6"/>
<circle id="Ellipse_146" class="st12" cx="175.3" cy="225" r="3.6"/>
<circle id="Ellipse_147" class="st12" cx="674.9" cy="611.9" r="3.6"/>
<circle id="Ellipse_148" class="st11" cx="270.8" cy="287.3" r="5.8"/>
<ellipse id="Ellipse_149" transform="matrix(6.652048e-02 -0.9978 0.9978 6.652048e-02 -531.8437 625.125)" class="st13" cx="68.2" cy="596.8" rx="5.8" ry="5.8"/>
<circle id="Ellipse_150" class="st11" cx="134.4" cy="225" r="5.8"/>
<g>
	<path id="Path_3219" class="st14" d="M261.2,309.9h-78.8c-13.8,0-25-11.2-25-25.1V206c0-13.8,11.2-25,25-25h79
		c13.8,0,25,11.2,25,25v79C286.2,298.9,275,309.9,261.2,309.9z"/>
	<path id="Path_3220" class="st15" d="M265.9,317.7h-88.2c-15.4,0-27.8-12.5-27.8-27.8v-88.5c0-15.4,12.5-27.8,27.8-27.8h88.2
		c15.4,0,27.8,12.5,27.8,27.8v88.2C293.8,305,281.4,317.6,265.9,317.7z"/>
</g>
<g>
	<path class="st9" d="M633.1,390.4H489.5c-12.1,0-21.9-9.8-21.9-21.9v-47.9c0-12.1,9.8-21.9,21.9-21.9h147.9
		c9.7,0,17.6,7.9,17.6,17.6v52.1C654.9,380.6,645.2,390.4,633.1,390.4z"/>
	<path class="st10" d="M641,396.4H481.5c-10.7,0-19.4-8.7-19.4-19.4v-64.8c0-10.7,8.7-19.4,19.4-19.4H641c10.7,0,19.4,8.7,19.4,19.4
		V377C660.4,387.7,651.7,396.4,641,396.4z"/>
</g>
<g class="st16">
	<path class="st17" d="M325.1,469.9v1.7h6v5h-6v19.6h-6.9v-19.6h-2.9v-5h2.9V470c0-2.7,0.8-4.8,2.5-6.4c1.6-1.6,3.7-2.4,6.1-2.4
		s4.7,0.9,6.7,2.8l-2.5,4.6c-1-1.2-2.1-1.7-3.4-1.7c-0.7,0-1.3,0.3-1.7,0.8C325.3,468.2,325.1,468.9,325.1,469.9z"/>
	<path class="st17" d="M348.4,477.4c-2.1,0-3.6,0.7-4.6,2.2c-1,1.5-1.5,3.4-1.5,5.8v10.7h-6.9v-24.8h6.9v3.3c0.9-1,2-1.9,3.3-2.6
		c1.3-0.7,2.7-1.1,4.1-1.1l0,6.5H348.4z"/>
	<path class="st17" d="M378.7,483.7c0,3.6-1.2,6.6-3.7,9.1s-5.6,3.7-9.4,3.7c-3.8,0-6.9-1.2-9.4-3.7s-3.7-5.5-3.7-9.1
		s1.2-6.6,3.7-9.1c2.5-2.5,5.6-3.7,9.4-3.7c3.8,0,6.9,1.2,9.4,3.7C377.4,477.1,378.7,480.1,378.7,483.7z M359.4,483.7
		c0,2,0.6,3.7,1.7,4.9c1.2,1.3,2.6,1.9,4.4,1.9s3.3-0.6,4.4-1.9c1.2-1.3,1.7-2.9,1.7-4.9s-0.6-3.7-1.7-5c-1.2-1.3-2.6-1.9-4.4-1.9
		s-3.3,0.6-4.4,1.9C360,480,359.4,481.7,359.4,483.7z"/>
	<path class="st17" d="M390.7,482.3v13.8h-6.9v-24.8h6.9v2.8c2.1-2.1,4.4-3.2,7-3.2c2.6,0,4.8,0.9,6.6,2.8c1.8,1.8,2.6,4.3,2.6,7.4
		v15H400v-14c0-3.8-1.4-5.7-4.2-5.7c-1.4,0-2.6,0.5-3.6,1.5C391.2,478.9,390.7,480.4,390.7,482.3z"/>
	<path class="st17" d="M421.1,476.3v11.1c0,1,0.2,1.7,0.7,2.2c0.5,0.5,1.1,0.8,1.7,0.8c1.3,0,2.4-0.6,3.3-1.7l2.6,4.8
		c-2.1,2-4.4,2.9-6.8,2.9c-2.4,0-4.4-0.8-6-2.3c-1.6-1.6-2.5-3.7-2.5-6.4v-11.4h-2.9v-5h2.9v-7.4h7v7.4h6v5H421.1z"/>
	<path class="st17" d="M454.5,492.5c-2.8,2.6-6.1,4-9.8,4c-3.8,0-6.9-1.2-9.3-3.5s-3.7-5.4-3.7-9.3c0-3.9,1.2-7,3.8-9.3
		c2.5-2.3,5.5-3.5,8.9-3.5c3.4,0,6.3,1,8.7,3.1s3.6,4.9,3.6,8.5v3.7h-18c0.2,1.4,0.9,2.5,2.1,3.3c1.2,0.9,2.5,1.3,4,1.3
		c2.4,0,4.4-0.8,6-2.4L454.5,492.5z M447.9,477.8c-1-0.8-2.1-1.2-3.5-1.2c-1.4,0-2.6,0.4-3.8,1.2c-1.1,0.8-1.8,1.9-2,3.4h10.9
		C449.4,479.8,448.9,478.6,447.9,477.8z"/>
	<path class="st17" d="M468.4,482.3v13.8h-6.9v-24.8h6.9v2.8c2.1-2.1,4.4-3.2,7-3.2c2.6,0,4.8,0.9,6.6,2.8c1.8,1.8,2.6,4.3,2.6,7.4
		v15h-6.9v-14c0-3.8-1.4-5.7-4.2-5.7c-1.4,0-2.6,0.5-3.6,1.5C468.9,478.9,468.4,480.4,468.4,482.3z"/>
	<path class="st17" d="M500.9,496.5c-2.9,0-5.5-1.2-7.8-3.7c-2.3-2.5-3.5-5.6-3.5-9.3c0-3.7,1.1-6.7,3.4-9c2.2-2.3,4.9-3.5,7.9-3.5
		c3,0,5.5,1.1,7.4,3.2v-12.2h6.9v34.2h-6.9v-3.3C506.2,495.3,503.8,496.5,500.9,496.5z M496.5,483.8c0,2,0.6,3.6,1.8,4.9
		c1.2,1.3,2.6,1.9,4.2,1.9s3-0.6,4.1-1.9s1.7-2.9,1.7-4.9s-0.6-3.7-1.7-5c-1.1-1.3-2.5-2-4.1-2s-3,0.7-4.2,2
		C497.1,480.1,496.5,481.8,496.5,483.8z"/>
</g>
<g class="st16">
	<path class="st17" d="M317.9,543.1c-2.9,0-5.5-1.2-7.8-3.7s-3.5-5.6-3.5-9.3c0-3.7,1.1-6.7,3.4-9c2.2-2.3,4.9-3.5,7.9-3.5
		c3,0,5.5,1.1,7.4,3.2v-12.2h6.9v34.2h-6.9v-3.3C323.3,541.9,320.8,543.1,317.9,543.1z M313.5,530.4c0,2,0.6,3.6,1.8,4.9
		s2.6,1.9,4.2,1.9c1.6,0,3-0.6,4.1-1.9c1.1-1.3,1.7-2.9,1.7-4.9s-0.6-3.7-1.7-5c-1.1-1.3-2.5-2-4.1-2c-1.6,0-3,0.7-4.2,2
		C314.1,526.7,313.5,528.4,313.5,530.4z"/>
	<path class="st17" d="M360.1,539.1c-2.8,2.6-6.1,4-9.8,4c-3.8,0-6.9-1.2-9.3-3.5c-2.5-2.3-3.7-5.4-3.7-9.3c0-3.9,1.2-7,3.8-9.3
		c2.5-2.3,5.5-3.5,8.9-3.5c3.4,0,6.3,1,8.7,3.1c2.4,2.1,3.6,4.9,3.6,8.5v3.7h-18c0.2,1.4,0.9,2.5,2.1,3.3c1.2,0.9,2.5,1.3,4.1,1.3
		c2.4,0,4.4-0.8,6-2.4L360.1,539.1z M353.4,524.4c-1-0.8-2.1-1.2-3.5-1.2c-1.4,0-2.6,0.4-3.8,1.2c-1.1,0.8-1.8,1.9-2,3.4h10.9
		C354.9,526.4,354.4,525.2,353.4,524.4z"/>
	<path class="st17" d="M373.4,542.7l-9.8-24.8h7.2l6.2,15.6l6.2-15.6h7.2l-9.8,24.8H373.4z"/>
	<path class="st17" d="M415.1,539.1c-2.8,2.6-6.1,4-9.8,4c-3.8,0-6.9-1.2-9.3-3.5c-2.5-2.3-3.7-5.4-3.7-9.3c0-3.9,1.2-7,3.8-9.3
		c2.5-2.3,5.5-3.5,8.9-3.5c3.4,0,6.3,1,8.7,3.1s3.6,4.9,3.6,8.5v3.7h-18c0.2,1.4,0.9,2.5,2.1,3.3c1.2,0.9,2.5,1.3,4.1,1.3
		c2.4,0,4.4-0.8,6-2.4L415.1,539.1z M408.5,524.4c-1-0.8-2.1-1.2-3.5-1.2c-1.4,0-2.6,0.4-3.8,1.2c-1.1,0.8-1.8,1.9-2,3.4h10.9
		C410,526.4,409.4,525.2,408.5,524.4z"/>
	<path class="st17" d="M429,542.7h-6.9v-34.2h6.9V542.7z"/>
	<path class="st17" d="M460.3,530.3c0,3.6-1.2,6.6-3.7,9.1s-5.6,3.7-9.4,3.7c-3.8,0-6.9-1.2-9.4-3.7s-3.7-5.5-3.7-9.1
		s1.2-6.6,3.7-9.1c2.5-2.5,5.6-3.7,9.4-3.7c3.8,0,6.9,1.2,9.4,3.7C459.1,523.7,460.3,526.7,460.3,530.3z M441.1,530.3
		c0,2,0.6,3.7,1.7,4.9c1.2,1.3,2.6,1.9,4.4,1.9s3.3-0.6,4.4-1.9s1.7-2.9,1.7-4.9s-0.6-3.7-1.7-5c-1.2-1.3-2.6-1.9-4.4-1.9
		s-3.3,0.6-4.4,1.9C441.7,526.6,441.1,528.3,441.1,530.3z"/>
	<path class="st17" d="M479.8,517.5c2.9,0,5.5,1.2,7.7,3.6c2.3,2.4,3.4,5.4,3.4,9.1s-1.1,6.7-3.4,9.2s-4.9,3.7-7.9,3.7
		c-3,0-5.5-1.2-7.3-3.6v12.2h-6.9v-33.7h6.9v2.8C474.4,518.6,476.9,517.5,479.8,517.5z M472.2,530.3c0,2,0.6,3.7,1.7,4.9
		c1.1,1.3,2.5,1.9,4.1,1.9c1.6,0,3-0.6,4.2-1.9c1.2-1.3,1.8-2.9,1.8-4.9c0-2-0.6-3.7-1.7-5c-1.2-1.3-2.6-2-4.2-2c-1.6,0-3,0.7-4.1,2
		C472.8,526.7,472.2,528.3,472.2,530.3z"/>
	<path class="st17" d="M517.5,539.1c-2.8,2.6-6.1,4-9.8,4s-6.9-1.2-9.3-3.5s-3.7-5.4-3.7-9.3c0-3.9,1.2-7,3.8-9.3
		c2.5-2.3,5.5-3.5,8.9-3.5c3.4,0,6.3,1,8.7,3.1s3.6,4.9,3.6,8.5v3.7h-18c0.2,1.4,0.9,2.5,2.1,3.3c1.2,0.9,2.5,1.3,4.1,1.3
		c2.4,0,4.4-0.8,6-2.4L517.5,539.1z M510.9,524.4c-1-0.8-2.1-1.2-3.5-1.2s-2.6,0.4-3.8,1.2c-1.1,0.8-1.8,1.9-2,3.4h10.9
		C512.4,526.4,511.8,525.2,510.9,524.4z"/>
	<path class="st17" d="M537.5,524c-2.1,0-3.6,0.7-4.6,2.2c-1,1.5-1.5,3.4-1.5,5.8v10.7h-6.9v-24.8h6.9v3.3c0.9-1,2-1.9,3.3-2.6
		c1.3-0.7,2.7-1.1,4.1-1.1l0,6.5H537.5z"/>
</g>
<g class="st16">
	<path class="st17" d="M194.3,253.1c3.5,0,6.4-1.4,8.7-4.2l4.6,4.7c-3.7,4.1-8,6.2-12.9,6.2c-5,0-9-1.6-12.2-4.7
		c-3.2-3.1-4.8-7.1-4.8-11.9c0-4.8,1.6-8.8,4.9-11.9c3.3-3.2,7.3-4.8,12-4.8c5.3,0,9.7,2,13.3,6l-4.5,5.1c-2.3-2.8-5.1-4.2-8.5-4.2
		c-2.7,0-5,0.9-6.9,2.6c-1.9,1.8-2.9,4.1-2.9,7.1c0,3,0.9,5.4,2.7,7.2C189.6,252.2,191.7,253.1,194.3,253.1z"/>
	<path class="st17" d="M220.8,233.7c-0.7,0.6-1,1.3-1,2.3c0,0.9,0.4,1.7,1.3,2.2c0.8,0.6,2.8,1.2,5.8,2c3.1,0.8,5.4,1.9,7.1,3.4
		c1.7,1.5,2.5,3.7,2.5,6.6s-1.1,5.2-3.2,7s-5,2.7-8.5,2.7c-5.1,0-9.7-1.9-13.8-5.7l4.3-5.2c3.5,3,6.7,4.6,9.6,4.6
		c1.3,0,2.4-0.3,3.1-0.9c0.8-0.6,1.1-1.3,1.1-2.3s-0.4-1.7-1.2-2.3c-0.8-0.6-2.4-1.1-4.7-1.7c-3.7-0.9-6.5-2-8.2-3.5
		c-1.7-1.4-2.6-3.7-2.6-6.7c0-3.1,1.1-5.4,3.3-7.1c2.2-1.7,4.9-2.5,8.2-2.5c2.1,0,4.3,0.4,6.4,1.1c2.1,0.7,4,1.8,5.6,3.1l-3.6,5.2
		c-2.8-2.1-5.7-3.2-8.7-3.2C222.4,232.8,221.5,233.1,220.8,233.7z"/>
	<path class="st17" d="M250.1,233.7c-0.7,0.6-1,1.3-1,2.3c0,0.9,0.4,1.7,1.3,2.2c0.8,0.6,2.8,1.2,5.8,2c3.1,0.8,5.4,1.9,7.1,3.4
		c1.7,1.5,2.5,3.7,2.5,6.6s-1.1,5.2-3.2,7s-5,2.7-8.5,2.7c-5.1,0-9.7-1.9-13.8-5.7l4.3-5.2c3.5,3,6.7,4.6,9.6,4.6
		c1.3,0,2.4-0.3,3.1-0.9c0.8-0.6,1.1-1.3,1.1-2.3s-0.4-1.7-1.2-2.3c-0.8-0.6-2.4-1.1-4.7-1.7c-3.7-0.9-6.5-2-8.2-3.5
		c-1.7-1.4-2.6-3.7-2.6-6.7c0-3.1,1.1-5.4,3.3-7.1c2.2-1.7,4.9-2.5,8.2-2.5c2.1,0,4.3,0.4,6.4,1.1c2.1,0.7,4,1.8,5.6,3.1l-3.6,5.2
		c-2.8-2.1-5.7-3.2-8.7-3.2C251.8,232.8,250.8,233.1,250.1,233.7z"/>
</g>
<g class="st16">
	<path class="st17" d="M518.8,347v13.3h-6.9v-34.2h6.9v12.2c2.1-2.1,4.4-3.2,7-3.2s4.8,0.9,6.6,2.8s2.7,4.3,2.7,7.4v15h-6.9v-13.5
		c0-3.8-1.4-5.7-4.2-5.7c-1.4,0-2.6,0.5-3.6,1.5C519.3,343.7,518.8,345.1,518.8,347z"/>
	<path class="st17" d="M549.6,340.6v11.1c0,1,0.2,1.7,0.7,2.2c0.5,0.5,1.1,0.8,1.7,0.8c1.3,0,2.4-0.6,3.3-1.7l2.6,4.8
		c-2.1,2-4.4,2.9-6.8,2.9c-2.4,0-4.4-0.8-6-2.3c-1.6-1.6-2.5-3.7-2.5-6.4v-11.4h-2.9v-5h2.9v-7.4h7v7.4h6v5H549.6z"/>
	<path class="st17" d="M584.3,347v13.3h-7v-13.5c0-2-0.3-3.4-0.9-4.3c-0.6-0.9-1.6-1.4-2.9-1.4c-1.3,0-2.5,0.5-3.5,1.5
		c-1,1-1.5,2.5-1.5,4.4v13.3h-6.9v-24.8h6.9v2.8c1.9-2.1,4.1-3.2,6.5-3.2c1.6,0,3,0.5,4.3,1.4c1.3,0.9,2.2,2,2.9,3.4
		c1-1.5,2.2-2.7,3.8-3.5c1.6-0.8,3.2-1.2,4.9-1.2c2.9,0,5.3,0.9,7,2.6s2.7,4.2,2.7,7.5v15h-7v-13.5c0-3.8-1.4-5.7-4.2-5.7
		c-1.4,0-2.6,0.5-3.6,1.5C584.8,343.7,584.3,345.1,584.3,347z"/>
	<path class="st17" d="M613.7,360.4h-6.9v-34.2h6.9V360.4z"/>
</g>
<g class="st16">
	<path class="st17" d="M145.3,486.3v-6.2H162v21c0,3.8-1,6.7-3,8.6c-2,1.9-4.5,2.9-7.6,2.9c-3.9,0-7.2-1.5-10.1-4.5l3.7-5.2
		c1.9,2.1,4,3.1,6.1,3.1c1,0,1.9-0.4,2.6-1.2c0.7-0.8,1.1-2,1.1-3.5v-15.1H145.3z"/>
	<path class="st17" d="M177.2,486.5c-0.7,0.6-1,1.3-1,2.3c0,0.9,0.4,1.7,1.3,2.2c0.8,0.6,2.8,1.2,5.8,2c3.1,0.8,5.4,1.9,7.1,3.4
		c1.7,1.5,2.5,3.7,2.5,6.6s-1.1,5.2-3.2,7s-5,2.7-8.5,2.7c-5.1,0-9.7-1.9-13.8-5.7l4.3-5.2c3.5,3,6.7,4.6,9.6,4.6
		c1.3,0,2.4-0.3,3.1-0.9c0.8-0.6,1.1-1.3,1.1-2.3s-0.4-1.7-1.2-2.3c-0.8-0.6-2.4-1.1-4.7-1.7c-3.7-0.9-6.5-2-8.2-3.5
		c-1.7-1.4-2.6-3.7-2.6-6.7c0-3.1,1.1-5.4,3.3-7.1c2.2-1.7,4.9-2.5,8.2-2.5c2.1,0,4.3,0.4,6.4,1.1c2.1,0.7,4,1.8,5.6,3.1l-3.6,5.2
		c-2.8-2.1-5.7-3.2-8.7-3.2C178.8,485.7,177.9,486,177.2,486.5z"/>
</g>
</svg>
