<?xml version="1.0" encoding="utf-8"?>
<!-- Generator: Adobe Illustrator 24.0.0, SVG Export Plug-In . SVG Version: 6.00 Build 0)  -->
<svg version="1.1" id="Layer_1" xmlns="http://www.w3.org/2000/svg" xmlns:xlink="http://www.w3.org/1999/xlink" x="0px" y="0px"
	 viewBox="0 0 813.3 807" style="enable-background:new 0 0 813.3 807;" xml:space="preserve">
<style type="text/css">
	.st0{fill:none;stroke:#BBE5FF;stroke-width:0.783;stroke-linecap:round;stroke-miterlimit:10;}
	.st1{fill:none;stroke:#8AB7CE;stroke-width:0.783;stroke-miterlimit:10;}
	.st2{opacity:0.24;}
	.st3{fill:#333854;}
	.st4{fill:#C9D7E4;}
	.st5{fill:#0275BB;}
	.st6{fill:none;stroke:#8AB7CE;stroke-width:0.783;stroke-linecap:round;stroke-miterlimit:10;}
	.st7{fill:#10203B;}
	.st8{fill:#567DBE;}
	.st9{fill:none;stroke:#567DBE;stroke-width:0.784;stroke-miterlimit:10;}
	.st10{fill:none;stroke:#96C1EA;stroke-width:1.044;stroke-miterlimit:10;}
	.st11{fill:#F78C57;}
	.st12{fill:#F58A1F;}
	.st13{fill:none;stroke:#F58A1F;stroke-width:0.784;stroke-miterlimit:10;}
	.st14{enable-background:new    ;}
	.st15{fill:#FFFFFF;}
</style>
<g id="Group_1147" transform="translate(27.194 0.4)">
	<line id="Line_29" class="st0" x1="258.3" y1="689.4" x2="258.3" y2="11.4"/>
	<line id="Line_30" class="st0" x1="89.1" y1="512.9" x2="89.1" y2="150.3"/>
	<line id="Line_31" class="st0" x1="296.5" y1="598.7" x2="296.5" y2="60.7"/>
	<line id="Line_32" class="st0" x1="458.2" y1="598.7" x2="458.2" y2="66.5"/>
	<line id="Line_33" class="st0" x1="615.4" y1="701.9" x2="615.4" y2="79"/>
	<circle id="Ellipse_133" class="st0" cx="89.1" cy="144.4" r="5.8"/>
	<circle id="Ellipse_134" class="st0" cx="258.3" cy="5.8" r="5.8"/>
	<circle id="Ellipse_135" class="st0" cx="296.5" cy="55.1" r="5.8"/>
	<circle id="Ellipse_136" class="st0" cx="615.4" cy="72.4" r="5.8"/>
	<g id="Group_1144" transform="translate(683.846 108.269)">
		<line id="Line_34" class="st0" x1="5.9" y1="246.9" x2="5.9" y2="12.5"/>
		<circle id="Ellipse_137" class="st0" cx="5.9" cy="5.8" r="5.8"/>
	</g>
	<g id="Group_1145" transform="translate(774.023 260.513)">
		<line id="Line_35" class="st0" x1="5.9" y1="338.2" x2="5.9" y2="12.5"/>
		<circle id="Ellipse_138" class="st0" cx="5.9" cy="5.8" r="5.8"/>
	</g>
	<g id="Group_1146" transform="translate(0 245.205)">
		<line id="Line_36" class="st0" x1="5.9" y1="337.9" x2="5.9" y2="12.5"/>
		<circle id="Ellipse_139" class="st0" cx="5.9" cy="5.8" r="5.8"/>
	</g>
	<circle id="Ellipse_140" class="st0" cx="458.2" cy="60.7" r="5.8"/>
</g>
<g id="Group_1148" transform="translate(54.748 132.883)">
	<path id="Path_3134" class="st1" d="M717.9,244.1v-66.5c0-6-4.6-10.9-10.6-11.4l-29.5-1.9c-3.8-14.5-9.6-28.5-17.3-41.5l19.5-22.3
		c3.9-4.6,3.6-11.3-0.6-15.6l-47-47c-4.3-4.2-11-4.4-15.6-0.6l-22.3,19.5c-13-7.5-27-13.3-41.5-17.3l-1.7-28.9
		C551,4.6,546-0.1,540,0h-66.5c-6,0-10.9,4.6-11.4,10.6l-1.9,29.5c-14.5,3.8-28.5,9.6-41.5,17.3l-22.3-19.5
		c-4.6-3.9-11.3-3.6-15.6,0.6l-46.5,46.8c-4.2,4.3-4.4,11-0.6,15.6l19.5,22.3c-7.5,13-13.3,27-17.3,41.5l-29.5,1.9
		c-6,0.4-10.6,5.4-10.6,11.4v66.5c0,6,4.6,10.9,10.6,11.4l29.5,1.9c3.8,14.5,9.6,28.5,17.3,41.5l-19.5,22.3
		c-3.9,4.6-3.6,11.3,0.6,15.6l47,47c4.3,4.2,11,4.4,15.6,0.6l22.3-19.5c13,7.5,27,13.3,41.5,17.3l1.9,29.5c0.4,6,5.4,10.6,11.4,10.6
		h66.5c6,0,10.9-4.6,11.4-10.6l1.9-29.5c14.5-3.8,28.5-9.6,41.5-17.3l22.3,19.5c4.6,3.9,11.3,3.6,15.6-0.6l47-47
		c4.2-4.3,4.4-11,0.6-15.6l-19.5-22.3c7.5-13,13.3-27,17.3-41.5l29.5-1.9C713.1,255.2,717.9,250.2,717.9,244.1z M517.5,315.1
		c-57.5,5.9-109-35.9-114.9-93.5c-0.7-7.1-0.7-14.3,0-21.5c4.7-49,44.5-88.8,93.5-93.5c57.6-5.9,109,36,114.9,93.5
		S575,309.1,517.5,315.1L517.5,315.1z"/>
	<path id="Path_3135" class="st1" d="M287.8,327v-45.4c0.1-4.1-3.1-7.6-7.2-7.8l-20-1.4c-2.7-9.9-6.7-19.4-11.7-28.4l13.4-15
		c2.7-3,2.6-7.7-0.3-10.6l-32.3-32c-2.9-2.9-7.5-3-10.6-0.3l-15,13.4c-9-5-18.5-9-28.4-11.7l-1.4-20c-0.2-4.1-3.7-7.3-7.8-7.2h-45.4
		c-4.1-0.1-7.6,3.1-7.8,7.2l-1.4,20c-9.9,2.7-19.4,6.7-28.4,11.7l-15-13.4c-3-2.7-7.7-2.6-10.6,0.3l-32,32c-2.9,2.9-3,7.5-0.3,10.6
		l13.4,15c-5,9-9,18.5-11.7,28.4l-20,1.4c-4.1,0.2-7.3,3.7-7.2,7.8V327c-0.1,4.1,3.1,7.6,7.2,7.8l20,1.4c2.7,9.9,6.7,19.4,11.7,28.4
		l-13.4,15c-2.7,3-2.6,7.7,0.3,10.6l32,32c2.9,2.9,7.5,3,10.6,0.3l15-13.4c9,5,18.5,9,28.4,11.7l1.4,20c0.2,4.1,3.7,7.3,7.8,7.2
		h45.4c4.1,0.1,7.6-3.1,7.8-7.2l1.4-20c9.9-2.7,19.4-6.7,28.4-11.7l15,13.4c3,2.7,7.7,2.6,10.6-0.3l32-32c2.9-2.9,3-7.5,0.3-10.6
		l-13.4-15c5-9,9-18.5,11.7-28.4l20-1.4C284.5,334.7,287.9,331.2,287.8,327z M150.9,375.7c-39.3,4.1-74.4-24.5-78.5-63.8
		c-0.5-4.9-0.5-9.8,0-14.7c3.3-33.4,30.3-60.7,64-64c39.3-4.1,74.4,24.5,78.5,63.8c0.5,4.9,0.5,9.8,0,14.7
		C211.6,345.1,184.6,372.4,150.9,375.7z"/>
</g>
<g id="Group_1150" transform="translate(33.039 692.595)" class="st2">
	<g id="Group_1149">
		<path id="Path_3136" class="st3" d="M753.8,114.4H0.1L146.7,0h460.1L753.8,114.4z"/>
	</g>
</g>
<g id="Group_1166" transform="translate(0.358 355.543)">
	<rect id="Rectangle_307" x="179.4" y="0" class="st4" width="460.1" height="267.5"/>
	<g id="Group_1165" transform="translate(0 7.793)">
		<g id="Group_1162" transform="translate(192.996)">
			<rect id="Rectangle_308" x="0.1" y="0" class="st3" width="433.1" height="251.6"/>
			<g id="Group_1161" transform="translate(23.101 24.771)">
				<g id="Group_1151" transform="translate(0 22.823)">
					<path id="Path_3137" class="st5" d="M100.8,7.2H3.7c-2,0-3.6-1.6-3.6-3.6l0,0c0-2,1.6-3.6,3.6-3.6h97.1c2,0,3.6,1.6,3.6,3.6
						l0,0C104.4,5.6,102.8,7.2,100.8,7.2z"/>
					<path id="Path_3138" class="st5" d="M214.9,7.2h-97.1c-2,0-3.6-1.6-3.6-3.6l0,0c0-2,1.6-3.6,3.6-3.6h97.1c2,0,3.6,1.6,3.6,3.6
						l0,0C218.5,5.6,216.9,7.2,214.9,7.2z"/>
					<path id="Path_3139" class="st5" d="M260.8,7.2h-26.7c-2,0-3.6-1.6-3.6-3.6l0,0c0-2,1.6-3.6,3.6-3.6h26.7c2,0,3.6,1.6,3.6,3.6
						l0,0c0.1,1.9-1.5,3.6-3.4,3.6C261,7.2,260.9,7.2,260.8,7.2z"/>
				</g>
				<g id="Group_1153" transform="translate(0 45.645)">
					<path id="Path_3142" class="st5" d="M50.7,7.2h-47c-2,0-3.6-1.6-3.6-3.6l0,0c0-2,1.6-3.6,3.6-3.6h47c2,0,3.6,1.6,3.6,3.6l0,0
						C54.3,5.6,52.7,7.2,50.7,7.2z"/>
					<path id="Path_3143" class="st5" d="M146.7,7.2H63.8c-2,0-3.6-1.6-3.6-3.6l0,0c0-2,1.6-3.6,3.6-3.6h82.9c2,0,3.6,1.6,3.6,3.6
						l0,0C150.3,5.6,148.7,7.2,146.7,7.2z"/>
				</g>
				<g id="Group_1154">
					<path id="Path_3144" class="st5" d="M89.1,7.2H3.7c-2,0-3.6-1.6-3.6-3.6l0,0c0-2,1.6-3.6,3.6-3.6h85.4c2,0,3.6,1.6,3.6,3.6l0,0
						C92.7,5.6,91.1,7.2,89.1,7.2z"/>
					<path id="Path_3145" class="st5" d="M306.5,7.2H107.2c-2,0-3.6-1.6-3.6-3.6l0,0c0-2,1.6-3.6,3.6-3.6h199.3c2,0,3.6,1.6,3.6,3.6
						l0,0C310.1,5.6,308.5,7.2,306.5,7.2z"/>
				</g>
				<g id="Group_1157" transform="translate(0 205.126)">
					<path id="Path_3151" class="st5" d="M132,7.2H3.7c-2,0-3.6-1.6-3.6-3.6l0,0c0-2,1.6-3.6,3.6-3.6H132c2,0,3.6,1.6,3.6,3.6l0,0
						C135.6,5.6,134,7.2,132,7.2z"/>
					<path id="Path_3152" class="st5" d="M228,7.2h-76.5c-2,0-3.6-1.6-3.6-3.6l0,0c0-2,1.6-3.6,3.6-3.6H228c2,0,3.6,1.6,3.6,3.6l0,0
						C231.6,5.6,230,7.2,228,7.2z"/>
				</g>
				<g id="Group_1160" transform="translate(0 182.303)">
					<path id="Path_3157" class="st5" d="M260.8,7.2h-42.6c-2,0-3.6-1.6-3.6-3.6l0,0c0-2,1.6-3.6,3.6-3.6h42.6c2,0,3.6,1.6,3.6,3.6
						l0,0c0.1,1.9-1.5,3.6-3.4,3.6C261,7.2,260.9,7.2,260.8,7.2z"/>
					<path id="Path_3158" class="st5" d="M203,7.2H3.7c-2,0-3.6-1.6-3.6-3.6l0,0c0-2,1.6-3.6,3.6-3.6H203c2,0,3.6,1.6,3.6,3.6l0,0
						C206.5,5.6,204.9,7.2,203,7.2z"/>
				</g>
			</g>
		</g>
		<path id="Path_3159" class="st4" d="M786.4,373.8H32.7l146.7-114.1h460.1L786.4,373.8z"/>
		<g id="Group_1163" transform="translate(0 251.328)">
			<line id="Line_37" class="st6" x1="146.3" y1="15.3" x2="166.6" y2="0"/>
			<line id="Line_38" class="st6" x1="73.6" y1="70.1" x2="139.1" y2="20.9"/>
			<path id="Path_3160" class="st6" d="M110.4,147.2H14.6c-13.9,0-20-17.8-8.6-26.2l20.9-15.9"/>
			<line id="Line_39" class="st6" x1="513.7" y1="147.2" x2="179.4" y2="147.2"/>
			<line id="Line_40" class="st6" x1="735.8" y1="147.2" x2="574.4" y2="147.2"/>
			<line id="Line_41" class="st6" x1="729.9" y1="60.7" x2="758.9" y2="82.4"/>
			<line id="Line_42" class="st6" x1="669" y1="14.7" x2="724.4" y2="56.5"/>
		</g>
		<g id="Group_1164" transform="translate(144.568 263.018)">
			<path id="Path_3161" class="st7" d="M81.9,7.2h-25L66,0h23.9L81.9,7.2z"/>
			<path id="Path_3162" class="st7" d="M67.7,20.6H39.9l10.6-8.4h26.4L67.7,20.6z"/>
			<path id="Path_3163" class="st7" d="M109.7,20.6H82.2l8.6-8.4h26.4L109.7,20.6z"/>
			<path id="Path_3164" class="st7" d="M152,20.6h-27.6l6.4-8.4h26.4L152,20.6z"/>
			<path id="Path_3165" class="st7" d="M194.3,20.6h-27.8l4.7-8.4h26.4L194.3,20.6z"/>
			<path id="Path_3166" class="st7" d="M236.6,20.6h-27.8l2.8-8.4H238L236.6,20.6z"/>
			<path id="Path_3167" class="st7" d="M278.9,20.6h-27.8l0.6-8.4h26.4L278.9,20.6z"/>
			<path id="Path_3168" class="st7" d="M321,20.6h-27.6l-1.4-8.4h26.4L321,20.6z"/>
			<path id="Path_3169" class="st7" d="M363.3,20.6h-27.6l-3.3-8.4h26.4L363.3,20.6z"/>
			<path id="Path_3170" class="st7" d="M405.6,20.6h-27.8l-5.3-8.4h26.4L405.6,20.6z"/>
			<path id="Path_3171" class="st7" d="M447.9,20.6H420l-7.2-8.4h26.4L447.9,20.6z"/>
			<path id="Path_3172" class="st7" d="M490.2,20.6h-27.8l-9.2-8.4h26.2L490.2,20.6z"/>
			<path id="Path_3173" class="st7" d="M51.8,34.5H22l12.2-9.7h28.4L51.8,34.5z"/>
			<path id="Path_3174" class="st7" d="M97.5,34.5H67.7l10-9.7h28.4L97.5,34.5z"/>
			<path id="Path_3175" class="st7" d="M143.1,34.5h-29.8l7.5-9.7h28.4L143.1,34.5z"/>
			<path id="Path_3176" class="st7" d="M188.8,34.5h-30.1l5.6-9.7h28.4L188.8,34.5z"/>
			<path id="Path_3177" class="st7" d="M234.4,34.5h-30.1l3.1-9.7h28.4L234.4,34.5z"/>
			<path id="Path_3178" class="st7" d="M280,34.5H250l0.8-9.7h28.4L280,34.5z"/>
			<path id="Path_3179" class="st7" d="M325.4,34.5h-29.8l-1.7-9.7h28.4L325.4,34.5z"/>
			<path id="Path_3180" class="st7" d="M371.1,34.5h-29.8l-3.9-9.7h28.4L371.1,34.5z"/>
			<path id="Path_3181" class="st7" d="M416.7,34.5h-29.8l-6.4-9.7h28.4L416.7,34.5z"/>
			<path id="Path_3182" class="st7" d="M462.3,34.5h-30.1l-8.3-9.7h28.4L462.3,34.5z"/>
			<path id="Path_3183" class="st7" d="M508,34.5h-30.1l-10.9-9.7h28.4L508,34.5z"/>
			<path id="Path_3184" class="st7" d="M32.6,51.8H0.1l14.5-11.4h30.9L32.6,51.8z"/>
			<path id="Path_3185" class="st7" d="M82.4,51.8H49.9l11.7-11.4h30.9L82.4,51.8z"/>
			<path id="Path_3186" class="st7" d="M380,51.8H99.4l9.2-11.4h265L380,51.8z"/>
			<path id="Path_3187" class="st7" d="M430.3,51.8h-32.6l-7.2-11.4h30.9L430.3,51.8z"/>
			<path id="Path_3188" class="st7" d="M480.2,51.8h-32.6l-10-11.4h30.6L480.2,51.8z"/>
			<path id="Path_3189" class="st7" d="M530,51.8h-32.8l-12.8-11.4h30.9L530,51.8z"/>
			<path id="Path_3190" class="st7" d="M132.5,7.2h-25l7-7.2h23.9L132.5,7.2z"/>
			<path id="Path_3191" class="st7" d="M168.4,7.2h-25l5.3-7.2h23.9L168.4,7.2z"/>
			<path id="Path_3192" class="st7" d="M204.1,7.2h-25l3.9-7.2h23.9L204.1,7.2z"/>
			<path id="Path_3193" class="st7" d="M240,7.2h-25l2.2-7.2h23.9L240,7.2z"/>
			<path id="Path_3194" class="st7" d="M275.6,7.2h-25l0.8-7.2h23.9L275.6,7.2z"/>
			<path id="Path_3195" class="st7" d="M311.5,7.2h-25L285.6,0h23.9L311.5,7.2z"/>
			<path id="Path_3196" class="st7" d="M348.5,7.2h-25.1L321,0h23.9L348.5,7.2z"/>
			<path id="Path_3197" class="st7" d="M405,7.2h-25L375,0h23.9L405,7.2z"/>
			<path id="Path_3198" class="st7" d="M439.2,7.2h-25L407.5,0h23.9L439.2,7.2z"/>
			<path id="Path_3199" class="st7" d="M473.2,7.2h-25.1L440.1,0H464L473.2,7.2z"/>
			<path id="Path_3200" class="st7" d="M351,95.5H179l13.6-32h144.7L351,95.5z"/>
		</g>
		<path id="Path_3201" class="st8" d="M775.3,386.6H43.9c-6.1,0-11.1-5-11.1-11.1v-1.4h753.7v1.4
			C786.4,381.6,781.4,386.6,775.3,386.6z"/>
	</g>
</g>
<g id="Group_1169" transform="translate(68.108 259.799)">
	<path id="Path_3203" class="st8" d="M139.2,300.8h-79c-13.8,0-25-11.2-25-25v-79c0-13.8,11.2-25,25-25h79c13.8,0,25,11.2,25,25v79
		C164.1,289.5,153,300.6,139.2,300.8z"/>
	<path id="Path_3204" class="st9" d="M143.7,308.6H55.4c-15.4,0-27.8-12.5-27.8-27.8v-88.2c0-15.4,12.5-27.8,27.8-27.8h88.2
		c15.4,0,27.8,12.5,27.8,27.8v88.2c0.2,15.2-12.1,27.7-27.3,27.8C144,308.6,143.8,308.6,143.7,308.6z"/>
</g>
<circle id="Ellipse_142" class="st10" cx="736.1" cy="598.8" r="5.8"/>
<circle id="Ellipse_143" class="st10" cx="652.9" cy="225" r="5.8"/>
<circle id="Ellipse_144" class="st11" cx="699.7" cy="365.3" r="3.6"/>
<circle id="Ellipse_145" class="st11" cx="128.6" cy="581.5" r="3.6"/>
<circle id="Ellipse_146" class="st11" cx="175.3" cy="225" r="3.6"/>
<circle id="Ellipse_147" class="st11" cx="674.9" cy="611.9" r="3.6"/>
<circle id="Ellipse_148" class="st10" cx="270.8" cy="287.3" r="5.8"/>
<circle id="Ellipse_149" class="st10" cx="68.2" cy="596.8" r="5.8"/>
<circle id="Ellipse_150" class="st10" cx="134.4" cy="225" r="5.8"/>
<g>
	<path id="Path_3219" class="st12" d="M261.2,309.9h-78.8c-13.8,0-25-11.2-25-25.1v-78.8c0-13.8,11.2-25,25-25h79
		c13.8,0,25,11.2,25,25v79C286.2,298.9,275,309.9,261.2,309.9z"/>
	<path id="Path_3220" class="st13" d="M265.9,317.7h-88.2c-15.4,0-27.8-12.5-27.8-27.8v-88.5c0-15.4,12.5-27.8,27.8-27.8h88.2
		c15.4,0,27.8,12.5,27.8,27.8v88.2C293.8,305,281.4,317.6,265.9,317.7z"/>
	<g class="st14">
		<path class="st15" d="M178.8,261.3h16.9v6.4h-24.8v-38.5h7.9V261.3z"/>
		<path class="st15" d="M210.5,229.1l9.9,27.9l9.8-27.9h10.4v38.5h-8v-10.5l0.8-18.2l-10.4,28.7h-5.5l-10.4-28.7l0.8,18.2v10.5h-7.9
			v-38.5H210.5z"/>
		<path class="st15" d="M267.6,257.5c0-1.5-0.5-2.6-1.6-3.5c-1.1-0.8-3-1.6-5.7-2.5c-2.8-0.9-4.9-1.8-6.5-2.6
			c-4.4-2.4-6.6-5.5-6.6-9.6c0-2.1,0.6-3.9,1.8-5.6c1.2-1.6,2.9-2.9,5.1-3.8c2.2-0.9,4.7-1.4,7.4-1.4c2.8,0,5.2,0.5,7.4,1.5
			c2.2,1,3.8,2.4,5,4.2c1.2,1.8,1.8,3.9,1.8,6.2h-7.9c0-1.8-0.6-3.1-1.7-4.1s-2.7-1.5-4.7-1.5c-1.9,0-3.4,0.4-4.5,1.2
			c-1.1,0.8-1.6,1.9-1.6,3.2c0,1.3,0.6,2.3,1.9,3.1c1.3,0.8,3.1,1.6,5.6,2.4c4.5,1.4,7.8,3,9.9,5.1c2.1,2,3.1,4.5,3.1,7.5
			c0,3.3-1.3,5.9-3.8,7.8c-2.5,1.9-5.9,2.8-10.2,2.8c-3,0-5.7-0.5-8.1-1.6c-2.4-1.1-4.3-2.6-5.6-4.5c-1.3-1.9-1.9-4.1-1.9-6.6h8
			c0,4.3,2.5,6.4,7.6,6.4c1.9,0,3.4-0.4,4.4-1.2C267.1,260,267.6,258.9,267.6,257.5z"/>
	</g>
</g>
<g>
	<g>
		<path class="st5" d="M483.6,461.7c0,0.5-0.1,1-0.1,1.5c0,21.6,0,43.3,0,64.9c0,1.5,0,1.5-1.6,1.5c-3,0-6,0-9,0
			c-1,0-1.3-0.3-1.2-1.3c0.1-0.8,0-1.5,0-2.5c-0.7,0.5-1.2,0.9-1.7,1.2c-6.6,4-13.3,4.3-20.1,0.8c-3.6-1.9-6-5-7.6-8.6
			c-2.5-5.6-2.6-11.4-0.8-17.1c2.2-7,7.1-11.2,14.3-12.6c3.8-0.7,7.6-0.4,11.1,1.3c1.3,0.6,2.4,1.6,3.6,2.4c0.3,0.2,0.6,0.5,0.9,0.8
			c0.1,0,0.2-0.1,0.3-0.1c0-10.8,0-21.6,0-32.4C475.7,461.7,479.6,461.7,483.6,461.7z M471.5,510.5
			C471.5,510.5,471.5,510.5,471.5,510.5c0.1-1.4,0.2-2.8,0-4.2c-0.3-2.5-1.8-4.3-3.6-6c-4.1-3.8-10.3-3-13.3,1.7
			c-2.3,3.7-2.7,7.6-1.7,11.8c0.5,2.2,1.5,4.1,3.2,5.7c2.5,2.4,5.4,3.1,8.6,1.9c3.2-1.2,5.9-3.2,6.8-6.7
			C471.8,513.3,471.5,511.8,471.5,510.5z"/>
		<path class="st5" d="M499.1,461.7c0,0.4,0,0.8,0,1.3c0,21.7,0,43.3,0,65c0,0.3,0,0.6,0,0.8c0,0.6-0.2,0.9-0.9,0.9
			c-3.4,0-6.8,0-10.2,0c-0.7,0-0.9-0.3-0.9-0.9c0-0.2,0-0.4,0-0.5c0-22.2,0-44.4,0-66.5C491.2,461.7,495.1,461.7,499.1,461.7z"/>
		<path class="st5" d="M289.4,494c-4.1,0-8.2,0-12.6,0c0,2.4,0.1,4.7,0,7.1c-0.1,2.7,0.8,5.3,1,7.9c0.3,3.2,0.3,6.4,0.3,9.6
			c-1.2-2-2-4.2-2.5-6.4c-0.4-2.3-0.3-4.6,0.4-6.8c0.1-0.4,0.2-0.8,0.2-1.2c0-3.2,0-6.4,0-9.6c0-0.2,0-0.3,0-0.6
			c-0.5-0.1-1-0.1-1.4-0.2c0-0.1-0.1-0.2-0.1-0.3c7.6-4.5,15.5-8.4,24.1-10.8c8.6-2.4,17.3-3.5,26.1-4.6c0.1,0.1,0.1,0.3,0.2,0.4
			c-4,2.9-8,5.8-12.1,8.8c2.3,2,4.5,4,6.8,6c2.1-2.3,4.7-3.4,7.6-3.7c2.6-0.3,5.2-0.2,7.7-0.2c2.4,0,4.6,0.7,6.8,1.6
			c4.1,1.8,6.9,4.9,7.9,9.3c0.3,1.2,0.4,2.5,0.4,3.7c0,8.2,0,16.4,0,24.6c0,0.9-0.3,1.2-1.2,1.2c-3.3-0.1-6.6-0.1-9.8,0
			c-0.9,0-1.1-0.3-1.1-1.2c0-7.7,0-15.5,0-23.2c0-1.2-0.3-2.5-0.7-3.7c-0.7-1.9-2.2-3-4.2-3.2c-4.3-0.5-7.2,1.5-7.3,6.1
			c-0.1,8-0.1,15.9,0,23.9c0,1-0.2,1.3-1.2,1.3c-3.4-0.1-6.7-0.1-10.1,0c-0.9,0-1.1-0.3-1.1-1.1c0-8,0-16.1,0-24.1
			c0-1.9-0.6-3.6-2-4.9c-0.6-0.5-1-0.7-1.7-0.2c-2.2,1.4-4.6,2.3-7.2,2.8c-0.5,0.1-0.9,0.2-0.9,0.9c0,0.5-0.2,1-0.2,1.6
			c0,7.9,0,15.8,0,23.8c0,1-0.3,1.3-1.3,1.3c-3.3-0.1-6.6,0-10,0c-0.8,0-1.1-0.2-1.1-1.1c0-8.2-0.1-16.5,0.1-24.7c0.1-3-0.1-6-0.1-9
			C289.5,494.7,289.4,494.4,289.4,494z"/>
		<path class="st5" d="M513.6,513.5c1,4.6,4.5,8.5,8.9,9c4,0.4,7.9-0.4,10.1-4.4c0.1-0.2,0.7-0.3,1-0.3c3.5,0,6.9,0,10.4,0
			c0.5,0,0.9,0,1.5,0c-0.6,2-1.7,3.6-2.9,5.2c-3,3.7-7,5.9-11.5,7.2c-3.5,0.9-7.1,1-10.6,0.7c-4.1-0.4-8.1-1.8-11.4-4.3
			c-3.7-2.8-6.1-6.6-7-11.1c-1-4.8-0.8-9.7,1.1-14.3c1.1-2.6,2.7-4.8,4.9-6.7c3.2-2.8,7-4.4,11.1-4.9c5.3-0.7,10.5-0.3,15.4,2.3
			c4.3,2.3,7.1,5.9,8.9,10.3c1.3,3.3,1.8,6.8,2,10.3c0.1,1-0.3,1.2-1.2,1.2c-9.8,0-19.5,0-29.3,0
			C514.6,513.5,514.2,513.5,513.6,513.5z M514.1,506c6.5,0,12.9,0,19.3,0c-0.7-4.6-4.5-9.6-10.9-9
			C518.7,497.3,514.4,501.7,514.1,506z"/>
		<path class="st5" d="M394.9,509.8c0.1,4.2-0.9,8.1-3.2,11.6c-3.1,4.8-7.5,7.7-13.1,8.8c-5.2,1-10.4,0.8-15.2-1.7
			c-6-3.1-9.7-8-10.8-14.8c-0.7-4.6-0.3-9.1,1.7-13.3c2.4-5.1,6.3-8.6,11.7-10.3c6.4-2,12.7-1.7,18.6,1.5c5.7,3.1,9.1,8,10,14.4
			C394.7,507.3,394.8,508.6,394.9,509.8z M364.5,510c-0.1,2.5,0.5,4.9,1.9,7.1c2.2,3.5,5.5,4.5,9.2,3.7c3-0.6,4.8-2.7,6-5.4
			c1.2-2.7,1.3-5.5,0.9-8.3c-0.5-3.2-1.8-5.8-4.7-7.4c-2.7-1.6-7.4-1.6-9.9,1C365.4,503.3,364.4,506.4,364.5,510z"/>
		<path class="st5" d="M417.4,530.8c-3.5,0.1-6.9-0.6-10.1-2.2c-6-3-9.7-7.9-10.8-14.5c-0.9-5.5-0.4-10.9,2.8-15.8
			c3.1-4.8,7.6-7.9,13.3-8.9c4.6-0.8,9.2-0.7,13.5,1.1c6.8,2.9,11.1,7.9,12.3,15.4c0.8,4.5,0.3,8.8-1.5,13c-1.2,2.9-3.2,5.2-5.5,7.2
			c-2.7,2.3-5.9,3.7-9.4,4.3C420.5,530.6,418.9,530.6,417.4,530.8z M426.5,509.7c0.2-2.1-0.3-4.3-1.3-6.2c-1.5-2.8-3.8-4.5-7.1-4.7
			c-3.8-0.3-6.5,1.3-8.2,4.6c-1.7,3.1-1.9,6.4-1.2,9.8c0.5,2.5,1.6,4.7,3.7,6.4c1.7,1.4,3.7,1.7,5.8,1.6c2.1-0.1,3.8-0.9,5.3-2.5
			C425.7,516.2,426.7,513.2,426.5,509.7z"/>
	</g>
	<g>
		<path class="st5" d="M483.6,461.7c0,0.5-0.1,1-0.1,1.5c0,21.6,0,43.3,0,64.9c0,1.5,0,1.5-1.6,1.5c-3,0-6,0-9,0
			c-1,0-1.3-0.3-1.2-1.3c0.1-0.8,0-1.5,0-2.5c-0.7,0.5-1.2,0.9-1.7,1.2c-6.6,4-13.3,4.3-20.1,0.8c-3.6-1.9-6-5-7.6-8.6
			c-2.5-5.6-2.6-11.4-0.8-17.1c2.2-7,7.1-11.2,14.3-12.6c3.8-0.7,7.6-0.4,11.1,1.3c1.3,0.6,2.4,1.6,3.6,2.4c0.3,0.2,0.6,0.5,0.9,0.8
			c0.1,0,0.2-0.1,0.3-0.1c0-10.8,0-21.6,0-32.4C475.7,461.7,479.6,461.7,483.6,461.7z M471.5,510.5
			C471.5,510.5,471.5,510.5,471.5,510.5c0.1-1.4,0.2-2.8,0-4.2c-0.3-2.5-1.8-4.3-3.6-6c-4.1-3.8-10.3-3-13.3,1.7
			c-2.3,3.7-2.7,7.6-1.7,11.8c0.5,2.2,1.5,4.1,3.2,5.7c2.5,2.4,5.4,3.1,8.6,1.9c3.2-1.2,5.9-3.2,6.8-6.7
			C471.8,513.3,471.5,511.8,471.5,510.5z"/>
		<path class="st5" d="M499.1,461.7c0,0.4,0,0.8,0,1.3c0,21.7,0,43.3,0,65c0,0.3,0,0.6,0,0.8c0,0.6-0.2,0.9-0.9,0.9
			c-3.4,0-6.8,0-10.2,0c-0.7,0-0.9-0.3-0.9-0.9c0-0.2,0-0.4,0-0.5c0-22.2,0-44.4,0-66.5C491.2,461.7,495.1,461.7,499.1,461.7z"/>
		<path class="st5" d="M289.4,494c-4.1,0-8.2,0-12.6,0c0,2.4,0.1,4.7,0,7.1c-0.1,2.7,0.8,5.3,1,7.9c0.3,3.2,0.3,6.4,0.3,9.6
			c-1.2-2-2-4.2-2.5-6.4c-0.4-2.3-0.3-4.6,0.4-6.8c0.1-0.4,0.2-0.8,0.2-1.2c0-3.2,0-6.4,0-9.6c0-0.2,0-0.3,0-0.6
			c-0.5-0.1-1-0.1-1.4-0.2c0-0.1-0.1-0.2-0.1-0.3c7.6-4.5,15.5-8.4,24.1-10.8c8.6-2.4,17.3-3.5,26.1-4.6c0.1,0.1,0.1,0.3,0.2,0.4
			c-4,2.9-8,5.8-12.1,8.8c2.3,2,4.5,4,6.8,6c2.1-2.3,4.7-3.4,7.6-3.7c2.6-0.3,5.2-0.2,7.7-0.2c2.4,0,4.6,0.7,6.8,1.6
			c4.1,1.8,6.9,4.9,7.9,9.3c0.3,1.2,0.4,2.5,0.4,3.7c0,8.2,0,16.4,0,24.6c0,0.9-0.3,1.2-1.2,1.2c-3.3-0.1-6.6-0.1-9.8,0
			c-0.9,0-1.1-0.3-1.1-1.2c0-7.7,0-15.5,0-23.2c0-1.2-0.3-2.5-0.7-3.7c-0.7-1.9-2.2-3-4.2-3.2c-4.3-0.5-7.2,1.5-7.3,6.1
			c-0.1,8-0.1,15.9,0,23.9c0,1-0.2,1.3-1.2,1.3c-3.4-0.1-6.7-0.1-10.1,0c-0.9,0-1.1-0.3-1.1-1.1c0-8,0-16.1,0-24.1
			c0-1.9-0.6-3.6-2-4.9c-0.6-0.5-1-0.7-1.7-0.2c-2.2,1.4-4.6,2.3-7.2,2.8c-0.5,0.1-0.9,0.2-0.9,0.9c0,0.5-0.2,1-0.2,1.6
			c0,7.9,0,15.8,0,23.8c0,1-0.3,1.3-1.3,1.3c-3.3-0.1-6.6,0-10,0c-0.8,0-1.1-0.2-1.1-1.1c0-8.2-0.1-16.5,0.1-24.7c0.1-3-0.1-6-0.1-9
			C289.5,494.7,289.4,494.4,289.4,494z"/>
		<path class="st5" d="M513.6,513.5c1,4.6,4.5,8.5,8.9,9c4,0.4,7.9-0.4,10.1-4.4c0.1-0.2,0.7-0.3,1-0.3c3.5,0,6.9,0,10.4,0
			c0.5,0,0.9,0,1.5,0c-0.6,2-1.7,3.6-2.9,5.2c-3,3.7-7,5.9-11.5,7.2c-3.5,0.9-7.1,1-10.6,0.7c-4.1-0.4-8.1-1.8-11.4-4.3
			c-3.7-2.8-6.1-6.6-7-11.1c-1-4.8-0.8-9.7,1.1-14.3c1.1-2.6,2.7-4.8,4.9-6.7c3.2-2.8,7-4.4,11.1-4.9c5.3-0.7,10.5-0.3,15.4,2.3
			c4.3,2.3,7.1,5.9,8.9,10.3c1.3,3.3,1.8,6.8,2,10.3c0.1,1-0.3,1.2-1.2,1.2c-9.8,0-19.5,0-29.3,0
			C514.6,513.5,514.2,513.5,513.6,513.5z M514.1,506c6.5,0,12.9,0,19.3,0c-0.7-4.6-4.5-9.6-10.9-9
			C518.7,497.3,514.4,501.7,514.1,506z"/>
		<path class="st5" d="M394.9,509.8c0.1,4.2-0.9,8.1-3.2,11.6c-3.1,4.8-7.5,7.7-13.1,8.8c-5.2,1-10.4,0.8-15.2-1.7
			c-6-3.1-9.7-8-10.8-14.8c-0.7-4.6-0.3-9.1,1.7-13.3c2.4-5.1,6.3-8.6,11.7-10.3c6.4-2,12.7-1.7,18.6,1.5c5.7,3.1,9.1,8,10,14.4
			C394.7,507.3,394.8,508.6,394.9,509.8z M364.5,510c-0.1,2.5,0.5,4.9,1.9,7.1c2.2,3.5,5.5,4.5,9.2,3.7c3-0.6,4.8-2.7,6-5.4
			c1.2-2.7,1.3-5.5,0.9-8.3c-0.5-3.2-1.8-5.8-4.7-7.4c-2.7-1.6-7.4-1.6-9.9,1C365.4,503.3,364.4,506.4,364.5,510z"/>
		<path class="st5" d="M417.4,530.8c-3.5,0.1-6.9-0.6-10.1-2.2c-6-3-9.7-7.9-10.8-14.5c-0.9-5.5-0.4-10.9,2.8-15.8
			c3.1-4.8,7.6-7.9,13.3-8.9c4.6-0.8,9.2-0.7,13.5,1.1c6.8,2.9,11.1,7.9,12.3,15.4c0.8,4.5,0.3,8.8-1.5,13c-1.2,2.9-3.2,5.2-5.5,7.2
			c-2.7,2.3-5.9,3.7-9.4,4.3C420.5,530.6,418.9,530.6,417.4,530.8z M426.5,509.7c0.2-2.1-0.3-4.3-1.3-6.2c-1.5-2.8-3.8-4.5-7.1-4.7
			c-3.8-0.3-6.5,1.3-8.2,4.6c-1.7,3.1-1.9,6.4-1.2,9.8c0.5,2.5,1.6,4.7,3.7,6.4c1.7,1.4,3.7,1.7,5.8,1.6c2.1-0.1,3.8-0.9,5.3-2.5
			C425.7,516.2,426.7,513.2,426.5,509.7z"/>
	</g>
</g>
<g class="st14">
	<path class="st15" d="M128.4,503.9c0-0.8-0.3-1.5-0.9-1.9c-0.6-0.4-1.6-0.9-3.1-1.4c-1.5-0.5-2.7-1-3.6-1.5
		c-2.4-1.3-3.6-3.1-3.6-5.3c0-1.1,0.3-2.2,1-3.1c0.6-0.9,1.6-1.6,2.8-2.1c1.2-0.5,2.6-0.8,4.1-0.8c1.5,0,2.9,0.3,4.1,0.8
		c1.2,0.5,2.1,1.3,2.8,2.3c0.7,1,1,2.1,1,3.4h-4.4c0-1-0.3-1.7-0.9-2.3c-0.6-0.5-1.5-0.8-2.6-0.8c-1.1,0-1.9,0.2-2.5,0.7
		c-0.6,0.5-0.9,1-0.9,1.8c0,0.7,0.3,1.3,1,1.7c0.7,0.5,1.7,0.9,3.1,1.3c2.5,0.7,4.3,1.7,5.4,2.8c1.1,1.1,1.7,2.5,1.7,4.1
		c0,1.8-0.7,3.3-2.1,4.3c-1.4,1-3.3,1.6-5.6,1.6c-1.6,0-3.1-0.3-4.5-0.9c-1.3-0.6-2.4-1.4-3.1-2.5s-1.1-2.2-1.1-3.6h4.4
		c0,2.3,1.4,3.5,4.2,3.5c1,0,1.9-0.2,2.4-0.6C128.1,505.3,128.4,504.7,128.4,503.9z"/>
	<path class="st15" d="M152.4,502.4c-0.2,2.3-1,4.1-2.5,5.4c-1.5,1.3-3.5,2-6,2c-2.7,0-4.9-0.9-6.4-2.7s-2.3-4.3-2.3-7.5v-1.3
		c0-2,0.4-3.8,1.1-5.4c0.7-1.6,1.7-2.7,3.1-3.6c1.3-0.8,2.9-1.2,4.7-1.2c2.4,0,4.4,0.7,5.9,2c1.5,1.3,2.4,3.2,2.6,5.5H148
		c-0.1-1.4-0.5-2.4-1.1-3c-0.7-0.6-1.7-0.9-3-0.9c-1.5,0-2.5,0.5-3.3,1.6c-0.7,1-1.1,2.7-1.1,4.9v1.6c0,2.3,0.3,4,1,5
		s1.8,1.6,3.3,1.6c1.3,0,2.4-0.3,3-0.9c0.7-0.6,1-1.6,1.1-2.9H152.4z"/>
	<path class="st15" d="M172.6,499.3c0,2.1-0.4,3.9-1.1,5.5c-0.7,1.6-1.8,2.8-3.2,3.6c-1.4,0.9-3,1.3-4.7,1.3c-1.8,0-3.3-0.4-4.7-1.3
		c-1.4-0.8-2.4-2.1-3.2-3.6c-0.8-1.6-1.1-3.4-1.2-5.4v-1c0-2.1,0.4-3.9,1.1-5.5c0.8-1.6,1.8-2.8,3.2-3.7c1.4-0.8,2.9-1.3,4.7-1.3
		c1.8,0,3.3,0.4,4.7,1.3s2.4,2.1,3.2,3.7c0.8,1.6,1.1,3.4,1.1,5.5V499.3z M168.2,498.4c0-2.2-0.4-3.9-1.2-5.1
		c-0.8-1.2-1.9-1.7-3.4-1.7c-1.5,0-2.6,0.6-3.4,1.7c-0.8,1.1-1.2,2.8-1.2,5v1c0,2.2,0.4,3.8,1.2,5s1.9,1.8,3.4,1.8
		c1.5,0,2.6-0.6,3.4-1.7c0.8-1.2,1.2-2.8,1.2-5V498.4z"/>
	<path class="st15" d="M183.7,501.7h-3.5v7.8h-4.4v-21.2h7.9c2.5,0,4.4,0.6,5.8,1.7c1.4,1.1,2,2.7,2,4.7c0,1.4-0.3,2.7-0.9,3.6
		c-0.6,1-1.6,1.7-2.8,2.3l4.6,8.7v0.2h-4.7L183.7,501.7z M180.2,498.2h3.5c1.1,0,1.9-0.3,2.5-0.8c0.6-0.6,0.9-1.3,0.9-2.3
		c0-1-0.3-1.8-0.9-2.4c-0.6-0.6-1.4-0.9-2.6-0.9h-3.5V498.2z"/>
	<path class="st15" d="M200.6,488.3l5.4,15.4l5.4-15.4h5.7v21.2h-4.4v-5.8l0.4-10l-5.7,15.8h-3l-5.7-15.8l0.4,10v5.8h-4.4v-21.2
		H200.6z"/>
</g>
<g>
	<path class="st8" d="M633.1,390.4H489.5c-12.1,0-21.9-9.8-21.9-21.9v-47.9c0-12.1,9.8-21.9,21.9-21.9h147.9
		c9.7,0,17.6,7.9,17.6,17.6v52.1C654.9,380.6,645.2,390.4,633.1,390.4z"/>
	<path class="st9" d="M641,396.4H481.5c-10.7,0-19.4-8.7-19.4-19.4v-64.8c0-10.7,8.7-19.4,19.4-19.4H641c10.7,0,19.4,8.7,19.4,19.4
		V377C660.4,387.7,651.7,396.4,641,396.4z"/>
	<g class="st14">
		<path class="st15" d="M491.2,355.5c-2.8,0-5.1-0.9-6.8-2.6c-1.8-1.7-2.6-4-2.6-6.9v-0.5c0-1.9,0.4-3.6,1.1-5.1
			c0.7-1.5,1.8-2.7,3.1-3.5c1.4-0.8,2.9-1.2,4.6-1.2c2.6,0,4.7,0.8,6.2,2.5c1.5,1.6,2.2,4,2.2,7v2.1h-12.1c0.2,1.2,0.7,2.2,1.5,3
			c0.8,0.8,1.9,1.1,3.1,1.1c2,0,3.5-0.7,4.6-2.1l2.5,2.8c-0.8,1.1-1.8,1.9-3.1,2.5C494.2,355.2,492.7,355.5,491.2,355.5z
			 M490.6,339.8c-1,0-1.8,0.3-2.5,1c-0.6,0.7-1,1.7-1.2,2.9h7.1v-0.4c0-1.1-0.3-2-0.9-2.6C492.5,340.1,491.7,339.8,490.6,339.8z"/>
		<path class="st15" d="M507.5,350.9h11.2v4.2h-16.5v-25.7h5.3V350.9z"/>
		<path class="st15" d="M530.2,355.5c-2.8,0-5.1-0.9-6.8-2.6c-1.8-1.7-2.6-4-2.6-6.9v-0.5c0-1.9,0.4-3.6,1.1-5.1
			c0.7-1.5,1.8-2.7,3.1-3.5c1.4-0.8,2.9-1.2,4.6-1.2c2.6,0,4.7,0.8,6.2,2.5c1.5,1.6,2.2,4,2.2,7v2.1h-12.1c0.2,1.2,0.7,2.2,1.5,3
			c0.8,0.8,1.9,1.1,3.1,1.1c2,0,3.5-0.7,4.6-2.1l2.5,2.8c-0.8,1.1-1.8,1.9-3.1,2.5C533.2,355.2,531.8,355.5,530.2,355.5z
			 M529.6,339.8c-1,0-1.8,0.3-2.5,1c-0.6,0.7-1,1.7-1.2,2.9h7.1v-0.4c0-1.1-0.3-2-0.9-2.6C531.5,340.1,530.7,339.8,529.6,339.8z"/>
		<path class="st15" d="M552,355.1c-0.2-0.5-0.4-1-0.5-1.7c-1.2,1.4-2.8,2.1-4.8,2.1c-1.9,0-3.4-0.5-4.6-1.6
			c-1.2-1.1-1.8-2.4-1.8-4.1c0-2,0.7-3.6,2.2-4.7c1.5-1.1,3.7-1.6,6.5-1.6h2.3v-1.1c0-0.9-0.2-1.6-0.7-2.1c-0.5-0.5-1.2-0.8-2.1-0.8
			c-0.9,0-1.5,0.2-2,0.6c-0.5,0.4-0.7,1-0.7,1.7h-5.1c0-1.1,0.3-2.1,1-3.1c0.7-0.9,1.6-1.7,2.9-2.2c1.2-0.5,2.6-0.8,4.2-0.8
			c2.4,0,4.2,0.6,5.6,1.8c1.4,1.2,2.1,2.8,2.1,5v8.3c0,1.8,0.3,3.2,0.8,4.1v0.3H552z M547.8,351.6c0.8,0,1.4-0.2,2.1-0.5
			c0.6-0.3,1.1-0.8,1.4-1.3v-3.3h-1.9c-2.5,0-3.9,0.9-4.1,2.6l0,0.3c0,0.6,0.2,1.2,0.7,1.6C546.4,351.4,547,351.6,547.8,351.6z"/>
		<path class="st15" d="M571,340.8c-0.7-0.1-1.3-0.1-1.8-0.1c-1.9,0-3.2,0.7-3.8,2v12.5h-5.1v-19.1h4.8l0.1,2.3
			c1-1.8,2.4-2.6,4.2-2.6c0.6,0,1.1,0.1,1.6,0.2L571,340.8z"/>
		<path class="st15" d="M578.2,336.1l0.2,2.2c1.4-1.7,3.2-2.6,5.5-2.6c2,0,3.5,0.6,4.5,1.8c1,1.2,1.5,3,1.5,5.3v12.3h-5.1v-12.2
			c0-1.1-0.2-1.9-0.7-2.4c-0.5-0.5-1.3-0.7-2.3-0.7c-1.4,0-2.5,0.6-3.2,1.8v13.5h-5.1v-19.1H578.2z"/>
		<path class="st15" d="M593.7,331.1c0-0.8,0.3-1.4,0.8-1.9c0.5-0.5,1.2-0.7,2.1-0.7c0.9,0,1.6,0.2,2.1,0.7c0.5,0.5,0.8,1.1,0.8,1.9
			c0,0.8-0.3,1.4-0.8,1.9c-0.5,0.5-1.2,0.7-2.1,0.7c-0.9,0-1.5-0.2-2.1-0.7C593.9,332.5,593.7,331.9,593.7,331.1z M599.1,355.1H594
			v-19.1h5.1V355.1z"/>
		<path class="st15" d="M607.9,336.1l0.2,2.2c1.4-1.7,3.2-2.6,5.5-2.6c2,0,3.5,0.6,4.5,1.8c1,1.2,1.5,3,1.5,5.3v12.3h-5.1v-12.2
			c0-1.1-0.2-1.9-0.7-2.4c-0.5-0.5-1.3-0.7-2.3-0.7c-1.4,0-2.5,0.6-3.2,1.8v13.5h-5.1v-19.1H607.9z"/>
		<path class="st15" d="M622.7,345.5c0-2.9,0.7-5.3,2.1-7.1s3.3-2.7,5.6-2.7c2.1,0,3.7,0.7,4.9,2.2l0.2-1.8h4.6v18.4
			c0,1.7-0.4,3.1-1.1,4.4c-0.8,1.2-1.8,2.2-3.2,2.8c-1.4,0.6-3,1-4.8,1c-1.4,0-2.8-0.3-4.1-0.8c-1.3-0.6-2.3-1.3-3-2.2l2.3-3.1
			c1.3,1.4,2.8,2.1,4.6,2.1c1.4,0,2.4-0.4,3.2-1.1s1.1-1.7,1.1-3.1v-1c-1.2,1.3-2.7,2-4.6,2c-2.3,0-4.1-0.9-5.6-2.7
			s-2.1-4.2-2.1-7.1V345.5z M627.8,345.8c0,1.7,0.3,3.1,1,4.1s1.6,1.5,2.9,1.5c1.6,0,2.7-0.6,3.3-1.8v-8.1c-0.7-1.2-1.8-1.8-3.3-1.8
			c-1.2,0-2.2,0.5-2.9,1.5C628.2,342.3,627.8,343.8,627.8,345.8z"/>
	</g>
</g>
</svg>
