<?xml version="1.0" encoding="utf-8"?>
<!-- Generator: Adobe Illustrator 24.0.0, SVG Export Plug-In . SVG Version: 6.00 Build 0)  -->
<svg version="1.1" id="Layer_1" xmlns="http://www.w3.org/2000/svg" xmlns:xlink="http://www.w3.org/1999/xlink" x="0px" y="0px"
	 viewBox="0 0 772.4 678.6" style="enable-background:new 0 0 772.4 678.6;" xml:space="preserve">
<style type="text/css">
	.st0{fill:none;stroke:#C9D7E4;stroke-width:1.192;stroke-miterlimit:10;}
	.st1{fill:none;stroke:#C9D7E4;stroke-width:0.701;stroke-miterlimit:10;}
	.st2{opacity:0.24;}
	.st3{fill:#333854;}
	.st4{fill:#C9D7E4;}
	.st5{fill:none;stroke:#8AB7CE;stroke-width:0.783;stroke-linecap:round;stroke-miterlimit:10;}
	.st6{fill:#10203B;}
	.st7{fill:#567DBE;}
	.st8{fill:none;stroke:#567DBE;stroke-width:0.784;stroke-miterlimit:10;}
	.st9{fill:none;}
	.st10{enable-background:new    ;}
	.st11{fill:#FFFFFF;}
	.st12{fill:none;stroke:#BBE5FF;stroke-width:0.251;stroke-linecap:round;stroke-miterlimit:10;}
	.st13{fill:#F58A1F;}
	.st14{fill:none;stroke:#F58A1F;stroke-width:0.784;stroke-miterlimit:10;}
	.st15{fill:none;stroke:#96C1EA;stroke-width:1.044;stroke-miterlimit:10;}
	.st16{fill:#F78C57;}
	.st17{fill:#F7941D;}
	.st18{fill:#D7A185;}
</style>
<g id="Group_1216" transform="translate(223.716 23.08)">
	<g id="Group_1215">
		<path id="Path_3245" class="st0" d="M99.8,378.4H0V106L50,0l49.7,106L99.8,378.4z"/>
		<line id="Line_43" class="st0" x1="0" y1="106" x2="99.8" y2="106"/>
	</g>
	<line id="Line_44" class="st0" x1="33.9" y1="34.1" x2="65.9" y2="34.1"/>
</g>
<g id="Group_1218" transform="translate(649.708 159.703)">
	<g id="Group_1217">
		<path id="Path_3246" class="st1" d="M58.8,222.7H0V62.3L29.3,0l29.5,62.3V222.7z"/>
		<line id="Line_45" class="st1" x1="0" y1="62.3" x2="58.8" y2="62.3"/>
	</g>
	<line id="Line_46" class="st1" x1="20" y1="19.9" x2="38.9" y2="19.9"/>
</g>
<g id="Group_1220" transform="translate(32.084 565.895)" class="st2">
	<g id="Group_1219">
		<path id="Path_3247" class="st3" d="M740.4,112.7H0.4l144-112.3h451.7L740.4,112.7z"/>
	</g>
</g>
<g id="Group_1225" transform="translate(0 234.993)">
	<rect id="Rectangle_314" x="176.5" y="0.4" class="st4" width="451.7" height="262.6"/>
	<g id="Group_1224" transform="translate(0 7.651)">
		<g id="Group_1221" transform="translate(189.475)">
			<rect id="Rectangle_315" x="0.4" y="0.4" class="st3" width="425.2" height="247"/>
		</g>
		<path id="Path_3248" class="st4" d="M772.4,367.4h-740l144-112h451.7L772.4,367.4z"/>
		<g id="Group_1222" transform="translate(0 246.742)">
			<line id="Line_47" class="st5" x1="144" y1="15.4" x2="163.9" y2="0.4"/>
			<line id="Line_48" class="st5" x1="72.7" y1="69.3" x2="136.9" y2="20.9"/>
			<path id="Path_3249" class="st5" d="M108.7,144.9h-94c-13.7,0-19.7-17.5-8.5-25.7l20.5-15.6"/>
			<line id="Line_49" class="st5" x1="504.7" y1="144.9" x2="176.5" y2="144.9"/>
			<line id="Line_50" class="st5" x1="722.7" y1="144.9" x2="564.2" y2="144.9"/>
			<line id="Line_51" class="st5" x1="717" y1="60" x2="745.4" y2="81.3"/>
			<line id="Line_52" class="st5" x1="657.1" y1="14.9" x2="711.5" y2="55.9"/>
		</g>
		<g id="Group_1223" transform="translate(141.93 258.219)">
			<path id="Path_3250" class="st6" d="M80.7,7.5H56.1l9-7.1h23.5L80.7,7.5z"/>
			<path id="Path_3251" class="st6" d="M66.8,20.6H39.5l10.4-8.2h26L66.8,20.6z"/>
			<path id="Path_3252" class="st6" d="M108.1,20.6H81l8.5-8.2h26L108.1,20.6z"/>
			<path id="Path_3253" class="st6" d="M149.6,20.6h-27.1l6.3-8.2h26L149.6,20.6z"/>
			<path id="Path_3254" class="st6" d="M191.1,20.6h-27.3l4.6-8.2h26L191.1,20.6z"/>
			<path id="Path_3255" class="st6" d="M232.7,20.6h-27.3l2.7-8.2h26L232.7,20.6z"/>
			<path id="Path_3256" class="st6" d="M274.2,20.6h-27.3l0.5-8.2h26L274.2,20.6z"/>
			<path id="Path_3257" class="st6" d="M315.5,20.6h-27.1l-1.4-8.2h26L315.5,20.6z"/>
			<path id="Path_3258" class="st6" d="M357,20.6h-27.1l-3.3-8.2h26L357,20.6z"/>
			<path id="Path_3259" class="st6" d="M398.5,20.6h-27.3l-5.2-8.2h26L398.5,20.6z"/>
			<path id="Path_3260" class="st6" d="M440.1,20.6h-27.3l-7.1-8.2h26L440.1,20.6z"/>
			<path id="Path_3261" class="st6" d="M481.6,20.6h-27.3l-9-8.2h25.7L481.6,20.6z"/>
			<path id="Path_3262" class="st6" d="M51.2,34.3H22l12-9.6h27.9L51.2,34.3z"/>
			<path id="Path_3263" class="st6" d="M96,34.3H66.8l9.8-9.6h27.9L96,34.3z"/>
			<path id="Path_3264" class="st6" d="M140.9,34.3h-29.2l7.4-9.6h27.9L140.9,34.3z"/>
			<path id="Path_3265" class="st6" d="M185.7,34.3h-29.5l5.5-9.6h27.9L185.7,34.3z"/>
			<path id="Path_3266" class="st6" d="M230.5,34.3H201l3-9.6h27.9L230.5,34.3z"/>
			<path id="Path_3267" class="st6" d="M275.3,34.3h-29.5l0.8-9.6h27.9L275.3,34.3z"/>
			<path id="Path_3268" class="st6" d="M319.8,34.3h-29.2l-1.6-9.6h27.9L319.8,34.3z"/>
			<path id="Path_3269" class="st6" d="M364.6,34.3h-29.2l-3.8-9.6h27.9L364.6,34.3z"/>
			<path id="Path_3270" class="st6" d="M409.5,34.3h-29.2l-6.3-9.6h27.9L409.5,34.3z"/>
			<path id="Path_3271" class="st6" d="M454.3,34.3h-29.5l-8.2-9.6h27.9L454.3,34.3z"/>
			<path id="Path_3272" class="st6" d="M499.1,34.3h-29.5l-10.7-9.6h27.9L499.1,34.3z"/>
			<path id="Path_3273" class="st6" d="M32.4,51.2h-32L14.6,40h30.3L32.4,51.2z"/>
			<path id="Path_3274" class="st6" d="M81.3,51.2h-32L60.8,40h30.3L81.3,51.2z"/>
			<path id="Path_3275" class="st6" d="M373.4,51.2H98l9-11.2h260.1L373.4,51.2z"/>
			<path id="Path_3276" class="st6" d="M422.8,51.2h-32L383.8,40h30.3L422.8,51.2z"/>
			<path id="Path_3277" class="st6" d="M471.8,51.2h-32L430,40H460L471.8,51.2z"/>
			<path id="Path_3278" class="st6" d="M520.7,51.2h-32.2L475.9,40h30.3L520.7,51.2z"/>
			<path id="Path_3279" class="st6" d="M130.5,7.5h-24.6l6.8-7.1h23.5L130.5,7.5z"/>
			<path id="Path_3280" class="st6" d="M165.7,7.5h-24.6l5.2-7.1h23.5L165.7,7.5z"/>
			<path id="Path_3281" class="st6" d="M200.7,7.5h-24.6l3.8-7.1h23.5L200.7,7.5z"/>
			<path id="Path_3282" class="st6" d="M235.9,7.5h-24.6l2.2-7.1H237L235.9,7.5z"/>
			<path id="Path_3283" class="st6" d="M270.9,7.5h-24.6l0.8-7.1h23.5L270.9,7.5z"/>
			<path id="Path_3284" class="st6" d="M306.2,7.5h-24.6l-0.8-7.1h23.5L306.2,7.5z"/>
			<path id="Path_3285" class="st6" d="M342.5,7.5h-24.6l-2.5-7.1H339L342.5,7.5z"/>
			<path id="Path_3286" class="st6" d="M398,7.5h-24.6l-4.9-7.1H392L398,7.5z"/>
			<path id="Path_3287" class="st6" d="M431.6,7.5H407l-6.6-7.1h23.5L431.6,7.5z"/>
			<path id="Path_3288" class="st6" d="M464.9,7.5h-24.6l-7.9-7.1h23.5L464.9,7.5z"/>
			<path id="Path_3289" class="st6" d="M345,94.1H176.1l13.4-31.4h142.1L345,94.1z"/>
		</g>
		<path id="Path_3290" class="st7" d="M761.5,379.9H43.4c-6,0-10.9-4.9-10.9-10.9v-1.4h740v1.4C772.4,375,767.5,379.9,761.5,379.9z"
			/>
	</g>
</g>
<g id="Group_1226" transform="translate(66.514 140.722)">
	<path id="Path_3291" class="st7" d="M110,134.3H32.4c-13.6,0-24.6-11-24.6-24.6V32.4c0-13.6,11-24.6,24.6-24.6H110
		c13.6,0,24.6,11,24.6,24.6V110C134.3,123.4,123.4,134.2,110,134.3z"/>
	<path id="Path_3292" class="st8" d="M114.4,141.9H27.7c-15.1,0-27.3-12.3-27.3-27.3V27.7c0-15.1,12.3-27.3,27.3-27.3h86.6
		c15.1,0,27.3,12.3,27.3,27.3v86.6c0.3,15-11.7,27.3-26.6,27.6C114.8,141.9,114.6,141.9,114.4,141.9z"/>
	<rect id="Rectangle_316" x="14.1" y="37.3" class="st9" width="112.3" height="91.5"/>
	<g class="st10">
		<path class="st11" d="M45.2,77.1v19.8H33.7V40.7h21.9c4.2,0,7.9,0.8,11.1,2.3c3.2,1.5,5.7,3.7,7.4,6.6c1.7,2.8,2.6,6.1,2.6,9.7
			c0,5.5-1.9,9.8-5.7,13c-3.8,3.2-9,4.8-15.6,4.8H45.2z M45.2,67.7h10.3c3.1,0,5.4-0.7,7-2.2c1.6-1.4,2.4-3.5,2.4-6.2
			c0-2.8-0.8-5-2.4-6.7s-3.9-2.6-6.7-2.6H45.2V67.7z"/>
		<path class="st11" d="M107.4,65.6c-1.5-0.2-2.9-0.3-4-0.3c-4.2,0-7,1.4-8.3,4.3v27.3H83.9V55.1h10.5l0.3,5
			c2.2-3.8,5.3-5.7,9.3-5.7c1.2,0,2.4,0.2,3.5,0.5L107.4,65.6z"/>
	</g>
</g>
<g>
	<polygon class="st12" points="348.7,362.1 287.8,397.2 287.8,326.9 	"/>
	<circle class="st12" cx="312.5" cy="362.1" r="64.2"/>
</g>
<g id="Group_1227" transform="translate(576.94 308.223)">
	<path id="Path_3293" class="st7" d="M115.7,134.3H38.1c-13.6,0-24.6-11-24.6-24.6V32.1c0-13.6,11-24.6,24.6-24.6h77.6
		c13.6,0,24.6,11,24.6,24.6v77.6C140.2,123.2,129.2,134.1,115.7,134.3z"/>
	<path id="Path_3294" class="st8" d="M120.1,141.7H33.5c-15.1,0-27.3-12.3-27.3-27.3V27.7c0-15.1,12.3-27.3,27.3-27.3h86.6
		c15.1,0,27.3,12.3,27.3,27.3v86.6c0.1,14.9-11.8,27.2-26.8,27.3C120.4,141.7,120.3,141.7,120.1,141.7z"/>
	<rect id="Rectangle_317" x="0.4" y="39.7" class="st9" width="144.8" height="84.7"/>
	<g class="st10">
		<path class="st11" d="M76.5,93.4H53.4L49,106.6H35l23.8-64H71l24,64h-14L76.5,93.4z M56.9,82.7h16l-8-24L56.9,82.7z"/>
		<path class="st11" d="M100,46.7c0-1.9,0.6-3.5,1.9-4.7c1.3-1.2,3-1.8,5.2-1.8c2.2,0,3.9,0.6,5.2,1.8c1.3,1.2,1.9,2.8,1.9,4.7
			c0,1.9-0.7,3.5-2,4.7c-1.3,1.2-3,1.8-5.2,1.8c-2.1,0-3.9-0.6-5.2-1.8C100.7,50.2,100,48.7,100,46.7z M113.5,106.6h-12.7V59h12.7
			V106.6z"/>
	</g>
</g>
<g id="Group_1228" transform="translate(547.156 173.785)">
	<path id="Path_3295" class="st13" d="M78,95.5H23.1c-9.6,0-17.5-7.8-17.5-17.4c0,0,0-0.1,0-0.1V23.1c0-9.6,7.8-17.5,17.4-17.5
		c0,0,0.1,0,0.1,0H78c9.6,0,17.5,7.8,17.5,17.4c0,0,0,0.1,0,0.1V78C95.2,87.6,87.6,95.5,78,95.5z"/>
	<path id="Path_3296" class="st14" d="M81.3,100.7H19.8C9.1,100.6,0.4,92,0.4,81.3V19.8C0.4,9.1,9.1,0.4,19.8,0.4h61.5
		c10.7,0,19.4,8.7,19.4,19.4v61.5C100.6,92,92,100.6,81.3,100.7z"/>
	<rect id="Rectangle_318" x="7.8" y="26.4" class="st9" width="92.4" height="69.4"/>
	<g class="st10">
		<path class="st11" d="M30.5,57.2v14h-8.2V31.4h15.5c3,0,5.6,0.5,7.9,1.6s4,2.6,5.2,4.7c1.2,2,1.8,4.3,1.8,6.9c0,3.9-1.3,7-4,9.2
			c-2.7,2.3-6.4,3.4-11.1,3.4H30.5z M30.5,50.6h7.3c2.2,0,3.8-0.5,5-1.5c1.1-1,1.7-2.5,1.7-4.4c0-2-0.6-3.5-1.7-4.7S40,38.1,38,38.1
			h-7.5V50.6z"/>
		<path class="st11" d="M73.9,63.1c0-1-0.5-1.7-1.4-2.3c-1-0.6-2.5-1.1-4.6-1.5c-7-1.5-10.6-4.5-10.6-9c0-2.6,1.1-4.8,3.3-6.6
			c2.2-1.8,5-2.6,8.5-2.6c3.8,0,6.8,0.9,9,2.7c2.3,1.8,3.4,4.1,3.4,6.9h-7.9c0-1.1-0.4-2.1-1.1-2.8c-0.7-0.7-1.9-1.1-3.4-1.1
			c-1.3,0-2.4,0.3-3.1,0.9c-0.7,0.6-1.1,1.4-1.1,2.3c0,0.9,0.4,1.6,1.2,2.1c0.8,0.5,2.2,1,4.2,1.4c2,0.4,3.6,0.8,5,1.3
			c4.2,1.5,6.3,4.2,6.3,8c0,2.7-1.2,4.9-3.5,6.5c-2.3,1.7-5.3,2.5-9,2.5c-2.5,0-4.7-0.4-6.6-1.3c-1.9-0.9-3.4-2.1-4.5-3.6
			c-1.1-1.5-1.6-3.2-1.6-5h7.5c0.1,1.4,0.6,2.5,1.6,3.2c1,0.7,2.3,1.1,3.9,1.1c1.5,0,2.7-0.3,3.4-0.9C73.5,64.8,73.9,64,73.9,63.1z"
			/>
	</g>
</g>
<g id="Group_1230" transform="translate(96.844 337.734)">
	<path id="Path_3299" class="st13" d="M140,99.3H82.9c-10,0-18-8-18-18c0,0,0,0,0,0V23.9c0-10,8-18,18-18c0,0,0,0,0,0h57.4
		c10,0,18,8,18,18c0,0,0,0,0,0v57.4C158.2,91.3,150.1,99.3,140,99.3z"/>
	<path id="Path_3300" class="st14" d="M143.6,104.8H79.4c-11.1,0-20.2-9-20.2-20.1c0,0,0-0.1,0-0.1V20.6c0-11.1,9-20.2,20.1-20.2
		c0,0,0.1,0,0.1,0h63.9c11.1,0,20.2,9,20.2,20.1c0,0,0,0.1,0,0.1v63.9c0.2,10.9-8.4,20-19.3,20.2C144,104.8,143.8,104.8,143.6,104.8
		z"/>
	<rect id="Rectangle_320" x="0.4" y="41.4" class="st9" width="222.1" height="91"/>
	<g class="st10">
		<path class="st11" d="M87.6,72.4V32.6h13.9c4.8,0,8.5,0.9,11,2.8c2.5,1.9,3.7,4.6,3.7,8.1c0,2-0.5,3.7-1.5,5.2
			c-1,1.5-2.4,2.6-4.2,3.3c2,0.5,3.7,1.5,4.8,3.1c1.2,1.5,1.8,3.4,1.8,5.7c0,3.8-1.2,6.7-3.7,8.7c-2.4,2-5.9,3-10.4,3H87.6z
			 M95.8,49.2h6.1c4.1-0.1,6.2-1.7,6.2-4.9c0-1.8-0.5-3.1-1.6-3.9c-1-0.8-2.7-1.2-5-1.2h-5.7V49.2z M95.8,55v10.7h7
			c1.9,0,3.4-0.5,4.5-1.4c1.1-0.9,1.6-2.2,1.6-3.8c0-3.6-1.9-5.5-5.7-5.6H95.8z"/>
		<path class="st11" d="M139.4,50.2c-1.1-0.1-2-0.2-2.8-0.2c-3,0-4.9,1-5.9,3v19.4h-7.9V42.8h7.5l0.2,3.5c1.6-2.7,3.8-4.1,6.6-4.1
			c0.9,0,1.7,0.1,2.5,0.4L139.4,50.2z"/>
	</g>
</g>
<g id="Group_1229" transform="translate(338.395)">
	<path id="Path_3297" class="st13" d="M109.7,134.3H32.1c-13.6,0-24.6-11-24.6-24.6V32.4c0-13.6,11-24.6,24.6-24.6h77.6
		c13.6,0,24.6,11,24.6,24.6V110C134.2,123.5,123.2,134.3,109.7,134.3C109.7,134.3,109.7,134.3,109.7,134.3z"/>
	<path id="Path_3298" class="st14" d="M114.4,141.9H27.7c-15.1,0-27.3-12.3-27.3-27.3V27.7c0-15.1,12.3-27.3,27.3-27.3h86.6
		c15.1,0,27.3,12.3,27.3,27.3v86.6c0.3,15-11.7,27.3-26.6,27.6C114.8,141.9,114.6,141.9,114.4,141.9z"/>
	<rect id="Rectangle_319" x="9.7" y="44.4" class="st9" width="123" height="72.4"/>
	<g class="st10">
		<path class="st11" d="M62.9,83H46.7l-3.1,9.2h-9.8l16.7-44.8h8.6l16.8,44.8H66L62.9,83z M49.2,75.5h11.2l-5.6-16.8L49.2,75.5z"/>
		<path class="st11" d="M94.8,92.8c-4.9,0-8.9-1.5-11.9-4.5c-3.1-3-4.6-7-4.6-12v-0.9c0-3.3,0.6-6.3,1.9-9c1.3-2.6,3.1-4.7,5.5-6.1
			c2.4-1.4,5.1-2.1,8.1-2.1c4.6,0,8.1,1.4,10.8,4.3s3.9,6.9,3.9,12.2v3.6H87.3c0.3,2.2,1.2,3.9,2.6,5.2c1.4,1.3,3.3,2,5.5,2
			c3.4,0,6.1-1.2,8-3.7l4.4,4.9c-1.3,1.9-3.1,3.4-5.4,4.4C100.1,92.3,97.5,92.8,94.8,92.8z M93.7,65.5c-1.8,0-3.2,0.6-4.3,1.8
			c-1.1,1.2-1.8,2.9-2.1,5.1h12.4v-0.7c0-2-0.6-3.5-1.6-4.6C97.1,66,95.6,65.5,93.7,65.5z"/>
	</g>
</g>
<circle id="Ellipse_151" class="st15" cx="722.7" cy="474.2" r="5.7"/>
<circle id="Ellipse_152" class="st15" cx="641" cy="107.2" r="5.7"/>
<circle id="Ellipse_153" class="st16" cx="686.9" cy="244.9" r="3.6"/>
<circle id="Ellipse_154" class="st16" cx="126.2" cy="457.3" r="3.6"/>
<circle id="Ellipse_155" class="st16" cx="172.1" cy="107.2" r="3.6"/>
<circle id="Ellipse_156" class="st16" cx="662.6" cy="487" r="3.6"/>
<circle id="Ellipse_157" class="st15" cx="265.8" cy="168.4" r="5.7"/>
<circle id="Ellipse_158" class="st15" cx="66.9" cy="472.3" r="5.7"/>
<circle id="Ellipse_159" class="st15" cx="132" cy="107.2" r="5.7"/>
<g id="Group_1232" transform="translate(350.418 261.224)">
	<path id="Path_3301" class="st12" d="M123,207l-35-35l35-73.2l35,73.2L123,207z"/>
	<line id="Line_53" class="st12" x1="123" y1="98.8" x2="123" y2="152.9"/>
	<circle id="Ellipse_160" class="st12" cx="123" cy="161.1" r="8.2"/>
	<path id="Path_3302" class="st12" d="M142.9,227.2h-40.2v-35.8h4.6L123,207l15.6-15.6h4.4L142.9,227.2z"/>
	<line id="Line_54" class="st12" x1="102.7" y1="209.2" x2="142.9" y2="209.2"/>
	<line id="Line_55" class="st12" x1="102.7" y1="209.2" x2="142.9" y2="209.2"/>
	<path id="Path_3303" class="st12" d="M168.1,13.2c0,24.9-20.2,45.1-45.1,45.1c-24.9,0-45.1-20.2-45.1-45.1"/>
	<line id="Line_56" class="st12" x1="77.6" y1="58.3" x2="168.1" y2="58.3"/>
	<rect id="Rectangle_321" x="71.3" y="0.4" class="st12" width="12.6" height="12.6"/>
	<rect id="Rectangle_322" x="161.8" y="0.4" class="st12" width="12.6" height="12.6"/>
	<rect id="Rectangle_323" x="117.2" y="52" class="st12" width="12.6" height="12.6"/>
</g>
<rect id="Rectangle_324" x="554.4" y="305.6" class="st17" width="20.2" height="20.2"/>
<rect id="Rectangle_325" x="554.4" y="337.9" class="st7" width="20.2" height="20.2"/>
<rect id="Rectangle_326" x="554.4" y="369.8" class="st18" width="20.2" height="20.2"/>
</svg>
