<?xml version="1.0" encoding="utf-8"?>
<!-- Generator: Adobe Illustrator 22.0.0, SVG Export Plug-In . SVG Version: 6.00 Build 0)  -->
<svg version="1.1" id="Layer_1" xmlns="http://www.w3.org/2000/svg" xmlns:xlink="http://www.w3.org/1999/xlink" x="0px" y="0px"
	 viewBox="0 0 436.5 595.3" style="enable-background:new 0 0 436.5 595.3;" xml:space="preserve">
<style type="text/css">
	.st0{clip-path:url(#SVGID_2_);}
	.st1{fill:none;stroke:#CAD7E4;stroke-width:0.9993;stroke-miterlimit:10;}
	.st2{fill:none;stroke:#CAD7E4;stroke-width:0.5877;stroke-miterlimit:10;}
	.st3{opacity:0.24;}
	.st4{fill:#353954;}
	.st5{fill:#CAD7E4;}
	.st6{fill:none;stroke:#8AB7CE;stroke-width:0.6564;stroke-linecap:round;stroke-miterlimit:10;}
	.st7{fill:#11213B;}
	.st8{fill:#567EBF;}
	.st9{fill:none;stroke:#567EBF;stroke-width:0.6575;stroke-miterlimit:10;}
	.st10{fill:none;}
	.st11{enable-background:new    ;}
	.st12{fill:#FFFFFF;}
	.st13{fill:#F68920;}
	.st14{fill:none;stroke:#F68920;stroke-width:0.6575;stroke-miterlimit:10;}
	.st15{fill:none;stroke:#98C1E7;stroke-width:0.8753;stroke-miterlimit:10;}
	.st16{fill:#F68C58;}
	.st17{fill:none;stroke:#BDE3F8;stroke-width:0.2102;stroke-linecap:round;stroke-miterlimit:10;}
	.st18{fill:#F89521;}
	.st19{fill:#D8A186;}
	.st20{clip-path:url(#SVGID_4_);}
	.st21{fill:#CB7028;}
	.st22{fill:#2C3E55;}
	.st23{fill:#E43625;}
	.st24{fill:#1C2F44;}
	.st25{fill:#C89681;}
	.st26{fill:#D6EEF4;}
	.st27{clip-path:url(#SVGID_6_);}
	.st28{fill:#F79227;}
</style>
<g>
	<g>
		<defs>
			<path id="SVGID_1_" d="M395.3,420.7H56c-3.1,0-5.6-2.5-5.6-5.6V180.6c0-3.1,2.5-5.6,5.6-5.6h339.3c3.1,0,5.6,2.5,5.6,5.6v234.5
				C400.9,418.2,398.4,420.7,395.3,420.7z"/>
		</defs>
		<clipPath id="SVGID_2_">
			<use xlink:href="#SVGID_1_"  style="overflow:visible;"/>
		</clipPath>
		<g class="st0">
			<g>
				<g>
					<polygon class="st1" points="249.4,323.4 218.8,323.4 218.8,239.8 234.1,207.3 249.4,239.8 					"/>
					<line class="st1" x1="218.8" y1="239.8" x2="249.4" y2="239.8"/>
				</g>
				<line class="st1" x1="229.2" y1="217.8" x2="239.1" y2="217.8"/>
			</g>
			<g>
				<g>
					<polygon class="st2" points="367.5,317.5 349.5,317.5 349.5,268.3 358.5,249.2 367.5,268.3 					"/>
					<line class="st2" x1="349.5" y1="268.3" x2="367.5" y2="268.3"/>
				</g>
				<line class="st2" x1="355.6" y1="255.3" x2="361.4" y2="255.3"/>
			</g>
			<g>
				<g>
					<g class="st3">
						<g>
							<polygon class="st4" points="387.1,408.4 160.1,408.4 204.3,374 342.9,374 							"/>
						</g>
					</g>
					<g>
						<rect x="204.3" y="272.4" class="st5" width="138.6" height="80.5"/>
						<g>
							<g>
								<rect x="208.4" y="274.8" class="st4" width="130.4" height="75.8"/>
							</g>
							<polygon class="st5" points="387.1,387.4 160.1,387.4 204.3,353 342.9,353 							"/>
							<g>
								<line class="st6" x1="194.3" y1="355.1" x2="200.4" y2="350.5"/>
								<line class="st6" x1="172.4" y1="371.6" x2="192.1" y2="356.8"/>
								<path class="st6" d="M183.5,394.9h-28.8c-4.2,0-6-5.4-2.6-7.9l6.3-4.8"/>
								<line class="st6" x1="305" y1="394.9" x2="204.3" y2="394.9"/>
								<line class="st6" x1="371.9" y1="394.9" x2="323.2" y2="394.9"/>
								<line class="st6" x1="370.1" y1="368.8" x2="378.8" y2="375.3"/>
								<line class="st6" x1="351.8" y1="354.9" x2="368.4" y2="367.5"/>
							</g>
							<g>
								<polygon class="st7" points="218.5,356.2 210.9,356.2 213.7,354 220.9,354 								"/>
								<polygon class="st7" points="214.2,360.2 205.8,360.2 209,357.7 217,357.7 								"/>
								<polygon class="st7" points="226.9,360.2 218.5,360.2 221.1,357.7 229.1,357.7 								"/>
								<polygon class="st7" points="239.6,360.2 231.3,360.2 233.3,357.7 241.2,357.7 								"/>
								<polygon class="st7" points="252.3,360.2 244,360.2 245.4,357.7 253.4,357.7 								"/>
								<polygon class="st7" points="265.1,360.2 256.7,360.2 257.5,357.7 265.5,357.7 								"/>
								<polygon class="st7" points="277.8,360.2 269.4,360.2 269.6,357.7 277.6,357.7 								"/>
								<polygon class="st7" points="290.5,360.2 282.2,360.2 281.8,357.7 289.7,357.7 								"/>
								<polygon class="st7" points="303.3,360.2 294.9,360.2 293.9,357.7 301.8,357.7 								"/>
								<polygon class="st7" points="316,360.2 307.6,360.2 306,357.7 314,357.7 								"/>
								<polygon class="st7" points="328.7,360.2 320.4,360.2 318.1,357.7 326.1,357.7 								"/>
								<polygon class="st7" points="341.4,360.2 333.1,360.2 330.3,357.7 338.2,357.7 								"/>
								<polygon class="st7" points="209.5,364.4 200.4,364.4 204.2,361.5 212.7,361.5 								"/>
								<polygon class="st7" points="223.2,364.4 214.2,364.4 217.2,361.5 225.8,361.5 								"/>
								<polygon class="st7" points="236.9,364.4 227.9,364.4 230.2,361.5 238.8,361.5 								"/>
								<polygon class="st7" points="250.7,364.4 241.6,364.4 243.3,361.5 251.8,361.5 								"/>
								<polygon class="st7" points="264.4,364.4 255.4,364.4 256.3,361.5 264.9,361.5 								"/>
								<polygon class="st7" points="278.1,364.4 269.1,364.4 269.3,361.5 277.9,361.5 								"/>
								<polygon class="st7" points="291.9,364.4 282.9,364.4 282.4,361.5 290.9,361.5 								"/>
								<polygon class="st7" points="305.6,364.4 296.6,364.4 295.4,361.5 304,361.5 								"/>
								<polygon class="st7" points="319.3,364.4 310.3,364.4 308.5,361.5 317,361.5 								"/>
								<polygon class="st7" points="333.1,364.4 324.1,364.4 321.5,361.5 330,361.5 								"/>
								<polygon class="st7" points="346.8,364.4 337.8,364.4 334.5,361.5 343.1,361.5 								"/>
								<polygon class="st7" points="203.7,369.6 193.8,369.6 198.2,366.2 207.5,366.2 								"/>
								<polygon class="st7" points="218.6,369.6 208.8,369.6 212.4,366.2 221.7,366.2 								"/>
								<polygon class="st7" points="308.3,369.6 223.8,369.6 226.5,366.2 306.3,366.2 								"/>
								<polygon class="st7" points="323.5,369.6 313.6,369.6 311.4,366.2 320.7,366.2 								"/>
								<polygon class="st7" points="338.4,369.6 328.6,369.6 325.6,366.2 334.9,366.2 								"/>
								<polygon class="st7" points="353.4,369.6 343.6,369.6 339.7,366.2 349,366.2 								"/>
								<polygon class="st7" points="233.7,356.2 226.2,356.2 228.3,354 235.5,354 								"/>
								<polygon class="st7" points="244.5,356.2 237,356.2 238.6,354 245.8,354 								"/>
								<polygon class="st7" points="255.3,356.2 247.8,356.2 248.9,354 256.1,354 								"/>
								<polygon class="st7" points="266.1,356.2 258.5,356.2 259.2,354 266.4,354 								"/>
								<polygon class="st7" points="276.9,356.2 269.3,356.2 269.5,354 276.7,354 								"/>
								<polygon class="st7" points="287.6,356.2 280.1,356.2 279.8,354 287,354 								"/>
								<polygon class="st7" points="298.8,356.2 291.2,356.2 290.5,354 297.7,354 								"/>
								<polygon class="st7" points="315.8,356.2 308.3,356.2 306.8,354 314,354 								"/>
								<polygon class="st7" points="326.1,356.2 318.5,356.2 316.6,354 323.8,354 								"/>
								<polygon class="st7" points="336.3,356.2 328.8,356.2 326.3,354 333.6,354 								"/>
								<polygon class="st7" points="299.5,382.7 247.7,382.7 251.8,373.1 295.4,373.1 								"/>
							</g>
							<path class="st8" d="M383.8,391.2H163.5c-1.9,0-3.4-1.5-3.4-3.4v-0.4h227v0.4C387.1,389.7,385.6,391.2,383.8,391.2z"/>
						</g>
					</g>
					<g>
						<path class="st8" d="M204.3,284.6h-23.8c-4.1,0-7.5-3.4-7.5-7.5v-23.8c0-4.1,3.4-7.5,7.5-7.5h23.8c4.1,0,7.5,3.4,7.5,7.5v23.8
							C211.8,281.3,208.4,284.6,204.3,284.6z"/>
						<path class="st9" d="M205.7,286.9h-26.6c-4.6,0-8.4-3.8-8.4-8.4v-26.6c0-4.6,3.8-8.4,8.4-8.4h26.6c4.6,0,8.4,3.8,8.4,8.4v26.6
							C214.1,283.2,210.3,286.9,205.7,286.9z"/>
						<rect x="174.9" y="254.8" class="st10" width="34.5" height="28.1"/>
						<g class="st11">
							<path class="st12" d="M192,269.7h-6.3l-1.2,3.6h-3.8l6.5-17.5h3.3l6.6,17.5h-3.8L192,269.7z M186.7,266.7h4.4l-2.2-6.6
								L186.7,266.7z"/>
							<path class="st12" d="M198.5,256.9c0-0.5,0.2-1,0.5-1.3c0.3-0.3,0.8-0.5,1.4-0.5c0.6,0,1.1,0.2,1.4,0.5
								c0.4,0.3,0.5,0.8,0.5,1.3c0,0.5-0.2,1-0.5,1.3c-0.4,0.3-0.8,0.5-1.4,0.5s-1.1-0.2-1.4-0.5S198.5,257.4,198.5,256.9z
								 M202.2,273.3h-3.5v-13h3.5V273.3z"/>
						</g>
					</g>
					<g>
						<path class="st8" d="M362.6,336h-23.8c-4.1,0-7.5-3.4-7.5-7.5v-23.8c0-4.1,3.4-7.5,7.5-7.5h23.8c4.1,0,7.5,3.4,7.5,7.5v23.8
							C370.1,332.6,366.8,336,362.6,336z"/>
						<path class="st9" d="M364,338.3h-26.6c-4.6,0-8.4-3.8-8.4-8.4v-26.6c0-4.6,3.8-8.4,8.4-8.4H364c4.6,0,8.4,3.8,8.4,8.4v26.6
							C372.4,334.5,368.7,338.3,364,338.3z"/>
						<rect x="327.3" y="306.9" class="st10" width="44.4" height="26"/>
						<g class="st11">
							<path class="st12" d="M349.3,322.7c0-0.8-0.3-1.4-0.8-1.8c-0.5-0.4-1.5-0.9-3-1.3c-1.4-0.5-2.5-0.9-3.4-1.4
								c-2.3-1.2-3.4-2.9-3.4-4.9c0-1.1,0.3-2,0.9-2.9c0.6-0.8,1.5-1.5,2.6-2s2.4-0.7,3.8-0.7c1.4,0,2.7,0.3,3.8,0.8
								c1.1,0.5,2,1.2,2.6,2.2c0.6,0.9,0.9,2,0.9,3.2h-4.1c0-0.9-0.3-1.6-0.9-2.1c-0.6-0.5-1.4-0.8-2.4-0.8c-1,0-1.8,0.2-2.3,0.6
								c-0.6,0.4-0.8,1-0.8,1.7c0,0.6,0.3,1.2,1,1.6c0.7,0.4,1.6,0.8,2.9,1.2c2.3,0.7,4,1.6,5.1,2.6c1.1,1,1.6,2.3,1.6,3.9
								c0,1.7-0.7,3.1-2,4c-1.3,1-3.1,1.5-5.3,1.5c-1.5,0-2.9-0.3-4.2-0.8c-1.3-0.6-2.2-1.3-2.9-2.3s-1-2.1-1-3.4h4.1
								c0,2.2,1.3,3.3,3.9,3.3c1,0,1.7-0.2,2.3-0.6C349,324,349.3,323.4,349.3,322.7z"/>
							<path class="st12" d="M360.1,327.9h-4v-21h4V327.9z"/>
						</g>
					</g>
					<g>
						<path class="st13" d="M341.9,282.8H325c-2.9,0-5.3-2.4-5.3-5.3v-16.9c0-2.9,2.4-5.3,5.3-5.3h16.9c2.9,0,5.3,2.4,5.3,5.3v16.9
							C347.3,280.4,344.9,282.8,341.9,282.8z"/>
						<path class="st14" d="M342.9,284.4H324c-3.3,0-6-2.7-6-6v-18.9c0-3.3,2.7-6,6-6h18.9c3.3,0,6,2.7,6,6v18.9
							C348.9,281.8,346.2,284.4,342.9,284.4z"/>
						<rect x="320.4" y="261.6" class="st10" width="28.3" height="21.3"/>
						<g class="st11">
							<path class="st12" d="M329.6,276.3h-2.9v-13.9h2.9V276.3z"/>
							<path class="st12" d="M332.3,276.3v-13.9h4.3c1.2,0,2.3,0.3,3.3,0.8c1,0.6,1.7,1.3,2.3,2.4s0.8,2.2,0.8,3.5v0.6
								c0,1.3-0.3,2.4-0.8,3.5s-1.3,1.8-2.3,2.3s-2.1,0.8-3.3,0.8H332.3z M335.1,264.7v9.3h1.4c1.1,0,2-0.4,2.6-1.1
								c0.6-0.7,0.9-1.8,0.9-3.1V269c0-1.4-0.3-2.5-0.9-3.2s-1.4-1.1-2.6-1.1H335.1z"/>
						</g>
					</g>
					<g>
						<path class="st13" d="M287.7,241.4h-23.8c-4.1,0-7.5-3.4-7.5-7.5v-23.8c0-4.1,3.4-7.5,7.5-7.5h23.8c4.1,0,7.5,3.4,7.5,7.5
							v23.8C295.2,238.1,291.8,241.4,287.7,241.4z"/>
						<path class="st14" d="M289.1,243.7h-26.6c-4.6,0-8.4-3.8-8.4-8.4v-26.6c0-4.6,3.8-8.4,8.4-8.4h26.6c4.6,0,8.4,3.8,8.4,8.4
							v26.6C297.5,240,293.7,243.7,289.1,243.7z"/>
						<rect x="256.9" y="213.9" class="st10" width="37.7" height="22.2"/>
						<g class="st11">
							<path class="st12" d="M272.8,225.7h-5l-1,2.9h-3.1l5.2-13.9h2.7l5.2,13.9h-3.1L272.8,225.7z M268.5,223.4h3.5l-1.8-5.2
								L268.5,223.4z"/>
							<path class="st12" d="M286.5,222.5H281v3.7h6.5v2.3h-9.3v-13.9h9.3v2.3H281v3.3h5.5V222.5z"/>
						</g>
					</g>
					<g>
						<path class="st13" d="M222.9,334.3h-17.6c-3.1,0-5.6-2.5-5.6-5.6v-17.6c0-3.1,2.5-5.6,5.6-5.6h17.6c3.1,0,5.6,2.5,5.6,5.6
							v17.6C228.4,331.8,225.9,334.3,222.9,334.3z"/>
						<path class="st14" d="M223.9,336h-19.6c-3.4,0-6.2-2.8-6.2-6.2v-19.6c0-3.4,2.8-6.2,6.2-6.2h19.6c3.4,0,6.2,2.8,6.2,6.2v19.6
							C230.1,333.2,227.3,336,223.9,336z"/>
						<rect x="180" y="316.6" class="st10" width="68.1" height="27.9"/>
						<g class="st11">
							<path class="st12" d="M207.5,323.3h-2.9L204,325h-1.7l3-8h1.5l3,8H208L207.5,323.3z M205,322h2l-1-3L205,322z"/>
							<path class="st12" d="M215.3,321.5h-3.2v2.1h3.7v1.3h-5.3v-8h5.3v1.3h-3.7v1.9h3.2V321.5z"/>
							<path class="st12" d="M219,317l2,5.8l2-5.8h2.2v8h-1.6v-2.2l0.2-3.8l-2.2,5.9h-1.1l-2.1-5.9l0.2,3.8v2.2h-1.6v-8H219z"/>
						</g>
					</g>
					<path class="st15" d="M373.6,345.7c0,1-0.8,1.7-1.7,1.7s-1.7-0.8-1.7-1.7c0-1,0.8-1.7,1.7-1.7S373.6,344.8,373.6,345.7z"/>
					<path class="st15" d="M348.5,233.1c0,1-0.8,1.7-1.7,1.7c-1,0-1.7-0.8-1.7-1.7c0-1,0.8-1.7,1.7-1.7
						C347.8,231.3,348.5,232.1,348.5,233.1z"/>
					<path class="st16" d="M362,275.4c0,0.6-0.5,1.1-1.1,1.1s-1.1-0.5-1.1-1.1s0.5-1.1,1.1-1.1C361.5,274.2,362,274.7,362,275.4z"/>
					<circle class="st16" cx="188.9" cy="340.5" r="1.1"/>
					<circle class="st16" cx="202.9" cy="233.1" r="1.1"/>
					<path class="st16" d="M354.5,349.7c0,0.6-0.5,1.1-1.1,1.1s-1.1-0.5-1.1-1.1s0.5-1.1,1.1-1.1C354,348.5,354.5,349,354.5,349.7z"
						/>
					<path class="st15" d="M233.4,251.9c0,1-0.8,1.7-1.7,1.7c-1,0-1.7-0.8-1.7-1.7c0-1,0.8-1.7,1.7-1.7
						C232.6,250.2,233.4,251,233.4,251.9z"/>
					<path class="st15" d="M172.4,345.1c0,1-0.8,1.7-1.7,1.7c-1,0-1.7-0.8-1.7-1.7c0-1,0.8-1.7,1.7-1.7
						C171.6,343.4,172.4,344.1,172.4,345.1z"/>
					<path class="st15" d="M192.4,233.1c0,1-0.8,1.7-1.7,1.7c-1,0-1.7-0.8-1.7-1.7c0-1,0.8-1.7,1.7-1.7
						C191.6,231.3,192.4,232.1,192.4,233.1z"/>
				</g>
				<g>
					<polygon class="st17" points="273.6,343.9 262.9,333.1 273.6,310.6 284.4,333.1 					"/>
					<line class="st17" x1="273.6" y1="310.6" x2="273.6" y2="327.3"/>
					<path class="st17" d="M276.1,329.8c0,1.4-1.1,2.5-2.5,2.5s-2.5-1.1-2.5-2.5s1.1-2.5,2.5-2.5S276.1,328.4,276.1,329.8z"/>
					<polygon class="st17" points="279.8,350 267.5,350 267.5,339.1 268.9,339.1 273.6,343.9 278.4,339.1 279.8,339.1 					"/>
					<line class="st17" x1="267.5" y1="344.6" x2="279.8" y2="344.6"/>
					<line class="st17" x1="267.5" y1="344.6" x2="279.8" y2="344.6"/>
					<path class="st17" d="M287.5,284.4c0,7.7-6.2,13.9-13.9,13.9c-7.7,0-13.9-6.2-13.9-13.9"/>
					<line class="st17" x1="259.8" y1="298.2" x2="287.5" y2="298.2"/>
					<rect x="257.8" y="280.5" class="st17" width="3.9" height="3.9"/>
					<rect x="285.5" y="280.5" class="st17" width="3.9" height="3.9"/>
					<rect x="271.9" y="296.3" class="st17" width="3.9" height="3.9"/>
				</g>
				<rect x="298.8" y="294" class="st18" width="6.2" height="6.2"/>
				<rect x="298.8" y="303.8" class="st8" width="6.2" height="6.2"/>
				<rect x="298.8" y="313.7" class="st19" width="6.2" height="6.2"/>
			</g>
		</g>
	</g>
	<g>
		<defs>
			<path id="SVGID_3_" d="M395.3,420.7H56c-3.1,0-5.6-2.5-5.6-5.6V180.6c0-3.1,2.5-5.6,5.6-5.6h339.3c3.1,0,5.6,2.5,5.6,5.6v234.5
				C400.9,418.2,398.4,420.7,395.3,420.7z"/>
		</defs>
		<clipPath id="SVGID_4_">
			<use xlink:href="#SVGID_3_"  style="overflow:visible;"/>
		</clipPath>
		<g class="st20">
			<g id="XMLID_152_">
				<path id="XMLID_157_" class="st5" d="M133.8,304.4l12.2-11.2c0.7-0.6,0.7-1.6,0-2.3l0,0c-0.6-0.6-1.7-0.6-2.3,0.1L133,303.7
					c-0.2,0.2-0.2,0.5,0,0.7l0,0C133.2,304.6,133.5,304.6,133.8,304.4z"/>
				<path id="XMLID_156_" class="st5" d="M133.5,283.3L133.5,283.3c-0.9-0.2-1.8,0.3-1.9,1.2l-3,16.3c-0.1,0.3,0.1,0.5,0.4,0.6l0,0
					c0.3,0.1,0.6-0.1,0.6-0.4l5-15.8C134.9,284.4,134.4,283.5,133.5,283.3z"/>
				<path id="XMLID_155_" class="st5" d="M153.4,303.7c-0.3-0.9-1.3-1.4-2.2-1.1l-7,2.8l-8.3,2.8c-0.3,0.1-0.5,0.4-0.4,0.7l0,0
					c0.1,0.3,0.4,0.5,0.7,0.4l16-3.5C153.1,305.7,153.7,304.7,153.4,303.7L153.4,303.7z"/>
				<path id="XMLID_154_" class="st5" d="M136.3,315.1l15.8,5c0.8,0.3,1.7-0.2,2-1.1l0,0c0.2-0.9-0.3-1.7-1.2-1.9l-16.3-3
					c-0.3-0.1-0.5,0.1-0.6,0.4l0,0C135.8,314.8,136,315,136.3,315.1z"/>
				<path id="XMLID_153_" class="st5" d="M134.2,320.3l11.2,12.2c0.6,0.7,1.6,0.7,2.3,0l0,0c0.6-0.6,0.6-1.7-0.1-2.3L135,319.5
					c-0.2-0.2-0.5-0.2-0.7,0l0,0C134,319.7,134,320,134.2,320.3z"/>
			</g>
			<g>
				<g>
					<g>
						<ellipse id="XMLID_151_" class="st13" cx="118.2" cy="314" rx="12.5" ry="12.5"/>
						<g id="XMLID_145_">
							
								<image style="overflow:visible;enable-background:new    ;" width="108" height="79" id="XMLID_150_" xlink:href="59A26DE8.png"  transform="matrix(0.2314 0 0 0.2314 105.7024 301.2983)">
							</image>
						</g>
					</g>
					<g id="XMLID_139_">
						<g>
							<g>
								<path class="st13" d="M86.6,349.2c0,0,1,0,2.7-0.4l-1.1-3.7c-0.4,0.1-0.8,0.2-1.2,0.2C87,346.5,86.8,347.8,86.6,349.2z"/>
								<path class="st13" d="M77.6,326.5l5,17.5c0.3-4.3-1.2-5.6,0.8-6.2s3.7,2.8,3.7,7.5c0.4-0.1,0.8-0.1,1.2-0.2l-5.7-20
									L77.6,326.5z"/>
							</g>
							<path class="st13" d="M89.3,367.8l0.6,2c0.4,1.5,1.9,2.3,3.4,1.9l1.8-0.5c0.2-0.1,0.3-0.1,0.5-0.2l-1.2-4.2
								c-0.7,0.2-1.4,0.3-2.2,0.5C91.2,367.5,90.2,367.7,89.3,367.8z"/>
							<path class="st21" d="M86.6,349.2c1.4-6.5-0.7-12.1-3.2-11.3c-2,0.6-0.5,1.9-0.8,6.2l6.8,23.8c0.9-0.2,1.9-0.3,2.9-0.5
								c0.8-0.1,1.5-0.3,2.2-0.5l-5.1-18.1C87.5,349.1,86.6,349.2,86.6,349.2z"/>
						</g>
						<path id="XMLID_140_" class="st21" d="M82.5,325.1L95.6,371c1.1-0.6,1.7-1.9,1.4-3.2l-12.3-43.4L82.5,325.1z"/>
					</g>
					<g>
						<g id="XMLID_113_">
							<path id="XMLID_138_" class="st22" d="M65.7,318.8c-0.1,0-0.1,0.1-0.2,0.1c-0.3,0.2-0.4,0.6-0.3,1.1l2.4,8.5L70,337
								c0.1,0.4,0.5,0.8,0.8,0.8c0.1,0,0.1,0,0.2,0c6.4-1,12.9-1.6,19.4-1.8l-7.3-25.7C77.5,313.4,71.7,316.3,65.7,318.8z"/>
							<path id="XMLID_136_" class="st13" d="M98.9,299.5c-5,3.9-10.3,7.4-15.8,10.6l7.3,25.7c6.3-0.2,12.7,0.1,19,0.7l16.9,1.7
								l-7-24.6l-7-24.6L98.9,299.5z"/>
						</g>
						<g>
							<path class="st21" d="M110,332c-6.6,0.6-13.3,1.4-20,2.3l0.4,1.5c6.3-0.2,12.7,0.1,19,0.7l16.9,1.7l-2.1-7.5L110,332z"/>
							<path class="st23" d="M70.9,337.7L70.9,337.7C70.8,337.7,70.8,337.7,70.9,337.7z"/>
							<path class="st24" d="M83.8,335.3c-4.4,0.7-8.8,1.5-13.2,2.3h0.1h0.1c0.1,0,0.1,0,0.2,0c6.4-1,12.9-1.6,19.4-1.8l-0.4-1.5
								C87.9,334.7,85.9,335,83.8,335.3z"/>
						</g>
					</g>
					<path id="XMLID_110_" class="st22" d="M127.5,340.8l-0.9,0.3c-0.8,0.2-1.6-0.2-1.8-1l-14.7-51.7c-0.2-0.8,0.2-1.6,1-1.8
						l0.9-0.3c0.8-0.2,1.6,0.2,1.8,1l14.7,51.7C128.7,339.8,128.3,340.6,127.5,340.8z"/>
					<g>
						<path id="XMLID_71_" class="st13" d="M69.5,334.9l-4.5,1.3c-0.9,0.3-1.9-0.3-2.1-1.2l-2.8-9.7c-0.3-0.9,0.3-1.9,1.2-2.1
							l4.5-1.3L69.5,334.9z"/>
						
							<rect id="XMLID_70_" x="66.8" y="321.8" transform="matrix(0.9618 -0.2738 0.2738 0.9618 -87.3925 30.9579)" class="st21" width="0.8" height="13.5"/>
					</g>
				</g>
				<g>
					<g>
						<path id="XMLID_69_" class="st19" d="M74,369.4l-3.8-13.3c0,0,0.8-0.2,1.6-0.5c0.8-0.2,5.8-2.4,7.6-9.4c1.7-7-1.1-8.7,1.3-9.5
							c2.5-0.7,4.6,4.8,3.2,11.3c0,0,5-0.2,11.7-3.2c0.5-0.2,1.1,0.1,1.3,0.6l0.5,1.6c0.1,0.3,0,0.6-0.2,0.8c-0.4,0.5-1.2,1.3-2.4,2
							l1.9-0.2c0.4,0,0.9,0.2,1,0.7l0.6,1.9c0.1,0.3,0,0.7-0.2,0.9c-0.4,0.5-1.3,1.3-2.5,1.9l1.9-0.5c0.5-0.1,1,0.1,1.1,0.6l0.5,1.8
							c0.1,0.3,0,0.6-0.2,0.9c-0.5,0.5-1.4,1.5-2.6,2.3l2.6-0.7c0.2-0.1,0.5,0.1,0.6,0.3l0.3,1.1c0,0.1,0,0.3-0.1,0.4
							c-0.6,0.8-3.4,3.8-10,4.9C82,367.6,77.1,368.5,74,369.4z"/>
						<g id="XMLID_30_">
							<path id="XMLID_68_" class="st25" d="M96.3,360.4c1.2-0.7,2.2-1.7,2.6-2.3c0.2-0.2,0.3-0.6,0.2-0.9c0,0-1.3,1.6-3.5,3.1
								L96.3,360.4z"/>
							<path id="XMLID_65_" class="st25" d="M86.7,366.1c-8.3,1.6-12.7,3.3-12.7,3.3c3.1-0.9,8-1.8,15.6-3.1c6.6-1.1,9.4-4.1,10-4.9
								c0.1-0.1,0.1-0.3,0.1-0.4l-0.1-0.2C99.7,360.8,95,364.5,86.7,366.1z"/>
							<path id="XMLID_32_" class="st25" d="M95.6,355.3c1.2-0.6,2-1.4,2.5-1.9c0.2-0.2,0.3-0.6,0.2-0.9c0,0-1.3,1.6-3.8,2.9
								L95.6,355.3z"/>
							<path id="XMLID_31_" class="st25" d="M97.4,347.2c0,0-1.6,1.6-3.9,2.9l1.3-0.1c1.2-0.7,2-1.5,2.4-2
								C97.5,347.8,97.5,347.5,97.4,347.2z"/>
						</g>
					</g>
					<g>
						<g>
							
								<rect id="XMLID_29_" x="69.7" y="354.6" transform="matrix(0.9618 -0.2738 0.2738 0.9618 -96.7769 33.3116)" class="st12" width="2.5" height="17.5"/>
							
								<rect id="XMLID_28_" x="69.8" y="354.9" transform="matrix(0.9618 -0.2737 0.2737 0.9618 -96.8509 33.0845)" class="st5" width="0.7" height="17.5"/>
						</g>
						<g>
							<g id="XMLID_24_">
								
									<rect id="XMLID_27_" x="38.6" y="357.2" transform="matrix(0.9618 -0.2738 0.2738 0.9618 -97.9096 28.7614)" class="st8" width="31" height="15.9"/>
								
									<rect id="XMLID_26_" x="41.5" y="372.7" transform="matrix(0.9618 -0.2738 0.2738 0.9618 -100.6641 29.9585)" class="st4" width="31" height="5.8"/>
							</g>
							<g>
								<path id="XMLID_23_" class="st26" d="M64,372.9c0.2,0.8-0.2,1.6-1,1.8c-0.8,0.2-1.6-0.2-1.8-1s0.2-1.6,1-1.8
									S63.8,372.2,64,372.9z"/>
								<path id="XMLID_22_" class="st26" d="M68.4,371.7c0.2,0.8-0.2,1.6-1,1.8c-0.8,0.2-1.6-0.2-1.8-1c-0.2-0.8,0.2-1.6,1-1.8
									C67.4,370.5,68.2,370.9,68.4,371.7z"/>
								<path id="XMLID_21_" class="st22" d="M62.8,372.8c0,0.1,0,0.3-0.2,0.3c-0.1,0-0.3,0-0.3-0.2c0-0.1,0-0.3,0.2-0.3
									C62.6,372.5,62.7,372.6,62.8,372.8z"/>
								<path id="XMLID_20_" class="st22" d="M63,373.8c0,0.1,0,0.3-0.2,0.3c-0.1,0-0.3,0-0.3-0.2c0-0.1,0-0.3,0.2-0.3
									C62.8,373.5,63,373.6,63,373.8z"/>
								<path id="XMLID_19_" class="st22" d="M67.2,371.5c0,0.1,0,0.3-0.2,0.3c-0.1,0-0.3,0-0.3-0.2c0-0.1,0-0.3,0.2-0.3
									C67,371.3,67.1,371.4,67.2,371.5z"/>
								<path id="XMLID_18_" class="st22" d="M67.4,372.5c0,0.1,0,0.3-0.2,0.3c-0.1,0-0.3,0-0.3-0.2c0-0.1,0-0.3,0.2-0.3
									C67.2,372.3,67.4,372.4,67.4,372.5z"/>
							</g>
						</g>
					</g>
				</g>
			</g>
		</g>
	</g>
	<g>
		<defs>
			<path id="SVGID_5_" d="M395.3,420.7H56c-3.1,0-5.6-2.5-5.6-5.6V180.6c0-3.1,2.5-5.6,5.6-5.6h339.3c3.1,0,5.6,2.5,5.6,5.6v234.5
				C400.9,418.2,398.4,420.7,395.3,420.7z"/>
		</defs>
		<clipPath id="SVGID_6_">
			<use xlink:href="#SVGID_5_"  style="overflow:visible;"/>
		</clipPath>
		<g class="st27">
			<g>
				<g>
					<path class="st28" d="M138,267.6H83c-16.5,0-30-13.4-30-30l0,0c0-16.5,13.4-30,30-30h55c16.5,0,30,13.4,30,30l0,0
						C167.9,254.2,154.5,267.6,138,267.6z"/>
					<g>
						<polygon class="st28" points="113.4,267.1 95.6,277.8 98.2,257.4 						"/>
					</g>
				</g>
			</g>
			<g class="st11">
				<path class="st12" d="M86.5,230.5l2-10.5h3l-3.3,14.7h-3l-2.4-9.8l-2.4,9.8h-3l-3.3-14.7h3l2,10.4l2.4-10.4h2.6L86.5,230.5z"/>
				<path class="st12" d="M102,228.4h-5.8v4h6.8v2.4h-9.8v-14.7h9.8v2.5h-6.8v3.5h5.8V228.4z"/>
				<path class="st12" d="M118.2,231.7h-5.3l-1,3h-3.2l5.5-14.7h2.8l5.5,14.7h-3.2L118.2,231.7z M113.7,229.3h3.7l-1.8-5.5
					L113.7,229.3z"/>
				<path class="st12" d="M129.2,229.4h-2.4v5.4h-3v-14.7h5.5c1.7,0,3.1,0.4,4,1.2c0.9,0.8,1.4,1.9,1.4,3.3c0,1-0.2,1.8-0.7,2.5
					c-0.4,0.7-1.1,1.2-2,1.6l3.2,6v0.1H132L129.2,229.4z M126.8,226.9h2.4c0.8,0,1.3-0.2,1.8-0.6c0.4-0.4,0.6-0.9,0.6-1.6
					c0-0.7-0.2-1.2-0.6-1.6c-0.4-0.4-1-0.6-1.8-0.6h-2.4V226.9z"/>
				<path class="st12" d="M145.8,228.4H140v4h6.8v2.4H137v-14.7h9.8v2.5H140v3.5h5.8V228.4z"/>
			</g>
			<g class="st11">
				<path class="st12" d="M85.7,254.3h-3.2v-6.6h-6.2v6.6h-3.2v-15.3h3.2v6.2h6.2v-6.2h3.2V254.3z"/>
				<path class="st12" d="M91.8,254.3h-3.2v-15.3h3.2V254.3z"/>
				<path class="st12" d="M100.4,248.7h-2.5v5.6h-3.2v-15.3h5.7c1.8,0,3.2,0.4,4.2,1.2c1,0.8,1.5,1.9,1.5,3.4c0,1-0.2,1.9-0.7,2.6
					c-0.5,0.7-1.1,1.3-2.1,1.7l3.3,6.3v0.1h-3.4L100.4,248.7z M97.9,246.1h2.5c0.8,0,1.4-0.2,1.8-0.6s0.7-1,0.7-1.7
					c0-0.7-0.2-1.3-0.6-1.7c-0.4-0.4-1-0.6-1.9-0.6h-2.5V246.1z"/>
				<path class="st12" d="M111.8,254.3h-3.2v-15.3h3.2V254.3z"/>
				<path class="st12" d="M127.2,254.3H124l-6.1-10.1v10.1h-3.2v-15.3h3.2L124,249v-10.1h3.1V254.3z"/>
				<path class="st12" d="M142.1,252.3c-0.6,0.7-1.4,1.2-2.4,1.6c-1,0.4-2.2,0.6-3.5,0.6c-1.3,0-2.5-0.3-3.5-0.9
					c-1-0.6-1.8-1.4-2.3-2.5s-0.8-2.4-0.8-3.9v-1c0-1.5,0.3-2.9,0.8-4c0.5-1.1,1.3-2,2.2-2.6c1-0.6,2.1-0.9,3.4-0.9
					c1.8,0,3.2,0.4,4.3,1.3c1,0.9,1.6,2.1,1.8,3.8H139c-0.1-0.9-0.5-1.5-0.9-1.9c-0.5-0.4-1.1-0.6-2-0.6c-1.1,0-1.9,0.4-2.5,1.2
					c-0.6,0.8-0.8,2-0.9,3.6v1c0,1.6,0.3,2.8,0.9,3.6c0.6,0.8,1.5,1.2,2.7,1.2c1.2,0,2-0.3,2.5-0.8v-2.6H136v-2.3h6V252.3z"/>
				<path class="st12" d="M146.2,251.2c0.5,0,0.9,0.2,1.2,0.5s0.5,0.7,0.5,1.2c0,0.5-0.2,0.8-0.5,1.1s-0.7,0.5-1.2,0.5
					c-0.5,0-0.9-0.2-1.2-0.5s-0.5-0.7-0.5-1.1s0.2-0.8,0.5-1.2C145.3,251.4,145.7,251.2,146.2,251.2z M147.5,249.6H145l-0.4-10.6
					h3.2L147.5,249.6z"/>
			</g>
		</g>
	</g>
</g>
</svg>
