<?xml version="1.0" encoding="utf-8"?>
<!-- Generator: Adobe Illustrator 24.0.0, SVG Export Plug-In . SVG Version: 6.00 Build 0)  -->
<svg version="1.1" id="Layer_1" xmlns="http://www.w3.org/2000/svg" xmlns:xlink="http://www.w3.org/1999/xlink" x="0px" y="0px"
	 viewBox="0 0 30.8 30.8" style="enable-background:new 0 0 30.8 30.8;" xml:space="preserve">
<style type="text/css">
	.st0{fill:#FFFFFF;stroke:#FFFFFF;stroke-width:0.75;stroke-miterlimit:10;}
</style>
<g id="Edges">
</g>
<g id="Symbol">
	<g>
		<path class="st0" d="M5.6,1.2c-1,0.4-1.8,0.9-2.7,1.7C2.1,3.7,1.6,4.6,1.2,5.6s-0.6,2-0.7,3.6s-0.1,2.1-0.1,6.2
			c0,4.1,0,4.6,0.1,6.2s0.3,2.7,0.7,3.6c0.4,1,0.9,1.8,1.7,2.7c0.8,0.8,1.7,1.3,2.7,1.7c1,0.4,2,0.6,3.6,0.7s2.1,0.1,6.2,0.1
			c4.1,0,4.6,0,6.2-0.1s2.7-0.3,3.6-0.7c1-0.4,1.8-0.9,2.7-1.7c0.8-0.8,1.3-1.7,1.7-2.7c0.4-1,0.6-2,0.7-3.6s0.1-2.1,0.1-6.2
			s0-4.6-0.1-6.2c-0.1-1.6-0.3-2.7-0.7-3.6c-0.4-1-0.9-1.8-1.7-2.7c-0.8-0.8-1.7-1.3-2.7-1.7s-2-0.6-3.6-0.7
			c-1.6-0.1-2.1-0.1-6.2-0.1s-4.6,0-6.2,0.1C7.6,0.6,6.5,0.8,5.6,1.2z M21.5,3.2c1.5,0.1,2.3,0.3,2.8,0.5C25,4,25.5,4.3,26,4.8
			s0.8,1,1.1,1.7c0.2,0.5,0.5,1.3,0.5,2.8c0.1,1.6,0.1,2.1,0.1,6.1c0,4,0,4.5-0.1,6.1c-0.1,1.5-0.3,2.3-0.5,2.8
			C26.8,25,26.5,25.5,26,26s-1,0.8-1.7,1.1c-0.5,0.2-1.3,0.5-2.8,0.5c-1.6,0.1-2.1,0.1-6.1,0.1s-4.5,0-6.1-0.1
			c-1.5-0.1-2.3-0.3-2.8-0.5c-0.7-0.3-1.2-0.6-1.7-1.1S4,25,3.7,24.3c-0.2-0.5-0.5-1.3-0.5-2.8c-0.1-1.6-0.1-2.1-0.1-6.1
			s0-4.5,0.1-6.1C3.3,7.8,3.5,7,3.7,6.5C4,5.8,4.3,5.3,4.8,4.8s1-0.8,1.7-1.1C7,3.5,7.8,3.2,9.3,3.2c1.6-0.1,2.1-0.1,6.1-0.1
			C19.4,3.1,19.9,3.1,21.5,3.2z"/>
		<path class="st0" d="M7.7,15.4c0,4.3,3.5,7.7,7.7,7.7c4.3,0,7.7-3.5,7.7-7.7c0-4.3-3.4-7.7-7.7-7.7S7.7,11.1,7.7,15.4z M20.4,15.4
			c0,2.8-2.2,5-5,5c-2.8,0-5-2.2-5-5c0-2.8,2.2-5,5-5C18.2,10.4,20.4,12.6,20.4,15.4z"/>
		<circle class="st0" cx="23.4" cy="7.4" r="1.8"/>
	</g>
</g>
</svg>
