<svg xmlns="http://www.w3.org/2000/svg" xmlns:xlink="http://www.w3.org/1999/xlink" viewBox="9387.5 2737.5 215 215">
  <defs>
    <style>
      .cls-1 {
        fill: #fff;
      }

      .cls-2 {
        fill: #4885fa;
      }

      .cls-3 {
        filter: url(#Rectangle_56);
      }
    </style>
    <filter id="Rectangle_56" x="9387.5" y="2737.5" width="215" height="215" filterUnits="userSpaceOnUse">
      <feOffset dy="6" input="SourceAlpha"/>
      <feGaussianBlur stdDeviation="12.5" result="blur"/>
      <feFlood flood-color="#003591" flood-opacity="0.149"/>
      <feComposite operator="in" in2="blur"/>
      <feComposite in="SourceGraphic"/>
    </filter>
  </defs>
  <g id="Group_267" data-name="Group 267" transform="translate(7960)">
    <g class="cls-3" transform="matrix(1, 0, 0, 1, -7960, 0)">
      <rect id="Rectangle_56-2" data-name="Rectangle 56" class="cls-1" width="140" height="140" rx="70" transform="translate(9425 2769)"/>
    </g>
    <g id="Group_262" data-name="Group 262" transform="translate(1502 2806)">
      <path id="Path_1158" data-name="Path 1158" class="cls-2" d="M64.781,31.781H62a28.228,28.228,0,0,0-1.438-7.945,1.282,1.282,0,0,0-1.194-.877,1.1,1.1,0,0,0-.39.073,1.278,1.278,0,0,0-.756,1.609,26.633,26.633,0,0,1,1.316,7.141H53.058a20.176,20.176,0,0,0-3.046-9.408L51.3,21.057h7.433a1.325,1.325,0,0,0,.877-.366l5.971-5.947a1.269,1.269,0,0,0,.244-1.365,1.215,1.215,0,0,0-1.145-.731H59.711l3.607-3.631a1.2,1.2,0,0,0,0-1.755,1.221,1.221,0,0,0-.877-.39,1.128,1.128,0,0,0-.853.39l-3.631,3.631V5.947a1.31,1.31,0,0,0-.756-1.17,1.056,1.056,0,0,0-.463-.1,1.367,1.367,0,0,0-.9.39l-5.971,5.947a1.337,1.337,0,0,0-.341.877V19.3L48.5,20.326A19.932,19.932,0,0,0,34.218,12.99V6.483a26.671,26.671,0,0,1,12.332,3.7,1.181,1.181,0,0,0,.634.171,1.344,1.344,0,0,0,1.1-.609,1.259,1.259,0,0,0-.439-1.682,28.421,28.421,0,0,0-13.575-4V1.243a1.243,1.243,0,0,0-2.486,0V4A29.193,29.193,0,0,0,4,31.781H1.243a1.243,1.243,0,0,0,0,2.486H4a29.13,29.13,0,0,0,27.76,27.76v2.754a1.243,1.243,0,0,0,2.486,0V62.027A29.13,29.13,0,0,0,62,34.267h2.754A1.248,1.248,0,0,0,66,33.024,1.212,1.212,0,0,0,64.781,31.781Zm-33-25.3V12.99A20.074,20.074,0,0,0,12.966,31.781H6.483A26.669,26.669,0,0,1,31.781,6.483ZM12.966,34.267a20.211,20.211,0,0,0,5.849,12.966,19.936,19.936,0,0,0,12.942,5.825v6.507A26.551,26.551,0,0,1,6.483,34.291h6.483ZM46.794,22.081l-13.77,13.77L29.49,32.317a1.237,1.237,0,0,0-1.706,0,1.231,1.231,0,0,0-.366.951,1.087,1.087,0,0,0,.366.8l4.387,4.411a1.269,1.269,0,0,0,.853.366,1.3,1.3,0,0,0,.877-.366L48.208,24.128a17.779,17.779,0,1,1-1.414-2.047ZM34.267,59.541V53.033A20.058,20.058,0,0,0,53.058,34.243h6.483A26.555,26.555,0,0,1,34.267,59.541ZM56.324,14.989a1.169,1.169,0,0,0,.414.122h4.948l-3.461,3.436H52.01V12.381l3.51-3.51v5a.881.881,0,0,0,.1.463c.195.366.414.585.658.634Z"/>
      <path id="Path_1159" data-name="Path 1159" class="cls-2" d="M89.8,101.011a11.168,11.168,0,0,0,22.276,1.145,1.2,1.2,0,0,0-1.1-1.316h-.122a1.2,1.2,0,0,0-1.219,1.1,8.687,8.687,0,1,1-8.652-9.578,8.248,8.248,0,0,1,4.679,1.389,1.31,1.31,0,0,0,.682.195,1.2,1.2,0,0,0,1.024-.561,1.221,1.221,0,0,0-.366-1.682,10.931,10.931,0,0,0-6.044-1.8A11.073,11.073,0,0,0,89.8,101.011Z" transform="translate(-67.914 -67.987)"/>
    </g>
  </g>
</svg>
