<svg xmlns="http://www.w3.org/2000/svg" xmlns:xlink="http://www.w3.org/1999/xlink" viewBox="8620.5 2737.5 215 215">
  <defs>
    <style>
      .cls-1 {
        fill: #fff;
      }

      .cls-2 {
        fill: #4885fa;
      }

      .cls-3 {
        filter: url(#Rectangle_54);
      }
    </style>
    <filter id="Rectangle_54" x="8620.5" y="2737.5" width="215" height="215" filterUnits="userSpaceOnUse">
      <feOffset dy="6" input="SourceAlpha"/>
      <feGaussianBlur stdDeviation="12.5" result="blur"/>
      <feFlood flood-color="#003591" flood-opacity="0.149"/>
      <feComposite operator="in" in2="blur"/>
      <feComposite in="SourceGraphic"/>
    </filter>
  </defs>
  <g id="Group_265" data-name="Group 265" transform="translate(7960)">
    <g class="cls-3" transform="matrix(1, 0, 0, 1, -7960, 0)">
      <rect id="Rectangle_54-2" data-name="Rectangle 54" class="cls-1" width="140" height="140" rx="70" transform="translate(8658 2769)"/>
    </g>
    <g id="Group_261" data-name="Group 261" transform="translate(735 2811)">
      <g id="Group_258" data-name="Group 258">
        <path id="Path_1152" data-name="Path 1152" class="cls-2" d="M56.667,47.747a1.2,1.2,0,0,1-1.218-1.218,1.226,1.226,0,0,1,1.218-1.218,6.88,6.88,0,0,0,1.31-13.632,1.162,1.162,0,0,1-.9-.644v-.023a1.339,1.339,0,0,1,.069-1.149,5.57,5.57,0,0,0,.736-2.759,5.666,5.666,0,0,0-5.678-5.632,5.522,5.522,0,0,0-3.77,1.448,1.113,1.113,0,0,1-.828.368,1.3,1.3,0,0,1-.414-.069c-.023,0-.023,0-.046-.023a1.241,1.241,0,0,1-.759-1.011,11.149,11.149,0,0,0-22.207,1.448,10.526,10.526,0,0,0,.207,2.069,1.22,1.22,0,0,1-.368,1.08,1.155,1.155,0,0,1-.8.345,1.357,1.357,0,0,1-.322-.046,10.618,10.618,0,0,0-1.885-.161,9.207,9.207,0,0,0,0,18.414,1.226,1.226,0,0,1,1.218,1.218,1.2,1.2,0,0,1-1.218,1.218A11.7,11.7,0,0,1,9.356,36.322,12.892,12.892,0,0,1,10.851,11.2a8.617,8.617,0,0,1-.069-1.1A10.105,10.105,0,0,1,20.874,0a9.94,9.94,0,0,1,7.954,3.931,7.867,7.867,0,0,1,3.655-.874,8.254,8.254,0,0,1,8.253,8.069,13.622,13.622,0,0,1,7.7,8.8,8.32,8.32,0,0,1,3.77-.943A8.149,8.149,0,0,1,59.885,29.7a9.3,9.3,0,0,1-3.218,18.046ZM20.874,2.46a7.643,7.643,0,0,0-7.632,7.632,6.946,6.946,0,0,0,.23,1.885,1.284,1.284,0,0,1-.207,1.011,1.15,1.15,0,0,1-.92.506A10.447,10.447,0,0,0,9.609,33.839,11.56,11.56,0,0,1,20.92,24.46c.276,0,.575,0,.851.023-.023-.3-.046-.575-.046-.874A13.623,13.623,0,0,1,35.31,9.977a14.262,14.262,0,0,1,2.9.345,5.766,5.766,0,0,0-9.057-3.793,1.131,1.131,0,0,1-.69.23.943.943,0,0,1-.253-.023,1.171,1.171,0,0,1-.782-.575A7.552,7.552,0,0,0,20.874,2.46Z"/>
        <path id="Path_1153" data-name="Path 1153" class="cls-2" d="M60.379,30.609a7.991,7.991,0,0,0,.46-2.759,7.859,7.859,0,0,0-7.862-7.862,8.216,8.216,0,0,0-3.908,1.057,13.515,13.515,0,0,0-7.793-8.989h0A8.006,8.006,0,0,0,33.253,4.08a7.539,7.539,0,0,0-3.724.943A9.675,9.675,0,0,0,21.644,1a9.9,9.9,0,0,0-9.862,9.862,7.714,7.714,0,0,0,.092,1.287,12.645,12.645,0,0,0-1.494,24.736A11.45,11.45,0,0,0,21.8,48.287a.967.967,0,0,0,.989-.989,1,1,0,0,0-.989-.989,9.437,9.437,0,0,1,0-18.874,10.983,10.983,0,0,1,1.931.184.906.906,0,0,0,.92-.23,1.08,1.08,0,0,0,.3-.874,9.694,9.694,0,0,1-.207-2.115,11.38,11.38,0,0,1,22.667-1.471,1.1,1.1,0,0,0,.644.828.93.93,0,0,0,.989-.23,5.892,5.892,0,0,1,9.839,4.345,6.028,6.028,0,0,1-.759,2.874,1.054,1.054,0,0,0-.069.943,1.028,1.028,0,0,0,.736.529A7.112,7.112,0,0,1,57.437,46.31a1,1,0,0,0-.989.989.967.967,0,0,0,.989.989,9.08,9.08,0,0,0,2.943-17.678Zm-37.655-6.23a10.171,10.171,0,0,0,.069,1.126,11.374,11.374,0,0,0-12.253,9.4,10.68,10.68,0,0,1,2.575-20.874.973.973,0,0,0,.736-.414,1.046,1.046,0,0,0,.184-.828,6.937,6.937,0,0,1-.23-1.931A7.859,7.859,0,0,1,28.4,6.816a.951.951,0,0,0,.644.46.84.84,0,0,0,.759-.184,6,6,0,0,1,9.471,4.276,14.447,14.447,0,0,0-3.172-.414A13.431,13.431,0,0,0,22.724,24.379Z" transform="translate(-0.77 -0.77)"/>
      </g>
      <g id="Group_259" data-name="Group 259" transform="translate(23.011 24.989)">
        <path id="Path_1154" data-name="Path 1154" class="cls-2" d="M115.755,139.918a12.381,12.381,0,0,1-2.552-.23,1.275,1.275,0,0,1-1.011-.989l-.667-4.207h0L108.054,137a1.376,1.376,0,0,1-.713.23,1.042,1.042,0,0,1-.69-.23,15.467,15.467,0,0,1-3.609-3.632,1.172,1.172,0,0,1,.023-1.379l2.46-3.471-4.207-.69a1.194,1.194,0,0,1-1.011-1.011,16.479,16.479,0,0,1-.207-2.506,18.857,18.857,0,0,1,.207-2.552,1.245,1.245,0,0,1,1.011-1.011l4.207-.621c0-.023,0-.023.023-.046l-2.483-3.425a1.245,1.245,0,0,1-.046-1.425,16.185,16.185,0,0,1,3.609-3.586,1.182,1.182,0,0,1,.69-.23,1.291,1.291,0,0,1,.713.207l3.448,2.506h.023l.644-4.23a1.245,1.245,0,0,1,1.011-1.011,17.477,17.477,0,0,1,5.057,0,1.171,1.171,0,0,1,1.011,1.011l.69,4.23,3.448-2.506a1.313,1.313,0,0,1,.713-.23,1.291,1.291,0,0,1,.713.207,15.608,15.608,0,0,1,3.586,3.586,1.245,1.245,0,0,1,0,1.425l-2.529,3.425.023.046,4.184.621a1.171,1.171,0,0,1,1.011,1.011,15.094,15.094,0,0,1,.207,2.552,13.984,13.984,0,0,1-.207,2.506,1.171,1.171,0,0,1-1.011,1.011l-4.184.69h0l2.506,3.471a1.173,1.173,0,0,1,0,1.379,15.331,15.331,0,0,1-3.586,3.632,1.389,1.389,0,0,1-.736.23,1.291,1.291,0,0,1-.713-.207l-3.448-2.506-.69,4.184a1.2,1.2,0,0,1-1.011,1.011A10.025,10.025,0,0,1,115.755,139.918Zm-1.264-2.506c.414.023.851.023,1.264.023s.851,0,1.264-.023l.644-3.977a1.257,1.257,0,0,1,.828-1.011,7.631,7.631,0,0,0,1.08-.46.964.964,0,0,1,.506-.115,1.187,1.187,0,0,1,.759.276l3.241,2.368a10.473,10.473,0,0,0,1.816-1.839l-2.368-3.264a1.163,1.163,0,0,1-.115-1.241,2.136,2.136,0,0,1,.115-.23,7.173,7.173,0,0,0,.345-.9,1.2,1.2,0,0,1,.989-.8l4-.621c.046-.483.069-.874.069-1.264a11.651,11.651,0,0,0-.069-1.264l-4-.667a1.169,1.169,0,0,1-.966-.8c-.092-.253-.207-.529-.322-.8-.046-.092-.092-.184-.138-.3a1.23,1.23,0,0,1,.115-1.287l2.345-3.264a10.8,10.8,0,0,0-1.793-1.77l-3.264,2.368a1.129,1.129,0,0,1-1.264.069l-.483-.207a4.666,4.666,0,0,1-.6-.253,1.271,1.271,0,0,1-.828-.943l-.644-4a11.624,11.624,0,0,0-2.529,0l-.644,4a1.157,1.157,0,0,1-.8.943,5.187,5.187,0,0,0-.759.3,2.32,2.32,0,0,0-.345.161,1.246,1.246,0,0,1-.575.138,1.085,1.085,0,0,1-.69-.23l-3.264-2.368a11.846,11.846,0,0,0-1.793,1.77l2.391,3.264a1.234,1.234,0,0,1,.069,1.287,6.233,6.233,0,0,0-.3.69c-.046.138-.115.276-.161.391a1.179,1.179,0,0,1-.943.8l-4,.667a11.624,11.624,0,0,0,0,2.529l4,.621a1.134,1.134,0,0,1,.943.851c.092.207.46,1.08.46,1.08a1.208,1.208,0,0,1-.069,1.241l-2.414,3.287a12.133,12.133,0,0,0,1.793,1.816l3.264-2.414a.023.023,0,0,0,.023-.023,1.408,1.408,0,0,1,.713-.207,1.155,1.155,0,0,1,.552.138,6.085,6.085,0,0,0,1.08.46,1.1,1.1,0,0,1,.8,1.034Z" transform="translate(-100.1 -108.7)"/>
        <path id="Path_1155" data-name="Path 1155" class="cls-2" d="M130.893,121.761l-4.322-.644c-.023-.115-.092-.184-.115-.3l2.6-3.517a1.083,1.083,0,0,0,0-1.172,15.475,15.475,0,0,0-3.517-3.517,1.083,1.083,0,0,0-1.172,0l-3.563,2.6c-.092-.069-.184-.069-.23-.115l-.713-4.345a1,1,0,0,0-.828-.828,18.128,18.128,0,0,0-4.989,0,1.057,1.057,0,0,0-.828.828l-.667,4.345a1.406,1.406,0,0,1-.276.115l-3.563-2.6a1.044,1.044,0,0,0-1.149,0A16.162,16.162,0,0,0,104,116.129a1.04,1.04,0,0,0,.023,1.172l2.552,3.517a.8.8,0,0,1-.115.3l-4.322.644a1.027,1.027,0,0,0-.828.828,18.752,18.752,0,0,0-.207,2.529,17.461,17.461,0,0,0,.207,2.46.974.974,0,0,0,.828.828l4.322.713a.71.71,0,0,1,.115.23l-2.552,3.586A.9.9,0,0,0,104,134.06a15.079,15.079,0,0,0,3.563,3.586,1.043,1.043,0,0,0,1.149,0l3.563-2.575a.478.478,0,0,1,.276.115l.667,4.3a1.057,1.057,0,0,0,.828.828,11.3,11.3,0,0,0,2.506.23,12.864,12.864,0,0,0,2.506-.23,1,1,0,0,0,.828-.828l.713-4.3a.52.52,0,0,1,.23-.115l3.563,2.575a1.083,1.083,0,0,0,1.172,0,14.49,14.49,0,0,0,3.517-3.586,1.006,1.006,0,0,0,0-1.126l-2.6-3.586.115-.23,4.322-.713a1,1,0,0,0,.828-.828,12.7,12.7,0,0,0,.207-2.46,13.886,13.886,0,0,0-.207-2.529A1.026,1.026,0,0,0,130.893,121.761Zm-1.034,4.8-4.184.644a1.053,1.053,0,0,0-.8.644,12.357,12.357,0,0,1-.46,1.172.871.871,0,0,0,.092.988l2.46,3.4a11.391,11.391,0,0,1-2.092,2.115l-3.4-2.483a.95.95,0,0,0-1.034-.115,6.584,6.584,0,0,1-1.1.46,1.034,1.034,0,0,0-.69.828l-.667,4.161a20.949,20.949,0,0,1-2.943,0l-.69-4.161a.919.919,0,0,0-.644-.828,6.385,6.385,0,0,1-1.126-.46,1.085,1.085,0,0,0-1.057.069l-3.4,2.529a13.014,13.014,0,0,1-2.092-2.115l2.506-3.4a.911.911,0,0,0,.046-.988c-.184-.414-.322-.759-.46-1.126a.929.929,0,0,0-.759-.713l-4.161-.644a10.322,10.322,0,0,1-.092-1.471,10.112,10.112,0,0,1,.092-1.471l4.161-.713a.921.921,0,0,0,.759-.644c.161-.345.3-.759.46-1.1a1.025,1.025,0,0,0-.046-1.057l-2.437-3.379a11.743,11.743,0,0,1,2.092-2.046l3.4,2.46a.954.954,0,0,0,1.011.069,9.206,9.206,0,0,1,1.149-.46.911.911,0,0,0,.644-.759l.69-4.184a12.6,12.6,0,0,1,2.943,0l.667,4.184a1,1,0,0,0,.69.759c.345.184.736.3,1.1.46a.9.9,0,0,0,1.034-.069l3.4-2.46a11.76,11.76,0,0,1,2.092,2.046l-2.483,3.4a.98.98,0,0,0-.092,1.057c.184.414.345.759.46,1.1a.948.948,0,0,0,.8.644l4.184.713c.046.46.092.989.092,1.471A11.142,11.142,0,0,1,129.859,126.566Z" transform="translate(-100.87 -109.509)"/>
      </g>
      <g id="Group_260" data-name="Group 260" transform="translate(33.379 35.287)">
        <path id="Path_1156" data-name="Path 1156" class="cls-2" d="M150.487,164.075a5.287,5.287,0,1,1,5.31-5.287A5.288,5.288,0,0,1,150.487,164.075Zm0-8.161a2.851,2.851,0,1,0,2.851,2.874A2.87,2.87,0,0,0,150.487,155.914Z" transform="translate(-145.2 -153.5)"/>
        <path id="Path_1157" data-name="Path 1157" class="cls-2" d="M151.257,154.5a5.057,5.057,0,0,0,0,10.115,5.058,5.058,0,1,0,0-10.115Zm0,8.115a3.061,3.061,0,0,1-3.08-3.057,3.081,3.081,0,1,1,6.161,0A3.061,3.061,0,0,1,151.257,162.615Z" transform="translate(-145.97 -154.27)"/>
      </g>
    </g>
  </g>
</svg>
