<svg xmlns="http://www.w3.org/2000/svg" xmlns:xlink="http://www.w3.org/1999/xlink" viewBox="8237.5 2682.5 215 215">
  <defs>
    <style>
      .cls-1 {
        fill: #fff;
      }

      .cls-2 {
        fill: #4885fa;
      }

      .cls-3 {
        filter: url(#Rectangle_36);
      }
    </style>
    <filter id="Rectangle_36" x="8237.5" y="2682.5" width="215" height="215" filterUnits="userSpaceOnUse">
      <feOffset dy="6" input="SourceAlpha"/>
      <feGaussianBlur stdDeviation="12.5" result="blur"/>
      <feFlood flood-color="#003591" flood-opacity="0.149"/>
      <feComposite operator="in" in2="blur"/>
      <feComposite in="SourceGraphic"/>
    </filter>
  </defs>
  <g id="Group_264" data-name="Group 264" transform="translate(7960)">
    <g class="cls-3" transform="matrix(1, 0, 0, 1, -7960, 0)">
      <rect id="Rectangle_36-2" data-name="Rectangle 36" class="cls-1" width="140" height="140" rx="70" transform="translate(8275 2714)"/>
    </g>
    <g id="Group_257" data-name="Group 257" transform="translate(353.264 2751)">
      <g id="Group_248" data-name="Group 248" transform="translate(0)">
        <path id="Path_1133" data-name="Path 1133" class="cls-2" d="M37.316,62.753a1.218,1.218,0,0,1-1.21-1.235V29.191a1.186,1.186,0,0,1,1.21-1.161h5.211L31.488,17.016,20.448,28.03h4.989a1.186,1.186,0,0,1,1.21,1.161V61.518a1.2,1.2,0,0,1-1.21,1.235H5.927A5.966,5.966,0,0,1,0,56.8V53.936a6.012,6.012,0,0,1,2.4-4.791A5.943,5.943,0,0,1,0,44.428V41.539a6.012,6.012,0,0,1,2.4-4.791A5.965,5.965,0,0,1,0,31.982V29.858A13.413,13.413,0,0,1,9.088,16.917a12.442,12.442,0,0,1,3.828-.642c.346,0,.716.025,1.062.049-.025-.4-.025-.79-.025-1.185a15.113,15.113,0,0,1,29.734-3.853,8.918,8.918,0,0,1,4.347-1.136,9.548,9.548,0,0,1,1.185.074A8.9,8.9,0,0,1,56.48,22.1,9.976,9.976,0,0,1,63,31.661v.321a5.977,5.977,0,0,1-2.371,4.766A6.024,6.024,0,0,1,63,41.539v2.889a5.918,5.918,0,0,1-2.371,4.717A6.024,6.024,0,0,1,63,53.936V56.8a5.955,5.955,0,0,1-5.952,5.952Zm19.732-2.4A3.578,3.578,0,0,0,60.629,56.8V53.936a3.578,3.578,0,0,0-3.581-3.556H38.526v10H57.048Zm-51.072-10A3.578,3.578,0,0,0,2.4,53.912V56.8a3.578,3.578,0,0,0,3.581,3.556h18.3v-10Zm51.072-2.4A3.578,3.578,0,0,0,60.629,44.4V41.514a3.578,3.578,0,0,0-3.581-3.556H38.526v9.977H57.048ZM5.976,37.983A3.578,3.578,0,0,0,2.4,41.539v2.889a3.578,3.578,0,0,0,3.581,3.556h18.3V38.007H5.976Zm51.072-2.4a3.6,3.6,0,0,0,3.581-3.606v-.321A7.7,7.7,0,0,0,55.2,24.178a2.5,2.5,0,0,0-.568-.1h-.049a1.183,1.183,0,0,1-.864-.691,1.135,1.135,0,0,1,.049-1.087A6.607,6.607,0,0,0,54.5,18,6.5,6.5,0,0,0,48.9,12.57c-.247-.025-.519-.049-.766-.049a6.505,6.505,0,0,0-4.47,1.729,1.326,1.326,0,0,1-.815.3.969.969,0,0,1-.445-.1,1.089,1.089,0,0,1-.741-.963A12.735,12.735,0,0,0,16.3,15.139a11.321,11.321,0,0,0,.247,2.346,1.183,1.183,0,0,1-.346,1.087,1.3,1.3,0,0,1-.889.37.481.481,0,0,1-.2-.025,9.78,9.78,0,0,0-2.173-.272,9.207,9.207,0,0,0-3.087.519A11.15,11.15,0,0,0,2.4,29.858v2.124a3.589,3.589,0,0,0,3.581,3.606h18.3V30.426H17.584a1.262,1.262,0,0,1-1.087-.741V29.66a1.168,1.168,0,0,1,.272-1.284l13.9-13.9a1.176,1.176,0,0,1,.84-.346,1.106,1.106,0,0,1,.84.37L46.281,28.4a1.166,1.166,0,0,1,.247,1.309,1.247,1.247,0,0,1-1.087.741H38.526v5.162H57.048Z" transform="translate(0)"/>
        <path id="Path_1134" data-name="Path 1134" class="cls-2" d="M63.506,32.735v-.321A9.788,9.788,0,0,0,56.912,23a8.886,8.886,0,0,0,.494-4.618A8.725,8.725,0,0,0,44.292,12.41a14.888,14.888,0,0,0-29.364,3.482,14.121,14.121,0,0,0,.049,1.457,11.527,11.527,0,0,0-5.087.543A13.21,13.21,0,0,0,1,30.611v2.124A5.718,5.718,0,0,0,3.568,37.5,5.8,5.8,0,0,0,1,42.292v2.889A5.7,5.7,0,0,0,3.568,49.9,5.751,5.751,0,0,0,1,54.665v2.889a5.713,5.713,0,0,0,5.73,5.7H26.24a.97.97,0,0,0,.963-.988V29.944a.939.939,0,0,0-.963-.914H20.633L32.265,17.4,43.9,29.03h-5.8a.973.973,0,0,0-.963.914V62.271a.986.986,0,0,0,.963.988H57.8a5.707,5.707,0,0,0,5.7-5.7V54.69A5.773,5.773,0,0,0,60.962,49.9a5.647,5.647,0,0,0,2.544-4.717V42.292a5.7,5.7,0,0,0-2.544-4.766A5.807,5.807,0,0,0,63.506,32.735ZM25.276,61.358H6.73a3.826,3.826,0,0,1-3.828-3.8V54.69a3.8,3.8,0,0,1,3.828-3.8H25.276Zm0-12.4H6.73a3.826,3.826,0,0,1-3.828-3.8V42.267a3.8,3.8,0,0,1,3.828-3.8H25.276Zm36.353,5.7v2.889a3.826,3.826,0,0,1-3.828,3.8H39.032v-10.5H57.8A3.826,3.826,0,0,1,61.629,54.665Zm0-12.373v2.889a3.826,3.826,0,0,1-3.828,3.8H39.032V38.514H57.8A3.774,3.774,0,0,1,61.629,42.292Zm0-9.557A3.837,3.837,0,0,1,57.8,36.587H39.032V30.932h7.137a.981.981,0,0,0,.864-.593.894.894,0,0,0-.2-1.037L32.907,15.4a.939.939,0,0,0-1.334,0L17.67,29.3a.987.987,0,0,0-.222,1.037,1.043,1.043,0,0,0,.864.593h6.964v5.655H6.73A3.852,3.852,0,0,1,2.9,32.735V30.611A11.319,11.319,0,0,1,10.508,19.7a9.009,9.009,0,0,1,3.186-.543,11.624,11.624,0,0,1,2.223.272,1.025,1.025,0,0,0,.864-.272,1,1,0,0,0,.272-.864,11.274,11.274,0,0,1-.247-2.4,13,13,0,0,1,25.882-1.7.829.829,0,0,0,.593.766.917.917,0,0,0,.988-.173A6.932,6.932,0,0,1,49.7,13.027a6.815,6.815,0,0,1,5.013,10.1.837.837,0,0,0-.025.864.886.886,0,0,0,.667.543,2.681,2.681,0,0,1,.617.1A7.945,7.945,0,0,1,61.6,32.339v.4Z" transform="translate(-0.753 -0.753)"/>
      </g>
      <g id="Group_249" data-name="Group 249" transform="translate(6.446 41.761)">
        <path id="Path_1135" data-name="Path 1135" class="cls-2" d="M27.31,171.52a1.22,1.22,0,0,1-.84-.346,1.343,1.343,0,0,1-.37-.889,1.2,1.2,0,0,1,.37-.84,1.176,1.176,0,0,1,.84-.346h0a1.07,1.07,0,0,1,.84.37,1.279,1.279,0,0,1,.346.815,1.516,1.516,0,0,1-.321.864c0,.025-.025.025-.049.049A1.252,1.252,0,0,1,27.31,171.52Z" transform="translate(-26.1 -169.1)"/>
        <path id="Path_1136" data-name="Path 1136" class="cls-2" d="M28.063,172.083a1.077,1.077,0,0,0,.667-.272,1.125,1.125,0,0,0,.272-.716,1.011,1.011,0,0,0-.272-.642.939.939,0,0,0-1.334,0,.911.911,0,0,0-.3.642,1.031,1.031,0,0,0,.3.716A1.077,1.077,0,0,0,28.063,172.083Z" transform="translate(-26.853 -169.91)"/>
      </g>
      <g id="Group_250" data-name="Group 250" transform="translate(12.126 41.786)">
        <path id="Path_1137" data-name="Path 1137" class="cls-2" d="M50.335,171.6a1.238,1.238,0,0,1-1.235-1.235,1.209,1.209,0,0,1,1.235-1.161,1.2,1.2,0,0,1,0,2.4Z" transform="translate(-49.1 -169.2)"/>
        <path id="Path_1138" data-name="Path 1138" class="cls-2" d="M51.088,172.1a.945.945,0,0,0,.914-.988.912.912,0,0,0-.914-.914.979.979,0,0,0-.988.914A1.007,1.007,0,0,0,51.088,172.1Z" transform="translate(-49.853 -169.953)"/>
      </g>
      <g id="Group_251" data-name="Group 251" transform="translate(17.831 41.761)">
        <path id="Path_1139" data-name="Path 1139" class="cls-2" d="M73.41,171.52a1.183,1.183,0,0,1-1.21-1.235,1.2,1.2,0,0,1,.346-.84,1.176,1.176,0,0,1,.84-.346h0a1.176,1.176,0,0,1,.84.346,1.156,1.156,0,0,1,.37.84,1.327,1.327,0,0,1-.346.864A1.186,1.186,0,0,1,73.41,171.52Z" transform="translate(-72.2 -169.1)"/>
        <path id="Path_1140" data-name="Path 1140" class="cls-2" d="M74.163,172.083a.958.958,0,0,0,.642-.272,1.031,1.031,0,0,0,.3-.716.831.831,0,0,0-.3-.642.939.939,0,0,0-1.334,0,.879.879,0,0,0-.272.642,1,1,0,0,0,.272.716A1.088,1.088,0,0,0,74.163,172.083Z" transform="translate(-72.953 -169.91)"/>
      </g>
      <g id="Group_252" data-name="Group 252" transform="translate(6.47 54.183)">
        <path id="Path_1141" data-name="Path 1141" class="cls-2" d="M27.385,221.771a1.182,1.182,0,0,1-1.185-1.235,1.157,1.157,0,0,1,.346-.84,1.246,1.246,0,0,1,.84-.3,1.154,1.154,0,0,1,.84.321,1.22,1.22,0,0,1,.346.84,1.516,1.516,0,0,1-.321.864c0,.025-.025.025-.049.049A1.37,1.37,0,0,1,27.385,221.771Z" transform="translate(-26.2 -219.4)"/>
        <path id="Path_1142" data-name="Path 1142" class="cls-2" d="M28.138,222.3a1.077,1.077,0,0,0,.667-.272,1.125,1.125,0,0,0,.272-.716,1.011,1.011,0,0,0-.272-.642,1.044,1.044,0,0,0-1.334,0,.879.879,0,0,0-.272.642,1,1,0,0,0,.272.716A.954.954,0,0,0,28.138,222.3Z" transform="translate(-26.953 -220.172)"/>
      </g>
      <g id="Group_253" data-name="Group 253" transform="translate(12.151 54.159)">
        <path id="Path_1143" data-name="Path 1143" class="cls-2" d="M50.41,221.7a1.218,1.218,0,0,1-1.21-1.235,1.186,1.186,0,1,1,1.21,1.235Z" transform="translate(-49.2 -219.3)"/>
        <path id="Path_1144" data-name="Path 1144" class="cls-2" d="M51.163,222.2a.945.945,0,0,0,.914-.988.912.912,0,0,0-.914-.914.955.955,0,0,0-.963.914A.97.97,0,0,0,51.163,222.2Z" transform="translate(-49.953 -220.053)"/>
      </g>
      <g id="Group_254" data-name="Group 254" transform="translate(17.831 54.183)">
        <path id="Path_1145" data-name="Path 1145" class="cls-2" d="M73.41,221.771a1.183,1.183,0,0,1-1.21-1.235,1.157,1.157,0,0,1,.346-.84,1.246,1.246,0,0,1,.84-.3h0a1.18,1.18,0,0,1,1.21,1.161,1.327,1.327,0,0,1-.346.864A1.266,1.266,0,0,1,73.41,221.771Z" transform="translate(-72.2 -219.4)"/>
        <path id="Path_1146" data-name="Path 1146" class="cls-2" d="M74.163,222.3a.958.958,0,0,0,.642-.272,1.031,1.031,0,0,0,.3-.716.831.831,0,0,0-.3-.642,1.044,1.044,0,0,0-1.334,0,.879.879,0,0,0-.272.642,1,1,0,0,0,.272.716A.97.97,0,0,0,74.163,222.3Z" transform="translate(-72.953 -220.172)"/>
      </g>
      <g id="Group_255" data-name="Group 255" transform="translate(48.726 41.786)">
        <path id="Path_1147" data-name="Path 1147" class="cls-2" d="M198.51,171.6a1.218,1.218,0,0,1-1.21-1.235,1.186,1.186,0,0,1,1.21-1.161h6.52a1.22,1.22,0,0,1,1.21,1.161,1.233,1.233,0,0,1-1.21,1.235Z" transform="translate(-197.3 -169.2)"/>
        <path id="Path_1148" data-name="Path 1148" class="cls-2" d="M205.783,170.2h-6.52a.973.973,0,0,0-.963.914.986.986,0,0,0,.963.988h6.52a.951.951,0,1,0,0-1.9Z" transform="translate(-198.053 -169.953)"/>
      </g>
      <g id="Group_256" data-name="Group 256" transform="translate(48.726 54.159)">
        <path id="Path_1149" data-name="Path 1149" class="cls-2" d="M198.51,221.7a1.25,1.25,0,0,1-1.21-1.235,1.186,1.186,0,0,1,1.21-1.161h6.52a1.22,1.22,0,0,1,1.21,1.161,1.233,1.233,0,0,1-1.21,1.235Z" transform="translate(-197.3 -219.3)"/>
        <path id="Path_1150" data-name="Path 1150" class="cls-2" d="M205.783,220.3h-6.52a.973.973,0,0,0-.963.914.986.986,0,0,0,.963.988h6.52a.986.986,0,0,0,.963-.988A1.01,1.01,0,0,0,205.783,220.3Z" transform="translate(-198.053 -220.053)"/>
      </g>
    </g>
  </g>
</svg>
