<svg xmlns="http://www.w3.org/2000/svg" xmlns:xlink="http://www.w3.org/1999/xlink" viewBox="9003.5 2682.5 215 215">
  <defs>
    <style>
      .cls-1 {
        fill: #fff;
      }

      .cls-2 {
        fill: #4885fa;
      }

      .cls-3 {
        filter: url(#Rectangle_55);
      }
    </style>
    <filter id="Rectangle_55" x="9003.5" y="2682.5" width="215" height="215" filterUnits="userSpaceOnUse">
      <feOffset dy="6" input="SourceAlpha"/>
      <feGaussianBlur stdDeviation="12.5" result="blur"/>
      <feFlood flood-color="#003591" flood-opacity="0.149"/>
      <feComposite operator="in" in2="blur"/>
      <feComposite in="SourceGraphic"/>
    </filter>
  </defs>
  <g id="Group_266" data-name="Group 266" transform="translate(7960)">
    <g class="cls-3" transform="matrix(1, 0, 0, 1, -7960, 0)">
      <rect id="Rectangle_55-2" data-name="Rectangle 55" class="cls-1" width="140" height="140" rx="70" transform="translate(9041 2714)"/>
    </g>
    <path id="Path_1151" data-name="Path 1151" class="cls-2" d="M64.778,23.354H49.325V1.047c0-.05,0-.075-.025-.1V.9c0-.025-.025-.05-.025-.075a.476.476,0,0,0-.075-.2V.573a.227.227,0,0,0-.1-.2L49.026.3c-.025-.025-.05-.025-.05-.05a.545.545,0,0,0-.125-.075A.318.318,0,0,0,48.677.05.453.453,0,0,0,48.4-.025h0a.024.024,0,0,1-.025-.025A.36.36,0,0,0,48.2-.1H1.147a1.215,1.215,0,0,0-.174.075H.947A.412.412,0,0,0,.623.1.545.545,0,0,1,.5.174a.588.588,0,0,0-.224.2C.249.4.224.448.2.473A.421.421,0,0,1,.15.6.354.354,0,0,0,.1.747V.772c-.05.05-.05.1-.075.15v.05A.092.092,0,0,0,0,1.047V35.218c0,.025,0,.075.025.075a.587.587,0,0,0,.05.2v.025a.385.385,0,0,0,.075.15c0,.05.025.075.05.125a.3.3,0,0,0,.125.125A1.087,1.087,0,0,0,.6,36.14h0a.213.213,0,0,0,.15.075l.05.025a1.086,1.086,0,0,0,.449.1H16.7V56.054A1.266,1.266,0,0,0,17.945,57.3H22.93v4.436a1.374,1.374,0,0,0,.573,1.072c.025.025.05.025.075.05a1.777,1.777,0,0,0,.573.125,1.957,1.957,0,0,0,.548-.125.024.024,0,0,0,.025-.025L35.118,57.35H64.753A1.266,1.266,0,0,0,66,56.1V24.6A1.2,1.2,0,0,0,64.778,23.354ZM34.271,54.982h0L25.4,59.668V56.079a1.266,1.266,0,0,0-1.246-1.246H19.167V46.807h44.34v8.026H34.819A1.98,1.98,0,0,0,34.271,54.982ZM20.438,22.755V33.872H5.06ZM5.06,2.417H20.438V13.534ZM2.467,13.907V3.589L16.724,13.907H2.467Zm20.438,1.246V2.417h3.489V15.154A1.266,1.266,0,0,0,27.641,16.4H46.832v3.489H27.641a1.208,1.208,0,0,0-1.246,1.2V33.872H22.905V21.086a1.218,1.218,0,0,0-1.221-1.2H2.467V16.4H21.684A1.245,1.245,0,0,0,22.905,15.154ZM44.24,2.417,28.862,13.534V2.417Zm2.617,1.171V13.907H32.6ZM48.976,35.94a.3.3,0,0,0,.125-.125c.025-.05.025-.075.05-.125a.448.448,0,0,0,.1-.224.316.316,0,0,0,.025-.15.188.188,0,0,1,.025-.1V25.846H63.507v8.026H54.659a1.229,1.229,0,0,0-1.221,1.246,1.245,1.245,0,0,0,1.221,1.246h8.848v7.951H19.167V36.364H30.856l10.393,5.483a.087.087,0,0,0,.05.025,1.618,1.618,0,0,0,.548.125,1.024,1.024,0,0,0,.648-.224,1.16,1.16,0,0,0,.573-1.022V36.364H48.1a1.061,1.061,0,0,0,.424-.1l.075-.025c.025,0,.075-.05.1-.075a.087.087,0,0,0,.05-.025A.807.807,0,0,0,48.976,35.94ZM32.6,22.332H46.857V32.7Zm8,12.786v3.589l-8.823-4.661a.933.933,0,0,0-.6-.15H28.862V22.755L44.24,33.872H41.873A1.24,1.24,0,0,0,40.6,35.118ZM16.724,22.332,2.467,32.7V22.332Z" transform="translate(1118.219 2753.1)"/>
  </g>
</svg>
