<svg xmlns="http://www.w3.org/2000/svg" xmlns:xlink="http://www.w3.org/1999/xlink" viewBox="2642.807 4302.5 269.193 275">
  <defs>
    <style>
      .cls-1 {
        fill: #c9d6e2;
      }

      .cls-2 {
        fill: #4885fa;
      }

      .cls-3 {
        filter: url(#Path_1201);
      }
    </style>
    <filter id="Path_1201" x="2642.807" y="4302.5" width="269.193" height="275" filterUnits="userSpaceOnUse">
      <feOffset dy="6" input="SourceAlpha"/>
      <feGaussianBlur stdDeviation="12.5" result="blur"/>
      <feFlood flood-color="#003591" flood-opacity="0.4"/>
      <feComposite operator="in" in2="blur"/>
      <feComposite in="SourceGraphic"/>
    </filter>
  </defs>
  <g id="Group_313" data-name="Group 313" transform="translate(2674.5 4334)">
    <g id="Group_311" data-name="Group 311">
      <path id="Path_1200" data-name="Path 1200" class="cls-1" d="M100,200A100,100,0,1,1,200,100,100.117,100.117,0,0,1,100,200Zm0-180.392A80.392,80.392,0,1,0,180.392,100,80.5,80.5,0,0,0,100,19.608Z"/>
    </g>
    <g id="Group_312" data-name="Group 312" transform="translate(5.807)">
      <g class="cls-3" transform="matrix(1, 0, 0, 1, -2680.31, -4334)">
        <path id="Path_1201-2" data-name="Path 1201" class="cls-2" d="M101.6,200A100,100,0,0,1,8.028,135.216a9.8,9.8,0,1,1,18.353-6.9A80.382,80.382,0,1,0,101.6,19.608,9.8,9.8,0,0,1,101.6,0a100,100,0,0,1,0,200Z" transform="translate(2672.9 4334)"/>
      </g>
    </g>
  </g>
</svg>
